<svg width="32" height="32" viewBox="0 0 32 32" fill="none" xmlns="http://www.w3.org/2000/svg">
<path d="M18.669 12.2433C19.0795 11.8738 19.1128 11.2416 18.7433 10.831C18.3738 10.4205 17.7415 10.3873 17.331 10.7567L12.331 15.2567C12.1203 15.4464 12 15.7165 12 16C12 16.2835 12.1203 16.5537 12.331 16.7433L17.331 21.2433C17.7415 21.6128 18.3738 21.5795 18.7433 21.169C19.1128 20.7585 19.0795 20.1262 18.669 19.7567L14.4948 16L18.669 12.2433Z" fill="white"/>
<path fill-rule="evenodd" clip-rule="evenodd" d="M16 3C8.8203 3 3 8.8203 3 16C3 23.1797 8.8203 29 16 29C23.1797 29 29 23.1797 29 16C29 8.8203 23.1797 3 16 3ZM5 16C5 9.92487 9.92487 5 16 5C22.0751 5 27 9.92487 27 16C27 22.0751 22.0751 27 16 27C9.92487 27 5 22.0751 5 16Z" fill="white"/>
<path fill-rule="evenodd" clip-rule="evenodd" d="M2.5 16C2.5 8.54416 8.54416 2.5 16 2.5C23.4558 2.5 29.5 8.54416 29.5 16C29.5 23.4558 23.4558 29.5 16 29.5C8.54416 29.5 2.5 23.4558 2.5 16ZM16 3.5C9.09644 3.5 3.5 9.09644 3.5 16C3.5 22.9036 9.09644 28.5 16 28.5C22.9036 28.5 28.5 22.9036 28.5 16C28.5 9.09644 22.9036 3.5 16 3.5ZM16 5.5C10.201 5.5 5.5 10.201 5.5 16C5.5 21.799 10.201 26.5 16 26.5C21.799 26.5 26.5 21.799 26.5 16C26.5 10.201 21.799 5.5 16 5.5ZM4.5 16C4.5 9.64873 9.64873 4.5 16 4.5C22.3513 4.5 27.5 9.64873 27.5 16C27.5 22.3513 22.3513 27.5 16 27.5C9.64873 27.5 4.5 22.3513 4.5 16ZM16.9966 10.3851C17.6123 9.83088 18.5608 9.8808 19.1149 10.4966C19.6691 11.1123 19.6192 12.0608 19.0034 12.615L15.2423 16L19.0034 19.3851C19.6192 19.9393 19.6691 20.8877 19.1149 21.5035C18.5608 22.1192 17.6123 22.1691 16.9966 21.6149L11.9966 17.115C11.6805 16.8305 11.5 16.4252 11.5 16C11.5 15.5748 11.6805 15.1695 11.9966 14.8851L16.9966 10.3851ZM18.3716 11.1655C18.1869 10.9603 17.8708 10.9436 17.6655 11.1284L12.6655 15.6284C12.5602 15.7232 12.5 15.8583 12.5 16C12.5 16.1418 12.5602 16.2768 12.6655 16.3717L17.6655 20.8717C17.8708 21.0564 18.1869 21.0397 18.3716 20.8345C18.5564 20.6292 18.5397 20.3131 18.3345 20.1284L14.1604 16.3717C14.055 16.2768 13.9948 16.1418 13.9948 16C13.9948 15.8583 14.055 15.7232 14.1604 15.6284L18.3345 11.8717C18.5397 11.6869 18.5564 11.3708 18.3716 11.1655Z" fill="white"/>
</svg>
