<svg width="32" height="33" viewBox="0 0 32 33" fill="none" xmlns="http://www.w3.org/2000/svg">
<path d="M22.2372 13.7333C22.6104 13.3262 22.5828 12.6937 22.1757 12.3205C21.7686 11.9473 21.136 11.9748 20.7629 12.3819L14.1667 19.5777L11.2372 16.3819C10.864 15.9748 10.2314 15.9473 9.82428 16.3205C9.41716 16.6937 9.38966 17.3262 9.76285 17.7333L13.4295 21.7333C13.6189 21.94 13.8864 22.0576 14.1667 22.0576C14.447 22.0576 14.7144 21.94 14.9038 21.7333L22.2372 13.7333Z" fill="white"/>
<path fill-rule="evenodd" clip-rule="evenodd" d="M16 3.42188C8.8203 3.42188 3 9.24217 3 16.4219C3 23.6016 8.8203 29.4219 16 29.4219C23.1797 29.4219 29 23.6016 29 16.4219C29 9.24217 23.1797 3.42188 16 3.42188ZM5 16.4219C5 10.3467 9.92487 5.42188 16 5.42188C22.0751 5.42188 27 10.3467 27 16.4219C27 22.497 22.0751 27.4219 16 27.4219C9.92487 27.4219 5 22.497 5 16.4219Z" fill="white"/>
<path fill-rule="evenodd" clip-rule="evenodd" d="M2.5 16.4219C2.5 8.96603 8.54416 2.92188 16 2.92188C23.4558 2.92188 29.5 8.96603 29.5 16.4219C29.5 23.8777 23.4558 29.9219 16 29.9219C8.54416 29.9219 2.5 23.8777 2.5 16.4219ZM16 3.92188C9.09644 3.92188 3.5 9.51832 3.5 16.4219C3.5 23.3254 9.09644 28.9219 16 28.9219C22.9036 28.9219 28.5 23.3254 28.5 16.4219C28.5 9.51832 22.9036 3.92188 16 3.92188ZM16 5.92188C10.201 5.92188 5.5 10.6229 5.5 16.4219C5.5 22.2209 10.201 26.9219 16 26.9219C21.799 26.9219 26.5 22.2209 26.5 16.4219C26.5 10.6229 21.799 5.92188 16 5.92188ZM4.5 16.4219C4.5 10.0706 9.64873 4.92188 16 4.92188C22.3513 4.92188 27.5 10.0706 27.5 16.4219C27.5 22.7731 22.3513 27.9219 16 27.9219C9.64873 27.9219 4.5 22.7731 4.5 16.4219ZM20.3943 12.044C20.9541 11.4334 21.9029 11.3921 22.5136 11.9519C23.1243 12.5117 23.1655 13.4605 22.6057 14.0712L15.2724 22.0712C14.9883 22.3812 14.5871 22.5576 14.1667 22.5576C13.7462 22.5576 13.3451 22.3812 13.0609 22.0712L9.39427 18.0712C8.83449 17.4605 8.87574 16.5117 9.48642 15.9519C10.0971 15.3921 11.0459 15.4334 11.6057 16.044L14.1667 18.8378L20.3943 12.044ZM21.8379 12.689C21.6343 12.5024 21.318 12.5162 21.1314 12.7198L14.5352 19.9156C14.4405 20.0189 14.3068 20.0777 14.1667 20.0777C14.0265 20.0777 13.8928 20.0189 13.7981 19.9156L10.8686 16.7198C10.682 16.5162 10.3657 16.5024 10.1621 16.689C9.95858 16.8756 9.94483 17.1919 10.1314 17.3955L13.7981 21.3955C13.8928 21.4988 14.0265 21.5576 14.1667 21.5576C14.3068 21.5576 14.4405 21.4988 14.5352 21.3955L21.8686 13.3955C22.0552 13.1919 22.0414 12.8756 21.8379 12.689Z" fill="white"/>
</svg>
