<svg width="32" height="33" viewBox="0 0 32 33" fill="none" xmlns="http://www.w3.org/2000/svg">
<path fill-rule="evenodd" clip-rule="evenodd" d="M2.5 16.4219C2.5 8.96603 8.54416 2.92188 16 2.92188C23.4558 2.92188 29.5 8.96603 29.5 16.4219C29.5 23.8777 23.4558 29.9219 16 29.9219C8.54416 29.9219 2.5 23.8777 2.5 16.4219ZM20.3943 12.044C20.9541 11.4334 21.9029 11.3921 22.5136 11.9519C23.1243 12.5117 23.1655 13.4605 22.6057 14.0712L15.2724 22.0712C14.9883 22.3812 14.5871 22.5576 14.1667 22.5576C13.7462 22.5576 13.3451 22.3812 13.0609 22.0712L9.39427 18.0712C8.83449 17.4605 8.87574 16.5117 9.48642 15.9519C10.0971 15.3921 11.0459 15.4334 11.6057 16.044L14.1667 18.8378L20.3943 12.044Z" fill="white"/>
</svg>
