<svg width="32" height="32" viewBox="0 0 32 32" fill="none" xmlns="http://www.w3.org/2000/svg">
<path d="M17.25 6.5C17.25 7.32843 16.5784 8 15.75 8C14.9216 8 14.25 7.32843 14.25 6.5C14.25 5.67157 14.9216 5 15.75 5C16.5784 5 17.25 5.67157 17.25 6.5Z" fill="white"/>
<path d="M15 11C14.4477 11 14 11.4477 14 12C14 12.5523 14.4477 13 15 13V26C15 26.5523 15.4477 27 16 27H17C17.5523 27 18 26.5523 18 26C18 25.4477 17.5523 25 17 25V12C17 11.4477 16.5523 11 16 11H15Z" fill="white"/>
<path fill-rule="evenodd" clip-rule="evenodd" d="M15.75 5.5C15.1977 5.5 14.75 5.94772 14.75 6.5C14.75 7.05228 15.1977 7.5 15.75 7.5C16.3023 7.5 16.75 7.05228 16.75 6.5C16.75 5.94772 16.3023 5.5 15.75 5.5ZM13.75 6.5C13.75 5.39543 14.6454 4.5 15.75 4.5C16.8546 4.5 17.75 5.39543 17.75 6.5C17.75 7.60457 16.8546 8.5 15.75 8.5C14.6454 8.5 13.75 7.60457 13.75 6.5ZM13.5 12C13.5 11.1716 14.1716 10.5 15 10.5H16C16.8284 10.5 17.5 11.1716 17.5 12V24.5854C18.0826 24.7913 18.5 25.3469 18.5 26C18.5 26.8284 17.8284 27.5 17 27.5H16C15.1716 27.5 14.5 26.8284 14.5 26V13.4146C13.9174 13.2087 13.5 12.6531 13.5 12ZM15 11.5C14.7239 11.5 14.5 11.7239 14.5 12C14.5 12.2761 14.7239 12.5 15 12.5H15.5V26C15.5 26.2761 15.7239 26.5 16 26.5H17C17.2761 26.5 17.5 26.2761 17.5 26C17.5 25.7239 17.2761 25.5 17 25.5H16.5V12C16.5 11.7239 16.2761 11.5 16 11.5H15Z" fill="white"/>
</svg>
