<svg width="32" height="33" viewBox="0 0 32 33" fill="none" xmlns="http://www.w3.org/2000/svg">
<path d="M20.7071 11.7148C21.0976 12.1053 21.0976 12.7385 20.7071 13.129L17.4142 16.4219L20.7071 19.7148C21.0976 20.1053 21.0976 20.7385 20.7071 21.129C20.3166 21.5195 19.6834 21.5195 19.2929 21.129L16 17.8361L12.7071 21.129C12.3166 21.5195 11.6834 21.5195 11.2929 21.129C10.9024 20.7385 10.9024 20.1053 11.2929 19.7148L14.5858 16.4219L11.2929 13.129C10.9024 12.7385 10.9024 12.1053 11.2929 11.7148C11.6834 11.3242 12.3166 11.3242 12.7071 11.7148L16 15.0077L19.2929 11.7148C19.6834 11.3242 20.3166 11.3242 20.7071 11.7148Z" fill="white"/>
<path fill-rule="evenodd" clip-rule="evenodd" d="M3 16.4219C3 9.24217 8.8203 3.42188 16 3.42188C23.1797 3.42188 29 9.24217 29 16.4219C29 23.6016 23.1797 29.4219 16 29.4219C8.8203 29.4219 3 23.6016 3 16.4219ZM16 5.42188C9.92487 5.42188 5 10.3467 5 16.4219C5 22.497 9.92487 27.4219 16 27.4219C22.0751 27.4219 27 22.497 27 16.4219C27 10.3467 22.0751 5.42188 16 5.42188Z" fill="white"/>
<path fill-rule="evenodd" clip-rule="evenodd" d="M16 3.92188C9.09644 3.92188 3.5 9.51832 3.5 16.4219C3.5 23.3254 9.09644 28.9219 16 28.9219C22.9036 28.9219 28.5 23.3254 28.5 16.4219C28.5 9.51832 22.9036 3.92188 16 3.92188ZM2.5 16.4219C2.5 8.96603 8.54416 2.92188 16 2.92188C23.4558 2.92188 29.5 8.96603 29.5 16.4219C29.5 23.8777 23.4558 29.9219 16 29.9219C8.54416 29.9219 2.5 23.8777 2.5 16.4219ZM4.5 16.4219C4.5 10.0706 9.64873 4.92188 16 4.92188C22.3513 4.92188 27.5 10.0706 27.5 16.4219C27.5 22.7731 22.3513 27.9219 16 27.9219C9.64873 27.9219 4.5 22.7731 4.5 16.4219ZM16 5.92188C10.201 5.92188 5.5 10.6229 5.5 16.4219C5.5 22.2209 10.201 26.9219 16 26.9219C21.799 26.9219 26.5 22.2209 26.5 16.4219C26.5 10.6229 21.799 5.92188 16 5.92188ZM12.3536 12.0683C12.1583 11.8731 11.8417 11.8731 11.6464 12.0683C11.4512 12.2636 11.4512 12.5802 11.6464 12.7754L14.9393 16.0683C15.1346 16.2636 15.1346 16.5802 14.9393 16.7754L11.6464 20.0683C11.4512 20.2636 11.4512 20.5802 11.6464 20.7754C11.8417 20.9707 12.1583 20.9707 12.3536 20.7754L15.6464 17.4825C15.7402 17.3888 15.8674 17.3361 16 17.3361C16.1326 17.3361 16.2598 17.3888 16.3536 17.4825L19.6464 20.7754C19.8417 20.9707 20.1583 20.9707 20.3536 20.7754C20.5488 20.5802 20.5488 20.2636 20.3536 20.0683L17.0607 16.7754C16.9669 16.6817 16.9142 16.5545 16.9142 16.4219C16.9142 16.2893 16.9669 16.1621 17.0607 16.0683L20.3536 12.7754C20.5488 12.5802 20.5488 12.2636 20.3536 12.0683C20.1583 11.8731 19.8417 11.8731 19.6464 12.0683L16.3536 15.3612C16.1583 15.5565 15.8417 15.5565 15.6464 15.3612L12.3536 12.0683ZM10.9393 11.3612C11.5251 10.7754 12.4749 10.7754 13.0607 11.3612L16 14.3006L18.9393 11.3612C19.5251 10.7754 20.4749 10.7754 21.0607 11.3612C21.6464 11.947 21.6464 12.8967 21.0607 13.4825L18.1213 16.4219L21.0607 19.3612C21.6464 19.947 21.6464 20.8967 21.0607 21.4825C20.4749 22.0683 19.5251 22.0683 18.9393 21.4825L16 18.5432L13.0607 21.4825C12.4749 22.0683 11.5251 22.0683 10.9393 21.4825C10.3536 20.8967 10.3536 19.947 10.9393 19.3612L13.8787 16.4219L10.9393 13.4825C10.3536 12.8967 10.3536 11.947 10.9393 11.3612Z" fill="white"/>
</svg>
