<svg width="32" height="33" viewBox="0 0 32 33" fill="none" xmlns="http://www.w3.org/2000/svg">
<path fill-rule="evenodd" clip-rule="evenodd" d="M2.5 16.4219C2.5 8.96603 8.54416 2.92188 16 2.92188C23.4558 2.92188 29.5 8.96603 29.5 16.4219C29.5 23.8777 23.4558 29.9219 16 29.9219C8.54416 29.9219 2.5 23.8777 2.5 16.4219ZM10.9393 11.3612C11.5251 10.7754 12.4749 10.7754 13.0607 11.3612L16 14.3006L18.9393 11.3612C19.5251 10.7754 20.4749 10.7754 21.0607 11.3612C21.6464 11.947 21.6464 12.8967 21.0607 13.4825L18.1213 16.4219L21.0607 19.3612C21.6464 19.947 21.6464 20.8967 21.0607 21.4825C20.4749 22.0683 19.5251 22.0683 18.9393 21.4825L16 18.5432L13.0607 21.4825C12.4749 22.0683 11.5251 22.0683 10.9393 21.4825C10.3536 20.8967 10.3536 19.947 10.9393 19.3612L13.8787 16.4219L10.9393 13.4825C10.3536 12.8967 10.3536 11.947 10.9393 11.3612Z" fill="white"/>
</svg>
