<svg width="32" height="33" viewBox="0 0 32 33" fill="none" xmlns="http://www.w3.org/2000/svg">
<path fill-rule="evenodd" clip-rule="evenodd" d="M12.0365 3.86117C13.3166 3.33666 14.6879 3.07059 16.0712 3.07829L16.0733 3.0783C21.8745 3.12225 26.4754 7.93178 26.4754 13.6908V14.5783C26.4754 18.8408 27.3668 21.1708 28.036 22.3267L28.0368 22.3281C28.2559 22.7075 28.3715 23.138 28.3719 23.5761C28.3722 24.0142 28.2575 24.4447 28.0391 24.8244C27.8208 25.2042 27.5064 25.52 27.1276 25.74C26.7488 25.9601 26.3188 26.0767 25.8807 26.0783L25.8762 26.0783H21.4776C21.3612 27.3535 20.8023 28.5543 19.8895 29.4672C18.858 30.4987 17.4591 31.0781 16.0004 31.0781C14.5417 31.0781 13.1427 30.4987 12.1113 29.4672C11.1984 28.5543 10.6395 27.3535 10.5231 26.0783H6.12538L6.12105 26.0783C5.68296 26.0767 5.25201 25.9601 4.87319 25.74C4.49436 25.52 4.18002 25.2042 3.96164 24.8244C3.74326 24.4447 3.62852 24.0142 3.62891 23.5761C3.6293 23.138 3.7448 22.7077 3.96385 22.3283L3.96797 22.3212C4.63681 21.1634 5.52539 18.834 5.52539 14.5781V13.5781L5.52539 13.5746C5.52419 12.1931 5.79598 10.8251 6.32508 9.54894C6.85481 8.27127 7.63205 7.11101 8.61202 6.13495C9.59226 5.15878 10.7564 4.38568 12.0365 3.86117ZM9.09634 10.6979C9.47461 9.78556 10.0296 8.95706 10.7295 8.26013C11.4293 7.5632 12.2601 7.01165 13.174 6.63718C14.0874 6.2629 15.0659 6.07295 16.053 6.07823C20.1517 6.11008 23.4754 9.52585 23.4754 13.6908V14.5783C23.4754 18.6333 24.2114 21.3281 25.045 23.0783L6.95579 23.0783C7.78939 21.3281 8.52539 18.6332 8.52539 14.5781V13.5833L8.5254 13.576C8.52401 12.5884 8.71806 11.6103 9.09634 10.6979ZM13.5509 26.0783C13.6482 26.5549 13.8834 26.9967 14.2326 27.3459C14.7014 27.8147 15.3373 28.0781 16.0004 28.0781C16.6634 28.0781 17.2993 27.8147 17.7681 27.3459C18.1173 26.9967 18.3525 26.5549 18.4498 26.0783H13.5509Z" fill="white"/>
</svg>
