<svg width="32" height="33" viewBox="0 0 32 33" fill="none" xmlns="http://www.w3.org/2000/svg">
<path fill-rule="evenodd" clip-rule="evenodd" d="M7.58579 6.16391C7.96086 5.78884 8.46957 5.57812 9 5.57812H27C27.5304 5.57812 28.0391 5.78884 28.4142 6.16391C28.7893 6.53899 29 7.04769 29 7.57812V21.5781C29 22.1086 28.7893 22.6173 28.4142 22.9923C28.0391 23.3674 27.5304 23.5781 27 23.5781H25V25.5781C25 26.6827 24.1046 27.5781 23 27.5781H5C3.89543 27.5781 3 26.6827 3 25.5781V11.5781C3 10.4736 3.89543 9.57812 5 9.57812H7V7.57812C7 7.04769 7.21071 6.53898 7.58579 6.16391ZM5 15.5781V25.5781H23V15.5781H5ZM23 13.5781H5V11.5781H23V13.5781ZM25 21.5781H27V7.57812L9 7.57813V9.57812H23C24.1046 9.57812 25 10.4736 25 11.5781V21.5781Z" fill="white"/>
<path fill-rule="evenodd" clip-rule="evenodd" d="M9 6.07812C8.60217 6.07812 8.22064 6.23616 7.93934 6.51746C7.65804 6.79877 7.5 7.1803 7.5 7.57812V9.57812C7.5 9.85427 7.27614 10.0781 7 10.0781H5C4.17157 10.0781 3.5 10.7497 3.5 11.5781V25.5781C3.5 26.4066 4.17157 27.0781 5 27.0781H23C23.8284 27.0781 24.5 26.4066 24.5 25.5781V23.5781C24.5 23.302 24.7239 23.0781 25 23.0781H27C27.3978 23.0781 27.7794 22.9201 28.0607 22.6388C28.342 22.3575 28.5 21.9759 28.5 21.5781V7.57812C28.5 7.1803 28.342 6.79877 28.0607 6.51747C27.7794 6.23616 27.3978 6.07812 27 6.07812H9ZM7.23223 5.81036C7.70107 5.34152 8.33696 5.07812 9 5.07812H27C27.663 5.07812 28.2989 5.34152 28.7678 5.81036C29.2366 6.2792 29.5 6.91509 29.5 7.57812V21.5781C29.5 22.2412 29.2366 22.877 28.7678 23.3459C28.2989 23.8147 27.663 24.0781 27 24.0781H25.5V25.5781C25.5 26.9588 24.3807 28.0781 23 28.0781H5C3.61929 28.0781 2.5 26.9588 2.5 25.5781V11.5781C2.5 10.1974 3.61929 9.07812 5 9.07812H6.5V7.57812C6.5 6.91508 6.76339 6.2792 7.23223 5.81036ZM9 7.07813L27 7.07812C27.1326 7.07812 27.2598 7.1308 27.3536 7.22457C27.4473 7.31834 27.5 7.44552 27.5 7.57812V21.5781C27.5 21.8543 27.2761 22.0781 27 22.0781H25C24.7239 22.0781 24.5 21.8543 24.5 21.5781V11.5781C24.5 10.7497 23.8284 10.0781 23 10.0781H9C8.72386 10.0781 8.5 9.85427 8.5 9.57812V7.57813C8.5 7.30198 8.72386 7.07813 9 7.07813ZM9.5 8.07813V9.07812H23C24.3807 9.07812 25.5 10.1974 25.5 11.5781V21.0781H26.5V8.07812L9.5 8.07813ZM4.5 11.5781C4.5 11.302 4.72386 11.0781 5 11.0781H23C23.2761 11.0781 23.5 11.302 23.5 11.5781V13.5781C23.5 13.8543 23.2761 14.0781 23 14.0781H5C4.72386 14.0781 4.5 13.8543 4.5 13.5781V11.5781ZM5.5 12.0781V13.0781H22.5V12.0781H5.5ZM4.5 15.5781C4.5 15.302 4.72386 15.0781 5 15.0781H23C23.2761 15.0781 23.5 15.302 23.5 15.5781V25.5781C23.5 25.8543 23.2761 26.0781 23 26.0781H5C4.72386 26.0781 4.5 25.8543 4.5 25.5781V15.5781ZM5.5 16.0781V25.0781H22.5V16.0781H5.5Z" fill="white"/>
</svg>
