<svg width="32" height="33" viewBox="0 0 32 33" fill="none" xmlns="http://www.w3.org/2000/svg">
<path fill-rule="evenodd" clip-rule="evenodd" d="M5 5.57812C3.89543 5.57812 3 6.47356 3 7.57812V25.5781C3 26.6827 3.89543 27.5781 5 27.5781H27C28.1046 27.5781 29 26.6827 29 25.5781V7.57812C29 6.47356 28.1046 5.57812 27 5.57812H5ZM27 11.5781V7.57812H5V11.5781H27ZM5 13.5781H27V25.5781H5V13.5781Z" fill="white"/>
<path fill-rule="evenodd" clip-rule="evenodd" d="M2.5 7.57812C2.5 6.19741 3.61929 5.07812 5 5.07812H27C28.3807 5.07812 29.5 6.19741 29.5 7.57812V25.5781C29.5 26.9588 28.3807 28.0781 27 28.0781H5C3.61929 28.0781 2.5 26.9588 2.5 25.5781V7.57812ZM5 6.07812C4.17157 6.07812 3.5 6.7497 3.5 7.57812V25.5781C3.5 26.4066 4.17157 27.0781 5 27.0781H27C27.8284 27.0781 28.5 26.4066 28.5 25.5781V7.57812C28.5 6.7497 27.8284 6.07812 27 6.07812H5ZM4.5 7.57812C4.5 7.30198 4.72386 7.07812 5 7.07812H27C27.2761 7.07812 27.5 7.30198 27.5 7.57812V11.5781C27.5 11.8543 27.2761 12.0781 27 12.0781H5C4.72386 12.0781 4.5 11.8543 4.5 11.5781V7.57812ZM5.5 8.07812V11.0781H26.5V8.07812H5.5ZM4.5 13.5781C4.5 13.302 4.72386 13.0781 5 13.0781H27C27.2761 13.0781 27.5 13.302 27.5 13.5781V25.5781C27.5 25.8543 27.2761 26.0781 27 26.0781H5C4.72386 26.0781 4.5 25.8543 4.5 25.5781V13.5781ZM5.5 14.0781V25.0781H26.5V14.0781H5.5Z" fill="white"/>
</svg>
