<svg width="32" height="32" viewBox="0 0 32 32" fill="none" xmlns="http://www.w3.org/2000/svg">
<path d="M11.2929 10.2929C11.6834 9.90237 12.3166 9.90237 12.7071 10.2929L16 13.5858L19.2929 10.2929C19.6834 9.90237 20.3166 9.90237 20.7071 10.2929C21.0976 10.6834 21.0976 11.3166 20.7071 11.7071L16.7071 15.7071C16.3166 16.0976 15.6834 16.0976 15.2929 15.7071L11.2929 11.7071C10.9024 11.3166 10.9024 10.6834 11.2929 10.2929Z" fill="white"/>
<path d="M12.7071 17.2929C12.3166 16.9024 11.6834 16.9024 11.2929 17.2929C10.9024 17.6834 10.9024 18.3166 11.2929 18.7071L15.2929 22.7071C15.6834 23.0976 16.3166 23.0976 16.7071 22.7071L20.7071 18.7071C21.0976 18.3166 21.0976 17.6834 20.7071 17.2929C20.3166 16.9024 19.6834 16.9024 19.2929 17.2929L16 20.5858L12.7071 17.2929Z" fill="white"/>
<path fill-rule="evenodd" clip-rule="evenodd" d="M3 16C3 8.8203 8.8203 3 16 3C23.1797 3 29 8.8203 29 16C29 23.1797 23.1797 29 16 29C8.8203 29 3 23.1797 3 16ZM16 5C9.92487 5 5 9.92487 5 16C5 22.0751 9.92487 27 16 27C22.0751 27 27 22.0751 27 16C27 9.92487 22.0751 5 16 5Z" fill="white"/>
<path fill-rule="evenodd" clip-rule="evenodd" d="M16 3.5C9.09644 3.5 3.5 9.09644 3.5 16C3.5 22.9036 9.09644 28.5 16 28.5C22.9036 28.5 28.5 22.9036 28.5 16C28.5 9.09644 22.9036 3.5 16 3.5ZM2.5 16C2.5 8.54416 8.54416 2.5 16 2.5C23.4558 2.5 29.5 8.54416 29.5 16C29.5 23.4558 23.4558 29.5 16 29.5C8.54416 29.5 2.5 23.4558 2.5 16ZM4.5 16C4.5 9.64873 9.64873 4.5 16 4.5C22.3513 4.5 27.5 9.64873 27.5 16C27.5 22.3513 22.3513 27.5 16 27.5C9.64873 27.5 4.5 22.3513 4.5 16ZM16 5.5C10.201 5.5 5.5 10.201 5.5 16C5.5 21.799 10.201 26.5 16 26.5C21.799 26.5 26.5 21.799 26.5 16C26.5 10.201 21.799 5.5 16 5.5ZM12.3536 10.6464C12.1583 10.4512 11.8417 10.4512 11.6464 10.6464C11.4512 10.8417 11.4512 11.1583 11.6464 11.3536L15.6464 15.3536C15.8417 15.5488 16.1583 15.5488 16.3536 15.3536L20.3536 11.3536C20.5488 11.1583 20.5488 10.8417 20.3536 10.6464C20.1583 10.4512 19.8417 10.4512 19.6464 10.6464L16.3536 13.9393C16.2598 14.0331 16.1326 14.0858 16 14.0858C15.8674 14.0858 15.7402 14.0331 15.6464 13.9393L12.3536 10.6464ZM10.9393 9.93934C11.5251 9.35355 12.4749 9.35355 13.0607 9.93934L16 12.8787L18.9393 9.93934C19.5251 9.35355 20.4749 9.35355 21.0607 9.93934C21.6464 10.5251 21.6464 11.4749 21.0607 12.0607L17.0607 16.0607C16.4749 16.6464 15.5251 16.6464 14.9393 16.0607L10.9393 12.0607C10.3536 11.4749 10.3536 10.5251 10.9393 9.93934ZM10.9393 16.9393C11.5251 16.3536 12.4749 16.3536 13.0607 16.9393L16 19.8787L18.9393 16.9393C19.5251 16.3536 20.4749 16.3536 21.0607 16.9393C21.6464 17.5251 21.6464 18.4749 21.0607 19.0607L17.0607 23.0607C16.4749 23.6464 15.5251 23.6464 14.9393 23.0607L10.9393 19.0607C10.3536 18.4749 10.3536 17.5251 10.9393 16.9393ZM12.3536 17.6464C12.1583 17.4512 11.8417 17.4512 11.6464 17.6464C11.4512 17.8417 11.4512 18.1583 11.6464 18.3536L15.6464 22.3536C15.8417 22.5488 16.1583 22.5488 16.3536 22.3536L20.3536 18.3536C20.5488 18.1583 20.5488 17.8417 20.3536 17.6464C20.1583 17.4512 19.8417 17.4512 19.6464 17.6464L16.3536 20.9393C16.2598 21.0331 16.1326 21.0858 16 21.0858C15.8674 21.0858 15.7402 21.0331 15.6464 20.9393L12.3536 17.6464Z" fill="white"/>
</svg>
