<svg width="32" height="33" viewBox="0 0 32 33" fill="none" xmlns="http://www.w3.org/2000/svg">
<path d="M17.5 16.5781C17.5 17.4066 16.8284 18.0781 16 18.0781C15.1716 18.0781 14.5 17.4066 14.5 16.5781C14.5 15.7497 15.1716 15.0781 16 15.0781C16.8284 15.0781 17.5 15.7497 17.5 16.5781Z" fill="white"/>
<path d="M22 18.0781C22.8284 18.0781 23.5 17.4066 23.5 16.5781C23.5 15.7497 22.8284 15.0781 22 15.0781C21.1716 15.0781 20.5 15.7497 20.5 16.5781C20.5 17.4066 21.1716 18.0781 22 18.0781Z" fill="white"/>
<path d="M11.5 16.5781C11.5 17.4066 10.8284 18.0781 10 18.0781C9.17157 18.0781 8.5 17.4066 8.5 16.5781C8.5 15.7497 9.17157 15.0781 10 15.0781C10.8284 15.0781 11.5 15.7497 11.5 16.5781Z" fill="white"/>
<path fill-rule="evenodd" clip-rule="evenodd" d="M16 3.57812C8.8203 3.57812 3 9.39842 3 16.5781C3 23.7578 8.8203 29.5781 16 29.5781C23.1797 29.5781 29 23.7578 29 16.5781C29 9.39842 23.1797 3.57812 16 3.57812ZM5 16.5781C5 10.503 9.92487 5.57812 16 5.57812C22.0751 5.57812 27 10.503 27 16.5781C27 22.6533 22.0751 27.5781 16 27.5781C9.92487 27.5781 5 22.6533 5 16.5781Z" fill="white"/>
<path fill-rule="evenodd" clip-rule="evenodd" d="M2.5 16.5781C2.5 9.12228 8.54416 3.07812 16 3.07812C23.4558 3.07812 29.5 9.12228 29.5 16.5781C29.5 24.034 23.4558 30.0781 16 30.0781C8.54416 30.0781 2.5 24.034 2.5 16.5781ZM16 4.07812C9.09644 4.07812 3.5 9.67457 3.5 16.5781C3.5 23.4817 9.09644 29.0781 16 29.0781C22.9036 29.0781 28.5 23.4817 28.5 16.5781C28.5 9.67457 22.9036 4.07812 16 4.07812ZM16 6.07812C10.201 6.07812 5.5 10.7791 5.5 16.5781C5.5 22.3771 10.201 27.0781 16 27.0781C21.799 27.0781 26.5 22.3771 26.5 16.5781C26.5 10.7791 21.799 6.07812 16 6.07812ZM4.5 16.5781C4.5 10.2269 9.64873 5.07812 16 5.07812C22.3513 5.07812 27.5 10.2269 27.5 16.5781C27.5 22.9294 22.3513 28.0781 16 28.0781C9.64873 28.0781 4.5 22.9294 4.5 16.5781ZM10 15.5781C9.44772 15.5781 9 16.0258 9 16.5781C9 17.1304 9.44772 17.5781 10 17.5781C10.5523 17.5781 11 17.1304 11 16.5781C11 16.0258 10.5523 15.5781 10 15.5781ZM8 16.5781C8 15.4736 8.89543 14.5781 10 14.5781C11.1046 14.5781 12 15.4736 12 16.5781C12 17.6827 11.1046 18.5781 10 18.5781C8.89543 18.5781 8 17.6827 8 16.5781ZM16 15.5781C15.4477 15.5781 15 16.0258 15 16.5781C15 17.1304 15.4477 17.5781 16 17.5781C16.5523 17.5781 17 17.1304 17 16.5781C17 16.0258 16.5523 15.5781 16 15.5781ZM14 16.5781C14 15.4736 14.8954 14.5781 16 14.5781C17.1046 14.5781 18 15.4736 18 16.5781C18 17.6827 17.1046 18.5781 16 18.5781C14.8954 18.5781 14 17.6827 14 16.5781ZM20 16.5781C20 15.4736 20.8954 14.5781 22 14.5781C23.1046 14.5781 24 15.4736 24 16.5781C24 17.6827 23.1046 18.5781 22 18.5781C20.8954 18.5781 20 17.6827 20 16.5781ZM22 15.5781C21.4477 15.5781 21 16.0258 21 16.5781C21 17.1304 21.4477 17.5781 22 17.5781C22.5523 17.5781 23 17.1304 23 16.5781C23 16.0258 22.5523 15.5781 22 15.5781Z" fill="white"/>
</svg>
