<svg width="32" height="33" viewBox="0 0 32 33" fill="none" xmlns="http://www.w3.org/2000/svg">
<path d="M6 16.5781C6 15.4736 6.89543 14.5781 8 14.5781C9.10457 14.5781 10 15.4736 10 16.5781C10 17.6827 9.10457 18.5781 8 18.5781C6.89543 18.5781 6 17.6827 6 16.5781Z" fill="white"/>
<path d="M14 16.5781C14 15.4736 14.8954 14.5781 16 14.5781C17.1046 14.5781 18 15.4736 18 16.5781C18 17.6827 17.1046 18.5781 16 18.5781C14.8954 18.5781 14 17.6827 14 16.5781Z" fill="white"/>
<path d="M22 16.5781C22 15.4736 22.8954 14.5781 24 14.5781C25.1046 14.5781 26 15.4736 26 16.5781C26 17.6827 25.1046 18.5781 24 18.5781C22.8954 18.5781 22 17.6827 22 16.5781Z" fill="white"/>
</svg>
