<svg width="32" height="33" viewBox="0 0 32 33" fill="none" xmlns="http://www.w3.org/2000/svg">
<path fill-rule="evenodd" clip-rule="evenodd" d="M12 6.57812C12 4.36899 13.7909 2.57812 16 2.57812C18.2091 2.57812 20 4.36899 20 6.57812C20 8.78726 18.2091 10.5781 16 10.5781C13.7909 10.5781 12 8.78726 12 6.57812ZM16 4.57812C14.8954 4.57812 14 5.47356 14 6.57812C14 7.68269 14.8954 8.57812 16 8.57812C17.1046 8.57812 18 7.68269 18 6.57812C18 5.47356 17.1046 4.57812 16 4.57812Z" fill="white"/>
<path fill-rule="evenodd" clip-rule="evenodd" d="M12 16.5781C12 14.369 13.7909 12.5781 16 12.5781C18.2091 12.5781 20 14.369 20 16.5781C20 18.7873 18.2091 20.5781 16 20.5781C13.7909 20.5781 12 18.7873 12 16.5781ZM16 14.5781C14.8954 14.5781 14 15.4736 14 16.5781C14 17.6827 14.8954 18.5781 16 18.5781C17.1046 18.5781 18 17.6827 18 16.5781C18 15.4736 17.1046 14.5781 16 14.5781Z" fill="white"/>
<path fill-rule="evenodd" clip-rule="evenodd" d="M16 22.5781C13.7909 22.5781 12 24.369 12 26.5781C12 28.7873 13.7909 30.5781 16 30.5781C18.2091 30.5781 20 28.7873 20 26.5781C20 24.369 18.2091 22.5781 16 22.5781ZM14 26.5781C14 25.4736 14.8954 24.5781 16 24.5781C17.1046 24.5781 18 25.4736 18 26.5781C18 27.6827 17.1046 28.5781 16 28.5781C14.8954 28.5781 14 27.6827 14 26.5781Z" fill="white"/>
<path fill-rule="evenodd" clip-rule="evenodd" d="M11.5 6.57812C11.5 4.09284 13.5147 2.07812 16 2.07812C18.4853 2.07812 20.5 4.09284 20.5 6.57812C20.5 9.06341 18.4853 11.0781 16 11.0781C13.5147 11.0781 11.5 9.06341 11.5 6.57812ZM16 3.07812C14.067 3.07812 12.5 4.64513 12.5 6.57812C12.5 8.51112 14.067 10.0781 16 10.0781C17.933 10.0781 19.5 8.51112 19.5 6.57812C19.5 4.64513 17.933 3.07812 16 3.07812ZM16 5.07812C15.1716 5.07812 14.5 5.7497 14.5 6.57812C14.5 7.40655 15.1716 8.07812 16 8.07812C16.8284 8.07812 17.5 7.40655 17.5 6.57812C17.5 5.7497 16.8284 5.07812 16 5.07812ZM13.5 6.57812C13.5 5.19741 14.6193 4.07812 16 4.07812C17.3807 4.07812 18.5 5.19741 18.5 6.57812C18.5 7.95884 17.3807 9.07812 16 9.07812C14.6193 9.07812 13.5 7.95884 13.5 6.57812ZM11.5 16.5781C11.5 14.0928 13.5147 12.0781 16 12.0781C18.4853 12.0781 20.5 14.0928 20.5 16.5781C20.5 19.0634 18.4853 21.0781 16 21.0781C13.5147 21.0781 11.5 19.0634 11.5 16.5781ZM16 13.0781C14.067 13.0781 12.5 14.6451 12.5 16.5781C12.5 18.5111 14.067 20.0781 16 20.0781C17.933 20.0781 19.5 18.5111 19.5 16.5781C19.5 14.6451 17.933 13.0781 16 13.0781ZM16 15.0781C15.1716 15.0781 14.5 15.7497 14.5 16.5781C14.5 17.4066 15.1716 18.0781 16 18.0781C16.8284 18.0781 17.5 17.4066 17.5 16.5781C17.5 15.7497 16.8284 15.0781 16 15.0781ZM13.5 16.5781C13.5 15.1974 14.6193 14.0781 16 14.0781C17.3807 14.0781 18.5 15.1974 18.5 16.5781C18.5 17.9588 17.3807 19.0781 16 19.0781C14.6193 19.0781 13.5 17.9588 13.5 16.5781ZM16 23.0781C14.067 23.0781 12.5 24.6451 12.5 26.5781C12.5 28.5111 14.067 30.0781 16 30.0781C17.933 30.0781 19.5 28.5111 19.5 26.5781C19.5 24.6451 17.933 23.0781 16 23.0781ZM11.5 26.5781C11.5 24.0928 13.5147 22.0781 16 22.0781C18.4853 22.0781 20.5 24.0928 20.5 26.5781C20.5 29.0634 18.4853 31.0781 16 31.0781C13.5147 31.0781 11.5 29.0634 11.5 26.5781ZM13.5 26.5781C13.5 25.1974 14.6193 24.0781 16 24.0781C17.3807 24.0781 18.5 25.1974 18.5 26.5781C18.5 27.9588 17.3807 29.0781 16 29.0781C14.6193 29.0781 13.5 27.9588 13.5 26.5781ZM16 25.0781C15.1716 25.0781 14.5 25.7497 14.5 26.5781C14.5 27.4066 15.1716 28.0781 16 28.0781C16.8284 28.0781 17.5 27.4066 17.5 26.5781C17.5 25.7497 16.8284 25.0781 16 25.0781Z" fill="white"/>
</svg>
