<svg width="32" height="33" viewBox="0 0 32 33" fill="none" xmlns="http://www.w3.org/2000/svg">
<path fill-rule="evenodd" clip-rule="evenodd" d="M2 16.5781C2 14.369 3.79086 12.5781 6 12.5781C8.20914 12.5781 10 14.369 10 16.5781C10 18.7873 8.20914 20.5781 6 20.5781C3.79086 20.5781 2 18.7873 2 16.5781ZM6 14.5781C4.89543 14.5781 4 15.4736 4 16.5781C4 17.6827 4.89543 18.5781 6 18.5781C7.10457 18.5781 8 17.6827 8 16.5781C8 15.4736 7.10457 14.5781 6 14.5781Z" fill="white"/>
<path fill-rule="evenodd" clip-rule="evenodd" d="M12 16.5781C12 14.369 13.7909 12.5781 16 12.5781C18.2091 12.5781 20 14.369 20 16.5781C20 18.7873 18.2091 20.5781 16 20.5781C13.7909 20.5781 12 18.7873 12 16.5781ZM16 14.5781C14.8954 14.5781 14 15.4736 14 16.5781C14 17.6827 14.8954 18.5781 16 18.5781C17.1046 18.5781 18 17.6827 18 16.5781C18 15.4736 17.1046 14.5781 16 14.5781Z" fill="white"/>
<path fill-rule="evenodd" clip-rule="evenodd" d="M26 12.5781C23.7909 12.5781 22 14.369 22 16.5781C22 18.7873 23.7909 20.5781 26 20.5781C28.2091 20.5781 30 18.7873 30 16.5781C30 14.369 28.2091 12.5781 26 12.5781ZM24 16.5781C24 15.4736 24.8954 14.5781 26 14.5781C27.1046 14.5781 28 15.4736 28 16.5781C28 17.6827 27.1046 18.5781 26 18.5781C24.8954 18.5781 24 17.6827 24 16.5781Z" fill="white"/>
<path fill-rule="evenodd" clip-rule="evenodd" d="M1.5 16.5781C1.5 14.0928 3.51472 12.0781 6 12.0781C8.48528 12.0781 10.5 14.0928 10.5 16.5781C10.5 19.0634 8.48528 21.0781 6 21.0781C3.51472 21.0781 1.5 19.0634 1.5 16.5781ZM6 13.0781C4.067 13.0781 2.5 14.6451 2.5 16.5781C2.5 18.5111 4.067 20.0781 6 20.0781C7.933 20.0781 9.5 18.5111 9.5 16.5781C9.5 14.6451 7.933 13.0781 6 13.0781ZM11.5 16.5781C11.5 14.0928 13.5147 12.0781 16 12.0781C18.4853 12.0781 20.5 14.0928 20.5 16.5781C20.5 19.0634 18.4853 21.0781 16 21.0781C13.5147 21.0781 11.5 19.0634 11.5 16.5781ZM16 13.0781C14.067 13.0781 12.5 14.6451 12.5 16.5781C12.5 18.5111 14.067 20.0781 16 20.0781C17.933 20.0781 19.5 18.5111 19.5 16.5781C19.5 14.6451 17.933 13.0781 16 13.0781ZM26 13.0781C24.067 13.0781 22.5 14.6451 22.5 16.5781C22.5 18.5111 24.067 20.0781 26 20.0781C27.933 20.0781 29.5 18.5111 29.5 16.5781C29.5 14.6451 27.933 13.0781 26 13.0781ZM21.5 16.5781C21.5 14.0928 23.5147 12.0781 26 12.0781C28.4853 12.0781 30.5 14.0928 30.5 16.5781C30.5 19.0634 28.4853 21.0781 26 21.0781C23.5147 21.0781 21.5 19.0634 21.5 16.5781ZM6 15.0781C5.17157 15.0781 4.5 15.7497 4.5 16.5781C4.5 17.4066 5.17157 18.0781 6 18.0781C6.82843 18.0781 7.5 17.4066 7.5 16.5781C7.5 15.7497 6.82843 15.0781 6 15.0781ZM3.5 16.5781C3.5 15.1974 4.61929 14.0781 6 14.0781C7.38071 14.0781 8.5 15.1974 8.5 16.5781C8.5 17.9588 7.38071 19.0781 6 19.0781C4.61929 19.0781 3.5 17.9588 3.5 16.5781ZM16 15.0781C15.1716 15.0781 14.5 15.7497 14.5 16.5781C14.5 17.4066 15.1716 18.0781 16 18.0781C16.8284 18.0781 17.5 17.4066 17.5 16.5781C17.5 15.7497 16.8284 15.0781 16 15.0781ZM13.5 16.5781C13.5 15.1974 14.6193 14.0781 16 14.0781C17.3807 14.0781 18.5 15.1974 18.5 16.5781C18.5 17.9588 17.3807 19.0781 16 19.0781C14.6193 19.0781 13.5 17.9588 13.5 16.5781ZM23.5 16.5781C23.5 15.1974 24.6193 14.0781 26 14.0781C27.3807 14.0781 28.5 15.1974 28.5 16.5781C28.5 17.9588 27.3807 19.0781 26 19.0781C24.6193 19.0781 23.5 17.9588 23.5 16.5781ZM26 15.0781C25.1716 15.0781 24.5 15.7497 24.5 16.5781C24.5 17.4066 25.1716 18.0781 26 18.0781C26.8284 18.0781 27.5 17.4066 27.5 16.5781C27.5 15.7497 26.8284 15.0781 26 15.0781Z" fill="white"/>
</svg>
