<svg width="32" height="33" viewBox="0 0 32 33" fill="none" xmlns="http://www.w3.org/2000/svg">
<path d="M14 8.57812C14 7.47356 14.8954 6.57812 16 6.57812C17.1046 6.57812 18 7.47356 18 8.57812C18 9.68269 17.1046 10.5781 16 10.5781C14.8954 10.5781 14 9.68269 14 8.57812Z" fill="white"/>
<path d="M14 16.5781C14 15.4736 14.8954 14.5781 16 14.5781C17.1046 14.5781 18 15.4736 18 16.5781C18 17.6827 17.1046 18.5781 16 18.5781C14.8954 18.5781 14 17.6827 14 16.5781Z" fill="white"/>
<path d="M14 24.5781C14 23.4736 14.8954 22.5781 16 22.5781C17.1046 22.5781 18 23.4736 18 24.5781C18 25.6827 17.1046 26.5781 16 26.5781C14.8954 26.5781 14 25.6827 14 24.5781Z" fill="white"/>
</svg>
