<svg width="32" height="32" viewBox="0 0 32 32" fill="none" xmlns="http://www.w3.org/2000/svg">
<path d="M10.8437 5.53706C11.1402 5.07112 11.0028 4.45304 10.5369 4.15653C10.0709 3.86002 9.45285 3.99737 9.15634 4.46331L2.15634 15.4633C1.94789 15.7909 1.94789 16.2095 2.15634 16.5371L9.15634 27.5371C9.45285 28.003 10.0709 28.1404 10.5369 27.8439C11.0028 27.5473 11.1402 26.9293 10.8437 26.4633L4.18531 16.0002L10.8437 5.53706Z" fill="white"/>
<path d="M22.8437 4.46331C22.5472 3.99737 21.9291 3.86002 21.4631 4.15653C20.9972 4.45304 20.8598 5.07112 21.1563 5.53706L27.8147 16.0002L21.1563 26.4633C20.8598 26.9293 20.9972 27.5473 21.4631 27.8439C21.9291 28.1404 22.5472 28.003 22.8437 27.5371L29.8437 16.5371C30.0521 16.2095 30.0521 15.7909 29.8437 15.4633L22.8437 4.46331Z" fill="white"/>
<path fill-rule="evenodd" clip-rule="evenodd" d="M8.73451 4.19488C9.17927 3.49596 10.1064 3.28993 10.8053 3.7347C11.5042 4.17946 11.7103 5.10659 11.2655 5.8055L4.77796 16.0002L11.2655 26.1949C11.7103 26.8938 11.5042 27.8209 10.8053 28.2657C10.1064 28.7104 9.17927 28.5044 8.73451 27.8055L1.73451 16.8055C1.42183 16.3142 1.42183 15.6862 1.73451 15.1949L8.73451 4.19488ZM10.2684 4.57836C10.0355 4.4301 9.72642 4.49878 9.57817 4.73175L2.57817 15.7318C2.47394 15.8955 2.47394 16.1048 2.57817 16.2686L9.57817 27.2686C9.72642 27.5016 10.0355 27.5703 10.2684 27.422C10.5014 27.2738 10.5701 26.9647 10.4218 26.7318L3.76348 16.2686C3.65925 16.1048 3.65925 15.8955 3.76348 15.7318L10.4218 5.26863C10.5701 5.03566 10.5014 4.72661 10.2684 4.57836ZM21.1947 3.7347C21.8936 3.28993 22.8207 3.49596 23.2655 4.19488L30.2655 15.1949C30.5782 15.6862 30.5782 16.3142 30.2655 16.8055L23.2655 27.8055C22.8207 28.5044 21.8936 28.7104 21.1947 28.2657C20.4958 27.8209 20.2897 26.8938 20.7345 26.1949L27.222 16.0002L20.7345 5.8055C20.2897 5.10659 20.4958 4.17946 21.1947 3.7347ZM22.4218 4.73175C22.2736 4.49878 21.9645 4.4301 21.7316 4.57836C21.4986 4.72661 21.4299 5.03566 21.5782 5.26863L28.2365 15.7318C28.3408 15.8955 28.3408 16.1048 28.2365 16.2686L21.5782 26.7318C21.4299 26.9647 21.4986 27.2738 21.7316 27.422C21.9645 27.5703 22.2736 27.5016 22.4218 27.2686L29.4218 16.2686C29.5261 16.1048 29.5261 15.8955 29.4218 15.7318L22.4218 4.73175Z" fill="white"/>
</svg>
