<svg width="32" height="32" viewBox="0 0 32 32" fill="none" xmlns="http://www.w3.org/2000/svg">
<path d="M10 4C8.89181 4 7.96618 4.18965 7.21596 4.59081C6.44891 5.00097 5.93282 5.59642 5.60019 6.28248C4.99853 7.52339 4.99932 9.09725 4.99996 10.3767L5 10.5C5 11.9495 4.97905 13.0636 4.60019 13.845C4.43282 14.1902 4.19891 14.4541 3.84096 14.6455C3.46618 14.8459 2.89181 15 2 15C1.44772 15 1 15.4477 1 16C1 16.5523 1.44772 17 2 17C2.89181 17 3.46618 17.1541 3.84096 17.3545C4.19891 17.5459 4.43282 17.8098 4.60019 18.155C4.97905 18.9364 5 20.0505 5 21.5L4.99996 21.6233C4.99932 22.9028 4.99853 24.4766 5.60019 25.7175C5.93282 26.4036 6.44891 26.999 7.21596 27.4092C7.96618 27.8103 8.89181 28 10 28C10.5523 28 11 27.5523 11 27C11 26.4477 10.5523 26 10 26C9.10819 26 8.53382 25.8459 8.15904 25.6455C7.80109 25.4541 7.56718 25.1902 7.39981 24.845C7.02095 24.0636 7 22.9495 7 21.5L7.00004 21.3767C7.00068 20.0972 7.00147 18.5234 6.39981 17.2825C6.16536 16.7989 5.83977 16.3604 5.3994 16C5.83977 15.6396 6.16536 15.2011 6.39981 14.7175C7.00147 13.4766 7.00068 11.9028 7.00004 10.6233L7 10.5C7 9.05051 7.02095 7.93644 7.39981 7.15502C7.56718 6.80983 7.80109 6.54591 8.15904 6.3545C8.53382 6.1541 9.10819 6 10 6C10.5523 6 11 5.55228 11 5C11 4.44772 10.5523 4 10 4Z" fill="white"/>
<path d="M22 4C21.4477 4 21 4.44772 21 5C21 5.55228 21.4477 6 22 6C22.8918 6 23.4662 6.1541 23.841 6.3545C24.1989 6.54591 24.4328 6.80983 24.6002 7.15502C24.9791 7.93644 25 9.05051 25 10.5L25 10.6233C24.9993 11.9028 24.9985 13.4766 25.6002 14.7175C25.8346 15.2011 26.1602 15.6396 26.6006 16C26.1602 16.3604 25.8346 16.7989 25.6002 17.2825C24.9985 18.5234 24.9993 20.0972 25 21.3767L25 21.5C25 22.9495 24.9791 24.0636 24.6002 24.845C24.4328 25.1902 24.1989 25.4541 23.841 25.6455C23.4662 25.8459 22.8918 26 22 26C21.4477 26 21 26.4477 21 27C21 27.5523 21.4477 28 22 28C23.1082 28 24.0338 27.8103 24.784 27.4092C25.5511 26.999 26.0672 26.4036 26.3998 25.7175C27.0015 24.4766 27.0007 22.9028 27 21.6233L27 21.5C27 20.0505 27.0209 18.9364 27.3998 18.155C27.5672 17.8098 27.8011 17.5459 28.159 17.3545C28.5338 17.1541 29.1082 17 30 17C30.5523 17 31 16.5523 31 16C31 15.4477 30.5523 15 30 15C29.1082 15 28.5338 14.8459 28.159 14.6455C27.8011 14.4541 27.5672 14.1902 27.3998 13.845C27.0209 13.0636 27 11.9495 27 10.5L27 10.3767C27.0007 9.09725 27.0015 7.52339 26.3998 6.28248C26.0672 5.59642 25.5511 5.00097 24.784 4.59081C24.0338 4.18965 23.1082 4 22 4Z" fill="white"/>
<path fill-rule="evenodd" clip-rule="evenodd" d="M6.98019 4.14989C7.8243 3.69853 8.83777 3.5 10 3.5C10.8284 3.5 11.5 4.17157 11.5 5C11.5 5.82843 10.8284 6.5 10 6.5C9.16237 6.5 8.67579 6.64518 8.39481 6.79542C8.13894 6.93224 7.97567 7.11339 7.84972 7.37316C7.6977 7.6867 7.60573 8.09296 7.55562 8.62396C7.50557 9.15433 7.5 9.77229 7.5 10.4998C7.5 10.4998 7.5 10.4999 7.5 10.4998L7.50004 10.623C7.50004 10.623 7.50004 10.6231 7.50004 10.623C7.50005 10.64 7.50006 10.6571 7.50007 10.6742C7.50082 11.9207 7.50182 13.5907 6.84972 14.9357C6.6649 15.3168 6.42749 15.6768 6.12778 16C6.42749 16.3232 6.6649 16.6832 6.84972 17.0643C7.50182 18.4093 7.50082 20.0793 7.50007 21.3258L7.5 21.5C7.5 21.4999 7.5 21.5001 7.5 21.5C7.5 22.2275 7.50557 22.8457 7.55562 23.376C7.60573 23.907 7.6977 24.3133 7.84972 24.6268C7.97567 24.8866 8.13894 25.0678 8.39481 25.2046C8.67579 25.3548 9.16237 25.5 10 25.5C10.8284 25.5 11.5 26.1716 11.5 27C11.5 27.8284 10.8284 28.5 10 28.5C8.83777 28.5 7.8243 28.3015 6.98019 27.8501C6.11078 27.3852 5.52418 26.7068 5.15028 25.9357C4.49818 24.5907 4.49918 22.9207 4.49993 21.6742L4.5 21.5C4.5 21.4999 4.5 21.5001 4.5 21.5C4.5 20.7725 4.49443 20.1543 4.44438 19.624C4.39427 19.093 4.3023 18.6867 4.15028 18.3732C4.02433 18.1134 3.86106 17.9322 3.60519 17.7954C3.32421 17.6452 2.83763 17.5 2 17.5C1.17157 17.5 0.5 16.8284 0.5 16C0.5 15.1716 1.17157 14.5 2 14.5C2.83763 14.5 3.32421 14.3548 3.60519 14.2046C3.86106 14.0678 4.02433 13.8866 4.15028 13.6268C4.3023 13.3133 4.39427 12.907 4.44438 12.376C4.49443 11.8457 4.5 11.2277 4.5 10.5002C4.5 10.5001 4.5 10.5002 4.5 10.5002L4.49996 10.377C4.49996 10.3769 4.49996 10.377 4.49996 10.377C4.49995 10.36 4.49994 10.3429 4.49993 10.3258C4.49918 9.07928 4.49818 7.4093 5.15028 6.06434C5.52418 5.29317 6.11078 4.61478 6.98019 4.14989ZM10 4.5C8.94585 4.5 8.10805 4.68078 7.45173 5.03173C6.78705 5.38716 6.34146 5.89967 6.05009 6.50061C5.50785 7.619 5.4993 9.06924 5.49996 10.3765L5.5 10.4998C5.5 11.2217 5.4951 11.8856 5.43996 12.47C5.38487 13.0538 5.27694 13.5952 5.05009 14.0631C4.84131 14.4937 4.53677 14.8404 4.07673 15.0864C3.60814 15.337 2.94599 15.5 2 15.5C1.72386 15.5 1.5 15.7239 1.5 16C1.5 16.2761 1.72386 16.5 2 16.5C2.94599 16.5 3.60814 16.663 4.07673 16.9136C4.53677 17.1596 4.84131 17.5063 5.05009 17.9369C5.27694 18.4048 5.38487 18.9462 5.43996 19.53C5.4951 20.1144 5.5 20.7781 5.5 21.5L5.49996 21.6235C5.4993 22.9307 5.50785 24.381 6.05009 25.4994C6.34146 26.1003 6.78705 26.6128 7.45173 26.9683C8.10805 27.3192 8.94585 27.5 10 27.5C10.2761 27.5 10.5 27.2761 10.5 27C10.5 26.7239 10.2761 26.5 10 26.5C9.05401 26.5 8.39186 26.337 7.92327 26.0864C7.46323 25.8404 7.15869 25.4937 6.94991 25.0631C6.72306 24.5952 6.61513 24.0538 6.56004 23.47C6.5049 22.8856 6.5 22.2219 6.5 21.5L6.50004 21.3765C6.5007 20.0693 6.49215 18.619 5.94991 17.5006C5.74352 17.0749 5.46094 16.6965 5.08274 16.3869C4.9667 16.292 4.8994 16.15 4.8994 16C4.8994 15.8501 4.9667 15.708 5.08274 15.6131C5.46094 15.3036 5.74352 14.9251 5.94991 14.4994C6.49215 13.381 6.5007 11.9308 6.50004 10.6235L6.5 10.5002C6.5 9.77829 6.5049 9.11437 6.56004 8.53001C6.61513 7.94625 6.72306 7.40476 6.94991 6.93689C7.15869 6.50626 7.46323 6.15957 7.92327 5.91358C8.39186 5.66301 9.05401 5.5 10 5.5C10.2761 5.5 10.5 5.27614 10.5 5C10.5 4.72386 10.2761 4.5 10 4.5ZM20.5 5C20.5 4.17157 21.1716 3.5 22 3.5C23.1622 3.5 24.1757 3.69853 25.0198 4.14989C25.8892 4.61478 26.4758 5.29317 26.8497 6.06434C27.5018 7.4093 27.5008 9.07928 27.5001 10.3258L27.5 10.5C27.5 10.4999 27.5 10.5001 27.5 10.5C27.5 11.2275 27.5056 11.8457 27.5556 12.376C27.6057 12.907 27.6977 13.3133 27.8497 13.6268C27.9757 13.8866 28.1389 14.0678 28.3948 14.2046C28.6758 14.3548 29.1624 14.5 30 14.5C30.8284 14.5 31.5 15.1716 31.5 16C31.5 16.8284 30.8284 17.5 30 17.5C29.1624 17.5 28.6758 17.6452 28.3948 17.7954C28.1389 17.9322 27.9757 18.1134 27.8497 18.3732C27.6977 18.6867 27.6057 19.093 27.5556 19.624C27.5056 20.1543 27.5 20.7723 27.5 21.4998C27.5 21.4998 27.5 21.4999 27.5 21.4998L27.5001 21.6742C27.5008 22.9207 27.5018 24.5907 26.8497 25.9357C26.4758 26.7068 25.8892 27.3852 25.0198 27.8501C24.1757 28.3015 23.1622 28.5 22 28.5C21.1716 28.5 20.5 27.8284 20.5 27C20.5 26.1716 21.1716 25.5 22 25.5C22.8376 25.5 23.3242 25.3548 23.6052 25.2046C23.8611 25.0678 24.0243 24.8866 24.1503 24.6268C24.3023 24.3133 24.3943 23.907 24.4444 23.376C24.4944 22.8457 24.5 22.2277 24.5 21.5002C24.5 21.5001 24.5 21.5002 24.5 21.5002L24.4999 21.3258C24.4992 20.0793 24.4982 18.4093 25.1503 17.0643C25.3351 16.6832 25.5725 16.3232 25.8722 16C25.5725 15.6768 25.3351 15.3168 25.1503 14.9357C24.4982 13.5907 24.4992 11.9207 24.4999 10.6742L24.5 10.5C24.5 10.4999 24.5 10.5001 24.5 10.5C24.5 9.77246 24.4944 9.15433 24.4444 8.62396C24.3943 8.09296 24.3023 7.6867 24.1503 7.37316C24.0243 7.11339 23.8611 6.93224 23.6052 6.79542C23.3242 6.64518 22.8376 6.5 22 6.5C21.1716 6.5 20.5 5.82843 20.5 5ZM22 4.5C21.7239 4.5 21.5 4.72386 21.5 5C21.5 5.27614 21.7239 5.5 22 5.5C22.946 5.5 23.6081 5.66301 24.0767 5.91358C24.5368 6.15957 24.8413 6.50626 25.0501 6.93689C25.2769 7.40476 25.3849 7.94625 25.44 8.53001C25.4951 9.11437 25.5 9.77813 25.5 10.5L25.5 10.6235C25.4993 11.9307 25.5078 13.381 26.0501 14.4994C26.2565 14.9251 26.5391 15.3036 26.9173 15.6131C27.0333 15.708 27.1006 15.8501 27.1006 16C27.1006 16.15 27.0333 16.292 26.9173 16.3869C26.5391 16.6965 26.2565 17.0749 26.0501 17.5006C25.5078 18.619 25.4993 20.0692 25.5 21.3765L25.5 21.4998C25.5 22.2217 25.4951 22.8856 25.44 23.47C25.3849 24.0538 25.2769 24.5952 25.0501 25.0631C24.8413 25.4937 24.5368 25.8404 24.0767 26.0864C23.6081 26.337 22.946 26.5 22 26.5C21.7239 26.5 21.5 26.7239 21.5 27C21.5 27.2761 21.7239 27.5 22 27.5C23.0541 27.5 23.8919 27.3192 24.5483 26.9683C25.213 26.6128 25.6585 26.1003 25.9499 25.4994C26.4922 24.381 26.5007 22.9308 26.5 21.6235L26.5 21.5002C26.5 20.7783 26.5049 20.1144 26.56 19.53C26.6151 18.9462 26.7231 18.4048 26.9499 17.9369C27.1587 17.5063 27.4632 17.1596 27.9233 16.9136C28.3919 16.663 29.054 16.5 30 16.5C30.2761 16.5 30.5 16.2761 30.5 16C30.5 15.7239 30.2761 15.5 30 15.5C29.054 15.5 28.3919 15.337 27.9233 15.0864C27.4632 14.8404 27.1587 14.4937 26.9499 14.0631C26.7231 13.5952 26.6151 13.0538 26.56 12.47C26.5049 11.8856 26.5 11.2219 26.5 10.5L26.5 10.3765C26.5007 9.06932 26.4922 7.619 25.9499 6.50061C25.6585 5.89967 25.213 5.38716 24.5483 5.03173C23.8919 4.68078 23.0541 4.5 22 4.5Z" fill="white"/>
</svg>
