<svg width="32" height="32" viewBox="0 0 32 32" fill="none" xmlns="http://www.w3.org/2000/svg">
<path d="M3 16.0002C3 11.7758 4.32476 8.82512 5.68627 6.91901C6.36351 5.97086 7.04435 5.28852 7.56382 4.83831C7.8237 4.61308 8.04382 4.4454 8.20392 4.33104C8.284 4.27384 8.34916 4.22991 8.3969 4.19872C8.42077 4.18313 8.4403 4.17071 8.45517 4.1614L8.4855 4.14275C8.95908 3.8586 9.57335 4.01217 9.85749 4.48575C10.1409 4.95805 9.9889 5.57028 9.51832 5.85543L9.51646 5.85656C9.5124 5.8591 9.50354 5.86473 9.4908 5.87306C9.46529 5.88972 9.42303 5.91805 9.36639 5.95851C9.25305 6.03947 9.08255 6.16866 8.87368 6.34968C8.45565 6.71197 7.88649 7.27963 7.31373 8.08148C6.17524 9.67537 5 12.2246 5 16.0002C5 19.7758 6.17524 22.3251 7.31373 23.919C7.88649 24.7209 8.45565 25.2885 8.87368 25.6508C9.08255 25.8318 9.25305 25.961 9.36639 26.042C9.42303 26.0824 9.46529 26.1108 9.4908 26.1274C9.50354 26.1358 9.5124 26.1414 9.51646 26.1439L9.51832 26.1451C9.9889 26.4302 10.1409 27.0424 9.85749 27.5147C9.57335 27.9883 8.95908 28.1419 8.4855 27.8577L8.45517 27.8391C8.4403 27.8298 8.42077 27.8174 8.3969 27.8018C8.34916 27.7706 8.284 27.7266 8.20392 27.6694C8.04382 27.5551 7.8237 27.3874 7.56382 27.1622C7.04435 26.712 6.36351 26.0296 5.68627 25.0815C4.32476 23.1754 3 20.2246 3 16.0002Z" fill="white"/>
<path d="M29.0002 16.0002C29.0002 11.7758 27.6754 8.82512 26.3139 6.91901C25.6367 5.97086 24.9558 5.28852 24.4364 4.83831C24.1765 4.61308 23.9564 4.4454 23.7963 4.33104C23.7162 4.27384 23.651 4.22991 23.6033 4.19872C23.5794 4.18313 23.5599 4.17071 23.545 4.1614L23.5147 4.14275C23.0411 3.8586 22.4268 4.01217 22.1427 4.48575C21.8593 4.95805 22.0113 5.57028 22.4819 5.85543L22.4837 5.85656C22.4878 5.8591 22.4966 5.86473 22.5094 5.87306C22.5349 5.88972 22.5771 5.91805 22.6338 5.95851C22.7471 6.03947 22.9176 6.16866 23.1265 6.34968C23.5445 6.71197 24.1137 7.27963 24.6864 8.08148C25.8249 9.67537 27.0002 12.2246 27.0002 16.0002C27.0002 19.7758 25.8249 22.3251 24.6864 23.919C24.1137 24.7209 23.5445 25.2885 23.1265 25.6508C22.9176 25.8318 22.7471 25.961 22.6338 26.042C22.5771 26.0824 22.5349 26.1108 22.5094 26.1274C22.4966 26.1358 22.4878 26.1414 22.4837 26.1439L22.4819 26.1451C22.0113 26.4302 21.8593 27.0424 22.1427 27.5147C22.4268 27.9883 23.0411 28.1419 23.5147 27.8577L23.545 27.8391C23.5599 27.8298 23.5794 27.8174 23.6033 27.8018C23.651 27.7706 23.7162 27.7266 23.7963 27.6694C23.9564 27.5551 24.1765 27.3874 24.4364 27.1622C24.9558 26.712 25.6367 26.0296 26.3139 25.0815C27.6754 23.1754 29.0002 20.2246 29.0002 16.0002Z" fill="white"/>
<path fill-rule="evenodd" clip-rule="evenodd" d="M8.74469 4.57034L8.7188 4.58626C8.70679 4.59379 8.69056 4.60412 8.67037 4.61731C8.6282 4.64486 8.56876 4.68489 8.49454 4.73791M8.74469 4.57034C8.98121 4.42984 9.28706 4.50685 9.42875 4.743C9.57043 4.97914 9.49445 5.28526 9.2592 5.42781L9.25783 5.42864L9.25119 5.43273C9.24382 5.43734 9.23217 5.44477 9.21732 5.45448C9.18626 5.47476 9.13828 5.507 9.07578 5.55164C8.95075 5.64095 8.76784 5.77976 8.54621 5.97184C8.10283 6.35611 7.50574 6.95244 6.90687 7.79086C5.71261 9.46283 4.5 12.1125 4.5 16.0002C4.5 19.888 5.71261 22.5377 6.90687 24.2096C7.50574 25.0481 8.10283 25.6444 8.54622 26.0286C8.76784 26.2207 8.95074 26.3595 9.07578 26.4488C9.13828 26.4935 9.18626 26.5257 9.21732 26.546C9.23217 26.5557 9.24382 26.5632 9.25119 26.5678L9.2592 26.5727C9.25907 26.5726 9.25934 26.5728 9.2592 26.5727C9.49413 26.7153 9.57035 27.0215 9.42875 27.2575C9.28706 27.4936 8.98121 27.5706 8.74469 27.4301C8.74404 27.4298 8.7434 27.4294 8.74275 27.429L8.7204 27.4152C8.71989 27.4149 8.71937 27.4146 8.71884 27.4143C8.70683 27.4067 8.69058 27.3964 8.67037 27.3832C8.6282 27.3556 8.56876 27.3156 8.49454 27.2626C8.34613 27.1566 8.13841 26.9985 7.89129 26.7843C7.39717 26.3561 6.74426 25.7024 6.09313 24.7909C4.78737 22.9628 3.5 20.1124 3.5 16.0002C3.5 11.8881 4.78737 9.0377 6.09313 7.20963C6.74426 6.29805 7.39717 5.64438 7.89128 5.21615C8.13841 5.00198 8.34613 4.84391 8.49454 4.73791M10.2862 4.2285C10.7109 4.93626 10.4838 5.85347 9.77954 6.28177L9.77672 6.28358L9.76428 6.29164C9.74432 6.30467 9.70779 6.32911 9.65702 6.36537C9.55536 6.43798 9.39727 6.55756 9.20115 6.72753C8.80848 7.06784 8.26723 7.60682 7.7206 8.3721C6.63788 9.88791 5.5 12.3368 5.5 16.0002C5.5 19.6637 6.63788 22.1126 7.7206 23.6284C8.26723 24.3937 8.80848 24.9327 9.20115 25.273C9.39727 25.4429 9.55536 25.5625 9.65701 25.6351C9.70779 25.6714 9.74432 25.6958 9.76428 25.7089L9.77672 25.7169L9.77958 25.7187C10.4838 26.147 10.7109 27.0642 10.2862 27.772C9.86002 28.4824 8.93863 28.7127 8.22826 28.2865L8.22362 28.2837L8.1933 28.265L8.18993 28.2629C8.17234 28.2519 8.15007 28.2378 8.12343 28.2204C8.07013 28.1855 7.99924 28.1377 7.9133 28.0763C7.74152 27.9536 7.50898 27.7763 7.23636 27.54C6.69152 27.0678 5.98277 26.3568 5.2794 25.3721C3.86215 23.3879 2.5 20.3369 2.5 16.0002C2.5 11.6636 3.86215 8.61254 5.2794 6.62839C5.98277 5.64367 6.69152 4.93265 7.23635 4.46046C7.50898 4.22419 7.74152 4.04688 7.9133 3.92418C7.99923 3.8628 8.07013 3.81496 8.12343 3.78014C8.15007 3.76273 8.17234 3.74856 8.18993 3.73756L8.19329 3.73545L8.22824 3.71398C8.93861 3.28776 9.86002 3.51813 10.2862 4.2285ZM21.7139 4.2285C22.1402 3.51813 23.0616 3.28778 23.7719 3.71401L23.7766 3.71679L23.8103 3.73754C23.8279 3.74855 23.8501 3.76274 23.8768 3.78014C23.93 3.81496 24.0009 3.86279 24.0869 3.92417C24.2587 4.04687 24.4912 4.22418 24.7638 4.46046C25.3087 4.93265 26.0174 5.64367 26.7208 6.62839C28.138 8.61254 29.5002 11.6636 29.5002 16.0002C29.5002 20.3369 28.138 23.3879 26.7208 25.3721C26.0174 26.3568 25.3087 27.0678 24.7638 27.54C24.4912 27.7763 24.2587 27.9536 24.0869 28.0763C24.0009 28.1377 23.93 28.1855 23.8767 28.2204C23.8501 28.2378 23.8278 28.2519 23.8103 28.2629L23.8069 28.265L23.7719 28.2865C23.0616 28.7127 22.1402 28.4824 21.7139 27.772C21.2893 27.0642 21.5164 26.147 22.2207 25.7187L22.2235 25.7169L22.2359 25.7089C22.2559 25.6958 22.2924 25.6714 22.3432 25.6351C22.4448 25.5625 22.6029 25.4429 22.799 25.273C23.1917 24.9327 23.7329 24.3937 24.2796 23.6284C25.3623 22.1126 26.5002 19.6637 26.5002 16.0002C26.5002 12.3368 25.3623 9.88791 24.2796 8.3721C23.7329 7.60682 23.1917 7.06784 22.799 6.72753C22.6029 6.55756 22.4448 6.43799 22.3432 6.36538C22.2924 6.32911 22.2559 6.30467 22.2359 6.29164L22.2235 6.28357L22.2207 6.2818C21.5164 5.85351 21.2893 4.93627 21.7139 4.2285ZM23.2555 4.57035C23.019 4.42984 22.7131 4.50685 22.5714 4.743C22.4298 4.97905 22.5057 5.28505 22.7407 5.42766C22.7406 5.42761 22.7408 5.42771 22.7407 5.42766L22.749 5.43267C22.7564 5.43729 22.768 5.44478 22.7829 5.45448C22.8139 5.47477 22.8619 5.507 22.9244 5.55165C23.0494 5.64095 23.2323 5.77976 23.454 5.97184C23.8974 6.35611 24.4944 6.95244 25.0933 7.79086C26.2876 9.46283 27.5002 12.1125 27.5002 16.0002C27.5002 19.888 26.2876 22.5377 25.0933 24.2096C24.4944 25.0481 23.8974 25.6444 23.454 26.0286C23.2323 26.2207 23.0494 26.3595 22.9244 26.4488C22.8619 26.4935 22.8139 26.5257 22.7829 26.546C22.768 26.5557 22.7564 26.5631 22.749 26.5678L22.7423 26.572L22.741 26.5727C22.5057 26.7152 22.4297 27.0214 22.5714 27.2575C22.7131 27.4937 23.019 27.5707 23.2556 27.4301C23.2562 27.4297 23.2568 27.4294 23.2574 27.429L23.2798 27.4152C23.2803 27.4149 23.2808 27.4146 23.2813 27.4143C23.2933 27.4068 23.3096 27.3964 23.3298 27.3832C23.372 27.3556 23.4314 27.3156 23.5056 27.2626C23.654 27.1566 23.8618 26.9985 24.1089 26.7843C24.603 26.3561 25.2559 25.7024 25.907 24.7909C27.2128 22.9628 28.5002 20.1124 28.5002 16.0002C28.5002 11.8881 27.2128 9.0377 25.907 7.20963C25.2559 6.29805 24.603 5.64438 24.1089 5.21615C23.8618 5.00198 23.654 4.84391 23.5056 4.73791C23.4314 4.6849 23.372 4.64486 23.3298 4.61731C23.3096 4.6041 23.2933 4.59375 23.2813 4.58622C23.2808 4.58589 23.2803 4.58557 23.2798 4.58525L23.2574 4.5715C23.2568 4.57111 23.2561 4.57073 23.2555 4.57035Z" fill="white"/>
</svg>
