<svg width="32" height="32" viewBox="0 0 32 32" fill="none" xmlns="http://www.w3.org/2000/svg">
<path d="M5 4C4.44772 4 4 4.44772 4 5V27C4 27.5523 4.44772 28 5 28H10C10.5523 28 11 27.5523 11 27C11 26.4477 10.5523 26 10 26H6V6H10C10.5523 6 11 5.55228 11 5C11 4.44772 10.5523 4 10 4H5Z" fill="white"/>
<path d="M22 4C21.4477 4 21 4.44772 21 5C21 5.55228 21.4477 6 22 6H26V26H22C21.4477 26 21 26.4477 21 27C21 27.5523 21.4477 28 22 28H27C27.5523 28 28 27.5523 28 27V5C28 4.44772 27.5523 4 27 4H22Z" fill="white"/>
<path fill-rule="evenodd" clip-rule="evenodd" d="M3.5 5C3.5 4.17157 4.17157 3.5 5 3.5H10C10.8284 3.5 11.5 4.17157 11.5 5C11.5 5.82843 10.8284 6.5 10 6.5H6.5V25.5H10C10.8284 25.5 11.5 26.1716 11.5 27C11.5 27.8284 10.8284 28.5 10 28.5H5C4.17157 28.5 3.5 27.8284 3.5 27V5ZM5 4.5C4.72386 4.5 4.5 4.72386 4.5 5V27C4.5 27.2761 4.72386 27.5 5 27.5H10C10.2761 27.5 10.5 27.2761 10.5 27C10.5 26.7239 10.2761 26.5 10 26.5H6C5.72386 26.5 5.5 26.2761 5.5 26V6C5.5 5.72386 5.72386 5.5 6 5.5H10C10.2761 5.5 10.5 5.27614 10.5 5C10.5 4.72386 10.2761 4.5 10 4.5H5ZM20.5 5C20.5 4.17157 21.1716 3.5 22 3.5H27C27.8284 3.5 28.5 4.17157 28.5 5V27C28.5 27.8284 27.8284 28.5 27 28.5H22C21.1716 28.5 20.5 27.8284 20.5 27C20.5 26.1716 21.1716 25.5 22 25.5H25.5V6.5H22C21.1716 6.5 20.5 5.82843 20.5 5ZM22 4.5C21.7239 4.5 21.5 4.72386 21.5 5C21.5 5.27614 21.7239 5.5 22 5.5H26C26.2761 5.5 26.5 5.72386 26.5 6V26C26.5 26.2761 26.2761 26.5 26 26.5H22C21.7239 26.5 21.5 26.7239 21.5 27C21.5 27.2761 21.7239 27.5 22 27.5H27C27.2761 27.5 27.5 27.2761 27.5 27V5C27.5 4.72386 27.2761 4.5 27 4.5H22Z" fill="white"/>
</svg>
