<svg width="32" height="33" viewBox="0 0 32 33" fill="none" xmlns="http://www.w3.org/2000/svg">
<path fill-rule="evenodd" clip-rule="evenodd" d="M4 6.5C4 5.39543 4.89543 4.5 6 4.5H26C27.1046 4.5 28 5.39543 28 6.5V26.5C28 27.6046 27.1046 28.5 26 28.5H6C4.89543 28.5 4 27.6046 4 26.5V6.5ZM26 6.5H6V26.5H26V6.5Z" fill="white"/>
<path fill-rule="evenodd" clip-rule="evenodd" d="M3.5 6.5C3.5 5.11929 4.61929 4 6 4H26C27.3807 4 28.5 5.11929 28.5 6.5V26.5C28.5 27.8807 27.3807 29 26 29H6C4.61929 29 3.5 27.8807 3.5 26.5V6.5ZM6 5C5.17157 5 4.5 5.67157 4.5 6.5V26.5C4.5 27.3284 5.17157 28 6 28H26C26.8284 28 27.5 27.3284 27.5 26.5V6.5C27.5 5.67157 26.8284 5 26 5H6ZM5.5 6.5C5.5 6.22386 5.72386 6 6 6H26C26.2761 6 26.5 6.22386 26.5 6.5V26.5C26.5 26.7761 26.2761 27 26 27H6C5.72386 27 5.5 26.7761 5.5 26.5V6.5ZM6.5 7V26H25.5V7H6.5Z" fill="white"/>
</svg>
