<svg width="32" height="33" viewBox="0 0 32 33" fill="none" xmlns="http://www.w3.org/2000/svg">
<path fill-rule="evenodd" clip-rule="evenodd" d="M12 14.5C12 11.7386 14.2386 9.5 17 9.5C19.7614 9.5 22 11.7386 22 14.5C22 15.9641 21.3707 17.2812 20.3678 18.1957C20.514 18.2587 20.6585 18.326 20.8013 18.3974C21.9816 18.9875 23.0082 19.8443 23.8 20.9C24.1314 21.3418 24.0418 21.9686 23.6 22.3C23.1582 22.6314 22.5314 22.5418 22.2 22.1C21.5945 21.2927 20.8094 20.6375 19.9069 20.1862C19.0043 19.7349 18.0091 19.5 17 19.5C15.9909 19.5 14.9957 19.7349 14.0931 20.1862C13.1905 20.6375 12.4055 21.2927 11.8 22.1C11.4686 22.5418 10.8418 22.6314 10.4 22.3C9.95817 21.9686 9.86863 21.3418 10.2 20.9C10.9917 19.8443 12.0184 18.9875 13.1987 18.3974C13.3415 18.326 13.486 18.2587 13.6322 18.1957C12.6293 17.2812 12 15.9641 12 14.5ZM17 11.5C15.3431 11.5 14 12.8431 14 14.5C14 16.1569 15.3431 17.5 17 17.5C18.6569 17.5 20 16.1569 20 14.5C20 12.8431 18.6569 11.5 17 11.5Z" fill="white"/>
<path fill-rule="evenodd" clip-rule="evenodd" d="M28 5.5C28 4.39543 27.1046 3.5 26 3.5H8C6.89543 3.5 6 4.39543 6 5.5V8H4C3.44772 8 3 8.44772 3 9C3 9.55228 3.44772 10 4 10H6V13H4C3.44772 13 3 13.4477 3 14C3 14.5523 3.44772 15 4 15H6V18H4C3.44772 18 3 18.4477 3 19C3 19.5523 3.44772 20 4 20H6V23H4C3.44772 23 3 23.4477 3 24C3 24.5523 3.44772 25 4 25H6V27.5C6 28.6046 6.89543 29.5 8 29.5H26C27.1046 29.5 28 28.6046 28 27.5V5.5ZM8 27.5H26V5.5H8V27.5Z" fill="white"/>
<path fill-rule="evenodd" clip-rule="evenodd" d="M5.5 5.5C5.5 4.11929 6.61929 3 8 3H26C27.3807 3 28.5 4.11929 28.5 5.5V27.5C28.5 28.8807 27.3807 30 26 30H8C6.61929 30 5.5 28.8807 5.5 27.5V25.5H4C3.17157 25.5 2.5 24.8284 2.5 24C2.5 23.1716 3.17157 22.5 4 22.5H5.5V20.5H4C3.17157 20.5 2.5 19.8284 2.5 19C2.5 18.1716 3.17157 17.5 4 17.5H5.5V15.5H4C3.17157 15.5 2.5 14.8284 2.5 14C2.5 13.1716 3.17157 12.5 4 12.5H5.5V10.5H4C3.17157 10.5 2.5 9.82843 2.5 9C2.5 8.17157 3.17157 7.5 4 7.5H5.5V5.5ZM8 4C7.17157 4 6.5 4.67157 6.5 5.5V8C6.5 8.27614 6.27614 8.5 6 8.5H4C3.72386 8.5 3.5 8.72386 3.5 9C3.5 9.27614 3.72386 9.5 4 9.5H6C6.27614 9.5 6.5 9.72386 6.5 10V13C6.5 13.2761 6.27614 13.5 6 13.5H4C3.72386 13.5 3.5 13.7239 3.5 14C3.5 14.2761 3.72386 14.5 4 14.5H6C6.27614 14.5 6.5 14.7239 6.5 15V18C6.5 18.2761 6.27614 18.5 6 18.5H4C3.72386 18.5 3.5 18.7239 3.5 19C3.5 19.2761 3.72386 19.5 4 19.5H6C6.27614 19.5 6.5 19.7239 6.5 20V23C6.5 23.2761 6.27614 23.5 6 23.5H4C3.72386 23.5 3.5 23.7239 3.5 24C3.5 24.2761 3.72386 24.5 4 24.5H6C6.27614 24.5 6.5 24.7239 6.5 25V27.5C6.5 28.3284 7.17157 29 8 29H26C26.8284 29 27.5 28.3284 27.5 27.5V5.5C27.5 4.67157 26.8284 4 26 4H8ZM7.5 5.5C7.5 5.22386 7.72386 5 8 5H26C26.2761 5 26.5 5.22386 26.5 5.5V27.5C26.5 27.7761 26.2761 28 26 28H8C7.72386 28 7.5 27.7761 7.5 27.5V5.5ZM8.5 6V27H25.5V6H8.5ZM17 10C14.5147 10 12.5 12.0147 12.5 14.5C12.5 15.8177 13.0657 17.0025 13.969 17.8262C14.0945 17.9406 14.1533 18.1108 14.1253 18.2783C14.0972 18.4457 13.9861 18.5875 13.8303 18.6547C13.6927 18.7141 13.5567 18.7774 13.4223 18.8446C12.3114 19.4 11.3452 20.2064 10.6 21.2C10.4343 21.4209 10.4791 21.7343 10.7 21.9C10.9209 22.0657 11.2343 22.0209 11.4 21.8C12.052 20.9306 12.8975 20.225 13.8695 19.739C14.8415 19.253 15.9133 19 17 19C18.0867 19 19.1585 19.253 20.1305 19.739C21.1025 20.225 21.948 20.9306 22.6 21.8C22.7657 22.0209 23.0791 22.0657 23.3 21.9C23.5209 21.7343 23.5657 21.4209 23.4 21.2C22.6548 20.2064 21.6885 19.4 20.5777 18.8446C20.4433 18.7774 20.3073 18.7141 20.1697 18.6547C20.0139 18.5875 19.9028 18.4457 19.8747 18.2783C19.8467 18.1108 19.9055 17.9406 20.031 17.8262C20.9343 17.0025 21.5 15.8177 21.5 14.5C21.5 12.0147 19.4853 10 17 10ZM11.5 14.5C11.5 11.4624 13.9624 9 17 9C20.0376 9 22.5 11.4624 22.5 14.5C22.5 15.8499 22.0132 17.0867 21.2065 18.0435C22.38 18.6639 23.4025 19.5367 24.2 20.6C24.6971 21.2627 24.5627 22.2029 23.9 22.7C23.2373 23.1971 22.2971 23.0627 21.8 22.4C21.2411 21.6548 20.5164 21.05 19.6833 20.6334C18.8501 20.2169 17.9315 20 17 20C16.0685 20 15.1498 20.2169 14.3167 20.6334C13.4836 21.05 12.7589 21.6548 12.2 22.4C11.7029 23.0627 10.7627 23.1971 10.1 22.7C9.43726 22.2029 9.30294 21.2627 9.8 20.6C10.5975 19.5367 11.62 18.6639 12.7935 18.0435C11.9868 17.0867 11.5 15.8499 11.5 14.5ZM13.5 14.5C13.5 12.567 15.067 11 17 11C18.933 11 20.5 12.567 20.5 14.5C20.5 16.433 18.933 18 17 18C15.067 18 13.5 16.433 13.5 14.5ZM17 12C15.6193 12 14.5 13.1193 14.5 14.5C14.5 15.8807 15.6193 17 17 17C18.3807 17 19.5 15.8807 19.5 14.5C19.5 13.1193 18.3807 12 17 12Z" fill="white"/>
</svg>
