<svg width="32" height="32" viewBox="0 0 32 32" fill="none" xmlns="http://www.w3.org/2000/svg">
<path d="M8.22 3.98201C8.61052 3.59148 8.61052 2.95832 8.22 2.5678C7.82947 2.17727 7.19631 2.17727 6.80578 2.5678L2.56828 6.8053C2.17776 7.19582 2.17776 7.82898 2.56828 8.21951C2.95881 8.61003 3.59197 8.61003 3.9825 8.21951L8.22 3.98201Z" fill="white"/>
<path d="M23.7809 2.5678C24.1715 2.17727 24.8046 2.17727 25.1951 2.5678L29.4326 6.80529C29.8232 7.19582 29.8232 7.82898 29.4326 8.21951C29.0421 8.61003 28.409 8.61003 28.0184 8.21951L23.7809 3.98201C23.3904 3.59149 23.3904 2.95832 23.7809 2.5678Z" fill="white"/>
<path d="M17.0005 9C17.0005 8.44772 16.5528 8 16.0005 8C15.4482 8 15.0005 8.44772 15.0005 9V16C15.0005 16.5523 15.4482 17 16.0005 17H23.0005C23.5528 17 24.0005 16.5523 24.0005 16C24.0005 15.4477 23.5528 15 23.0005 15H17.0005V9Z" fill="white"/>
<path fill-rule="evenodd" clip-rule="evenodd" d="M16.0005 4C9.37307 4 4.00049 9.37258 4.00049 16C4.00049 22.6274 9.37307 28 16.0005 28C22.6279 28 28.0005 22.6274 28.0005 16C28.0005 9.37258 22.6279 4 16.0005 4ZM6.00049 16C6.00049 10.4772 10.4776 6 16.0005 6C21.5233 6 26.0005 10.4772 26.0005 16C26.0005 21.5228 21.5233 26 16.0005 26C10.4776 26 6.00049 21.5228 6.00049 16Z" fill="white"/>
<path fill-rule="evenodd" clip-rule="evenodd" d="M6.45223 2.21424C7.03802 1.62846 7.98776 1.62846 8.57355 2.21424C9.15934 2.80003 9.15934 3.74978 8.57355 4.33556L4.33605 8.57306C3.75026 9.15885 2.80052 9.15885 2.21473 8.57306C1.62894 7.98728 1.62894 7.03753 2.21473 6.45174L6.45223 2.21424ZM7.86644 2.92135C7.67118 2.72609 7.3546 2.72609 7.15934 2.92135L2.92184 7.15885C2.72658 7.35411 2.72658 7.67069 2.92184 7.86595C3.1171 8.06122 3.43368 8.06122 3.62894 7.86596L7.86644 3.62846C8.06171 3.43319 8.06171 3.11661 7.86644 2.92135ZM24.8416 2.92135C24.6463 2.72609 24.3297 2.72609 24.1345 2.92135C23.9392 3.11661 23.9392 3.43319 24.1345 3.62846L28.372 7.86596C28.5672 8.06122 28.8838 8.06122 29.0791 7.86596C29.2744 7.67069 29.2744 7.35411 29.0791 7.15885L24.8416 2.92135ZM25.5487 2.21424L29.7862 6.45174C30.372 7.03753 30.372 7.98728 29.7862 8.57306C29.2004 9.15885 28.2507 9.15885 27.6649 8.57306L23.4274 4.33556C22.8416 3.74978 22.8416 2.80003 23.4274 2.21424C24.0132 1.62846 24.9629 1.62846 25.5487 2.21424ZM3.50049 16C3.50049 9.09644 9.09693 3.5 16.0005 3.5C22.904 3.5 28.5005 9.09644 28.5005 16C28.5005 22.9036 22.904 28.5 16.0005 28.5C9.09693 28.5 3.50049 22.9036 3.50049 16ZM27.5005 16C27.5005 9.64873 22.3518 4.5 16.0005 4.5C9.64921 4.5 4.50049 9.64873 4.50049 16C4.50049 22.3513 9.64921 27.5 16.0005 27.5C22.3518 27.5 27.5005 22.3513 27.5005 16ZM16.0005 6.5C10.7538 6.5 6.50049 10.7533 6.50049 16C6.50049 21.2467 10.7538 25.5 16.0005 25.5C21.2472 25.5 25.5005 21.2467 25.5005 16C25.5005 10.7533 21.2472 6.5 16.0005 6.5ZM5.50049 16C5.50049 10.201 10.2015 5.5 16.0005 5.5C21.7995 5.5 26.5005 10.201 26.5005 16C26.5005 21.799 21.7995 26.5 16.0005 26.5C10.2015 26.5 5.50049 21.799 5.50049 16ZM16.0005 8.5C15.7243 8.5 15.5005 8.72386 15.5005 9V16C15.5005 16.2761 15.7243 16.5 16.0005 16.5H23.0005C23.2766 16.5 23.5005 16.2761 23.5005 16C23.5005 15.7239 23.2766 15.5 23.0005 15.5H17.0005C16.7243 15.5 16.5005 15.2761 16.5005 15V9C16.5005 8.72386 16.2766 8.5 16.0005 8.5ZM14.5005 9C14.5005 8.17157 15.1721 7.5 16.0005 7.5C16.8289 7.5 17.5005 8.17157 17.5005 9V14.5H23.0005C23.8289 14.5 24.5005 15.1716 24.5005 16C24.5005 16.8284 23.8289 17.5 23.0005 17.5H16.0005C15.1721 17.5 14.5005 16.8284 14.5005 16V9Z" fill="white"/>
<path d="M8.22 3.98201C8.61052 3.59148 8.61052 2.95832 8.22 2.5678C7.82947 2.17727 7.19631 2.17727 6.80578 2.5678L2.56828 6.8053C2.17776 7.19582 2.17776 7.82898 2.56828 8.21951C2.95881 8.61003 3.59197 8.61003 3.9825 8.21951L8.22 3.98201Z" fill="white"/>
<path d="M23.7795 3.9825C23.3889 3.59197 23.3889 2.95881 23.7795 2.56828C24.17 2.17776 24.8032 2.17776 25.1937 2.56828L29.4312 6.80578C29.8217 7.19631 29.8217 7.82947 29.4312 8.22C29.0407 8.61052 28.4075 8.61052 28.017 8.22L23.7795 3.9825Z" fill="white"/>
</svg>
