<svg width="32" height="33" viewBox="0 0 32 33" fill="none" xmlns="http://www.w3.org/2000/svg">
<path d="M4 4.5C3.44772 4.5 3 4.94772 3 5.5V27.5C3 28.0523 3.44772 28.5 4 28.5C4.55228 28.5 5 28.0523 5 27.5V5.5C5 4.94772 4.55228 4.5 4 4.5Z" fill="white"/>
<path fill-rule="evenodd" clip-rule="evenodd" d="M7 13.5C7 14.6046 7.89543 15.5 9 15.5H21C22.1046 15.5 23 14.6046 23 13.5V8.5C23 7.39543 22.1046 6.5 21 6.5H9C7.89543 6.5 7 7.39543 7 8.5V13.5ZM21 13.5H9V8.5H21V13.5Z" fill="white"/>
<path fill-rule="evenodd" clip-rule="evenodd" d="M26 17.5C27.1046 17.5 28 18.3954 28 19.5V24.5C28 25.6046 27.1046 26.5 26 26.5H9C7.89543 26.5 7 25.6046 7 24.5V19.5C7 18.3954 7.89543 17.5 9 17.5H26ZM26 19.5H9V24.5H26V19.5Z" fill="white"/>
<path fill-rule="evenodd" clip-rule="evenodd" d="M4 5C4.27614 5 4.5 5.22386 4.5 5.5V27.5C4.5 27.7761 4.27614 28 4 28C3.72386 28 3.5 27.7761 3.5 27.5V5.5C3.5 5.22386 3.72386 5 4 5ZM5.5 5.5C5.5 4.67157 4.82843 4 4 4C3.17157 4 2.5 4.67157 2.5 5.5V27.5C2.5 28.3284 3.17157 29 4 29C4.82843 29 5.5 28.3284 5.5 27.5V5.5ZM21 7C21.8284 7 22.5 7.67157 22.5 8.5V13.5C22.5 14.3284 21.8284 15 21 15H9C8.17157 15 7.5 14.3284 7.5 13.5V8.5C7.5 7.67157 8.17157 7 9 7H21ZM23.5 8.5C23.5 7.11929 22.3807 6 21 6H9C7.61929 6 6.5 7.11929 6.5 8.5V13.5C6.5 14.8807 7.61929 16 9 16H21C22.3807 16 23.5 14.8807 23.5 13.5V8.5ZM21.5 8.5C21.5 8.22386 21.2761 8 21 8H9C8.72386 8 8.5 8.22386 8.5 8.5V13.5C8.5 13.7761 8.72386 14 9 14H21C21.2761 14 21.5 13.7761 21.5 13.5V8.5ZM20.5 9V13H9.5V9H20.5ZM28.5 19.5C28.5 18.1193 27.3807 17 26 17H9C7.61929 17 6.5 18.1193 6.5 19.5V24.5C6.5 25.8807 7.61929 27 9 27H26C27.3807 27 28.5 25.8807 28.5 24.5V19.5ZM26 18C26.8284 18 27.5 18.6716 27.5 19.5V24.5C27.5 25.3284 26.8284 26 26 26H9C8.17157 26 7.5 25.3284 7.5 24.5V19.5C7.5 18.6716 8.17157 18 9 18H26ZM26.5 19.5C26.5 19.2239 26.2761 19 26 19H9C8.72386 19 8.5 19.2239 8.5 19.5V24.5C8.5 24.7761 8.72386 25 9 25H26C26.2761 25 26.5 24.7761 26.5 24.5V19.5ZM25.5 20V24H9.5V20H25.5Z" fill="white"/>
</svg>
