<svg width="32" height="33" viewBox="0 0 32 33" fill="none" xmlns="http://www.w3.org/2000/svg">
<path fill-rule="evenodd" clip-rule="evenodd" d="M6 6.5C4.89543 6.5 4 7.39543 4 8.5V13.5C4 14.6046 4.89543 15.5 6 15.5H26C27.1046 15.5 28 14.6046 28 13.5V8.5C28 7.39543 27.1046 6.5 26 6.5H6ZM6 8.5H26V13.5H6V8.5Z" fill="white"/>
<path fill-rule="evenodd" clip-rule="evenodd" d="M6 17.5C4.89543 17.5 4 18.3954 4 19.5V24.5C4 25.6046 4.89543 26.5 6 26.5H26C27.1046 26.5 28 25.6046 28 24.5V19.5C28 18.3954 27.1046 17.5 26 17.5H6ZM6 19.5H26V24.5H6V19.5Z" fill="white"/>
<path fill-rule="evenodd" clip-rule="evenodd" d="M3.5 8.5C3.5 7.11929 4.61929 6 6 6H26C27.3807 6 28.5 7.11929 28.5 8.5V13.5C28.5 14.8807 27.3807 16 26 16H6C4.61929 16 3.5 14.8807 3.5 13.5V8.5ZM6 7C5.17157 7 4.5 7.67157 4.5 8.5V13.5C4.5 14.3284 5.17157 15 6 15H26C26.8284 15 27.5 14.3284 27.5 13.5V8.5C27.5 7.67157 26.8284 7 26 7H6ZM5.5 8.5C5.5 8.22386 5.72386 8 6 8H26C26.2761 8 26.5 8.22386 26.5 8.5V13.5C26.5 13.7761 26.2761 14 26 14H6C5.72386 14 5.5 13.7761 5.5 13.5V8.5ZM6.5 9V13H25.5V9H6.5ZM3.5 19.5C3.5 18.1193 4.61929 17 6 17H26C27.3807 17 28.5 18.1193 28.5 19.5V24.5C28.5 25.8807 27.3807 27 26 27H6C4.61929 27 3.5 25.8807 3.5 24.5V19.5ZM6 18C5.17157 18 4.5 18.6716 4.5 19.5V24.5C4.5 25.3284 5.17157 26 6 26H26C26.8284 26 27.5 25.3284 27.5 24.5V19.5C27.5 18.6716 26.8284 18 26 18H6ZM5.5 19.5C5.5 19.2239 5.72386 19 6 19H26C26.2761 19 26.5 19.2239 26.5 19.5V24.5C26.5 24.7761 26.2761 25 26 25H6C5.72386 25 5.5 24.7761 5.5 24.5V19.5ZM6.5 20V24H25.5V20H6.5Z" fill="white"/>
</svg>
