<svg width="32" height="33" viewBox="0 0 32 33" fill="none" xmlns="http://www.w3.org/2000/svg">
<path fill-rule="evenodd" clip-rule="evenodd" d="M8 4C6.61929 4 5.5 5.11929 5.5 6.5V26.5C5.5 27.8807 6.61929 29 8 29H13C14.3807 29 15.5 27.8807 15.5 26.5V6.5C15.5 5.11929 14.3807 4 13 4H8ZM8.5 7V26H12.5V7H8.5Z" fill="white"/>
<path fill-rule="evenodd" clip-rule="evenodd" d="M19 4C17.6193 4 16.5 5.11929 16.5 6.5V26.5C16.5 27.8807 17.6193 29 19 29H24C25.3807 29 26.5 27.8807 26.5 26.5V6.5C26.5 5.11929 25.3807 4 24 4H19ZM19.5 7V26H23.5V7H19.5Z" fill="white"/>
</svg>
