<svg width="32" height="33" viewBox="0 0 32 33" fill="none" xmlns="http://www.w3.org/2000/svg">
<path fill-rule="evenodd" clip-rule="evenodd" d="M5.5 6.5C5.5 5.11929 6.61929 4 8 4H13C14.3807 4 15.5 5.11929 15.5 6.5V15H16.5V9.5C16.5 8.11929 17.6193 7 19 7H24C25.3807 7 26.5 8.11929 26.5 9.5V15H28C28.8284 15 29.5 15.6716 29.5 16.5C29.5 17.3284 28.8284 18 28 18H26.5V23.5C26.5 24.8807 25.3807 26 24 26H19C17.6193 26 16.5 24.8807 16.5 23.5V18H15.5V26.5C15.5 27.8807 14.3807 29 13 29H8C6.61929 29 5.5 27.8807 5.5 26.5V18H4C3.17157 18 2.5 17.3284 2.5 16.5C2.5 15.6716 3.17157 15 4 15H5.5V6.5ZM8.5 7H12.5V26H8.5V7ZM23.5 10H19.5V23H23.5V10Z" fill="white"/>
</svg>
