<svg width="32" height="33" viewBox="0 0 32 33" fill="none" xmlns="http://www.w3.org/2000/svg">
<path fill-rule="evenodd" clip-rule="evenodd" d="M16 3.5C16.5523 3.5 17 3.94772 17 4.5V6.5H23C24.1046 6.5 25 7.39543 25 8.5V13.5C25 14.6046 24.1046 15.5 23 15.5H17V17.5H26C27.1046 17.5 28 18.3954 28 19.5V24.5C28 25.6046 27.1046 26.5 26 26.5H17V28.5C17 29.0523 16.5523 29.5 16 29.5C15.4477 29.5 15 29.0523 15 28.5V26.5H6C4.89543 26.5 4 25.6046 4 24.5V19.5C4 18.3954 4.89543 17.5 6 17.5H15V15.5H9C7.89543 15.5 7 14.6046 7 13.5V8.5C7 7.39543 7.89543 6.5 9 6.5H15V4.5C15 3.94772 15.4477 3.5 16 3.5ZM26 24.5V19.5H6V24.5H26ZM23 13.5H9V8.5H23V13.5Z" fill="white"/>
<path fill-rule="evenodd" clip-rule="evenodd" d="M16 4C15.7239 4 15.5 4.22386 15.5 4.5V6.5C15.5 6.77614 15.2761 7 15 7H9C8.17157 7 7.5 7.67157 7.5 8.5V13.5C7.5 14.3284 8.17157 15 9 15H15C15.2761 15 15.5 15.2239 15.5 15.5V17.5C15.5 17.7761 15.2761 18 15 18H6C5.17157 18 4.5 18.6716 4.5 19.5V24.5C4.5 25.3284 5.17157 26 6 26H15C15.2761 26 15.5 26.2239 15.5 26.5V28.5C15.5 28.7761 15.7239 29 16 29C16.2761 29 16.5 28.7761 16.5 28.5V26.5C16.5 26.2239 16.7239 26 17 26H26C26.8284 26 27.5 25.3284 27.5 24.5V19.5C27.5 18.6716 26.8284 18 26 18H17C16.7239 18 16.5 17.7761 16.5 17.5V15.5C16.5 15.2239 16.7239 15 17 15H23C23.8284 15 24.5 14.3284 24.5 13.5V8.5C24.5 7.67157 23.8284 7 23 7H17C16.7239 7 16.5 6.77614 16.5 6.5V4.5C16.5 4.22386 16.2761 4 16 4ZM14.5 4.5C14.5 3.67157 15.1716 3 16 3C16.8284 3 17.5 3.67157 17.5 4.5V6H23C24.3807 6 25.5 7.11929 25.5 8.5V13.5C25.5 14.8807 24.3807 16 23 16H17.5V17H26C27.3807 17 28.5 18.1193 28.5 19.5V24.5C28.5 25.8807 27.3807 27 26 27H17.5V28.5C17.5 29.3284 16.8284 30 16 30C15.1716 30 14.5 29.3284 14.5 28.5V27H6C4.61929 27 3.5 25.8807 3.5 24.5V19.5C3.5 18.1193 4.61929 17 6 17H14.5V16H9C7.61929 16 6.5 14.8807 6.5 13.5V8.5C6.5 7.11929 7.61929 6 9 6H14.5V4.5ZM8.5 8.5C8.5 8.22386 8.72386 8 9 8H23C23.2761 8 23.5 8.22386 23.5 8.5V13.5C23.5 13.7761 23.2761 14 23 14H9C8.72386 14 8.5 13.7761 8.5 13.5V8.5ZM9.5 9V13H22.5V9H9.5ZM5.5 19.5C5.5 19.2239 5.72386 19 6 19H26C26.2761 19 26.5 19.2239 26.5 19.5V24.5C26.5 24.7761 26.2761 25 26 25H6C5.72386 25 5.5 24.7761 5.5 24.5V19.5ZM6.5 20V24H25.5V20H6.5Z" fill="white"/>
</svg>
