<svg width="32" height="33" viewBox="0 0 32 33" fill="none" xmlns="http://www.w3.org/2000/svg">
<path fill-rule="evenodd" clip-rule="evenodd" d="M4.5 7C4.5 5.89543 5.39543 5 6.5 5H25.5C26.6046 5 27.5 5.89543 27.5 7V26C27.5 27.1046 26.6046 28 25.5 28H6.5C5.39543 28 4.5 27.1046 4.5 26V7ZM6.5 17.5V26H15V17.5H6.5ZM15 15.5H6.5V7H15V15.5ZM17 17.5V26H25.5V17.5H17ZM25.5 15.5H17V7H25.5V15.5Z" fill="white"/>
<path fill-rule="evenodd" clip-rule="evenodd" d="M6.5 5.5C5.67157 5.5 5 6.17157 5 7V26C5 26.8284 5.67157 27.5 6.5 27.5H25.5C26.3284 27.5 27 26.8284 27 26V7C27 6.17157 26.3284 5.5 25.5 5.5H6.5ZM4 7C4 5.61929 5.11929 4.5 6.5 4.5H25.5C26.8807 4.5 28 5.61929 28 7V26C28 27.3807 26.8807 28.5 25.5 28.5H6.5C5.11929 28.5 4 27.3807 4 26V7ZM6 7C6 6.72386 6.22386 6.5 6.5 6.5H15C15.2761 6.5 15.5 6.72386 15.5 7V15.5C15.5 15.7761 15.2761 16 15 16H6.5C6.22386 16 6 15.7761 6 15.5V7ZM7 7.5V15H14.5V7.5H7ZM16.5 7C16.5 6.72386 16.7239 6.5 17 6.5H25.5C25.7761 6.5 26 6.72386 26 7V15.5C26 15.7761 25.7761 16 25.5 16H17C16.7239 16 16.5 15.7761 16.5 15.5V7ZM17.5 7.5V15H25V7.5H17.5ZM6 17.5C6 17.2239 6.22386 17 6.5 17H15C15.2761 17 15.5 17.2239 15.5 17.5V26C15.5 26.2761 15.2761 26.5 15 26.5H6.5C6.22386 26.5 6 26.2761 6 26V17.5ZM7 18V25.5H14.5V18H7ZM16.5 17.5C16.5 17.2239 16.7239 17 17 17H25.5C25.7761 17 26 17.2239 26 17.5V26C26 26.2761 25.7761 26.5 25.5 26.5H17C16.7239 26.5 16.5 26.2761 16.5 26V17.5ZM17.5 18V25.5H25V18H17.5Z" fill="white"/>
</svg>
