<svg width="32" height="33" viewBox="0 0 32 33" fill="none" xmlns="http://www.w3.org/2000/svg">
<path d="M27 4.5C27.5523 4.5 28 4.94772 28 5.5V27.5C28 28.0523 27.5523 28.5 27 28.5C26.4477 28.5 26 28.0523 26 27.5V5.5C26 4.94772 26.4477 4.5 27 4.5Z" fill="white"/>
<path fill-rule="evenodd" clip-rule="evenodd" d="M24 13.5C24 14.6046 23.1046 15.5 22 15.5H10C8.89543 15.5 8 14.6046 8 13.5V8.5C8 7.39543 8.89543 6.5 10 6.5H22C23.1046 6.5 24 7.39543 24 8.5V13.5ZM10 13.5H22V8.5H10V13.5Z" fill="white"/>
<path fill-rule="evenodd" clip-rule="evenodd" d="M5 17.5C3.89543 17.5 3 18.3954 3 19.5V24.5C3 25.6046 3.89543 26.5 5 26.5H22C23.1046 26.5 24 25.6046 24 24.5V19.5C24 18.3954 23.1046 17.5 22 17.5H5ZM5 19.5H22V24.5H5V19.5Z" fill="white"/>
<path fill-rule="evenodd" clip-rule="evenodd" d="M27 5C26.7239 5 26.5 5.22386 26.5 5.5V27.5C26.5 27.7761 26.7239 28 27 28C27.2761 28 27.5 27.7761 27.5 27.5V5.5C27.5 5.22386 27.2761 5 27 5ZM25.5 5.5C25.5 4.67157 26.1716 4 27 4C27.8284 4 28.5 4.67157 28.5 5.5V27.5C28.5 28.3284 27.8284 29 27 29C26.1716 29 25.5 28.3284 25.5 27.5V5.5ZM10 7C9.17157 7 8.5 7.67157 8.5 8.5V13.5C8.5 14.3284 9.17157 15 10 15H22C22.8284 15 23.5 14.3284 23.5 13.5V8.5C23.5 7.67157 22.8284 7 22 7H10ZM7.5 8.5C7.5 7.11929 8.61929 6 10 6H22C23.3807 6 24.5 7.11929 24.5 8.5V13.5C24.5 14.8807 23.3807 16 22 16H10C8.61929 16 7.5 14.8807 7.5 13.5V8.5ZM9.5 8.5C9.5 8.22386 9.72386 8 10 8H22C22.2761 8 22.5 8.22386 22.5 8.5V13.5C22.5 13.7761 22.2761 14 22 14H10C9.72386 14 9.5 13.7761 9.5 13.5V8.5ZM10.5 9V13H21.5V9H10.5ZM2.5 19.5C2.5 18.1193 3.61929 17 5 17H22C23.3807 17 24.5 18.1193 24.5 19.5V24.5C24.5 25.8807 23.3807 27 22 27H5C3.61929 27 2.5 25.8807 2.5 24.5V19.5ZM5 18C4.17157 18 3.5 18.6716 3.5 19.5V24.5C3.5 25.3284 4.17157 26 5 26H22C22.8284 26 23.5 25.3284 23.5 24.5V19.5C23.5 18.6716 22.8284 18 22 18H5ZM4.5 19.5C4.5 19.2239 4.72386 19 5 19H22C22.2761 19 22.5 19.2239 22.5 19.5V24.5C22.5 24.7761 22.2761 25 22 25H5C4.72386 25 4.5 24.7761 4.5 24.5V19.5ZM5.5 20V24H21.5V20H5.5Z" fill="white"/>
</svg>
