<svg width="32" height="33" viewBox="0 0 32 33" fill="none" xmlns="http://www.w3.org/2000/svg">
<path fill-rule="evenodd" clip-rule="evenodd" d="M8 3.5C6.89543 3.5 6 4.39543 6 5.5V22.5C6 23.6046 6.89543 24.5 8 24.5H13C14.1046 24.5 15 23.6046 15 22.5V5.5C15 4.39543 14.1046 3.5 13 3.5H8ZM8 5.5H13V22.5H8V5.5Z" fill="white"/>
<path fill-rule="evenodd" clip-rule="evenodd" d="M19 24.5C17.8954 24.5 17 23.6046 17 22.5V10.5C17 9.39543 17.8954 8.5 19 8.5H24C25.1046 8.5 26 9.39543 26 10.5V22.5C26 23.6046 25.1046 24.5 24 24.5H19ZM19 10.5V22.5H24V10.5H19Z" fill="white"/>
<path d="M4 27.5C4 26.9477 4.44772 26.5 5 26.5H27C27.5523 26.5 28 26.9477 28 27.5C28 28.0523 27.5523 28.5 27 28.5H5C4.44772 28.5 4 28.0523 4 27.5Z" fill="white"/>
<path fill-rule="evenodd" clip-rule="evenodd" d="M5.5 5.5C5.5 4.11929 6.61929 3 8 3H13C14.3807 3 15.5 4.11929 15.5 5.5V22.5C15.5 23.8807 14.3807 25 13 25H8C6.61929 25 5.5 23.8807 5.5 22.5V5.5ZM8 4C7.17157 4 6.5 4.67157 6.5 5.5V22.5C6.5 23.3284 7.17157 24 8 24H13C13.8284 24 14.5 23.3284 14.5 22.5V5.5C14.5 4.67157 13.8284 4 13 4H8ZM7.5 5.5C7.5 5.22386 7.72386 5 8 5H13C13.2761 5 13.5 5.22386 13.5 5.5V22.5C13.5 22.7761 13.2761 23 13 23H8C7.72386 23 7.5 22.7761 7.5 22.5V5.5ZM8.5 6V22H12.5V6H8.5ZM19 9C18.1716 9 17.5 9.67157 17.5 10.5V22.5C17.5 23.3284 18.1716 24 19 24H24C24.8284 24 25.5 23.3284 25.5 22.5V10.5C25.5 9.67157 24.8284 9 24 9H19ZM16.5 10.5C16.5 9.11929 17.6193 8 19 8H24C25.3807 8 26.5 9.11929 26.5 10.5V22.5C26.5 23.8807 25.3807 25 24 25H19C17.6193 25 16.5 23.8807 16.5 22.5V10.5ZM18.5 10.5C18.5 10.2239 18.7239 10 19 10H24C24.2761 10 24.5 10.2239 24.5 10.5V22.5C24.5 22.7761 24.2761 23 24 23H19C18.7239 23 18.5 22.7761 18.5 22.5V10.5ZM19.5 11V22H23.5V11H19.5ZM5 27C4.72386 27 4.5 27.2239 4.5 27.5C4.5 27.7761 4.72386 28 5 28H27C27.2761 28 27.5 27.7761 27.5 27.5C27.5 27.2239 27.2761 27 27 27H5ZM3.5 27.5C3.5 26.6716 4.17157 26 5 26H27C27.8284 26 28.5 26.6716 28.5 27.5C28.5 28.3284 27.8284 29 27 29H5C4.17157 29 3.5 28.3284 3.5 27.5Z" fill="white"/>
</svg>
