<svg width="32" height="33" viewBox="0 0 32 33" fill="none" xmlns="http://www.w3.org/2000/svg">
<path d="M4 5.5C4 4.94772 4.44772 4.5 5 4.5H27C27.5523 4.5 28 4.94772 28 5.5C28 6.05228 27.5523 6.5 27 6.5H5C4.44772 6.5 4 6.05228 4 5.5Z" fill="white"/>
<path fill-rule="evenodd" clip-rule="evenodd" d="M24 8.5C25.1046 8.5 26 9.39543 26 10.5V22.5C26 23.6046 25.1046 24.5 24 24.5H19C17.8954 24.5 17 23.6046 17 22.5V10.5C17 9.39543 17.8954 8.5 19 8.5H24ZM24 22.5V10.5H19V22.5H24Z" fill="white"/>
<path fill-rule="evenodd" clip-rule="evenodd" d="M8 8.5C6.89543 8.5 6 9.39543 6 10.5V27.5C6 28.6046 6.89543 29.5 8 29.5H13C14.1046 29.5 15 28.6046 15 27.5V10.5C15 9.39543 14.1046 8.5 13 8.5H8ZM8 10.5H13V27.5H8V10.5Z" fill="white"/>
<path fill-rule="evenodd" clip-rule="evenodd" d="M5 5C4.72386 5 4.5 5.22386 4.5 5.5C4.5 5.77614 4.72386 6 5 6H27C27.2761 6 27.5 5.77614 27.5 5.5C27.5 5.22386 27.2761 5 27 5H5ZM3.5 5.5C3.5 4.67157 4.17157 4 5 4H27C27.8284 4 28.5 4.67157 28.5 5.5C28.5 6.32843 27.8284 7 27 7H5C4.17157 7 3.5 6.32843 3.5 5.5ZM5.5 10.5C5.5 9.11929 6.61929 8 8 8H13C14.3807 8 15.5 9.11929 15.5 10.5V27.5C15.5 28.8807 14.3807 30 13 30H8C6.61929 30 5.5 28.8807 5.5 27.5V10.5ZM8 9C7.17157 9 6.5 9.67157 6.5 10.5V27.5C6.5 28.3284 7.17157 29 8 29H13C13.8284 29 14.5 28.3284 14.5 27.5V10.5C14.5 9.67157 13.8284 9 13 9H8ZM19 9C18.1716 9 17.5 9.67157 17.5 10.5V22.5C17.5 23.3284 18.1716 24 19 24H24C24.8284 24 25.5 23.3284 25.5 22.5V10.5C25.5 9.67157 24.8284 9 24 9H19ZM16.5 10.5C16.5 9.11929 17.6193 8 19 8H24C25.3807 8 26.5 9.11929 26.5 10.5V22.5C26.5 23.8807 25.3807 25 24 25H19C17.6193 25 16.5 23.8807 16.5 22.5V10.5ZM7.5 10.5C7.5 10.2239 7.72386 10 8 10H13C13.2761 10 13.5 10.2239 13.5 10.5V27.5C13.5 27.7761 13.2761 28 13 28H8C7.72386 28 7.5 27.7761 7.5 27.5V10.5ZM8.5 11V27H12.5V11H8.5ZM18.5 10.5C18.5 10.2239 18.7239 10 19 10H24C24.2761 10 24.5 10.2239 24.5 10.5V22.5C24.5 22.7761 24.2761 23 24 23H19C18.7239 23 18.5 22.7761 18.5 22.5V10.5ZM19.5 11V22H23.5V11H19.5Z" fill="white"/>
</svg>
