<svg width="32" height="32" viewBox="0 0 32 32" fill="none" xmlns="http://www.w3.org/2000/svg">
<path d="M12.4696 18.0556C12.0791 17.6651 11.4459 17.6651 11.0554 18.0556C10.6649 18.4461 10.6649 19.0793 11.0554 19.4698L15.2929 23.7073C15.6834 24.0978 16.3166 24.0978 16.7071 23.7073L20.9446 19.4698C21.3351 19.0793 21.3351 18.4461 20.9446 18.0556C20.5541 17.6651 19.9209 17.6651 19.5304 18.0556L17 20.586V13C17 12.4477 16.5523 12 16 12C15.4477 12 15 12.4477 15 13V20.586L12.4696 18.0556Z" fill="white"/>
<path fill-rule="evenodd" clip-rule="evenodd" d="M7 4C6.62123 4 6.27496 4.214 6.10557 4.55279L4.11457 8.53479C4.04141 8.67376 4 8.83204 4 9V26C4 26.5304 4.21071 27.0391 4.58579 27.4142C4.96086 27.7893 5.46957 28 6 28H26C26.5304 28 27.0391 27.7893 27.4142 27.4142C27.7893 27.0391 28 26.5304 28 26V9C28 8.98727 27.9998 8.97456 27.9993 8.96187C27.9935 8.80808 27.953 8.66317 27.8854 8.53477L25.8944 4.55279C25.725 4.214 25.3788 4 25 4H7ZM25.382 8L24.382 6H7.61803L6.61803 8H25.382ZM6 10V26H26V10H6Z" fill="white"/>
<path fill-rule="evenodd" clip-rule="evenodd" d="M5.65836 4.32918C5.91245 3.821 6.43184 3.5 7 3.5H25C25.5682 3.5 26.0876 3.821 26.3416 4.32918L28.3305 8.30698C28.4306 8.49882 28.4904 8.71492 28.4989 8.94314C28.4989 8.94303 28.4989 8.94325 28.4989 8.94314C28.4996 8.96209 28.5 8.98104 28.5 9V26C28.5 26.663 28.2366 27.2989 27.7678 27.7678C27.2989 28.2366 26.663 28.5 26 28.5H6C5.33696 28.5 4.70108 28.2366 4.23223 27.7678C3.76339 27.2989 3.5 26.663 3.5 26V9C3.5 8.75099 3.56107 8.51479 3.66947 8.30697L3.66736 8.31119L4.11457 8.53479L3.67214 8.30186C3.67125 8.30356 3.67035 8.30526 3.66947 8.30697L5.65836 4.32918ZM7 4.5C6.81061 4.5 6.63748 4.607 6.55279 4.77639L4.55709 8.76778C4.52083 8.83665 4.5 8.91514 4.5 9V26C4.5 26.3978 4.65804 26.7794 4.93934 27.0607C5.22065 27.342 5.60218 27.5 6 27.5H26C26.3978 27.5 26.7794 27.342 27.0607 27.0607C27.342 26.7794 27.5 26.3978 27.5 26V9C27.5 8.99362 27.4999 8.98727 27.4996 8.98095C27.4967 8.90363 27.4765 8.83141 27.443 8.76771L27.4381 8.75842L25.4472 4.77639C25.3625 4.607 25.1894 4.5 25 4.5H7ZM7.17082 5.77639C7.25552 5.607 7.42865 5.5 7.61803 5.5H24.382C24.5714 5.5 24.7445 5.607 24.8292 5.77639L25.8292 7.77639C25.9067 7.93139 25.8984 8.11546 25.8073 8.26287C25.7162 8.41027 25.5553 8.5 25.382 8.5H6.61803C6.44475 8.5 6.28381 8.41027 6.19271 8.26287C6.10161 8.11546 6.09332 7.93139 6.17082 7.77639L7.17082 5.77639ZM7.92705 6.5L7.42705 7.5H24.573L24.073 6.5H7.92705ZM5.5 10C5.5 9.72386 5.72386 9.5 6 9.5H26C26.2761 9.5 26.5 9.72386 26.5 10V26C26.5 26.2761 26.2761 26.5 26 26.5H6C5.72386 26.5 5.5 26.2761 5.5 26V10ZM6.5 10.5V25.5H25.5V10.5H6.5ZM14.5 13C14.5 12.1716 15.1716 11.5 16 11.5C16.8284 11.5 17.5 12.1716 17.5 13V19.3789L19.1769 17.702C19.7626 17.1162 20.7124 17.1162 21.2982 17.702C21.884 18.2878 21.884 19.2376 21.2982 19.8234L17.0607 24.0609C16.4749 24.6466 15.5251 24.6466 14.9394 24.0609L10.7019 19.8234C10.1161 19.2376 10.1161 18.2878 10.7019 17.702C11.2876 17.1162 12.2374 17.1162 12.8232 17.702L14.5 19.3789V13ZM16 12.5C15.7239 12.5 15.5 12.7239 15.5 13V20.586C15.5 20.7882 15.3782 20.9705 15.1913 21.0479C15.0045 21.1253 14.7894 21.0825 14.6464 20.9395L12.1161 18.4091C11.9208 18.2139 11.6042 18.2139 11.409 18.4091C11.2137 18.6044 11.2137 18.921 11.409 19.1162L15.6465 23.3537C15.8417 23.549 16.1583 23.549 16.3536 23.3537L20.5911 19.1162C20.7863 18.921 20.7863 18.6044 20.5911 18.4091C20.3958 18.2139 20.0792 18.2139 19.884 18.4091L17.3536 20.9395C17.2106 21.0825 16.9955 21.1253 16.8087 21.0479C16.6218 20.9705 16.5 20.7882 16.5 20.586V13C16.5 12.7239 16.2761 12.5 16 12.5Z" fill="white"/>
</svg>
