<svg width="32" height="32" viewBox="0 0 32 32" fill="none" xmlns="http://www.w3.org/2000/svg">
<path fill-rule="evenodd" clip-rule="evenodd" d="M27 11.101V9C27 7.67392 26.4732 6.40215 25.5355 5.46447C24.5979 4.52678 23.3261 4 22 4H10C8.67392 4 7.40215 4.52678 6.46447 5.46447C5.52678 6.40215 5 7.67392 5 9V11.101C4.03961 11.2971 3.15783 11.7711 2.46447 12.4645C1.76521 13.1637 1.289 14.0546 1.09608 15.0246C0.90315 15.9945 1.00217 16.9998 1.3806 17.9134C1.75904 18.827 2.3999 19.6079 3.22215 20.1574C3.76374 20.5192 4.368 20.77 5 20.899V25C5 25.5304 5.21072 26.0391 5.58579 26.4142C5.96086 26.7893 6.46957 27 7 27H25C25.5304 27 26.0391 26.7893 26.4142 26.4142C26.7893 26.0391 27 25.5304 27 25V20.899C27.632 20.77 28.2363 20.5192 28.7779 20.1574C29.6001 19.6079 30.241 18.8271 30.6194 17.9134C30.9978 16.9998 31.0969 15.9945 30.9039 15.0246C30.711 14.0546 30.2348 13.1637 29.5355 12.4645C28.8422 11.7711 27.9604 11.2971 27 11.101ZM10 6C9.20435 6 8.44129 6.31607 7.87868 6.87868C7.31607 7.44129 7 8.20435 7 9V11.101C7.31123 11.1645 7.61714 11.2579 7.91342 11.3806C8.82705 11.759 9.60794 12.3999 10.1573 13.2222C10.7068 14.0444 11 15.0111 11 16H21C21 15.0111 21.2932 14.0444 21.8427 13.2222C22.3921 12.3999 23.173 11.759 24.0866 11.3806C24.3829 11.2579 24.6888 11.1645 25 11.101V9C25 8.20435 24.6839 7.44129 24.1213 6.87868C23.5587 6.31607 22.7956 6 22 6H10ZM21 18V21C21 21.5523 21.4477 22 22 22C22.5523 22 23 21.5523 23 21V16C23 15.4067 23.1759 14.8266 23.5056 14.3333C23.8352 13.8399 24.3038 13.4554 24.852 13.2284C25.4001 13.0013 26.0033 12.9419 26.5853 13.0576C27.1672 13.1734 27.7018 13.4591 28.1213 13.8787C28.5409 14.2982 28.8266 14.8328 28.9424 15.4147C29.0581 15.9967 28.9987 16.5999 28.7716 17.1481C28.5446 17.6962 28.1601 18.1648 27.6667 18.4944C27.1734 18.8241 26.5933 19 26 19C25.4477 19 25 19.4477 25 20V25H7V20C7 19.4477 6.55229 19 6 19C5.40666 19 4.82664 18.8241 4.33329 18.4944C3.83994 18.1648 3.45543 17.6962 3.22836 17.1481C3.0013 16.5999 2.94189 15.9967 3.05765 15.4147C3.1734 14.8328 3.45912 14.2982 3.87868 13.8787C4.29824 13.4591 4.83279 13.1734 5.41473 13.0576C5.99667 12.9419 6.59987 13.0013 7.14805 13.2284C7.69623 13.4554 8.16477 13.8399 8.49441 14.3333C8.82405 14.8266 9 15.4067 9 16V21C9 21.5523 9.44772 22 10 22C10.5523 22 11 21.5523 11 21V18H21Z" fill="white"/>
<path fill-rule="evenodd" clip-rule="evenodd" d="M6.11091 5.11091C7.14236 4.07946 8.54131 3.5 10 3.5H22C23.4587 3.5 24.8576 4.07946 25.8891 5.11091C26.9205 6.14236 27.5 7.54131 27.5 9V10.7085C28.4006 10.9638 29.2237 11.4456 29.8891 12.1109C30.6583 12.8801 31.1821 13.8601 31.3943 14.927C31.6065 15.9939 31.4976 17.0998 31.0813 18.1048C30.6651 19.1098 29.9601 19.9687 29.0556 20.5731C28.5752 20.8941 28.0499 21.1356 27.5 21.2915V25C27.5 25.663 27.2366 26.2989 26.7678 26.7678C26.2989 27.2366 25.663 27.5 25 27.5H7C6.33696 27.5 5.70108 27.2366 5.23224 26.7678C4.76339 26.2989 4.5 25.663 4.5 25V21.2915C3.95006 21.1356 3.4248 20.8941 2.94437 20.5731C2.0399 19.9687 1.33495 19.1098 0.918665 18.1048C0.502383 17.0998 0.393465 15.9939 0.605683 14.927C0.817902 13.8601 1.34173 12.8801 2.11092 12.1109C2.77627 11.4456 3.59937 10.9638 4.5 10.7085V9C4.5 7.54131 5.07946 6.14236 6.11091 5.11091ZM10 4.5C8.80653 4.5 7.66193 4.97411 6.81802 5.81802C5.97411 6.66193 5.5 7.80653 5.5 9V11.101C5.5 11.3386 5.3328 11.5434 5.1 11.5909C4.23565 11.7674 3.44204 12.194 2.81802 12.818C2.18869 13.4474 1.7601 14.2492 1.58647 15.1221C1.41284 15.995 1.50195 16.8998 1.84254 17.7221C2.18314 18.5443 2.75991 19.2471 3.49994 19.7416C3.98736 20.0673 4.5312 20.293 5.1 20.4091C5.3328 20.4566 5.5 20.6614 5.5 20.899V25C5.5 25.3978 5.65804 25.7794 5.93934 26.0607C6.22065 26.342 6.60218 26.5 7 26.5H25C25.3978 26.5 25.7794 26.342 26.0607 26.0607C26.342 25.7794 26.5 25.3978 26.5 25V20.899C26.5 20.6614 26.6672 20.4566 26.9 20.4091C27.4688 20.293 28.0126 20.0673 28.5001 19.7416C29.2401 19.2471 29.8169 18.5443 30.1575 17.7221C30.4981 16.8998 30.5872 15.995 30.4135 15.1221C30.2399 14.2492 29.8113 13.4474 29.182 12.818C28.558 12.194 27.7643 11.7674 26.9 11.5909C26.6672 11.5434 26.5 11.3386 26.5 11.101V9C26.5 7.80653 26.0259 6.66193 25.182 5.81802C24.3381 4.97411 23.1935 4.5 22 4.5H10ZM7.52513 6.52513C8.1815 5.86875 9.07174 5.5 10 5.5H22C22.9283 5.5 23.8185 5.86875 24.4749 6.52513C25.1313 7.1815 25.5 8.07174 25.5 9V11.101C25.5 11.3386 25.3328 11.5434 25.1 11.5909C24.8199 11.6481 24.5446 11.7321 24.2779 11.8425C23.4557 12.1831 22.7529 12.7599 22.2584 13.4999C21.7639 14.24 21.5 15.11 21.5 16C21.5 16.2761 21.2761 16.5 21 16.5H11C10.7239 16.5 10.5 16.2761 10.5 16C10.5 15.11 10.2361 14.24 9.74161 13.4999C9.24715 12.7599 8.54435 12.1831 7.72208 11.8425C7.45542 11.7321 7.1801 11.6481 6.9 11.5909C6.66721 11.5434 6.5 11.3386 6.5 11.101V9C6.5 8.07174 6.86875 7.1815 7.52513 6.52513ZM10 6.5C9.33696 6.5 8.70107 6.76339 8.23223 7.23223C7.76339 7.70107 7.5 8.33696 7.5 9V10.7085C7.70479 10.7665 7.90674 10.8366 8.10476 10.9187C9.10976 11.3349 9.96874 12.0399 10.5731 12.9444C11.0844 13.7096 11.394 14.5887 11.4772 15.5H20.5228C20.606 14.5887 20.9156 13.7096 21.4269 12.9444C22.0313 12.0399 22.8902 11.3349 23.8952 10.9187C24.0933 10.8366 24.2952 10.7665 24.5 10.7085V9C24.5 8.33696 24.2366 7.70107 23.7678 7.23223C23.2989 6.76339 22.663 6.5 22 6.5H10ZM6.95671 13.6903C6.4999 13.5011 5.99723 13.4516 5.51228 13.548C5.02732 13.6445 4.58187 13.8826 4.23224 14.2322C3.8826 14.5819 3.6445 15.0273 3.54804 15.5123C3.45158 15.9972 3.50108 16.4999 3.6903 16.9567C3.87952 17.4135 4.19995 17.804 4.61108 18.0787C5.0222 18.3534 5.50555 18.5 6 18.5C6.82843 18.5 7.5 19.1716 7.5 20V24.5H24.5V20C24.5 19.1716 25.1716 18.5 26 18.5C26.4945 18.5 26.9778 18.3534 27.3889 18.0787C27.8001 17.804 28.1205 17.4135 28.3097 16.9567C28.4989 16.4999 28.5484 15.9972 28.452 15.5123C28.3555 15.0273 28.1174 14.5819 27.7678 14.2322C27.4181 13.8826 26.9727 13.6445 26.4877 13.548C26.0028 13.4516 25.5001 13.5011 25.0433 13.6903C24.5865 13.8795 24.196 14.2 23.9213 14.6111C23.6466 15.0222 23.5 15.5056 23.5 16V21C23.5 21.8284 22.8284 22.5 22 22.5C21.1716 22.5 20.5 21.8284 20.5 21V18.5H11.5V21C11.5 21.8284 10.8284 22.5 10 22.5C9.17158 22.5 8.5 21.8284 8.5 21V16C8.5 15.5055 8.35338 15.0222 8.07868 14.6111C7.80397 14.2 7.41353 13.8795 6.95671 13.6903ZM5.31719 12.5673C5.99612 12.4322 6.69985 12.5015 7.33939 12.7664C7.97894 13.0313 8.52556 13.4799 8.91015 14.0555C9.29473 14.6311 9.5 15.3078 9.5 16V21C9.5 21.2761 9.72386 21.5 10 21.5C10.2761 21.5 10.5 21.2761 10.5 21V18C10.5 17.7239 10.7239 17.5 11 17.5H21C21.2761 17.5 21.5 17.7239 21.5 18V21C21.5 21.2761 21.7239 21.5 22 21.5C22.2761 21.5 22.5 21.2761 22.5 21V16C22.5 15.3078 22.7053 14.6311 23.0899 14.0555C23.4744 13.4799 24.0211 13.0313 24.6606 12.7664C25.3002 12.5015 26.0039 12.4322 26.6828 12.5673C27.3618 12.7023 27.9854 13.0356 28.4749 13.5251C28.9644 14.0146 29.2977 14.6383 29.4328 15.3172C29.5678 15.9961 29.4985 16.6999 29.2336 17.3394C28.9687 17.9789 28.5201 18.5256 27.9445 18.9101C27.3689 19.2947 26.6922 19.5 26 19.5C25.7239 19.5 25.5 19.7239 25.5 20V25C25.5 25.2761 25.2761 25.5 25 25.5H7C6.72386 25.5 6.5 25.2761 6.5 25V20C6.5 19.7239 6.27614 19.5 6 19.5C5.30777 19.5 4.63108 19.2947 4.05551 18.9101C3.47993 18.5256 3.03133 17.9789 2.76642 17.3394C2.50152 16.6999 2.43221 15.9961 2.56725 15.3172C2.7023 14.6383 3.03565 14.0146 3.52513 13.5251C4.01461 13.0356 4.63825 12.7023 5.31719 12.5673Z" fill="white"/>
</svg>
