<svg width="32" height="32" viewBox="0 0 32 32" fill="none" xmlns="http://www.w3.org/2000/svg">
<path fill-rule="evenodd" clip-rule="evenodd" d="M4 16C4 15.4477 4.44772 15 5 15H27C27.5523 15 28 15.4477 28 16C28 16.5523 27.5523 17 27 17H5C4.44772 17 4 16.5523 4 16Z" fill="white"/>
<path fill-rule="evenodd" clip-rule="evenodd" d="M16 1C16.5523 1 17 1.44772 17 2V12C17 12.5523 16.5523 13 16 13C15.4477 13 15 12.5523 15 12V2C15 1.44772 15.4477 1 16 1Z" fill="white"/>
<path fill-rule="evenodd" clip-rule="evenodd" d="M11.2929 7.29289C11.6834 6.90237 12.3166 6.90237 12.7071 7.29289L16 10.5858L19.2929 7.29289C19.6834 6.90237 20.3166 6.90237 20.7071 7.29289C21.0976 7.68342 21.0976 8.31658 20.7071 8.70711L16.7071 12.7071C16.3166 13.0976 15.6834 13.0976 15.2929 12.7071L11.2929 8.70711C10.9024 8.31658 10.9024 7.68342 11.2929 7.29289Z" fill="white"/>
<path fill-rule="evenodd" clip-rule="evenodd" d="M16 19C16.5523 19 17 19.4477 17 20V30C17 30.5523 16.5523 31 16 31C15.4477 31 15 30.5523 15 30V20C15 19.4477 15.4477 19 16 19Z" fill="white"/>
<path fill-rule="evenodd" clip-rule="evenodd" d="M15.2929 19.2929C15.6834 18.9024 16.3166 18.9024 16.7071 19.2929L20.7071 23.2929C21.0976 23.6834 21.0976 24.3166 20.7071 24.7071C20.3166 25.0976 19.6834 25.0976 19.2929 24.7071L16 21.4142L12.7071 24.7071C12.3166 25.0976 11.6834 25.0976 11.2929 24.7071C10.9024 24.3166 10.9024 23.6834 11.2929 23.2929L15.2929 19.2929Z" fill="white"/>
<path fill-rule="evenodd" clip-rule="evenodd" d="M14.5 2C14.5 1.17157 15.1716 0.5 16 0.5C16.8284 0.5 17.5 1.17157 17.5 2V8.37868L18.9393 6.93934C19.5251 6.35355 20.4749 6.35355 21.0607 6.93934C21.6464 7.52513 21.6464 8.47487 21.0607 9.06066L17.0607 13.0607C17.0574 13.0639 17.0541 13.0672 17.0508 13.0704C16.9093 13.2094 16.7471 13.3146 16.5742 13.3862C16.3973 13.4595 16.2034 13.5 16 13.5C15.7966 13.5 15.6027 13.4595 15.4258 13.3862C15.2489 13.313 15.0832 13.2045 14.9393 13.0607L10.9393 9.06066C10.3536 8.47487 10.3536 7.52513 10.9393 6.93934C11.5251 6.35355 12.4749 6.35355 13.0607 6.93934L14.5 8.37868V2ZM14.5 9.79289L12.3536 7.64645C12.1583 7.45118 11.8417 7.45118 11.6464 7.64645C11.4512 7.84171 11.4512 8.15829 11.6464 8.35355L14.5 11.2071V9.79289ZM15.6458 12.3529C15.5557 12.2624 15.5 12.1377 15.5 12V10.7929L15.6464 10.9393C15.8417 11.1346 16.1583 11.1346 16.3536 10.9393L16.5 10.7929V12C16.5 12.1377 16.4443 12.2624 16.3542 12.3529C16.3535 12.3536 16.3521 12.355 16.3514 12.3557M17.5 11.2071L20.3536 8.35355C20.5488 8.15829 20.5488 7.84171 20.3536 7.64645C20.1583 7.45118 19.8417 7.45118 19.6464 7.64645L17.5 9.79289V11.2071ZM16.5 9.37868V2C16.5 1.72386 16.2761 1.5 16 1.5C15.7239 1.5 15.5 1.72386 15.5 2V9.37868L16 9.87868L16.5 9.37868ZM3.5 16C3.5 15.1716 4.17157 14.5 5 14.5H27C27.8284 14.5 28.5 15.1716 28.5 16C28.5 16.8284 27.8284 17.5 27 17.5H5C4.17157 17.5 3.5 16.8284 3.5 16ZM5 15.5C4.72386 15.5 4.5 15.7239 4.5 16C4.5 16.2761 4.72386 16.5 5 16.5H27C27.2761 16.5 27.5 16.2761 27.5 16C27.5 15.7239 27.2761 15.5 27 15.5H5ZM16.5726 18.6132C16.7501 18.6864 16.9164 18.7951 17.0607 18.9393L21.0607 22.9393C21.6464 23.5251 21.6464 24.4749 21.0607 25.0607C20.4749 25.6464 19.5251 25.6464 18.9393 25.0607L17.5 23.6213V30C17.5 30.8284 16.8284 31.5 16 31.5C15.1716 31.5 14.5 30.8284 14.5 30V23.6213L13.0607 25.0607C12.4749 25.6464 11.5251 25.6464 10.9393 25.0607C10.3536 24.4749 10.3536 23.5251 10.9393 22.9393L14.9393 18.9393C15.2287 18.65 15.6069 18.5035 15.9862 18.5001C15.9908 18.5 15.9954 18.5 16 18.5C16.0046 18.5 16.0092 18.5 16.0138 18.5001C16.2116 18.5019 16.4002 18.5419 16.5726 18.6132ZM14.5 20.7929L11.6464 23.6464C11.4512 23.8417 11.4512 24.1583 11.6464 24.3536C11.8417 24.5488 12.1583 24.5488 12.3536 24.3536L14.5 22.2071V20.7929ZM15.5 22.6213V30C15.5 30.2761 15.7239 30.5 16 30.5C16.2761 30.5 16.5 30.2761 16.5 30V22.6213L16 22.1213L15.5 22.6213ZM16.5 21.2071L16.3536 21.0607C16.2598 20.9669 16.1326 20.9142 16 20.9142C15.8674 20.9142 15.7402 20.9669 15.6464 21.0607L15.5 21.2071V20C15.5 19.8619 15.556 19.737 15.6464 19.6465C15.6464 19.6465 15.6464 19.6465 15.6464 19.6465C15.6925 19.6004 15.7475 19.5633 15.8086 19.5379C15.8669 19.5138 15.9287 19.5012 15.9908 19.5001M17.5 22.2071L19.6464 24.3536C19.8417 24.5488 20.1583 24.5488 20.3536 24.3536C20.5488 24.1583 20.5488 23.8417 20.3536 23.6464L17.5 20.7929V22.2071ZM16.5 21.2071V20C16.5 19.8619 16.444 19.7369 16.3536 19.6464C16.3056 19.5985 16.2504 19.5623 16.1914 19.5379C16.1378 19.5158 16.0811 19.5033 16.024 19.5006C16.016 19.5002 16.008 19.5 16 19.5" fill="white"/>
</svg>
