<svg width="32" height="32" viewBox="0 0 32 32" fill="none" xmlns="http://www.w3.org/2000/svg">
<path fill-rule="evenodd" clip-rule="evenodd" d="M21.2929 6.29289C21.6834 5.90237 22.3166 5.90237 22.7071 6.29289L28.7071 12.2929C29.0976 12.6834 29.0976 13.3166 28.7071 13.7071L22.7071 19.7071C22.3166 20.0976 21.6834 20.0976 21.2929 19.7071C20.9024 19.3166 20.9024 18.6834 21.2929 18.2929L26.5858 13L21.2929 7.70711C20.9024 7.31658 20.9024 6.68342 21.2929 6.29289Z" fill="white"/>
<path fill-rule="evenodd" clip-rule="evenodd" d="M16 14C13.0826 14 10.2847 15.1589 8.22182 17.2218C6.15892 19.2847 5 22.0826 5 25C5 25.5523 4.55228 26 4 26C3.44772 26 3 25.5523 3 25C3 21.5522 4.36964 18.2456 6.80761 15.8076C9.24558 13.3696 12.5522 12 16 12H28C28.5523 12 29 12.4477 29 13C29 13.5523 28.5523 14 28 14H16Z" fill="white"/>
<path fill-rule="evenodd" clip-rule="evenodd" d="M20.9393 5.93934C21.5251 5.35355 22.4749 5.35355 23.0607 5.93934L29.0607 11.9393C29.2049 12.0836 29.3136 12.2499 29.3868 12.4274C29.4581 12.5998 29.4981 12.7884 29.4999 12.9862C29.5 12.9908 29.5 12.9954 29.5 13C29.5 13.0046 29.5 13.0092 29.4999 13.0138C29.4981 13.2116 29.4581 13.4002 29.3868 13.5726C29.3136 13.7501 29.2049 13.9164 29.0607 14.0607L23.0607 20.0607C22.4749 20.6464 21.5251 20.6464 20.9393 20.0607C20.3536 19.4749 20.3536 18.5251 20.9393 17.9393L24.3787 14.5H16C13.2152 14.5 10.5445 15.6062 8.57538 17.5754C6.60625 19.5445 5.5 22.2152 5.5 25C5.5 25.8284 4.82843 26.5 4 26.5C3.17157 26.5 2.5 25.8284 2.5 25C2.5 21.4196 3.92232 17.9858 6.45406 15.4541C8.9858 12.9223 12.4196 11.5 16 11.5H24.3787L20.9393 8.06066C20.3536 7.47487 20.3536 6.52513 20.9393 5.93934ZM25.3787 12.5H16C12.6848 12.5 9.50537 13.817 7.16116 16.1612C4.81696 18.5054 3.5 21.6848 3.5 25C3.5 25.2761 3.72386 25.5 4 25.5C4.27614 25.5 4.5 25.2761 4.5 25C4.5 21.95 5.7116 19.0249 7.86827 16.8683C10.0249 14.7116 12.95 13.5 16 13.5H25.3787L25.8787 13L25.3787 12.5ZM26.7929 13.5L26.9393 13.3536C27.0331 13.2598 27.0858 13.1326 27.0858 13C27.0858 12.8674 27.0331 12.7402 26.9393 12.6464L26.7929 12.5H28C28.1381 12.5 28.2631 12.556 28.3536 12.6464C28.442 12.7349 28.4975 12.8564 28.4999 12.9908C28.5 12.9938 28.5 12.9969 28.5 13C28.5 13.008 28.4998 13.016 28.4994 13.024C28.4967 13.0811 28.4842 13.1378 28.4621 13.1914C28.4377 13.2504 28.4015 13.3056 28.3536 13.3536C28.2631 13.444 28.1381 13.5 28 13.5H26.7929ZM25.7929 14.5L21.6464 18.6464C21.4512 18.8417 21.4512 19.1583 21.6464 19.3536C21.8417 19.5488 22.1583 19.5488 22.3536 19.3536L27.2071 14.5H25.7929ZM27.2071 11.5H25.7929L21.6464 7.35355C21.4512 7.15829 21.4512 6.84171 21.6464 6.64645C21.8417 6.45118 22.1583 6.45118 22.3536 6.64645L27.2071 11.5Z" fill="white"/>
</svg>
