<svg width="32" height="32" viewBox="0 0 32 32" fill="none" xmlns="http://www.w3.org/2000/svg">
<path fill-rule="evenodd" clip-rule="evenodd" d="M19.2929 15.2929C19.6834 14.9024 20.3166 14.9024 20.7071 15.2929L26.7071 21.2929C27.0976 21.6834 27.0976 22.3166 26.7071 22.7071L20.7071 28.7071C20.3166 29.0976 19.6834 29.0976 19.2929 28.7071C18.9024 28.3166 18.9024 27.6834 19.2929 27.2929L24.5858 22L19.2929 16.7071C18.9024 16.3166 18.9024 15.6834 19.2929 15.2929Z" fill="white"/>
<path fill-rule="evenodd" clip-rule="evenodd" d="M8 3C8.55228 3 9 3.44772 9 4V21H26C26.5523 21 27 21.4477 27 22C27 22.5523 26.5523 23 26 23H8C7.44772 23 7 22.5523 7 22V4C7 3.44772 7.44772 3 8 3Z" fill="white"/>
<path fill-rule="evenodd" clip-rule="evenodd" d="M6.5 4C6.5 3.17157 7.17157 2.5 8 2.5C8.82843 2.5 9.5 3.17157 9.5 4V20.5H22.3787L18.9393 17.0607C18.3536 16.4749 18.3536 15.5251 18.9393 14.9393C19.5251 14.3536 20.4749 14.3536 21.0607 14.9393L27.0607 20.9393C27.205 21.0837 27.3138 21.2502 27.387 21.4278C27.4582 21.6001 27.4981 21.7886 27.4999 21.9862C27.5 21.9908 27.5 21.9954 27.5 22C27.5 22.0046 27.5 22.0092 27.4999 22.0138C27.4981 22.2114 27.4582 22.3999 27.387 22.5722C27.3138 22.7498 27.205 22.9163 27.0607 23.0607L21.0607 29.0607C20.4749 29.6464 19.5251 29.6464 18.9393 29.0607C18.3536 28.4749 18.3536 27.5251 18.9393 26.9393L22.3787 23.5H8C7.17157 23.5 6.5 22.8284 6.5 22V4ZM23.7929 23.5L19.6464 27.6464C19.4512 27.8417 19.4512 28.1583 19.6464 28.3536C19.8417 28.5488 20.1583 28.5488 20.3536 28.3536L25.2071 23.5H23.7929ZM26.4621 22.1914C26.3869 22.3726 26.2083 22.5 26 22.5H24.7929L24.9393 22.3536C25.0331 22.2598 25.0858 22.1326 25.0858 22C25.0858 21.8674 25.0331 21.7402 24.9393 21.6464L24.7929 21.5H26C26.2083 21.5 26.3869 21.6274 26.4621 21.8086C26.4862 21.8669 26.4988 21.9287 26.4999 21.9908M25.2071 20.5L20.3536 15.6464C20.1583 15.4512 19.8417 15.4512 19.6464 15.6464C19.4512 15.8417 19.4512 16.1583 19.6464 16.3536L23.7929 20.5H25.2071ZM23.3787 21.5L23.8787 22L23.3787 22.5H8C7.72386 22.5 7.5 22.2761 7.5 22V4C7.5 3.72386 7.72386 3.5 8 3.5C8.27614 3.5 8.5 3.72386 8.5 4V21C8.5 21.2761 8.72386 21.5 9 21.5H23.3787ZM26.4621 22.1914C26.4842 22.1378 26.4967 22.0811 26.4994 22.024C26.4998 22.016 26.5 22.008 26.5 22" fill="white"/>
</svg>
