<svg width="32" height="32" viewBox="0 0 32 32" fill="none" xmlns="http://www.w3.org/2000/svg">
<path d="M8.93934 4.93934C9.52513 4.35355 10.4749 4.35355 11.0607 4.93934C11.6464 5.52513 11.6464 6.47487 11.0607 7.06066L9.62132 8.5H26C26.8284 8.5 27.5 9.17157 27.5 10C27.5 10.8284 26.8284 11.5 26 11.5H9.62132L11.0607 12.9393C11.6464 13.5251 11.6464 14.4749 11.0607 15.0607C10.4749 15.6464 9.52513 15.6464 8.93934 15.0607L4.93999 11.0613L4.93616 11.0575C4.66756 10.7873 4.50121 10.4063 4.50001 9.9955C4.50121 9.58469 4.66756 9.21273 4.93616 8.94253L4.93999 8.93869L8.93934 4.93934Z" fill="white"/>
<path d="M20.9393 16.9393C21.5251 16.3536 22.4749 16.3536 23.0607 16.9393L27.0607 20.9393C27.205 21.0836 27.3137 21.25 27.3869 21.4276C27.4581 21.6 27.4981 21.7885 27.4999 21.9862L27.5 22L27.4999 22.0138C27.4981 22.2122 27.4579 22.4013 27.3862 22.5742C27.313 22.7511 27.2045 22.9168 27.0607 23.0607L23.0607 27.0607C22.4749 27.6464 21.5251 27.6464 20.9393 27.0607C20.3536 26.4749 20.3536 25.5251 20.9393 24.9393L22.3787 23.5H6C5.17157 23.5 4.5 22.8284 4.5 22C4.5 21.1716 5.17157 20.5 6 20.5H22.3787L20.9393 19.0607C20.3536 18.4749 20.3536 17.5251 20.9393 16.9393Z" fill="white"/>
</svg>
