<svg width="32" height="32" viewBox="0 0 32 32" fill="none" xmlns="http://www.w3.org/2000/svg">
<path fill-rule="evenodd" clip-rule="evenodd" d="M10.2929 3.29289C10.6834 2.90237 11.3166 2.90237 11.7071 3.29289L17.7071 9.29289C18.0976 9.68342 18.0976 10.3166 17.7071 10.7071C17.3166 11.0976 16.6834 11.0976 16.2929 10.7071L11 5.41421L5.70711 10.7071C5.31658 11.0976 4.68342 11.0976 4.29289 10.7071C3.90237 10.3166 3.90237 9.68342 4.29289 9.29289L10.2929 3.29289Z" fill="white"/>
<path fill-rule="evenodd" clip-rule="evenodd" d="M11 3C11.5523 3 12 3.44772 12 4V21C12 22.5913 12.6321 24.1174 13.7574 25.2426C14.8826 26.3679 16.4087 27 18 27C19.5913 27 21.1174 26.3679 22.2426 25.2426C23.3679 24.1174 24 22.5913 24 21V10C24 9.44772 24.4477 9 25 9C25.5523 9 26 9.44772 26 10V21C26 23.1217 25.1571 25.1566 23.6569 26.6569C22.1566 28.1571 20.1217 29 18 29C15.8783 29 13.8434 28.1571 12.3431 26.6569C10.8429 25.1566 10 23.1217 10 21V4C10 3.44772 10.4477 3 11 3Z" fill="white"/>
<path fill-rule="evenodd" clip-rule="evenodd" d="M10.4258 2.61382C10.6027 2.54048 10.7966 2.5 11 2.5C11.2034 2.5 11.3973 2.54048 11.5742 2.61382C11.7498 2.68648 11.9144 2.79393 12.0575 2.93616C12.0585 2.93722 12.0596 2.93828 12.0607 2.93934L18.0607 8.93934C18.6464 9.52513 18.6464 10.4749 18.0607 11.0607C17.4749 11.6464 16.5251 11.6464 15.9393 11.0607L12.5 7.62132V21C12.5 22.4587 13.0795 23.8576 14.1109 24.8891C15.1424 25.9205 16.5413 26.5 18 26.5C19.4587 26.5 20.8576 25.9205 21.8891 24.8891C22.9205 23.8576 23.5 22.4587 23.5 21V10C23.5 9.17157 24.1716 8.5 25 8.5C25.8284 8.5 26.5 9.17157 26.5 10V21C26.5 23.2543 25.6045 25.4163 24.0104 27.0104C22.4163 28.6045 20.2543 29.5 18 29.5C15.7457 29.5 13.5837 28.6045 11.9896 27.0104C10.3955 25.4163 9.5 23.2543 9.5 21V7.62132L6.06066 11.0607C5.47487 11.6464 4.52513 11.6464 3.93934 11.0607C3.35355 10.4749 3.35355 9.52513 3.93934 8.93934L9.93869 2.93999C9.93848 2.9402 9.93891 2.93977 9.93869 2.93999C9.93975 2.93893 9.94146 2.93722 9.94253 2.93616C10.0856 2.79393 10.2502 2.68648 10.4258 2.61382ZM9.5 4.79289L4.64645 9.64645C4.45118 9.84171 4.45118 10.1583 4.64645 10.3536C4.84171 10.5488 5.15829 10.5488 5.35355 10.3536L9.5 6.20711V4.79289ZM10.5 6.62132V21C10.5 22.9891 11.2902 24.8968 12.6967 26.3033C14.1032 27.7098 16.0109 28.5 18 28.5C19.9891 28.5 21.8968 27.7098 23.3033 26.3033C24.7098 24.8968 25.5 22.9891 25.5 21V10C25.5 9.72386 25.2761 9.5 25 9.5C24.7239 9.5 24.5 9.72386 24.5 10V21C24.5 22.7239 23.8152 24.3772 22.5962 25.5962C21.3772 26.8152 19.7239 27.5 18 27.5C16.2761 27.5 14.6228 26.8152 13.4038 25.5962C12.1848 24.3772 11.5 22.7239 11.5 21V6.62132L11 6.12132L10.5 6.62132ZM11.5 5.20711L11.3536 5.06066C11.1583 4.8654 10.8417 4.8654 10.6464 5.06066L10.5 5.20711V4C10.5 3.86208 10.5558 3.7372 10.6461 3.64674C10.646 3.64684 10.6462 3.64665 10.6461 3.64674C10.6469 3.64604 10.6479 3.64503 10.6486 3.64433C10.7459 3.54811 10.873 3.5 11 3.5C11.127 3.5 11.2541 3.54811 11.3514 3.64433C11.3521 3.64503 11.3528 3.64574 11.3536 3.64645C11.3535 3.64635 11.3537 3.64655 11.3536 3.64645C11.4439 3.7369 11.5 3.86208 11.5 4V5.20711ZM12.5 6.20711L16.6464 10.3536C16.8417 10.5488 17.1583 10.5488 17.3536 10.3536C17.5488 10.1583 17.5488 9.84171 17.3536 9.64645L12.5 4.79289V6.20711Z" fill="white"/>
</svg>
