<svg width="100%" height="100%" viewBox="0 0 16 16" fill="gray" xmlns="http://www.w3.org/2000/svg">
<path d="M12.2871 2.80691C12.1987 2.77024 12.1017 2.75 12 2.75H5.75C5.33579 2.75 5 3.08579 5 3.5C5 3.91421 5.33579 4.25 5.75 4.25H10.1893L4.46967 9.96967C4.17678 10.2626 4.17678 10.7374 4.46967 11.0303C4.76256 11.3232 5.23744 11.3232 5.53033 11.0303L11.25 5.31066V9.75C11.25 10.1642 11.5858 10.5 12 10.5C12.4142 10.5 12.75 10.1642 12.75 9.75V3.50021C12.7494 3.30902 12.6762 3.11554 12.5303 2.96967C12.4584 2.89776 12.3755 2.84351 12.2871 2.80691Z" />
<path d="M14.25 13.5C14.25 13.0858 13.9142 12.75 13.5 12.75H2.5C2.08579 12.75 1.75 13.0858 1.75 13.5C1.75 13.9142 2.08579 14.25 2.5 14.25H13.5C13.9142 14.25 14.25 13.9142 14.25 13.5Z" />
</svg>