<svg width="32" height="33" viewBox="0 0 32 33" fill="none" xmlns="http://www.w3.org/2000/svg">
<path fill-rule="evenodd" clip-rule="evenodd" d="M14.7071 17.7929C15.0976 18.1834 15.0976 18.8166 14.7071 19.2071L5.70711 28.2071C5.31658 28.5976 4.68342 28.5976 4.29289 28.2071C3.90237 27.8166 3.90237 27.1834 4.29289 26.7929L13.2929 17.7929C13.6834 17.4024 14.3166 17.4024 14.7071 17.7929Z" fill="white"/>
<path fill-rule="evenodd" clip-rule="evenodd" d="M7.58579 5.08579C7.96086 4.71071 8.46957 4.5 9 4.5H26C26.5304 4.5 27.0391 4.71071 27.4142 5.08579C27.7893 5.46086 28 5.96957 28 6.5V23.5C28 24.0304 27.7893 24.5391 27.4142 24.9142C27.0391 25.2893 26.5304 25.5 26 25.5H20C19.4477 25.5 19 25.0523 19 24.5C19 23.9477 19.4477 23.5 20 23.5H26V6.5H9V12.5C9 13.0523 8.55228 13.5 8 13.5C7.44772 13.5 7 13.0523 7 12.5V6.5C7 5.96957 7.21071 5.46086 7.58579 5.08579Z" fill="white"/>
<path fill-rule="evenodd" clip-rule="evenodd" d="M5.5 18.5C5.5 17.9477 5.94772 17.5 6.5 17.5H14C14.5523 17.5 15 17.9477 15 18.5V26C15 26.5523 14.5523 27 14 27C13.4477 27 13 26.5523 13 26V19.5H6.5C5.94772 19.5 5.5 19.0523 5.5 18.5Z" fill="white"/>
<path fill-rule="evenodd" clip-rule="evenodd" d="M7.23223 4.73223C7.70107 4.26339 8.33696 4 9 4H26C26.663 4 27.2989 4.26339 27.7678 4.73223C28.2366 5.20107 28.5 5.83696 28.5 6.5V23.5C28.5 24.163 28.2366 24.7989 27.7678 25.2678C27.2989 25.7366 26.663 26 26 26H20C19.1716 26 18.5 25.3284 18.5 24.5C18.5 23.6716 19.1716 23 20 23H25.5V7H9.5V12.5C9.5 13.3284 8.82843 14 8 14C7.17157 14 6.5 13.3284 6.5 12.5V6.5C6.5 5.83696 6.76339 5.20107 7.23223 4.73223ZM9 5C8.60218 5 8.22064 5.15804 7.93934 5.43934C7.65804 5.72064 7.5 6.10217 7.5 6.5V12.5C7.5 12.7761 7.72386 13 8 13C8.27614 13 8.5 12.7761 8.5 12.5V6.5C8.5 6.22386 8.72386 6 9 6H26C26.2761 6 26.5 6.22386 26.5 6.5V23.5C26.5 23.7761 26.2761 24 26 24H20C19.7239 24 19.5 24.2239 19.5 24.5C19.5 24.7761 19.7239 25 20 25H26C26.3978 25 26.7794 24.842 27.0607 24.5607C27.342 24.2794 27.5 23.8978 27.5 23.5V6.5C27.5 6.10218 27.342 5.72065 27.0607 5.43934C26.7794 5.15804 26.3978 5 26 5H9ZM5 18.5C5 17.6716 5.67157 17 6.5 17H14C14.2034 17 14.3973 17.0405 14.5742 17.1138C14.7471 17.1854 14.9093 17.2906 15.0508 17.4296C15.0574 17.4361 15.0639 17.4426 15.0704 17.4492C15.2094 17.5907 15.3146 17.7529 15.3862 17.9258C15.459 18.1014 15.4994 18.2938 15.5 18.4955C15.5 18.497 15.5 18.4985 15.5 18.5V26C15.5 26.8284 14.8284 27.5 14 27.5C13.1716 27.5 12.5 26.8284 12.5 26V22.1213L6.06066 28.5607C5.47487 29.1464 4.52513 29.1464 3.93934 28.5607C3.35355 27.9749 3.35355 27.0251 3.93934 26.4393L10.3787 20H6.5C5.67157 20 5 19.3284 5 18.5ZM11.7929 20L4.64645 27.1464C4.45118 27.3417 4.45118 27.6583 4.64645 27.8536C4.84171 28.0488 5.15829 28.0488 5.35355 27.8536L12.5 20.7071V20H11.7929ZM13.5 19.7071V19.5C13.5 19.2239 13.2761 19 13 19H12.7929L13.6464 18.1464C13.744 18.0489 13.8717 18.0001 13.9995 18C13.9993 18 13.9997 18 13.9995 18C14.1265 18 14.2541 18.0481 14.3514 18.1443C14.3521 18.145 14.3528 18.1457 14.3536 18.1464C14.3543 18.1472 14.355 18.1479 14.3557 18.1486C14.4443 18.2382 14.4992 18.3612 14.5 18.497C14.5 18.498 14.5 18.499 14.5 18.5C14.5 18.4998 14.5 18.5002 14.5 18.5C14.4999 18.6278 14.4511 18.756 14.3536 18.8536L13.5 19.7071ZM13.5 21.1213V26C13.5 26.2761 13.7239 26.5 14 26.5C14.2761 26.5 14.5 26.2761 14.5 26V20.1213L13.5 21.1213ZM12.3787 18L11.3787 19H6.5C6.22386 19 6 18.7761 6 18.5C6 18.2239 6.22386 18 6.5 18H12.3787Z" fill="white"/>
</svg>
