<svg width="32" height="32" viewBox="0 0 32 32" fill="none" xmlns="http://www.w3.org/2000/svg">
<path fill-rule="evenodd" clip-rule="evenodd" d="M6.29289 21.2929C6.68342 20.9024 7.31658 20.9024 7.70711 21.2929L13 26.5858L18.2929 21.2929C18.6834 20.9024 19.3166 20.9024 19.7071 21.2929C20.0976 21.6834 20.0976 22.3166 19.7071 22.7071L13.7071 28.7071C13.3166 29.0976 12.6834 29.0976 12.2929 28.7071L6.29289 22.7071C5.90237 22.3166 5.90237 21.6834 6.29289 21.2929Z" fill="white"/>
<path fill-rule="evenodd" clip-rule="evenodd" d="M15.8076 6.80761C18.2456 4.36964 21.5522 3 25 3C25.5523 3 26 3.44772 26 4C26 4.55228 25.5523 5 25 5C22.0826 5 19.2847 6.15892 17.2218 8.22182C15.1589 10.2847 14 13.0826 14 16V28C14 28.5523 13.5523 29 13 29C12.4477 29 12 28.5523 12 28V16C12 12.5522 13.3696 9.24558 15.8076 6.80761Z" fill="white"/>
<path fill-rule="evenodd" clip-rule="evenodd" d="M15.4541 6.45406C17.9858 3.92232 21.4196 2.5 25 2.5C25.8284 2.5 26.5 3.17157 26.5 4C26.5 4.82843 25.8284 5.5 25 5.5C22.2152 5.5 19.5445 6.60625 17.5754 8.57538C15.6062 10.5445 14.5 13.2152 14.5 16V24.3787L17.9393 20.9393C18.5251 20.3536 19.4749 20.3536 20.0607 20.9393C20.6464 21.5251 20.6464 22.4749 20.0607 23.0607L14.0607 29.0607C13.9164 29.2049 13.7501 29.3136 13.5726 29.3868C13.4002 29.4581 13.2116 29.4981 13.0138 29.4999C13.0092 29.5 13.0046 29.5 13 29.5C12.9954 29.5 12.9908 29.5 12.9862 29.4999C12.6069 29.4965 12.2287 29.35 11.9393 29.0607L5.93934 23.0607C5.35355 22.4749 5.35355 21.5251 5.93934 20.9393C6.52513 20.3536 7.47487 20.3536 8.06066 20.9393L11.5 24.3787V16C11.5 12.4196 12.9223 8.9858 15.4541 6.45406ZM11.5 25.7929L7.35355 21.6464C7.15829 21.4512 6.84171 21.4512 6.64645 21.6464C6.45118 21.8417 6.45118 22.1583 6.64645 22.3536L11.5 27.2071V25.7929ZM12.5 26.7929L12.6464 26.9393C12.7402 27.0331 12.8674 27.0858 13 27.0858C13.1326 27.0858 13.2598 27.0331 13.3536 26.9393L13.5 26.7929V28C13.5 28.1381 13.444 28.2631 13.3536 28.3536C13.2651 28.442 13.1436 28.4975 13.0092 28.4999C13.0062 28.5 13.0031 28.5 13 28.5C12.9914 28.5 12.9828 28.4998 12.9743 28.4993C12.9158 28.4964 12.8601 28.4834 12.8086 28.4621C12.7475 28.4367 12.6925 28.3996 12.6464 28.3536C12.556 28.2631 12.5 28.1381 12.5 28V26.7929ZM14.5 27.2071L19.3536 22.3536C19.5488 22.1583 19.5488 21.8417 19.3536 21.6464C19.1583 21.4512 18.8417 21.4512 18.6464 21.6464L14.5 25.7929V27.2071ZM13.5 25.3787V16C13.5 12.95 14.7116 10.0249 16.8683 7.86827C19.0249 5.7116 21.95 4.5 25 4.5C25.2761 4.5 25.5 4.27614 25.5 4C25.5 3.72386 25.2761 3.5 25 3.5C21.6848 3.5 18.5054 4.81696 16.1612 7.16116C13.817 9.50537 12.5 12.6848 12.5 16V25.3787L13 25.8787L13.5 25.3787Z" fill="white"/>
</svg>
