<svg width="32" height="32" viewBox="0 0 32 32" fill="none" xmlns="http://www.w3.org/2000/svg">
<path fill-rule="evenodd" clip-rule="evenodd" d="M20.2929 3.29289C20.6834 2.90237 21.3166 2.90237 21.7071 3.29289L27.7071 9.29289C28.0976 9.68342 28.0976 10.3166 27.7071 10.7071C27.3166 11.0976 26.6834 11.0976 26.2929 10.7071L21 5.41421L15.7071 10.7071C15.3166 11.0976 14.6834 11.0976 14.2929 10.7071C13.9024 10.3166 13.9024 9.68342 14.2929 9.29289L20.2929 3.29289Z" fill="white"/>
<path fill-rule="evenodd" clip-rule="evenodd" d="M21 3C21.5523 3 22 3.44772 22 4V21C22 23.1217 21.1571 25.1566 19.6569 26.6569C18.1566 28.1571 16.1217 29 14 29C11.8783 29 9.84344 28.1571 8.34315 26.6569C6.84286 25.1566 6 23.1217 6 21V10C6 9.44772 6.44772 9 7 9C7.55228 9 8 9.44772 8 10V21C8 22.5913 8.63214 24.1174 9.75736 25.2426C10.8826 26.3679 12.4087 27 14 27C15.5913 27 17.1174 26.3679 18.2426 25.2426C19.3679 24.1174 20 22.5913 20 21V4C20 3.44772 20.4477 3 21 3Z" fill="white"/>
<path fill-rule="evenodd" clip-rule="evenodd" d="M20.4258 2.61382C20.6027 2.54048 20.7966 2.5 21 2.5C21.2034 2.5 21.3973 2.54048 21.5742 2.61382C21.7471 2.68535 21.9093 2.79061 22.0508 2.92959C22.0544 2.93313 22.058 2.93669 22.0616 2.94026L28.0607 8.93934C28.6464 9.52513 28.6464 10.4749 28.0607 11.0607C27.4749 11.6464 26.5251 11.6464 25.9393 11.0607L22.5 7.62132V21C22.5 23.2543 21.6045 25.4163 20.0104 27.0104C18.4163 28.6045 16.2543 29.5 14 29.5C11.7457 29.5 9.58365 28.6045 7.98959 27.0104C6.39553 25.4163 5.5 23.2543 5.5 21V10C5.5 9.17157 6.17157 8.5 7 8.5C7.82843 8.5 8.5 9.17157 8.5 10V21C8.5 22.4587 9.07946 23.8576 10.1109 24.8891C11.1424 25.9205 12.5413 26.5 14 26.5C15.4587 26.5 16.8576 25.9205 17.8891 24.8891C18.9205 23.8576 19.5 22.4587 19.5 21V7.62132L16.0607 11.0607C15.4749 11.6464 14.5251 11.6464 13.9393 11.0607C13.3536 10.4749 13.3536 9.52513 13.9393 8.93934L19.9393 2.93934C20.0832 2.79553 20.2489 2.68702 20.4258 2.61382ZM19.5 4.79289L14.6464 9.64645C14.4512 9.84171 14.4512 10.1583 14.6464 10.3536C14.8417 10.5488 15.1583 10.5488 15.3536 10.3536L19.5 6.20711V4.79289ZM20.5 6.62132V21C20.5 22.7239 19.8152 24.3772 18.5962 25.5962C17.3772 26.8152 15.7239 27.5 14 27.5C12.2761 27.5 10.6228 26.8152 9.40381 25.5962C8.18482 24.3772 7.5 22.7239 7.5 21V10C7.5 9.72386 7.27614 9.5 7 9.5C6.72386 9.5 6.5 9.72386 6.5 10V21C6.5 22.9891 7.29018 24.8968 8.6967 26.3033C10.1032 27.7098 12.0109 28.5 14 28.5C15.9891 28.5 17.8968 27.7098 19.3033 26.3033C20.7098 24.8968 21.5 22.9891 21.5 21V6.62132L21 6.12132L20.5 6.62132ZM21.5 5.20711L21.3536 5.06066C21.2598 4.96689 21.1326 4.91421 21 4.91421C20.8674 4.91421 20.7402 4.96689 20.6464 5.06066L20.5 5.20711V4C20.5 3.86222 20.5557 3.73746 20.6459 3.64703M22.5 6.20711L26.6464 10.3536C26.8417 10.5488 27.1583 10.5488 27.3536 10.3536C27.5488 10.1583 27.5488 9.84171 27.3536 9.64645L22.5 4.79289V6.20711ZM21.3541 3.64703C21.4443 3.73746 21.5 3.86222 21.5 4V5.20711M21.3541 3.64703C21.3534 3.64632 21.3521 3.64503 21.3514 3.64433C21.2541 3.54811 21.127 3.5 21 3.5C20.873 3.5 20.7459 3.54811 20.6486 3.64433" fill="white"/>
</svg>
