<svg width="32" height="32" viewBox="0 0 32 32" fill="none" xmlns="http://www.w3.org/2000/svg">
<path d="M4 17.5C3.17157 17.5 2.5 16.8284 2.5 16C2.5 15.1716 3.17157 14.5 4 14.5H19.3787L12.9393 8.06066C12.3536 7.47487 12.3536 6.52513 12.9393 5.93934C13.5251 5.35355 14.4749 5.35355 15.0607 5.93934L24.0607 14.9393C24.2049 15.0836 24.3137 15.2499 24.3869 15.4275C24.4581 15.5999 24.4981 15.8161 24.4999 16.0138C24.4965 16.3931 24.35 16.7713 24.0607 17.0607L15.0607 26.0607C14.4749 26.6464 13.5251 26.6464 12.9393 26.0607C12.3536 25.4749 12.3536 24.5251 12.9393 23.9393L19.3787 17.5H4Z" fill="white"/>
<path d="M27 28.5C26.1716 28.5 25.5 27.8284 25.5 27V5C25.5 4.17157 26.1716 3.5 27 3.5C27.8284 3.5 28.5 4.17157 28.5 5V27C28.5 27.8284 27.8284 28.5 27 28.5Z" fill="white"/>
</svg>
