<svg width="32" height="32" viewBox="0 0 32 32" fill="none" xmlns="http://www.w3.org/2000/svg">
<path d="M16.7072 10.2929C16.3166 9.90237 15.6835 9.90237 15.2929 10.2929L7.29294 18.2929C7.00694 18.5789 6.92138 19.009 7.07616 19.3827C7.23095 19.7564 7.59558 20 8.00004 20H24C24.4045 20 24.7691 19.7564 24.9239 19.3827C25.0787 19.009 24.9931 18.5789 24.7072 18.2929L16.7072 10.2929Z" fill="white"/>
<path fill-rule="evenodd" clip-rule="evenodd" d="M14.9394 9.93934C15.5252 9.35355 16.4749 9.35355 17.0607 9.93934L25.0607 17.9393C25.4897 18.3683 25.618 19.0135 25.3859 19.574C25.1537 20.1345 24.6067 20.5 24 20.5H8.00004C7.39335 20.5 6.8464 20.1345 6.61422 19.574C6.38205 19.0135 6.51039 18.3683 6.93938 17.9393L14.9394 9.93934ZM16.3536 10.6464C16.1583 10.4512 15.8418 10.4512 15.6465 10.6464L7.64649 18.6464C7.50349 18.7894 7.46071 19.0045 7.5381 19.1913C7.61549 19.3782 7.79781 19.5 8.00004 19.5H24C24.2023 19.5 24.3846 19.3782 24.462 19.1913C24.5394 19.0045 24.4966 18.7894 24.3536 18.6464L16.3536 10.6464Z" fill="white"/>
</svg>
