<svg width="32" height="32" viewBox="0 0 32 32" fill="none" xmlns="http://www.w3.org/2000/svg">
<path fill-rule="evenodd" clip-rule="evenodd" d="M10.7071 25.7071C11.0976 25.3166 11.0976 24.6834 10.7071 24.2929L5.41421 19L10.7071 13.7071C11.0976 13.3166 11.0976 12.6834 10.7071 12.2929C10.3166 11.9024 9.68342 11.9024 9.29289 12.2929L3.29289 18.2929C2.90237 18.6834 2.90237 19.3166 3.29289 19.7071L9.29289 25.7071C9.68342 26.0976 10.3166 26.0976 10.7071 25.7071Z" fill="white"/>
<path fill-rule="evenodd" clip-rule="evenodd" d="M25.1924 16.1924C27.6304 13.7544 29 10.4478 29 7C29 6.44772 28.5523 6 28 6C27.4477 6 27 6.44772 27 7C27 9.91738 25.8411 12.7153 23.7782 14.7782C21.7153 16.8411 18.9174 18 16 18H4C3.44772 18 3 18.4477 3 19C3 19.5523 3.44772 20 4 20H16C19.4478 20 22.7544 18.6304 25.1924 16.1924Z" fill="white"/>
<path fill-rule="evenodd" clip-rule="evenodd" d="M25.5459 16.5459C28.0777 14.0142 29.5 10.5804 29.5 7C29.5 6.17157 28.8284 5.5 28 5.5C27.1716 5.5 26.5 6.17157 26.5 7C26.5 9.78477 25.3938 12.4555 23.4246 14.4246C21.4555 16.3938 18.7848 17.5 16 17.5H7.62132L11.0607 14.0607C11.6464 13.4749 11.6464 12.5251 11.0607 11.9393C10.4749 11.3536 9.52513 11.3536 8.93934 11.9393L2.93934 17.9393C2.79509 18.0836 2.68636 18.2499 2.61315 18.4274C2.54189 18.5998 2.50185 18.7884 2.50006 18.9862C2.50002 18.9908 2.5 18.9954 2.5 19C2.5 19.0046 2.50002 19.0092 2.50006 19.0138C2.50354 19.3931 2.64997 19.7713 2.93934 20.0607L8.93934 26.0607C9.52513 26.6464 10.4749 26.6464 11.0607 26.0607C11.6464 25.4749 11.6464 24.5251 11.0607 23.9393L7.62132 20.5H16C19.5804 20.5 23.0142 19.0777 25.5459 16.5459ZM6.20711 20.5L10.3536 24.6464C10.5488 24.8417 10.5488 25.1583 10.3536 25.3536C10.1583 25.5488 9.84171 25.5488 9.64645 25.3536L4.79289 20.5H6.20711ZM5.20711 19.5L5.06066 19.3536C4.96689 19.2598 4.91421 19.1326 4.91421 19C4.91421 18.8674 4.96689 18.7402 5.06066 18.6464L5.20711 18.5H4C3.86193 18.5 3.73693 18.556 3.64645 18.6464C3.55799 18.7349 3.50252 18.8564 3.50008 18.9908C3.50003 18.9938 3.5 18.9969 3.5 19C3.5 19.0086 3.50022 19.0172 3.50065 19.0257C3.50361 19.0842 3.5166 19.1399 3.53794 19.1914C3.56328 19.2525 3.60039 19.3075 3.64645 19.3536C3.73693 19.444 3.86193 19.5 4 19.5H5.20711ZM4.79289 17.5L9.64645 12.6464C9.84171 12.4512 10.1583 12.4512 10.3536 12.6464C10.5488 12.8417 10.5488 13.1583 10.3536 13.3536L6.20711 17.5H4.79289ZM6.62132 18.5H16C19.05 18.5 21.9751 17.2884 24.1317 15.1317C26.2884 12.9751 27.5 10.05 27.5 7C27.5 6.72386 27.7239 6.5 28 6.5C28.2761 6.5 28.5 6.72386 28.5 7C28.5 10.3152 27.183 13.4946 24.8388 15.8388C22.4946 18.183 19.3152 19.5 16 19.5H6.62132L6.12132 19L6.62132 18.5Z" fill="white"/>
</svg>
