<svg width="32" height="32" viewBox="0 0 32 32" fill="none" xmlns="http://www.w3.org/2000/svg">
<path d="M24.5742 26.3862C24.3973 26.4595 24.2034 26.5 24 26.5H11.5C10.6716 26.5 10 25.8284 10 25C10 24.1716 10.6716 23.5 11.5 23.5H20.3787L8.93934 12.0607C8.35355 11.4749 8.35355 10.5251 8.93934 9.93934C9.52513 9.35355 10.4749 9.35355 11.0607 9.93934L22.5 21.3787V12.5C22.5 11.6716 23.1716 11 24 11C24.8284 11 25.5 11.6716 25.5 12.5V24.9996C25.4989 25.382 25.3524 25.7689 25.0607 26.0607C24.9168 26.2045 24.7511 26.313 24.5742 26.3862Z" fill="white"/>
<path d="M28.5 5C28.5 5.82843 27.8284 6.5 27 6.5H5C4.17157 6.5 3.5 5.82843 3.5 5C3.5 4.17157 4.17157 3.5 5 3.5H27C27.8284 3.5 28.5 4.17157 28.5 5Z" fill="white"/>
</svg>
