<svg width="32" height="32" viewBox="0 0 32 32" fill="none" xmlns="http://www.w3.org/2000/svg">
<path d="M28 14.5C28.8284 14.5 29.5 15.1716 29.5 16C29.5 16.8284 28.8284 17.5 28 17.5L12.6213 17.5L19.0607 23.9393C19.6464 24.5251 19.6464 25.4749 19.0607 26.0607C18.4749 26.6464 17.5251 26.6464 16.9393 26.0607L7.93934 17.0607C7.79507 16.9164 7.68634 16.7501 7.61313 16.5725C7.54189 16.4001 7.50185 16.1839 7.50006 15.9862C7.50354 15.6069 7.64997 15.2287 7.93934 14.9393L16.9393 5.93934C17.5251 5.35355 18.4749 5.35355 19.0607 5.93934C19.6464 6.52513 19.6464 7.47487 19.0607 8.06066L12.6213 14.5L28 14.5Z" fill="white"/>
<path d="M5 3.5C5.82843 3.5 6.5 4.17157 6.5 5L6.5 27C6.5 27.8284 5.82843 28.5 5 28.5C4.17157 28.5 3.5 27.8284 3.5 27L3.5 5C3.5 4.17157 4.17157 3.5 5 3.5Z" fill="white"/>
</svg>
