<svg width="32" height="32" viewBox="0 0 32 32" fill="none" xmlns="http://www.w3.org/2000/svg">
<path fill-rule="evenodd" clip-rule="evenodd" d="M12.2929 21.2929C12.6834 20.9024 13.3166 20.9024 13.7071 21.2929L19 26.5858L24.2929 21.2929C24.6834 20.9024 25.3166 20.9024 25.7071 21.2929C26.0976 21.6834 26.0976 22.3166 25.7071 22.7071L19.7071 28.7071C19.3166 29.0976 18.6834 29.0976 18.2929 28.7071L12.2929 22.7071C11.9024 22.3166 11.9024 21.6834 12.2929 21.2929Z" fill="white"/>
<path fill-rule="evenodd" clip-rule="evenodd" d="M6 4C6 3.44772 6.44772 3 7 3C10.4478 3 13.7544 4.36964 16.1924 6.80761C18.6304 9.24558 20 12.5522 20 16V28C20 28.5523 19.5523 29 19 29C18.4477 29 18 28.5523 18 28V16C18 13.0826 16.8411 10.2847 14.7782 8.22182C12.7153 6.15892 9.91738 5 7 5C6.44772 5 6 4.55228 6 4Z" fill="white"/>
<path fill-rule="evenodd" clip-rule="evenodd" d="M5.5 4C5.5 3.17157 6.17157 2.5 7 2.5C10.5804 2.5 14.0142 3.92232 16.5459 6.45406C19.0777 8.9858 20.5 12.4196 20.5 16V24.3787L23.9393 20.9393C24.5251 20.3536 25.4749 20.3536 26.0607 20.9393C26.6464 21.5251 26.6464 22.4749 26.0607 23.0607L20.0607 29.0607C19.9164 29.2049 19.7502 29.3136 19.5727 29.3868C19.4002 29.4581 19.2116 29.4981 19.0138 29.4999C19.0092 29.5 19.0046 29.5 19 29.5C18.9954 29.5 18.9908 29.5 18.9862 29.4999C18.6069 29.4965 18.2287 29.35 17.9393 29.0607L11.9393 23.0607C11.3536 22.4749 11.3536 21.5251 11.9393 20.9393C12.5251 20.3536 13.4749 20.3536 14.0607 20.9393L17.5 24.3787V16C17.5 13.2152 16.3938 10.5445 14.4246 8.57538C12.4555 6.60625 9.78477 5.5 7 5.5C6.17157 5.5 5.5 4.82843 5.5 4ZM17.5 25.7929L13.3536 21.6464C13.1583 21.4512 12.8417 21.4512 12.6464 21.6464C12.4512 21.8417 12.4512 22.1583 12.6464 22.3536L17.5 27.2071V25.7929ZM18.5 26.7929L18.6464 26.9393C18.7402 27.0331 18.8674 27.0858 19 27.0858C19.1326 27.0858 19.2598 27.0331 19.3536 26.9393L19.5 26.7929V28C19.5 28.1381 19.444 28.2631 19.3536 28.3536C19.2651 28.442 19.1436 28.4975 19.0092 28.4999C19.0062 28.5 19.0031 28.5 19 28.5C18.9914 28.5 18.9828 28.4998 18.9743 28.4993C18.9158 28.4964 18.8601 28.4834 18.8086 28.4621C18.7475 28.4367 18.6925 28.3996 18.6464 28.3536C18.556 28.2631 18.5 28.1381 18.5 28V26.7929ZM20.5 27.2071L25.3536 22.3536C25.5488 22.1583 25.5488 21.8417 25.3536 21.6464C25.1583 21.4512 24.8417 21.4512 24.6464 21.6464L20.5 25.7929V27.2071ZM19.5 25.3787V16C19.5 12.6848 18.183 9.50537 15.8388 7.16116C13.4946 4.81696 10.3152 3.5 7 3.5C6.72386 3.5 6.5 3.72386 6.5 4C6.5 4.27614 6.72386 4.5 7 4.5C10.05 4.5 12.9751 5.7116 15.1317 7.86827C17.2884 10.0249 18.5 12.95 18.5 16V25.3787L19 25.8787L19.5 25.3787Z" fill="white"/>
</svg>
