<svg width="32" height="32" viewBox="0 0 32 32" fill="none" xmlns="http://www.w3.org/2000/svg">
<path d="M15.945 18.5562C15.179 18.5562 14.558 19.1772 14.558 19.9433L14.558 25.7487L13.6565 24.8472C13.1148 24.3056 12.2366 24.3056 11.6949 24.8472C11.1532 25.3889 11.1532 26.2672 11.6949 26.8088L14.9733 30.0872C15.1037 30.2152 15.253 30.3122 15.4122 30.3784C15.5763 30.4467 15.7562 30.4844 15.945 30.4844C16.1338 30.4844 16.3138 30.4467 16.4778 30.3784C16.637 30.3122 16.7864 30.2152 16.9167 30.0872L16.9258 30.0781L20.1951 26.8088C20.7368 26.2672 20.7368 25.3889 20.1951 24.8472C19.6535 24.3056 18.7752 24.3056 18.2335 24.8472L17.3321 25.7487L17.3321 19.9433C17.3321 19.1772 16.7111 18.5562 15.945 18.5562Z" fill="white"/>
<path d="M1.52053 15.9844C1.52159 16.338 1.657 16.6913 1.92678 16.9611L5.1961 20.2304C5.73778 20.7721 6.61601 20.7721 7.15769 20.2304C7.69936 19.6887 7.69936 18.8105 7.15769 18.2688L6.25622 17.3673L12.0617 17.3673C12.8277 17.3673 13.4487 16.7463 13.4487 15.9803C13.4487 15.2142 12.8277 14.5932 12.0617 14.5932L6.25622 14.5932L7.15769 13.6918C7.69936 13.1501 7.69936 12.2718 7.15769 11.7302C6.61601 11.1885 5.73778 11.1885 5.1961 11.7302L1.92385 15.0024C1.67547 15.2523 1.52165 15.6046 1.52053 15.9844Z" fill="white"/>
<path d="M19.908 14.5932C19.142 14.5932 18.521 15.2142 18.521 15.9803C18.521 16.7463 19.142 17.3673 19.908 17.3673L25.7134 17.3673L24.812 18.2688C24.2703 18.8105 24.2703 19.6887 24.812 20.2304C25.3537 20.7721 26.2319 20.7721 26.7736 20.2304L30.0429 16.9611L30.0519 16.952C30.1799 16.8216 30.277 16.6723 30.3431 16.5131C30.4114 16.349 30.4491 16.1691 30.4491 15.9803C30.4491 15.7915 30.4114 15.6115 30.3431 15.4475L30.0519 15.0086L26.7736 11.7302C26.2319 11.1885 25.3537 11.1885 24.812 11.7302C24.2703 12.2718 24.2703 13.1501 24.812 13.6918L25.7134 14.5932L19.908 14.5932Z" fill="white"/>
<path d="M15.9848 1.51597C15.7968 1.51597 15.6174 1.5534 15.4539 1.62122C15.2915 1.68841 15.136 1.79102 15.0037 1.92255L11.7347 5.19154C11.193 5.73322 11.193 6.61145 11.7347 7.15313C12.2764 7.69481 13.1546 7.69481 13.6963 7.15313L14.5978 6.25166L14.5978 12.0571C14.5978 12.8232 15.2188 13.4442 15.9848 13.4442C16.7509 13.4442 17.3719 12.8232 17.3719 12.0571V6.25166L18.2734 7.15313C18.815 7.69481 19.6933 7.69481 20.2349 7.15313C20.7766 6.61145 20.7766 5.73322 20.2349 5.19154L16.9565 1.91321C16.8261 1.7851 16.6766 1.68798 16.5173 1.62184C16.3533 1.55363 16.1735 1.51597 15.9848 1.51597Z" fill="white"/>
</svg>
