<svg width="32" height="32" viewBox="0 0 32 32" fill="none" xmlns="http://www.w3.org/2000/svg">
<path d="M5.00537 17.5021C4.17694 17.5021 3.50537 16.8306 3.50537 16.0021C3.50537 15.1737 4.17694 14.5021 5.00537 14.5021H27.0054C27.8338 14.5021 28.5054 15.1737 28.5054 16.0021C28.5054 16.8306 27.8338 17.5021 27.0054 17.5021H5.00537Z" fill="white"/>
<path d="M10.9447 27.0628C10.3589 26.477 10.3589 25.5273 10.9447 24.9415C11.5305 24.3557 12.4802 24.3557 13.066 24.9415L14.5054 26.3808V20.0021C14.5054 19.1737 15.1769 18.5021 16.0054 18.5021C16.8338 18.5021 17.5054 19.1737 17.5054 20.0021V26.3808L18.9447 24.9415C19.5305 24.3557 20.4802 24.3557 21.066 24.9415C21.6518 25.5273 21.6518 26.477 21.066 27.0628L17.0653 31.0635L17.0563 31.0725C16.9154 31.2108 16.7531 31.3163 16.5797 31.3881C16.4035 31.4612 16.2068 31.497 16.006 31.4976C15.5987 31.4964 15.2236 31.3368 14.9545 31.0725L14.9527 31.0707L14.9454 31.0635L14.944 31.0621L10.9447 27.0628Z" fill="white"/>
<path d="M10.9447 7.0628C10.3589 6.47701 10.3589 5.52726 10.9447 4.94148L14.9455 0.940699L14.9528 0.933493L14.9545 0.931795C15.0954 0.793375 15.2579 0.687809 15.4314 0.615999C15.6076 0.543016 15.8002 0.502731 16.0009 0.502142L16.0047 0.502136H16.006L16.009 0.50214C16.4163 0.503336 16.7871 0.667519 17.0562 0.931753L17.058 0.933516L17.0653 0.940725L17.0667 0.942188L21.066 4.94147C21.6518 5.52726 21.6518 6.47701 21.066 7.0628C20.4802 7.64858 19.5305 7.64858 18.9447 7.0628L17.5054 5.62346V12.0021C17.5054 12.8306 16.8338 13.5021 16.0054 13.5021C15.1769 13.5021 14.5054 12.8306 14.5054 12.0021V5.62346L13.066 7.0628C12.4802 7.64858 11.5305 7.64858 10.9447 7.0628Z" fill="white"/>
</svg>
