<svg width="32" height="32" viewBox="0 0 32 32" fill="none" xmlns="http://www.w3.org/2000/svg">
<path d="M14.5 3C14.5 2.17157 15.1716 1.5 16 1.5C16.8284 1.5 17.5 2.17157 17.5 3V8.37858L18.4768 7.40174C19.0626 6.81596 20.0124 6.81596 20.5982 7.40174C21.1839 7.98753 21.1839 8.93728 20.5982 9.52306L17.0711 13.0501C17.0265 13.0956 16.979 13.1382 16.929 13.1778C16.8522 13.2385 16.7708 13.2907 16.6861 13.3342C16.4805 13.4402 16.2472 13.5 16 13.5C15.756 13.5 15.5256 13.4417 15.322 13.3384C15.2291 13.2913 15.14 13.2339 15.0565 13.1662C15.012 13.1301 14.9696 13.0916 14.9295 13.0507L11.4018 9.52306C10.816 8.93728 10.816 7.98753 11.4018 7.40174C11.9876 6.81596 12.9374 6.81596 13.5232 7.40174L14.5 8.37859V3Z" fill="white"/>
<path d="M7.40183 11.4017C7.98762 10.816 8.93737 10.816 9.52315 11.4017L13.0607 14.9392C13.2136 15.0922 13.3267 15.27 13.3998 15.4597C13.4645 15.6273 13.5 15.8095 13.5 16C13.5 16.2244 13.4507 16.4374 13.3624 16.6286C13.31 16.7421 13.2427 16.8504 13.1604 16.9506C13.1258 16.9927 13.089 17.033 13.0501 17.0711L9.52315 20.5981C8.93737 21.1839 7.98762 21.1839 7.40183 20.5981C6.81605 20.0123 6.81605 19.0625 7.40183 18.4767L8.37858 17.5H3C2.17157 17.5 1.5 16.8284 1.5 16C1.5 15.1716 2.17157 14.5 3 14.5H8.37877L7.40183 13.5231C6.81605 12.9373 6.81605 11.9875 7.40183 11.4017Z" fill="white"/>
<path d="M22.4768 11.4017C23.0626 10.816 24.0124 10.816 24.5982 11.4017C25.1839 11.9875 25.1839 12.9373 24.5982 13.5231L23.6212 14.5H29C29.8284 14.5 30.5 15.1716 30.5 16C30.5 16.8284 29.8284 17.5 29 17.5H23.6214L24.5982 18.4767C25.1839 19.0625 25.1839 20.0123 24.5982 20.5981C24.0124 21.1839 23.0626 21.1839 22.4768 20.5981L18.9495 17.0707C18.9129 17.0348 18.8782 16.9971 18.8454 16.9576C18.7585 16.8531 18.6879 16.7395 18.6338 16.6202C18.5497 16.4351 18.502 16.2299 18.5001 16.0138C18.5028 15.835 18.5369 15.6267 18.597 15.4683C18.6699 15.2754 18.7841 15.0946 18.9394 14.9393L22.4768 11.4017Z" fill="white"/>
<path d="M16.5742 18.6138C16.7444 18.6842 16.9042 18.7873 17.0441 18.9231L17.0628 18.9415L20.5982 22.4768C21.1839 23.0626 21.1839 24.0124 20.5982 24.5982C20.0124 25.1839 19.0626 25.1839 18.4768 24.5982L17.5 23.6213V29C17.5 29.8284 16.8284 30.5 16 30.5C15.1716 30.5 14.5 29.8284 14.5 29V23.6213L13.5232 24.5982C12.9374 25.1839 11.9876 25.1839 11.4018 24.5982C10.816 24.0124 10.816 23.0626 11.4018 22.4768L14.9393 18.9393C15.2287 18.65 15.6069 18.5035 15.9861 18.5001L16 18.5L16.0138 18.5001C16.2122 18.5019 16.4013 18.5421 16.5742 18.6138Z" fill="white"/>
</svg>
