<svg width="32" height="32" viewBox="0 0 32 32" fill="none" xmlns="http://www.w3.org/2000/svg">
<path fill-rule="evenodd" clip-rule="evenodd" d="M4.29289 21.2929C4.68342 20.9024 5.31658 20.9024 5.70711 21.2929L11 26.5858L16.2929 21.2929C16.6834 20.9024 17.3166 20.9024 17.7071 21.2929C18.0976 21.6834 18.0976 22.3166 17.7071 22.7071L11.7071 28.7071C11.3166 29.0976 10.6834 29.0976 10.2929 28.7071L4.29289 22.7071C3.90237 22.3166 3.90237 21.6834 4.29289 21.2929Z" fill="white"/>
<path fill-rule="evenodd" clip-rule="evenodd" d="M12.3431 5.34315C13.8434 3.84285 15.8783 3 18 3C20.1217 3 22.1566 3.84285 23.6569 5.34315C25.1571 6.84344 26 8.87827 26 11V22C26 22.5523 25.5523 23 25 23C24.4477 23 24 22.5523 24 22V11C24 9.4087 23.3679 7.88258 22.2426 6.75736C21.1174 5.63214 19.5913 5 18 5C16.4087 5 14.8826 5.63214 13.7574 6.75736C12.6321 7.88258 12 9.4087 12 11V28C12 28.5523 11.5523 29 11 29C10.4477 29 10 28.5523 10 28V11C10 8.87827 10.8429 6.84344 12.3431 5.34315Z" fill="white"/>
<path fill-rule="evenodd" clip-rule="evenodd" d="M11.9896 4.98959C13.5837 3.39553 15.7457 2.5 18 2.5C20.2543 2.5 22.4163 3.39553 24.0104 4.98959C25.6045 6.58365 26.5 8.74566 26.5 11V22C26.5 22.8284 25.8284 23.5 25 23.5C24.1716 23.5 23.5 22.8284 23.5 22V11C23.5 9.54131 22.9205 8.14236 21.8891 7.11091C20.8576 6.07946 19.4587 5.5 18 5.5C16.5413 5.5 15.1424 6.07946 14.1109 7.11091C13.0795 8.14236 12.5 9.54131 12.5 11V24.3787L15.9393 20.9393C16.5251 20.3536 17.4749 20.3536 18.0607 20.9393C18.6464 21.5251 18.6464 22.4749 18.0607 23.0607L12.0607 29.0607C11.9164 29.2049 11.7501 29.3136 11.5726 29.3868C11.4002 29.4581 11.2116 29.4981 11.0138 29.4999C11.0092 29.5 11.0046 29.5 11 29.5C10.9954 29.5 10.9908 29.5 10.9862 29.4999C10.6069 29.4965 10.2287 29.35 9.93934 29.0607L3.93934 23.0607C3.35355 22.4749 3.35355 21.5251 3.93934 20.9393C4.52513 20.3536 5.47487 20.3536 6.06066 20.9393L9.5 24.3787V11C9.5 8.74566 10.3955 6.58365 11.9896 4.98959ZM9.5 25.7929L5.35355 21.6464C5.15829 21.4512 4.84171 21.4512 4.64645 21.6464C4.45118 21.8417 4.45118 22.1583 4.64645 22.3536L9.5 27.2071V25.7929ZM10.5 26.7929L10.6464 26.9393C10.7402 27.0331 10.8674 27.0858 11 27.0858C11.1326 27.0858 11.2598 27.0331 11.3536 26.9393L11.5 26.7929V28C11.5 28.1381 11.444 28.2631 11.3536 28.3536C11.2651 28.442 11.1436 28.4975 11.0092 28.4999C11.0062 28.5 11.0031 28.5 11 28.5C10.9914 28.5 10.9828 28.4998 10.9743 28.4993C10.9158 28.4964 10.8601 28.4834 10.8086 28.4621C10.7475 28.4367 10.6925 28.3996 10.6464 28.3536C10.556 28.2631 10.5 28.1381 10.5 28V26.7929ZM12.5 27.2071L17.3536 22.3536C17.5488 22.1583 17.5488 21.8417 17.3536 21.6464C17.1583 21.4512 16.8417 21.4512 16.6464 21.6464L12.5 25.7929V27.2071ZM11.5 25.3787V11C11.5 9.27609 12.1848 7.62279 13.4038 6.40381C14.6228 5.18482 16.2761 4.5 18 4.5C19.7239 4.5 21.3772 5.18482 22.5962 6.40381C23.8152 7.62279 24.5 9.27609 24.5 11V22C24.5 22.2761 24.7239 22.5 25 22.5C25.2761 22.5 25.5 22.2761 25.5 22V11C25.5 9.01088 24.7098 7.10322 23.3033 5.6967C21.8968 4.29018 19.9891 3.5 18 3.5C16.0109 3.5 14.1032 4.29018 12.6967 5.6967C11.2902 7.10322 10.5 9.01088 10.5 11V25.3787L11 25.8787L11.5 25.3787Z" fill="white"/>
</svg>
