<svg width="32" height="32" viewBox="0 0 32 32" fill="none" xmlns="http://www.w3.org/2000/svg">
<path fill-rule="evenodd" clip-rule="evenodd" d="M19 6C19.5523 6 20 6.44772 20 7V12H25C25.5523 12 26 12.4477 26 13C26 13.5523 25.5523 14 25 14H19C18.4477 14 18 13.5523 18 13V7C18 6.44772 18.4477 6 19 6Z" fill="white"/>
<path fill-rule="evenodd" clip-rule="evenodd" d="M26.7071 5.29289C27.0976 5.68342 27.0976 6.31658 26.7071 6.70711L19.7071 13.7071C19.3166 14.0976 18.6834 14.0976 18.2929 13.7071C17.9024 13.3166 17.9024 12.6834 18.2929 12.2929L25.2929 5.29289C25.6834 4.90237 26.3166 4.90237 26.7071 5.29289Z" fill="white"/>
<path fill-rule="evenodd" clip-rule="evenodd" d="M6 19C6 18.4477 6.44772 18 7 18H13C13.5523 18 14 18.4477 14 19V25C14 25.5523 13.5523 26 13 26C12.4477 26 12 25.5523 12 25V20H7C6.44772 20 6 19.5523 6 19Z" fill="white"/>
<path fill-rule="evenodd" clip-rule="evenodd" d="M13.7071 18.2929C14.0976 18.6834 14.0976 19.3166 13.7071 19.7071L6.70711 26.7071C6.31658 27.0976 5.68342 27.0976 5.29289 26.7071C4.90237 26.3166 4.90237 25.6834 5.29289 25.2929L12.2929 18.2929C12.6834 17.9024 13.3166 17.9024 13.7071 18.2929Z" fill="white"/>
<path fill-rule="evenodd" clip-rule="evenodd" d="M24.9393 4.93934C25.5251 4.35355 26.4749 4.35355 27.0607 4.93934C27.6464 5.52513 27.6464 6.47487 27.0607 7.06066L22.6213 11.5H25C25.8284 11.5 26.5 12.1716 26.5 13C26.5 13.8284 25.8284 14.5 25 14.5H19.0008L18.9955 14.5C18.588 14.4988 18.2188 14.3351 17.9492 14.0704C17.9426 14.0639 17.9361 14.0574 17.9296 14.0508C17.7906 13.9093 17.6854 13.7471 17.6138 13.5742C17.5405 13.3973 17.5 13.2034 17.5 13V7C17.5 6.17157 18.1716 5.5 19 5.5C19.8284 5.5 20.5 6.17157 20.5 7V9.37868L24.9393 4.93934ZM19.5 10.3787V7C19.5 6.72386 19.2761 6.5 19 6.5C18.7239 6.5 18.5 6.72386 18.5 7V11.3787L19.5 10.3787ZM18.5 12.9995C18.5001 12.8717 18.5489 12.744 18.6464 12.6464L19.5 11.7929V12C19.5 12.2761 19.7239 12.5 20 12.5H20.2071L19.3536 13.3536C19.256 13.4511 19.1283 13.4999 19.0005 13.5M20.6213 13.5L21.6213 12.5H25C25.2761 12.5 25.5 12.7239 25.5 13C25.5 13.2761 25.2761 13.5 25 13.5H20.6213ZM21.2071 11.5L26.3536 6.35355C26.5488 6.15829 26.5488 5.84171 26.3536 5.64645C26.1583 5.45118 25.8417 5.45118 25.6464 5.64645L20.5 10.7929V11.5H21.2071ZM18.5 13.003C18.5004 13.0671 18.513 13.1312 18.5379 13.1914C18.5633 13.2525 18.6004 13.3075 18.6464 13.3536C18.6925 13.3996 18.7475 13.4367 18.8086 13.4621C18.8688 13.487 18.9329 13.4996 18.997 13.5M5.5 19C5.5 18.1716 6.17157 17.5 7 17.5H13C13.2034 17.5 13.3973 17.5405 13.5742 17.6138C13.7471 17.6854 13.9093 17.7906 14.0508 17.9296C14.0574 17.9361 14.0639 17.9426 14.0704 17.9492C14.2094 18.0907 14.3146 18.2529 14.3862 18.4258C14.459 18.6014 14.4994 18.7938 14.5 18.9955L14.5 19V25C14.5 25.8284 13.8284 26.5 13 26.5C12.1716 26.5 11.5 25.8284 11.5 25V22.6213L7.06066 27.0607C6.47487 27.6464 5.52513 27.6464 4.93934 27.0607C4.35355 26.4749 4.35355 25.5251 4.93934 24.9393L9.37868 20.5H7C6.17157 20.5 5.5 19.8284 5.5 19ZM10.7929 20.5L5.64645 25.6464C5.45118 25.8417 5.45118 26.1583 5.64645 26.3536C5.84171 26.5488 6.15829 26.5488 6.35355 26.3536L11.5 21.2071V20.5H10.7929ZM12.5 20.2071V20C12.5 19.7239 12.2761 19.5 12 19.5H11.7929L12.6464 18.6464C12.744 18.5489 12.8717 18.5001 12.9995 18.5M11.3787 18.5L10.3787 19.5H7C6.72386 19.5 6.5 19.2761 6.5 19C6.5 18.7239 6.72386 18.5 7 18.5H11.3787ZM12.5 21.6213V25C12.5 25.2761 12.7239 25.5 13 25.5C13.2761 25.5 13.5 25.2761 13.5 25V20.6213L12.5 21.6213ZM13.5 19.0005C13.4999 19.1283 13.4511 19.256 13.3536 19.3536L12.5 20.2071M13.5 19.0005L13.5 18.997C13.4992 18.8601 13.4434 18.7363 13.3536 18.6464C13.3075 18.6004 13.2525 18.5633 13.1914 18.5379C13.1312 18.513 13.0671 18.5004 13.003 18.5" fill="white"/>
</svg>
