<svg width="32" height="32" viewBox="0 0 32 32" fill="none" xmlns="http://www.w3.org/2000/svg">
<path fill-rule="evenodd" clip-rule="evenodd" d="M3.5127 9.5127C4.06498 9.5127 4.5127 9.96041 4.5127 10.5127V17.5127H11.5127C12.065 17.5127 12.5127 17.9604 12.5127 18.5127C12.5127 19.065 12.065 19.5127 11.5127 19.5127H3.5127C2.96041 19.5127 2.5127 19.065 2.5127 18.5127V10.5127C2.5127 9.96041 2.96041 9.5127 3.5127 9.5127Z" fill="white"/>
<path fill-rule="evenodd" clip-rule="evenodd" d="M13.4627 10.2457C15.9851 9.74366 18.5997 10.0011 20.9757 10.9854C23.3518 11.9698 25.3824 13.6368 26.8108 15.7755C28.2392 17.9142 29.0011 20.4286 29.0002 23.0004C29 23.5527 28.5521 24.0003 27.9998 24C27.4475 23.9998 27 23.552 27.0002 22.9997C27.001 20.8235 26.3563 18.696 25.1477 16.8863C23.939 15.0766 22.2208 13.6661 20.2103 12.8332C18.1998 12.0003 15.9874 11.7824 13.8531 12.2072C11.7188 12.632 9.75838 13.6803 8.21999 15.2195L4.2198 19.2197C3.82928 19.6102 3.19611 19.6102 2.80559 19.2197C2.41506 18.8291 2.41506 18.196 2.80559 17.8054L6.8054 13.8056C8.62348 11.9867 10.9404 10.7477 13.4627 10.2457Z" fill="white"/>
<path fill-rule="evenodd" clip-rule="evenodd" d="M2.0127 10.5127C2.0127 9.68427 2.68427 9.0127 3.5127 9.0127C4.34112 9.0127 5.0127 9.68427 5.0127 10.5127V14.8912L6.45176 13.4522C8.33974 11.5633 10.7458 10.2766 13.3651 9.75528C15.9845 9.23397 18.6997 9.50132 21.1671 10.5235C23.6345 11.5457 25.7433 13.2768 27.2266 15.4978C28.71 17.7188 29.5012 20.3298 29.5002 23.0006C29.4999 23.829 28.8281 24.5004 27.9996 24.5C27.1712 24.4997 26.4999 23.8279 26.5002 22.9995C26.501 20.9222 25.8856 18.8914 24.7319 17.164C23.5782 15.4365 21.938 14.0901 20.0189 13.2951C18.0998 12.5001 15.988 12.2921 13.9507 12.6976C11.9134 13.103 10.0421 14.1037 8.57363 15.5729L7.13387 17.0127H11.5127C12.3411 17.0127 13.0127 17.6843 13.0127 18.5127C13.0127 19.3411 12.3411 20.0127 11.5127 20.0127H3.5127C3.23465 20.0127 2.97428 19.937 2.75103 19.8052C2.71548 19.7842 2.68061 19.7616 2.64652 19.7375C2.52521 19.6515 2.41722 19.548 2.32627 19.4306C2.26054 19.3459 2.20514 19.2558 2.16007 19.1619C2.06562 18.9654 2.0127 18.7452 2.0127 18.5127V10.5127ZM3.0127 18.5127C3.01273 18.6406 3.06155 18.7685 3.15914 18.8661C3.3544 19.0614 3.67099 19.0614 3.86625 18.8661L4.71966 18.0127H4.5127C4.23655 18.0127 4.0127 17.7888 4.0127 17.5127V17.3054L3.15914 18.159C3.06151 18.2566 3.0127 18.3847 3.0127 18.5127ZM4.0127 15.8912L3.0127 16.8912V10.5127C3.0127 10.2366 3.23655 10.0127 3.5127 10.0127C3.78884 10.0127 4.0127 10.2366 4.0127 10.5127V15.8912ZM5.0127 16.3054V17.0127H5.71966L7.86634 14.866C9.47465 13.2569 11.5242 12.1609 13.7555 11.7168C15.9868 11.2727 18.2998 11.5005 20.4016 12.3712C22.5035 13.242 24.2999 14.7166 25.5635 16.6086C26.827 18.5005 27.501 20.7248 27.5002 22.9999C27.5001 23.276 27.7239 23.4999 28 23.5C28.2762 23.5002 28.5001 23.2764 28.5002 23.0002C28.5011 20.5273 27.7685 18.1097 26.395 16.0532C25.0216 13.9967 23.069 12.3939 20.7844 11.4474C18.4997 10.5009 15.9857 10.2534 13.5603 10.736C11.135 11.2187 8.9072 12.4101 7.15904 14.1591L5.0127 16.3054ZM6.13387 18.0127L5.13387 19.0127H11.5127C11.7888 19.0127 12.0127 18.7888 12.0127 18.5127C12.0127 18.2366 11.7888 18.0127 11.5127 18.0127H6.13387Z" fill="white"/>
</svg>
