<svg width="32" height="32" viewBox="0 0 32 32" fill="none" xmlns="http://www.w3.org/2000/svg">
<path fill-rule="evenodd" clip-rule="evenodd" d="M15.2929 19.2929C14.9024 19.6834 14.9024 20.3166 15.2929 20.7071L21.2929 26.7071C21.6834 27.0976 22.3166 27.0976 22.7071 26.7071L28.7071 20.7071C29.0976 20.3166 29.0976 19.6834 28.7071 19.2929C28.3166 18.9024 27.6834 18.9024 27.2929 19.2929L22 24.5858L16.7071 19.2929C16.3166 18.9024 15.6834 18.9024 15.2929 19.2929Z" fill="white"/>
<path fill-rule="evenodd" clip-rule="evenodd" d="M3 8C3 8.55228 3.44772 9 4 9L21 9L21 26C21 26.5523 21.4477 27 22 27C22.5523 27 23 26.5523 23 26L23 8C23 7.44771 22.5523 7 22 7L4 7C3.44772 7 3 7.44772 3 8Z" fill="white"/>
<path fill-rule="evenodd" clip-rule="evenodd" d="M4 6.5C3.17157 6.5 2.5 7.17157 2.5 8C2.5 8.82843 3.17157 9.5 4 9.5L20.5 9.5L20.5 22.3787L17.0607 18.9393C16.4749 18.3536 15.5251 18.3536 14.9393 18.9393C14.3536 19.5251 14.3536 20.4749 14.9393 21.0607L20.9393 27.0607C21.0837 27.205 21.2502 27.3138 21.4278 27.387C21.6001 27.4582 21.7886 27.4981 21.9862 27.4999C21.9908 27.5 21.9954 27.5 22 27.5C22.0046 27.5 22.0092 27.5 22.0138 27.4999C22.2114 27.4981 22.3999 27.4582 22.5722 27.387C22.7498 27.3138 22.9163 27.205 23.0607 27.0607L29.0607 21.0607C29.6464 20.4749 29.6464 19.5251 29.0607 18.9393C28.4749 18.3536 27.5251 18.3536 26.9393 18.9393L23.5 22.3787L23.5 8C23.5 7.17157 22.8284 6.5 22 6.5L4 6.5ZM23.5 23.7929L27.6464 19.6464C27.8417 19.4512 28.1583 19.4512 28.3536 19.6464C28.5488 19.8417 28.5488 20.1583 28.3536 20.3536L23.5 25.2071L23.5 23.7929ZM22.1914 26.4621C22.3726 26.3869 22.5 26.2083 22.5 26L22.5 24.7929L22.3536 24.9393C22.2598 25.0331 22.1326 25.0858 22 25.0858C21.8674 25.0858 21.7402 25.0331 21.6464 24.9393L21.5 24.7929L21.5 26C21.5 26.2083 21.6274 26.3869 21.8086 26.4621C21.8669 26.4862 21.9287 26.4988 21.9908 26.4999M20.5 25.2071L15.6464 20.3536C15.4512 20.1583 15.4512 19.8417 15.6464 19.6464C15.8417 19.4512 16.1583 19.4512 16.3536 19.6464L20.5 23.7929L20.5 25.2071ZM21.5 23.3787L22 23.8787L22.5 23.3787L22.5 8C22.5 7.72386 22.2761 7.5 22 7.5L4 7.5C3.72386 7.5 3.5 7.72386 3.5 8C3.5 8.27614 3.72386 8.5 4 8.5L21 8.5C21.2761 8.5 21.5 8.72386 21.5 9L21.5 23.3787ZM22.1914 26.4621C22.1378 26.4842 22.0811 26.4967 22.024 26.4994C22.016 26.4998 22.008 26.5 22 26.5" fill="white"/>
</svg>
