<svg width="32" height="32" viewBox="0 0 32 32" fill="none" xmlns="http://www.w3.org/2000/svg">
<path d="M8.00004 12C7.59558 12 7.23095 12.2436 7.07616 12.6173C6.92138 12.991 7.00694 13.4211 7.29294 13.7071L15.2929 21.7071C15.6835 22.0976 16.3166 22.0976 16.7072 21.7071L24.7072 13.7071C24.9931 13.4211 25.0787 12.991 24.9239 12.6173C24.7691 12.2436 24.4045 12 24 12H8.00004Z" fill="white"/>
<path fill-rule="evenodd" clip-rule="evenodd" d="M6.61422 12.426C6.8464 11.8655 7.39335 11.5 8.00004 11.5H24C24.6067 11.5 25.1537 11.8655 25.3859 12.426C25.618 12.9865 25.4897 13.6317 25.0607 14.0607L17.0607 22.0607C16.4749 22.6464 15.5252 22.6464 14.9394 22.0607L6.93938 14.0607C6.51039 13.6317 6.38205 12.9865 6.61422 12.426ZM8.00004 12.5C7.79781 12.5 7.61549 12.6218 7.5381 12.8087C7.46071 12.9955 7.50349 13.2106 7.64649 13.3536L15.6465 21.3536C15.8418 21.5488 16.1583 21.5488 16.3536 21.3536L24.3536 13.3536C24.4966 13.2106 24.5394 12.9955 24.462 12.8087C24.3846 12.6218 24.2023 12.5 24 12.5H8.00004Z" fill="white"/>
</svg>
