<svg width="32" height="32" viewBox="0 0 32 32" fill="none" xmlns="http://www.w3.org/2000/svg">
<path d="M16.0556 20.9446C15.6651 20.5541 15.6651 19.9209 16.0556 19.5304L18.586 17H11C10.4477 17 10 16.5523 10 16C10 15.4477 10.4477 15 11 15H18.586L16.0556 12.4696C15.6651 12.0791 15.6651 11.4459 16.0556 11.0554C16.4461 10.6649 17.0793 10.6649 17.4698 11.0554L21.7073 15.2929C22.0978 15.6834 22.0978 16.3166 21.7073 16.7071L17.4698 20.9446C17.0793 21.3351 16.4461 21.3351 16.0556 20.9446Z" fill="white"/>
<path fill-rule="evenodd" clip-rule="evenodd" d="M16 29C8.8203 29 3 23.1797 3 16C3 8.8203 8.8203 3 16 3C23.1797 3 29 8.8203 29 16C29 23.1797 23.1797 29 16 29ZM5 16C5 22.0751 9.92487 27 16 27C22.0751 27 27 22.0751 27 16C27 9.92487 22.0751 5 16 5C9.92487 5 5 9.92487 5 16Z" fill="white"/>
<path fill-rule="evenodd" clip-rule="evenodd" d="M3.5 16C3.5 22.9036 9.09644 28.5 16 28.5C22.9036 28.5 28.5 22.9036 28.5 16C28.5 9.09644 22.9036 3.5 16 3.5C9.09644 3.5 3.5 9.09644 3.5 16ZM16 29.5C8.54416 29.5 2.5 23.4558 2.5 16C2.5 8.54416 8.54416 2.5 16 2.5C23.4558 2.5 29.5 8.54416 29.5 16C29.5 23.4558 23.4558 29.5 16 29.5ZM16 27.5C9.64873 27.5 4.5 22.3513 4.5 16C4.5 9.64873 9.64873 4.5 16 4.5C22.3513 4.5 27.5 9.64873 27.5 16C27.5 22.3513 22.3513 27.5 16 27.5ZM5.5 16C5.5 21.799 10.201 26.5 16 26.5C21.799 26.5 26.5 21.799 26.5 16C26.5 10.201 21.799 5.5 16 5.5C10.201 5.5 5.5 10.201 5.5 16ZM10.5 16C10.5 16.2761 10.7239 16.5 11 16.5H18.586C18.7882 16.5 18.9705 16.6218 19.0479 16.8087C19.1253 16.9955 19.0825 17.2106 18.9395 17.3536L16.4091 19.8839C16.2139 20.0792 16.2139 20.3958 16.4091 20.591C16.6044 20.7863 16.921 20.7863 17.1162 20.591L21.3537 16.3535C21.549 16.1583 21.549 15.8417 21.3537 15.6464L17.1162 11.4089C16.921 11.2137 16.6044 11.2137 16.4091 11.4089C16.2139 11.6042 16.2139 11.9208 16.4091 12.116L18.9395 14.6464C19.0825 14.7894 19.1253 15.0045 19.0479 15.1913C18.9705 15.3782 18.7882 15.5 18.586 15.5H11C10.7239 15.5 10.5 15.7239 10.5 16ZM11 17.5C10.1716 17.5 9.5 16.8284 9.5 16C9.5 15.1716 10.1716 14.5 11 14.5H17.3789L15.702 12.8231C15.1162 12.2374 15.1162 11.2876 15.702 10.7018C16.2878 10.116 17.2376 10.116 17.8234 10.7018L22.0609 14.9393C22.6466 15.5251 22.6466 16.4749 22.0609 17.0606L17.8234 21.2981C17.2376 21.8839 16.2878 21.8839 15.702 21.2981C15.1162 20.7124 15.1162 19.7626 15.702 19.1768L17.3789 17.5H11Z" fill="white"/>
</svg>
