<svg width="32" height="32" viewBox="0 0 32 32" fill="none" xmlns="http://www.w3.org/2000/svg">
<path fill-rule="evenodd" clip-rule="evenodd" d="M16.7071 12.7071C17.0976 12.3166 17.0976 11.6834 16.7071 11.2929L10.7071 5.29289C10.3166 4.90237 9.68342 4.90237 9.29289 5.29289L3.29289 11.2929C2.90237 11.6834 2.90237 12.3166 3.29289 12.7071C3.68342 13.0976 4.31658 13.0976 4.70711 12.7071L10 7.41421L15.2929 12.7071C15.6834 13.0976 16.3166 13.0976 16.7071 12.7071Z" fill="white"/>
<path fill-rule="evenodd" clip-rule="evenodd" d="M29 24C29 23.4477 28.5523 23 28 23L11 23L11 6C11 5.44772 10.5523 5 10 5C9.44772 5 9 5.44772 9 6L9 24C9 24.5523 9.44772 25 10 25L28 25C28.5523 25 29 24.5523 29 24Z" fill="white"/>
<path fill-rule="evenodd" clip-rule="evenodd" d="M28 25.5C28.8284 25.5 29.5 24.8284 29.5 24C29.5 23.1716 28.8284 22.5 28 22.5L11.5 22.5L11.5 9.62132L14.9393 13.0607C15.5251 13.6464 16.4749 13.6464 17.0607 13.0607C17.6464 12.4749 17.6464 11.5251 17.0607 10.9393L11.0607 4.93934C10.9163 4.79498 10.7498 4.68619 10.5722 4.61298C10.3999 4.54183 10.2114 4.50185 10.0138 4.50006C10.0092 4.50002 10.0046 4.5 10 4.5C9.99538 4.5 9.99076 4.50002 9.98615 4.50006C9.78858 4.50185 9.60014 4.54183 9.42785 4.61298C9.25017 4.68619 9.0837 4.79498 8.93934 4.93934L2.93934 10.9393C2.35355 11.5251 2.35355 12.4749 2.93934 13.0607C3.52512 13.6464 4.47487 13.6464 5.06066 13.0607L8.5 9.62132L8.5 24C8.5 24.8284 9.17157 25.5 10 25.5L28 25.5ZM8.5 8.20711L4.35355 12.3536C4.15829 12.5488 3.84171 12.5488 3.64645 12.3536C3.45118 12.1583 3.45118 11.8417 3.64645 11.6464L8.5 6.79289L8.5 8.20711ZM9.80861 5.53794C9.62743 5.61307 9.5 5.79165 9.5 6L9.5 7.20711L9.64645 7.06066C9.74021 6.96689 9.86739 6.91421 10 6.91421C10.1326 6.91421 10.2598 6.96689 10.3536 7.06066L10.5 7.20711L10.5 6C10.5 5.79165 10.3726 5.61307 10.1914 5.53794C10.1331 5.51384 10.0713 5.50122 10.0092 5.50008M11.5 6.79289L16.3536 11.6464C16.5488 11.8417 16.5488 12.1583 16.3536 12.3536C16.1583 12.5488 15.8417 12.5488 15.6464 12.3536L11.5 8.20711L11.5 6.79289ZM10.5 8.62132L10 8.12132L9.5 8.62132L9.5 24C9.5 24.2761 9.72386 24.5 10 24.5L28 24.5C28.2761 24.5 28.5 24.2761 28.5 24C28.5 23.7239 28.2761 23.5 28 23.5L11 23.5C10.7239 23.5 10.5 23.2761 10.5 23L10.5 8.62132ZM9.80861 5.53794C9.86223 5.51575 9.91893 5.50329 9.97601 5.50057C9.984 5.50019 9.992 5.5 10 5.5" fill="white"/>
</svg>
