<svg width="32" height="32" viewBox="0 0 32 32" fill="none" xmlns="http://www.w3.org/2000/svg">
<path d="M8.93934 3.93934C9.52513 3.35355 10.4749 3.35355 11.0607 3.93934C11.6464 4.52513 11.6464 5.47487 11.0607 6.06066L7.62132 9.5H21C23.2543 9.5 25.4163 10.3955 27.0104 11.9896C28.6045 13.5837 29.5 15.7457 29.5 18C29.5 20.2543 28.6045 22.4163 27.0104 24.0104C25.4163 25.6045 23.2543 26.5 21 26.5H10C9.17157 26.5 8.5 25.8284 8.5 25C8.5 24.1716 9.17157 23.5 10 23.5H21C22.4587 23.5 23.8576 22.9205 24.8891 21.8891C25.9205 20.8576 26.5 19.4587 26.5 18C26.5 16.5413 25.9205 15.1424 24.8891 14.1109C23.8576 13.0795 22.4587 12.5 21 12.5H7.62132L11.0607 15.9393C11.6464 16.5251 11.6464 17.4749 11.0607 18.0607C10.4749 18.6464 9.52513 18.6464 8.93934 18.0607L2.93934 12.0607L2.93616 12.0575C2.66658 11.7863 2.5 11.4126 2.5 11C2.5 10.5874 2.66658 10.2137 2.93616 9.94253L2.93934 9.93934L8.93934 3.93934Z" fill="white"/>
</svg>
