<svg width="32" height="32" viewBox="0 0 32 32" fill="none" xmlns="http://www.w3.org/2000/svg">
<path d="M13.7071 7.29294C13.4211 7.00694 12.991 6.92138 12.6173 7.07616C12.2436 7.23095 12 7.59558 12 8.00004V24C12 24.4045 12.2436 24.7691 12.6173 24.9239C12.991 25.0787 13.4211 24.9931 13.7071 24.7072L21.7071 16.7072C22.0976 16.3166 22.0976 15.6835 21.7071 15.2929L13.7071 7.29294Z" fill="white"/>
<path fill-rule="evenodd" clip-rule="evenodd" d="M12.426 6.61422C12.9865 6.38205 13.6317 6.51039 14.0607 6.93938L22.0607 14.9394C22.6464 15.5252 22.6464 16.4749 22.0607 17.0607L14.0607 25.0607C13.6317 25.4897 12.9865 25.618 12.426 25.3859C11.8655 25.1537 11.5 24.6067 11.5 24V8.00004C11.5 7.39335 11.8655 6.8464 12.426 6.61422ZM13.3536 7.64649C13.2106 7.50349 12.9955 7.46071 12.8087 7.5381C12.6218 7.61549 12.5 7.79781 12.5 8.00004V24C12.5 24.2023 12.6218 24.3846 12.8087 24.462C12.9955 24.5394 13.2106 24.4966 13.3536 24.3536L21.3536 16.3536C21.5488 16.1583 21.5488 15.8418 21.3536 15.6465L13.3536 7.64649Z" fill="white"/>
</svg>
