<svg width="32" height="32" viewBox="0 0 32 32" fill="none" xmlns="http://www.w3.org/2000/svg">
<path fill-rule="evenodd" clip-rule="evenodd" d="M16 2.5C8.54416 2.5 2.5 8.54416 2.5 16C2.5 23.4558 8.54416 29.5 16 29.5C23.4558 29.5 29.5 23.4558 29.5 16C29.5 8.54416 23.4558 2.5 16 2.5ZM16 5.5C10.201 5.5 5.5 10.201 5.5 16C5.5 21.799 10.201 26.5 16 26.5C21.799 26.5 26.5 21.799 26.5 16C26.5 10.201 21.799 5.5 16 5.5ZM20.5607 11.4393C19.9749 10.8536 19.0251 10.8536 18.4393 11.4393L14 15.8787V13.5C14 12.6716 13.3284 12 12.5 12C11.6716 12 11 12.6716 11 13.5V19.5C11 19.5122 11.0001 19.5244 11.0004 19.5366C11.0049 19.7198 11.0427 19.9022 11.1138 20.0742C11.187 20.2511 11.2955 20.4168 11.4393 20.5607C11.7078 20.8291 12.0774 20.9962 12.4862 20.9999L12.5021 21H18.5C19.3284 21 20 20.3284 20 19.5C20 18.6716 19.3284 18 18.5 18H16.1213L20.5607 13.5607C21.1464 12.9749 21.1464 12.0251 20.5607 11.4393Z" fill="white"/>
</svg>
