<svg width="32" height="32" viewBox="0 0 32 32" fill="none" xmlns="http://www.w3.org/2000/svg">
<path d="M15.9444 11.0554C16.3349 11.4459 16.3349 12.0791 15.9444 12.4696L13.414 15H21C21.5523 15 22 15.4477 22 16C22 16.5523 21.5523 17 21 17H13.414L15.9444 19.5304C16.3349 19.9209 16.3349 20.5541 15.9444 20.9446C15.5539 21.3351 14.9207 21.3351 14.5302 20.9446L10.2927 16.7071C9.90217 16.3166 9.90217 15.6834 10.2927 15.2929L14.5302 11.0554C14.9207 10.6649 15.5539 10.6649 15.9444 11.0554Z" fill="white"/>
<path fill-rule="evenodd" clip-rule="evenodd" d="M16 3C23.1797 3 29 8.8203 29 16C29 23.1797 23.1797 29 16 29C8.8203 29 3 23.1797 3 16C3 8.8203 8.8203 3 16 3ZM27 16C27 9.92487 22.0751 5 16 5C9.92487 5 5 9.92487 5 16C5 22.0751 9.92487 27 16 27C22.0751 27 27 22.0751 27 16Z" fill="white"/>
<path fill-rule="evenodd" clip-rule="evenodd" d="M28.5 16C28.5 9.09644 22.9036 3.5 16 3.5C9.09644 3.5 3.5 9.09644 3.5 16C3.5 22.9036 9.09644 28.5 16 28.5C22.9036 28.5 28.5 22.9036 28.5 16ZM16 2.5C23.4558 2.5 29.5 8.54416 29.5 16C29.5 23.4558 23.4558 29.5 16 29.5C8.54416 29.5 2.5 23.4558 2.5 16C2.5 8.54416 8.54416 2.5 16 2.5ZM16 4.5C22.3513 4.5 27.5 9.64873 27.5 16C27.5 22.3513 22.3513 27.5 16 27.5C9.64873 27.5 4.5 22.3513 4.5 16C4.5 9.64873 9.64873 4.5 16 4.5ZM26.5 16C26.5 10.201 21.799 5.5 16 5.5C10.201 5.5 5.5 10.201 5.5 16C5.5 21.799 10.201 26.5 16 26.5C21.799 26.5 26.5 21.799 26.5 16ZM21.5 16C21.5 15.7239 21.2761 15.5 21 15.5H13.414C13.2118 15.5 13.0295 15.3782 12.9521 15.1913C12.8747 15.0045 12.9175 14.7894 13.0605 14.6464L15.5909 12.1161C15.7861 11.9208 15.7861 11.6042 15.5909 11.409C15.3956 11.2137 15.079 11.2137 14.8838 11.409L10.6463 15.6465C10.451 15.8417 10.451 16.1583 10.6463 16.3536L14.8838 20.5911C15.079 20.7863 15.3956 20.7863 15.5909 20.5911C15.7861 20.3958 15.7861 20.0792 15.5909 19.884L13.0605 17.3536C12.9175 17.2106 12.8747 16.9955 12.9521 16.8087C13.0295 16.6218 13.2118 16.5 13.414 16.5H21C21.2761 16.5 21.5 16.2761 21.5 16ZM21 14.5C21.8284 14.5 22.5 15.1716 22.5 16C22.5 16.8284 21.8284 17.5 21 17.5H14.6211L16.298 19.1769C16.8838 19.7626 16.8838 20.7124 16.298 21.2982C15.7122 21.884 14.7624 21.884 14.1766 21.2982L9.93914 17.0607C9.35336 16.4749 9.35336 15.5251 9.93914 14.9394L14.1766 10.7019C14.7624 10.1161 15.7122 10.1161 16.298 10.7019C16.8838 11.2876 16.8838 12.2374 16.298 12.8232L14.6211 14.5H21Z" fill="white"/>
</svg>
