<svg width="32" height="32" viewBox="0 0 32 32" fill="none" xmlns="http://www.w3.org/2000/svg">
<path d="M11.0554 16.0556C11.4459 15.6651 12.0791 15.6651 12.4696 16.0556L15 18.586V11C15 10.4477 15.4477 10 16 10C16.5523 10 17 10.4477 17 11V18.586L19.5304 16.0556C19.9209 15.6651 20.5541 15.6651 20.9446 16.0556C21.3351 16.4461 21.3351 17.0793 20.9446 17.4698L16.7071 21.7073C16.3166 22.0978 15.6834 22.0978 15.2929 21.7073L11.0554 17.4698C10.6649 17.0793 10.6649 16.4461 11.0554 16.0556Z" fill="white"/>
<path fill-rule="evenodd" clip-rule="evenodd" d="M3 16C3 8.8203 8.8203 3 16 3C23.1797 3 29 8.8203 29 16C29 23.1797 23.1797 29 16 29C8.8203 29 3 23.1797 3 16ZM16 5C9.92487 5 5 9.92487 5 16C5 22.0751 9.92487 27 16 27C22.0751 27 27 22.0751 27 16C27 9.92487 22.0751 5 16 5Z" fill="white"/>
<path fill-rule="evenodd" clip-rule="evenodd" d="M16 3.5C9.09644 3.5 3.5 9.09644 3.5 16C3.5 22.9036 9.09644 28.5 16 28.5C22.9036 28.5 28.5 22.9036 28.5 16C28.5 9.09644 22.9036 3.5 16 3.5ZM2.5 16C2.5 8.54416 8.54416 2.5 16 2.5C23.4558 2.5 29.5 8.54416 29.5 16C29.5 23.4558 23.4558 29.5 16 29.5C8.54416 29.5 2.5 23.4558 2.5 16ZM4.5 16C4.5 9.64873 9.64873 4.5 16 4.5C22.3513 4.5 27.5 9.64873 27.5 16C27.5 22.3513 22.3513 27.5 16 27.5C9.64873 27.5 4.5 22.3513 4.5 16ZM16 5.5C10.201 5.5 5.5 10.201 5.5 16C5.5 21.799 10.201 26.5 16 26.5C21.799 26.5 26.5 21.799 26.5 16C26.5 10.201 21.799 5.5 16 5.5ZM16 10.5C15.7239 10.5 15.5 10.7239 15.5 11V18.586C15.5 18.7882 15.3782 18.9705 15.1913 19.0479C15.0045 19.1253 14.7894 19.0825 14.6464 18.9395L12.1161 16.4091C11.9208 16.2139 11.6042 16.2139 11.409 16.4091C11.2137 16.6044 11.2137 16.921 11.409 17.1162L15.6465 21.3537C15.8417 21.549 16.1583 21.549 16.3536 21.3537L20.5911 17.1162C20.7863 16.921 20.7863 16.6044 20.5911 16.4091C20.3958 16.2139 20.0792 16.2139 19.884 16.4091L17.3536 18.9395C17.2106 19.0825 16.9955 19.1253 16.8087 19.0479C16.6218 18.9705 16.5 18.7882 16.5 18.586V11C16.5 10.7239 16.2761 10.5 16 10.5ZM14.5 11C14.5 10.1716 15.1716 9.5 16 9.5C16.8284 9.5 17.5 10.1716 17.5 11V17.3789L19.1769 15.702C19.7626 15.1162 20.7124 15.1162 21.2982 15.702C21.884 16.2878 21.884 17.2376 21.2982 17.8234L17.0607 22.0609C16.4749 22.6466 15.5251 22.6466 14.9394 22.0609L10.7019 17.8234C10.1161 17.2376 10.1161 16.2878 10.7019 15.702C11.2876 15.1162 12.2374 15.1162 12.8232 15.702L14.5 17.3789V11Z" fill="white"/>
</svg>
