<svg width="32" height="32" viewBox="0 0 32 32" fill="none" xmlns="http://www.w3.org/2000/svg">
<path d="M17.9392 14.0607C18.083 14.2045 18.2487 14.313 18.4257 14.3862C18.6012 14.459 18.7986 14.4994 19.0003 14.5H23.9998C24.8283 14.5 25.4998 13.8284 25.4998 13C25.4998 12.1716 24.8283 11.5 23.9998 11.5L22.6212 11.5L27.0605 7.06066C27.6463 6.47487 27.6463 5.52513 27.0605 4.93934C26.4747 4.35355 25.525 4.35355 24.9392 4.93934L20.4998 9.37868L20.4998 8C20.4998 7.17157 19.8283 6.5 18.9998 6.5C18.1714 6.5 17.4998 7.17157 17.4998 8L17.4999 13.0138C17.5017 13.2116 17.5417 13.4001 17.613 13.5725C17.6862 13.7501 17.7949 13.9164 17.9392 14.0607Z" fill="white"/>
<path d="M17.9392 17.944C17.7954 18.0879 17.6869 18.2536 17.6137 18.4305C17.5409 18.6061 17.5004 18.8035 17.4998 19.0052V24.0047C17.4998 24.8331 18.1714 25.5047 18.9998 25.5047C19.8283 25.5047 20.4998 24.8331 20.4998 24.0047V22.626L24.9392 27.0654C25.525 27.6512 26.4747 27.6512 27.0605 27.0654C27.6463 26.4796 27.6463 25.5298 27.0605 24.944L22.6212 20.5047H23.9998C24.8283 20.5047 25.4998 19.8331 25.4998 19.0047C25.4998 18.1763 24.8283 17.5047 23.9998 17.5047L18.986 17.5048C18.7883 17.5066 18.5997 17.5466 18.4273 17.6179C18.2498 17.6911 18.0834 17.7998 17.9392 17.944Z" fill="white"/>
<path d="M14.0631 14.0607C13.9193 14.2045 13.7535 14.313 13.5766 14.3862C13.4011 14.459 13.2037 14.4994 13.0019 14.5H8.00244C7.17401 14.5 6.50244 13.8284 6.50244 13C6.50244 12.1716 7.17401 11.5 8.00244 11.5L9.38112 11.5L4.94178 7.06066C4.356 6.47487 4.35599 5.52513 4.94178 4.93934C5.52757 4.35355 6.47732 4.35355 7.0631 4.93934L11.5024 9.37868L11.5024 8C11.5024 7.17157 12.174 6.5 13.0024 6.5C13.8309 6.5 14.5024 7.17157 14.5024 8L14.5024 13.0138C14.5006 13.2116 14.4606 13.4001 14.3893 13.5725C14.3161 13.7501 14.2074 13.9164 14.0631 14.0607Z" fill="white"/>
<path d="M14.0631 17.944C14.2069 18.0879 14.3154 18.2536 14.3886 18.4305C14.4614 18.6061 14.5019 18.8035 14.5024 19.0052V24.0047C14.5024 24.8331 13.8309 25.5047 13.0024 25.5047C12.174 25.5047 11.5024 24.8331 11.5024 24.0047V22.626L7.0631 27.0654C6.47732 27.6512 5.52757 27.6512 4.94178 27.0654C4.356 26.4796 4.356 25.5298 4.94178 24.944L9.38112 20.5047H8.00244C7.17402 20.5047 6.50244 19.8331 6.50244 19.0047C6.50244 18.1763 7.17402 17.5047 8.00244 17.5047L13.0163 17.5048C13.214 17.5066 13.4026 17.5466 13.575 17.6179C13.7525 17.6911 13.9188 17.7998 14.0631 17.944Z" fill="white"/>
</svg>
