<svg width="32" height="32" viewBox="0 0 32 32" fill="none" xmlns="http://www.w3.org/2000/svg">
<path d="M5.93934 10.9393C6.52513 10.3536 7.47487 10.3536 8.06066 10.9393C8.64645 11.5251 8.64645 12.4749 8.06066 13.0607L6.62132 14.5H25.3787L23.9393 13.0607C23.3536 12.4749 23.3536 11.5251 23.9393 10.9393C24.5251 10.3536 25.4749 10.3536 26.0607 10.9393L30.0607 14.9393C30.2049 15.0835 30.3136 15.2498 30.3868 15.4273C30.4581 15.5997 30.4981 15.7884 30.4999 15.9862L30.5 16L30.4999 16.0138C30.4981 16.2116 30.4581 16.4001 30.3869 16.5725C30.3137 16.7501 30.2049 16.9164 30.0607 17.0607L26.0607 21.0607C25.4749 21.6464 24.5251 21.6464 23.9393 21.0607C23.3536 20.4749 23.3536 19.5251 23.9393 18.9393L25.3787 17.5H6.62132L8.06066 18.9393C8.64645 19.5251 8.64645 20.4749 8.06066 21.0607C7.47487 21.6464 6.52513 21.6464 5.93934 21.0607L1.93999 17.0613L1.93616 17.0575C1.66658 16.7863 1.5 16.4126 1.5 16C1.5 15.5874 1.66658 15.2137 1.93616 14.9425L1.93999 14.9387L5.93934 10.9393Z" fill="white"/>
</svg>
