<svg width="32" height="32" viewBox="0 0 32 32" fill="none" xmlns="http://www.w3.org/2000/svg">
<path d="M20 8.00004C20 7.59558 19.7564 7.23095 19.3827 7.07616C19.009 6.92138 18.5789 7.00694 18.2929 7.29294L10.2929 15.2929C9.90237 15.6835 9.90237 16.3166 10.2929 16.7072L18.2929 24.7072C18.5789 24.9931 19.009 25.0787 19.3827 24.9239C19.7564 24.7691 20 24.4045 20 24V8.00004Z" fill="white"/>
<path fill-rule="evenodd" clip-rule="evenodd" d="M17.9393 6.93938C18.3683 6.51039 19.0135 6.38205 19.574 6.61422C20.1345 6.8464 20.5 7.39335 20.5 8.00004V24C20.5 24.6067 20.1345 25.1537 19.574 25.3859C19.0135 25.618 18.3683 25.4897 17.9393 25.0607L9.93934 17.0607C9.35355 16.4749 9.35355 15.5252 9.93934 14.9394L17.9393 6.93938ZM19.1913 7.5381C19.0045 7.46071 18.7894 7.50349 18.6464 7.64649L10.6464 15.6465C10.4512 15.8418 10.4512 16.1583 10.6464 16.3536L18.6464 24.3536C18.7894 24.4966 19.0045 24.5394 19.1913 24.462C19.3782 24.3846 19.5 24.2023 19.5 24V8.00004C19.5 7.79781 19.3782 7.61549 19.1913 7.5381Z" fill="white"/>
</svg>
