<svg width="100%" height="100%" viewBox="0 0 12 12" fill="gray" xmlns="http://www.w3.org/2000/svg">
<g id="icon/arrow_upright">
<path id="icon" d="M9.39775 2.60225L9.39655 2.60106C9.3429 2.54772 9.28117 2.50743 9.21532 2.48018C9.14899 2.45268 9.07627 2.4375 9 2.4375H4.125C3.81434 2.4375 3.5625 2.68934 3.5625 3C3.5625 3.31066 3.81434 3.5625 4.125 3.5625H7.642L2.60225 8.60225C2.38258 8.82192 2.38258 9.17808 2.60225 9.39775C2.82192 9.61742 3.17808 9.61742 3.39775 9.39775L8.4375 4.358V7.875C8.4375 8.18566 8.68934 8.4375 9 8.4375C9.31066 8.4375 9.5625 8.18566 9.5625 7.875V3C9.5625 2.92373 9.54732 2.85101 9.51982 2.78468C9.49237 2.71834 9.45168 2.65618 9.39775 2.60225Z"/>
</g>
</svg>
