<svg width="32" height="32" viewBox="0 0 32 32" fill="none" xmlns="http://www.w3.org/2000/svg">
<path d="M14 17.9393C13.4142 17.3536 12.4645 17.3536 11.8787 17.9393L7.43934 22.3787V21C7.43934 20.1716 6.76777 19.5 5.93934 19.5C5.11091 19.5 4.43934 20.1716 4.43934 21L4.4394 26.0138C4.44119 26.2114 4.48117 26.3999 4.55232 26.5722C4.62553 26.7498 4.73431 26.9163 4.87868 27.0607C5.02304 27.205 5.18951 27.3138 5.36719 27.387C5.53948 27.4582 5.72792 27.4981 5.92549 27.4999L5.93934 27.5H10.9393C11.7678 27.5 12.4393 26.8284 12.4393 26C12.4393 25.1716 11.7678 24.5 10.9393 24.5H9.56066L14 20.0607C14.5858 19.4749 14.5858 18.5251 14 17.9393Z" fill="white"/>
<path d="M4.93639 4.94253C4.66681 5.21372 4.50023 5.5874 4.50023 6V11C4.50023 11.8284 5.1718 12.5 6.00023 12.5C6.82866 12.5 7.50023 11.8284 7.50023 11V9.62132L11.9396 14.0607C12.5254 14.6464 13.4751 14.6464 14.0609 14.0607C14.6467 13.4749 14.6467 12.5251 14.0609 11.9393L9.62155 7.5H11.0002C11.8287 7.5 12.5002 6.82843 12.5002 6C12.5002 5.17157 11.8287 4.5 11.0002 4.5L5.99573 4.50001C5.61474 4.50114 5.22773 4.65289 4.93639 4.94253Z" fill="white"/>
<path d="M20.0609 17.9393C19.4751 17.3536 18.5254 17.3536 17.9396 17.9393C17.3538 18.5251 17.3538 19.4749 17.9396 20.0607L22.3789 24.5H21.0002C20.1718 24.5 19.5002 25.1716 19.5002 26C19.5002 26.8284 20.1718 27.5 21.0002 27.5H26.0002L26.0141 27.4999C26.2116 27.4981 26.4001 27.4582 26.5724 27.387C26.7501 27.3138 26.9165 27.205 27.0609 27.0607C27.2053 26.9163 27.314 26.7498 27.3872 26.5722L27.5002 26.0138L27.5002 21C27.5002 20.1716 26.8287 19.5 26.0002 19.5C25.1718 19.5 24.5002 20.1716 24.5002 21V22.3787L20.0609 17.9393Z" fill="white"/>
<path d="M27.0609 4.93934C26.9171 4.79553 26.7513 4.68702 26.5744 4.61382C26.3988 4.54102 26.2015 4.50059 25.9997 4.5H21.0002C20.1718 4.5 19.5002 5.17157 19.5002 6C19.5002 6.82843 20.1718 7.5 21.0002 7.5H22.3789L17.9396 11.9393C17.3538 12.5251 17.3538 13.4749 17.9396 14.0607C18.5254 14.6464 19.4751 14.6464 20.0609 14.0607L24.5002 9.62132V11C24.5002 11.8284 25.1718 12.5 26.0002 12.5C26.8287 12.5 27.5002 11.8284 27.5002 11L27.5002 5.98615C27.4984 5.78844 27.4583 5.59986 27.3871 5.42746C27.3139 5.24993 27.2051 5.0836 27.0609 4.93934Z" fill="white"/>
</svg>
