<svg width="32" height="32" viewBox="0 0 32 32" fill="none" xmlns="http://www.w3.org/2000/svg">
<path d="M20.9393 3.93934C21.5251 3.35355 22.4749 3.35355 23.0607 3.93934L29.0607 9.93934C29.2049 10.0836 29.3136 10.2499 29.3868 10.4274C29.4581 10.5998 29.4981 10.7884 29.4999 10.9862L29.5 11L29.4999 11.0138C29.4981 11.2116 29.4581 11.4002 29.3868 11.5726C29.3136 11.7501 29.2049 11.9164 29.0607 12.0607L23.0607 18.0607C22.4749 18.6464 21.5251 18.6464 20.9393 18.0607C20.3536 17.4749 20.3536 16.5251 20.9393 15.9393L24.3787 12.5H11C9.54131 12.5 8.14236 13.0795 7.11091 14.1109C6.07946 15.1424 5.5 16.5413 5.5 18C5.5 19.4587 6.07946 20.8576 7.11091 21.8891C8.14236 22.9205 9.54131 23.5 11 23.5H22C22.8284 23.5 23.5 24.1716 23.5 25C23.5 25.8284 22.8284 26.5 22 26.5H11C8.74566 26.5 6.58365 25.6045 4.98959 24.0104C3.39553 22.4163 2.5 20.2543 2.5 18C2.5 15.7457 3.39553 13.5837 4.98959 11.9896C6.58365 10.3955 8.74566 9.5 11 9.5H24.3787L20.9393 6.06066C20.3536 5.47487 20.3536 4.52513 20.9393 3.93934Z" fill="white"/>
</svg>
