<svg width="32" height="33" viewBox="0 0 32 33" fill="none" xmlns="http://www.w3.org/2000/svg">
<path d="M27.5742 4.11382C27.7511 4.18702 27.9168 4.29553 28.0607 4.43934C28.2049 4.58353 28.3135 4.74977 28.3868 4.92721C28.4581 5.09968 28.4981 5.28834 28.4999 5.48615L28.5 5.5V5.50208V13C28.5 13.8284 27.8284 14.5 27 14.5C26.1716 14.5 25.5 13.8284 25.5 13V9.12132L19.0607 15.5607C18.4749 16.1464 17.5251 16.1464 16.9393 15.5607C16.3536 14.9749 16.3536 14.0251 16.9393 13.4393L23.3787 7H19.5C18.6716 7 18 6.32843 18 5.5C18 4.67157 18.6716 4 19.5 4H26.9996C27.203 4 27.3973 4.04048 27.5742 4.11382Z" fill="white"/>
<path d="M4.23223 8.73223C4.70107 8.26339 5.33696 8 6 8H14C14.8284 8 15.5 8.67157 15.5 9.5C15.5 10.3284 14.8284 11 14 11H6.5V26H21.5V18.5C21.5 17.6716 22.1716 17 23 17C23.8284 17 24.5 17.6716 24.5 18.5V26.5C24.5 27.163 24.2366 27.7989 23.7678 28.2678C23.2989 28.7366 22.663 29 22 29H6C5.33696 29 4.70108 28.7366 4.23223 28.2678C3.76339 27.7989 3.5 27.163 3.5 26.5V10.5C3.5 9.83696 3.76339 9.20107 4.23223 8.73223Z" fill="white"/>
</svg>
