<svg width="32" height="32" viewBox="0 0 32 32" fill="none" xmlns="http://www.w3.org/2000/svg">
<path fill-rule="evenodd" clip-rule="evenodd" d="M7 8C7 7.44772 7.44772 7 8 7H21C21.5523 7 22 7.44772 22 8C22 8.55228 21.5523 9 21 9H9V21C9 21.5523 8.55228 22 8 22C7.44772 22 7 21.5523 7 21V8Z" fill="white"/>
<path fill-rule="evenodd" clip-rule="evenodd" d="M7.29289 7.29289C7.68342 6.90237 8.31658 6.90237 8.70711 7.29289L24.7071 23.2929C25.0976 23.6834 25.0976 24.3166 24.7071 24.7071C24.3166 25.0976 23.6834 25.0976 23.2929 24.7071L7.29289 8.70711C6.90237 8.31658 6.90237 7.68342 7.29289 7.29289Z" fill="white"/>
<path fill-rule="evenodd" clip-rule="evenodd" d="M8 7.5C7.99996 7.5 8.00004 7.5 8 7.5C7.93487 7.5 7.86974 7.51265 7.80861 7.53794C7.7475 7.56328 7.6925 7.60039 7.64645 7.64645C7.60039 7.6925 7.56328 7.7475 7.53794 7.80861C7.51265 7.86974 7.5 7.93487 7.5 8C7.5 7.99996 7.5 8.00004 7.5 8C7.50003 8.12792 7.54885 8.25595 7.64645 8.35355L8.5 9.20711V9C8.5 8.72386 8.72386 8.5 9 8.5H9.20711L8.35355 7.64645C8.25595 7.54885 8.12792 7.50003 8 7.5ZM10.6213 8.5L9.62132 7.5H21C21.2761 7.5 21.5 7.72386 21.5 8C21.5 8.27614 21.2761 8.5 21 8.5H10.6213ZM11.6213 9.5H21C21.8284 9.5 22.5 8.82843 22.5 8C22.5 7.17157 21.8284 6.5 21 6.5H8.00037C8.00025 6.5 8.0005 6.5 8.00037 6.5C7.61649 6.5 7.23223 6.64645 6.93934 6.93934C6.64645 7.23223 6.5 7.61612 6.5 8C6.5 7.99988 6.5 8.00012 6.5 8V21C6.5 21.8284 7.17157 22.5 8 22.5C8.82843 22.5 9.5 21.8284 9.5 21V11.6213L22.9393 25.0607C23.5251 25.6464 24.4749 25.6464 25.0607 25.0607C25.6464 24.4749 25.6464 23.5251 25.0607 22.9393L11.6213 9.5ZM10.2071 9.5H9.5V10.2071L23.6464 24.3536C23.8417 24.5488 24.1583 24.5488 24.3536 24.3536C24.5488 24.1583 24.5488 23.8417 24.3536 23.6464L10.2071 9.5ZM8.5 10.6213L7.5 9.62132V21C7.5 21.2761 7.72386 21.5 8 21.5C8.27614 21.5 8.5 21.2761 8.5 21V10.6213Z" fill="white"/>
</svg>
