<svg width="32" height="32" viewBox="0 0 32 32" fill="none" xmlns="http://www.w3.org/2000/svg">
<path d="M14.4998 5C14.4998 4.17157 15.1714 3.5 15.9998 3.5C16.8282 3.5 17.4998 4.17157 17.4998 5V27C17.4998 27.8284 16.8282 28.5 15.9998 28.5C15.1714 28.5 14.4998 27.8284 14.4998 27V5Z" fill="white"/>
<path d="M4.93916 10.9393C5.52495 10.3536 6.47469 10.3536 7.06048 10.9393C7.64626 11.5251 7.64626 12.4749 7.06048 13.0607L5.62114 14.5H11.9998C12.8282 14.5 13.4998 15.1716 13.4998 16C13.4998 16.8284 12.8282 17.5 11.9998 17.5H5.62114L7.06048 18.9393C7.64627 19.5251 7.64626 20.4749 7.06048 21.0607C6.47469 21.6464 5.52495 21.6464 4.93916 21.0607L0.938426 17.0599L0.929472 17.0509C0.791148 16.91 0.685638 16.7477 0.613831 16.5743C0.540799 16.3981 0.504984 16.2014 0.504395 16.0006C0.50559 15.5933 0.665202 15.2183 0.92943 14.9492L0.931218 14.9473L0.93843 14.9401L0.93987 14.9386L4.93916 10.9393Z" fill="white"/>
<path d="M24.9392 10.9393C25.5249 10.3536 26.4747 10.3536 27.0605 10.9393L31.0613 14.9401L31.0685 14.9474L31.0702 14.9491C31.2086 15.0901 31.3141 15.2525 31.386 15.4261C31.4589 15.6022 31.4992 15.7948 31.4998 15.9955L31.4998 15.9994V16.0006L31.4998 16.0036C31.4986 16.411 31.3344 16.7817 31.0702 17.0508L31.0684 17.0526L31.0612 17.0599L31.0598 17.0614L27.0605 21.0607C26.4747 21.6464 25.5249 21.6464 24.9392 21.0607C24.3534 20.4749 24.3534 19.5251 24.9392 18.9393L26.3785 17.5H19.9998C19.1714 17.5 18.4998 16.8284 18.4998 16C18.4998 15.1716 19.1714 14.5 19.9998 14.5H26.3785L24.9392 13.0607C24.3534 12.4749 24.3534 11.5251 24.9392 10.9393Z" fill="white"/>
</svg>
