<svg width="32" height="32" viewBox="0 0 32 32" fill="none" xmlns="http://www.w3.org/2000/svg">
<path d="M10.9393 26.0607C10.3536 25.4749 10.3536 24.5251 10.9393 23.9393C11.5251 23.3536 12.4749 23.3536 13.0607 23.9393L14.5 25.3787V6.62132L13.0607 8.06066C12.4749 8.64645 11.5251 8.64645 10.9393 8.06066C10.3536 7.47487 10.3536 6.52513 10.9393 5.93934L14.9393 1.93934C15.0835 1.79514 15.2498 1.68643 15.4273 1.61323C15.5997 1.54192 15.7884 1.50185 15.9862 1.50006L16 1.5L16.0138 1.50006C16.2116 1.50185 16.4001 1.54189 16.5725 1.61314C16.7501 1.68635 16.9164 1.79508 17.0607 1.93934L21.0607 5.93934C21.6464 6.52513 21.6464 7.47487 21.0607 8.06066C20.4749 8.64645 19.5251 8.64645 18.9393 8.06066L17.5 6.62132V25.3787L18.9393 23.9393C19.5251 23.3536 20.4749 23.3536 21.0607 23.9393C21.6464 24.5251 21.6464 25.4749 21.0607 26.0607L17.0613 30.06L17.0575 30.0638C16.7863 30.3334 16.4126 30.5 16 30.5C15.5874 30.5 15.2137 30.3334 14.9425 30.0638L14.9387 30.06L10.9393 26.0607Z" fill="white"/>
</svg>
