<svg width="32" height="32" viewBox="0 0 32 32" fill="none" xmlns="http://www.w3.org/2000/svg">
<path fill-rule="evenodd" clip-rule="evenodd" d="M16 29.5C23.4558 29.5 29.5 23.4558 29.5 16C29.5 8.54416 23.4558 2.5 16 2.5C8.54416 2.5 2.5 8.54416 2.5 16C2.5 23.4558 8.54416 29.5 16 29.5ZM16 26.5C21.799 26.5 26.5 21.799 26.5 16C26.5 10.201 21.799 5.5 16 5.5C10.201 5.5 5.5 10.201 5.5 16C5.5 21.799 10.201 26.5 16 26.5ZM11.4393 20.5607C12.0251 21.1464 12.9749 21.1464 13.5607 20.5607L18 16.1213V18.5C18 19.3284 18.6716 20 19.5 20C20.3284 20 21 19.3284 21 18.5V12.5C21 12.4878 20.9999 12.4756 20.9996 12.4634C20.9951 12.2802 20.9573 12.0978 20.8862 11.9258C20.813 11.7489 20.7045 11.5832 20.5607 11.4393C20.2922 11.1709 19.9226 11.0038 19.5138 11.0001L19.4979 11H13.5C12.6716 11 12 11.6716 12 12.5C12 13.3284 12.6716 14 13.5 14H15.8787L11.4393 18.4393C10.8536 19.0251 10.8536 19.9749 11.4393 20.5607Z" fill="white"/>
</svg>
