<svg width="32" height="32" viewBox="0 0 32 32" fill="none" xmlns="http://www.w3.org/2000/svg">
<path fill-rule="evenodd" clip-rule="evenodd" d="M10 8C10 7.44772 10.4477 7 11 7H24C24.5523 7 25 7.44772 25 8V21C25 21.5523 24.5523 22 24 22C23.4477 22 23 21.5523 23 21V9H11C10.4477 9 10 8.55228 10 8Z" fill="white"/>
<path fill-rule="evenodd" clip-rule="evenodd" d="M24.7071 7.29289C25.0976 7.68342 25.0976 8.31658 24.7071 8.70711L8.70711 24.7071C8.31658 25.0976 7.68342 25.0976 7.29289 24.7071C6.90237 24.3166 6.90237 23.6834 7.29289 23.2929L23.2929 7.29289C23.6834 6.90237 24.3166 6.90237 24.7071 7.29289Z" fill="white"/>
<path fill-rule="evenodd" clip-rule="evenodd" d="M25.0607 6.93934C25.0596 6.93828 25.0585 6.93722 25.0575 6.93616C24.9144 6.79393 24.7498 6.68648 24.5742 6.61382C24.3973 6.54048 24.2034 6.5 24 6.5H11C10.1716 6.5 9.5 7.17157 9.5 8C9.5 8.82843 10.1716 9.5 11 9.5H20.3787L6.93934 22.9393C6.35355 23.5251 6.35355 24.4749 6.93934 25.0607C7.52513 25.6464 8.47487 25.6464 9.06066 25.0607L22.5 11.6213V21C22.5 21.8284 23.1716 22.5 24 22.5C24.8284 22.5 25.5 21.8284 25.5 21V8C25.5 7.79662 25.4595 7.60268 25.3862 7.42582C25.313 7.24891 25.2045 7.08315 25.0607 6.93934ZM24.5 8.00098C24.4998 8.12861 24.4509 8.25617 24.3536 8.35355L23.5 9.20711V9C23.5 8.72386 23.2761 8.5 23 8.5H22.7929L23.6464 7.64645C23.744 7.54886 23.8719 7.50005 23.9998 7.5C23.9998 7.5 23.9999 7.5 23.9998 7.5C24.0649 7.5 24.1303 7.51265 24.1914 7.53794C24.3699 7.61196 24.4962 7.78639 24.4999 7.99077M22.3787 7.5L21.3787 8.5H11C10.7239 8.5 10.5 8.27614 10.5 8C10.5 7.72386 10.7239 7.5 11 7.5H22.3787ZM21.7929 9.5L7.64645 23.6464C7.45119 23.8417 7.45118 24.1583 7.64645 24.3536C7.84171 24.5488 8.15829 24.5488 8.35355 24.3536L22.5 10.2071V9.5H21.7929ZM23.5 10.6213L24.5 9.62132V21C24.5 21.2761 24.2761 21.5 24 21.5C23.7239 21.5 23.5 21.2761 23.5 21V10.6213Z" fill="white"/>
</svg>
