<svg width="32" height="32" viewBox="0 0 32 32" fill="none" xmlns="http://www.w3.org/2000/svg">
<path d="M16.5742 3.61382C16.7498 3.68648 16.9144 3.79393 17.0575 3.93616L17.0607 3.93934L26.0607 12.9393C26.6464 13.5251 26.6464 14.4749 26.0607 15.0607C25.4749 15.6464 24.5251 15.6464 23.9393 15.0607L17.5 8.62132L17.5 27C17.5 27.8284 16.8284 28.5 16 28.5C15.1716 28.5 14.5 27.8284 14.5 27L14.5 8.62132L8.06066 15.0607C7.47487 15.6464 6.52513 15.6464 5.93934 15.0607C5.35355 14.4749 5.35355 13.5251 5.93934 12.9393L14.9393 3.93934C15.2287 3.64997 15.6069 3.50354 15.9862 3.50006L16 3.5L16.0138 3.50006C16.2122 3.50186 16.4013 3.54214 16.5742 3.61382Z" fill="white"/>
</svg>
