<svg width="32" height="32" viewBox="0 0 32 32" fill="none" xmlns="http://www.w3.org/2000/svg">
<path d="M17.5 28C17.5 28.8284 16.8284 29.5 16 29.5C15.1716 29.5 14.5 28.8284 14.5 28L14.5 12.6213L8.06066 19.0607C7.47487 19.6464 6.52513 19.6464 5.93934 19.0607C5.35355 18.4749 5.35355 17.5251 5.93934 16.9393L14.9393 7.93934C15.0836 7.79507 15.25 7.68633 15.4275 7.61313C15.5999 7.54188 15.8161 7.50185 16.0138 7.50006C16.3931 7.50354 16.7713 7.64997 17.0607 7.93934L26.0607 16.9393C26.6464 17.5251 26.6464 18.4749 26.0607 19.0607C25.4749 19.6464 24.5251 19.6464 23.9393 19.0607L17.5 12.6213L17.5 28Z" fill="white"/>
<path d="M28.5 5C28.5 5.82843 27.8284 6.5 27 6.5L5 6.5C4.17158 6.5 3.5 5.82843 3.5 5C3.5 4.17157 4.17158 3.5 5 3.5L27 3.5C27.8284 3.5 28.5 4.17157 28.5 5Z" fill="white"/>
</svg>
