<svg width="32" height="32" viewBox="0 0 32 32" fill="none" xmlns="http://www.w3.org/2000/svg">
<path fill-rule="evenodd" clip-rule="evenodd" d="M16.7071 19.2929C17.0976 19.6834 17.0976 20.3166 16.7071 20.7071L10.7071 26.7071C10.3166 27.0976 9.68342 27.0976 9.29289 26.7071L3.29289 20.7071C2.90237 20.3166 2.90237 19.6834 3.29289 19.2929C3.68342 18.9024 4.31658 18.9024 4.70711 19.2929L10 24.5858L15.2929 19.2929C15.6834 18.9024 16.3166 18.9024 16.7071 19.2929Z" fill="white"/>
<path fill-rule="evenodd" clip-rule="evenodd" d="M29 8C29 8.55228 28.5523 9 28 9L11 9L11 26C11 26.5523 10.5523 27 10 27C9.44772 27 9 26.5523 9 26L9 8C9 7.44771 9.44772 7 10 7L28 7C28.5523 7 29 7.44772 29 8Z" fill="white"/>
<path fill-rule="evenodd" clip-rule="evenodd" d="M28 6.5C28.8284 6.5 29.5 7.17157 29.5 8C29.5 8.82843 28.8284 9.5 28 9.5L11.5 9.5L11.5 22.3787L14.9393 18.9393C15.5251 18.3536 16.4749 18.3536 17.0607 18.9393C17.6464 19.5251 17.6464 20.4749 17.0607 21.0607L11.0607 27.0607C10.9163 27.205 10.7498 27.3138 10.5722 27.387C10.3999 27.4582 10.2114 27.4981 10.0138 27.4999C10.0092 27.5 10.0046 27.5 10 27.5C9.99538 27.5 9.99076 27.5 9.98615 27.4999C9.78858 27.4981 9.60014 27.4582 9.42785 27.387C9.25017 27.3138 9.0837 27.205 8.93934 27.0607L2.93934 21.0607C2.35355 20.4749 2.35355 19.5251 2.93934 18.9393C3.52512 18.3536 4.47487 18.3536 5.06066 18.9393L8.5 22.3787L8.5 8C8.5 7.17157 9.17157 6.5 10 6.5L28 6.5ZM8.5 23.7929L4.35355 19.6464C4.15829 19.4512 3.84171 19.4512 3.64645 19.6464C3.45118 19.8417 3.45118 20.1583 3.64645 20.3536L8.5 25.2071L8.5 23.7929ZM9.80861 26.4621C9.62743 26.3869 9.5 26.2083 9.5 26L9.5 24.7929L9.64645 24.9393C9.74021 25.0331 9.86739 25.0858 10 25.0858C10.1326 25.0858 10.2598 25.0331 10.3536 24.9393L10.5 24.7929L10.5 26C10.5 26.2083 10.3726 26.3869 10.1914 26.4621C10.1331 26.4862 10.0713 26.4988 10.0092 26.4999M11.5 25.2071L16.3536 20.3536C16.5488 20.1583 16.5488 19.8417 16.3536 19.6464C16.1583 19.4512 15.8417 19.4512 15.6464 19.6464L11.5 23.7929L11.5 25.2071ZM10.5 23.3787L10 23.8787L9.5 23.3787L9.5 8C9.5 7.72386 9.72386 7.5 10 7.5L28 7.5C28.2761 7.5 28.5 7.72386 28.5 8C28.5 8.27614 28.2761 8.5 28 8.5L11 8.5C10.7239 8.5 10.5 8.72386 10.5 9L10.5 23.3787ZM9.80861 26.4621C9.86223 26.4842 9.91893 26.4967 9.97601 26.4994C9.984 26.4998 9.992 26.5 10 26.5" fill="white"/>
</svg>
