<svg width="32" height="32" viewBox="0 0 32 32" fill="none" xmlns="http://www.w3.org/2000/svg">
<path fill-rule="evenodd" clip-rule="evenodd" d="M2 10C2 9.44772 2.44772 9 3 9H12C12.5523 9 13 9.44772 13 10C13 10.5523 12.5523 11 12 11H4V19C4 19.5523 3.55228 20 3 20C2.44772 20 2 19.5523 2 19V10Z" fill="white"/>
<path fill-rule="evenodd" clip-rule="evenodd" d="M2.29289 9.29289C2.68342 8.90237 3.31658 8.90237 3.70711 9.29289L17 22.5858L28.2929 11.2929C28.6834 10.9024 29.3166 10.9024 29.7071 11.2929C30.0976 11.6834 30.0976 12.3166 29.7071 12.7071L17.7071 24.7071C17.3166 25.0976 16.6834 25.0976 16.2929 24.7071L2.29289 10.7071C1.90237 10.3166 1.90237 9.68342 2.29289 9.29289Z" fill="white"/>
<path fill-rule="evenodd" clip-rule="evenodd" d="M2.42582 8.61382C2.60268 8.54048 2.79662 8.5 3 8.5C2.99993 8.5 3.00007 8.5 3 8.5H12C12.8284 8.5 13.5 9.17157 13.5 10C13.5 10.8284 12.8284 11.5 12 11.5H6.62132L17 21.8787L27.9393 10.9393C28.5251 10.3536 29.4749 10.3536 30.0607 10.9393C30.6464 11.5251 30.6464 12.4749 30.0607 13.0607L18.0607 25.0607C17.4749 25.6464 16.5251 25.6464 15.9393 25.0607L4.5 13.6213V19C4.5 19.8284 3.82843 20.5 3 20.5C2.17157 20.5 1.5 19.8284 1.5 19V10.0002C1.5 10.0001 1.5 10.0003 1.5 10.0002C1.5 9.61634 1.64645 9.23223 1.93934 8.93934C2.0775 8.80118 2.24249 8.68984 2.42582 8.61382ZM2.5 10.0001C2.50003 10.128 2.54885 10.256 2.64645 10.3536L3.5 11.2071V11C3.5 10.7239 3.72386 10.5 4 10.5H4.20711L3.35355 9.64645C3.25595 9.54885 3.12804 9.50003 3.00012 9.5C3.00008 9.5 3.00016 9.5 3.00012 9.5C2.86205 9.5 2.73693 9.55596 2.64645 9.64645C2.59851 9.69439 2.56234 9.74964 2.53794 9.80861C2.51349 9.86756 2.5 9.93233 2.5 10.0001C2.5 9.93499 2.51265 9.86974 2.53794 9.80861C2.56328 9.7475 2.60039 9.6925 2.64645 9.64645M4.62132 9.5L5.62132 10.5H12C12.2761 10.5 12.5 10.2761 12.5 10C12.5 9.72386 12.2761 9.5 12 9.5H4.62132ZM2.5 11.6213V19C2.5 19.2761 2.72386 19.5 3 19.5C3.27614 19.5 3.5 19.2761 3.5 19V12.6213L2.5 11.6213ZM4.5 12.2071L16.6464 24.3536C16.8417 24.5488 17.1583 24.5488 17.3536 24.3536L29.3536 12.3536C29.5488 12.1583 29.5488 11.8417 29.3536 11.6464C29.1583 11.4512 28.8417 11.4512 28.6464 11.6464L17.3536 22.9393C17.2598 23.0331 17.1326 23.0858 17 23.0858C16.8674 23.0858 16.7402 23.0331 16.6464 22.9393L5.20711 11.5H4.5V12.2071Z" fill="white"/>
</svg>
