<svg width="32" height="32" viewBox="0 0 32 32" fill="none" xmlns="http://www.w3.org/2000/svg">
<path fill-rule="evenodd" clip-rule="evenodd" d="M14.7071 6.29289C15.0976 6.68342 15.0976 7.31658 14.7071 7.70711L6.41421 16L14.7071 24.2929C15.0976 24.6834 15.0976 25.3166 14.7071 25.7071C14.3166 26.0976 13.6834 26.0976 13.2929 25.7071L4.29289 16.7071C3.90237 16.3166 3.90237 15.6834 4.29289 15.2929L13.2929 6.29289C13.6834 5.90237 14.3166 5.90237 14.7071 6.29289Z" fill="white"/>
<path fill-rule="evenodd" clip-rule="evenodd" d="M28 16C28 16.5523 27.5523 17 27 17L5 17C4.44772 17 4 16.5523 4 16C4 15.4477 4.44772 15 5 15L27 15C27.5523 15 28 15.4477 28 16Z" fill="white"/>
<path fill-rule="evenodd" clip-rule="evenodd" d="M12.9393 5.93934C13.5251 5.35355 14.4749 5.35355 15.0607 5.93934C15.6464 6.52513 15.6464 7.47487 15.0607 8.06066L8.62132 14.5L27 14.5C27.8284 14.5 28.5 15.1716 28.5 16C28.5 16.8284 27.8284 17.5 27 17.5L8.62132 17.5L15.0607 23.9393C15.6464 24.5251 15.6464 25.4749 15.0607 26.0607C14.4749 26.6464 13.5251 26.6464 12.9393 26.0607L3.93934 17.0607C3.64997 16.7713 3.50354 16.3931 3.50006 16.0138C3.50002 16.0092 3.5 16.0046 3.5 16C3.5 15.9954 3.50002 15.9908 3.50006 15.9862C3.50353 15.6083 3.6489 15.2315 3.93616 14.9425L3.93934 14.9393L12.9393 5.93934ZM4.64689 15.646C4.73734 15.5558 4.86216 15.5 5 15.5H6.20711L6.06066 15.6464C5.96689 15.7402 5.91421 15.8674 5.91421 16C5.91421 16.1326 5.96689 16.2598 6.06066 16.3536L6.20711 16.5H5C4.79102 16.5 4.61198 16.3718 4.53725 16.1897C4.5136 16.132 4.50121 16.0707 4.50008 16.0092M5.79289 17.5L13.6464 25.3536C13.8417 25.5488 14.1583 25.5488 14.3536 25.3536C14.5488 25.1583 14.5488 24.8417 14.3536 24.6464L7.20711 17.5H5.79289ZM7.62132 16.5L27 16.5C27.2761 16.5 27.5 16.2761 27.5 16C27.5 15.7239 27.2761 15.5 27 15.5L7.62132 15.5L7.12132 16L7.62132 16.5ZM7.20711 14.5H5.79289L13.6464 6.64645C13.8417 6.45118 14.1583 6.45118 14.3536 6.64645C14.5488 6.84171 14.5488 7.15829 14.3536 7.35355L7.20711 14.5Z" fill="white"/>
</svg>
