<svg width="32" height="32" viewBox="0 0 32 32" fill="none" xmlns="http://www.w3.org/2000/svg">
<path d="M8.93934 28.0607C9.52513 28.6464 10.4749 28.6464 11.0607 28.0607C11.6464 27.4749 11.6464 26.5251 11.0607 25.9393L7.62132 22.5H21C23.2543 22.5 25.4163 21.6045 27.0104 20.0104C28.6045 18.4163 29.5 16.2543 29.5 14C29.5 11.7457 28.6045 9.58365 27.0104 7.98959C25.4163 6.39553 23.2543 5.5 21 5.5H10C9.17157 5.5 8.5 6.17157 8.5 7C8.5 7.82843 9.17157 8.5 10 8.5H21C22.4587 8.5 23.8576 9.07946 24.8891 10.1109C25.9205 11.1424 26.5 12.5413 26.5 14C26.5 15.4587 25.9205 16.8576 24.8891 17.8891C23.8576 18.9205 22.4587 19.5 21 19.5H7.62132L11.0607 16.0607C11.6464 15.4749 11.6464 14.5251 11.0607 13.9393C10.4749 13.3536 9.52513 13.3536 8.93934 13.9393L2.93934 19.9393L2.93616 19.9425C2.66658 20.2137 2.5 20.5874 2.5 21C2.5 21.4126 2.66658 21.7863 2.93616 22.0575L2.93934 22.0607L8.93934 28.0607Z" fill="white"/>
</svg>
