<svg width="32" height="32" viewBox="0 0 32 32" fill="none" xmlns="http://www.w3.org/2000/svg">
<path fill-rule="evenodd" clip-rule="evenodd" d="M8.5 6C8.5 5.17157 9.17157 4.5 10 4.5C10.8284 4.5 11.5 5.17157 11.5 6V22.3787L12.9393 20.9393C13.5251 20.3536 14.4749 20.3536 15.0607 20.9393C15.6464 21.5251 15.6464 22.4749 15.0607 23.0607L11.0607 27.0607C10.4749 27.6464 9.52513 27.6464 8.93934 27.0607L4.93934 23.0607C4.35355 22.4749 4.35355 21.5251 4.93934 20.9393C5.52513 20.3536 6.47487 20.3536 7.06066 20.9393L8.5 22.3787V6ZM20.9393 4.93934C21.5251 4.35355 22.4749 4.35355 23.0607 4.93934L27.0607 8.93934C27.6464 9.52513 27.6465 10.4749 27.0607 11.0607C26.4749 11.6464 25.5251 11.6464 24.9393 11.0607L23.5 9.62132V26C23.5 26.8284 22.8284 27.5 22 27.5C21.1716 27.5 20.5 26.8284 20.5 26V9.62132L19.0607 11.0607C18.4749 11.6464 17.5251 11.6464 16.9393 11.0607C16.3536 10.4749 16.3536 9.52513 16.9393 8.93934L20.9393 4.93934Z" fill="white"/>
</svg>
