<svg width="32" height="32" viewBox="0 0 32 32" fill="none" xmlns="http://www.w3.org/2000/svg">
<path fill-rule="evenodd" clip-rule="evenodd" d="M21.2929 25.7071C20.9024 25.3166 20.9024 24.6834 21.2929 24.2929L26.5858 19L21.2929 13.7071C20.9024 13.3166 20.9024 12.6834 21.2929 12.2929C21.6834 11.9024 22.3166 11.9024 22.7071 12.2929L28.7071 18.2929C29.0976 18.6834 29.0976 19.3166 28.7071 19.7071L22.7071 25.7071C22.3166 26.0976 21.6834 26.0976 21.2929 25.7071Z" fill="white"/>
<path fill-rule="evenodd" clip-rule="evenodd" d="M6.80761 16.1924C4.36964 13.7544 3 10.4478 3 7C3 6.44772 3.44772 6 4 6C4.55228 6 5 6.44772 5 7C5 9.91738 6.15892 12.7153 8.22182 14.7782C10.2847 16.8411 13.0826 18 16 18H28C28.5523 18 29 18.4477 29 19C29 19.5523 28.5523 20 28 20H16C12.5522 20 9.24558 18.6304 6.80761 16.1924Z" fill="white"/>
<path fill-rule="evenodd" clip-rule="evenodd" d="M6.45406 16.5459C3.92232 14.0142 2.5 10.5804 2.5 7C2.5 6.17157 3.17157 5.5 4 5.5C4.82843 5.5 5.5 6.17157 5.5 7C5.5 9.78477 6.60625 12.4555 8.57538 14.4246C10.5445 16.3938 13.2152 17.5 16 17.5H24.3787L20.9393 14.0607C20.3536 13.4749 20.3536 12.5251 20.9393 11.9393C21.5251 11.3536 22.4749 11.3536 23.0607 11.9393L29.0607 17.9393C29.2049 18.0836 29.3136 18.2499 29.3868 18.4274C29.4581 18.5998 29.4981 18.7884 29.4999 18.9862C29.5 18.9908 29.5 18.9954 29.5 19C29.5 19.0046 29.5 19.0092 29.4999 19.0138C29.4965 19.3931 29.35 19.7713 29.0607 20.0607L23.0607 26.0607C22.4749 26.6464 21.5251 26.6464 20.9393 26.0607C20.3536 25.4749 20.3536 24.5251 20.9393 23.9393L24.3787 20.5H16C12.4196 20.5 8.9858 19.0777 6.45406 16.5459ZM25.7929 20.5L21.6464 24.6464C21.4512 24.8417 21.4512 25.1583 21.6464 25.3536C21.8417 25.5488 22.1583 25.5488 22.3536 25.3536L27.2071 20.5H25.7929ZM26.7929 19.5L26.9393 19.3536C27.0331 19.2598 27.0858 19.1326 27.0858 19C27.0858 18.8674 27.0331 18.7402 26.9393 18.6464L26.7929 18.5H28C28.1381 18.5 28.2631 18.556 28.3536 18.6464C28.442 18.7349 28.4975 18.8564 28.4999 18.9908C28.5 18.9938 28.5 18.9969 28.5 19C28.5 19.0086 28.4998 19.0172 28.4993 19.0257C28.4964 19.0842 28.4834 19.1399 28.4621 19.1914C28.4367 19.2525 28.3996 19.3075 28.3536 19.3536C28.2631 19.444 28.1381 19.5 28 19.5H26.7929ZM27.2071 17.5L22.3536 12.6464C22.1583 12.4512 21.8417 12.4512 21.6464 12.6464C21.4512 12.8417 21.4512 13.1583 21.6464 13.3536L25.7929 17.5H27.2071ZM25.3787 18.5H16C12.95 18.5 10.0249 17.2884 7.86827 15.1317C5.7116 12.9751 4.5 10.05 4.5 7C4.5 6.72386 4.27614 6.5 4 6.5C3.72386 6.5 3.5 6.72386 3.5 7C3.5 10.3152 4.81696 13.4946 7.16116 15.8388C9.50537 18.183 12.6848 19.5 16 19.5H25.3787L25.8787 19L25.3787 18.5Z" fill="white"/>
</svg>
