<svg width="32" height="32" viewBox="0 0 32 32" fill="none" xmlns="http://www.w3.org/2000/svg">
<path d="M22.9393 6.93934C23.5251 6.35355 24.4749 6.35355 25.0607 6.93934C25.6464 7.52513 25.6464 8.47487 25.0607 9.06066L11.6213 22.5H21C21.8284 22.5 22.5 23.1716 22.5 24C22.5 24.8284 21.8284 25.5 21 25.5H8C7.61612 25.5 7.23223 25.3536 6.93934 25.0607L6.93616 25.0575C6.66658 24.7863 6.5 24.4126 6.5 24V11C6.5 10.1716 7.17157 9.5 8 9.5C8.82843 9.5 9.5 10.1716 9.5 11V20.3787L22.9393 6.93934Z" fill="white"/>
</svg>
