<svg width="32" height="32" viewBox="0 0 32 32" fill="none" xmlns="http://www.w3.org/2000/svg">
<path d="M7.42582 5.61382C7.60268 5.54048 7.79662 5.5 8 5.5H20.5C21.3284 5.5 22 6.17157 22 7C22 7.82843 21.3284 8.5 20.5 8.5H11.6213L23.0607 19.9393C23.6464 20.5251 23.6464 21.4749 23.0607 22.0607C22.4749 22.6464 21.5251 22.6464 20.9393 22.0607L9.5 10.6213V19.5C9.5 20.3284 8.82843 21 8 21C7.17157 21 6.5 20.3284 6.5 19.5V7.00042C6.50114 6.61804 6.64759 6.23109 6.93934 5.93934C7.08315 5.79553 7.24891 5.68702 7.42582 5.61382Z" fill="white"/>
<path d="M3.5 27C3.5 26.1716 4.17157 25.5 5 25.5H27C27.8284 25.5 28.5 26.1716 28.5 27C28.5 27.8284 27.8284 28.5 27 28.5H5C4.17157 28.5 3.5 27.8284 3.5 27Z" fill="white"/>
</svg>
