<svg width="32" height="32" viewBox="0 0 32 32" fill="none" xmlns="http://www.w3.org/2000/svg">
<path fill-rule="evenodd" clip-rule="evenodd" d="M14.2929 21.2929C14.6834 20.9024 15.3166 20.9024 15.7071 21.2929L21 26.5858L26.2929 21.2929C26.6834 20.9024 27.3166 20.9024 27.7071 21.2929C28.0976 21.6834 28.0976 22.3166 27.7071 22.7071L21.7071 28.7071C21.3166 29.0976 20.6834 29.0976 20.2929 28.7071L14.2929 22.7071C13.9024 22.3166 13.9024 21.6834 14.2929 21.2929Z" fill="white"/>
<path fill-rule="evenodd" clip-rule="evenodd" d="M14 5C12.4087 5 10.8826 5.63214 9.75736 6.75736C8.63214 7.88258 8 9.4087 8 11V22C8 22.5523 7.55228 23 7 23C6.44772 23 6 22.5523 6 22V11C6 8.87827 6.84286 6.84344 8.34315 5.34315C9.84344 3.84285 11.8783 3 14 3C16.1217 3 18.1566 3.84285 19.6569 5.34315C21.1571 6.84344 22 8.87827 22 11V28C22 28.5523 21.5523 29 21 29C20.4477 29 20 28.5523 20 28V11C20 9.4087 19.3679 7.88258 18.2426 6.75736C17.1174 5.63214 15.5913 5 14 5Z" fill="white"/>
<path fill-rule="evenodd" clip-rule="evenodd" d="M7.98959 4.98959C9.58365 3.39553 11.7457 2.5 14 2.5C16.2543 2.5 18.4163 3.39553 20.0104 4.98959C21.6045 6.58365 22.5 8.74566 22.5 11V24.3787L25.9393 20.9393C26.5251 20.3536 27.4749 20.3536 28.0607 20.9393C28.6464 21.5251 28.6464 22.4749 28.0607 23.0607L22.0607 29.0607C21.9165 29.2048 21.7503 29.3135 21.5729 29.3867C21.4004 29.4581 21.2117 29.4981 21.0138 29.4999C21.0092 29.5 21.0046 29.5 21 29.5C20.9954 29.5 20.9908 29.5 20.9862 29.4999C20.6069 29.4965 20.2287 29.35 19.9393 29.0607L13.9393 23.0607C13.3536 22.4749 13.3536 21.5251 13.9393 20.9393C14.5251 20.3536 15.4749 20.3536 16.0607 20.9393L19.5 24.3787V11C19.5 9.54131 18.9205 8.14236 17.8891 7.11091C16.8576 6.07946 15.4587 5.5 14 5.5C12.5413 5.5 11.1424 6.07946 10.1109 7.11091C9.07946 8.14236 8.5 9.54131 8.5 11V22C8.5 22.8284 7.82843 23.5 7 23.5C6.17157 23.5 5.5 22.8284 5.5 22V11C5.5 8.74566 6.39553 6.58365 7.98959 4.98959ZM19.5 25.7929L15.3536 21.6464C15.1583 21.4512 14.8417 21.4512 14.6464 21.6464C14.4512 21.8417 14.4512 22.1583 14.6464 22.3536L19.5 27.2071V25.7929ZM20.5 26.7929L20.6464 26.9393C20.7402 27.0331 20.8674 27.0858 21 27.0858C21.1326 27.0858 21.2598 27.0331 21.3536 26.9393L21.5 26.7929V28C21.5 28.1381 21.444 28.2631 21.3536 28.3536C21.2651 28.442 21.1436 28.4975 21.0092 28.4999C21.0062 28.5 21.0031 28.5 21 28.5C20.9914 28.5 20.9828 28.4998 20.9743 28.4993C20.9158 28.4964 20.8601 28.4834 20.8086 28.4621C20.7475 28.4367 20.6925 28.3996 20.6464 28.3536C20.556 28.2631 20.5 28.1381 20.5 28V26.7929ZM22.5 27.2071L27.3536 22.3536C27.5488 22.1583 27.5488 21.8417 27.3536 21.6464C27.1583 21.4512 26.8417 21.4512 26.6464 21.6464L22.5 25.7929V27.2071ZM21.5 25.3787V11C21.5 9.01088 20.7098 7.10322 19.3033 5.6967C17.8968 4.29018 15.9891 3.5 14 3.5C12.0109 3.5 10.1032 4.29018 8.6967 5.6967C7.29018 7.10322 6.5 9.01088 6.5 11V22C6.5 22.2761 6.72386 22.5 7 22.5C7.27614 22.5 7.5 22.2761 7.5 22V11C7.5 9.27609 8.18482 7.62279 9.40381 6.40381C10.6228 5.18482 12.2761 4.5 14 4.5C15.7239 4.5 17.3772 5.18482 18.5962 6.40381C19.8152 7.62279 20.5 9.27609 20.5 11V25.3787L21 25.8787L21.5 25.3787Z" fill="white"/>
</svg>
