<svg width="32" height="32" viewBox="0 0 32 32" fill="none" xmlns="http://www.w3.org/2000/svg">
<path fill-rule="evenodd" clip-rule="evenodd" d="M19.0607 5.93934L28.0607 14.9393L28.0704 14.9492C28.2094 15.0907 28.3146 15.2529 28.3862 15.4258C28.4579 15.5987 28.4981 15.7878 28.4999 15.9862L28.5 16L28.4999 16.0138C28.4981 16.2116 28.4581 16.4002 28.3868 16.5726C28.3136 16.7501 28.2049 16.9164 28.0607 17.0607L19.0607 26.0607C18.4749 26.6464 17.5251 26.6464 16.9393 26.0607C16.3536 25.4749 16.3536 24.5251 16.9393 23.9393L23.3787 17.5L5 17.5C4.17157 17.5 3.5 16.8284 3.5 16C3.5 15.1716 4.17157 14.5 5 14.5L23.3787 14.5L16.9393 8.06066C16.3536 7.47487 16.3536 6.52513 16.9393 5.93934C17.5251 5.35355 18.4749 5.35355 19.0607 5.93934ZM17.6464 6.64645C17.8417 6.45118 18.1583 6.45118 18.3536 6.64645L26.2071 14.5H24.7929L17.6464 7.35355C17.4512 7.15829 17.4512 6.84171 17.6464 6.64645ZM27.4994 16.024C27.4967 16.0811 27.4842 16.1378 27.4621 16.1914C27.3869 16.3726 27.2083 16.5 27 16.5H25.7929L25.9393 16.3536C26.0331 16.2598 26.0858 16.1326 26.0858 16C26.0858 15.8674 26.0331 15.7402 25.9393 15.6464L25.7929 15.5H27C27.1378 15.5 27.2625 15.5557 27.353 15.6459C27.4414 15.7343 27.4975 15.8564 27.4999 15.9908L27.5 16C27.5 16.008 27.4998 16.016 27.4994 16.024ZM26.2071 17.5H24.7929L17.6464 24.6464C17.4512 24.8417 17.4512 25.1583 17.6464 25.3536C17.8417 25.5488 18.1583 25.5488 18.3536 25.3536L26.2071 17.5ZM24.8787 16L24.3787 16.5L5 16.5C4.72386 16.5 4.5 16.2761 4.5 16C4.5 15.7239 4.72386 15.5 5 15.5L24.3787 15.5L24.8787 16Z" fill="white"/>
<path d="M18.3536 6.64645C18.1583 6.45118 17.8417 6.45118 17.6464 6.64645C17.4512 6.84171 17.4512 7.15829 17.6464 7.35355L24.7929 14.5H26.2071L18.3536 6.64645Z" fill="white"/>
<path d="M27.4621 16.1914C27.4842 16.1378 27.4967 16.0811 27.4994 16.024C27.4998 16.016 27.5 16.008 27.5 16L27.4999 15.9908C27.4975 15.8564 27.4414 15.7343 27.353 15.6459C27.2625 15.5557 27.1378 15.5 27 15.5H25.7929L25.9393 15.6464C26.0331 15.7402 26.0858 15.8674 26.0858 16C26.0858 16.1326 26.0331 16.2598 25.9393 16.3536L25.7929 16.5H27C27.2083 16.5 27.3869 16.3726 27.4621 16.1914Z" fill="white"/>
<path d="M24.3787 16.5L24.8787 16L24.3787 15.5L5 15.5C4.72386 15.5 4.5 15.7239 4.5 16C4.5 16.2761 4.72386 16.5 5 16.5L24.3787 16.5Z" fill="white"/>
<path d="M24.7929 17.5H26.2071L18.3536 25.3536C18.1583 25.5488 17.8417 25.5488 17.6464 25.3536C17.4512 25.1583 17.4512 24.8417 17.6464 24.6464L24.7929 17.5Z" fill="white"/>
</svg>
