<svg width="32" height="32" viewBox="0 0 32 32" fill="none" xmlns="http://www.w3.org/2000/svg">
<path d="M11.0554 15.9444C11.4459 16.3349 12.0791 16.3349 12.4696 15.9444L15 13.414V21C15 21.5523 15.4477 22 16 22C16.5523 22 17 21.5523 17 21V13.414L19.5304 15.9444C19.9209 16.3349 20.5541 16.3349 20.9446 15.9444C21.3351 15.5539 21.3351 14.9207 20.9446 14.5302L16.7071 10.2927C16.3166 9.90217 15.6834 9.90217 15.2929 10.2927L11.0554 14.5302C10.6649 14.9207 10.6649 15.5539 11.0554 15.9444Z" fill="white"/>
<path fill-rule="evenodd" clip-rule="evenodd" d="M3 16C3 23.1797 8.8203 29 16 29C23.1797 29 29 23.1797 29 16C29 8.8203 23.1797 3 16 3C8.8203 3 3 8.8203 3 16ZM16 27C9.92487 27 5 22.0751 5 16C5 9.92487 9.92487 5 16 5C22.0751 5 27 9.92487 27 16C27 22.0751 22.0751 27 16 27Z" fill="white"/>
<path fill-rule="evenodd" clip-rule="evenodd" d="M16 28.5C9.09644 28.5 3.5 22.9036 3.5 16C3.5 9.09644 9.09644 3.5 16 3.5C22.9036 3.5 28.5 9.09644 28.5 16C28.5 22.9036 22.9036 28.5 16 28.5ZM2.5 16C2.5 23.4558 8.54416 29.5 16 29.5C23.4558 29.5 29.5 23.4558 29.5 16C29.5 8.54416 23.4558 2.5 16 2.5C8.54416 2.5 2.5 8.54416 2.5 16ZM4.5 16C4.5 22.3513 9.64873 27.5 16 27.5C22.3513 27.5 27.5 22.3513 27.5 16C27.5 9.64873 22.3513 4.5 16 4.5C9.64873 4.5 4.5 9.64873 4.5 16ZM16 26.5C10.201 26.5 5.5 21.799 5.5 16C5.5 10.201 10.201 5.5 16 5.5C21.799 5.5 26.5 10.201 26.5 16C26.5 21.799 21.799 26.5 16 26.5ZM16 21.5C15.7239 21.5 15.5 21.2761 15.5 21V13.414C15.5 13.2118 15.3782 13.0295 15.1913 12.9521C15.0045 12.8747 14.7894 12.9175 14.6464 13.0605L12.1161 15.5909C11.9208 15.7861 11.6042 15.7861 11.409 15.5909C11.2137 15.3956 11.2137 15.079 11.409 14.8838L15.6465 10.6463C15.8417 10.451 16.1583 10.451 16.3536 10.6463L20.5911 14.8838C20.7863 15.079 20.7863 15.3956 20.5911 15.5909C20.3958 15.7861 20.0792 15.7861 19.884 15.5909L17.3536 13.0605C17.2106 12.9175 16.9955 12.8747 16.8087 12.9521C16.6218 13.0295 16.5 13.2118 16.5 13.414V21C16.5 21.2761 16.2761 21.5 16 21.5ZM14.5 21C14.5 21.8284 15.1716 22.5 16 22.5C16.8284 22.5 17.5 21.8284 17.5 21V14.6211L19.1769 16.298C19.7626 16.8838 20.7124 16.8838 21.2982 16.298C21.884 15.7122 21.884 14.7624 21.2982 14.1766L17.0607 9.93914C16.4749 9.35336 15.5251 9.35336 14.9394 9.93914L10.7019 14.1766C10.1161 14.7624 10.1161 15.7122 10.7019 16.298C11.2876 16.8838 12.2374 16.8838 12.8232 16.298L14.5 14.6211V21Z" fill="white"/>
</svg>
