<svg width="32" height="32" viewBox="0 0 32 32" fill="none" xmlns="http://www.w3.org/2000/svg">
<path fill-rule="evenodd" clip-rule="evenodd" d="M12.7071 16.7071C12.3166 17.0976 11.6834 17.0976 11.2929 16.7071L5.29289 10.7071C4.90237 10.3166 4.90237 9.68342 5.29289 9.29289L11.2929 3.29289C11.6834 2.90237 12.3166 2.90237 12.7071 3.29289C13.0976 3.68342 13.0976 4.31659 12.7071 4.70711L7.41421 10L12.7071 15.2929C13.0976 15.6834 13.0976 16.3166 12.7071 16.7071Z" fill="white"/>
<path fill-rule="evenodd" clip-rule="evenodd" d="M24 29C23.4477 29 23 28.5523 23 28V11H6C5.44772 11 5 10.5523 5 10C5 9.44772 5.44772 9 6 9H24C24.5523 9 25 9.44772 25 10V28C25 28.5523 24.5523 29 24 29Z" fill="white"/>
<path fill-rule="evenodd" clip-rule="evenodd" d="M25.5 28C25.5 28.8284 24.8284 29.5 24 29.5C23.1716 29.5 22.5 28.8284 22.5 28V11.5H9.62132L13.0607 14.9393C13.6464 15.5251 13.6464 16.4749 13.0607 17.0607C12.4749 17.6464 11.5251 17.6464 10.9393 17.0607L4.93934 11.0607C4.79498 10.9163 4.68619 10.7498 4.61298 10.5722C4.54183 10.3999 4.50185 10.2114 4.50006 10.0138C4.50002 10.0092 4.5 10.0046 4.5 10C4.5 9.99538 4.50002 9.99076 4.50006 9.98615C4.50185 9.78859 4.54183 9.60014 4.61298 9.42785C4.68619 9.25017 4.79498 9.0837 4.93934 8.93934L10.9393 2.93934C11.5251 2.35355 12.4749 2.35355 13.0607 2.93934C13.6464 3.52513 13.6464 4.47487 13.0607 5.06066L9.62132 8.5H24C24.8284 8.5 25.5 9.17157 25.5 10V28ZM8.20711 8.5L12.3536 4.35355C12.5488 4.15829 12.5488 3.84171 12.3536 3.64645C12.1583 3.45118 11.8417 3.45118 11.6464 3.64645L6.79289 8.5H8.20711ZM5.53794 9.80861C5.61307 9.62743 5.79165 9.5 6 9.5H7.20711L7.06066 9.64645C6.96689 9.74022 6.91421 9.86739 6.91421 10C6.91421 10.1326 6.96689 10.2598 7.06066 10.3536L7.20711 10.5H6C5.79165 10.5 5.61307 10.3726 5.53794 10.1914C5.51384 10.1331 5.50122 10.0713 5.50008 10.0092M6.79289 11.5L11.6464 16.3536C11.8417 16.5488 12.1583 16.5488 12.3536 16.3536C12.5488 16.1583 12.5488 15.8417 12.3536 15.6464L8.20711 11.5H6.79289ZM8.62132 10.5L8.12132 10L8.62132 9.5H24C24.2761 9.5 24.5 9.72386 24.5 10V28C24.5 28.2761 24.2761 28.5 24 28.5C23.7239 28.5 23.5 28.2761 23.5 28V11C23.5 10.7239 23.2761 10.5 23 10.5H8.62132ZM5.53794 9.80861C5.51575 9.86223 5.50329 9.91894 5.50057 9.97602C5.50019 9.984 5.5 9.992 5.5 10" fill="white"/>
</svg>
