<svg width="32" height="32" viewBox="0 0 32 32" fill="none" xmlns="http://www.w3.org/2000/svg">
<path fill-rule="evenodd" clip-rule="evenodd" d="M16 4C16.5523 4 17 4.44772 17 5V27C17 27.5523 16.5523 28 16 28C15.4477 28 15 27.5523 15 27V5C15 4.44772 15.4477 4 16 4Z" fill="white"/>
<path fill-rule="evenodd" clip-rule="evenodd" d="M1 16C1 15.4477 1.44772 15 2 15H12C12.5523 15 13 15.4477 13 16C13 16.5523 12.5523 17 12 17H2C1.44772 17 1 16.5523 1 16Z" fill="white"/>
<path fill-rule="evenodd" clip-rule="evenodd" d="M7.29289 11.2929C7.68342 10.9024 8.31658 10.9024 8.70711 11.2929L12.7071 15.2929C13.0976 15.6834 13.0976 16.3166 12.7071 16.7071L8.70711 20.7071C8.31658 21.0976 7.68342 21.0976 7.29289 20.7071C6.90237 20.3166 6.90237 19.6834 7.29289 19.2929L10.5858 16L7.29289 12.7071C6.90237 12.3166 6.90237 11.6834 7.29289 11.2929Z" fill="white"/>
<path fill-rule="evenodd" clip-rule="evenodd" d="M19 16C19 15.4477 19.4477 15 20 15H30C30.5523 15 31 15.4477 31 16C31 16.5523 30.5523 17 30 17H20C19.4477 17 19 16.5523 19 16Z" fill="white"/>
<path fill-rule="evenodd" clip-rule="evenodd" d="M24.7071 11.2929C25.0976 11.6834 25.0976 12.3166 24.7071 12.7071L21.4142 16L24.7071 19.2929C25.0976 19.6834 25.0976 20.3166 24.7071 20.7071C24.3166 21.0976 23.6834 21.0976 23.2929 20.7071L19.2929 16.7071C18.9024 16.3166 18.9024 15.6834 19.2929 15.2929L23.2929 11.2929C23.6834 10.9024 24.3166 10.9024 24.7071 11.2929Z" fill="white"/>
<path fill-rule="evenodd" clip-rule="evenodd" d="M14.5 5C14.5 4.17157 15.1716 3.5 16 3.5C16.8284 3.5 17.5 4.17157 17.5 5V27C17.5 27.8284 16.8284 28.5 16 28.5C15.1716 28.5 14.5 27.8284 14.5 27V5ZM16 4.5C15.7239 4.5 15.5 4.72386 15.5 5V27C15.5 27.2761 15.7239 27.5 16 27.5C16.2761 27.5 16.5 27.2761 16.5 27V5C16.5 4.72386 16.2761 4.5 16 4.5ZM22.9393 10.9393C23.5251 10.3536 24.4749 10.3536 25.0607 10.9393C25.6464 11.5251 25.6464 12.4749 25.0607 13.0607L23.6213 14.5H30C30.8284 14.5 31.5 15.1716 31.5 16C31.5 16.8284 30.8284 17.5 30 17.5H23.6213L25.0607 18.9393C25.6464 19.5251 25.6464 20.4749 25.0607 21.0607C24.4749 21.6464 23.5251 21.6464 22.9393 21.0607L18.9393 17.0607C18.65 16.7713 18.5035 16.3931 18.5001 16.0138C18.5 16.0092 18.5 16.0046 18.5 16C18.5 15.9954 18.5 15.9908 18.5001 15.9862C18.5035 15.6069 18.65 15.2287 18.9393 14.9393L22.9393 10.9393ZM20.7929 14.5L23.6464 11.6464C23.8417 11.4512 24.1583 11.4512 24.3536 11.6464C24.5488 11.8417 24.5488 12.1583 24.3536 12.3536L22.2071 14.5H20.7929ZM21.2071 15.5H20C19.8619 15.5 19.7369 15.556 19.6464 15.6464C19.6004 15.6925 19.5633 15.7475 19.5379 15.8086C19.5166 15.8601 19.5036 15.9158 19.5007 15.9743C19.5002 15.9828 19.5 15.9914 19.5 16M22.6213 15.5L22.1213 16L22.6213 16.5H30C30.2761 16.5 30.5 16.2761 30.5 16C30.5 15.7239 30.2761 15.5 30 15.5H22.6213ZM21.2071 16.5L21.0607 16.3536C20.9669 16.2598 20.9142 16.1326 20.9142 16C20.9142 15.8674 20.9669 15.7402 21.0607 15.6464L21.2071 15.5M21.2071 16.5H20C19.862 16.5 19.737 16.4441 19.6465 16.3536C19.6465 16.3536 19.6465 16.3536 19.6465 16.3536C19.6005 16.3076 19.5633 16.2525 19.5379 16.1914C19.5138 16.1331 19.5012 16.0713 19.5001 16.0092M20.7929 17.5L23.6464 20.3536C23.8417 20.5488 24.1583 20.5488 24.3536 20.3536C24.5488 20.1583 24.5488 19.8417 24.3536 19.6464L22.2071 17.5H20.7929ZM6.93934 10.9393C7.52513 10.3536 8.47487 10.3536 9.06066 10.9393L13.0607 14.9393C13.2045 15.0832 13.313 15.2489 13.3862 15.4258C13.4595 15.6027 13.5 15.7966 13.5 16C13.5 16.2034 13.4595 16.3973 13.3862 16.5742C13.3146 16.7471 13.2094 16.9093 13.0704 17.0508C13.0672 17.0541 13.0639 17.0574 13.0607 17.0607L9.06066 21.0607C8.47487 21.6464 7.52513 21.6464 6.93934 21.0607C6.35355 20.4749 6.35355 19.5251 6.93934 18.9393L8.37868 17.5H2C1.17157 17.5 0.5 16.8284 0.5 16C0.5 15.1716 1.17157 14.5 2 14.5H8.37868L6.93934 13.0607C6.35355 12.4749 6.35355 11.5251 6.93934 10.9393ZM10.7929 15.5L10.9393 15.6464C11.1346 15.8417 11.1346 16.1583 10.9393 16.3536L10.7929 16.5H12C12.1377 16.5 12.2624 16.4443 12.3529 16.3542M9.79289 17.5L7.64645 19.6464C7.45118 19.8417 7.45118 20.1583 7.64645 20.3536C7.84171 20.5488 8.15829 20.5488 8.35355 20.3536L11.2071 17.5H9.79289ZM9.37868 16.5L9.87868 16L9.37868 15.5H2C1.72386 15.5 1.5 15.7239 1.5 16C1.5 16.2761 1.72386 16.5 2 16.5H9.37868ZM10.7929 15.5H12C12.1377 15.5 12.2624 15.5557 12.3529 15.6458M11.2071 14.5H9.79289L7.64645 12.3536C7.45118 12.1583 7.45118 11.8417 7.64645 11.6464C7.84171 11.4512 8.15829 11.4512 8.35355 11.6464L11.2071 14.5Z" fill="white"/>
</svg>
