<svg width="32" height="32" viewBox="0 0 32 32" fill="none" xmlns="http://www.w3.org/2000/svg">
<path fill-rule="evenodd" clip-rule="evenodd" d="M21.2929 14.2929C21.6834 13.9024 22.3166 13.9024 22.7071 14.2929L28.7071 20.2929C29.0976 20.6834 29.0976 21.3166 28.7071 21.7071L22.7071 27.7071C22.3166 28.0976 21.6834 28.0976 21.2929 27.7071C20.9024 27.3166 20.9024 26.6834 21.2929 26.2929L26.5858 21L21.2929 15.7071C20.9024 15.3166 20.9024 14.6834 21.2929 14.2929Z" fill="white"/>
<path fill-rule="evenodd" clip-rule="evenodd" d="M5.34315 8.34315C6.84344 6.84286 8.87827 6 11 6H22C22.5523 6 23 6.44772 23 7C23 7.55228 22.5523 8 22 8H11C9.4087 8 7.88258 8.63214 6.75736 9.75736C5.63214 10.8826 5 12.4087 5 14C5 15.5913 5.63214 17.1174 6.75736 18.2426C7.88258 19.3679 9.4087 20 11 20H28C28.5523 20 29 20.4477 29 21C29 21.5523 28.5523 22 28 22H11C8.87827 22 6.84344 21.1571 5.34315 19.6569C3.84285 18.1566 3 16.1217 3 14C3 11.8783 3.84285 9.84344 5.34315 8.34315Z" fill="white"/>
<path fill-rule="evenodd" clip-rule="evenodd" d="M4.98959 7.98959C6.58365 6.39553 8.74566 5.5 11 5.5H22C22.8284 5.5 23.5 6.17157 23.5 7C23.5 7.82843 22.8284 8.5 22 8.5H11C9.54131 8.5 8.14236 9.07946 7.11091 10.1109C6.07946 11.1424 5.5 12.5413 5.5 14C5.5 15.4587 6.07946 16.8576 7.11091 17.8891C8.14236 18.9205 9.54131 19.5 11 19.5H24.3787L20.9393 16.0607C20.3536 15.4749 20.3536 14.5251 20.9393 13.9393C21.5251 13.3536 22.4749 13.3536 23.0607 13.9393L29.0607 19.9393C29.2049 20.0836 29.3136 20.2498 29.3868 20.4273C29.4581 20.5998 29.4981 20.7884 29.4999 20.9862C29.5 20.9908 29.5 20.9954 29.5 21C29.5 21.0046 29.5 21.0092 29.4999 21.0138C29.4981 21.2117 29.4581 21.4004 29.3867 21.5729C29.3135 21.7503 29.2048 21.9165 29.0607 22.0607L23.0607 28.0607C22.4749 28.6464 21.5251 28.6464 20.9393 28.0607C20.3536 27.4749 20.3536 26.5251 20.9393 25.9393L24.3787 22.5H11C8.74566 22.5 6.58365 21.6045 4.98959 20.0104C3.39553 18.4163 2.5 16.2543 2.5 14C2.5 11.7457 3.39553 9.58365 4.98959 7.98959ZM25.7929 22.5L21.6464 26.6464C21.4512 26.8417 21.4512 27.1583 21.6464 27.3536C21.8417 27.5488 22.1583 27.5488 22.3536 27.3536L27.2071 22.5H25.7929ZM28.3535 21.3536C28.263 21.4441 28.138 21.5 28 21.5H26.7929L26.9393 21.3536C27.0331 21.2598 27.0858 21.1326 27.0858 21C27.0858 20.8674 27.0331 20.7402 26.9393 20.6464L26.7929 20.5H28C28.1381 20.5 28.2631 20.556 28.3536 20.6464C28.442 20.7349 28.4975 20.8564 28.4999 20.9908C28.5 20.9938 28.5 20.9969 28.5 21C28.5 21.008 28.4998 21.016 28.4994 21.024C28.4967 21.0811 28.4842 21.1378 28.4621 21.1914C28.4377 21.2504 28.4014 21.3057 28.3535 21.3536C28.3535 21.3536 28.3535 21.3536 28.3535 21.3536ZM27.2071 19.5L22.3536 14.6464C22.1583 14.4512 21.8417 14.4512 21.6464 14.6464C21.4512 14.8417 21.4512 15.1583 21.6464 15.3536L25.7929 19.5H27.2071ZM25.3787 20.5H11C9.27609 20.5 7.62279 19.8152 6.40381 18.5962C5.18482 17.3772 4.5 15.7239 4.5 14C4.5 12.2761 5.18482 10.6228 6.40381 9.40381C7.62279 8.18482 9.27609 7.5 11 7.5H22C22.2761 7.5 22.5 7.27614 22.5 7C22.5 6.72386 22.2761 6.5 22 6.5H11C9.01088 6.5 7.10322 7.29018 5.6967 8.6967C4.29018 10.1032 3.5 12.0109 3.5 14C3.5 15.9891 4.29018 17.8968 5.6967 19.3033C7.10322 20.7098 9.01088 21.5 11 21.5H25.3787L25.8787 21L25.3787 20.5Z" fill="white"/>
</svg>
