<svg width="32" height="32" viewBox="0 0 32 32" fill="none" xmlns="http://www.w3.org/2000/svg">
<path d="M13.998 17.9393C13.4123 17.3536 12.4625 17.3536 11.8767 17.9393L7.43739 22.3787V21C7.43739 20.1716 6.76581 19.5 5.93739 19.5C5.10896 19.5 4.43739 20.1716 4.43739 21L4.43745 26.0138C4.43924 26.2114 4.47922 26.3999 4.55037 26.5722C4.62358 26.7498 4.73236 26.9163 4.87672 27.0607C5.02109 27.205 5.18756 27.3138 5.36523 27.387C5.53753 27.4582 5.72597 27.4981 5.92354 27.4999L5.93739 27.5H10.9374C11.7658 27.5 12.4374 26.8284 12.4374 26C12.4374 25.1716 11.7658 24.5 10.9374 24.5H9.55871L13.998 20.0607C14.5838 19.4749 14.5838 18.5251 13.998 17.9393Z" fill="white"/>
<path d="M27.0589 4.93934C26.9151 4.79553 26.7494 4.68702 26.5725 4.61382C26.3969 4.54102 26.1995 4.50059 25.9978 4.5H20.9983C20.1698 4.5 19.4983 5.17157 19.4983 6C19.4983 6.82843 20.1698 7.5 20.9983 7.5H22.377L17.9376 11.9393C17.3518 12.5251 17.3518 13.4749 17.9376 14.0607C18.5234 14.6464 19.4732 14.6464 20.0589 14.0607L24.4983 9.62132V11C24.4983 11.8284 25.1698 12.5 25.9983 12.5C26.8267 12.5 27.4983 11.8284 27.4983 11L27.4982 5.98615C27.4964 5.78844 27.4564 5.59986 27.3851 5.42746C27.3119 5.24993 27.2032 5.0836 27.0589 4.93934Z" fill="white"/>
</svg>
