<svg width="32" height="32" viewBox="0 0 32 32" fill="none" xmlns="http://www.w3.org/2000/svg">
<path fill-rule="evenodd" clip-rule="evenodd" d="M28.4873 9.51172C27.935 9.51172 27.4873 9.95943 27.4873 10.5117V17.5117H20.4873C19.935 17.5117 19.4873 17.9594 19.4873 18.5117C19.4873 19.064 19.935 19.5117 20.4873 19.5117H28.4873C29.0396 19.5117 29.4873 19.064 29.4873 18.5117V10.5117C29.4873 9.95943 29.0396 9.51172 28.4873 9.51172Z" fill="white"/>
<path fill-rule="evenodd" clip-rule="evenodd" d="M18.5373 10.2447C16.0149 9.74268 13.4003 10.0001 11.0243 10.9845C8.64824 11.9688 6.61756 13.6358 5.18917 15.7745C3.76077 17.9132 2.99885 20.4276 2.99981 22.9994C3.00001 23.5517 3.44789 23.9993 4.00018 23.9991C4.55246 23.9989 5.00001 23.551 4.99981 22.9987C4.999 20.8225 5.6437 18.695 6.85234 16.8853C8.06098 15.0756 9.77925 13.6651 11.7897 12.8322C13.8002 11.9993 16.0126 11.7814 18.1469 12.2062C20.2812 12.631 22.2416 13.6793 23.78 15.2185L27.7802 19.2187C28.1707 19.6092 28.8039 19.6092 29.1944 19.2187C29.5849 18.8282 29.5849 18.195 29.1944 17.8045L25.1946 13.8047C23.3765 11.9857 21.0596 10.7467 18.5373 10.2447Z" fill="white"/>
<path fill-rule="evenodd" clip-rule="evenodd" d="M29.9873 10.5117C29.9873 9.68329 29.3157 9.01172 28.4873 9.01172C27.6589 9.01172 26.9873 9.68329 26.9873 10.5117V14.8903L25.5482 13.4512C23.6603 11.5623 21.2542 10.2756 18.6349 9.75431C16.0155 9.23299 13.3003 9.50035 10.8329 10.5225C8.36548 11.5447 6.25671 13.2758 4.77337 15.4968C3.29004 17.7178 2.49882 20.3289 2.49981 22.9996C2.50011 23.8281 3.17193 24.4994 4.00036 24.4991C4.82879 24.4988 5.50011 23.8269 5.49981 22.9985C5.49904 20.9213 6.11444 18.8904 7.26814 17.163C8.42184 15.4356 10.062 14.0892 11.9811 13.2941C13.9002 12.4991 16.012 12.2911 18.0493 12.6966C20.0866 13.1021 21.9579 14.1027 23.4264 15.572L24.8661 17.0117H20.4873C19.6589 17.0117 18.9873 17.6833 18.9873 18.5117C18.9873 19.3401 19.6589 20.0117 20.4873 20.0117H28.4873C28.7653 20.0117 29.0257 19.9361 29.249 19.8042C29.2845 19.7832 29.3194 19.7607 29.3535 19.7365C29.4748 19.6506 29.5828 19.547 29.6737 19.4297C29.7395 19.3449 29.7949 19.2548 29.8399 19.1609C29.9344 18.9645 29.9873 18.7443 29.9873 18.5117V10.5117ZM28.9873 18.5117C28.9873 18.6396 28.9385 18.7675 28.8409 18.8651C28.6456 19.0604 28.329 19.0604 28.1338 18.8651L27.2803 18.0117H27.4873C27.7634 18.0117 27.9873 17.7879 27.9873 17.5117V17.3045L28.8409 18.158C28.9385 18.2557 28.9873 18.3838 28.9873 18.5117ZM27.9873 15.8903L28.9873 16.8903V10.5117C28.9873 10.2356 28.7634 10.0117 28.4873 10.0117C28.2112 10.0117 27.9873 10.2356 27.9873 10.5117V15.8903ZM26.9873 16.3045V17.0117H26.2803L24.1337 14.865C22.5254 13.2559 20.4758 12.1599 18.2445 11.7158C16.0132 11.2718 13.7002 11.4995 11.5984 12.3703C9.49649 13.241 7.70013 14.7157 6.43655 16.6076C5.17297 18.4996 4.49896 20.7238 4.49981 22.9989C4.49991 23.275 4.27613 23.499 3.99999 23.4991C3.72385 23.4992 3.49991 23.2754 3.49981 22.9993C3.49889 20.5263 4.23151 18.1087 5.60496 16.0522C6.97842 13.9957 8.93099 12.3929 11.2156 11.4464C13.5003 10.4999 16.0143 10.2524 18.4397 10.7351C20.865 11.2178 23.0928 12.4091 24.841 14.1581L26.9873 16.3045ZM25.8661 18.0117L26.8661 19.0117H20.4873C20.2112 19.0117 19.9873 18.7879 19.9873 18.5117C19.9873 18.2356 20.2112 18.0117 20.4873 18.0117H25.8661Z" fill="white"/>
</svg>
