<svg width="32" height="32" viewBox="0 0 32 32" fill="none" xmlns="http://www.w3.org/2000/svg">
<path fill-rule="evenodd" clip-rule="evenodd" d="M12.7071 15.2929C12.3166 14.9024 11.6834 14.9024 11.2929 15.2929L5.29289 21.2929C4.90237 21.6834 4.90237 22.3166 5.29289 22.7071L11.2929 28.7071C11.6834 29.0976 12.3166 29.0976 12.7071 28.7071C13.0976 28.3166 13.0976 27.6834 12.7071 27.2929L7.41421 22L12.7071 16.7071C13.0976 16.3166 13.0976 15.6834 12.7071 15.2929Z" fill="white"/>
<path fill-rule="evenodd" clip-rule="evenodd" d="M24 3C23.4477 3 23 3.44772 23 4V21H6C5.44772 21 5 21.4477 5 22C5 22.5523 5.44772 23 6 23H24C24.5523 23 25 22.5523 25 22V4C25 3.44772 24.5523 3 24 3Z" fill="white"/>
<path fill-rule="evenodd" clip-rule="evenodd" d="M25.5 4C25.5 3.17157 24.8284 2.5 24 2.5C23.1716 2.5 22.5 3.17157 22.5 4V20.5H9.62132L13.0607 17.0607C13.6464 16.4749 13.6464 15.5251 13.0607 14.9393C12.4749 14.3536 11.5251 14.3536 10.9393 14.9393L4.93934 20.9393C4.79498 21.0837 4.68619 21.2502 4.61298 21.4278C4.54183 21.6001 4.50185 21.7886 4.50006 21.9862C4.50002 21.9908 4.5 21.9954 4.5 22C4.5 22.0046 4.50002 22.0092 4.50006 22.0138C4.50185 22.2114 4.54183 22.3999 4.61298 22.5722C4.68619 22.7498 4.79498 22.9163 4.93934 23.0607L10.9393 29.0607C11.5251 29.6464 12.4749 29.6464 13.0607 29.0607C13.6464 28.4749 13.6464 27.5251 13.0607 26.9393L9.62132 23.5H24C24.8284 23.5 25.5 22.8284 25.5 22V4ZM8.20711 23.5L12.3536 27.6464C12.5488 27.8417 12.5488 28.1583 12.3536 28.3536C12.1583 28.5488 11.8417 28.5488 11.6464 28.3536L6.79289 23.5H8.20711ZM5.53794 22.1914C5.61307 22.3726 5.79165 22.5 6 22.5H7.20711L7.06066 22.3536C6.96689 22.2598 6.91421 22.1326 6.91421 22C6.91421 21.8674 6.96689 21.7402 7.06066 21.6464L7.20711 21.5H6C5.79165 21.5 5.61307 21.6274 5.53794 21.8086C5.51384 21.8669 5.50122 21.9287 5.50008 21.9908M6.79289 20.5L11.6464 15.6464C11.8417 15.4512 12.1583 15.4512 12.3536 15.6464C12.5488 15.8417 12.5488 16.1583 12.3536 16.3536L8.20711 20.5H6.79289ZM8.62132 21.5L8.12132 22L8.62132 22.5H24C24.2761 22.5 24.5 22.2761 24.5 22V4C24.5 3.72386 24.2761 3.5 24 3.5C23.7239 3.5 23.5 3.72386 23.5 4V21C23.5 21.2761 23.2761 21.5 23 21.5H8.62132ZM5.53794 22.1914C5.51575 22.1378 5.50329 22.0811 5.50057 22.024C5.50019 22.016 5.5 22.008 5.5 22" fill="white"/>
</svg>
