<svg width="32" height="32" viewBox="0 0 32 32" fill="none" xmlns="http://www.w3.org/2000/svg">
<path fill-rule="evenodd" clip-rule="evenodd" d="M16 29.5C8.54416 29.5 2.5 23.4558 2.5 16C2.5 8.54416 8.54416 2.5 16 2.5C23.4558 2.5 29.5 8.54416 29.5 16C29.5 23.4558 23.4558 29.5 16 29.5ZM16 26.5C10.201 26.5 5.5 21.799 5.5 16C5.5 10.201 10.201 5.5 16 5.5C21.799 5.5 26.5 10.201 26.5 16C26.5 21.799 21.799 26.5 16 26.5ZM20.5607 20.5607C19.9749 21.1464 19.0251 21.1464 18.4393 20.5607L14 16.1213V18.5C14 19.3284 13.3284 20 12.5 20C11.6716 20 11 19.3284 11 18.5V12.5C11 12.4878 11.0001 12.4756 11.0004 12.4634C11.0049 12.2802 11.0427 12.0978 11.1138 11.9258C11.187 11.7489 11.2955 11.5832 11.4393 11.4393C11.7078 11.1709 12.0774 11.0038 12.4862 11.0001L12.5021 11H18.5C19.3284 11 20 11.6716 20 12.5C20 13.3284 19.3284 14 18.5 14H16.1213L20.5607 18.4393C21.1464 19.0251 21.1464 19.9749 20.5607 20.5607Z" fill="white"/>
</svg>
