<svg width="32" height="32" viewBox="0 0 32 32" fill="none" xmlns="http://www.w3.org/2000/svg">
<path fill-rule="evenodd" clip-rule="evenodd" d="M16 2.5C23.4558 2.5 29.5 8.54416 29.5 16C29.5 23.4558 23.4558 29.5 16 29.5C8.54416 29.5 2.5 23.4558 2.5 16C2.5 8.54416 8.54416 2.5 16 2.5ZM16 5.5C21.799 5.5 26.5 10.201 26.5 16C26.5 21.799 21.799 26.5 16 26.5C10.201 26.5 5.5 21.799 5.5 16C5.5 10.201 10.201 5.5 16 5.5ZM11.4393 11.4393C12.0251 10.8536 12.9749 10.8536 13.5607 11.4393L18 15.8787V13.5C18 12.6716 18.6716 12 19.5 12C20.3284 12 21 12.6716 21 13.5V19.5C21 19.5122 20.9999 19.5244 20.9996 19.5366C20.9951 19.7198 20.9573 19.9022 20.8862 20.0742C20.813 20.2511 20.7045 20.4168 20.5607 20.5607C20.2922 20.8291 19.9226 20.9962 19.5138 20.9999L19.4979 21H13.5C12.6716 21 12 20.3284 12 19.5C12 18.6716 12.6716 18 13.5 18H15.8787L11.4393 13.5607C10.8536 12.9749 10.8536 12.0251 11.4393 11.4393Z" fill="white"/>
</svg>
