<svg width="32" height="32" viewBox="0 0 32 32" fill="none" xmlns="http://www.w3.org/2000/svg">
<path fill-rule="evenodd" clip-rule="evenodd" d="M19.2929 16.7071C19.6834 17.0976 20.3166 17.0976 20.7071 16.7071L26.7071 10.7071C27.0976 10.3166 27.0976 9.68342 26.7071 9.29289L20.7071 3.29289C20.3166 2.90237 19.6834 2.90237 19.2929 3.29289C18.9024 3.68342 18.9024 4.31659 19.2929 4.70711L24.5858 10L19.2929 15.2929C18.9024 15.6834 18.9024 16.3166 19.2929 16.7071Z" fill="white"/>
<path fill-rule="evenodd" clip-rule="evenodd" d="M8 29C8.55228 29 9 28.5523 9 28V11H26C26.5523 11 27 10.5523 27 10C27 9.44772 26.5523 9 26 9H8C7.44772 9 7 9.44772 7 10V28C7 28.5523 7.44772 29 8 29Z" fill="white"/>
<path fill-rule="evenodd" clip-rule="evenodd" d="M6.5 28C6.5 28.8284 7.17157 29.5 8 29.5C8.82843 29.5 9.5 28.8284 9.5 28V11.5H22.3787L18.9393 14.9393C18.3536 15.5251 18.3536 16.4749 18.9393 17.0607C19.5251 17.6464 20.4749 17.6464 21.0607 17.0607L27.0607 11.0607C27.205 10.9163 27.3138 10.7498 27.387 10.5722C27.4582 10.3999 27.4981 10.2114 27.4999 10.0138C27.5 10.0092 27.5 10.0046 27.5 10C27.5 9.99538 27.5 9.99076 27.4999 9.98615C27.4981 9.78859 27.4582 9.60014 27.387 9.42785C27.3138 9.25017 27.205 9.0837 27.0607 8.93934L21.0607 2.93934C20.4749 2.35355 19.5251 2.35355 18.9393 2.93934C18.3536 3.52513 18.3536 4.47487 18.9393 5.06066L22.3787 8.5H8C7.17157 8.5 6.5 9.17157 6.5 10V28ZM23.7929 8.5L19.6464 4.35355C19.4512 4.15829 19.4512 3.84171 19.6464 3.64645C19.8417 3.45118 20.1583 3.45118 20.3536 3.64645L25.2071 8.5H23.7929ZM26.4621 9.80861C26.3869 9.62743 26.2083 9.5 26 9.5H24.7929L24.9393 9.64645C25.0331 9.74022 25.0858 9.86739 25.0858 10C25.0858 10.1326 25.0331 10.2598 24.9393 10.3536L24.7929 10.5H26C26.2083 10.5 26.3869 10.3726 26.4621 10.1914C26.4862 10.1331 26.4988 10.0713 26.4999 10.0092M25.2071 11.5L20.3536 16.3536C20.1583 16.5488 19.8417 16.5488 19.6464 16.3536C19.4512 16.1583 19.4512 15.8417 19.6464 15.6464L23.7929 11.5H25.2071ZM23.3787 10.5L23.8787 10L23.3787 9.5H8C7.72386 9.5 7.5 9.72386 7.5 10V28C7.5 28.2761 7.72386 28.5 8 28.5C8.27614 28.5 8.5 28.2761 8.5 28V11C8.5 10.7239 8.72386 10.5 9 10.5H23.3787ZM26.4621 9.80861C26.4842 9.86223 26.4967 9.91894 26.4994 9.97602C26.4998 9.984 26.5 9.992 26.5 10" fill="white"/>
</svg>
