<svg width="32" height="32" viewBox="0 0 32 32" fill="none" xmlns="http://www.w3.org/2000/svg">
<path d="M14.5 4C14.5 3.17157 15.1716 2.5 16 2.5C16.8284 2.5 17.5 3.17157 17.5 4V19.3787L23.9393 12.9393C24.5251 12.3536 25.4749 12.3536 26.0607 12.9393C26.6464 13.5251 26.6464 14.4749 26.0607 15.0607L17.0607 24.0607C16.9164 24.2049 16.7501 24.3137 16.5725 24.3869C16.4001 24.4581 16.1839 24.4981 15.9862 24.4999C15.6069 24.4965 15.2287 24.35 14.9393 24.0607L5.93934 15.0607C5.35355 14.4749 5.35355 13.5251 5.93934 12.9393C6.52513 12.3536 7.47487 12.3536 8.06066 12.9393L14.5 19.3787V4Z" fill="white"/>
<path d="M3.5 27C3.5 26.1716 4.17157 25.5 5 25.5H27C27.8284 25.5 28.5 26.1716 28.5 27C28.5 27.8284 27.8284 28.5 27 28.5H5C4.17157 28.5 3.5 27.8284 3.5 27Z" fill="white"/>
</svg>
