<svg width="32" height="32" viewBox="0 0 32 32" fill="none" xmlns="http://www.w3.org/2000/svg">
<path fill-rule="evenodd" clip-rule="evenodd" d="M18.2929 3.29289C18.6834 2.90237 19.3166 2.90237 19.7071 3.29289L25.7071 9.29289C26.0976 9.68342 26.0976 10.3166 25.7071 10.7071C25.3166 11.0976 24.6834 11.0976 24.2929 10.7071L19 5.41421L13.7071 10.7071C13.3166 11.0976 12.6834 11.0976 12.2929 10.7071C11.9024 10.3166 11.9024 9.68342 12.2929 9.29289L18.2929 3.29289Z" fill="white"/>
<path fill-rule="evenodd" clip-rule="evenodd" d="M19 3C19.5523 3 20 3.44772 20 4V16C20 19.4478 18.6304 22.7544 16.1924 25.1924C13.7544 27.6304 10.4478 29 7 29C6.44772 29 6 28.5523 6 28C6 27.4477 6.44772 27 7 27C9.91738 27 12.7153 25.8411 14.7782 23.7782C16.8411 21.7153 18 18.9174 18 16V4C18 3.44772 18.4477 3 19 3Z" fill="white"/>
<path fill-rule="evenodd" clip-rule="evenodd" d="M18.4258 2.61382C18.6027 2.54048 18.7966 2.5 19 2.5C19.2034 2.5 19.3973 2.54048 19.5742 2.61382C19.7511 2.68702 19.9168 2.79553 20.0607 2.93934L26.0607 8.93934C26.6464 9.52513 26.6464 10.4749 26.0607 11.0607C25.4749 11.6464 24.5251 11.6464 23.9393 11.0607L20.5 7.62132V16C20.5 19.5804 19.0777 23.0142 16.5459 25.5459C14.0142 28.0777 10.5804 29.5 7 29.5C6.17157 29.5 5.5 28.8284 5.5 28C5.5 27.1716 6.17157 26.5 7 26.5C9.78477 26.5 12.4555 25.3938 14.4246 23.4246C16.3938 21.4555 17.5 18.7848 17.5 16V7.62132L14.0607 11.0607C13.4749 11.6464 12.5251 11.6464 11.9393 11.0607C11.3536 10.4749 11.3536 9.52513 11.9393 8.93934L17.9393 2.93934C18.0832 2.79553 18.2489 2.68702 18.4258 2.61382ZM17.5 4.79289L12.6464 9.64645C12.4512 9.84171 12.4512 10.1583 12.6464 10.3536C12.8417 10.5488 13.1583 10.5488 13.3536 10.3536L17.5 6.20711V4.79289ZM18.5 6.62132V16C18.5 19.05 17.2884 21.9751 15.1317 24.1317C12.9751 26.2884 10.05 27.5 7 27.5C6.72386 27.5 6.5 27.7239 6.5 28C6.5 28.2761 6.72386 28.5 7 28.5C10.3152 28.5 13.4946 27.183 15.8388 24.8388C18.183 22.4946 19.5 19.3152 19.5 16V6.62132L19 6.12132L18.5 6.62132ZM19.5 5.20711L19.3536 5.06066C19.2598 4.96689 19.1326 4.91421 19 4.91421C18.8674 4.91421 18.7402 4.96689 18.6464 5.06066L18.5 5.20711V4C18.5 3.86222 18.5557 3.73746 18.6459 3.64703M20.5 6.20711L24.6464 10.3536C24.8417 10.5488 25.1583 10.5488 25.3536 10.3536C25.5488 10.1583 25.5488 9.84171 25.3536 9.64645L20.5 4.79289V6.20711ZM19.3541 3.64703C19.4443 3.73746 19.5 3.86222 19.5 4V5.20711M19.3541 3.64703C19.3534 3.64632 19.3521 3.64503 19.3514 3.64433C19.2541 3.54811 19.127 3.5 19 3.5C18.873 3.5 18.7459 3.54811 18.6486 3.64433" fill="white"/>
</svg>
