<svg width="32" height="32" viewBox="0 0 32 32" fill="none" xmlns="http://www.w3.org/2000/svg">
<path fill-rule="evenodd" clip-rule="evenodd" d="M6.29289 10.7071C6.68342 11.0976 7.31658 11.0976 7.70711 10.7071L13 5.41421L18.2929 10.7071C18.6834 11.0976 19.3166 11.0976 19.7071 10.7071C20.0976 10.3166 20.0976 9.68342 19.7071 9.29289L13.7071 3.29289C13.3166 2.90237 12.6834 2.90237 12.2929 3.29289L6.29289 9.29289C5.90237 9.68342 5.90237 10.3166 6.29289 10.7071Z" fill="white"/>
<path fill-rule="evenodd" clip-rule="evenodd" d="M15.8076 25.1924C18.2456 27.6304 21.5522 29 25 29C25.5523 29 26 28.5523 26 28C26 27.4477 25.5523 27 25 27C22.0826 27 19.2847 25.8411 17.2218 23.7782C15.1589 21.7153 14 18.9174 14 16V4C14 3.44772 13.5523 3 13 3C12.4477 3 12 3.44772 12 4V16C12 19.4478 13.3696 22.7544 15.8076 25.1924Z" fill="white"/>
<path fill-rule="evenodd" clip-rule="evenodd" d="M15.4541 25.5459C17.9858 28.0777 21.4196 29.5 25 29.5C25.8284 29.5 26.5 28.8284 26.5 28C26.5 27.1716 25.8284 26.5 25 26.5C22.2152 26.5 19.5445 25.3938 17.5754 23.4246C15.6062 21.4555 14.5 18.7848 14.5 16V7.62132L17.9393 11.0607C18.5251 11.6464 19.4749 11.6464 20.0607 11.0607C20.6464 10.4749 20.6464 9.52513 20.0607 8.93934L14.0607 2.93934C13.9164 2.79509 13.7501 2.68636 13.5726 2.61315C13.4002 2.54189 13.2116 2.50185 13.0138 2.50006C13.0092 2.50002 13.0046 2.5 13 2.5C12.9954 2.5 12.9908 2.50002 12.9862 2.50006C12.6069 2.50354 12.2287 2.64997 11.9393 2.93934L5.93934 8.93934C5.35355 9.52513 5.35355 10.4749 5.93934 11.0607C6.52513 11.6464 7.47487 11.6464 8.06066 11.0607L11.5 7.62132V16C11.5 19.5804 12.9223 23.0142 15.4541 25.5459ZM11.5 6.20711L7.35355 10.3536C7.15829 10.5488 6.84171 10.5488 6.64645 10.3536C6.45118 10.1583 6.45118 9.84171 6.64645 9.64645L11.5 4.79289V6.20711ZM12.5 5.20711L12.6464 5.06066C12.7402 4.96689 12.8674 4.91421 13 4.91421C13.1326 4.91421 13.2598 4.96689 13.3536 5.06066L13.5 5.20711V4C13.5 3.86193 13.444 3.73693 13.3536 3.64645C13.2651 3.55799 13.1436 3.50252 13.0092 3.50008C13.0062 3.50003 13.0031 3.5 13 3.5C12.9914 3.5 12.9828 3.50022 12.9743 3.50065C12.9158 3.50361 12.8601 3.5166 12.8086 3.53794C12.7475 3.56328 12.6925 3.60039 12.6464 3.64645C12.556 3.73693 12.5 3.86193 12.5 4V5.20711ZM14.5 4.79289L19.3536 9.64645C19.5488 9.84171 19.5488 10.1583 19.3536 10.3536C19.1583 10.5488 18.8417 10.5488 18.6464 10.3536L14.5 6.20711V4.79289ZM13.5 6.62132V16C13.5 19.05 14.7116 21.9751 16.8683 24.1317C19.0249 26.2884 21.95 27.5 25 27.5C25.2761 27.5 25.5 27.7239 25.5 28C25.5 28.2761 25.2761 28.5 25 28.5C21.6848 28.5 18.5054 27.183 16.1612 24.8388C13.817 22.4946 12.5 19.3152 12.5 16V6.62132L13 6.12132L13.5 6.62132Z" fill="white"/>
</svg>
