<svg width="32" height="32" viewBox="0 0 32 32" fill="none" xmlns="http://www.w3.org/2000/svg">
<path d="M24.5742 5.61382C24.3973 5.54048 24.2034 5.5 24 5.5H11.5C10.6716 5.5 10 6.17157 10 7C10 7.82843 10.6716 8.5 11.5 8.5H20.3787L8.93934 19.9393C8.35355 20.5251 8.35355 21.4749 8.93934 22.0607C9.52513 22.6464 10.4749 22.6464 11.0607 22.0607L22.5 10.6213V19.5C22.5 20.3284 23.1716 21 24 21C24.8284 21 25.5 20.3284 25.5 19.5V7.00042C25.4989 6.61804 25.3524 6.23109 25.0607 5.93934C24.9168 5.79553 24.7511 5.68702 24.5742 5.61382Z" fill="white"/>
<path d="M28.5 27C28.5 26.1716 27.8284 25.5 27 25.5H5C4.17157 25.5 3.5 26.1716 3.5 27C3.5 27.8284 4.17157 28.5 5 28.5H27C27.8284 28.5 28.5 27.8284 28.5 27Z" fill="white"/>
</svg>
