<svg width="32" height="32" viewBox="0 0 32 32" fill="none" xmlns="http://www.w3.org/2000/svg">
<path fill-rule="evenodd" clip-rule="evenodd" d="M10.7071 6.29289C11.0976 6.68342 11.0976 7.31658 10.7071 7.70711L5.41421 13L10.7071 18.2929C11.0976 18.6834 11.0976 19.3166 10.7071 19.7071C10.3166 20.0976 9.68342 20.0976 9.29289 19.7071L3.29289 13.7071C2.90237 13.3166 2.90237 12.6834 3.29289 12.2929L9.29289 6.29289C9.68342 5.90237 10.3166 5.90237 10.7071 6.29289Z" fill="white"/>
<path fill-rule="evenodd" clip-rule="evenodd" d="M3 13C3 12.4477 3.44772 12 4 12H16C19.4478 12 22.7544 13.3696 25.1924 15.8076C27.6304 18.2456 29 21.5522 29 25C29 25.5523 28.5523 26 28 26C27.4477 26 27 25.5523 27 25C27 22.0826 25.8411 19.2847 23.7782 17.2218C21.7153 15.1589 18.9174 14 16 14H4C3.44772 14 3 13.5523 3 13Z" fill="white"/>
<path fill-rule="evenodd" clip-rule="evenodd" d="M8.93934 5.93934C9.52513 5.35355 10.4749 5.35355 11.0607 5.93934C11.6464 6.52513 11.6464 7.47487 11.0607 8.06066L7.62132 11.5H16C19.5804 11.5 23.0142 12.9223 25.5459 15.4541C28.0777 17.9858 29.5 21.4196 29.5 25C29.5 25.8284 28.8284 26.5 28 26.5C27.1716 26.5 26.5 25.8284 26.5 25C26.5 22.2152 25.3938 19.5445 23.4246 17.5754C21.4555 15.6062 18.7848 14.5 16 14.5H7.62132L11.0607 17.9393C11.6464 18.5251 11.6464 19.4749 11.0607 20.0607C10.4749 20.6464 9.52513 20.6464 8.93934 20.0607L2.93934 14.0607C2.93828 14.0596 2.93722 14.0585 2.93616 14.0575C2.66658 13.7863 2.5 13.4126 2.5 13C2.5 12.5874 2.66658 12.2137 2.93616 11.9425C2.93722 11.9415 2.93828 11.9404 2.93934 11.9393C2.93912 11.9396 2.93956 11.9391 2.93934 11.9393L8.93934 5.93934ZM3.64645 12.6464C3.64635 12.6465 3.64655 12.6463 3.64645 12.6464C3.64574 12.6472 3.64503 12.6479 3.64433 12.6486C3.59926 12.6942 3.56289 12.7484 3.53794 12.8086C3.51265 12.8697 3.5 12.9349 3.5 13C3.5 13.0651 3.51265 13.1303 3.53794 13.1914C3.56289 13.2516 3.59926 13.3058 3.64433 13.3514C3.64503 13.3521 3.64574 13.3528 3.64645 13.3536C3.64635 13.3535 3.64655 13.3537 3.64645 13.3536C3.7369 13.4439 3.86208 13.5 4 13.5H5.20711L5.06066 13.3536C4.8654 13.1583 4.8654 12.8417 5.06066 12.6464L5.20711 12.5H4C3.86208 12.5 3.73691 12.5561 3.64645 12.6464ZM6.20711 11.5H4.79289L9.64645 6.64645C9.84171 6.45118 10.1583 6.45118 10.3536 6.64645C10.5488 6.84171 10.5488 7.15829 10.3536 7.35355L6.20711 11.5ZM6.62132 12.5L6.12132 13L6.62132 13.5H16C19.05 13.5 21.9751 14.7116 24.1317 16.8683C26.2884 19.0249 27.5 21.95 27.5 25C27.5 25.2761 27.7239 25.5 28 25.5C28.2761 25.5 28.5 25.2761 28.5 25C28.5 21.6848 27.183 18.5054 24.8388 16.1612C22.4946 13.817 19.3152 12.5 16 12.5H6.62132ZM6.20711 14.5H4.79289L9.64645 19.3536C9.84171 19.5488 10.1583 19.5488 10.3536 19.3536C10.5488 19.1583 10.5488 18.8417 10.3536 18.6464L6.20711 14.5Z" fill="white"/>
</svg>
