<svg width="32" height="32" viewBox="0 0 32 32" fill="none" xmlns="http://www.w3.org/2000/svg">
<path d="M9.06066 6.93934C8.47487 6.35355 7.52513 6.35355 6.93934 6.93934C6.35356 7.52513 6.35355 8.47487 6.93934 9.06066L20.3787 22.5H11C10.1716 22.5 9.5 23.1716 9.5 24C9.5 24.8284 10.1716 25.5 11 25.5H24C24.3839 25.5 24.7678 25.3536 25.0607 25.0607L25.0638 25.0575C25.3334 24.7863 25.5 24.4126 25.5 24V11C25.5 10.1716 24.8284 9.5 24 9.5C23.1716 9.5 22.5 10.1716 22.5 11V20.3787L9.06066 6.93934Z" fill="white"/>
</svg>
