<svg width="32" height="32" viewBox="0 0 32 32" fill="none" xmlns="http://www.w3.org/2000/svg">
<path d="M7.42582 26.3862C7.60268 26.4595 7.79662 26.5 8 26.5H20.5C21.3284 26.5 22 25.8284 22 25C22 24.1716 21.3284 23.5 20.5 23.5H11.6213L23.0607 12.0607C23.6464 11.4749 23.6464 10.5251 23.0607 9.93934C22.4749 9.35355 21.5251 9.35355 20.9393 9.93934L9.5 21.3787V12.5C9.5 11.6716 8.82843 11 8 11C7.17157 11 6.5 11.6716 6.5 12.5V24.9996C6.50114 25.382 6.64759 25.7689 6.93934 26.0607C7.08315 26.2045 7.24891 26.313 7.42582 26.3862Z" fill="white"/>
<path d="M3.5 5C3.5 5.82843 4.17157 6.5 5 6.5H27C27.8284 6.5 28.5 5.82843 28.5 5C28.5 4.17157 27.8284 3.5 27 3.5H5C4.17157 3.5 3.5 4.17157 3.5 5Z" fill="white"/>
</svg>
