<svg width="32" height="32" viewBox="0 0 32 32" fill="none" xmlns="http://www.w3.org/2000/svg">
<path fill-rule="evenodd" clip-rule="evenodd" d="M21.2929 5.29289C21.6834 4.90237 22.3166 4.90237 22.7071 5.29289L28.7071 11.2929C29.0976 11.6834 29.0976 12.3166 28.7071 12.7071C28.3166 13.0976 27.6834 13.0976 27.2929 12.7071L22 7.41421L16.7071 12.7071C16.3166 13.0976 15.6834 13.0976 15.2929 12.7071C14.9024 12.3166 14.9024 11.6834 15.2929 11.2929L21.2929 5.29289Z" fill="white"/>
<path fill-rule="evenodd" clip-rule="evenodd" d="M22 5C22.5523 5 23 5.44772 23 6V24C23 24.5523 22.5523 25 22 25H4C3.44772 25 3 24.5523 3 24C3 23.4477 3.44772 23 4 23H21V6C21 5.44772 21.4477 5 22 5Z" fill="white"/>
<path fill-rule="evenodd" clip-rule="evenodd" d="M21.4258 4.61382C21.6027 4.54048 21.7966 4.5 22 4.5C22.2034 4.5 22.3973 4.54048 22.5742 4.61382C22.7511 4.68702 22.9168 4.79553 23.0607 4.93934L29.0607 10.9393C29.6464 11.5251 29.6464 12.4749 29.0607 13.0607C28.4749 13.6464 27.5251 13.6464 26.9393 13.0607L23.5 9.62132V24C23.5 24.8284 22.8284 25.5 22 25.5H4C3.17157 25.5 2.5 24.8284 2.5 24C2.5 23.1716 3.17157 22.5 4 22.5H20.5V9.62132L17.0607 13.0607C16.4749 13.6464 15.5251 13.6464 14.9393 13.0607C14.3536 12.4749 14.3536 11.5251 14.9393 10.9393L20.9393 4.93934C21.0832 4.79552 21.2489 4.68702 21.4258 4.61382ZM20.5 6.79289L15.6464 11.6464C15.4512 11.8417 15.4512 12.1583 15.6464 12.3536C15.8417 12.5488 16.1583 12.5488 16.3536 12.3536L20.5 8.20711V6.79289ZM21.5 8.62132V23C21.5 23.2761 21.2761 23.5 21 23.5H4C3.72386 23.5 3.5 23.7239 3.5 24C3.5 24.2761 3.72386 24.5 4 24.5H22C22.2761 24.5 22.5 24.2761 22.5 24V8.62132L22 8.12132L21.5 8.62132ZM22.5 7.20711L22.3536 7.06066C22.2598 6.96689 22.1326 6.91421 22 6.91421C21.8674 6.91421 21.7402 6.96689 21.6464 7.06066L21.5 7.20711V6C21.5 5.79165 21.6274 5.61307 21.8086 5.53794C21.8697 5.51265 21.9349 5.5 22 5.5C22.008 5.5 22.016 5.50019 22.024 5.50057C22.0811 5.5033 22.1378 5.51575 22.1914 5.53794C22.3726 5.61307 22.5 5.79165 22.5 6V7.20711ZM23.5 8.20711L27.6464 12.3536C27.8417 12.5488 28.1583 12.5488 28.3536 12.3536C28.5488 12.1583 28.5488 11.8417 28.3536 11.6464L23.5 6.79289V8.20711Z" fill="white"/>
</svg>
