<svg width="32" height="32" viewBox="0 0 32 32" fill="none" xmlns="http://www.w3.org/2000/svg">
<path fill-rule="evenodd" clip-rule="evenodd" d="M19 10C19 9.44772 19.4477 9 20 9H29C29.5523 9 30 9.44772 30 10V19C30 19.5523 29.5523 20 29 20C28.4477 20 28 19.5523 28 19V11H20C19.4477 11 19 10.5523 19 10Z" fill="white"/>
<path fill-rule="evenodd" clip-rule="evenodd" d="M29.7071 9.29289C30.0976 9.68342 30.0976 10.3166 29.7071 10.7071L15.7071 24.7071C15.3166 25.0976 14.6834 25.0976 14.2929 24.7071L2.29289 12.7071C1.90237 12.3166 1.90237 11.6834 2.29289 11.2929C2.68342 10.9024 3.31658 10.9024 3.70711 11.2929L15 22.5858L28.2929 9.29289C28.6834 8.90237 29.3166 8.90237 29.7071 9.29289Z" fill="white"/>
<path fill-rule="evenodd" clip-rule="evenodd" d="M18.5 10C18.5 9.17157 19.1716 8.5 20 8.5H28.9998C28.9997 8.5 28.9999 8.5 28.9998 8.5C29.2032 8.5 29.3973 8.54048 29.5742 8.61382C29.7498 8.68648 29.9144 8.79393 30.0575 8.93616C30.0585 8.93722 30.0596 8.93828 30.0607 8.93934C30.2045 9.08315 30.313 9.24891 30.3862 9.42582C30.4595 9.60268 30.5 9.79662 30.5 10V19C30.5 19.8284 29.8284 20.5 29 20.5C28.1716 20.5 27.5 19.8284 27.5 19V13.6213L16.0607 25.0607C15.4749 25.6464 14.5251 25.6464 13.9393 25.0607L1.93934 13.0607C1.35355 12.4749 1.35355 11.5251 1.93934 10.9393C2.52513 10.3536 3.47487 10.3536 4.06066 10.9393L15 21.8787L25.3787 11.5H20C19.1716 11.5 18.5 10.8284 18.5 10ZM26.7929 11.5L15.3536 22.9393C15.2598 23.0331 15.1326 23.0858 15 23.0858C14.8674 23.0858 14.7402 23.0331 14.6464 22.9393L3.35355 11.6464C3.15829 11.4512 2.84171 11.4512 2.64645 11.6464C2.45118 11.8417 2.45118 12.1583 2.64645 12.3536L14.6464 24.3536C14.8417 24.5488 15.1583 24.5488 15.3536 24.3536L27.5 12.2071V11.5H26.7929ZM28.5 11.2071V11C28.5 10.7239 28.2761 10.5 28 10.5H27.7929L28.6464 9.64645C28.744 9.54885 28.872 9.50003 28.9999 9.5C28.9998 9.5 28.9999 9.5 28.9999 9.5C29.0079 9.5 29.016 9.50019 29.024 9.50057C29.0811 9.5033 29.1378 9.51575 29.1914 9.53794C29.3699 9.61196 29.4962 9.78639 29.4999 9.99077M27.3787 9.5L26.3787 10.5H20C19.7239 10.5 19.5 10.2761 19.5 10C19.5 9.72386 19.7239 9.5 20 9.5H27.3787ZM28.5 12.6213V19C28.5 19.2761 28.7239 19.5 29 19.5C29.2761 19.5 29.5 19.2761 29.5 19V11.6213L28.5 12.6213ZM29.5 10.001C29.4998 10.1286 29.4509 10.2562 29.3536 10.3536L28.5 11.2071" fill="white"/>
</svg>
