<svg width="32" height="33" viewBox="0 0 32 33" fill="none" xmlns="http://www.w3.org/2000/svg">
<path d="M15.9998 4.5C16.5521 4.5 16.9998 4.94772 16.9998 5.5V14.768L25.0248 10.1342C25.5031 9.858 26.1147 10.0218 26.3909 10.5001C26.667 10.9784 26.5032 11.59 26.0249 11.8662L17.9997 16.5002L26.0249 21.1342C26.5032 21.4103 26.667 22.0219 26.3909 22.5002C26.1147 22.9785 25.5031 23.1423 25.0248 22.8662L16.9998 18.2323V27.5C16.9998 28.0523 16.5521 28.5 15.9998 28.5C15.4476 28.5 14.9998 28.0523 14.9998 27.5V18.2323L6.97491 22.8662C6.49663 23.1423 5.88503 22.9785 5.60886 22.5002C5.33269 22.0219 5.49653 21.4103 5.97481 21.1342L14.0001 16.5002L5.97481 11.8662C5.49653 11.59 5.33269 10.9784 5.60886 10.5001C5.88503 10.0218 6.49663 9.858 6.97491 10.1342L14.9998 14.768V5.5C14.9998 4.94772 15.4476 4.5 15.9998 4.5Z" fill="white"/>
<path fill-rule="evenodd" clip-rule="evenodd" d="M15.9998 5C15.7237 5 15.4998 5.22386 15.4998 5.5V14.768C15.4998 14.9466 15.4045 15.1117 15.2498 15.201C15.0951 15.2903 14.9045 15.2903 14.7498 15.201L6.72488 10.5672C6.48575 10.4291 6.17995 10.511 6.04186 10.7501C5.90378 10.9893 5.9857 11.2951 6.22483 11.4332L14.2501 16.0672C14.4048 16.1565 14.5001 16.3215 14.5001 16.5002C14.5001 16.6788 14.4048 16.8438 14.2501 16.9332L6.22483 21.5672C5.9857 21.7053 5.90378 22.0111 6.04186 22.2502C6.17995 22.4893 6.48575 22.5713 6.72488 22.4332L14.7498 17.7993C14.9045 17.71 15.0951 17.71 15.2498 17.7993C15.4045 17.8886 15.4998 18.0537 15.4998 18.2323V27.5C15.4998 27.7761 15.7237 28 15.9998 28C16.276 28 16.4998 27.7761 16.4998 27.5V18.2323C16.4998 18.0537 16.5951 17.8886 16.7499 17.7993C16.9046 17.71 17.0952 17.71 17.2499 17.7993L25.2748 22.4332C25.514 22.5712 25.8198 22.4893 25.9579 22.2502C26.0959 22.0111 26.014 21.7053 25.7749 21.5672L17.7496 16.9332C17.5949 16.8438 17.4997 16.6788 17.4997 16.5002C17.4997 16.3215 17.5949 16.1565 17.7496 16.0672L25.7749 11.4332C26.014 11.2951 26.0959 10.9893 25.9579 10.7501C25.8198 10.511 25.514 10.4291 25.2748 10.5672L17.2499 15.201C17.0952 15.2903 16.9046 15.2903 16.7499 15.201C16.5951 15.1117 16.4998 14.9467 16.4998 14.768V5.5C16.4998 5.22386 16.276 5 15.9998 5ZM14.4998 5.5C14.4998 4.67157 15.1714 4 15.9998 4C16.8283 4 17.4998 4.67157 17.4998 5.5V13.9019L24.7748 9.70117C25.4922 9.28692 26.4096 9.53268 26.8239 10.2501C27.2381 10.9675 26.9924 11.8849 26.2749 12.2992L18.9996 16.5002L26.2749 20.7012C26.9924 21.1154 27.2381 22.0328 26.8239 22.7502C26.4096 23.4677 25.4922 23.7134 24.7748 23.2992L17.4998 19.0984V27.5C17.4998 28.3284 16.8283 29 15.9998 29C15.1714 29 14.4998 28.3284 14.4998 27.5V19.0984L7.22494 23.2992C6.50752 23.7134 5.59012 23.4677 5.17587 22.7502C4.76161 22.0328 5.00737 21.1154 5.72478 20.7012L13.0002 16.5002L5.72478 12.2992C5.00737 11.8849 4.76161 10.9675 5.17587 10.2501C5.59012 9.53268 6.50752 9.28692 7.22494 9.70117L14.4998 13.9019V5.5Z" fill="white"/>
</svg>
