<svg width="32" height="33" viewBox="0 0 32 33" fill="none" xmlns="http://www.w3.org/2000/svg">
<path d="M16 4.5C16.5523 4.5 17 4.94772 17 5.5V15.1234L26.1535 12.1488C26.6787 11.9781 27.2429 12.2656 27.4136 12.7908C27.5843 13.3161 27.2968 13.8802 26.7716 14.0509L17.6175 17.0257L23.2717 24.8125C23.5962 25.2594 23.497 25.8847 23.0501 26.2092C22.6032 26.5338 21.9778 26.4345 21.6533 25.9876L16 18.202L10.3467 25.9876C10.0222 26.4345 9.39683 26.5338 8.94994 26.2092C8.50304 25.8847 8.40382 25.2594 8.72832 24.8125L14.3825 17.0257L5.22845 14.0509C4.70321 13.8802 4.41578 13.3161 4.58647 12.7908C4.75716 12.2656 5.32133 11.9781 5.84657 12.1488L15 15.1234V5.5C15 4.94772 15.4477 4.5 16 4.5Z" fill="white"/>
<path fill-rule="evenodd" clip-rule="evenodd" d="M16 5C15.7239 5 15.5 5.22386 15.5 5.5V15.1234C15.5 15.2835 15.4234 15.4339 15.2939 15.5279C15.1644 15.622 14.9977 15.6484 14.8455 15.599L5.69204 12.6244C5.42942 12.539 5.14734 12.6827 5.06199 12.9453C4.97665 13.208 5.12036 13.4901 5.38298 13.5754L14.537 16.5502C14.6892 16.5996 14.8085 16.719 14.858 16.8712C14.9075 17.0233 14.8811 17.19 14.7871 17.3195L9.13291 25.1063C8.97066 25.3297 9.02027 25.6424 9.24372 25.8047C9.46717 25.9669 9.77984 25.9173 9.94209 25.6939L15.5954 17.9082C15.6895 17.7787 15.8399 17.702 16 17.702C16.1601 17.702 16.3105 17.7787 16.4046 17.9082L22.0579 25.6939C22.2202 25.9173 22.5329 25.9669 22.7563 25.8047C22.9798 25.6424 23.0294 25.3297 22.8671 25.1063L17.2129 17.3195C17.1189 17.19 17.0926 17.0233 17.142 16.8712C17.1915 16.719 17.3108 16.5997 17.463 16.5502L26.6171 13.5754C26.8797 13.4901 27.0234 13.208 26.9381 12.9453C26.8527 12.6827 26.5706 12.539 26.308 12.6244L17.1545 15.599C17.0023 15.6484 16.8356 15.622 16.7061 15.528C16.5766 15.4339 16.5 15.2835 16.5 15.1234V5.5C16.5 5.22386 16.2762 5 16 5ZM14.5 5.5C14.5 4.67157 15.1716 4 16 4C16.8284 4 17.5 4.67157 17.5 5.5V14.4352L25.9989 11.6733C26.7868 11.4173 27.6331 11.8484 27.8891 12.6363C28.1451 13.4242 27.714 14.2704 26.9261 14.5264L18.4263 17.2886L23.6763 24.5187C24.163 25.1891 24.0142 26.1271 23.3439 26.6138C22.6735 27.1006 21.7355 26.9518 21.2488 26.2814L16 19.053L10.7513 26.2814C10.2645 26.9518 9.3265 27.1006 8.65615 26.6138C7.98581 26.1271 7.83698 25.1891 8.32373 24.5187L13.5737 17.2886L5.07392 14.5264C4.28605 14.2704 3.85492 13.4242 4.11095 12.6363C4.36698 11.8484 5.21324 11.4173 6.00111 11.6733L14.5 14.4352V5.5Z" fill="white"/>
</svg>
