<svg width="32" height="33" viewBox="0 0 32 33" fill="none" xmlns="http://www.w3.org/2000/svg">
<path fill-rule="evenodd" clip-rule="evenodd" d="M19.2876 3.40935C16.3703 2.67688 13.292 2.93963 10.541 4.15589C7.79012 5.37215 5.52415 7.47227 4.10269 10.123C2.68124 12.7737 2.18572 15.8232 2.69476 18.7877C3.2038 21.7521 4.68824 24.4616 6.91254 26.4863C9.13684 28.511 11.9736 29.7349 14.9727 29.9638C17.9718 30.1927 20.9614 29.4135 23.4672 27.7498C24.1574 27.2915 24.3454 26.3606 23.8872 25.6704C23.4289 24.9803 22.498 24.7922 21.8078 25.2505C19.8589 26.5445 17.5336 27.1505 15.201 26.9725C12.8684 26.7945 10.662 25.8425 8.93198 24.2678C7.20197 22.693 6.0474 20.5856 5.65148 18.28C5.25556 15.9743 5.64097 13.6024 6.74654 11.5408C7.85212 9.47908 9.61454 7.84566 11.7542 6.89968C13.8938 5.95369 16.288 5.74934 18.557 6.31904C20.826 6.88873 22.8397 8.19985 24.2787 10.0443C25.7176 11.8887 26.4994 14.1612 26.5 16.5005C26.5 17.7386 26.2697 18.6714 25.9137 19.244C25.7543 19.5003 25.5738 19.6822 25.361 19.8029C25.1487 19.9234 24.8741 20.0001 24.5 20.0001C24.1259 20.0001 23.8513 19.9234 23.6391 19.8029C23.4263 19.6822 23.2457 19.5003 23.0864 19.244C22.7303 18.6714 22.5 17.7384 22.5 16.5001V11.5001C22.5 10.6717 21.8284 10.0001 21 10.0001C20.3234 10.0001 19.7514 10.4481 19.5645 11.0637C18.541 10.3914 17.3158 10 16 10C12.4102 10 9.5 12.9101 9.5 16.5C9.5 20.0899 12.4102 23 16 23C17.8314 23 19.486 22.2422 20.6669 21.0243C21.5 22.2375 22.8003 23.0001 24.5 23.0001C26.2897 23.0001 27.6365 22.1547 28.4614 20.8281C29.2304 19.5913 29.5 18.0239 29.5 16.4998C29.4993 13.492 28.4942 10.5705 26.644 8.19903C24.7939 5.82754 22.2048 4.14182 19.2876 3.40935ZM16 13C14.067 13 12.5 14.567 12.5 16.5C12.5 18.433 14.067 20 16 20C17.933 20 19.5 18.433 19.5 16.5C19.5 14.567 17.933 13 16 13Z" fill="white"/>
</svg>
