<svg width="32" height="32" viewBox="0 0 32 32" fill="none" xmlns="http://www.w3.org/2000/svg">
<path fill-rule="evenodd" clip-rule="evenodd" d="M10.0839 8C10.2902 6.77969 10.8707 5.64405 11.7574 4.75736C12.8826 3.63214 14.4087 3 16 3C17.5913 3 19.1174 3.63214 20.2426 4.75736C21.1293 5.64405 21.7098 6.77969 21.9161 8H27C28.1046 8 29 8.89543 29 10V26C29 27.1046 28.1046 28 27 28H5C3.89543 28 3 27.1046 3 26V10C3 8.89543 3.89543 8 5 8H10.0839ZM13.1716 6.17157C13.9217 5.42143 14.9391 5 16 5C17.0609 5 18.0783 5.42143 18.8284 6.17157C19.338 6.68111 19.6958 7.31397 19.873 8H12.127C12.3042 7.31397 12.662 6.68111 13.1716 6.17157ZM10 10V13C10 13.5523 10.4477 14 11 14C11.5523 14 12 13.5523 12 13V10H20V13C20 13.5523 20.4477 14 21 14C21.5523 14 22 13.5523 22 13V10H27V26H5V10H10Z" fill="white"/>
<path fill-rule="evenodd" clip-rule="evenodd" d="M16 3.5C14.5413 3.5 13.1424 4.07946 12.1109 5.11091C11.2981 5.9237 10.766 6.9647 10.5769 8.08333C10.5362 8.32391 10.3279 8.5 10.0839 8.5H5C4.17157 8.5 3.5 9.17157 3.5 10V26C3.5 26.8284 4.17157 27.5 5 27.5H27C27.8284 27.5 28.5 26.8284 28.5 26V10C28.5 9.17157 27.8284 8.5 27 8.5H21.9161C21.6721 8.5 21.4638 8.32391 21.4231 8.08333C21.234 6.9647 20.7019 5.9237 19.8891 5.11091C18.8576 4.07946 17.4587 3.5 16 3.5ZM11.4038 4.40381C12.6228 3.18482 14.2761 2.5 16 2.5C17.7239 2.5 19.3772 3.18482 20.5962 4.40381C21.4551 5.26268 22.0488 6.33715 22.3246 7.5H27C28.3807 7.5 29.5 8.61929 29.5 10V26C29.5 27.3807 28.3807 28.5 27 28.5H5C3.61929 28.5 2.5 27.3807 2.5 26V10C2.5 8.61929 3.61929 7.5 5 7.5H9.67542C9.95125 6.33715 10.5449 5.26268 11.4038 4.40381ZM16 5.5C15.0717 5.5 14.1815 5.86875 13.5251 6.52513C13.2392 6.81109 13.0078 7.14144 12.8377 7.5H19.1623C18.9922 7.14144 18.7608 6.81109 18.4749 6.52513C17.8185 5.86875 16.9283 5.5 16 5.5ZM12.818 5.81802C13.6619 4.97411 14.8065 4.5 16 4.5C17.1935 4.5 18.3381 4.97411 19.182 5.81802C19.7552 6.39127 20.1578 7.10325 20.3571 7.87499C20.3958 8.02472 20.363 8.18392 20.2683 8.30618C20.1736 8.42844 20.0276 8.5 19.873 8.5H12.127C11.9724 8.5 11.8264 8.42844 11.7317 8.30618C11.637 8.18392 11.6042 8.02472 11.6429 7.87499C11.8422 7.10325 12.2448 6.39127 12.818 5.81802ZM4.5 10C4.5 9.72386 4.72386 9.5 5 9.5H10C10.2761 9.5 10.5 9.72386 10.5 10V13C10.5 13.2761 10.7239 13.5 11 13.5C11.2761 13.5 11.5 13.2761 11.5 13V10C11.5 9.72386 11.7239 9.5 12 9.5H20C20.2761 9.5 20.5 9.72386 20.5 10V13C20.5 13.2761 20.7239 13.5 21 13.5C21.2761 13.5 21.5 13.2761 21.5 13V10C21.5 9.72386 21.7239 9.5 22 9.5H27C27.2761 9.5 27.5 9.72386 27.5 10V26C27.5 26.2761 27.2761 26.5 27 26.5H5C4.72386 26.5 4.5 26.2761 4.5 26V10ZM5.5 10.5V25.5H26.5V10.5H22.5V13C22.5 13.8284 21.8284 14.5 21 14.5C20.1716 14.5 19.5 13.8284 19.5 13V10.5H12.5V13C12.5 13.8284 11.8284 14.5 11 14.5C10.1716 14.5 9.5 13.8284 9.5 13V10.5H5.5Z" fill="white"/>
</svg>
