<svg width="32" height="32" viewBox="0 0 32 32" fill="none" xmlns="http://www.w3.org/2000/svg">
<path d="M17.1643 6.10114C16.6195 6.01043 16.1043 6.37853 16.0136 6.92331C15.9229 7.4681 16.291 7.98327 16.8358 8.07398C17.8589 8.24433 18.8031 8.73017 19.5365 9.46356C20.2699 10.197 20.7558 11.1412 20.9261 12.1643C21.0168 12.7091 21.532 13.0772 22.0768 12.9865C22.6216 12.8958 22.9897 12.3806 22.899 11.8358C22.6601 10.4014 21.979 9.07757 20.9507 8.04935C19.9225 7.02113 18.5987 6.33997 17.1643 6.10114Z" fill="white"/>
<path fill-rule="evenodd" clip-rule="evenodd" d="M8.22183 5.22183C10.2847 3.15893 13.0826 2 16 2C18.9174 2 21.7153 3.15893 23.7782 5.22183C25.8411 7.28473 27 10.0826 27 13C27 16.011 25.7901 19.2239 23.859 21.6886C22.5015 23.4213 20.7306 24.8513 18.6955 25.5459L19.9285 28.6284C20.0517 28.9365 20.0141 29.2856 19.8281 29.5604C19.642 29.8352 19.3318 29.9998 19 29.9998H13C12.6682 29.9998 12.358 29.8352 12.1719 29.5604C11.9859 29.2856 11.9483 28.9365 12.0715 28.6284L13.3045 25.5459C11.2694 24.8513 9.49847 23.4213 8.14096 21.6886C6.20987 19.2239 5 16.011 5 13C5 10.0826 6.15893 7.28473 8.22183 5.22183ZM16 4C13.6131 4 11.3239 4.94821 9.63604 6.63604C7.94821 8.32387 7 10.6131 7 13C7 15.514 8.02763 18.3011 9.71529 20.4551C11.4059 22.6129 13.6438 24 16 24C18.3562 24 20.5941 22.6129 22.2847 20.4551C23.9724 18.3011 25 15.514 25 13C25 10.6131 24.0518 8.32387 22.364 6.63604C20.6761 4.94821 18.3869 4 16 4ZM16 26C16.2393 26 16.4762 25.9895 16.7106 25.9689L17.523 27.9998H14.477L15.2894 25.9689C15.5238 25.9895 15.7608 26 16 26Z" fill="white"/>
<path fill-rule="evenodd" clip-rule="evenodd" d="M16 2.5C13.2152 2.5 10.5445 3.60625 8.57538 5.57538C6.60625 7.54451 5.5 10.2152 5.5 13C5.5 15.8867 6.66428 18.9932 8.53454 21.3802C9.84765 23.0562 11.5436 24.4165 13.466 25.0727C13.5958 25.117 13.7016 25.2126 13.7589 25.3372C13.8161 25.4617 13.8197 25.6043 13.7688 25.7316L12.5358 28.8141C12.4741 28.9681 12.493 29.1427 12.586 29.2801C12.679 29.4175 12.8341 29.4998 13 29.4998H19C19.1659 29.4998 19.321 29.4175 19.414 29.2801C19.5071 29.1427 19.5259 28.9681 19.4642 28.8141L18.2313 25.7316C18.1803 25.6043 18.1839 25.4617 18.2412 25.3372C18.2984 25.2126 18.4042 25.117 18.534 25.0727C20.4564 24.4165 22.1524 23.0562 23.4655 21.3802C25.3357 18.9932 26.5 15.8867 26.5 13C26.5 10.2152 25.3938 7.54451 23.4246 5.57538C21.4555 3.60625 18.7848 2.5 16 2.5ZM7.86827 4.86827C10.0249 2.7116 12.95 1.5 16 1.5C19.05 1.5 21.9751 2.7116 24.1317 4.86827C26.2884 7.02494 27.5 9.95001 27.5 13C27.5 16.1353 26.2446 19.4546 24.2526 21.997C22.9591 23.6479 21.2877 25.0523 19.3498 25.8355L20.3927 28.4427C20.5776 28.9048 20.5212 29.4286 20.2421 29.8407C19.9631 30.2529 19.4977 30.4998 19 30.4998H13C12.5023 30.4998 12.0369 30.2529 11.7579 29.8407C11.4789 29.4286 11.4224 28.9048 11.6073 28.4427L12.6502 25.8355C10.7123 25.0523 9.04087 23.6479 7.74737 21.997C5.75545 19.4546 4.5 16.1353 4.5 13C4.5 9.95001 5.7116 7.02494 7.86827 4.86827ZM9.28249 6.28249C11.0641 4.50089 13.4804 3.5 16 3.5C18.5196 3.5 20.9359 4.50089 22.7175 6.28249C24.4991 8.06408 25.5 10.4804 25.5 13C25.5 15.6382 24.4268 18.5318 22.6783 20.7635C20.928 22.9975 18.559 24.5 16 24.5C13.441 24.5 11.072 22.9975 9.32171 20.7635C7.57316 18.5318 6.5 15.6382 6.5 13C6.5 10.4804 7.50089 8.06408 9.28249 6.28249ZM16 4.5C13.7457 4.5 11.5837 5.39553 9.98959 6.98959C8.39553 8.58365 7.5 10.7457 7.5 13C7.5 15.3898 8.4821 18.0705 10.1089 20.1468C11.7398 22.2283 13.8465 23.5 16 23.5C18.1535 23.5 20.2602 22.2283 21.8911 20.1468C23.5179 18.0705 24.5 15.3898 24.5 13C24.5 10.7457 23.6045 8.58365 22.0104 6.98959C20.4163 5.39553 18.2543 4.5 16 4.5ZM15.5204 6.84119C15.6565 6.02401 16.4292 5.47186 17.2464 5.60793C18.7836 5.86388 20.2024 6.59386 21.3043 7.69579C22.4062 8.79772 23.1362 10.2165 23.3922 11.7537C23.5282 12.5709 22.9761 13.3436 22.1589 13.4797C21.3417 13.6158 20.569 13.0636 20.4329 12.2464C20.2797 11.3262 19.8427 10.4768 19.183 9.81711C18.5233 9.15743 17.6739 8.72042 16.7537 8.56719C15.9365 8.43112 15.3843 7.65837 15.5204 6.84119ZM17.0822 6.59435C16.8098 6.54899 16.5522 6.73304 16.5068 7.00544C16.4615 7.27783 16.6455 7.53541 16.9179 7.58077C18.0438 7.76824 19.083 8.30291 19.8901 9.11001C20.6972 9.9171 21.2319 10.9563 21.4193 12.0822C21.4647 12.3546 21.7223 12.5386 21.9947 12.4933C22.267 12.4479 22.4511 12.1903 22.4057 11.9179C22.184 10.5864 21.5517 9.35741 20.5972 8.4029C19.6427 7.44839 18.4137 6.81606 17.0822 6.59435ZM16.6669 25.4708C16.8866 25.4515 17.093 25.5784 17.1749 25.7832L17.9872 27.8141C18.0488 27.9681 18.03 28.1427 17.937 28.2801C17.844 28.4175 17.6889 28.4998 17.523 28.4998H14.477C14.3111 28.4998 14.156 28.4175 14.063 28.2801C13.97 28.1427 13.9512 27.9681 14.0128 27.8141L14.8252 25.7832C14.9071 25.5784 15.1134 25.4515 15.3331 25.4708C15.5531 25.4901 15.7755 25.5 16 25.5C16.2245 25.5 16.4469 25.4901 16.6669 25.4708ZM16.3812 26.4916C16.2548 26.4972 16.1277 26.5 16 26.5C15.8723 26.5 15.7453 26.4972 15.6188 26.4916L15.2156 27.4998H16.7845L16.3812 26.4916Z" fill="white"/>
</svg>
