<svg width="32" height="32" viewBox="0 0 32 32" fill="none" xmlns="http://www.w3.org/2000/svg">
<path fill-rule="evenodd" clip-rule="evenodd" d="M15.4759 3.14834C15.7973 2.95055 16.2027 2.95055 16.5241 3.14834L29.5241 11.1483C29.9052 11.3828 30.0841 11.8419 29.9622 12.2723C29.8404 12.7028 29.4474 13 29 13H26V21H28C28.5523 21 29 21.4477 29 22C29 22.5523 28.5523 23 28 23H4C3.44772 23 3 22.5523 3 22C3 21.4477 3.44772 21 4 21H6V13H3.00002C2.55263 13 2.15967 12.7028 2.03782 12.2723C1.91598 11.8419 2.0949 11.3828 2.47593 11.1483L15.4759 3.14834ZM24 13V21H20V13H24ZM18 13V21H14V13H18ZM12 13V21H8V13H12ZM25.467 11L16 5.17418L6.53307 11H25.467Z" fill="white"/>
<path d="M2 25C1.44772 25 1 25.4477 1 26C1 26.5523 1.44772 27 2 27H30C30.5523 27 31 26.5523 31 26C31 25.4477 30.5523 25 30 25H2Z" fill="white"/>
<path fill-rule="evenodd" clip-rule="evenodd" d="M16.2621 3.57417C16.1014 3.47528 15.8987 3.47528 15.738 3.57417L2.73798 11.5742C2.54746 11.6914 2.458 11.9209 2.51892 12.1362C2.57985 12.3514 2.77633 12.5 3.00002 12.5H6C6.27614 12.5 6.5 12.7239 6.5 13V21C6.5 21.2761 6.27614 21.5 6 21.5H4C3.72386 21.5 3.5 21.7239 3.5 22C3.5 22.2761 3.72386 22.5 4 22.5H28C28.2761 22.5 28.5 22.2761 28.5 22C28.5 21.7239 28.2761 21.5 28 21.5H26C25.7239 21.5 25.5 21.2761 25.5 21V13C25.5 12.7239 25.7239 12.5 26 12.5H29C29.2237 12.5 29.4202 12.3514 29.4811 12.1362C29.542 11.9209 29.4526 11.6914 29.2621 11.5742L16.2621 3.57417ZM15.2139 2.72251C15.696 2.42583 16.3041 2.42583 16.7862 2.72251L29.7862 10.7225C30.3577 11.0742 30.6261 11.7628 30.4433 12.4085C30.2606 13.0542 29.6711 13.5 29 13.5H26.5V20.5H28C28.8284 20.5 29.5 21.1716 29.5 22C29.5 22.8284 28.8284 23.5 28 23.5H4C3.17157 23.5 2.5 22.8284 2.5 22C2.5 21.1716 3.17157 20.5 4 20.5H5.5V13.5H3.00002C2.32893 13.5 1.73949 13.0542 1.55672 12.4085C1.37396 11.7628 1.64233 11.0742 2.21388 10.7225L15.2139 2.72251ZM15.738 4.74835C15.8987 4.64946 16.1014 4.64946 16.2621 4.74835L25.729 10.5742C25.9195 10.6914 26.009 10.9209 25.9481 11.1362C25.8872 11.3514 25.6907 11.5 25.467 11.5H6.53307C6.30937 11.5 6.11289 11.3514 6.05197 11.1362C5.99104 10.9209 6.0805 10.6914 6.27102 10.5742L15.738 4.74835ZM8.29959 10.5H23.7005L16 5.76127L8.29959 10.5ZM7.5 13C7.5 12.7239 7.72386 12.5 8 12.5H12C12.2761 12.5 12.5 12.7239 12.5 13V21C12.5 21.2761 12.2761 21.5 12 21.5H8C7.72386 21.5 7.5 21.2761 7.5 21V13ZM8.5 13.5V20.5H11.5V13.5H8.5ZM13.5 13C13.5 12.7239 13.7239 12.5 14 12.5H18C18.2761 12.5 18.5 12.7239 18.5 13V21C18.5 21.2761 18.2761 21.5 18 21.5H14C13.7239 21.5 13.5 21.2761 13.5 21V13ZM14.5 13.5V20.5H17.5V13.5H14.5ZM19.5 13C19.5 12.7239 19.7239 12.5 20 12.5H24C24.2761 12.5 24.5 12.7239 24.5 13V21C24.5 21.2761 24.2761 21.5 24 21.5H20C19.7239 21.5 19.5 21.2761 19.5 21V13ZM20.5 13.5V20.5H23.5V13.5H20.5ZM0.5 26C0.5 25.1716 1.17157 24.5 2 24.5H30C30.8284 24.5 31.5 25.1716 31.5 26C31.5 26.8284 30.8284 27.5 30 27.5H2C1.17157 27.5 0.5 26.8284 0.5 26ZM2 25.5C1.72386 25.5 1.5 25.7239 1.5 26C1.5 26.2761 1.72386 26.5 2 26.5H30C30.2761 26.5 30.5 26.2761 30.5 26C30.5 25.7239 30.2761 25.5 30 25.5H2Z" fill="white"/>
</svg>
