<svg width="32" height="32" viewBox="0 0 32 32" fill="none" xmlns="http://www.w3.org/2000/svg">
<path d="M23 5C22.4477 5 22 5.44772 22 6C22 6.55228 22.4477 7 23 7H27V11C27 11.5523 27.4477 12 28 12C28.5523 12 29 11.5523 29 11V6C29 5.44772 28.5523 5 28 5H23Z" fill="white"/>
<path d="M5 21C5 20.4477 4.55228 20 4 20C3.44772 20 3 20.4477 3 21V26C3 26.5523 3.44772 27 4 27H9C9.55228 27 10 26.5523 10 26C10 25.4477 9.55228 25 9 25H5V21Z" fill="white"/>
<path d="M28 20C28.5523 20 29 20.4477 29 21V26C29 26.5523 28.5523 27 28 27H23C22.4477 27 22 26.5523 22 26C22 25.4477 22.4477 25 23 25H27V21C27 20.4477 27.4477 20 28 20Z" fill="white"/>
<path d="M4 5C3.44772 5 3 5.44772 3 6V11C3 11.5523 3.44772 12 4 12C4.55228 12 5 11.5523 5 11V7H9C9.55228 7 10 6.55228 10 6C10 5.44772 9.55228 5 9 5H4Z" fill="white"/>
<path d="M10 10C10.5523 10 11 10.4477 11 11V21C11 21.5523 10.5523 22 10 22C9.44772 22 9 21.5523 9 21V11C9 10.4477 9.44772 10 10 10Z" fill="white"/>
<path d="M23 11C23 10.4477 22.5523 10 22 10C21.4477 10 21 10.4477 21 11V21C21 21.5523 21.4477 22 22 22C22.5523 22 23 21.5523 23 21V11Z" fill="white"/>
<path d="M18 10C18.5523 10 19 10.4477 19 11V21C19 21.5523 18.5523 22 18 22C17.4477 22 17 21.5523 17 21V11C17 10.4477 17.4477 10 18 10Z" fill="white"/>
<path d="M15 11C15 10.4477 14.5523 10 14 10C13.4477 10 13 10.4477 13 11V21C13 21.5523 13.4477 22 14 22C14.5523 22 15 21.5523 15 21V11Z" fill="white"/>
<path fill-rule="evenodd" clip-rule="evenodd" d="M2.5 6C2.5 5.17157 3.17157 4.5 4 4.5H9C9.82843 4.5 10.5 5.17157 10.5 6C10.5 6.82843 9.82843 7.5 9 7.5H5.5V11C5.5 11.8284 4.82843 12.5 4 12.5C3.17157 12.5 2.5 11.8284 2.5 11V6ZM4 5.5C3.72386 5.5 3.5 5.72386 3.5 6V11C3.5 11.2761 3.72386 11.5 4 11.5C4.27614 11.5 4.5 11.2761 4.5 11V7C4.5 6.72386 4.72386 6.5 5 6.5H9C9.27614 6.5 9.5 6.27614 9.5 6C9.5 5.72386 9.27614 5.5 9 5.5H4ZM21.5 6C21.5 5.17157 22.1716 4.5 23 4.5H28C28.8284 4.5 29.5 5.17157 29.5 6V11C29.5 11.8284 28.8284 12.5 28 12.5C27.1716 12.5 26.5 11.8284 26.5 11V7.5H23C22.1716 7.5 21.5 6.82843 21.5 6ZM23 5.5C22.7239 5.5 22.5 5.72386 22.5 6C22.5 6.27614 22.7239 6.5 23 6.5H27C27.2761 6.5 27.5 6.72386 27.5 7V11C27.5 11.2761 27.7239 11.5 28 11.5C28.2761 11.5 28.5 11.2761 28.5 11V6C28.5 5.72386 28.2761 5.5 28 5.5H23ZM10 10.5C9.72386 10.5 9.5 10.7239 9.5 11V21C9.5 21.2761 9.72386 21.5 10 21.5C10.2761 21.5 10.5 21.2761 10.5 21V11C10.5 10.7239 10.2761 10.5 10 10.5ZM8.5 11C8.5 10.1716 9.17157 9.5 10 9.5C10.8284 9.5 11.5 10.1716 11.5 11V21C11.5 21.8284 10.8284 22.5 10 22.5C9.17157 22.5 8.5 21.8284 8.5 21V11ZM12.5 11C12.5 10.1716 13.1716 9.5 14 9.5C14.8284 9.5 15.5 10.1716 15.5 11V21C15.5 21.8284 14.8284 22.5 14 22.5C13.1716 22.5 12.5 21.8284 12.5 21V11ZM14 10.5C13.7239 10.5 13.5 10.7239 13.5 11V21C13.5 21.2761 13.7239 21.5 14 21.5C14.2761 21.5 14.5 21.2761 14.5 21V11C14.5 10.7239 14.2761 10.5 14 10.5ZM18 10.5C17.7239 10.5 17.5 10.7239 17.5 11V21C17.5 21.2761 17.7239 21.5 18 21.5C18.2761 21.5 18.5 21.2761 18.5 21V11C18.5 10.7239 18.2761 10.5 18 10.5ZM16.5 11C16.5 10.1716 17.1716 9.5 18 9.5C18.8284 9.5 19.5 10.1716 19.5 11V21C19.5 21.8284 18.8284 22.5 18 22.5C17.1716 22.5 16.5 21.8284 16.5 21V11ZM20.5 11C20.5 10.1716 21.1716 9.5 22 9.5C22.8284 9.5 23.5 10.1716 23.5 11V21C23.5 21.8284 22.8284 22.5 22 22.5C21.1716 22.5 20.5 21.8284 20.5 21V11ZM22 10.5C21.7239 10.5 21.5 10.7239 21.5 11V21C21.5 21.2761 21.7239 21.5 22 21.5C22.2761 21.5 22.5 21.2761 22.5 21V11C22.5 10.7239 22.2761 10.5 22 10.5ZM2.5 21C2.5 20.1716 3.17157 19.5 4 19.5C4.82843 19.5 5.5 20.1716 5.5 21V24.5H9C9.82843 24.5 10.5 25.1716 10.5 26C10.5 26.8284 9.82843 27.5 9 27.5H4C3.17157 27.5 2.5 26.8284 2.5 26V21ZM4 20.5C3.72386 20.5 3.5 20.7239 3.5 21V26C3.5 26.2761 3.72386 26.5 4 26.5H9C9.27614 26.5 9.5 26.2761 9.5 26C9.5 25.7239 9.27614 25.5 9 25.5H5C4.72386 25.5 4.5 25.2761 4.5 25V21C4.5 20.7239 4.27614 20.5 4 20.5ZM28 20.5C27.7239 20.5 27.5 20.7239 27.5 21V25C27.5 25.2761 27.2761 25.5 27 25.5H23C22.7239 25.5 22.5 25.7239 22.5 26C22.5 26.2761 22.7239 26.5 23 26.5H28C28.2761 26.5 28.5 26.2761 28.5 26V21C28.5 20.7239 28.2761 20.5 28 20.5ZM26.5 21C26.5 20.1716 27.1716 19.5 28 19.5C28.8284 19.5 29.5 20.1716 29.5 21V26C29.5 26.8284 28.8284 27.5 28 27.5H23C22.1716 27.5 21.5 26.8284 21.5 26C21.5 25.1716 22.1716 24.5 23 24.5H26.5V21Z" fill="white"/>
</svg>
