<svg width="32" height="33" viewBox="0 0 32 33" fill="none" xmlns="http://www.w3.org/2000/svg">
<path d="M6.80655 5.89234C7.19744 6.28251 7.19802 6.91567 6.80785 7.30655C5.62321 8.49338 4.67721 9.89642 4.02112 11.4396C3.34717 13.0416 3 14.7621 3 16.5001C3 18.2381 3.34716 19.9586 4.0211 21.5605C4.67719 23.1038 5.6232 24.5068 6.80785 25.6936C7.19802 26.0845 7.19744 26.7177 6.80655 27.1079C6.41567 27.498 5.78251 27.4974 5.39234 27.1066C4.02653 25.7382 2.93595 24.1205 2.17976 22.3412L2.17839 22.338C1.40064 20.49 1 18.5051 1 16.5001C1 14.4951 1.40064 12.5102 2.1784 10.6622L2.17976 10.659C2.93595 8.87965 4.02653 7.26197 5.39234 5.89364C5.78251 5.50276 6.41567 5.50218 6.80655 5.89234Z" fill="white"/>
<path d="M10.3451 9.43098C10.7354 9.82172 10.7351 10.4549 10.3443 10.8452C9.61487 11.5738 9.03411 12.4374 8.63442 13.3879L8.63298 13.3913C8.2152 14.3745 7.99988 15.4319 7.99988 16.5002C7.99988 17.5685 8.2152 18.6259 8.63298 19.6091L8.63442 19.6125C9.03411 20.5629 9.61487 21.4265 10.3443 22.1552C10.7351 22.5455 10.7354 23.1787 10.3451 23.5694C9.9548 23.9602 9.32164 23.9605 8.9309 23.5702C8.01836 22.6587 7.29176 21.5784 6.79153 20.3896C6.26912 19.1594 5.99988 17.8367 5.99988 16.5002C5.99988 15.1637 6.26912 13.841 6.79153 12.6108C7.29176 11.422 8.01836 10.3417 8.9309 9.4302C9.32164 9.03989 9.9548 9.04024 10.3451 9.43098Z" fill="white"/>
<path fill-rule="evenodd" clip-rule="evenodd" d="M11.0001 16.5C11.0001 13.7386 13.2387 11.5 16.0001 11.5C18.7615 11.5 21.0001 13.7386 21.0001 16.5C21.0001 19.2614 18.7615 21.5 16.0001 21.5C13.2387 21.5 11.0001 19.2614 11.0001 16.5ZM16.0001 13.5C14.3433 13.5 13.0001 14.8431 13.0001 16.5C13.0001 18.1569 14.3433 19.5 16.0001 19.5C17.657 19.5 19.0001 18.1569 19.0001 16.5C19.0001 14.8431 17.657 13.5 16.0001 13.5Z" fill="white"/>
<path d="M23.0693 9.4302C22.6786 9.03989 22.0454 9.04024 21.6551 9.43098C21.2648 9.82172 21.2652 10.4549 21.6559 10.8452C22.3854 11.5738 22.9661 12.4374 23.3658 13.3879L23.3672 13.3913C23.785 14.3745 24.0003 15.4319 24.0003 16.5002C24.0003 17.5685 23.785 18.6259 23.3672 19.6091L23.3658 19.6125C22.9661 20.5629 22.3854 21.4265 21.6559 22.1552C21.2652 22.5455 21.2648 23.1787 21.6551 23.5694C22.0454 23.9602 22.6786 23.9605 23.0693 23.5702C23.9819 22.6587 24.7085 21.5784 25.2087 20.3896C25.7311 19.1595 26.0003 17.8367 26.0003 16.5002C26.0003 15.1637 25.7311 13.841 25.2087 12.6108C24.7085 11.422 23.9819 10.3417 23.0693 9.4302Z" fill="white"/>
<path d="M26.6079 5.89364C26.2177 5.50276 25.5846 5.50218 25.1937 5.89234C24.8028 6.28251 24.8022 6.91567 25.1924 7.30655C26.377 8.49338 27.323 9.89642 27.9791 11.4396C28.6531 13.0416 29.0002 14.7621 29.0002 16.5001C29.0002 18.2381 28.6531 19.9586 27.9791 21.5605C27.3231 23.1038 26.377 24.5068 25.1924 25.6936C24.8022 26.0845 24.8028 26.7177 25.1937 27.1079C25.5846 27.498 26.2177 27.4974 26.6079 27.1066C27.9737 25.7382 29.0643 24.1205 29.8205 22.3412L29.8218 22.338C30.5996 20.49 31.0002 18.5051 31.0002 16.5001C31.0002 14.4951 30.5996 12.5102 29.8219 10.6622L29.8205 10.659C29.0643 8.87966 27.9737 7.26197 26.6079 5.89364Z" fill="white"/>
<path fill-rule="evenodd" clip-rule="evenodd" d="M6.45332 6.24622C6.25788 6.05114 5.9413 6.05143 5.74622 6.24687C4.4258 7.56972 3.37143 9.13359 2.64027 10.8537C2.64016 10.854 2.64039 10.8534 2.64027 10.8537L2.63925 10.8561C2.63924 10.8562 2.63925 10.8561 2.63925 10.8561M5.03846 5.54041C5.62371 4.95409 6.57346 4.95321 7.15978 5.53846C7.74611 6.12371 7.74698 7.07346 7.16173 7.65978C6.02249 8.80112 5.1127 10.1503 4.48164 11.6343C3.83374 13.1747 3.5 14.829 3.5 16.5001C3.5 18.1712 3.83374 19.8254 4.48162 21.3658C5.11268 22.8498 6.02247 24.1991 7.16173 25.3404C7.74698 25.9267 7.74611 26.8765 7.15978 27.4617C6.57346 28.047 5.62371 28.0461 5.03846 27.4598C3.62746 26.0462 2.5008 24.375 1.7196 22.5368L1.71821 22.5335L1.71754 22.5319C0.913952 20.6225 0.5 18.5717 0.5 16.5001C0.5 14.4285 0.913952 12.3777 1.71754 10.4682L1.71891 10.465L1.71959 10.4634C2.5008 8.62522 3.62746 6.95401 5.03846 5.54041ZM24.8405 5.53846C25.4268 4.95322 26.3765 4.95409 26.9618 5.54041C28.3728 6.954 29.4994 8.62518 30.2806 10.4633C30.2806 10.4633 30.2806 10.4634 30.2806 10.4633L30.2827 10.4682C31.0863 12.3777 31.5002 14.4284 31.5002 16.5001C31.5002 18.5717 31.0863 20.6225 30.2827 22.5319L30.281 22.536C29.4998 24.3742 28.3728 26.0462 26.9618 27.4598C26.3765 28.0461 25.4268 28.047 24.8405 27.4617C24.2541 26.8765 24.2533 25.9267 24.8385 25.3404C25.9777 24.1991 26.8875 22.8499 27.5186 21.3659C28.1665 19.8255 28.5002 18.1712 28.5002 16.5001C28.5002 14.829 28.1665 13.1747 27.5186 11.6343C26.8875 10.1503 25.9777 8.80111 24.8385 7.65978C24.2533 7.07346 24.2541 6.12371 24.8405 5.53846ZM26.254 6.24687C26.0589 6.05143 25.7424 6.05114 25.5469 6.24622C25.3515 6.4413 25.3512 6.75788 25.5463 6.95333C26.7761 8.18541 27.7582 9.64194 28.4393 11.244L28.44 11.2457C29.1398 12.9091 29.5002 14.6955 29.5002 16.5001C29.5002 18.3047 29.1398 20.0911 28.44 21.7544L28.4393 21.7562C27.7582 23.3582 26.7761 24.8148 25.5463 26.0469C25.3512 26.2423 25.3515 26.5589 25.5469 26.754C25.7424 26.9491 26.0589 26.9488 26.254 26.7533C27.5745 25.4304 28.6289 23.8665 29.36 22.1463C29.3599 22.1465 29.3601 22.1461 29.36 22.1463L29.361 22.144M6.45332 6.24622C6.64877 6.4413 6.64906 6.75788 6.45398 6.95333L6.45332 6.24622ZM6.45398 6.95333L6.80785 7.30655L6.45398 6.95333ZM26.254 6.24687C27.5746 7.56993 28.6291 9.13409 29.3603 10.8545L26.254 6.24687ZM3.56098 11.244C4.24208 9.64194 5.22416 8.18541 6.45398 6.95333L6.80785 7.30655M9.99136 9.78434C9.79621 9.58897 9.47963 9.58879 9.28426 9.78395C8.41757 10.6497 7.72748 11.6756 7.25239 12.8048L7.25175 12.8063C6.75559 13.9746 6.49988 15.2309 6.49988 16.5002C6.49988 17.7695 6.75559 19.0258 7.25175 20.1941L7.2524 20.1956C7.72749 21.3247 8.41758 22.3507 9.28426 23.2164C9.47963 23.4116 9.79621 23.4114 9.99136 23.2161C10.1865 23.0207 10.1863 22.7041 9.99097 22.5089C9.21586 21.7347 8.59871 20.8171 8.17389 19.8072C8.17377 19.8069 8.17401 19.8075 8.17389 19.8072L8.17281 19.8047C7.72876 18.7596 7.49988 17.6357 7.49988 16.5002C7.49988 15.3649 7.72867 14.2412 8.17259 13.1962C8.17252 13.1964 8.17266 13.1961 8.17259 13.1962L8.17352 13.194C8.59835 12.1838 9.21564 11.2659 9.99097 10.4914C10.1863 10.2963 10.1865 9.97971 9.99136 9.78434ZM8.57754 9.07645C9.16365 8.49099 10.1134 8.49151 10.6989 9.07762C11.2843 9.66373 11.2838 10.6135 10.6977 11.1989C10.0141 11.8818 9.46988 12.691 9.09532 13.5817L9.09352 13.5859C8.70201 14.5074 8.49988 15.4991 8.49988 16.5002C8.49988 17.5013 8.70166 18.4922 9.09316 19.4136L9.09533 19.4187C9.46988 20.3093 10.0141 21.1186 10.6977 21.8014C11.2838 22.3869 11.2843 23.3367 10.6989 23.9228C10.1134 24.5089 9.16365 24.5094 8.57754 23.9239C7.61934 22.9668 6.85634 21.8325 6.33099 20.5842C5.78254 19.2925 5.49988 17.9035 5.49988 16.5002C5.49988 15.0968 5.78254 13.7079 6.331 12.4161C6.85635 11.1678 7.61935 10.0336 8.57754 9.07645ZM21.3014 9.07762C21.8868 8.49151 22.8366 8.49099 23.4227 9.07645C24.3809 10.0336 25.1439 11.1679 25.6692 12.4161C26.2177 13.7079 26.5003 15.0968 26.5003 16.5002C26.5003 17.9037 26.2176 19.2928 25.669 20.5847C25.1437 21.8328 24.3808 22.9669 23.4227 23.9239C22.8366 24.5094 21.8868 24.5089 21.3014 23.9228C20.7159 23.3367 20.7164 22.3869 21.3025 21.8014C21.9861 21.1186 22.5303 20.3093 22.9049 19.4187L22.9067 19.4145C23.2982 18.4931 23.5003 17.5013 23.5003 16.5002C23.5003 15.4991 23.2986 14.5082 22.9071 13.5868L22.9056 13.5833L22.9049 13.5817C22.5303 12.691 21.9861 11.8818 21.3025 11.1989C20.7164 10.6135 20.7159 9.66373 21.3014 9.07762ZM22.716 9.78395C22.5206 9.58879 22.204 9.58897 22.0089 9.78434C21.8137 9.97971 21.8139 10.2963 22.0093 10.4914C22.7843 11.2656 23.4014 12.1832 23.8262 13.1929C23.8264 13.1933 23.8266 13.1937 23.8267 13.194L23.8274 13.1957C23.8274 13.1957 23.8274 13.1958 23.8274 13.1957C24.2715 14.2408 24.5003 15.3647 24.5003 16.5002C24.5003 17.6354 24.2716 18.759 23.8278 19.8039C23.8277 19.8041 23.8279 19.8036 23.8278 19.8039L23.8267 19.8064C23.4019 20.8166 22.7846 21.7345 22.0093 22.5089C21.8139 22.7041 21.8137 23.0207 22.0089 23.2161C22.204 23.4114 22.5206 23.4116 22.716 23.2164C23.5826 22.3507 24.2727 21.3248 24.7478 20.1957L24.7485 20.1942C25.2446 19.0258 25.5003 17.7695 25.5003 16.5002C25.5003 15.2309 25.2446 13.9746 24.7485 12.8063L24.7478 12.8047C24.2727 11.6756 23.5826 10.6497 22.716 9.78395ZM29.3603 10.8545L29.361 10.8561L29.3603 10.8545ZM29.361 10.8561C29.3609 10.8559 29.3611 10.8564 29.361 10.8561V10.8561ZM16.0001 12C13.5148 12 11.5001 14.0147 11.5001 16.5C11.5001 18.9853 13.5148 21 16.0001 21C18.4854 21 20.5001 18.9853 20.5001 16.5C20.5001 14.0147 18.4854 12 16.0001 12ZM10.5001 16.5C10.5001 13.4624 12.9626 11 16.0001 11C19.0377 11 21.5001 13.4624 21.5001 16.5C21.5001 19.5376 19.0377 22 16.0001 22C12.9626 22 10.5001 19.5376 10.5001 16.5ZM3.56098 11.244L3.56024 11.2457L3.56098 11.244ZM3.56024 11.2457C2.86047 12.9091 2.5 14.6955 2.5 16.5001L3.56024 11.2457ZM12.5001 16.5C12.5001 14.567 14.0671 13 16.0001 13C17.9331 13 19.5001 14.567 19.5001 16.5C19.5001 18.433 17.9331 20 16.0001 20C14.0671 20 12.5001 18.433 12.5001 16.5ZM16.0001 14C14.6194 14 13.5001 15.1193 13.5001 16.5C13.5001 17.8807 14.6194 19 16.0001 19C17.3808 19 18.5001 17.8807 18.5001 16.5C18.5001 15.1193 17.3808 14 16.0001 14ZM2.63924 22.1441C2.63912 22.1438 2.63936 22.1443 2.63924 22.1441L2.63993 22.1457C2.63993 22.1457 2.63993 22.1457 2.63993 22.1457" fill="white"/>
</svg>
