<svg width="32" height="32" viewBox="0 0 32 32" fill="none" xmlns="http://www.w3.org/2000/svg">
<path d="M12.5 13C13.3284 13 14 12.3284 14 11.5C14 10.6716 13.3284 10 12.5 10C11.6716 10 11 10.6716 11 11.5C11 12.3284 11.6716 13 12.5 13Z" fill="white"/>
<path d="M19.5 13C20.3284 13 21 12.3284 21 11.5C21 10.6716 20.3284 10 19.5 10C18.6716 10 18 10.6716 18 11.5C18 12.3284 18.6716 13 19.5 13Z" fill="white"/>
<path fill-rule="evenodd" clip-rule="evenodd" d="M5 15H1.5C0.947715 15 0.5 15.4477 0.5 16C0.5 16.5523 0.947715 17 1.5 17H5V18C5 19.0097 5.13881 20.005 5.40585 20.9605L2.51194 22.6343C2.03386 22.9109 1.87047 23.5226 2.14698 24.0007C2.4235 24.4787 3.03522 24.6421 3.5133 24.3656L6.12841 22.853C6.65608 23.9264 7.36008 24.9164 8.22183 25.7782C10.2847 27.8411 13.0826 29 16 29C18.9174 29 21.7153 27.8411 23.7782 25.7782C24.6399 24.9164 25.344 23.9264 25.8716 22.8529L28.4869 24.3656C28.965 24.6421 29.5767 24.4787 29.8532 24.0007C30.1297 23.5226 29.9663 22.9109 29.4882 22.6343L26.5942 20.9604C26.8612 20.0049 27 19.0096 27 18V17H30.5C31.0523 17 31.5 16.5523 31.5 16C31.5 15.4477 31.0523 15 30.5 15H27V14C27 12.9904 26.8612 11.9952 26.5942 11.0397L29.4882 9.3658C29.9663 9.08928 30.1297 8.47756 29.8532 7.99949C29.5767 7.52141 28.965 7.35802 28.4869 7.63453L25.8717 9.14716C25.344 8.07369 24.64 7.08362 23.7782 6.22183C21.7153 4.15893 18.9174 3 16 3C13.0826 3 10.2847 4.15893 8.22183 6.22183C7.36005 7.0836 6.65603 8.07364 6.12836 9.14708L3.5133 7.63453C3.03522 7.35802 2.4235 7.52141 2.14698 7.99949C1.87047 8.47756 2.03386 9.08928 2.51194 9.3658L5.40582 11.0396C5.1388 11.9951 5 12.9904 5 14V15ZM9.63604 7.63604C11.3239 5.94821 13.6131 5 16 5C18.3869 5 20.6761 5.94821 22.364 7.63604C24.0518 9.32387 25 11.6131 25 14V15H7V14C7 11.6131 7.94821 9.32387 9.63604 7.63604ZM17 17V26.9443C19.019 26.7186 20.9135 25.8144 22.364 24.364C24.0518 22.6761 25 20.3869 25 18V17H17ZM15 26.9443V17H7V18C7 20.3869 7.94821 22.6761 9.63604 24.364C11.0865 25.8144 12.981 26.7186 15 26.9443Z" fill="white"/>
<path fill-rule="evenodd" clip-rule="evenodd" d="M7.86827 5.86827C10.0249 3.7116 12.95 2.5 16 2.5C19.05 2.5 21.9751 3.7116 24.1317 5.86827C24.9044 6.64097 25.5558 7.51234 26.0736 8.45273L28.2365 7.20172C28.9537 6.78694 29.8712 7.03203 30.286 7.74915C30.7008 8.46626 30.4557 9.38384 29.7386 9.79862L27.1742 11.2819C27.3889 12.1646 27.5 13.0766 27.5 14V14.5H30.5C31.3284 14.5 32 15.1716 32 16C32 16.8284 31.3284 17.5 30.5 17.5H27.5V18C27.5 18.9235 27.3889 19.8355 27.1742 20.7183L29.7386 22.2015C30.4557 22.6163 30.7008 23.5339 30.286 24.251C29.8712 24.9681 28.9537 25.2132 28.2365 24.7984L26.0736 23.5474C25.5558 24.4877 24.9044 25.3591 24.1317 26.1317C21.9751 28.2884 19.05 29.5 16 29.5C12.95 29.5 10.0249 28.2884 7.86827 26.1317C7.09562 25.3591 6.44426 24.4878 5.92646 23.5475L3.76364 24.7984C3.04652 25.2132 2.12895 24.9681 1.71417 24.251C1.29939 23.5339 1.54448 22.6163 2.2616 22.2015L4.82586 20.7184C4.61109 19.8356 4.5 18.9235 4.5 18V17.5H1.5C0.671573 17.5 0 16.8284 0 16C0 15.1716 0.671573 14.5 1.5 14.5H4.5V14C4.5 13.0765 4.61108 12.1645 4.82583 11.2818L2.2616 9.79862C1.54448 9.38384 1.29939 8.46626 1.71417 7.74915C2.12894 7.03203 3.04652 6.78694 3.76364 7.20172L5.9264 8.45265C6.44421 7.51229 7.09559 6.64095 7.86827 5.86827ZM16 3.5C13.2152 3.5 10.5445 4.60625 8.57538 6.57538C7.75276 7.39799 7.08076 8.34301 6.57707 9.36765C6.51599 9.49192 6.40611 9.58529 6.27361 9.62551C6.14112 9.66574 5.99788 9.64922 5.87802 9.57989L3.26296 8.06735C3.02392 7.92909 2.71806 8.01079 2.5798 8.24983C2.44154 8.48886 2.52324 8.79472 2.76228 8.93298L5.65616 10.6068C5.85365 10.721 5.94878 10.9545 5.88737 11.1742C5.63249 12.0862 5.5 13.0363 5.5 14V15C5.5 15.2761 5.27614 15.5 5 15.5H1.5C1.22386 15.5 1 15.7239 1 16C1 16.2761 1.22386 16.5 1.5 16.5H5C5.27614 16.5 5.5 16.7239 5.5 17V18C5.5 18.9638 5.6325 19.9139 5.8874 20.8259C5.94881 21.0457 5.85369 21.2791 5.65619 21.3933L2.76228 23.0672C2.52324 23.2054 2.44154 23.5113 2.5798 23.7503C2.71806 23.9893 3.02392 24.071 3.26296 23.9328L5.87807 22.4202C5.99793 22.3509 6.14117 22.3344 6.27366 22.3746C6.40616 22.4148 6.51604 22.5082 6.57712 22.6324C7.08081 23.6571 7.75279 24.602 8.57538 25.4246C10.5445 27.3938 13.2152 28.5 16 28.5C18.7848 28.5 21.4555 27.3938 23.4246 25.4246C24.2472 24.602 24.9192 23.657 25.4229 22.6324C25.484 22.5081 25.5939 22.4147 25.7264 22.3745C25.8589 22.3343 26.0021 22.3508 26.122 22.4201L28.7372 23.9328C28.9763 24.071 29.2821 23.9893 29.4204 23.7503C29.5586 23.5113 29.4769 23.2054 29.2379 23.0672L26.3438 21.3932C26.1463 21.279 26.0512 21.0456 26.1126 20.8258C26.3675 19.9138 26.5 18.9638 26.5 18V17C26.5 16.7239 26.7239 16.5 27 16.5H30.5C30.7761 16.5 31 16.2761 31 16C31 15.7239 30.7761 15.5 30.5 15.5H27C26.7239 15.5 26.5 15.2761 26.5 15V14C26.5 13.0363 26.3675 12.0863 26.1127 11.1743C26.0513 10.9545 26.1464 10.7211 26.3439 10.6069L29.2379 8.93298C29.4769 8.79472 29.5586 8.48886 29.4204 8.24983C29.2821 8.01079 28.9763 7.92909 28.7372 8.06735L26.122 9.57998C26.0022 9.6493 25.8589 9.66582 25.7264 9.6256C25.5939 9.58537 25.4841 9.492 25.423 9.36774C24.9193 8.34306 24.2473 7.39801 23.4246 6.57538C21.4555 4.60625 18.7848 3.5 16 3.5ZM16 5.5C13.7457 5.5 11.5837 6.39553 9.98959 7.98959C8.39553 9.58365 7.5 11.7457 7.5 14V14.5H24.5V14C24.5 11.7457 23.6045 9.58365 22.0104 7.98959C20.4163 6.39553 18.2543 5.5 16 5.5ZM9.28249 7.28249C11.0641 5.50089 13.4804 4.5 16 4.5C18.5196 4.5 20.9359 5.50089 22.7175 7.28249C24.4991 9.06408 25.5 11.4804 25.5 14V15C25.5 15.2761 25.2761 15.5 25 15.5H7C6.72386 15.5 6.5 15.2761 6.5 15V14C6.5 11.4804 7.50089 9.06408 9.28249 7.28249ZM10.5 11.5C10.5 10.3954 11.3954 9.5 12.5 9.5C13.6046 9.5 14.5 10.3954 14.5 11.5C14.5 12.6046 13.6046 13.5 12.5 13.5C11.3954 13.5 10.5 12.6046 10.5 11.5ZM12.5 10.5C11.9477 10.5 11.5 10.9477 11.5 11.5C11.5 12.0523 11.9477 12.5 12.5 12.5C13.0523 12.5 13.5 12.0523 13.5 11.5C13.5 10.9477 13.0523 10.5 12.5 10.5ZM17.5 11.5C17.5 10.3954 18.3954 9.5 19.5 9.5C20.6046 9.5 21.5 10.3954 21.5 11.5C21.5 12.6046 20.6046 13.5 19.5 13.5C18.3954 13.5 17.5 12.6046 17.5 11.5ZM19.5 10.5C18.9477 10.5 18.5 10.9477 18.5 11.5C18.5 12.0523 18.9477 12.5 19.5 12.5C20.0523 12.5 20.5 12.0523 20.5 11.5C20.5 10.9477 20.0523 10.5 19.5 10.5ZM6.5 17C6.5 16.7239 6.72386 16.5 7 16.5H15C15.2761 16.5 15.5 16.7239 15.5 17V26.9443C15.5 27.0866 15.4394 27.2221 15.3333 27.317C15.2273 27.4118 15.0859 27.457 14.9445 27.4412C12.8133 27.203 10.8135 26.2485 9.28249 24.7175C7.50089 22.9359 6.5 20.5196 6.5 18V17ZM7.5 17.5V18C7.5 20.2543 8.39553 22.4163 9.98959 24.0104C11.2255 25.2463 12.8029 26.0624 14.5 26.3666V17.5H7.5ZM16.5 17C16.5 16.7239 16.7239 16.5 17 16.5H25C25.2761 16.5 25.5 16.7239 25.5 17V18C25.5 20.5196 24.4991 22.9359 22.7175 24.7175C21.1865 26.2485 19.1867 27.203 17.0555 27.4412C16.9141 27.457 16.7727 27.4118 16.6667 27.317C16.5606 27.2221 16.5 27.0866 16.5 26.9443V17ZM17.5 17.5V26.3666C19.1971 26.0624 20.7745 25.2463 22.0104 24.0104C23.6045 22.4163 24.5 20.2543 24.5 18V17.5H17.5Z" fill="white"/>
</svg>
