<svg width="32" height="32" viewBox="0 0 32 32" fill="none" xmlns="http://www.w3.org/2000/svg">
<path d="M21 22C21 21.4477 21.4477 21 22 21H24C24.5523 21 25 21.4477 25 22C25 22.5523 24.5523 23 24 23H22C21.4477 23 21 22.5523 21 22Z" fill="white"/>
<path d="M22 16C21.4477 16 21 16.4477 21 17C21 17.5523 21.4477 18 22 18H24C24.5523 18 25 17.5523 25 17C25 16.4477 24.5523 16 24 16H22Z" fill="white"/>
<path d="M8 8C7.44772 8 7 8.44772 7 9C7 9.55228 7.44772 10 8 10H12C12.5523 10 13 9.55228 13 9C13 8.44772 12.5523 8 12 8H8Z" fill="white"/>
<path d="M9 17C9 16.4477 9.44771 16 10 16H14C14.5523 16 15 16.4477 15 17C15 17.5523 14.5523 18 14 18H10C9.44771 18 9 17.5523 9 17Z" fill="white"/>
<path d="M8 21C7.44772 21 7 21.4477 7 22C7 22.5523 7.44772 23 8 23H12C12.5523 23 13 22.5523 13 22C13 21.4477 12.5523 21 12 21H8Z" fill="white"/>
<path fill-rule="evenodd" clip-rule="evenodd" d="M5 3C4.46957 3 3.96086 3.21071 3.58579 3.58579C3.21071 3.96086 3 4.46957 3 5V26H2C1.44772 26 1 26.4477 1 27C1 27.5523 1.44772 28 2 28H30C30.5523 28 31 27.5523 31 27C31 26.4477 30.5523 26 30 26H29V13C29 12.4696 28.7893 11.9609 28.4142 11.5858C28.0391 11.2107 27.5304 11 27 11H19V5C19 4.46957 18.7893 3.96086 18.4142 3.58579C18.0391 3.21071 17.5304 3 17 3H5ZM27 13V26H19V13H27ZM17 5V26H5V5H17Z" fill="white"/>
<path fill-rule="evenodd" clip-rule="evenodd" d="M3.23223 3.23223C3.70107 2.76339 4.33696 2.5 5 2.5H17C17.663 2.5 18.2989 2.76339 18.7678 3.23223C19.2366 3.70108 19.5 4.33696 19.5 5V10.5H27C27.663 10.5 28.2989 10.7634 28.7678 11.2322C29.2366 11.7011 29.5 12.337 29.5 13V25.5H30C30.8284 25.5 31.5 26.1716 31.5 27C31.5 27.8284 30.8284 28.5 30 28.5H2C1.17157 28.5 0.5 27.8284 0.5 27C0.5 26.1716 1.17157 25.5 2 25.5H2.5V5C2.5 4.33696 2.76339 3.70107 3.23223 3.23223ZM5 3.5C4.60217 3.5 4.22064 3.65804 3.93934 3.93934C3.65804 4.22064 3.5 4.60217 3.5 5V26C3.5 26.2761 3.27614 26.5 3 26.5H2C1.72386 26.5 1.5 26.7239 1.5 27C1.5 27.2761 1.72386 27.5 2 27.5H30C30.2761 27.5 30.5 27.2761 30.5 27C30.5 26.7239 30.2761 26.5 30 26.5H29C28.7239 26.5 28.5 26.2761 28.5 26V13C28.5 12.6022 28.342 12.2206 28.0607 11.9393C27.7794 11.658 27.3978 11.5 27 11.5H19C18.7239 11.5 18.5 11.2761 18.5 11V5C18.5 4.60218 18.342 4.22065 18.0607 3.93934C17.7794 3.65804 17.3978 3.5 17 3.5H5ZM4.5 5C4.5 4.72386 4.72386 4.5 5 4.5H17C17.2761 4.5 17.5 4.72386 17.5 5V26C17.5 26.2761 17.2761 26.5 17 26.5H5C4.72386 26.5 4.5 26.2761 4.5 26V5ZM5.5 5.5V25.5H16.5V5.5H5.5ZM6.5 9C6.5 8.17157 7.17157 7.5 8 7.5H12C12.8284 7.5 13.5 8.17157 13.5 9C13.5 9.82843 12.8284 10.5 12 10.5H8C7.17157 10.5 6.5 9.82843 6.5 9ZM8 8.5C7.72386 8.5 7.5 8.72386 7.5 9C7.5 9.27614 7.72386 9.5 8 9.5H12C12.2761 9.5 12.5 9.27614 12.5 9C12.5 8.72386 12.2761 8.5 12 8.5H8ZM18.5 13C18.5 12.7239 18.7239 12.5 19 12.5H27C27.2761 12.5 27.5 12.7239 27.5 13V26C27.5 26.2761 27.2761 26.5 27 26.5H19C18.7239 26.5 18.5 26.2761 18.5 26V13ZM19.5 13.5V25.5H26.5V13.5H19.5ZM10 16.5C9.72386 16.5 9.5 16.7239 9.5 17C9.5 17.2761 9.72386 17.5 10 17.5H14C14.2761 17.5 14.5 17.2761 14.5 17C14.5 16.7239 14.2761 16.5 14 16.5H10ZM8.5 17C8.5 16.1716 9.17157 15.5 10 15.5H14C14.8284 15.5 15.5 16.1716 15.5 17C15.5 17.8284 14.8284 18.5 14 18.5H10C9.17157 18.5 8.5 17.8284 8.5 17ZM20.5 17C20.5 16.1716 21.1716 15.5 22 15.5H24C24.8284 15.5 25.5 16.1716 25.5 17C25.5 17.8284 24.8284 18.5 24 18.5H22C21.1716 18.5 20.5 17.8284 20.5 17ZM22 16.5C21.7239 16.5 21.5 16.7239 21.5 17C21.5 17.2761 21.7239 17.5 22 17.5H24C24.2761 17.5 24.5 17.2761 24.5 17C24.5 16.7239 24.2761 16.5 24 16.5H22ZM6.5 22C6.5 21.1716 7.17157 20.5 8 20.5H12C12.8284 20.5 13.5 21.1716 13.5 22C13.5 22.8284 12.8284 23.5 12 23.5H8C7.17157 23.5 6.5 22.8284 6.5 22ZM8 21.5C7.72386 21.5 7.5 21.7239 7.5 22C7.5 22.2761 7.72386 22.5 8 22.5H12C12.2761 22.5 12.5 22.2761 12.5 22C12.5 21.7239 12.2761 21.5 12 21.5H8ZM22 21.5C21.7239 21.5 21.5 21.7239 21.5 22C21.5 22.2761 21.7239 22.5 22 22.5H24C24.2761 22.5 24.5 22.2761 24.5 22C24.5 21.7239 24.2761 21.5 24 21.5H22ZM20.5 22C20.5 21.1716 21.1716 20.5 22 20.5H24C24.8284 20.5 25.5 21.1716 25.5 22C25.5 22.8284 24.8284 23.5 24 23.5H22C21.1716 23.5 20.5 22.8284 20.5 22Z" fill="white"/>
</svg>
