<svg width="32" height="33" viewBox="0 0 32 33" fill="none" xmlns="http://www.w3.org/2000/svg">
<path fill-rule="evenodd" clip-rule="evenodd" d="M16.9819 0.86598C16.4264 0.385022 15.6042 0.377273 15.0398 0.847669L15.028 0.857784L14.7438 1.10988L14.7365 1.11654C14.5629 1.27679 14.3255 1.50547 14.062 1.78659C13.5484 2.33445 12.8761 3.14372 12.4084 4.07918C11.9516 4.9928 11.5708 6.2732 12.0643 7.58919C12.5694 8.93609 13.8094 9.85091 15.5257 10.423C15.6793 10.4742 15.839 10.4999 15.9987 10.5H6.25003L6.24679 10.5C5.65756 10.4988 5.07382 10.6136 4.5289 10.838C3.98106 11.0636 3.4833 11.3954 3.06436 11.8144C2.64542 12.2333 2.31358 12.7311 2.088 13.2789C1.86288 13.8256 1.74803 14.4114 1.75003 15.0026L1.75003 16.6625C1.75003 18.2807 2.41878 19.7731 3.50005 20.8432L3.5 27.0001C3.5 27.6631 3.76339 28.299 4.23223 28.7679C4.70108 29.2367 5.33696 29.5001 6 29.5001H26C26.663 29.5001 27.2989 29.2367 27.7678 28.7679C28.2366 28.299 28.5 27.6631 28.5 27.0001V20.8432C29.5813 19.7731 30.25 18.2807 30.25 16.6625V15.0027C30.252 14.4115 30.1372 13.8256 29.9121 13.2789C29.6865 12.7311 29.3546 12.2333 28.9357 11.8144C28.5168 11.3954 28.019 11.0636 27.4711 10.838C26.9262 10.6136 26.3425 10.4988 25.7533 10.5L25.75 10.5H16.0014C16.1669 10.4998 16.3324 10.4723 16.4909 10.4174C18.1671 9.83691 19.3641 8.91049 19.8473 7.57175C20.3153 6.27513 19.9564 5.01189 19.5173 4.09953C19.0681 3.1662 18.4215 2.35694 17.9258 1.80761C17.6717 1.52602 17.4428 1.29679 17.2752 1.13608L16.9935 0.876362L16.9819 0.86598ZM15.9781 4.14122C15.6418 4.5312 15.3139 4.9764 15.0917 5.42082C14.7996 6.005 14.8037 6.35033 14.8733 6.53581C14.9234 6.66956 15.1229 7.02545 15.9886 7.39423C16.7875 7.03666 16.9749 6.69341 17.0255 6.55325C17.0993 6.34867 17.096 5.98631 16.8141 5.40047C16.6034 4.96265 16.2951 4.52536 15.9781 4.14122ZM26.9577 14.1019C27.0306 14.2003 27.0912 14.3075 27.138 14.4211C27.2128 14.6027 27.2509 14.7973 27.25 14.9937L27.25 14.9958L27.25 16.6625C27.25 18.2495 25.9511 19.5319 24.4438 19.5004C23.7242 19.4855 23.0389 19.1892 22.5354 18.6751C22.0319 18.161 21.7499 17.4697 21.75 16.75C21.75 15.9216 21.0785 15.25 20.25 15.25C19.4216 15.25 18.75 15.9216 18.75 16.75C18.75 17.4793 18.4603 18.1788 17.9446 18.6945C17.4289 19.2103 16.7294 19.5 16.0001 19.5C15.2707 19.5 14.5712 19.2103 14.0555 18.6945C13.5398 18.1788 13.2501 17.4793 13.2501 16.75C13.2501 15.9216 12.5785 15.25 11.7501 15.25C10.9216 15.25 10.2501 15.9217 10.2501 16.7501C10.2502 17.4698 9.96821 18.161 9.46469 18.6751C8.96115 19.1893 8.27596 19.4855 7.55647 19.5003C6.0491 19.5319 4.75003 18.2495 4.75003 16.6625L4.75002 14.9958L4.75001 14.9937C4.74919 14.7973 4.78726 14.6027 4.86204 14.4211C4.90877 14.3076 4.96963 14.2001 5.04233 14.1019C5.08586 14.0432 5.13375 13.9876 5.18568 13.9357C5.32455 13.7968 5.48954 13.6868 5.67114 13.612C5.85274 13.5373 6.04735 13.4992 6.24374 13.5L6.25003 13.5H25.75L25.7563 13.5C25.9527 13.4992 26.1473 13.5373 26.3289 13.612C26.5105 13.6868 26.6755 13.7968 26.8144 13.9357C26.8663 13.9876 26.9142 14.0432 26.9577 14.1019ZM6 27.0001H26V21.7779C25.493 21.9328 24.953 22.0115 24.3919 21.9998C23.0184 21.9715 21.7106 21.4059 20.7493 20.4244C20.5674 20.2386 20.4006 20.0408 20.2497 19.8327C20.0884 20.055 19.909 20.2657 19.7124 20.4623C18.7278 21.4469 17.3924 22 16.0001 22C14.6077 22 13.2723 21.4469 12.2877 20.4623C12.0911 20.2657 11.9116 20.055 11.7504 19.8327C11.5995 20.0408 11.4327 20.2386 11.2507 20.4244C10.2894 21.4059 8.98168 21.9715 7.60811 21.9998C7.04701 22.0115 6.50697 21.9328 6 21.7778V27.0001Z" fill="white"/>
</svg>
