<svg width="32" height="32" viewBox="0 0 32 32" fill="none" xmlns="http://www.w3.org/2000/svg">
<path fill-rule="evenodd" clip-rule="evenodd" d="M10 7C9.44772 7 9 7.44772 9 8V14C9 14.5523 9.44772 15 10 15H22C22.5523 15 23 14.5523 23 14V8C23 7.44772 22.5523 7 22 7H10ZM11 13V9H21V13H11Z" fill="white"/>
<path d="M11 20C11.8284 20 12.5 19.3284 12.5 18.5C12.5 17.6716 11.8284 17 11 17C10.1716 17 9.5 17.6716 9.5 18.5C9.5 19.3284 10.1716 20 11 20Z" fill="white"/>
<path d="M17.5 18.5C17.5 19.3284 16.8284 20 16 20C15.1716 20 14.5 19.3284 14.5 18.5C14.5 17.6716 15.1716 17 16 17C16.8284 17 17.5 17.6716 17.5 18.5Z" fill="white"/>
<path d="M21 20C21.8284 20 22.5 19.3284 22.5 18.5C22.5 17.6716 21.8284 17 21 17C20.1716 17 19.5 17.6716 19.5 18.5C19.5 19.3284 20.1716 20 21 20Z" fill="white"/>
<path d="M12.5 23.5C12.5 24.3284 11.8284 25 11 25C10.1716 25 9.5 24.3284 9.5 23.5C9.5 22.6716 10.1716 22 11 22C11.8284 22 12.5 22.6716 12.5 23.5Z" fill="white"/>
<path d="M16 25C16.8284 25 17.5 24.3284 17.5 23.5C17.5 22.6716 16.8284 22 16 22C15.1716 22 14.5 22.6716 14.5 23.5C14.5 24.3284 15.1716 25 16 25Z" fill="white"/>
<path d="M22.5 23.5C22.5 24.3284 21.8284 25 21 25C20.1716 25 19.5 24.3284 19.5 23.5C19.5 22.6716 20.1716 22 21 22C21.8284 22 22.5 22.6716 22.5 23.5Z" fill="white"/>
<path fill-rule="evenodd" clip-rule="evenodd" d="M27 5C27 3.89543 26.1046 3 25 3H7C5.89543 3 5 3.89543 5 5V27C5 28.1046 5.89543 29 7 29H25C26.1046 29 27 28.1046 27 27V5ZM25 5V27H7V5H25Z" fill="white"/>
<path fill-rule="evenodd" clip-rule="evenodd" d="M4.5 5C4.5 3.61929 5.61929 2.5 7 2.5H25C26.3807 2.5 27.5 3.61929 27.5 5V27C27.5 28.3807 26.3807 29.5 25 29.5H7C5.61929 29.5 4.5 28.3807 4.5 27V5ZM7 3.5C6.17157 3.5 5.5 4.17157 5.5 5V27C5.5 27.8284 6.17157 28.5 7 28.5H25C25.8284 28.5 26.5 27.8284 26.5 27V5C26.5 4.17157 25.8284 3.5 25 3.5H7ZM6.5 4.5H25.5V27.5H6.5V4.5ZM7.5 5.5V26.5H24.5V5.5H7.5ZM8.5 8C8.5 7.17157 9.17157 6.5 10 6.5H22C22.8284 6.5 23.5 7.17157 23.5 8V14C23.5 14.8284 22.8284 15.5 22 15.5H10C9.17157 15.5 8.5 14.8284 8.5 14V8ZM10 7.5C9.72386 7.5 9.5 7.72386 9.5 8V14C9.5 14.2761 9.72386 14.5 10 14.5H22C22.2761 14.5 22.5 14.2761 22.5 14V8C22.5 7.72386 22.2761 7.5 22 7.5H10ZM10.5 8.5H21.5V13.5H10.5V8.5ZM11.5 9.5V12.5H20.5V9.5H11.5ZM9 18.5C9 17.3954 9.89543 16.5 11 16.5C12.1046 16.5 13 17.3954 13 18.5C13 19.6046 12.1046 20.5 11 20.5C9.89543 20.5 9 19.6046 9 18.5ZM11 17.5C10.4477 17.5 10 17.9477 10 18.5C10 19.0523 10.4477 19.5 11 19.5C11.5523 19.5 12 19.0523 12 18.5C12 17.9477 11.5523 17.5 11 17.5ZM16 17.5C15.4477 17.5 15 17.9477 15 18.5C15 19.0523 15.4477 19.5 16 19.5C16.5523 19.5 17 19.0523 17 18.5C17 17.9477 16.5523 17.5 16 17.5ZM14 18.5C14 17.3954 14.8954 16.5 16 16.5C17.1046 16.5 18 17.3954 18 18.5C18 19.6046 17.1046 20.5 16 20.5C14.8954 20.5 14 19.6046 14 18.5ZM19 18.5C19 17.3954 19.8954 16.5 21 16.5C22.1046 16.5 23 17.3954 23 18.5C23 19.6046 22.1046 20.5 21 20.5C19.8954 20.5 19 19.6046 19 18.5ZM21 17.5C20.4477 17.5 20 17.9477 20 18.5C20 19.0523 20.4477 19.5 21 19.5C21.5523 19.5 22 19.0523 22 18.5C22 17.9477 21.5523 17.5 21 17.5ZM11 22.5C10.4477 22.5 10 22.9477 10 23.5C10 24.0523 10.4477 24.5 11 24.5C11.5523 24.5 12 24.0523 12 23.5C12 22.9477 11.5523 22.5 11 22.5ZM9 23.5C9 22.3954 9.89543 21.5 11 21.5C12.1046 21.5 13 22.3954 13 23.5C13 24.6046 12.1046 25.5 11 25.5C9.89543 25.5 9 24.6046 9 23.5ZM14 23.5C14 22.3954 14.8954 21.5 16 21.5C17.1046 21.5 18 22.3954 18 23.5C18 24.6046 17.1046 25.5 16 25.5C14.8954 25.5 14 24.6046 14 23.5ZM16 22.5C15.4477 22.5 15 22.9477 15 23.5C15 24.0523 15.4477 24.5 16 24.5C16.5523 24.5 17 24.0523 17 23.5C17 22.9477 16.5523 22.5 16 22.5ZM21 22.5C20.4477 22.5 20 22.9477 20 23.5C20 24.0523 20.4477 24.5 21 24.5C21.5523 24.5 22 24.0523 22 23.5C22 22.9477 21.5523 22.5 21 22.5ZM19 23.5C19 22.3954 19.8954 21.5 21 21.5C22.1046 21.5 23 22.3954 23 23.5C23 24.6046 22.1046 25.5 21 25.5C19.8954 25.5 19 24.6046 19 23.5Z" fill="white"/>
</svg>
