<svg width="32" height="32" viewBox="0 0 32 32" fill="none" xmlns="http://www.w3.org/2000/svg">
<path fill-rule="evenodd" clip-rule="evenodd" d="M6 5.5C4.067 5.5 2.5 7.067 2.5 9V23C2.5 24.933 4.067 26.5 6 26.5H26C27.933 26.5 29.5 24.933 29.5 23V9C29.5 7.067 27.933 5.5 26 5.5H6ZM6 8.5C5.72386 8.5 5.5 8.72386 5.5 9V9.87962H26.5V9C26.5 8.72386 26.2761 8.5 26 8.5H6ZM11.1116 13.8798C11.5739 13.878 12.0225 14.0375 12.38 14.3308C12.433 14.3744 12.4804 14.4222 12.5221 14.4734C12.7928 14.7485 12.9786 15.0976 13.0546 15.479C13.199 16.1515 13.5693 16.7544 14.1039 17.1875C14.6403 17.6219 15.3097 17.859 16 17.859C16.6903 17.859 17.3597 17.6219 17.8961 17.1875C18.4307 16.7544 18.801 16.1514 18.9454 15.4789C19.034 15.0341 19.2721 14.6331 19.62 14.3423L19.6338 14.3308C19.9913 14.0375 20.4399 13.878 20.9022 13.8798H26.5V12.6628H5.5V13.8798H11.1116ZM5.5 16.8798V23C5.5 23.2761 5.72386 23.5 6 23.5H26C26.2761 23.5 26.5 23.2761 26.5 23V16.8805L21.2928 16.8871C20.9798 17.9628 20.3452 18.921 19.4696 19.6302C18.488 20.4252 17.2632 20.859 16 20.859C14.7368 20.859 13.512 20.4252 12.5304 19.6302C11.6544 18.9206 11.0189 17.9561 10.7057 16.8798H5.5Z" fill="white"/>
</svg>
