<svg width="33" height="32" viewBox="0 0 33 32" fill="none" xmlns="http://www.w3.org/2000/svg">
<path d="M24 29C25.1046 29 26 28.1046 26 27C26 25.8954 25.1046 25 24 25C22.8954 25 22 25.8954 22 27C22 28.1046 22.8954 29 24 29Z" fill="white"/>
<path d="M11 29C12.1046 29 13 28.1046 13 27C13 25.8954 12.1046 25 11 25C9.89543 25 9 25.8954 9 27C9 28.1046 9.89543 29 11 29Z" fill="white"/>
<path fill-rule="evenodd" clip-rule="evenodd" d="M11 24.5C9.61929 24.5 8.5 25.6193 8.5 27C8.5 28.3807 9.61929 29.5 11 29.5C12.3807 29.5 13.5 28.3807 13.5 27C13.5 25.6193 12.3807 24.5 11 24.5ZM11 29C12.1046 29 13 28.1046 13 27C13 25.8954 12.1046 25 11 25C9.89543 25 9 25.8954 9 27C9 28.1046 9.89543 29 11 29Z" fill="white"/>
<path fill-rule="evenodd" clip-rule="evenodd" d="M5.6052 3.00312C5.17132 2.67629 4.6428 2.49969 4.09962 2.5H2C1.17157 2.5 0.5 3.17157 0.5 4C0.5 4.82843 1.17157 5.5 2 5.5H3.72399L8.14421 20.9585C8.35116 21.6929 8.79322 22.3391 9.40267 22.7982C10.0116 23.2568 10.7539 23.5033 11.5162 23.5H23.4838C24.2461 23.5033 24.9884 23.2568 25.5973 22.7982C26.2066 22.3392 26.6486 21.6932 26.8557 20.959L26.8559 20.958L30.1548 9.41208C30.2841 8.95951 30.1935 8.47248 29.91 8.0967C29.6266 7.72094 29.1832 7.5 28.7125 7.5H7.4161L6.50467 4.3125C6.35518 3.78986 6.03941 3.33018 5.6052 3.00312ZM26.7239 10.5H8.27392L11.0316 20.1444C11.0605 20.2472 11.1223 20.3377 11.2076 20.4019C11.2905 20.4644 11.3998 20.5006 11.5096 20.5L11.5125 20.5L23.4933 20.5L23.4962 20.5C23.603 20.5006 23.7071 20.4662 23.7924 20.4019C23.8758 20.3391 23.9401 20.2451 23.9696 20.1401L23.9702 20.1379L26.7239 10.5Z" fill="white"/>
<path fill-rule="evenodd" clip-rule="evenodd" d="M24 24.5C22.6193 24.5 21.5 25.6193 21.5 27C21.5 28.3807 22.6193 29.5 24 29.5C25.3807 29.5 26.5 28.3807 26.5 27C26.5 25.6193 25.3807 24.5 24 24.5ZM24 29C25.1046 29 26 28.1046 26 27C26 25.8954 25.1046 25 24 25C22.8954 25 22 25.8954 22 27C22 28.1046 22.8954 29 24 29Z" fill="white"/>
</svg>
