<svg width="32" height="33" viewBox="0 0 32 33" fill="none" xmlns="http://www.w3.org/2000/svg">
<path d="M17.5004 16.5C17.5004 17.3284 16.8288 18 16.0004 18C15.1719 18 14.5004 17.3284 14.5004 16.5C14.5004 15.6716 15.1719 15 16.0004 15C16.8288 15 17.5004 15.6716 17.5004 16.5Z" fill="white"/>
<path d="M10.0004 18C10.8288 18 11.5004 17.3284 11.5004 16.5C11.5004 15.6716 10.8288 15 10.0004 15C9.17194 15 8.50037 15.6716 8.50037 16.5C8.50037 17.3284 9.17194 18 10.0004 18Z" fill="white"/>
<path d="M23.5004 16.5C23.5004 17.3284 22.8288 18 22.0004 18C21.1719 18 20.5004 17.3284 20.5004 16.5C20.5004 15.6716 21.1719 15 22.0004 15C22.8288 15 23.5004 15.6716 23.5004 16.5Z" fill="white"/>
<path fill-rule="evenodd" clip-rule="evenodd" d="M16.7999 3.55084C13.6424 3.35296 10.5212 4.31439 8.0224 6.25465C5.52355 8.19491 3.81884 10.9805 3.2283 14.0886C2.66495 17.0536 3.15249 20.1175 4.59897 22.756L3.53913 26.4993C3.44041 26.84 3.43469 27.2011 3.52263 27.5448C3.61099 27.8903 3.79064 28.2056 4.04276 28.4577C4.29488 28.7098 4.61018 28.8894 4.95559 28.9778C5.29939 29.0657 5.66044 29.06 6.00123 28.9613L9.74445 27.9015C12.383 29.3479 15.4468 29.8355 18.4118 29.2721C21.5199 28.6816 24.3055 26.9769 26.2458 24.478C28.186 21.9792 29.1475 18.8581 28.9496 15.7006C28.7517 12.5431 27.4081 9.56641 25.1711 7.32936C22.934 5.0923 19.9573 3.74872 16.7999 3.55084ZM9.24899 7.83436C11.363 6.19289 14.0035 5.37951 16.6748 5.54692C19.346 5.71433 21.8643 6.85101 23.7569 8.74357C25.6494 10.6361 26.7861 13.1544 26.9535 15.8257C27.1209 18.4969 26.3075 21.1374 24.6661 23.2515C23.0246 25.3655 20.6679 26.8077 18.0385 27.3073C15.409 27.8069 12.6877 27.3295 10.3852 25.9649C10.1494 25.8251 9.86664 25.7883 9.60292 25.8629L5.46631 27.0341L6.63752 22.8975C6.71219 22.6338 6.67534 22.351 6.53559 22.1152C5.1709 19.8128 4.69355 17.0914 5.19315 14.4619C5.69275 11.8325 7.13494 9.47583 9.24899 7.83436Z" fill="white"/>
<path fill-rule="evenodd" clip-rule="evenodd" d="M7.71575 5.85972C10.3108 3.84477 13.5521 2.84632 16.8311 3.05182C20.1102 3.25731 23.2015 4.65262 25.5246 6.9758C27.8478 9.29898 29.2431 12.3903 29.4486 15.6693C29.6541 18.9483 28.6557 22.1896 26.6407 24.7847C24.6258 27.3797 21.7329 29.1501 18.5051 29.7634C15.4939 30.3355 12.3843 29.8639 9.68581 28.4377L6.14038 29.4415C6.13989 29.4417 6.13941 29.4418 6.13892 29.442C5.71282 29.5651 5.26148 29.5721 4.83169 29.4622C4.39937 29.3516 4.00475 29.1268 3.68921 28.8112C3.37366 28.4957 3.14882 28.1011 3.03823 27.6688C2.9283 27.239 2.9353 26.7877 3.05843 26.3617C3.05858 26.3612 3.05873 26.3606 3.05888 26.3601L4.06272 22.8146C2.63659 20.1161 2.16493 17.0066 2.73709 13.9953C3.35036 10.7676 5.1207 7.87468 7.71575 5.85972ZM16.7686 4.04986C13.7327 3.8596 10.7317 4.78402 8.32905 6.64958C5.9264 8.51514 4.28732 11.1935 3.71951 14.182C3.17785 17.0328 3.64662 19.9787 5.03741 22.5156L5.13584 22.6952L4.02022 26.6355L4.01939 26.6384C3.9455 26.8934 3.94122 27.1636 4.00704 27.4209C4.07317 27.6795 4.20762 27.9154 4.39631 28.1041C4.58501 28.2928 4.82098 28.4273 5.0795 28.4934C5.33681 28.5592 5.60703 28.5549 5.86209 28.481L5.86502 28.4802L9.80526 27.3646L9.98481 27.463C12.5217 28.8538 15.4677 29.3226 18.3185 28.7809C21.3069 28.2131 23.9853 26.574 25.8509 24.1714C27.7164 21.7687 28.6408 18.7678 28.4506 15.7318C28.2603 12.6959 26.9685 9.83384 24.8175 7.68291C22.6666 5.53198 19.8045 4.24012 16.7686 4.04986ZM16.6435 6.04594C14.0938 5.88615 11.5735 6.66252 9.55563 8.22929C7.53779 9.79606 6.16123 12.0455 5.68436 14.5553C5.20749 17.0651 5.66312 19.6626 6.96571 21.8603C7.17534 22.2139 7.23061 22.6382 7.11861 23.0337L6.19121 26.3092L9.46671 25.3818C9.86228 25.2698 10.2865 25.3251 10.6402 25.5347C12.8378 26.8373 15.4354 27.2929 17.9452 26.8161C20.455 26.3392 22.7044 24.9626 24.2711 22.9448C25.8379 20.927 26.6143 18.4066 26.4545 15.8569C26.2947 13.3073 25.2098 10.9036 23.4033 9.09712C21.5969 7.29068 19.1932 6.20573 16.6435 6.04594ZM8.94234 7.43943C11.1526 5.72327 13.9132 4.87287 16.706 5.0479C19.4988 5.22292 22.1317 6.41133 24.1104 8.39002C26.0891 10.3687 27.2775 13.0016 27.4525 15.7944C27.6276 18.5872 26.7772 21.3479 25.061 23.5581C23.3448 25.7683 20.8809 27.2762 18.1318 27.7985C15.3827 28.3208 12.5375 27.8218 10.1303 26.395C10.0124 26.3251 9.87099 26.3067 9.73913 26.344L4.74141 27.759L6.15643 22.7613C6.19376 22.6294 6.17534 22.488 6.10547 22.3702C4.67867 19.9629 4.1796 17.1177 4.70194 14.3686C5.22427 11.6195 6.7321 9.1556 8.94234 7.43943ZM8.00037 16.5C8.00037 15.3954 8.8958 14.5 10.0004 14.5C11.1049 14.5 12.0004 15.3954 12.0004 16.5C12.0004 17.6046 11.1049 18.5 10.0004 18.5C8.8958 18.5 8.00037 17.6046 8.00037 16.5ZM10.0004 15.5C9.44808 15.5 9.00037 15.9477 9.00037 16.5C9.00037 17.0523 9.44808 17.5 10.0004 17.5C10.5527 17.5 11.0004 17.0523 11.0004 16.5C11.0004 15.9477 10.5527 15.5 10.0004 15.5ZM16.0004 15.5C15.4481 15.5 15.0004 15.9477 15.0004 16.5C15.0004 17.0523 15.4481 17.5 16.0004 17.5C16.5527 17.5 17.0004 17.0523 17.0004 16.5C17.0004 15.9477 16.5527 15.5 16.0004 15.5ZM14.0004 16.5C14.0004 15.3954 14.8958 14.5 16.0004 14.5C17.1049 14.5 18.0004 15.3954 18.0004 16.5C18.0004 17.6046 17.1049 18.5 16.0004 18.5C14.8958 18.5 14.0004 17.6046 14.0004 16.5ZM22.0004 15.5C21.4481 15.5 21.0004 15.9477 21.0004 16.5C21.0004 17.0523 21.4481 17.5 22.0004 17.5C22.5527 17.5 23.0004 17.0523 23.0004 16.5C23.0004 15.9477 22.5527 15.5 22.0004 15.5ZM20.0004 16.5C20.0004 15.3954 20.8958 14.5 22.0004 14.5C23.1049 14.5 24.0004 15.3954 24.0004 16.5C24.0004 17.6046 23.1049 18.5 22.0004 18.5C20.8958 18.5 20.0004 17.6046 20.0004 16.5Z" fill="white"/>
</svg>
