<svg width="32" height="33" viewBox="0 0 32 33" fill="none" xmlns="http://www.w3.org/2000/svg">
<path fill-rule="evenodd" clip-rule="evenodd" d="M5.56272 5.18625C7.58532 3.61477 10.1121 2.83578 12.6684 2.99559C15.2248 3.1554 17.6348 4.24301 19.446 6.05415C20.3392 6.94738 21.0565 7.9863 21.5732 9.11658C23.0176 9.33341 24.4047 9.85019 25.6434 10.6379C27.1679 11.6072 28.4161 12.9538 29.2671 14.5473C30.1181 16.1407 30.5431 17.927 30.5009 19.733C30.4639 21.316 30.069 22.867 29.3495 24.271L30.0689 26.7942C30.1771 27.179 30.1808 27.5855 30.0798 27.9722C29.9787 28.3589 29.7765 28.7116 29.4939 28.9942C29.2113 29.2768 28.8586 29.479 28.4719 29.5801C28.0852 29.6811 27.6787 29.6774 27.2939 29.5692L27.2896 29.568L24.7701 28.8496C23.5893 29.4537 22.3027 29.8293 20.9781 29.9543C19.4317 30.1001 17.8723 29.9006 16.4124 29.3703C14.9525 28.8399 13.6286 27.9919 12.5365 26.8875C11.6725 26.0139 10.9706 24.9972 10.4606 23.8849C9.34096 23.7178 8.24944 23.37 7.23034 22.8494L4.71123 23.5677L4.70667 23.569C4.32194 23.6772 3.91459 23.6811 3.52793 23.5801C3.14127 23.479 2.78852 23.2768 2.50593 22.9942C2.22335 22.7116 2.02112 22.3589 1.92006 21.9722C1.81899 21.5856 1.82274 21.179 1.9309 20.7942L2.65071 18.2698C1.59254 16.1984 1.24843 13.8278 1.68388 11.5301C2.16082 9.01358 3.54011 6.75773 5.56272 5.18625ZM7.40333 7.55525C8.84873 6.43223 10.6544 5.87554 12.4812 5.98975C14.3081 6.10395 16.0304 6.88118 17.3247 8.17547C18.0609 8.91167 18.6298 9.78633 19.0045 10.74C19.0331 10.9272 19.0964 11.1036 19.1878 11.2619C19.3636 11.8286 19.4728 12.418 19.5104 13.0189C19.6246 14.8457 19.0679 16.6514 17.9449 18.0968C16.8219 19.5422 15.2098 20.5279 13.4114 20.8687C11.613 21.2096 9.75205 20.8821 8.17804 19.9478C7.82339 19.7373 7.39771 19.6821 7.0011 19.7952L5.18791 20.3122L5.70492 18.499C5.81801 18.1024 5.76282 17.6767 5.55231 17.3221C4.61805 15.7481 4.29058 13.8871 4.63141 12.0887C4.97224 10.2904 5.95792 8.67826 7.40333 7.55525ZM22.4701 12.4139C22.4843 12.5527 22.4958 12.692 22.5045 12.8317C22.6644 15.3881 21.8854 17.9148 20.3139 19.9374C18.7424 21.96 16.4866 23.3393 13.97 23.8163C13.9393 23.8221 13.9087 23.8277 13.8779 23.8333C14.1147 24.1685 14.3793 24.4845 14.6695 24.778C15.4493 25.5665 16.3945 26.1719 17.4367 26.5506C18.479 26.9292 19.5924 27.0716 20.6964 26.9675C21.8005 26.8634 22.8676 26.5153 23.8207 25.9485C24.1755 25.7374 24.6017 25.682 24.9987 25.7952L26.8119 26.3122L26.2949 24.499C26.1816 24.1016 26.2373 23.675 26.4488 23.32C27.1089 22.212 27.4716 20.9523 27.5017 19.6629C27.5319 18.3735 27.2284 17.0982 26.6208 15.9605C26.0133 14.8229 25.1221 13.8615 24.0338 13.1695C23.5416 12.8565 23.0166 12.6034 22.4701 12.4139Z" fill="white"/>
</svg>
