<svg width="32" height="33" viewBox="0 0 32 33" fill="none" xmlns="http://www.w3.org/2000/svg">
<path d="M17.5001 15.5C17.5001 16.3284 16.8285 17 16.0001 17C15.1716 17 14.5001 16.3284 14.5001 15.5C14.5001 14.6716 15.1716 14 16.0001 14C16.8285 14 17.5001 14.6716 17.5001 15.5Z" fill="white"/>
<path d="M10.0001 17C10.8285 17 11.5001 16.3284 11.5001 15.5C11.5001 14.6716 10.8285 14 10.0001 14C9.17163 14 8.50006 14.6716 8.50006 15.5C8.50006 16.3284 9.17163 17 10.0001 17Z" fill="white"/>
<path d="M23.5001 15.5C23.5001 16.3284 22.8285 17 22.0001 17C21.1716 17 20.5001 16.3284 20.5001 15.5C20.5001 14.6716 21.1716 14 22.0001 14C22.8285 14 23.5001 14.6716 23.5001 15.5Z" fill="white"/>
<path fill-rule="evenodd" clip-rule="evenodd" d="M5.00003 5.5C4.4696 5.5 3.96089 5.71071 3.58582 6.08579C3.21075 6.46086 3.00003 6.96957 3.00003 7.5L3 27.35L3.00006 27.3579C3.00306 27.7361 3.11323 28.1057 3.31778 28.4238C3.52234 28.7419 3.81289 28.9955 4.15574 29.1551C4.49859 29.3148 4.87968 29.374 5.2548 29.3258C5.62993 29.2776 5.98369 29.124 6.27506 28.8829L6.27888 28.8797L10.3164 25.5047L9.67503 24.7375L10.3291 25.4939C10.3246 25.4978 10.3188 25.5 10.3128 25.5H27C27.5305 25.5 28.0392 25.2893 28.4142 24.9142C28.7893 24.5391 29 24.0304 29 23.5V7.5C29 6.96957 28.7893 6.46086 28.4142 6.08579C28.0392 5.71071 27.5305 5.5 27 5.5H5.00003ZM10.3123 23.5C9.84128 23.5001 9.38595 23.6686 9.02832 23.9747L5.00003 27.342V7.5L27 7.5V23.5H10.3123Z" fill="white"/>
<path fill-rule="evenodd" clip-rule="evenodd" d="M3.23226 5.73223C3.7011 5.26339 4.33699 5 5.00003 5H27C27.6631 5 28.299 5.26339 28.7678 5.73223C29.2366 6.20107 29.5 6.83696 29.5 7.5V23.5C29.5 24.163 29.2366 24.7989 28.7678 25.2678C28.299 25.7366 27.6631 26 27 26H10.5035L6.59956 29.2634L6.59862 29.2642L6.59383 29.2681C6.22962 29.5695 5.78741 29.7615 5.31851 29.8217C4.8496 29.8819 4.37324 29.808 3.94468 29.6084C3.51612 29.4089 3.15292 29.0919 2.89723 28.6942C2.64153 28.2966 2.50382 27.8346 2.50008 27.3619L2.50002 27.354L2.5 27.35L2.50003 7.5C2.50003 6.83696 2.76342 6.20107 3.23226 5.73223ZM10.563 25H27C27.3979 25 27.7794 24.842 28.0607 24.5607C28.342 24.2794 28.5 23.8978 28.5 23.5V7.5C28.5 7.10218 28.342 6.72065 28.0607 6.43934C27.7794 6.15804 27.3979 6 27 6H5.00003C4.60221 6 4.22068 6.15804 3.93937 6.43934C3.65807 6.72064 3.50003 7.10217 3.50003 7.5L3.5 27.35L3.50005 27.354C3.50229 27.6376 3.58492 27.9148 3.73834 28.1534C3.89175 28.392 4.10967 28.5821 4.36681 28.7019C4.62395 28.8216 4.90976 28.866 5.1911 28.8299C5.4723 28.7937 5.73749 28.6787 5.95596 28.498C5.95584 28.4981 5.95607 28.4979 5.95596 28.498L5.95821 28.4961L5.95915 28.4953L9.61208 25.4418L9.29141 25.0582L10.0532 24.4104L10.563 25ZM5.50003 8V26.2724L8.7055 23.5929C9.1533 23.2105 9.72295 23.0002 10.3122 23H26.5V8L5.50003 8ZM27.5 7V24H10.3124C10.3124 24 10.3125 24 10.3124 24C9.9607 24.0001 9.62055 24.1259 9.3535 24.3545L9.34902 24.3584L4.50003 28.4117V7L27.5 7ZM8.00006 15.5C8.00006 14.3954 8.89549 13.5 10.0001 13.5C11.1046 13.5 12.0001 14.3954 12.0001 15.5C12.0001 16.6046 11.1046 17.5 10.0001 17.5C8.89549 17.5 8.00006 16.6046 8.00006 15.5ZM10.0001 14.5C9.44778 14.5 9.00006 14.9477 9.00006 15.5C9.00006 16.0523 9.44778 16.5 10.0001 16.5C10.5523 16.5 11.0001 16.0523 11.0001 15.5C11.0001 14.9477 10.5523 14.5 10.0001 14.5ZM16.0001 14.5C15.4478 14.5 15.0001 14.9477 15.0001 15.5C15.0001 16.0523 15.4478 16.5 16.0001 16.5C16.5523 16.5 17.0001 16.0523 17.0001 15.5C17.0001 14.9477 16.5523 14.5 16.0001 14.5ZM14.0001 15.5C14.0001 14.3954 14.8955 13.5 16.0001 13.5C17.1046 13.5 18.0001 14.3954 18.0001 15.5C18.0001 16.6046 17.1046 17.5 16.0001 17.5C14.8955 17.5 14.0001 16.6046 14.0001 15.5ZM22.0001 14.5C21.4478 14.5 21.0001 14.9477 21.0001 15.5C21.0001 16.0523 21.4478 16.5 22.0001 16.5C22.5523 16.5 23.0001 16.0523 23.0001 15.5C23.0001 14.9477 22.5523 14.5 22.0001 14.5ZM20.0001 15.5C20.0001 14.3954 20.8955 13.5 22.0001 13.5C23.1046 13.5 24.0001 14.3954 24.0001 15.5C24.0001 16.6046 23.1046 17.5 22.0001 17.5C20.8955 17.5 20.0001 16.6046 20.0001 15.5Z" fill="white"/>
</svg>
