<svg width="32" height="33" viewBox="0 0 32 33" fill="none" xmlns="http://www.w3.org/2000/svg">
<path fill-rule="evenodd" clip-rule="evenodd" d="M5 4.5C4.46957 4.5 3.96086 4.71071 3.58579 5.08579C3.21071 5.46086 3 5.96957 3 6.5V22.5C3 22.8853 3.22135 23.2363 3.56902 23.4024C3.9167 23.5684 4.32884 23.52 4.62852 23.2778L9 19.7453V23.5C9 24.0304 9.21071 24.5391 9.58579 24.9142C9.96086 25.2893 10.4696 25.5 11 25.5H22.6965L27.3715 29.2778C27.6712 29.52 28.0833 29.5684 28.431 29.4024C28.7786 29.2363 29 28.8853 29 28.5V12.5C29 11.9696 28.7893 11.4609 28.4142 11.0858C28.0391 10.7107 27.5304 10.5 27 10.5H23V6.5C23 5.96957 22.7893 5.46086 22.4142 5.08579C22.0391 4.71071 21.5304 4.5 21 4.5H5ZM21 6.5L5 6.5L5 20.4062L8.32148 17.7222C8.4994 17.5784 8.72124 17.5 8.95 17.5H21V6.5ZM11 19.5H21C21.5304 19.5 22.0391 19.2893 22.4142 18.9142C22.7893 18.5391 23 18.0304 23 17.5V12.5H27V26.4062L23.6785 23.7222C23.5006 23.5784 23.2788 23.5 23.05 23.5H11V19.5Z" fill="white"/>
<path fill-rule="evenodd" clip-rule="evenodd" d="M3.23223 4.73223C3.70107 4.26339 4.33696 4 5 4H21C21.663 4 22.2989 4.26339 22.7678 4.73223C23.2366 5.20107 23.5 5.83696 23.5 6.5V10H27C27.663 10 28.2989 10.2634 28.7678 10.7322C29.2366 11.2011 29.5 11.837 29.5 12.5V28.5C29.5 29.0779 29.168 29.6045 28.6465 29.8535C28.125 30.1026 27.5067 30.0299 27.0572 29.6667L22.5197 26H11C10.337 26 9.70108 25.7366 9.23223 25.2678C8.76339 24.7989 8.5 24.163 8.5 23.5V20.7922L4.94278 23.6667C4.49326 24.0299 3.87505 24.1026 3.35354 23.8535C2.83203 23.6045 2.5 23.0779 2.5 22.5V6.5C2.5 5.83696 2.76339 5.20107 3.23223 4.73223ZM5 5C4.60217 5 4.22064 5.15804 3.93934 5.43934C3.65804 5.72064 3.5 6.10217 3.5 6.5V22.5C3.5 22.6926 3.61068 22.8682 3.78451 22.9512C3.95835 23.0342 4.16442 23.01 4.31426 22.8889L8.68574 19.3564C8.83558 19.2353 9.04165 19.2111 9.21549 19.2941C9.38932 19.3771 9.5 19.5526 9.5 19.7453V23.5C9.5 23.8978 9.65804 24.2794 9.93934 24.5607C10.2206 24.842 10.6022 25 11 25H22.6965C22.8108 25 22.9218 25.0392 23.0107 25.1111L27.6857 28.8889C27.8356 29.01 28.0417 29.0342 28.2155 28.9512C28.3893 28.8682 28.5 28.6926 28.5 28.5V12.5C28.5 12.1022 28.342 11.7206 28.0607 11.4393C27.7794 11.158 27.3978 11 27 11H23C22.7239 11 22.5 10.7761 22.5 10.5V6.5C22.5 6.10218 22.342 5.72065 22.0607 5.43934C21.7794 5.15804 21.3978 5 21 5H5ZM5 6L21 6C21.1326 6 21.2598 6.05268 21.3536 6.14645C21.4473 6.24021 21.5 6.36739 21.5 6.5V17.5C21.5 17.7761 21.2761 18 21 18H8.95C8.83562 18 8.7247 18.0392 8.63574 18.1111L5.31426 20.7951C5.16442 20.9162 4.95835 20.9404 4.78451 20.8574C4.61068 20.7744 4.5 20.5989 4.5 20.4062L4.5 6.5C4.5 6.22386 4.72386 6 5 6ZM5.5 7L5.5 19.3593L8.00722 17.3333C8.27411 17.1176 8.60687 17 8.95 17H20.5V7L5.5 7ZM23.5 13V17.5C23.5 18.163 23.2366 18.7989 22.7678 19.2678C22.2989 19.7366 21.663 20 21 20H11.5V23H23.05C23.3931 23 23.7259 23.1176 23.9928 23.3333L26.5 25.3593V13H23.5ZM22.5 12.5C22.5 12.2239 22.7239 12 23 12H27C27.2761 12 27.5 12.2239 27.5 12.5V26.4062C27.5 26.5989 27.3893 26.7744 27.2155 26.8574C27.0417 26.9404 26.8356 26.9162 26.6857 26.7951L23.3643 24.1111C23.2753 24.0392 23.1644 24 23.05 24H11C10.7239 24 10.5 23.7761 10.5 23.5V19.5C10.5 19.2239 10.7239 19 11 19H21C21.3978 19 21.7794 18.842 22.0607 18.5607C22.342 18.2794 22.5 17.8978 22.5 17.5V12.5Z" fill="white"/>
</svg>
