<svg width="32" height="33" viewBox="0 0 32 33" fill="none" xmlns="http://www.w3.org/2000/svg">
<path d="M11.0001 13.5C11.0001 12.9477 11.4478 12.5 12.0001 12.5H20.0001C20.5523 12.5 21.0001 12.9477 21.0001 13.5C21.0001 14.0523 20.5523 14.5 20.0001 14.5H12.0001C11.4478 14.5 11.0001 14.0523 11.0001 13.5Z" fill="white"/>
<path d="M12.0001 16.5C11.4478 16.5 11.0001 16.9477 11.0001 17.5C11.0001 18.0523 11.4478 18.5 12.0001 18.5H20.0001C20.5523 18.5 21.0001 18.0523 21.0001 17.5C21.0001 16.9477 20.5523 16.5 20.0001 16.5H12.0001Z" fill="white"/>
<path fill-rule="evenodd" clip-rule="evenodd" d="M3.58582 6.08579C3.96089 5.71071 4.4696 5.5 5.00003 5.5H27C27.5305 5.5 28.0392 5.71071 28.4142 6.08579C28.7893 6.46086 29 6.96957 29 7.5V23.5C29 24.0304 28.7893 24.5391 28.4142 24.9142C28.0392 25.2893 27.5305 25.5 27 25.5H10.3831L10.2533 25.5456L6.27508 28.8829C5.98371 29.1241 5.62993 29.2776 5.2548 29.3258C4.87968 29.374 4.49859 29.3148 4.15574 29.1551C3.81289 28.9955 3.52234 28.7419 3.31778 28.4238C3.11323 28.1057 3.00306 27.7361 3.00006 27.3579L3 27.35L3.00003 7.5C3.00003 6.96957 3.21075 6.46086 3.58582 6.08579ZM27 7.5L5.00003 7.5V27.342L9.10733 23.8964C9.19955 23.819 9.30498 23.7589 9.41854 23.719L9.88104 23.5565C9.98756 23.5191 10.0996 23.5 10.2125 23.5H27V7.5Z" fill="white"/>
<path fill-rule="evenodd" clip-rule="evenodd" d="M5.00003 6C4.60221 6 4.22068 6.15804 3.93937 6.43934C3.65807 6.72064 3.50003 7.10217 3.50003 7.5L3.5 27.35L3.50005 27.354C3.50229 27.6376 3.58492 27.9148 3.73834 28.1534C3.89175 28.392 4.10967 28.5821 4.36681 28.7019C4.62395 28.8216 4.90976 28.866 5.1911 28.8299C5.47196 28.7938 5.73685 28.679 5.95514 28.4987C5.95553 28.4984 5.95592 28.4981 5.95631 28.4977L9.93191 25.1626C9.97802 25.1239 10.0307 25.0938 10.0875 25.0739L10.2174 25.0283C10.2706 25.0096 10.3266 25 10.3831 25H27C27.3979 25 27.7794 24.842 28.0607 24.5607C28.342 24.2794 28.5 23.8978 28.5 23.5V7.5C28.5 7.10218 28.342 6.72065 28.0607 6.43934C27.7794 6.15804 27.3979 6 27 6H5.00003ZM3.23226 5.73223C3.7011 5.26339 4.33699 5 5.00003 5H27C27.6631 5 28.299 5.26339 28.7678 5.73223C29.2366 6.20107 29.5 6.83696 29.5 7.5V23.5C29.5 24.163 29.2366 24.7989 28.7678 25.2678C28.299 25.7366 27.6631 26 27 26H10.4896L6.59643 29.266L6.59384 29.2682C6.22961 29.5696 5.78739 29.7615 5.31851 29.8217C4.8496 29.8819 4.37324 29.808 3.94468 29.6084C3.51612 29.4089 3.15292 29.0919 2.89723 28.6942C2.64153 28.2966 2.50382 27.8346 2.50008 27.3619L2.50002 27.354L2.5 27.35L2.50003 7.5C2.50003 6.83696 2.76342 6.20107 3.23226 5.73223ZM5.00003 7L27 7C27.1326 7 27.2598 7.05268 27.3536 7.14645C27.4474 7.24021 27.5 7.36739 27.5 7.5V23.5C27.5 23.7761 27.2762 24 27 24H10.2125C10.1561 24 10.1 24.0096 10.0468 24.0283L9.58429 24.1908C9.52751 24.2107 9.47479 24.2408 9.42868 24.2794L5.32138 27.7251C5.17252 27.85 4.96479 27.8773 4.7887 27.7952C4.6126 27.713 4.50003 27.5363 4.50003 27.342V7.5C4.50003 7.22386 4.72389 7 5.00003 7ZM5.50003 8V26.2699L8.78598 23.5133C8.92431 23.3973 9.08245 23.3072 9.2528 23.2473L9.7153 23.0848C9.87507 23.0287 10.0432 23 10.2125 23H26.5V8L5.50003 8ZM12.0001 13C11.7239 13 11.5001 13.2239 11.5001 13.5C11.5001 13.7761 11.7239 14 12.0001 14H20.0001C20.2762 14 20.5001 13.7761 20.5001 13.5C20.5001 13.2239 20.2762 13 20.0001 13H12.0001ZM10.5001 13.5C10.5001 12.6716 11.1716 12 12.0001 12H20.0001C20.8285 12 21.5001 12.6716 21.5001 13.5C21.5001 14.3284 20.8285 15 20.0001 15H12.0001C11.1716 15 10.5001 14.3284 10.5001 13.5ZM10.5001 17.5C10.5001 16.6716 11.1716 16 12.0001 16H20.0001C20.8285 16 21.5001 16.6716 21.5001 17.5C21.5001 18.3284 20.8285 19 20.0001 19H12.0001C11.1716 19 10.5001 18.3284 10.5001 17.5ZM12.0001 17C11.7239 17 11.5001 17.2239 11.5001 17.5C11.5001 17.7761 11.7239 18 12.0001 18H20.0001C20.2762 18 20.5001 17.7761 20.5001 17.5C20.5001 17.2239 20.2762 17 20.0001 17H12.0001Z" fill="white"/>
</svg>
