<svg width="32" height="33" viewBox="0 0 32 33" fill="none" xmlns="http://www.w3.org/2000/svg">
<path fill-rule="evenodd" clip-rule="evenodd" d="M3.58582 6.08579C3.96089 5.71071 4.4696 5.5 5.00003 5.5H27C27.5305 5.5 28.0392 5.71071 28.4142 6.08579C28.7893 6.46086 29 6.96957 29 7.5V23.5C29 24.0304 28.7893 24.5391 28.4142 24.9142C28.0392 25.2893 27.5305 25.5 27 25.5H10.3128C10.3188 25.5 10.3246 25.4978 10.3291 25.4939L10.3128 25.475L9.67503 24.7375L10.3164 25.5047L6.27888 28.8797L6.27506 28.8829C5.98369 29.124 5.62993 29.2776 5.2548 29.3258C4.87968 29.374 4.49859 29.3148 4.15574 29.1551C3.81289 28.9955 3.52234 28.7419 3.31778 28.4238C3.11323 28.1057 3.00306 27.7361 3.00006 27.3579L3 27.35L3.00003 7.5C3.00003 6.96957 3.21075 6.46086 3.58582 6.08579ZM9.02832 23.9747C9.38595 23.6686 9.84128 23.5001 10.3123 23.5H27V7.5L5.00003 7.5V27.342L9.02832 23.9747Z" fill="white"/>
<path fill-rule="evenodd" clip-rule="evenodd" d="M3.23226 5.73223C3.7011 5.26339 4.33699 5 5.00003 5H27C27.6631 5 28.299 5.26339 28.7678 5.73223C29.2366 6.20107 29.5 6.83696 29.5 7.5V23.5C29.5 24.163 29.2366 24.7989 28.7678 25.2678C28.299 25.7366 27.6631 26 27 26H10.5035L6.59956 29.2634L6.59862 29.2642L6.59383 29.2681C6.22962 29.5695 5.78741 29.7615 5.31851 29.8217C4.8496 29.8819 4.37324 29.808 3.94468 29.6084C3.51612 29.4089 3.15292 29.0919 2.89723 28.6942C2.64153 28.2966 2.50382 27.8346 2.50008 27.3619L2.50002 27.354L2.5 27.35L2.50003 7.5C2.50003 6.83696 2.76342 6.20107 3.23226 5.73223ZM10.563 25H27C27.3979 25 27.7794 24.842 28.0607 24.5607C28.342 24.2794 28.5 23.8978 28.5 23.5V7.5C28.5 7.10218 28.342 6.72065 28.0607 6.43934C27.7794 6.15804 27.3979 6 27 6H5.00003C4.60221 6 4.22068 6.15804 3.93937 6.43934C3.65807 6.72064 3.50003 7.10217 3.50003 7.5L3.5 27.35L3.50005 27.354C3.50229 27.6376 3.58492 27.9148 3.73834 28.1534C3.89175 28.392 4.10967 28.5821 4.36681 28.7019C4.62395 28.8216 4.90976 28.866 5.1911 28.8299C5.4723 28.7937 5.73749 28.6787 5.95596 28.498C5.95584 28.4981 5.95607 28.4979 5.95596 28.498L5.95821 28.4961L5.95915 28.4953L9.61208 25.4418L9.29141 25.0582C9.11535 24.8476 9.14202 24.5344 9.35116 24.3566C9.5603 24.1788 9.87368 24.2028 10.0532 24.4104L10.563 25ZM10.3123 24C10.3122 24 10.3123 24 10.3123 24H27C27.2762 24 27.5 23.7761 27.5 23.5V7.5C27.5 7.36739 27.4474 7.24021 27.3536 7.14645C27.2598 7.05268 27.1326 7 27 7L5.00003 7C4.72389 7 4.50003 7.22386 4.50003 7.5V27.342C4.50003 27.5362 4.61242 27.7128 4.7883 27.795C4.96418 27.8772 5.17175 27.8502 5.32071 27.7257L9.349 24.3584L9.35116 24.3566L9.3535 24.3545C9.62055 24.1259 9.96057 24.0001 10.3123 24ZM5.50003 8V26.2724L8.7055 23.5929C9.1533 23.2105 9.72295 23.0002 10.3122 23H26.5V8L5.50003 8Z" fill="white"/>
</svg>
