<svg width="32" height="32" viewBox="0 0 32 32" fill="none" xmlns="http://www.w3.org/2000/svg">
<path d="M7.70711 5.29289C7.31658 4.90237 6.68342 4.90237 6.29289 5.29289C5.90237 5.68342 5.90237 6.31658 6.29289 6.70711L15.5858 16L6.29289 25.2929C5.90237 25.6834 5.90237 26.3166 6.29289 26.7071C6.68342 27.0976 7.31658 27.0976 7.70711 26.7071L17.7071 16.7071C18.0976 16.3166 18.0976 15.6834 17.7071 15.2929L7.70711 5.29289Z" fill="white"/>
<path d="M17.7071 5.29289C17.3166 4.90237 16.6834 4.90237 16.2929 5.29289C15.9024 5.68342 15.9024 6.31658 16.2929 6.70711L25.5858 16L16.2929 25.2929C15.9024 25.6834 15.9024 26.3166 16.2929 26.7071C16.6834 27.0976 17.3166 27.0976 17.7071 26.7071L27.7071 16.7071C28.0976 16.3166 28.0976 15.6834 27.7071 15.2929L17.7071 5.29289Z" fill="white"/>
<path fill-rule="evenodd" clip-rule="evenodd" d="M5.93934 4.93934C6.52513 4.35355 7.47487 4.35355 8.06066 4.93934L18.0607 14.9393C18.6464 15.5251 18.6464 16.4749 18.0607 17.0607L8.06066 27.0607C7.47487 27.6464 6.52513 27.6464 5.93934 27.0607C5.35355 26.4749 5.35355 25.5251 5.93934 24.9393L14.8787 16L5.93934 7.06066C5.35355 6.47487 5.35355 5.52513 5.93934 4.93934ZM7.35355 5.64645C7.15829 5.45118 6.84171 5.45118 6.64645 5.64645C6.45118 5.84171 6.45118 6.15829 6.64645 6.35355L15.9393 15.6464C16.0331 15.7402 16.0858 15.8674 16.0858 16C16.0858 16.1326 16.0331 16.2598 15.9393 16.3536L6.64645 25.6464C6.45118 25.8417 6.45118 26.1583 6.64645 26.3536C6.84171 26.5488 7.15829 26.5488 7.35355 26.3536L17.3536 16.3536C17.5488 16.1583 17.5488 15.8417 17.3536 15.6464L7.35355 5.64645ZM15.9393 4.93934C16.5251 4.35355 17.4749 4.35355 18.0607 4.93934L28.0607 14.9393C28.6464 15.5251 28.6464 16.4749 28.0607 17.0607L18.0607 27.0607C17.4749 27.6464 16.5251 27.6464 15.9393 27.0607C15.3536 26.4749 15.3536 25.5251 15.9393 24.9393L24.8787 16L15.9393 7.06066C15.3536 6.47487 15.3536 5.52513 15.9393 4.93934ZM17.3536 5.64645C17.1583 5.45118 16.8417 5.45118 16.6464 5.64645C16.4512 5.84171 16.4512 6.15829 16.6464 6.35355L25.9393 15.6464C26.0331 15.7402 26.0858 15.8674 26.0858 16C26.0858 16.1326 26.0331 16.2598 25.9393 16.3536L16.6464 25.6464C16.4512 25.8417 16.4512 26.1583 16.6464 26.3536C16.8417 26.5488 17.1583 26.5488 17.3536 26.3536L27.3536 16.3536C27.5488 16.1583 27.5488 15.8417 27.3536 15.6464L17.3536 5.64645Z" fill="white"/>
</svg>
