<svg width="32" height="32" viewBox="0 0 32 32" fill="none" xmlns="http://www.w3.org/2000/svg">
<path d="M16.7071 5.29289C16.3166 4.90237 15.6834 4.90237 15.2929 5.29289L5.29289 15.2929C4.90237 15.6834 4.90237 16.3166 5.29289 16.7071C5.68342 17.0976 6.31658 17.0976 6.70711 16.7071L16 7.41421L25.2929 16.7071C25.6834 17.0976 26.3166 17.0976 26.7071 16.7071C27.0976 16.3166 27.0976 15.6834 26.7071 15.2929L16.7071 5.29289Z" fill="white"/>
<path d="M26.7071 25.2929L16.7071 15.2929C16.3166 14.9024 15.6834 14.9024 15.2929 15.2929L5.29289 25.2929C4.90237 25.6834 4.90237 26.3166 5.29289 26.7071C5.68342 27.0976 6.31658 27.0976 6.70711 26.7071L16 17.4142L25.2929 26.7071C25.6834 27.0976 26.3166 27.0976 26.7071 26.7071C27.0976 26.3166 27.0976 25.6834 26.7071 25.2929Z" fill="white"/>
<path fill-rule="evenodd" clip-rule="evenodd" d="M14.9393 4.93934C15.5251 4.35355 16.4749 4.35355 17.0607 4.93934L27.0607 14.9393C27.6464 15.5251 27.6464 16.4749 27.0607 17.0607C26.4749 17.6464 25.5251 17.6464 24.9393 17.0607L16 8.12132L7.06066 17.0607C6.47487 17.6464 5.52513 17.6464 4.93934 17.0607C4.35355 16.4749 4.35355 15.5251 4.93934 14.9393L14.9393 4.93934ZM16.3536 5.64645C16.1583 5.45118 15.8417 5.45118 15.6464 5.64645L5.64645 15.6464C5.45118 15.8417 5.45118 16.1583 5.64645 16.3536C5.84171 16.5488 6.15829 16.5488 6.35355 16.3536L15.6464 7.06066C15.7402 6.96689 15.8674 6.91421 16 6.91421C16.1326 6.91421 16.2598 6.96689 16.3536 7.06066L25.6464 16.3536C25.8417 16.5488 26.1583 16.5488 26.3536 16.3536C26.5488 16.1583 26.5488 15.8417 26.3536 15.6464L16.3536 5.64645ZM4.93934 24.9393L14.9393 14.9393C15.5251 14.3536 16.4749 14.3536 17.0607 14.9393L27.0607 24.9393C27.6464 25.5251 27.6464 26.4749 27.0607 27.0607C26.4749 27.6464 25.5251 27.6464 24.9393 27.0607L16 18.1213L7.06066 27.0607C6.47487 27.6464 5.52513 27.6464 4.93934 27.0607C4.35355 26.4749 4.35355 25.5251 4.93934 24.9393ZM16.3536 15.6464C16.1583 15.4512 15.8417 15.4512 15.6464 15.6464L5.64645 25.6464C5.45118 25.8417 5.45118 26.1583 5.64645 26.3536C5.84171 26.5488 6.15829 26.5488 6.35355 26.3536L15.6464 17.0607C15.7402 16.9669 15.8674 16.9142 16 16.9142C16.1326 16.9142 16.2598 16.9669 16.3536 17.0607L25.6464 26.3536C25.8417 26.5488 26.1583 26.5488 26.3536 26.3536C26.5488 26.1583 26.5488 25.8417 26.3536 25.6464L16.3536 15.6464Z" fill="white"/>
</svg>
