<svg width="100%" height="100%" viewBox="0 0 32 33" xmlns="http://www.w3.org/2000/svg" fill="white"><path fill-rule="evenodd" d="M15.293 9.293a1 1 0 0 1 1.414 0l10 10a1 1 0 0 1-1.414 1.414L16 11.414l-9.293 9.293a1 1 0 0 1-1.414-1.414z" clip-rule="evenodd"/><path fill-rule="evenodd" d="M14.94 8.94a1.5 1.5 0 0 1 2.12 0l10 10a1.5 1.5 0 0 1-2.12 2.12L16 12.122l-8.94 8.94a1.5 1.5 0 0 1-2.12-2.122zm1.414.706a.5.5 0 0 0-.708 0l-10 10a.5.5 0 0 0 .708.708l9.292-9.293a.5.5 0 0 1 .708 0l9.292 9.293a.5.5 0 0 0 .708-.708z" clip-rule="evenodd"/></svg>