<svg width="100%" height="100%" xmlns="http://www.w3.org/2000/svg" fill="white"><path fill-rule="evenodd" d="M5.293 11.293a1 1 0 0 1 1.414 0L16 20.586l9.293-9.293a1 1 0 0 1 1.414 1.414l-10 10a1 1 0 0 1-1.414 0l-10-10a1 1 0 0 1 0-1.414" clip-rule="evenodd"/><path fill-rule="evenodd" d="M4.94 10.94a1.5 1.5 0 0 1 2.12 0L16 19.878l8.94-8.94a1.5 1.5 0 0 1 2.12 2.122l-10 10a1.5 1.5 0 0 1-2.12 0l-10-10a1.5 1.5 0 0 1 0-2.122m1.414.706a.5.5 0 0 0-.708.708l10 10a.5.5 0 0 0 .708 0l10-10a.5.5 0 0 0-.708-.708l-9.292 9.293a.5.5 0 0 1-.708 0z" clip-rule="evenodd"/></svg>