<svg xmlns="http://www.w3.org/2000/svg" width="32" height="32" fill="none"><path fill="#fff" fill-rule="evenodd" d="M20.707 5.293a1 1 0 0 1 0 1.414L11.414 16l9.293 9.293a1 1 0 0 1-1.414 1.414l-10-10a1 1 0 0 1 0-1.414l10-10a1 1 0 0 1 1.414 0" clip-rule="evenodd"/><path fill="#fff" fill-rule="evenodd" d="M18.94 4.94a1.5 1.5 0 0 1 2.12 2.12L12.122 16l8.94 8.94a1.5 1.5 0 0 1-2.122 2.12l-10-10a1.5 1.5 0 0 1 0-2.12zm1.414.706a.5.5 0 0 0-.708 0l-10 10a.5.5 0 0 0 0 .708l10 10a.5.5 0 0 0 .708-.708l-9.293-9.292a.5.5 0 0 1 0-.708l9.293-9.292a.5.5 0 0 0 0-.708" clip-rule="evenodd"/></svg>