<svg width="32" height="32" viewBox="0 0 32 32" fill="none" xmlns="http://www.w3.org/2000/svg">
<path d="M6.70711 5.29289C6.31658 4.90237 5.68342 4.90237 5.29289 5.29289C4.90237 5.68342 4.90237 6.31658 5.29289 6.70711L15.2929 16.7071C15.6834 17.0976 16.3166 17.0976 16.7071 16.7071L26.7071 6.70711C27.0976 6.31658 27.0976 5.68342 26.7071 5.29289C26.3166 4.90237 25.6834 4.90237 25.2929 5.29289L16 14.5858L6.70711 5.29289Z" fill="white"/>
<path d="M6.70711 15.2929C6.31658 14.9024 5.68342 14.9024 5.29289 15.2929C4.90237 15.6834 4.90237 16.3166 5.29289 16.7071L15.2929 26.7071C15.6834 27.0976 16.3166 27.0976 16.7071 26.7071L26.7071 16.7071C27.0976 16.3166 27.0976 15.6834 26.7071 15.2929C26.3166 14.9024 25.6834 14.9024 25.2929 15.2929L16 24.5858L6.70711 15.2929Z" fill="white"/>
<path fill-rule="evenodd" clip-rule="evenodd" d="M4.93934 4.93934C5.52513 4.35355 6.47487 4.35355 7.06066 4.93934L16 13.8787L24.9393 4.93934C25.5251 4.35355 26.4749 4.35355 27.0607 4.93934C27.6464 5.52513 27.6464 6.47487 27.0607 7.06066L17.0607 17.0607C16.4749 17.6464 15.5251 17.6464 14.9393 17.0607L4.93934 7.06066C4.35355 6.47487 4.35355 5.52513 4.93934 4.93934ZM6.35355 5.64645C6.15829 5.45118 5.84171 5.45118 5.64645 5.64645C5.45118 5.84171 5.45118 6.15829 5.64645 6.35355L15.6464 16.3536C15.8417 16.5488 16.1583 16.5488 16.3536 16.3536L26.3536 6.35355C26.5488 6.15829 26.5488 5.84171 26.3536 5.64645C26.1583 5.45118 25.8417 5.45118 25.6464 5.64645L16.3536 14.9393C16.2598 15.0331 16.1326 15.0858 16 15.0858C15.8674 15.0858 15.7402 15.0331 15.6464 14.9393L6.35355 5.64645ZM4.93934 14.9393C5.52513 14.3536 6.47487 14.3536 7.06066 14.9393L16 23.8787L24.9393 14.9393C25.5251 14.3536 26.4749 14.3536 27.0607 14.9393C27.6464 15.5251 27.6464 16.4749 27.0607 17.0607L17.0607 27.0607C16.4749 27.6464 15.5251 27.6464 14.9393 27.0607L4.93934 17.0607C4.35355 16.4749 4.35355 15.5251 4.93934 14.9393ZM6.35355 15.6464C6.15829 15.4512 5.84171 15.4512 5.64645 15.6464C5.45119 15.8417 5.45118 16.1583 5.64645 16.3536L15.6464 26.3536C15.8417 26.5488 16.1583 26.5488 16.3536 26.3536L26.3536 16.3536C26.5488 16.1583 26.5488 15.8417 26.3536 15.6464C26.1583 15.4512 25.8417 15.4512 25.6464 15.6464L16.3536 24.9393C16.2598 25.0331 16.1326 25.0858 16 25.0858C15.8674 25.0858 15.7402 25.0331 15.6464 24.9393L6.35355 15.6464Z" fill="white"/>
</svg>
