<svg width="32" height="32" viewBox="0 0 32 32" fill="none" xmlns="http://www.w3.org/2000/svg">
<path d="M15.7071 6.70711C16.0976 6.31658 16.0976 5.68342 15.7071 5.29289C15.3166 4.90237 14.6834 4.90237 14.2929 5.29289L4.29289 15.2929C3.90237 15.6834 3.90237 16.3166 4.29289 16.7071L14.2929 26.7071C14.6834 27.0976 15.3166 27.0976 15.7071 26.7071C16.0976 26.3166 16.0976 25.6834 15.7071 25.2929L6.41421 16L15.7071 6.70711Z" fill="white"/>
<path d="M25.7071 6.70711C26.0976 6.31658 26.0976 5.68342 25.7071 5.29289C25.3166 4.90237 24.6834 4.90237 24.2929 5.29289L14.2929 15.2929C13.9024 15.6834 13.9024 16.3166 14.2929 16.7071L24.2929 26.7071C24.6834 27.0976 25.3166 27.0976 25.7071 26.7071C26.0976 26.3166 26.0976 25.6834 25.7071 25.2929L16.4142 16L25.7071 6.70711Z" fill="white"/>
<path fill-rule="evenodd" clip-rule="evenodd" d="M13.9393 4.93934C14.5251 4.35355 15.4749 4.35355 16.0607 4.93934C16.6464 5.52513 16.6464 6.47487 16.0607 7.06066L7.12132 16L16.0607 24.9393C16.6464 25.5251 16.6464 26.4749 16.0607 27.0607C15.4749 27.6464 14.5251 27.6464 13.9393 27.0607L3.93934 17.0607C3.35355 16.4749 3.35355 15.5251 3.93934 14.9393L13.9393 4.93934ZM15.3536 5.64645C15.1583 5.45118 14.8417 5.45118 14.6464 5.64645L4.64645 15.6464C4.45118 15.8417 4.45118 16.1583 4.64645 16.3536L14.6464 26.3536C14.8417 26.5488 15.1583 26.5488 15.3536 26.3536C15.5488 26.1583 15.5488 25.8417 15.3536 25.6464L6.06066 16.3536C5.96689 16.2598 5.91421 16.1326 5.91421 16C5.91421 15.8674 5.96689 15.7402 6.06066 15.6464L15.3536 6.35355C15.5488 6.15829 15.5488 5.84171 15.3536 5.64645ZM23.9393 4.93934C24.5251 4.35355 25.4749 4.35355 26.0607 4.93934C26.6464 5.52513 26.6464 6.47487 26.0607 7.06066L17.1213 16L26.0607 24.9393C26.6464 25.5251 26.6464 26.4749 26.0607 27.0607C25.4749 27.6464 24.5251 27.6464 23.9393 27.0607L13.9393 17.0607C13.3536 16.4749 13.3536 15.5251 13.9393 14.9393L23.9393 4.93934ZM25.3536 5.64645C25.1583 5.45118 24.8417 5.45118 24.6464 5.64645L14.6464 15.6464C14.4512 15.8417 14.4512 16.1583 14.6464 16.3536L24.6464 26.3536C24.8417 26.5488 25.1583 26.5488 25.3536 26.3536C25.5488 26.1583 25.5488 25.8417 25.3536 25.6464L16.0607 16.3536C15.9669 16.2598 15.9142 16.1326 15.9142 16C15.9142 15.8674 15.9669 15.7402 16.0607 15.6464L25.3536 6.35355C25.5488 6.15829 25.5488 5.84171 25.3536 5.64645Z" fill="white"/>
</svg>
