<svg width="100%" height="100%" viewBox="0 0 32 33" fill="white" xmlns="http://www.w3.org/2000/svg">
<path fill-rule="evenodd" clip-rule="evenodd" d="M2.5 16.4219C2.5 8.96603 8.54416 2.92188 16 2.92188C23.4558 2.92188 29.5 8.96603 29.5 16.4219C29.5 23.8777 23.4558 29.9219 16 29.9219C8.54416 29.9219 2.5 23.8777 2.5 16.4219ZM15.75 8.92188C14.6454 8.92188 13.75 9.81731 13.75 10.9219C13.75 12.0264 14.6454 12.9219 15.75 12.9219C16.8546 12.9219 17.75 12.0264 17.75 10.9219C17.75 9.81731 16.8546 8.92188 15.75 8.92188ZM13.5 15.4219C13.5 14.5934 14.1716 13.9219 15 13.9219H16C16.8284 13.9219 17.5 14.5934 17.5 15.4219V21.0072C18.0826 21.2131 18.5 21.7688 18.5 22.4219C18.5 23.2503 17.8284 23.9219 17 23.9219H16C15.1716 23.9219 14.5 23.2503 14.5 22.4219V16.8365C13.9174 16.6306 13.5 16.075 13.5 15.4219Z"/>
</svg>
