<svg width="32" height="33" viewBox="0 0 32 33" fill="none" xmlns="http://www.w3.org/2000/svg">
<path fill-rule="evenodd" clip-rule="evenodd" d="M16 2.92188C8.54416 2.92188 2.5 8.96603 2.5 16.4219C2.5 23.8777 8.54416 29.9219 16 29.9219C23.4558 29.9219 29.5 23.8777 29.5 16.4219C29.5 8.96603 23.4558 2.92188 16 2.92188ZM16 5.42188C9.92487 5.42188 5 10.3467 5 16.4219C5 22.497 9.92487 27.4219 16 27.4219C22.0751 27.4219 27 22.497 27 16.4219C27 10.3467 22.0751 5.42188 16 5.42188ZM16.9755 9.01795C16.0055 8.82502 15.0002 8.92404 14.0866 9.30248C13.173 9.68092 12.3921 10.3218 11.8427 11.144C11.2932 11.9663 11 12.933 11 13.9219C11 14.7503 11.6716 15.4219 12.5 15.4219C13.3284 15.4219 14 14.7503 14 13.9219C14 13.5263 14.1173 13.1396 14.3371 12.8107C14.5568 12.4818 14.8692 12.2255 15.2346 12.0741C15.6001 11.9227 16.0022 11.8831 16.3902 11.9603C16.7781 12.0375 17.1345 12.228 17.4142 12.5077C17.6939 12.7874 17.8844 13.1437 17.9616 13.5317C18.0387 13.9197 17.9991 14.3218 17.8478 14.6872C17.6964 15.0527 17.44 15.3651 17.1111 15.5848C16.7822 15.8046 16.3956 15.9219 16 15.9219C15.6022 15.9219 15.2206 16.0799 14.9393 16.3612C14.658 16.6425 14.5 17.0241 14.5 17.4219V18.4219C14.5 19.2503 15.1716 19.9219 16 19.9219C16.7335 19.9219 17.3441 19.3953 17.4743 18.6996C17.9341 18.5577 18.3734 18.3494 18.7779 18.0792C19.6001 17.5298 20.241 16.7489 20.6194 15.8353C20.9978 14.9217 21.0969 13.9163 20.9039 12.9464C20.711 11.9765 20.2348 11.0856 19.5355 10.3863C18.8363 9.68708 17.9454 9.21088 16.9755 9.01795ZM14 22.9219C14 21.8173 14.8954 20.9219 16 20.9219C17.1046 20.9219 18 21.8173 18 22.9219C18 24.0264 17.1046 24.9219 16 24.9219C14.8954 24.9219 14 24.0264 14 22.9219Z" fill="white"/>
</svg>
