<svg width="32" height="32" viewBox="0 0 32 32" fill="none" xmlns="http://www.w3.org/2000/svg">
<path d="M12 14C11.4477 14 11 14.4477 11 15C11 15.5523 11.4477 16 12 16H20C20.5523 16 21 15.5523 21 15C21 14.4477 20.5523 14 20 14H12Z" fill="white"/>
<path d="M12 18C11.4477 18 11 18.4477 11 19C11 19.5523 11.4477 20 12 20H20C20.5523 20 21 19.5523 21 19C21 18.4477 20.5523 18 20 18H12Z" fill="white"/>
<path fill-rule="evenodd" clip-rule="evenodd" d="M11.5279 4C11.6019 3.91722 11.6784 3.8363 11.7574 3.75736C12.8826 2.63214 14.4087 2 16 2C17.5913 2 19.1174 2.63214 20.2426 3.75736C20.3216 3.8363 20.3981 3.91722 20.4721 4H25C25.5304 4 26.0391 4.21071 26.4142 4.58579C26.7893 4.96086 27 5.46957 27 6V27C27 27.5304 26.7893 28.0391 26.4142 28.4142C26.0391 28.7893 25.5304 29 25 29H7C6.46957 29 5.96086 28.7893 5.58579 28.4142C5.21071 28.0391 5 27.5304 5 27V6C5 5.46957 5.21071 4.96086 5.58579 4.58579C5.96086 4.21071 6.46957 4 7 4H11.5279ZM13.1716 5.17157C13.9217 4.42143 14.9391 4 16 4C17.0609 4 18.0783 4.42143 18.8284 5.17157C18.9603 5.30344 19.082 5.44356 19.193 5.59073C19.1974 5.59661 19.2017 5.60245 19.2062 5.60823C19.7185 6.29502 20 7.133 20 8H12C12 7.133 12.2815 6.29502 12.7938 5.60823C12.7983 5.60245 12.8026 5.59661 12.807 5.59073C12.918 5.44356 13.0397 5.30344 13.1716 5.17157ZM10.3431 6H7L7 27H25V6H21.6569C21.8819 6.63641 22 7.31211 22 8V9C22 9.55228 21.5523 10 21 10H11C10.4477 10 10 9.55228 10 9V8C10 7.31211 10.1181 6.63641 10.3431 6Z" fill="white"/>
<path fill-rule="evenodd" clip-rule="evenodd" d="M16 2.5C14.5413 2.5 13.1424 3.07946 12.1109 4.11091C12.0385 4.18329 11.9684 4.25747 11.9005 4.33335C11.8057 4.43939 11.6701 4.5 11.5279 4.5H7C6.60217 4.5 6.22064 4.65804 5.93934 4.93934C5.65804 5.22064 5.5 5.60217 5.5 6V27C5.5 27.3978 5.65804 27.7794 5.93934 28.0607C6.22065 28.342 6.60218 28.5 7 28.5H25C25.3978 28.5 25.7794 28.342 26.0607 28.0607C26.342 27.7794 26.5 27.3978 26.5 27V6C26.5 5.60218 26.342 5.22065 26.0607 4.93934C25.7794 4.65804 25.3978 4.5 25 4.5H20.4721C20.3299 4.5 20.1943 4.43939 20.0995 4.33335C20.0316 4.25747 19.9615 4.18329 19.8891 4.11091C18.8576 3.07946 17.4587 2.5 16 2.5ZM11.4038 3.40381C12.6228 2.18482 14.2761 1.5 16 1.5C17.7239 1.5 19.3772 2.18482 20.5962 3.40381C20.628 3.43558 20.6594 3.46764 20.6904 3.5H25C25.663 3.5 26.2989 3.76339 26.7678 4.23223C27.2366 4.70107 27.5 5.33696 27.5 6V27C27.5 27.663 27.2366 28.2989 26.7678 28.7678C26.2989 29.2366 25.663 29.5 25 29.5H7C6.33696 29.5 5.70108 29.2366 5.23223 28.7678C4.76339 28.2989 4.5 27.663 4.5 27V6C4.5 5.33696 4.76339 4.70107 5.23223 4.23223C5.70107 3.76339 6.33696 3.5 7 3.5H11.3096C11.3406 3.46764 11.372 3.43558 11.4038 3.40381ZM16 4.5C15.0717 4.5 14.1815 4.86875 13.5251 5.52513C13.4104 5.63982 13.3045 5.76163 13.2079 5.88952C13.2029 5.89626 13.1979 5.90293 13.1928 5.90954C12.845 6.37665 12.6191 6.92351 12.5359 7.5H19.4641C19.3809 6.92351 19.155 6.37665 18.8072 5.90955C18.8021 5.90293 18.7971 5.89626 18.7921 5.88952C18.6955 5.76163 18.5896 5.63982 18.4749 5.52513C17.8185 4.86875 16.9283 4.5 16 4.5ZM12.818 4.81802C13.6619 3.97411 14.8065 3.5 16 3.5C17.1935 3.5 18.3381 3.97411 19.182 4.81802C19.3303 4.96635 19.4672 5.12399 19.5922 5.28957L19.5963 5.29501L19.6029 5.30385L19.607 5.30923C20.1834 6.08186 20.5 7.0246 20.5 8C20.5 8.27614 20.2761 8.5 20 8.5H12C11.7239 8.5 11.5 8.27614 11.5 8C11.5 7.02461 11.8167 6.08189 12.3931 5.30926L12.3971 5.30382L12.4037 5.29505L12.4078 5.28954C12.5327 5.12396 12.6697 4.96635 12.818 4.81802ZM6.5 6C6.5 5.72386 6.72386 5.5 7 5.5H10.3431C10.5055 5.5 10.6577 5.57879 10.7514 5.71133C10.8451 5.84386 10.8687 6.01364 10.8145 6.16668C10.6083 6.75005 10.5 7.36942 10.5 8V9C10.5 9.27614 10.7239 9.5 11 9.5H21C21.2761 9.5 21.5 9.27614 21.5 9V8C21.5 7.36942 21.3917 6.75005 21.1855 6.16668C21.1313 6.01364 21.1549 5.84386 21.2486 5.71133C21.3423 5.57879 21.4945 5.5 21.6569 5.5H25C25.2761 5.5 25.5 5.72386 25.5 6V27C25.5 27.2761 25.2761 27.5 25 27.5H7C6.86739 27.5 6.74021 27.4473 6.64645 27.3536C6.55268 27.2598 6.5 27.1326 6.5 27L6.5 6ZM7.5 6.5L7.5 26.5H24.5V6.5H22.3246C22.4402 6.98759 22.5 7.49072 22.5 8V9C22.5 9.82843 21.8284 10.5 21 10.5H11C10.1716 10.5 9.5 9.82843 9.5 9V8C9.5 7.49072 9.55977 6.98759 9.67542 6.5H7.5ZM10.5 15C10.5 14.1716 11.1716 13.5 12 13.5H20C20.8284 13.5 21.5 14.1716 21.5 15C21.5 15.8284 20.8284 16.5 20 16.5H12C11.1716 16.5 10.5 15.8284 10.5 15ZM12 14.5C11.7239 14.5 11.5 14.7239 11.5 15C11.5 15.2761 11.7239 15.5 12 15.5H20C20.2761 15.5 20.5 15.2761 20.5 15C20.5 14.7239 20.2761 14.5 20 14.5H12ZM10.5 19C10.5 18.1716 11.1716 17.5 12 17.5H20C20.8284 17.5 21.5 18.1716 21.5 19C21.5 19.8284 20.8284 20.5 20 20.5H12C11.1716 20.5 10.5 19.8284 10.5 19ZM12 18.5C11.7239 18.5 11.5 18.7239 11.5 19C11.5 19.2761 11.7239 19.5 12 19.5H20C20.2761 19.5 20.5 19.2761 20.5 19C20.5 18.7239 20.2761 18.5 20 18.5H12Z" fill="white"/>
</svg>
