<svg width="32" height="32" viewBox="0 0 32 32" fill="none" xmlns="http://www.w3.org/2000/svg">
<path fill-rule="evenodd" clip-rule="evenodd" d="M16 2.5C8.54416 2.5 2.5 8.54416 2.5 16C2.5 23.4558 8.54416 29.5 16 29.5C23.4558 29.5 29.5 23.4558 29.5 16C29.5 8.54416 23.4558 2.5 16 2.5ZM16 5.5C10.201 5.5 5.5 10.201 5.5 16C5.5 21.799 10.201 26.5 16 26.5C21.799 26.5 26.5 21.799 26.5 16C26.5 10.201 21.799 5.5 16 5.5ZM16 7.5C15.1716 7.5 14.5 8.17157 14.5 9V16C14.5 16.8284 15.1716 17.5 16 17.5H23C23.8284 17.5 24.5 16.8284 24.5 16C24.5 15.1716 23.8284 14.5 23 14.5H17.5V9C17.5 8.17157 16.8284 7.5 16 7.5Z" fill="white"/>
</svg>
