<svg width="32" height="32" viewBox="0 0 32 32" fill="none" xmlns="http://www.w3.org/2000/svg">
<path d="M12.1692 6.76043C13.9969 6.00379 16.008 5.80624 17.948 6.19275C19.8881 6.57926 21.6699 7.53248 23.0681 8.93182L25.6061 11.4624H23.0255C22.4732 11.4624 22.0255 11.9101 22.0255 12.4624C22.0255 13.0147 22.4732 13.4624 23.0255 13.4624H28.0111C28.2723 13.4661 28.5346 13.3682 28.7336 13.1686C28.8338 13.0681 28.9081 12.9517 28.9567 12.8276C29.0011 12.7145 29.0255 12.5913 29.0255 12.4624V7.4624C29.0255 6.91012 28.5778 6.4624 28.0255 6.4624C27.4732 6.4624 27.0255 6.91012 27.0255 7.4624V10.0533L24.4823 7.51764C22.8046 5.83873 20.6666 4.69507 18.3388 4.2313C16.0108 3.76748 13.5975 4.00455 11.4042 4.91251C9.21092 5.82048 7.33619 7.35854 6.01719 9.33215C4.69818 11.3057 3.99414 13.6262 3.99414 16C3.99414 18.3738 4.69818 20.6943 6.01719 22.6679C7.33619 24.6415 9.21092 26.1795 11.4042 27.0875C13.5975 27.9955 16.0108 28.2325 18.3388 27.7687C20.6669 27.3049 22.805 26.161 24.4829 24.4818C24.8732 24.0911 24.873 23.458 24.4823 23.0676C24.0916 22.6772 23.4585 22.6775 23.0681 23.0682C21.6699 24.4675 19.8881 25.4207 17.948 25.8073C16.008 26.1938 13.9969 25.9962 12.1692 25.2396C10.3415 24.4829 8.77919 23.2012 7.68001 21.5566C6.58084 19.9119 5.99414 17.9782 5.99414 16C5.99414 14.0218 6.58084 12.0881 7.68001 10.4435C8.77919 8.79879 10.3415 7.51707 12.1692 6.76043Z" fill="white"/>
<path d="M17.0005 10C17.0005 9.44772 16.5528 9 16.0005 9C15.4482 9 15.0005 9.44772 15.0005 10V15.9834C15 16.0134 15.0009 16.0434 15.0031 16.0732C15.024 16.3618 15.1673 16.6164 15.3814 16.7854C15.4252 16.82 15.472 16.8509 15.5212 16.8779L20.7008 19.8661C21.1792 20.1421 21.7907 19.978 22.0667 19.4996C22.3427 19.0213 22.1786 18.4097 21.7003 18.1337L17.0005 15.4223V10Z" fill="white"/>
<path fill-rule="evenodd" clip-rule="evenodd" d="M11.213 4.45054C13.4976 3.50474 16.0115 3.25779 18.4365 3.74094C20.8612 4.224 23.0881 5.4152 24.8357 7.16389C24.8356 7.16378 24.8358 7.16399 24.8357 7.16389L26.5255 8.84874V7.4624C26.5255 6.63398 27.1971 5.9624 28.0255 5.9624C28.8539 5.9624 29.5255 6.63398 29.5255 7.4624V12.4624C29.5255 12.6548 29.489 12.8399 29.4222 13.0103C29.349 13.197 29.2372 13.3717 29.0877 13.5216C28.7903 13.8199 28.3975 13.967 28.0079 13.9624H23.0255C22.1971 13.9624 21.5255 13.2908 21.5255 12.4624C21.5255 11.634 22.1971 10.9624 23.0255 10.9624H24.3965L22.7151 9.2859C21.3868 7.95652 19.6934 7.0503 17.8504 6.68311C16.0073 6.31592 14.0968 6.5036 12.3604 7.22241C10.6241 7.94121 9.13993 9.15885 8.09572 10.7213C7.0515 12.2837 6.49414 14.1208 6.49414 16C6.49414 17.8793 7.0515 19.7163 8.09572 21.2787C9.13993 22.8412 10.6241 24.0588 12.3604 24.7776C14.0968 25.4964 16.0073 25.6841 17.8504 25.3169C19.6934 24.9497 21.3861 24.0442 22.7144 22.7148C23.2999 22.1288 24.2497 22.1284 24.8357 22.7139C25.4217 23.2995 25.4221 24.2492 24.8366 24.8352C23.0888 26.5844 20.8616 27.7759 18.4365 28.2591C16.0115 28.7422 13.4976 28.4953 11.213 27.5495C8.92828 26.6037 6.97545 25.0015 5.60148 22.9457C4.22751 20.8899 3.49414 18.4727 3.49414 16C3.49414 13.5273 4.22751 11.1102 5.60148 9.05432C6.97545 6.99848 8.92828 5.39633 11.213 4.45054ZM18.2411 4.72166C16.0101 4.27717 13.6973 4.50436 11.5954 5.37449C9.49355 6.24463 7.69694 7.7186 6.43289 9.60997C5.16884 11.5013 4.49414 13.7251 4.49414 16C4.49414 18.2749 5.16884 20.4987 6.43289 22.39C7.69694 24.2814 9.49355 25.7554 11.5954 26.6255C13.6973 27.4956 16.0101 27.7228 18.2411 27.2784C20.4722 26.8339 22.5213 25.7377 24.1292 24.1284C24.3244 23.9331 24.3242 23.6165 24.1289 23.4213C23.9336 23.2261 23.617 23.2263 23.4218 23.4216C21.9537 24.8909 20.0828 25.8918 18.0457 26.2976C16.0087 26.7035 13.8971 26.496 11.9779 25.7016C10.0588 24.9071 8.41844 23.5613 7.2643 21.8344C6.11017 20.1075 5.49414 18.0771 5.49414 16C5.49414 13.9229 6.11017 11.8925 7.2643 10.1656C8.41844 8.43873 10.0588 7.09292 11.9779 6.29845C13.8971 5.50398 16.0087 5.29655 18.0457 5.70239C20.0825 6.10817 21.9531 7.1088 23.4211 8.57775M23.4211 8.57775L25.9592 11.1083C26.1025 11.2512 26.1455 11.4664 26.0682 11.6534C25.9909 11.8404 25.8085 11.9624 25.6061 11.9624H23.0255C22.7494 11.9624 22.5255 12.1863 22.5255 12.4624C22.5255 12.7385 22.7494 12.9624 23.0255 12.9624H28.0182C28.1497 12.9643 28.28 12.9154 28.3796 12.8155C28.4303 12.7647 28.4671 12.7067 28.4911 12.6453C28.5131 12.5895 28.5255 12.5278 28.5255 12.4624V7.4624C28.5255 7.18626 28.3017 6.9624 28.0255 6.9624C27.7494 6.9624 27.5255 7.18626 27.5255 7.4624V10.0533C27.5255 10.2554 27.4039 10.4377 27.2172 10.5151C27.0305 10.5926 26.8156 10.5501 26.6725 10.4074L24.1293 7.87172C22.5215 6.26276 20.4719 5.1661 18.2411 4.72166M14.5005 10C14.5005 9.17157 15.1721 8.5 16.0005 8.5C16.8289 8.5 17.5005 9.17157 17.5005 10V15.1336L21.9501 17.7006C22.6677 18.1146 22.9138 19.0319 22.4998 19.7495C22.0858 20.4671 21.1685 20.7132 20.451 20.2992L15.2757 17.3135C15.2038 17.2738 15.1356 17.2283 15.0717 17.1779C14.7516 16.9253 14.5358 16.5432 14.5044 16.1093L15.0031 16.0732L14.5045 16.1103C14.5013 16.067 14.4999 16.0235 14.5005 15.9798V10ZM16.0005 9.5C15.7243 9.5 15.5005 9.72386 15.5005 10V15.9912C15.5003 16.0062 15.5006 16.0211 15.5017 16.0361L15.5018 16.0371C15.5122 16.1804 15.5831 16.3076 15.6912 16.3929C15.7132 16.4103 15.7366 16.4258 15.7612 16.4392L15.7711 16.4447L20.9507 19.433C21.1899 19.571 21.4956 19.489 21.6336 19.2498C21.7716 19.0106 21.6896 18.7048 21.4504 18.5668L16.7506 15.8554C16.5958 15.7661 16.5005 15.601 16.5005 15.4223V10C16.5005 9.72386 16.2766 9.5 16.0005 9.5Z" fill="white"/>
</svg>
