<svg width="32" height="32" viewBox="0 0 32 32" fill="none" xmlns="http://www.w3.org/2000/svg">
<path d="M12 3C12 2.44772 11.5523 2 11 2C10.4477 2 10 2.44772 10 3V7C10 7.55228 10.4477 8 11 8C11.5523 8 12 7.55228 12 7V3Z" fill="white"/>
<path d="M16 3C16 2.44772 15.5523 2 15 2C14.4477 2 14 2.44772 14 3V7C14 7.55228 14.4477 8 15 8C15.5523 8 16 7.55228 16 7V3Z" fill="white"/>
<path d="M19 2C19.5523 2 20 2.44772 20 3V7C20 7.55228 19.5523 8 19 8C18.4477 8 18 7.55228 18 7V3C18 2.44772 18.4477 2 19 2Z" fill="white"/>
<path fill-rule="evenodd" clip-rule="evenodd" d="M9.5 3C9.5 2.17157 10.1716 1.5 11 1.5C11.8284 1.5 12.5 2.17157 12.5 3V7C12.5 7.82843 11.8284 8.5 11 8.5C10.1716 8.5 9.5 7.82843 9.5 7V3ZM11 2.5C10.7239 2.5 10.5 2.72386 10.5 3V7C10.5 7.27614 10.7239 7.5 11 7.5C11.2761 7.5 11.5 7.27614 11.5 7V3C11.5 2.72386 11.2761 2.5 11 2.5ZM13.5 3C13.5 2.17157 14.1716 1.5 15 1.5C15.8284 1.5 16.5 2.17157 16.5 3V7C16.5 7.82843 15.8284 8.5 15 8.5C14.1716 8.5 13.5 7.82843 13.5 7V3ZM15 2.5C14.7239 2.5 14.5 2.72386 14.5 3V7C14.5 7.27614 14.7239 7.5 15 7.5C15.2761 7.5 15.5 7.27614 15.5 7V3C15.5 2.72386 15.2761 2.5 15 2.5ZM19 2.5C18.7239 2.5 18.5 2.72386 18.5 3V7C18.5 7.27614 18.7239 7.5 19 7.5C19.2761 7.5 19.5 7.27614 19.5 7V3C19.5 2.72386 19.2761 2.5 19 2.5ZM17.5 3C17.5 2.17157 18.1716 1.5 19 1.5C19.8284 1.5 20.5 2.17157 20.5 3V7C20.5 7.82843 19.8284 8.5 19 8.5C18.1716 8.5 17.5 7.82843 17.5 7V3ZM2.5 11C2.5 10.1716 3.17157 9.5 4 9.5L26.0032 9.5C27.4606 9.50096 28.8584 10.0803 29.889 11.1109C30.9205 12.1424 31.5 13.5413 31.5 15V16C31.5 17.4587 30.9205 18.8576 29.889 19.8891C29.0189 20.7592 27.8873 21.3077 26.6789 21.458C26.3745 22.2558 25.9877 23.0241 25.5224 23.7498C25.1216 24.3748 24.6677 24.9602 24.1673 25.5H26C26.8284 25.5 27.5 26.1716 27.5 27C27.5 27.8284 26.8284 28.5 26 28.5H19.6151C19.5971 28.5003 19.5791 28.5003 19.5612 28.5H10.4388C10.4209 28.5003 10.4029 28.5003 10.3849 28.5H4C3.17157 28.5 2.5 27.8284 2.5 27C2.5 26.1716 3.17157 25.5 4 25.5H5.83275C5.33232 24.9602 4.87842 24.3748 4.47758 23.7498C3.18594 21.7355 2.49957 19.3928 2.5 17V11ZM4 10.5C3.72386 10.5 3.5 10.7239 3.5 11V17C3.49959 19.2014 4.13105 21.3568 5.31938 23.21C5.89762 24.1117 6.5959 24.9235 7.39101 25.6251C7.54691 25.7627 7.60141 25.9824 7.52787 26.1768C7.45433 26.3713 7.26811 26.5 7.06019 26.5H4C3.72386 26.5 3.5 26.7239 3.5 27C3.5 27.2761 3.72386 27.5 4 27.5H10.401C10.4082 27.5002 10.4155 27.5003 10.4228 27.5001L10.4339 27.4999L19.5772 27.5C19.5845 27.5002 19.5918 27.5003 19.599 27.5001L19.6101 27.4999L26 27.5C26.2761 27.5 26.5 27.2761 26.5 27C26.5 26.7239 26.2761 26.5 26 26.5H22.9398C22.7319 26.5 22.5457 26.3713 22.4721 26.1768C22.3986 25.9824 22.4531 25.7627 22.609 25.6251C23.4041 24.9235 24.1024 24.1117 24.6806 23.21C25.1625 22.4586 25.5527 21.6575 25.8465 20.8237C25.9131 20.6347 26.0862 20.5036 26.2863 20.4909C27.3752 20.4215 28.4058 19.9582 29.1819 19.182C30.0258 18.3381 30.5 17.1935 30.5 16V15C30.5 13.8065 30.0258 12.6619 29.1819 11.818C28.3387 10.9748 27.1953 10.5008 26.0029 10.5L4 10.5ZM4.5 12C4.5 11.7239 4.72386 11.5 5 11.5H25C25.2761 11.5 25.5 11.7239 25.5 12V17.0001C25.5002 17.9299 25.3769 18.8508 25.137 19.7394C25.131 19.7617 25.1234 19.7835 25.1144 19.8047C25.0985 19.8422 25.087 19.882 25.0807 19.9237C25.0772 19.9465 25.0722 19.969 25.0656 19.9911C24.7861 20.9326 24.3744 21.835 23.8388 22.6702C22.7942 24.2993 21.3204 25.6067 19.5817 26.4499C19.5137 26.4829 19.4391 26.5 19.3636 26.5H10.6364C10.5609 26.5 10.4863 26.4829 10.4183 26.4499C8.67956 25.6067 7.20583 24.2993 6.16117 22.6702C5.07615 20.9781 4.49961 19.01 4.5 17V12ZM5.5 12.5V17C5.49963 18.8186 6.02128 20.5995 7.00296 22.1304C7.92768 23.5724 9.22398 24.7359 10.7528 25.5H19.2472C20.776 24.7359 22.0723 23.5724 22.997 22.1304C23.476 21.3834 23.8455 20.577 24.0982 19.7358C24.1159 19.6366 24.1433 19.5407 24.1795 19.4491C24.3914 18.6543 24.5002 17.8313 24.5 17.0003V12.5H5.5ZM26.7113 11.7633C26.8439 11.6696 27.0136 11.6461 27.1667 11.7002C27.6542 11.8726 28.1022 12.1525 28.4748 12.5251C29.1312 13.1815 29.5 14.0717 29.5 15V16C29.5 16.9283 29.1312 17.8185 28.4748 18.4749C28.0588 18.8909 27.5489 19.1913 26.9949 19.3556C26.8303 19.4044 26.6523 19.3654 26.5232 19.2522C26.3941 19.1391 26.3321 18.9677 26.3589 18.7981C26.4526 18.2057 26.5001 17.6046 26.5 16.9999V12.1716C26.5 12.0093 26.5788 11.857 26.7113 11.7633ZM27.5 13V16.9997C27.5001 17.3448 27.4858 17.6889 27.4576 18.0311C27.5672 17.9524 27.671 17.8645 27.7677 17.7678C28.2366 17.2989 28.5 16.663 28.5 16V15C28.5 14.337 28.2366 13.7011 27.7677 13.2322C27.6836 13.1481 27.5941 13.0706 27.5 13Z" fill="white"/>
<path fill-rule="evenodd" clip-rule="evenodd" d="M3.5 11C3.5 10.7239 3.72386 10.5 4 10.5L26.0029 10.5C27.1953 10.5008 28.3387 10.9748 29.1819 11.818C30.0258 12.6619 30.5 13.8065 30.5 15V16C30.5 17.1935 30.0258 18.3381 29.1819 19.182C28.4058 19.9582 27.3752 20.4215 26.2863 20.4909C26.0862 20.5036 25.9131 20.6347 25.8465 20.8237C25.5527 21.6575 25.1625 22.4586 24.6806 23.21C24.1024 24.1117 23.4041 24.9235 22.609 25.6251C22.4531 25.7627 22.3986 25.9824 22.4721 26.1768C22.5457 26.3713 22.7319 26.5 22.9398 26.5H26C26.2761 26.5 26.5 26.7239 26.5 27C26.5 27.2761 26.2761 27.5 26 27.5L19.6101 27.4999L19.599 27.5001C19.5918 27.5003 19.5845 27.5002 19.5772 27.5L10.4339 27.4999L10.4228 27.5001C10.4155 27.5003 10.4082 27.5002 10.401 27.5H4C3.72386 27.5 3.5 27.2761 3.5 27C3.5 26.7239 3.72386 26.5 4 26.5H7.06019C7.26811 26.5 7.45433 26.3713 7.52787 26.1768C7.60141 25.9824 7.54691 25.7627 7.39101 25.6251C6.5959 24.9235 5.89762 24.1117 5.31938 23.21C4.13105 21.3568 3.49959 19.2014 3.5 17V11ZM4.5 12C4.5 11.7239 4.72386 11.5 5 11.5H25C25.2761 11.5 25.5 11.7239 25.5 12V17.0001C25.5002 17.9299 25.3769 18.8508 25.137 19.7394C25.131 19.7617 25.1234 19.7835 25.1144 19.8047C25.0985 19.8422 25.087 19.882 25.0807 19.9237C25.0772 19.9465 25.0722 19.969 25.0656 19.9911C24.7861 20.9326 24.3744 21.835 23.8388 22.6702C22.7942 24.2993 21.3204 25.6067 19.5817 26.4499C19.5137 26.4829 19.4391 26.5 19.3636 26.5H10.6364C10.5609 26.5 10.4863 26.4829 10.4183 26.4499C8.67956 25.6067 7.20583 24.2993 6.16117 22.6702C5.07615 20.9781 4.49961 19.01 4.5 17V12ZM26.7113 11.7633C26.8439 11.6696 27.0136 11.6461 27.1667 11.7002C27.6542 11.8726 28.1022 12.1525 28.4748 12.5251C29.1312 13.1815 29.5 14.0717 29.5 15V16C29.5 16.9283 29.1312 17.8185 28.4748 18.4749C28.0588 18.8909 27.5489 19.1913 26.9949 19.3556C26.8303 19.4044 26.6523 19.3654 26.5232 19.2522C26.3941 19.1391 26.3321 18.9677 26.3589 18.7981C26.4526 18.2057 26.5001 17.6046 26.5 16.9999V12.1716C26.5 12.0093 26.5788 11.857 26.7113 11.7633Z" fill="white"/>
</svg>
