<svg width="32" height="32" viewBox="0 0 32 32" fill="none" xmlns="http://www.w3.org/2000/svg">
<path fill-rule="evenodd" clip-rule="evenodd" d="M4.51857 6.4061C2.64633 7.24861 1 8.61874 1 10.5V15.5C1 17.3821 2.64529 18.7523 4.51783 19.5948C5.77391 20.1599 7.3076 20.5765 9 20.8037V21.5C9 23.3821 10.6453 24.7523 12.5178 25.5948C14.4838 26.4793 17.1298 27 20 27C22.8702 27 25.5162 26.4793 27.4822 25.5948C29.3547 24.7523 31 23.3821 31 21.5V16.5131L31 16.5C31 14.8459 29.7143 13.5893 28.189 12.7591C26.8124 12.0099 25.0109 11.4688 23 11.1955V10.5C23 8.61874 21.3537 7.24861 19.4814 6.4061C17.5153 5.52135 14.8693 5 12 5C9.13066 5 6.48468 5.52135 4.51857 6.4061ZM5.3393 8.22994C3.59225 9.01611 3 9.89598 3 10.5C3 11.104 3.59225 11.9839 5.3393 12.7701C6.13218 13.1269 7.08627 13.4243 8.15729 13.6373C8.18196 13.6412 8.20634 13.646 8.23038 13.6517C9.37378 13.8738 10.648 14 12 14C13.352 14 14.6262 13.8738 15.7696 13.6517C15.7937 13.646 15.818 13.6412 15.8427 13.6373C16.9137 13.4243 17.8678 13.1269 18.6607 12.7701C20.4077 11.9839 21 11.104 21 10.5C21 9.89598 20.4077 9.01611 18.6607 8.22994C17.0075 7.48601 14.6535 7 12 7C9.34649 7 6.99248 7.48601 5.3393 8.22994ZM15 15.8034C14.0435 15.932 13.0363 16 12 16C10.9637 16 9.95653 15.932 9 15.8034V18.7839C9.93561 18.9232 10.944 19 12 19C13.056 19 14.0644 18.9232 15 18.7839V15.8034ZM17 18.363V15.4293C17.9071 15.2078 18.7423 14.9265 19.4814 14.5939C20.0172 14.3528 20.5345 14.0685 21 13.7413V15.5C21 16.1054 20.4078 16.9852 18.6616 17.7709C18.1669 17.9934 17.6095 18.1928 17 18.363ZM15 21.4303C14.4389 21.2942 13.9059 21.1359 13.407 20.9578C12.9455 20.9857 12.4758 21 12 21C11.6633 21 11.3298 20.9928 11 20.9788V21.5C11 22.1054 11.5922 22.9852 13.3384 23.7709C13.8331 23.9934 14.3905 24.1928 15 24.363V21.4303ZM17 24.7839V21.8029C17.9558 21.9313 18.9631 22 20 22C21.0364 22 22.0435 21.9321 23 21.8037V24.7839C22.0644 24.9232 21.056 25 20 25C18.944 25 17.9356 24.9232 17 24.7839ZM7 15.4293C6.09294 15.2078 5.25771 14.9265 4.51857 14.5939C3.98278 14.3528 3.46549 14.0685 3 13.7413V15.5C3 16.1054 3.59221 16.9852 5.33842 17.7709C5.83306 17.9934 6.39049 18.1928 7 18.363V15.4293ZM29 16.4949L29 16.5V16.507C28.9954 17.1122 28.401 17.9882 26.6616 18.7708C25.8712 19.1264 24.9205 19.423 23.8533 19.6357C23.8216 19.6404 23.7903 19.6465 23.7596 19.6541C22.619 19.8747 21.3483 20 20 20C19.521 20 19.0511 19.984 18.593 19.9534C18.9025 19.8417 19.1994 19.722 19.4822 19.5948C21.3547 18.7523 23 17.3821 23 15.5V13.2158C24.7141 13.4741 26.173 13.9389 27.2329 14.5158C28.5627 15.2395 28.9972 15.9742 29 16.4949ZM25 21.4299V24.363C25.6095 24.1928 26.1669 23.9934 26.6616 23.7709C28.4078 22.9852 29 22.1054 29 21.5V19.7427C28.5348 20.0696 28.0178 20.3538 27.4822 20.5947C26.7429 20.9274 25.9074 21.2085 25 21.4299Z" fill="white"/>
<path fill-rule="evenodd" clip-rule="evenodd" d="M4.31339 5.95014C6.35773 5.03018 9.07671 4.5 12 4.5C14.9233 4.5 17.6423 5.03018 19.6866 5.95014C21.5876 6.80557 23.5 8.29785 23.5 10.5V10.7634C25.3824 11.0588 27.0866 11.5899 28.428 12.32C29.9991 13.175 31.5 14.5612 31.5 16.5L31.5 16.5141L31.5 21.5C31.5 23.7028 29.5889 25.1952 27.6873 26.0507C25.6431 26.9705 22.9241 27.5 20 27.5C17.0759 27.5 14.3569 26.9705 12.3127 26.0507C10.4111 25.1952 8.5 23.7028 8.5 21.5V21.2365C6.9389 20.9939 5.51104 20.5899 4.31268 20.0507C2.41114 19.1952 0.5 17.7028 0.5 15.5V10.5C0.5 8.29785 2.41243 6.80557 4.31339 5.95014ZM12 5.5C9.18461 5.5 6.61162 6.01252 4.72375 6.86206C2.88023 7.69164 1.5 8.93963 1.5 10.5V15.5C1.5 17.0613 2.87943 18.3094 4.72298 19.1388C5.9267 19.6804 7.41205 20.0861 9.06652 20.3082C9.31473 20.3415 9.5 20.5533 9.5 20.8037V21.5C9.5 23.0613 10.8794 24.3094 12.723 25.1388C14.6106 25.9881 17.1836 26.5 20 26.5C22.8164 26.5 25.3894 25.9881 27.277 25.1388C29.1206 24.3094 30.5 23.0613 30.5 21.5V16.5131L30.5 16.5C30.5 15.1305 29.4295 14.0035 27.95 13.1983C26.6402 12.4854 24.9008 11.9584 22.9327 11.6909C22.6848 11.6572 22.5 11.4456 22.5 11.1955V10.5C22.5 8.93963 21.1198 7.69164 19.2762 6.86206C17.3884 6.01252 14.8154 5.5 12 5.5ZM5.13411 7.77398C6.86552 6.99485 9.29252 6.5 12 6.5C14.7075 6.5 17.1345 6.99485 18.8659 7.77398C19.78 8.18534 20.4267 8.63621 20.8515 9.09264C21.2742 9.54681 21.5 10.0337 21.5 10.5C21.5 10.9663 21.2742 11.4532 20.8515 11.9074C20.4267 12.3638 19.78 12.8147 18.8659 13.226C18.0326 13.601 17.0414 13.9087 15.9402 14.1277C15.9338 14.129 15.9273 14.1301 15.9207 14.1312C15.9084 14.1331 15.8963 14.1355 15.8844 14.1383C15.8779 14.1398 15.8715 14.1412 15.865 14.1425C14.6888 14.371 13.3825 14.5 12 14.5C10.6175 14.5 9.31124 14.371 8.13501 14.1425C8.12852 14.1412 8.12206 14.1398 8.11563 14.1383C8.1037 14.1355 8.09158 14.1331 8.07925 14.1312C8.07274 14.1301 8.06624 14.129 8.05977 14.1277C6.95861 13.9087 5.96737 13.601 5.13411 13.226C4.21998 12.8147 3.57328 12.3638 3.14849 11.9074C2.72581 11.4532 2.5 10.9663 2.5 10.5C2.5 10.0337 2.72581 9.54681 3.14849 9.09264C3.57328 8.63621 4.21998 8.18534 5.13411 7.77398ZM12 7.5C9.40047 7.5 7.11943 7.97717 5.54448 8.6859C4.71157 9.06071 4.18862 9.44286 3.88052 9.77391C3.57032 10.1072 3.5 10.3623 3.5 10.5C3.5 10.6377 3.57032 10.8928 3.88052 11.2261C4.18862 11.5571 4.71157 11.9393 5.54448 12.3141C6.29491 12.6518 7.20885 12.9383 8.24617 13.1452C8.27586 13.1501 8.30529 13.1559 8.33441 13.1625C9.44279 13.3773 10.682 13.5 12 13.5C13.318 13.5 14.5572 13.3773 15.6656 13.1625C15.6947 13.1559 15.7241 13.1501 15.7538 13.1452C16.7912 12.9383 17.7051 12.6518 18.4555 12.3141C19.2884 11.9393 19.8114 11.5571 20.1195 11.2261C20.4297 10.8928 20.5 10.6377 20.5 10.5C20.5 10.3623 20.4297 10.1072 20.1195 9.77391C19.8114 9.44286 19.2884 9.06071 18.4555 8.6859C16.8806 7.97717 14.5995 7.5 12 7.5ZM22.6738 12.8368C22.7842 12.7419 22.9305 12.6997 23.0745 12.7214C24.8296 12.9858 26.3479 13.4648 27.4719 14.0766C28.8533 14.8285 29.4957 15.6926 29.5 16.4922L29.5 16.4962L29.5 16.5L29.5 16.5013L29.5 16.5108C29.4965 16.9761 29.2695 17.4611 28.8468 17.9137C28.422 18.3684 27.777 18.8173 26.8668 19.2268C26.0361 19.6005 25.0483 19.9074 23.951 20.126C23.9427 20.1277 23.9344 20.1291 23.926 20.1304C23.9102 20.1327 23.8946 20.1358 23.8794 20.1395C23.8712 20.1415 23.8629 20.1434 23.8546 20.145C22.6813 20.372 21.3787 20.5 20 20.5C19.5099 20.5 19.0289 20.4836 18.5597 20.4523C18.3236 20.4365 18.1308 20.2574 18.0978 20.0231C18.0649 19.7888 18.2007 19.5634 18.4232 19.4831C18.7216 19.3754 19.0066 19.2605 19.277 19.1388C21.1206 18.3094 22.5 17.0613 22.5 15.5V13.2158C22.5 13.0702 22.5635 12.9318 22.6738 12.8368ZM23.5 13.8065V15.5C23.5 17.2791 22.2534 18.5948 20.772 19.4858C21.7983 19.4481 22.7677 19.3361 23.6536 19.1653C23.6908 19.1565 23.7285 19.1491 23.7667 19.1431C24.7993 18.9366 25.7091 18.6511 26.4565 18.3149C27.2857 17.9418 27.8075 17.5613 28.116 17.2311C28.4252 16.9 28.4984 16.6451 28.5 16.5048V16.5L28.5 16.4987L28.5 16.4976C28.4987 16.2559 28.2721 15.6506 26.9939 14.955C26.1143 14.4763 24.9198 14.0688 23.5 13.8065ZM2.76951 13.2976C2.9351 13.2116 3.13482 13.225 3.28749 13.3323C3.72268 13.6381 4.21144 13.9074 4.72375 14.1379C5.43122 14.4563 6.23693 14.7282 7.11861 14.9435C7.34249 14.9982 7.5 15.1988 7.5 15.4293V18.363C7.5 18.5194 7.42684 18.6668 7.30229 18.7613C7.17773 18.8559 7.01612 18.8867 6.86551 18.8446C6.23509 18.6686 5.65367 18.461 5.13327 18.2268C4.21953 17.8157 3.57299 17.365 3.14828 16.9084C2.72557 16.4539 2.5 15.9668 2.5 15.5V13.7413C2.5 13.5547 2.60391 13.3837 2.76951 13.2976ZM21.2305 13.2976C21.3961 13.3837 21.5 13.5547 21.5 13.7413V15.5C21.5 15.9668 21.2744 16.4539 20.8517 16.9084C20.427 17.365 19.7805 17.8157 18.8667 18.2268C18.3463 18.461 17.7649 18.6686 17.1345 18.8446C16.9839 18.8867 16.8223 18.8559 16.6977 18.7613C16.5732 18.6668 16.5 18.5194 16.5 18.363V15.4293C16.5 15.1988 16.6575 14.9982 16.8814 14.9435C17.7631 14.7282 18.5688 14.4563 19.2762 14.1379C19.7886 13.9074 20.2773 13.6381 20.7125 13.3323C20.8652 13.225 21.0649 13.2116 21.2305 13.2976ZM3.5 14.6425V15.5C3.5 15.6387 3.57054 15.8941 3.88049 16.2273C4.18843 16.5584 4.7111 16.9403 5.54357 17.3149C5.83774 17.4472 6.15733 17.5718 6.5 17.6869V15.8173C5.71251 15.6062 4.97803 15.349 4.31339 15.0499C4.03752 14.9257 3.76493 14.79 3.5 14.6425ZM20.5 14.6425C20.2351 14.79 19.9625 14.9257 19.6866 15.0499C19.022 15.349 18.2875 15.6062 17.5 15.8173V17.6869C17.8427 17.5718 18.1623 17.4472 18.4564 17.3149C19.2889 16.9403 19.8116 16.5584 20.1195 16.2273C20.4295 15.8941 20.5 15.6387 20.5 15.5V14.6425ZM8.67084 15.4271C8.7794 15.3321 8.92367 15.2887 9.06661 15.3079C10.0005 15.4334 10.9854 15.5 12 15.5C13.0146 15.5 13.9995 15.4334 14.9334 15.3079C15.0763 15.2887 15.2206 15.3321 15.3292 15.4271C15.4377 15.522 15.5 15.6592 15.5 15.8034V18.7839C15.5 19.0316 15.3186 19.2419 15.0736 19.2784C14.113 19.4215 13.08 19.5 12 19.5C10.92 19.5 9.88697 19.4215 8.92636 19.2784C8.68136 19.2419 8.5 19.0316 8.5 18.7839V15.8034C8.5 15.6592 8.56228 15.522 8.67084 15.4271ZM9.5 16.3675V18.3477C10.2888 18.4463 11.1271 18.5 12 18.5C12.8729 18.5 13.7112 18.4463 14.5 18.3477V16.3675C13.693 16.4546 12.8558 16.5 12 16.5C11.1442 16.5 10.307 16.4546 9.5 16.3675ZM29.2305 19.299C29.3961 19.385 29.5 19.5561 29.5 19.7427V21.5C29.5 21.9668 29.2744 22.4539 28.8517 22.9084C28.427 23.365 27.7805 23.8157 26.8667 24.2268C26.3463 24.461 25.7649 24.6686 25.1345 24.8446C24.9839 24.8867 24.8223 24.8559 24.6977 24.7613C24.5732 24.6668 24.5 24.5194 24.5 24.363V21.4299C24.5 21.1994 24.6576 20.9988 24.8815 20.9442C25.7635 20.729 26.5695 20.4571 27.2771 20.1388C27.7891 19.9084 28.2776 19.6392 28.7125 19.3336C28.8652 19.2263 29.0649 19.213 29.2305 19.299ZM28.5 20.6438C28.2353 20.7911 27.963 20.9267 27.6874 21.0507C27.0225 21.3498 26.2878 21.607 25.5 21.8181V23.6869C25.8427 23.5718 26.1623 23.4472 26.4564 23.3149C27.2889 22.9403 27.8116 22.5584 28.1195 22.2273C28.4295 21.8941 28.5 21.6387 28.5 21.5V20.6438ZM13.3768 20.4587C13.4441 20.4546 13.5116 20.4642 13.5751 20.4869C14.0563 20.6587 14.5724 20.8121 15.1179 20.9444C15.3421 20.9988 15.5 21.1995 15.5 21.4303V24.363C15.5 24.5194 15.4268 24.6668 15.3023 24.7613C15.1777 24.8559 15.0161 24.8867 14.8655 24.8446C14.2351 24.6686 13.6537 24.461 13.1333 24.2268C12.2195 23.8157 11.573 23.365 11.1483 22.9084C10.7256 22.4539 10.5 21.9668 10.5 21.5V20.9788C10.5 20.8425 10.5556 20.7121 10.6541 20.6177C10.7525 20.5234 10.8851 20.4734 11.0213 20.4792C11.344 20.493 11.6704 20.5 12 20.5C12.4658 20.5 12.9255 20.486 13.3768 20.4587ZM13.3355 21.4628C12.8967 21.4874 12.451 21.5 12 21.5C11.8326 21.5 11.6659 21.4983 11.5 21.4948V21.5C11.5 21.6387 11.5705 21.8941 11.8805 22.2273C12.1884 22.5584 12.7111 22.9403 13.5436 23.3149C13.8377 23.4472 14.1573 23.5718 14.5 23.6869V21.8191C14.0966 21.7117 13.7077 21.5927 13.3355 21.4628ZM16.6708 21.4266C16.7794 21.3317 16.9236 21.2882 17.0666 21.3074C17.9999 21.4328 18.985 21.5 20 21.5C21.0148 21.5 21.9997 21.4335 22.9335 21.3081C23.0764 21.2889 23.2207 21.3324 23.3292 21.4273C23.4377 21.5223 23.5 21.6595 23.5 21.8037V24.7839C23.5 25.0316 23.3186 25.2419 23.0736 25.2784C22.113 25.4215 21.08 25.5 20 25.5C18.92 25.5 17.887 25.4215 16.9264 25.2784C16.6814 25.2419 16.5 25.0316 16.5 24.7839V21.8029C16.5 21.6587 16.5623 21.5215 16.6708 21.4266ZM17.5 22.3671V24.3477C18.2888 24.4463 19.1271 24.5 20 24.5C20.8729 24.5 21.7112 24.4463 22.5 24.3477V22.3677C21.6931 22.4546 20.8559 22.5 20 22.5C19.1436 22.5 18.3064 22.4541 17.5 22.3671Z" fill="white"/>
</svg>
