<svg width="32" height="32" viewBox="0 0 32 32" fill="none" xmlns="http://www.w3.org/2000/svg">
<path fill-rule="evenodd" clip-rule="evenodd" d="M24.8122 24.9883C26.1833 22.6383 27 19.458 27 16C27 12.542 26.1833 9.36167 24.8122 7.01168C23.4556 4.68657 21.4349 3 19 3H13C10.5637 3 8.54289 4.68556 7.18647 7.01085C5.81573 9.36069 5 12.5411 5 16C5 19.4589 5.81573 22.6393 7.18647 24.9892C8.54289 27.3144 10.5637 29 13 29H19C21.4349 29 23.4556 27.3134 24.8122 24.9883ZM8.91403 8.01859C7.75127 10.0119 7 12.8315 7 16C7 19.1685 7.75127 21.9881 8.91403 23.9814C10.0911 25.9993 11.5703 27 13 27C14.4297 27 15.9089 25.9993 17.086 23.9814C17.1543 23.8643 17.2212 23.7443 17.2866 23.6215C17.3102 23.564 17.3389 23.5091 17.3723 23.4575C18.3706 21.5081 19 18.9002 19 16C19 13.0998 18.3706 10.4919 17.3723 8.54247C17.3389 8.49087 17.3102 8.436 17.2866 8.37844C17.2212 8.2557 17.1543 8.13572 17.086 8.01859C15.9089 6.00073 14.4297 5 13 5C11.5703 5 10.0911 6.00073 8.91403 8.01859ZM18.8072 25C18.3722 25.7439 17.8692 26.422 17.3063 27H19C20.1625 27 21.3592 26.3364 22.3995 25H18.8072ZM23.5927 23H19.7646C20.4495 21.2353 20.8768 19.1863 20.9771 17H24.9748C24.8592 19.282 24.3526 21.3464 23.5927 23ZM20.9771 15H24.9748C24.8592 12.718 24.3526 10.6536 23.5927 9H19.7646C20.4495 10.7647 20.8768 12.8137 20.9771 15ZM22.3995 7H18.8072C18.3722 6.25615 17.8692 5.57804 17.3063 5H19C20.1625 5 21.3592 5.66365 22.3995 7Z" fill="white"/>
<path fill-rule="evenodd" clip-rule="evenodd" d="M6.75458 6.75891C8.15523 4.35781 10.3112 2.5 13 2.5H19C21.6875 2.5 23.8433 4.35901 25.244 6.7597C26.6671 9.19877 27.5 12.4693 27.5 16C27.5 19.5307 26.6671 22.8012 25.244 25.2403C23.8433 27.641 21.6875 29.5 19 29.5H13C10.3112 29.5 8.15523 27.6422 6.75458 25.2411C5.33184 22.8021 4.5 19.5315 4.5 16C4.5 12.4685 5.33184 9.1979 6.75458 6.75891ZM13 3.5C10.8162 3.5 8.93055 5.01331 7.61836 7.26278C6.29963 9.52347 5.5 12.6137 5.5 16C5.5 19.3863 6.29963 22.4765 7.61836 24.7372C8.93055 26.9867 10.8162 28.5 13 28.5H19C21.1822 28.5 23.0678 26.9859 24.3803 24.7363C25.6994 22.4754 26.5 19.3853 26.5 16C26.5 12.6147 25.6994 9.52457 24.3803 7.26365C23.0678 5.01412 21.1822 3.5 19 3.5H13ZM8.48214 7.76665C9.70491 5.67047 11.3198 4.5 13 4.5C14.6802 4.5 16.2951 5.67047 17.5179 7.76665C17.5895 7.88944 17.6595 8.01502 17.7279 8.14328C17.7358 8.15818 17.743 8.17347 17.7494 8.1891C17.7611 8.21768 17.7754 8.24504 17.7921 8.27087C17.8013 8.285 17.8097 8.29959 17.8173 8.31457C18.8566 10.344 19.5 13.0319 19.5 16C19.5 18.9681 18.8566 21.656 17.8173 23.6854C17.8097 23.7004 17.8013 23.715 17.7921 23.7291C17.7754 23.755 17.7611 23.7823 17.7494 23.8109C17.743 23.8265 17.7358 23.8418 17.7279 23.8567C17.6595 23.985 17.5895 24.1106 17.5179 24.2333C16.2951 26.3295 14.6802 27.5 13 27.5C11.3198 27.5 9.70491 26.3295 8.48214 24.2333C7.2674 22.1509 6.5 19.2411 6.5 16C6.5 12.7589 7.2674 9.84908 8.48214 7.76665ZM13 5.5C11.8208 5.5 10.4773 6.33099 9.34592 8.27052C8.23514 10.1747 7.5 12.9042 7.5 16C7.5 19.0958 8.23514 21.8253 9.34592 23.7295C10.4773 25.669 11.8208 26.5 13 26.5C14.1792 26.5 15.5227 25.669 16.6541 23.7295C16.7154 23.6243 16.7757 23.5165 16.8348 23.4062C16.8643 23.3379 16.8987 23.2722 16.9375 23.2097C17.8889 21.3422 18.5 18.8222 18.5 16C18.5 13.1778 17.8889 10.6578 16.9375 8.79034C16.8987 8.72781 16.8643 8.66214 16.8348 8.59378C16.7757 8.48348 16.7154 8.37571 16.6541 8.27052C15.5227 6.33099 14.1792 5.5 13 5.5ZM16.8457 4.8056C16.9238 4.62039 17.1053 4.5 17.3063 4.5H19C20.3652 4.5 21.6935 5.27908 22.794 6.69286C22.9114 6.84358 22.9326 7.04798 22.8487 7.21958C22.7648 7.39118 22.5905 7.5 22.3995 7.5H18.8072C18.6295 7.5 18.4652 7.40574 18.3756 7.25238C17.9582 6.5386 17.479 5.89398 16.9481 5.34884C16.8079 5.20482 16.7675 4.99081 16.8457 4.8056ZM18.3999 5.5C18.6451 5.8169 18.8754 6.15146 19.0902 6.5H21.2639C20.5037 5.81027 19.722 5.5 19 5.5H18.3999ZM19.352 8.71755C19.4452 8.5814 19.5996 8.5 19.7646 8.5H23.5927C23.788 8.5 23.9654 8.61373 24.047 8.79121C24.8364 10.5089 25.3557 12.6366 25.4742 14.9747C25.4811 15.1115 25.4316 15.2452 25.3372 15.3445C25.2428 15.4438 25.1118 15.5 24.9748 15.5H20.9771C20.7099 15.5 20.4899 15.2899 20.4777 15.0229C20.3795 12.8858 19.962 10.8908 19.2985 9.18089C19.2388 9.02707 19.2588 8.8537 19.352 8.71755ZM20.4779 9.5C20.9932 11.0209 21.3285 12.7138 21.4495 14.5H24.4415C24.2932 12.6162 23.8712 10.9098 23.2676 9.5H20.4779ZM20.4777 16.9771C20.4899 16.7101 20.7099 16.5 20.9771 16.5H24.9748C25.1118 16.5 25.2428 16.5562 25.3372 16.6555C25.4316 16.7548 25.4811 16.8885 25.4742 17.0253C25.3557 19.3634 24.8364 21.4911 24.047 23.2088C23.9654 23.3863 23.788 23.5 23.5927 23.5H19.7646C19.5996 23.5 19.4452 23.4186 19.352 23.2824C19.2588 23.1463 19.2388 22.9729 19.2985 22.8191C19.962 21.1092 20.3795 19.1142 20.4777 16.9771ZM21.4495 17.5C21.3285 19.2862 20.9932 20.9791 20.4779 22.5H23.2676C23.8712 21.0902 24.2932 19.3838 24.4415 17.5H21.4495ZM18.3756 24.7476C18.4652 24.5943 18.6295 24.5 18.8072 24.5H22.3995C22.5905 24.5 22.7648 24.6088 22.8487 24.7804C22.9326 24.952 22.9114 25.1564 22.794 25.3071C21.6935 26.7209 20.3652 27.5 19 27.5H17.3063C17.1053 27.5 16.9238 27.3796 16.8457 27.1944C16.7675 27.0092 16.8079 26.7952 16.9481 26.6512C17.479 26.106 17.9582 25.4614 18.3756 24.7476ZM19.0902 25.5C18.8754 25.8485 18.6451 26.1831 18.3999 26.5H19C19.722 26.5 20.5037 26.1897 21.2639 25.5H19.0902Z" fill="white"/>
</svg>
