<svg width="32" height="32" viewBox="0 0 32 32" fill="none" xmlns="http://www.w3.org/2000/svg">
<path fill-rule="evenodd" clip-rule="evenodd" d="M17.2689 4.24955C17.8078 4.37041 18.1467 4.90525 18.0258 5.44415C17.9282 5.87971 17.9289 6.33158 18.028 6.76681C18.1271 7.20205 18.3221 7.60968 18.5988 7.95999C18.8754 8.3103 19.2268 8.59446 19.6272 8.79174C20.0261 8.98829 20.4637 9.09369 20.9083 9.10033C21.4358 9.1025 21.9412 9.31296 22.3143 9.6861C22.6874 10.0592 22.8979 10.5646 22.9001 11.0921C22.9067 11.5367 23.0121 11.9743 23.2086 12.3732C23.4059 12.7736 23.6901 13.125 24.0404 13.4016C24.3907 13.6783 24.7983 13.8733 25.2336 13.9724C25.6688 14.0715 26.1207 14.0722 26.5562 13.9746L26.5651 13.9726C26.8561 13.9101 27.1574 13.9129 27.4472 13.9809C27.9849 14.107 28.3185 14.6451 28.1924 15.1828C28.0664 15.7205 27.5282 16.0542 26.9905 15.9281L26.9859 15.9279C26.2624 16.0889 25.5122 16.087 24.7895 15.9224C24.0641 15.7572 23.3847 15.4323 22.8009 14.9712C22.217 14.5101 21.7434 13.9245 21.4146 13.2572C21.0858 12.5898 20.91 11.8575 20.9002 11.1136L20.9 11.1003H20.8868C20.1429 11.0904 19.4106 10.9146 18.7432 10.5858C18.0759 10.257 17.4903 9.78339 17.0292 9.19954C16.5681 8.61569 16.2431 7.93631 16.0779 7.21091C15.9128 6.48552 15.9115 5.73241 16.0743 5.00648C16.1952 4.46758 16.73 4.12869 17.2689 4.24955Z" fill="white"/>
<path fill-rule="evenodd" clip-rule="evenodd" d="M16.0613 5.00014C13.8704 4.9892 11.726 5.63276 9.90318 6.84843C8.07808 8.06559 6.65859 9.80066 5.82711 11.8307C4.99562 13.8608 4.79012 16.0931 5.23701 18.2408C5.68389 20.3885 6.76275 22.3536 8.33496 23.8835C12.6181 28.0521 19.5424 28.0062 23.768 23.7806L23.7701 23.7785C24.8034 22.7513 25.6213 21.5283 26.1759 20.1811C26.7304 18.8343 27.0106 17.3904 27.0001 15.934L27.0001 15.9325L28.0001 15.9252L27.0002 15.9399L26.9989 15.9346L26.9955 15.9303L26.9905 15.9281C26.4528 15.802 26.1192 15.2638 26.2453 14.7261C26.3713 14.1884 26.9095 13.8548 27.4472 13.9809C27.737 14.0489 28.0081 14.1801 28.2409 14.3655C28.4738 14.5509 28.6627 14.7856 28.794 15.0527C28.9252 15.3199 28.9956 15.6128 29 15.9105L29.0001 15.9179C29.0127 17.6409 28.6813 19.3491 28.0253 20.9424C27.3696 22.5353 26.4026 23.9813 25.1811 25.1959C20.1816 30.1942 12.0066 30.2478 6.9401 25.3168C5.08207 23.5088 3.80708 21.1864 3.27895 18.6482C2.75081 16.11 2.99367 13.4718 3.97634 11.0727C4.959 8.6735 6.63657 6.62297 8.79351 5.1845C10.9505 3.74604 13.4882 2.98537 16.0808 3.00021L16.0898 3.00026C16.3874 3.00465 16.6804 3.07505 16.9475 3.20629C17.2147 3.33754 17.4494 3.52642 17.6348 3.75931C17.8201 3.9922 17.9515 4.26331 18.0195 4.55311C18.0874 4.8429 18.0903 5.14417 18.0278 5.43518C17.9118 5.97515 17.3801 6.31887 16.8401 6.2029C16.3001 6.08693 15.9564 5.55518 16.0724 5.01521L16.0723 5.00973L16.0699 5.0048L16.0656 5.00137L16.0613 5.00014Z" fill="white"/>
<path d="M17.0001 17C17.8285 17 18.5001 16.3284 18.5001 15.5C18.5001 14.6716 17.8285 14 17.0001 14C16.1717 14 15.5001 14.6716 15.5001 15.5C15.5001 16.3284 16.1717 17 17.0001 17Z" fill="white"/>
<path d="M12.0001 13.5C12.0001 14.3284 11.3285 15 10.5001 15C9.6717 15 9.00012 14.3284 9.00012 13.5C9.00012 12.6716 9.6717 12 10.5001 12C11.3285 12 12.0001 12.6716 12.0001 13.5Z" fill="white"/>
<path d="M13.0001 20.5C13.0001 21.3284 12.3285 22 11.5001 22C10.6717 22 10.0001 21.3284 10.0001 20.5C10.0001 19.6716 10.6717 19 11.5001 19C12.3285 19 13.0001 19.6716 13.0001 20.5Z" fill="white"/>
<path d="M21.0001 21.5C21.0001 22.3284 20.3285 23 19.5001 23C18.6717 23 18.0001 22.3284 18.0001 21.5C18.0001 20.6716 18.6717 20 19.5001 20C20.3285 20 21.0001 20.6716 21.0001 21.5Z" fill="white"/>
<path fill-rule="evenodd" clip-rule="evenodd" d="M8.5161 4.76852C10.756 3.27474 13.3914 2.48481 16.0837 2.50022L16.0972 2.5003C16.4688 2.50578 16.8345 2.59369 17.168 2.75753C17.5015 2.92138 17.7946 3.15718 18.026 3.44794C18.2574 3.73869 18.4214 4.07716 18.5063 4.43895C18.5897 4.79448 18.5945 5.16382 18.5206 5.52127C18.5184 5.53204 18.5161 5.5428 18.5137 5.55357C18.4323 5.91653 18.4329 6.29309 18.5155 6.65579C18.5981 7.01849 18.7606 7.35818 18.9912 7.6501C19.2217 7.94203 19.5145 8.17882 19.8482 8.34323C20.18 8.5067 20.5439 8.59451 20.9136 8.60035C21.5718 8.60391 22.2022 8.86689 22.6678 9.33255C23.1335 9.7982 23.3965 10.4286 23.4 11.0868C23.4059 11.4565 23.4937 11.8204 23.6572 12.1522C23.8216 12.4859 24.0584 12.7787 24.3503 13.0092C24.6422 13.2398 24.9819 13.4023 25.3446 13.4849C25.7073 13.5675 26.0839 13.5681 26.4468 13.4867L26.4601 13.4837C26.8235 13.4057 27.1996 13.4093 27.5613 13.4941C27.923 13.5789 28.2615 13.7428 28.5523 13.9743C28.8431 14.2057 29.0789 14.4987 29.2427 14.8323C29.4066 15.1658 29.4944 15.5315 29.4999 15.9031L29.5001 15.9142C29.5131 17.7038 29.1689 19.4779 28.4877 21.1328C27.8067 22.7868 26.8027 24.2885 25.5343 25.5498C20.3413 30.7413 11.8537 30.7967 6.5914 25.6752C4.6619 23.7976 3.33787 21.3859 2.78943 18.7501C2.24098 16.1142 2.49319 13.3746 3.51364 10.8831C4.5341 8.39172 6.2762 6.26231 8.5161 4.76852ZM25.7757 14.5451C25.5565 14.5373 25.3378 14.5089 25.1226 14.4599C24.6148 14.3443 24.1392 14.1168 23.7305 13.794C23.3218 13.4712 22.9903 13.0613 22.7601 12.5942C22.5308 12.1288 22.4079 11.6183 22.4001 11.0995L22.4001 11.0941C22.3984 10.6985 22.2406 10.3195 21.9607 10.0397C21.6809 9.7598 21.3018 9.60195 20.9062 9.60033L20.9008 9.60031C20.3821 9.59255 19.8716 9.46956 19.4062 9.24026C18.9391 9.01009 18.5292 8.67857 18.2064 8.26988C17.8836 7.86118 17.6561 7.38561 17.5405 6.87784C17.5238 6.80464 17.5096 6.73103 17.4977 6.65714C17.2586 6.73209 16.9975 6.74811 16.7351 6.69175C16.6473 6.67289 16.5629 6.64669 16.4825 6.61394C16.5012 6.77694 16.5289 6.93917 16.5655 7.09989C16.7141 7.75274 17.0066 8.36419 17.4216 8.88965C17.8366 9.41512 18.3636 9.84135 18.9642 10.1373C19.5639 10.4328 20.2219 10.591 20.8902 10.6003H20.9C21.1736 10.6003 21.3963 10.8202 21.3999 11.0937L21.4001 11.107C21.409 11.7765 21.5672 12.4355 21.8631 13.0362C22.159 13.6368 22.5853 14.1638 23.1107 14.5788C23.6362 14.9938 24.2477 15.2863 24.9005 15.4349C25.2101 15.5054 25.5252 15.5427 25.8407 15.5469C25.718 15.2621 25.6822 14.9369 25.7585 14.6119C25.7637 14.5894 25.7695 14.5671 25.7757 14.5451ZM26.4883 16.5157C25.8847 16.5806 25.2731 16.5454 24.6785 16.41C23.8805 16.2282 23.1332 15.8708 22.491 15.3636C21.8487 14.8564 21.3278 14.2122 20.9661 13.4781C20.6717 12.8807 20.4888 12.2359 20.4251 11.5753C19.7646 11.5116 19.1197 11.3287 18.5223 11.0343C17.7882 10.6726 17.144 10.1517 16.6368 9.50943C16.1296 8.86719 15.7721 8.11987 15.5904 7.32194C15.4551 6.72755 15.4198 6.11624 15.4846 5.51297C13.5945 5.60698 11.761 6.21044 10.1806 7.26441C8.43845 8.42624 7.08349 10.0824 6.2898 12.0202C5.49611 13.958 5.29995 16.0888 5.72652 18.1389C6.1531 20.1891 7.18291 22.0648 8.68366 23.5252C12.7709 27.5031 19.3823 27.4591 23.4144 23.427L23.4172 23.4243C24.4033 22.444 25.1843 21.2765 25.7136 19.9907C26.1692 18.8839 26.4308 17.7084 26.4883 16.5157ZM16.5608 5.12238C16.5041 5.39161 16.6758 5.65622 16.9451 5.71405C17.2151 5.77203 17.4809 5.60018 17.5389 5.33019C17.5395 5.32766 17.54 5.32513 17.5405 5.32259C17.5933 5.0573 17.4249 4.79696 17.1595 4.73743C16.89 4.677 16.6226 4.84645 16.5622 5.11589C16.5617 5.11806 16.5612 5.12022 16.5608 5.12238ZM16.8708 3.73566C16.3935 3.79312 15.9676 4.07893 15.7349 4.5032C13.5592 4.55456 11.4402 5.22242 9.62577 6.43245C7.7177 7.70493 6.23369 9.51887 5.36442 11.6412C4.49514 13.7635 4.28029 16.0973 4.74749 18.3427C5.21469 20.588 6.34259 22.6424 7.98626 24.2419C12.4653 28.6011 19.7025 28.5532 24.1215 24.1341L24.1226 24.1331C24.1225 24.1331 24.1226 24.133 24.1226 24.1331C25.203 23.0591 26.0583 21.7801 26.6383 20.3714C27.1542 19.1181 27.443 17.7845 27.4927 16.4327L28.0037 16.4252L28.0074 16.4251C28.2828 16.4211 28.5031 16.1951 28.5 15.9197L28.5001 15.9215C28.5001 15.9221 28.5001 15.9228 28.5001 15.9234C28.512 17.5792 28.1934 19.2208 27.563 20.7521C26.9325 22.2835 26.0029 23.6737 24.8286 24.8413L24.8276 24.8423C20.0215 29.6472 12.1594 29.6989 7.28883 24.9585C5.50226 23.22 4.27628 20.9869 3.76846 18.5464C3.26064 16.1058 3.49416 13.569 4.43903 11.2622C5.3839 8.95529 6.99695 6.98362 9.07093 5.60048C11.1449 4.21735 13.5851 3.48593 16.0779 3.50021L16.0845 3.50024C16.3074 3.50384 16.5269 3.55671 16.7271 3.65506C16.7765 3.67935 16.8245 3.70627 16.8708 3.73566ZM28.4764 15.7729C28.4911 15.8186 28.4993 15.8673 28.5 15.9178C28.4992 15.8628 28.4954 15.8081 28.4886 15.7538C28.4846 15.7602 28.4805 15.7665 28.4764 15.7729ZM27.3744 15.4298C27.5346 15.3772 27.6643 15.2448 27.7057 15.0686C27.7687 14.7998 27.6019 14.5307 27.333 14.4677C27.0641 14.4046 26.7951 14.5715 26.732 14.8402C26.6717 15.0975 26.8219 15.355 27.0705 15.432L27.3744 15.4298ZM10.5001 12.5C9.94784 12.5 9.50012 12.9477 9.50012 13.5C9.50012 14.0523 9.94784 14.5 10.5001 14.5C11.0524 14.5 11.5001 14.0523 11.5001 13.5C11.5001 12.9477 11.0524 12.5 10.5001 12.5ZM8.50012 13.5C8.50012 12.3954 9.39555 11.5 10.5001 11.5C11.6047 11.5 12.5001 12.3954 12.5001 13.5C12.5001 14.6046 11.6047 15.5 10.5001 15.5C9.39555 15.5 8.50012 14.6046 8.50012 13.5ZM17.0001 14.5C16.4478 14.5 16.0001 14.9477 16.0001 15.5C16.0001 16.0523 16.4478 16.5 17.0001 16.5C17.5524 16.5 18.0001 16.0523 18.0001 15.5C18.0001 14.9477 17.5524 14.5 17.0001 14.5ZM15.0001 15.5C15.0001 14.3954 15.8956 13.5 17.0001 13.5C18.1047 13.5 19.0001 14.3954 19.0001 15.5C19.0001 16.6046 18.1047 17.5 17.0001 17.5C15.8956 17.5 15.0001 16.6046 15.0001 15.5ZM11.5001 19.5C10.9478 19.5 10.5001 19.9477 10.5001 20.5C10.5001 21.0523 10.9478 21.5 11.5001 21.5C12.0524 21.5 12.5001 21.0523 12.5001 20.5C12.5001 19.9477 12.0524 19.5 11.5001 19.5ZM9.50012 20.5C9.50012 19.3954 10.3956 18.5 11.5001 18.5C12.6047 18.5 13.5001 19.3954 13.5001 20.5C13.5001 21.6046 12.6047 22.5 11.5001 22.5C10.3956 22.5 9.50012 21.6046 9.50012 20.5ZM19.5001 20.5C18.9478 20.5 18.5001 20.9477 18.5001 21.5C18.5001 22.0523 18.9478 22.5 19.5001 22.5C20.0524 22.5 20.5001 22.0523 20.5001 21.5C20.5001 20.9477 20.0524 20.5 19.5001 20.5ZM17.5001 21.5C17.5001 20.3954 18.3956 19.5 19.5001 19.5C20.6047 19.5 21.5001 20.3954 21.5001 21.5C21.5001 22.6046 20.6047 23.5 19.5001 23.5C18.3956 23.5 17.5001 22.6046 17.5001 21.5Z" fill="white"/>
</svg>
