<svg width="32" height="32" viewBox="0 0 32 32" fill="none" xmlns="http://www.w3.org/2000/svg">
<path d="M14.7351 12.2053C15.5315 11.9398 16.3913 11.9316 17.1927 12.1819C17.994 12.4323 18.6963 12.9284 19.2 13.6C19.5314 14.0418 20.1582 14.1314 20.6 13.8C21.0418 13.4686 21.1314 12.8418 20.8 12.4C20.0444 11.3926 18.991 10.6484 17.789 10.2729C16.587 9.89744 15.2973 9.90968 14.1026 10.3079C12.908 10.7061 11.8689 11.4701 11.1325 12.4917C10.3962 13.5133 10 14.7407 10 16C10 17.2593 10.3962 18.4867 11.1325 19.5083C11.8689 20.5299 12.908 21.2939 14.1026 21.6921C15.2973 22.0903 16.587 22.1026 17.789 21.7271C18.991 21.3516 20.0444 20.6074 20.8 19.6C21.1314 19.1582 21.0418 18.5314 20.6 18.2C20.1582 17.8686 19.5314 17.9582 19.2 18.4C18.6963 19.0716 17.994 19.5677 17.1927 19.8181C16.3913 20.0684 15.5315 20.0602 14.7351 19.7947C13.9386 19.5293 13.2459 19.0199 12.755 18.3388C12.2641 17.6578 12 16.8395 12 16C12 15.1605 12.2641 14.3422 12.755 13.6612C13.2459 12.9801 13.9386 12.4707 14.7351 12.2053Z" fill="white"/>
<path fill-rule="evenodd" clip-rule="evenodd" d="M16 3C8.8203 3 3 8.8203 3 16C3 23.1797 8.8203 29 16 29C23.1797 29 29 23.1797 29 16C29 8.8203 23.1797 3 16 3ZM5 16C5 9.92487 9.92487 5 16 5C22.0751 5 27 9.92487 27 16C27 22.0751 22.0751 27 16 27C9.92487 27 5 22.0751 5 16Z" fill="white"/>
<path fill-rule="evenodd" clip-rule="evenodd" d="M2.5 16C2.5 8.54416 8.54416 2.5 16 2.5C23.4558 2.5 29.5 8.54416 29.5 16C29.5 23.4558 23.4558 29.5 16 29.5C8.54416 29.5 2.5 23.4558 2.5 16ZM16 3.5C9.09644 3.5 3.5 9.09644 3.5 16C3.5 22.9036 9.09644 28.5 16 28.5C22.9036 28.5 28.5 22.9036 28.5 16C28.5 9.09644 22.9036 3.5 16 3.5ZM16 5.5C10.201 5.5 5.5 10.201 5.5 16C5.5 21.799 10.201 26.5 16 26.5C21.799 26.5 26.5 21.799 26.5 16C26.5 10.201 21.799 5.5 16 5.5ZM4.5 16C4.5 9.64873 9.64873 4.5 16 4.5C22.3513 4.5 27.5 9.64873 27.5 16C27.5 22.3513 22.3513 27.5 16 27.5C9.64873 27.5 4.5 22.3513 4.5 16ZM13.9445 9.83356C15.2387 9.40215 16.6359 9.38889 17.9381 9.79566C19.2403 10.2024 20.3815 11.0086 21.2 12.1C21.6971 12.7627 21.5627 13.7029 20.9 14.2C20.2373 14.6971 19.2971 14.5627 18.8 13.9C18.3592 13.3123 17.7448 12.8782 17.0436 12.6592C16.3424 12.4402 15.5901 12.4473 14.8932 12.6796C14.1963 12.9119 13.5902 13.3576 13.1607 13.9535C12.7311 14.5494 12.5 15.2654 12.5 16C12.5 16.7346 12.7311 17.4506 13.1607 18.0465C13.5902 18.6424 14.1963 19.0881 14.8932 19.3204C15.5901 19.5527 16.3424 19.5598 17.0436 19.3408C17.7448 19.1218 18.3592 18.6877 18.8 18.1C19.2971 17.4373 20.2373 17.3029 20.9 17.8C21.5627 18.2971 21.6971 19.2373 21.2 19.9C20.3815 20.9914 19.2403 21.7976 17.9381 22.2043C16.6359 22.6111 15.2387 22.5979 13.9445 22.1664C12.6503 21.735 11.5246 20.9073 10.7269 19.8006C9.92924 18.6939 9.5 17.3642 9.5 16C9.5 14.6358 9.92924 13.3061 10.7269 12.1994C11.5246 11.0927 12.6503 10.265 13.9445 9.83356ZM17.6399 10.7502C16.5381 10.406 15.3559 10.4172 14.2607 10.7822C13.1656 11.1473 12.2131 11.8476 11.5382 12.7841C10.8632 13.7206 10.5 14.8456 10.5 16C10.5 17.1544 10.8632 18.2794 11.5382 19.2159C12.2131 20.1524 13.1656 20.8527 14.2607 21.2178C15.3559 21.5828 16.5381 21.594 17.6399 21.2498C18.7418 20.9056 19.7074 20.2235 20.4 19.3C20.5657 19.0791 20.5209 18.7657 20.3 18.6C20.0791 18.4343 19.7657 18.4791 19.6 18.7C19.0333 19.4556 18.2433 20.0137 17.3418 20.2953C16.4402 20.5769 15.473 20.5677 14.577 20.2691C13.681 19.9704 12.9017 19.3974 12.3494 18.6312C11.7972 17.865 11.5 16.9445 11.5 16C11.5 15.0555 11.7972 14.135 12.3494 13.3688C12.9017 12.6026 13.681 12.0296 14.577 11.7309C15.473 11.4323 16.4402 11.4231 17.3418 11.7047C18.2433 11.9863 19.0333 12.5444 19.6 13.3C19.7657 13.5209 20.0791 13.5657 20.3 13.4C20.5209 13.2343 20.5657 12.9209 20.4 12.7C19.7074 11.7765 18.7418 11.0944 17.6399 10.7502Z" fill="white"/>
</svg>
