<svg width="32" height="32" viewBox="0 0 32 32" fill="none" xmlns="http://www.w3.org/2000/svg">
<path fill-rule="evenodd" clip-rule="evenodd" d="M12.5 11.5C11.9477 11.5 11.5 11.9477 11.5 12.5V19.5C11.5 20.0523 11.9477 20.5 12.5 20.5H19.5C20.0523 20.5 20.5 20.0523 20.5 19.5V12.5C20.5 11.9477 20.0523 11.5 19.5 11.5H12.5ZM13.5 18.5V13.5H18.5V18.5H13.5Z" fill="white"/>
<path fill-rule="evenodd" clip-rule="evenodd" d="M19 2C19.5523 2 20 2.44772 20 3V5H25C26.1046 5 27 5.89543 27 7V12H29C29.5523 12 30 12.4477 30 13C30 13.5523 29.5523 14 29 14H27V18H29C29.5523 18 30 18.4477 30 19C30 19.5523 29.5523 20 29 20H27V25C27 26.1046 26.1046 27 25 27H20V29C20 29.5523 19.5523 30 19 30C18.4477 30 18 29.5523 18 29V27H14V29C14 29.5523 13.5523 30 13 30C12.4477 30 12 29.5523 12 29V27H7C5.89543 27 5 26.1046 5 25V20H3C2.44772 20 2 19.5523 2 19C2 18.4477 2.44772 18 3 18H5V14H3C2.44772 14 2 13.5523 2 13C2 12.4477 2.44772 12 3 12H5V7C5 5.89543 5.89543 5 7 5H12V3C12 2.44772 12.4477 2 13 2C13.5523 2 14 2.44772 14 3V5H18V3C18 2.44772 18.4477 2 19 2ZM7 7V25H25V7H7Z" fill="white"/>
<path fill-rule="evenodd" clip-rule="evenodd" d="M13 2.5C12.7239 2.5 12.5 2.72386 12.5 3V5C12.5 5.27614 12.2761 5.5 12 5.5H7C6.17157 5.5 5.5 6.17157 5.5 7V12C5.5 12.2761 5.27614 12.5 5 12.5H3C2.72386 12.5 2.5 12.7239 2.5 13C2.5 13.2761 2.72386 13.5 3 13.5H5C5.27614 13.5 5.5 13.7239 5.5 14V18C5.5 18.2761 5.27614 18.5 5 18.5H3C2.72386 18.5 2.5 18.7239 2.5 19C2.5 19.2761 2.72386 19.5 3 19.5H5C5.27614 19.5 5.5 19.7239 5.5 20V25C5.5 25.8284 6.17157 26.5 7 26.5H12C12.2761 26.5 12.5 26.7239 12.5 27V29C12.5 29.2761 12.7239 29.5 13 29.5C13.2761 29.5 13.5 29.2761 13.5 29V27C13.5 26.7239 13.7239 26.5 14 26.5H18C18.2761 26.5 18.5 26.7239 18.5 27V29C18.5 29.2761 18.7239 29.5 19 29.5C19.2761 29.5 19.5 29.2761 19.5 29V27C19.5 26.7239 19.7239 26.5 20 26.5H25C25.8284 26.5 26.5 25.8284 26.5 25V20C26.5 19.7239 26.7239 19.5 27 19.5H29C29.2761 19.5 29.5 19.2761 29.5 19C29.5 18.7239 29.2761 18.5 29 18.5H27C26.7239 18.5 26.5 18.2761 26.5 18V14C26.5 13.7239 26.7239 13.5 27 13.5H29C29.2761 13.5 29.5 13.2761 29.5 13C29.5 12.7239 29.2761 12.5 29 12.5H27C26.7239 12.5 26.5 12.2761 26.5 12V7C26.5 6.17157 25.8284 5.5 25 5.5H20C19.7239 5.5 19.5 5.27614 19.5 5V3C19.5 2.72386 19.2761 2.5 19 2.5C18.7239 2.5 18.5 2.72386 18.5 3V5C18.5 5.27614 18.2761 5.5 18 5.5H14C13.7239 5.5 13.5 5.27614 13.5 5V3C13.5 2.72386 13.2761 2.5 13 2.5ZM11.5 3C11.5 2.17157 12.1716 1.5 13 1.5C13.8284 1.5 14.5 2.17157 14.5 3V4.5H17.5V3C17.5 2.17157 18.1716 1.5 19 1.5C19.8284 1.5 20.5 2.17157 20.5 3V4.5H25C26.3807 4.5 27.5 5.61929 27.5 7V11.5H29C29.8284 11.5 30.5 12.1716 30.5 13C30.5 13.8284 29.8284 14.5 29 14.5H27.5V17.5H29C29.8284 17.5 30.5 18.1716 30.5 19C30.5 19.8284 29.8284 20.5 29 20.5H27.5V25C27.5 26.3807 26.3807 27.5 25 27.5H20.5V29C20.5 29.8284 19.8284 30.5 19 30.5C18.1716 30.5 17.5 29.8284 17.5 29V27.5H14.5V29C14.5 29.8284 13.8284 30.5 13 30.5C12.1716 30.5 11.5 29.8284 11.5 29V27.5H7C5.61929 27.5 4.5 26.3807 4.5 25V20.5H3C2.17157 20.5 1.5 19.8284 1.5 19C1.5 18.1716 2.17157 17.5 3 17.5H4.5V14.5H3C2.17157 14.5 1.5 13.8284 1.5 13C1.5 12.1716 2.17157 11.5 3 11.5H4.5V7C4.5 5.61929 5.61929 4.5 7 4.5H11.5V3ZM6.5 7C6.5 6.72386 6.72386 6.5 7 6.5H25C25.2761 6.5 25.5 6.72386 25.5 7V25C25.5 25.2761 25.2761 25.5 25 25.5H7C6.72386 25.5 6.5 25.2761 6.5 25V7ZM7.5 7.5V24.5H24.5V7.5H7.5ZM11 12.5C11 11.6716 11.6716 11 12.5 11H19.5C20.3284 11 21 11.6716 21 12.5V19.5C21 20.3284 20.3284 21 19.5 21H12.5C11.6716 21 11 20.3284 11 19.5V12.5ZM12.5 12C12.2239 12 12 12.2239 12 12.5V19.5C12 19.7761 12.2239 20 12.5 20H19.5C19.7761 20 20 19.7761 20 19.5V12.5C20 12.2239 19.7761 12 19.5 12H12.5ZM13 13.5C13 13.2239 13.2239 13 13.5 13H18.5C18.7761 13 19 13.2239 19 13.5V18.5C19 18.7761 18.7761 19 18.5 19H13.5C13.2239 19 13 18.7761 13 18.5V13.5ZM14 14V18H18V14H14Z" fill="white"/>
</svg>
