<svg width="32" height="32" viewBox="0 0 32 32" fill="none" xmlns="http://www.w3.org/2000/svg">
<path d="M21 20C20.4477 20 20 20.4477 20 21C20 21.5523 20.4477 22 21 22H25C25.5523 22 26 21.5523 26 21C26 20.4477 25.5523 20 25 20H21Z" fill="white"/>
<path d="M14 21C14 20.4477 14.4477 20 15 20H17C17.5523 20 18 20.4477 18 21C18 21.5523 17.5523 22 17 22H15C14.4477 22 14 21.5523 14 21Z" fill="white"/>
<path fill-rule="evenodd" clip-rule="evenodd" d="M4 6C2.89543 6 2 6.89543 2 8V24C2 25.1046 2.89543 26 4 26H28C29.1046 26 30 25.1046 30 24V8C30 6.89543 29.1046 6 28 6H4ZM4 8H28V11H4V8ZM4 15V24H28V15H4Z" fill="white"/>
<path fill-rule="evenodd" clip-rule="evenodd" d="M1.5 8C1.5 6.61929 2.61929 5.5 4 5.5H28C29.3807 5.5 30.5 6.61929 30.5 8V24C30.5 25.3807 29.3807 26.5 28 26.5H4C2.61929 26.5 1.5 25.3807 1.5 24V8ZM4 6.5C3.17157 6.5 2.5 7.17157 2.5 8V24C2.5 24.8284 3.17157 25.5 4 25.5H28C28.8284 25.5 29.5 24.8284 29.5 24V8C29.5 7.17157 28.8284 6.5 28 6.5H4ZM3.5 7.5H28.5V11.5H3.5V7.5ZM4.5 8.5V10.5H27.5V8.5H4.5ZM3.5 14.5H28.5V24.5H3.5V14.5ZM4.5 15.5V23.5H27.5V15.5H4.5ZM15 20.5C14.7239 20.5 14.5 20.7239 14.5 21C14.5 21.2761 14.7239 21.5 15 21.5H17C17.2761 21.5 17.5 21.2761 17.5 21C17.5 20.7239 17.2761 20.5 17 20.5H15ZM13.5 21C13.5 20.1716 14.1716 19.5 15 19.5H17C17.8284 19.5 18.5 20.1716 18.5 21C18.5 21.8284 17.8284 22.5 17 22.5H15C14.1716 22.5 13.5 21.8284 13.5 21ZM19.5 21C19.5 20.1716 20.1716 19.5 21 19.5H25C25.8284 19.5 26.5 20.1716 26.5 21C26.5 21.8284 25.8284 22.5 25 22.5H21C20.1716 22.5 19.5 21.8284 19.5 21ZM21 20.5C20.7239 20.5 20.5 20.7239 20.5 21C20.5 21.2761 20.7239 21.5 21 21.5H25C25.2761 21.5 25.5 21.2761 25.5 21C25.5 20.7239 25.2761 20.5 25 20.5H21Z" fill="white"/>
</svg>
