<svg width="32" height="33" viewBox="0 0 32 33" fill="none" xmlns="http://www.w3.org/2000/svg">
<path d="M9 3.5C9 2.94772 8.55228 2.5 8 2.5C7.44772 2.5 7 2.94772 7 3.5V7.5H3C2.44772 7.5 2 7.94772 2 8.5C2 9.05228 2.44772 9.5 3 9.5H7V24.5C7 25.0523 7.44772 25.5 8 25.5H23V29.5C23 30.0523 23.4477 30.5 24 30.5C24.5523 30.5 25 30.0523 25 29.5V25.5H29C29.5523 25.5 30 25.0523 30 24.5C30 23.9477 29.5523 23.5 29 23.5H9V3.5Z" fill="white"/>
<path d="M11 8.5C11 7.94772 11.4477 7.5 12 7.5H24C24.5523 7.5 25 7.94772 25 8.5V20.5C25 21.0523 24.5523 21.5 24 21.5C23.4477 21.5 23 21.0523 23 20.5V9.5H12C11.4477 9.5 11 9.05228 11 8.5Z" fill="white"/>
<path fill-rule="evenodd" clip-rule="evenodd" d="M6.5 3.5C6.5 2.67157 7.17157 2 8 2C8.82843 2 9.5 2.67157 9.5 3.5V23H29C29.8284 23 30.5 23.6716 30.5 24.5C30.5 25.3284 29.8284 26 29 26H25.5V29.5C25.5 30.3284 24.8284 31 24 31C23.1716 31 22.5 30.3284 22.5 29.5V26H8C7.17157 26 6.5 25.3284 6.5 24.5V10H3C2.17157 10 1.5 9.32843 1.5 8.5C1.5 7.67157 2.17157 7 3 7H6.5V3.5ZM8 3C7.72386 3 7.5 3.22386 7.5 3.5V7.5C7.5 7.77614 7.27614 8 7 8H3C2.72386 8 2.5 8.22386 2.5 8.5C2.5 8.77614 2.72386 9 3 9H7C7.27614 9 7.5 9.22386 7.5 9.5V24.5C7.5 24.7761 7.72386 25 8 25H23C23.2761 25 23.5 25.2239 23.5 25.5V29.5C23.5 29.7761 23.7239 30 24 30C24.2761 30 24.5 29.7761 24.5 29.5V25.5C24.5 25.2239 24.7239 25 25 25H29C29.2761 25 29.5 24.7761 29.5 24.5C29.5 24.2239 29.2761 24 29 24H9C8.72386 24 8.5 23.7761 8.5 23.5V3.5C8.5 3.22386 8.27614 3 8 3ZM12 8C11.7239 8 11.5 8.22386 11.5 8.5C11.5 8.77614 11.7239 9 12 9H23C23.2761 9 23.5 9.22386 23.5 9.5V20.5C23.5 20.7761 23.7239 21 24 21C24.2761 21 24.5 20.7761 24.5 20.5V8.5C24.5 8.22386 24.2761 8 24 8H12ZM10.5 8.5C10.5 7.67157 11.1716 7 12 7H24C24.8284 7 25.5 7.67157 25.5 8.5V20.5C25.5 21.3284 24.8284 22 24 22C23.1716 22 22.5 21.3284 22.5 20.5V10H12C11.1716 10 10.5 9.32843 10.5 8.5Z" fill="white"/>
</svg>
