<svg width="32" height="33" viewBox="0 0 32 33" fill="none" xmlns="http://www.w3.org/2000/svg">
<path fill-rule="evenodd" clip-rule="evenodd" d="M15.0182 2.40586C15.317 2.23464 15.6555 2.14453 16 2.14453C16.3445 2.14453 16.683 2.23464 16.9818 2.40586L27.9813 8.59308C28.2471 8.74405 28.4745 8.95326 28.6468 9.20428C28.6779 9.24369 28.7064 9.28595 28.732 9.33094C28.7513 9.36497 28.7685 9.39966 28.7834 9.43484C28.9239 9.71265 28.9983 10.0198 29 10.3323L29 10.3377L29 22.668C28.9981 23.0219 28.9029 23.369 28.7241 23.6743C28.5452 23.9797 28.2855 24.2345 27.9778 24.4092L16.9818 30.5945C16.6829 30.7657 16.3445 30.8558 16 30.8558C15.6555 30.8558 15.3171 30.7657 15.0182 30.5945L4.01869 24.4072C3.71097 24.2325 3.45478 23.9797 3.27593 23.6743C3.09709 23.369 3.00191 23.0219 3.00001 22.668L3 22.6627V10.3323C3.00168 10.0197 3.07616 9.71236 3.2168 9.43443C3.23067 9.40183 3.2464 9.36965 3.26404 9.33801C3.29058 9.2904 3.32043 9.24581 3.35314 9.20436C3.52543 8.9533 3.75283 8.74406 4.01869 8.59309L15.0182 2.40586ZM25.9642 9.75317L16 4.14829L6.04918 9.74561L16.1079 15.3524L25.9642 9.75317ZM5.00594 22.6679L5 11.4505L15.1075 17.0846L15.0131 28.2969L5.00594 22.6679ZM26.9937 22.6681L17.0132 28.2821L17.1076 17.0847L27 11.465L26.9937 22.6681Z" fill="white"/>
<path fill-rule="evenodd" clip-rule="evenodd" d="M16 2.64453C15.7427 2.64453 15.4899 2.71183 15.2668 2.8397L15.2633 2.84166L4.26559 9.02787C4.26531 9.02803 4.26587 9.02771 4.26559 9.02787C4.06615 9.1413 3.8947 9.29886 3.7654 9.48727C3.75911 9.49643 3.75253 9.50538 3.74564 9.5141C3.72935 9.53474 3.71431 9.55717 3.70078 9.58145C3.69178 9.59759 3.68383 9.61387 3.67688 9.63021C3.67256 9.64035 3.66791 9.65035 3.66293 9.66019C3.55741 9.8687 3.50145 10.0992 3.5 10.3337V22.662L3.50001 22.6653C3.50144 22.9313 3.57296 23.1922 3.70737 23.4216C3.84162 23.6508 4.03385 23.8406 4.26473 23.972C4.26444 23.9718 4.26502 23.9721 4.26473 23.972L15.2668 30.1606C15.49 30.2885 15.7427 30.3558 16 30.3558C16.2573 30.3558 16.51 30.2885 16.7332 30.1606L16.7366 30.1587L27.7309 23.9744C27.7306 23.9746 27.7311 23.9743 27.7309 23.9744C27.9627 23.8426 28.1589 23.65 28.2926 23.4216C28.4268 23.1925 28.4983 22.9321 28.5 22.6667C28.5 22.6662 28.5 22.6658 28.5 22.6653L28.5 10.3377L28.5 10.3351C28.4987 10.1003 28.4428 9.86929 28.3372 9.66049C28.3322 9.65062 28.3276 9.64059 28.3232 9.63042C28.3158 9.6128 28.3071 9.59528 28.2973 9.57792C28.2842 9.55497 28.2698 9.5337 28.2543 9.51405C28.2474 9.50533 28.2408 9.49638 28.2346 9.48721C28.1053 9.29882 27.9347 9.14175 27.7352 9.02832C27.7349 9.02817 27.7355 9.02848 27.7352 9.02832L16.7332 2.83971C16.51 2.71184 16.2573 2.64453 16 2.64453ZM14.7714 1.97098C15.1455 1.75709 15.569 1.64453 16 1.64453C16.431 1.64453 16.8545 1.75709 17.2286 1.971C17.2292 1.97134 17.2298 1.97167 17.2304 1.97201L28.2282 8.1583C28.5555 8.34414 28.836 8.60068 29.05 8.90826C29.0925 8.96345 29.1316 9.02209 29.1667 9.08396C29.1926 9.12955 29.216 9.17608 29.2367 9.22334C29.4075 9.56639 29.4979 9.94471 29.5 10.3294C29.5 10.3294 29.5 10.3295 29.5 10.3294L29.5 10.3377L29.5 22.668L29.5 22.6707C29.4976 23.1125 29.3788 23.5458 29.1555 23.927C28.9317 24.3091 28.6079 24.6264 28.2247 24.844L28.2229 24.845L17.2303 31.0283C17.2297 31.0287 17.2291 31.029 17.2286 31.0293C16.8545 31.2432 16.431 31.3558 16 31.3558C15.569 31.3558 15.1455 31.2432 14.7714 31.0293C14.7709 31.029 14.7703 31.0287 14.7697 31.0283L3.77356 24.843L3.77178 24.842C3.38762 24.6238 3.06777 24.3083 2.84449 23.927C2.62121 23.5458 2.50239 23.1125 2.50002 22.6707L2.50002 22.6694L2.5 22.664L2.5 22.6627V10.3296C2.50207 9.9446 2.59259 9.56603 2.76358 9.22278C2.78265 9.17938 2.80388 9.13659 2.82731 9.09457C2.86395 9.02882 2.90499 8.96667 2.94991 8.90836C3.16389 8.60074 3.4445 8.34416 3.77178 8.1583L3.77355 8.1573L14.7714 1.97098ZM7.07257 9.74363L16.1055 14.7787L24.9482 9.75532L16 4.72196L7.07257 9.74363ZM15.7549 3.7125C15.9071 3.62688 16.0929 3.62688 16.2451 3.7125L26.2094 9.31738C26.3665 9.40576 26.4639 9.57185 26.4642 9.75211C26.4646 9.93237 26.3679 10.0989 26.2112 10.1879L16.3548 15.7872C16.2029 15.8735 16.017 15.8742 15.8644 15.7892L5.80574 10.1823C5.64766 10.0942 5.54953 9.92756 5.54918 9.74658C5.54883 9.5656 5.64631 9.39855 5.80405 9.30982L15.7549 3.7125ZM4.74663 11.0195C4.89951 10.9296 5.08855 10.9274 5.24344 11.0138L15.351 16.6478C15.5107 16.7369 15.6091 16.9059 15.6075 17.0888L15.513 28.3011C15.5115 28.478 15.4167 28.6409 15.2637 28.7295C15.1106 28.8182 14.9221 28.8194 14.7679 28.7327L4.76081 23.1037C4.60345 23.0151 4.50603 22.8487 4.50594 22.6681L4.5 11.4508C4.49991 11.2734 4.59375 11.1093 4.74663 11.0195ZM27.2516 11.0329C27.4055 11.1225 27.5001 11.2872 27.5 11.4652L27.4937 22.6684C27.4936 22.8489 27.3962 23.0154 27.2388 23.1039L17.2584 28.7179C17.1029 28.8053 16.9126 28.8033 16.759 28.7126C16.6054 28.6219 16.5118 28.4562 16.5133 28.2779L16.6076 17.0805C16.6091 16.9021 16.7055 16.738 16.8606 16.6499L26.753 11.0302C26.9078 10.9423 27.0978 10.9433 27.2516 11.0329ZM5.50045 12.3019L5.50578 22.3754L14.5202 27.446L14.6051 17.3769L5.50045 12.3019ZM17.6052 17.3771L17.5205 27.4231L26.4939 22.3756L26.4995 12.3243L17.6052 17.3771Z" fill="white"/>
</svg>
