<svg width="32" height="33" viewBox="0 0 32 33" fill="none" xmlns="http://www.w3.org/2000/svg">
<path fill-rule="evenodd" clip-rule="evenodd" d="M11.6868 11.6527C11.889 11.141 12 10.5835 12 10C12 7.51472 9.98528 5.5 7.5 5.5C5.01472 5.5 3 7.51472 3 10C3 12.4853 5.01472 14.5 7.5 14.5C8.68004 14.5 9.754 14.0458 10.5566 13.3027L15.229 16.5003L10.5568 19.6975C9.75417 18.9543 8.68014 18.5 7.5 18.5C5.01472 18.5 3 20.5147 3 23C3 25.4853 5.01472 27.5 7.5 27.5C9.98528 27.5 12 25.4853 12 23C12 22.4166 11.889 21.8592 11.6869 21.3476L16.9997 17.712L28.4352 25.5379C28.891 25.8499 29.5133 25.7332 29.8252 25.2775C30.1371 24.8217 30.0205 24.1993 29.5647 23.8874L17.5927 15.6944C17.5745 15.6809 17.5558 15.6682 17.5368 15.6561L11.6868 11.6527ZM7.5 7.5C6.11929 7.5 5 8.61929 5 10C5 11.3807 6.11929 12.5 7.5 12.5C8.33879 12.5 9.08109 12.0869 9.53458 11.4531C9.54339 11.4387 9.55261 11.4245 9.56223 11.4104C9.57203 11.3961 9.58213 11.3821 9.59252 11.3685C9.85017 10.9753 10 10.5052 10 10C10 8.61929 8.88071 7.5 7.5 7.5ZM7.5 20.5C6.11929 20.5 5 21.6193 5 23C5 24.3807 6.11929 25.5 7.5 25.5C8.88071 25.5 10 24.3807 10 23C10 22.4957 9.85068 22.0263 9.59384 21.6335C9.58297 21.6193 9.57243 21.6048 9.56222 21.5898C9.55216 21.5751 9.54254 21.5603 9.53337 21.5452C9.07977 20.9124 8.33804 20.5 7.5 20.5Z" fill="white"/>
<path d="M29.8254 7.72318C30.1372 8.17905 30.0204 8.80135 29.5645 9.11312L21.102 14.9006C20.6461 15.2124 20.0239 15.0956 19.7121 14.6397C19.4003 14.1838 19.5171 13.5615 19.973 13.2498L28.4355 7.46227C28.8914 7.1505 29.5137 7.26731 29.8254 7.72318Z" fill="white"/>
<path fill-rule="evenodd" clip-rule="evenodd" d="M2.5 10C2.5 7.23858 4.73858 5 7.5 5C10.2614 5 12.5 7.23858 12.5 10C12.5 10.5058 12.4247 10.9947 12.2846 11.4559L17.8129 15.2392C17.8361 15.2541 17.8589 15.2697 17.8814 15.2861L29.8471 23.4748C30.5308 23.9427 30.7057 24.8762 30.2379 25.5598C29.77 26.2435 28.8365 26.4184 28.1528 25.9506L16.9997 18.3179L12.2847 21.5444C12.4248 22.0054 12.5 22.4943 12.5 23C12.5 25.7614 10.2614 28 7.5 28C4.73858 28 2.5 25.7614 2.5 23C2.5 20.2386 4.73858 18 7.5 18C8.66607 18 9.73968 18.3997 10.59 19.0689L14.3437 16.5002L10.5898 13.9313C9.73949 14.6004 8.66597 15 7.5 15C4.73858 15 2.5 12.7614 2.5 10ZM7.5 6C5.29086 6 3.5 7.79086 3.5 10C3.5 12.2091 5.29086 14 7.5 14C8.54919 14 9.50307 13.5967 10.2169 12.9358C10.3881 12.7772 10.6463 12.7582 10.839 12.89L15.5114 16.0876C15.6476 16.1808 15.729 16.3352 15.729 16.5003C15.729 16.6653 15.6476 16.8197 15.5114 16.9129L10.8391 20.1102C10.6465 20.242 10.3883 20.223 10.217 20.0644C9.50322 19.4034 8.54928 19 7.5 19C5.29086 19 3.5 20.7909 3.5 23C3.5 25.2091 5.29086 27 7.5 27C9.70914 27 11.5 25.2091 11.5 23C11.5 22.4805 11.4012 21.9853 11.2219 21.5313C11.1362 21.3142 11.212 21.0668 11.4046 20.935L16.7173 17.2994C16.8876 17.1829 17.1118 17.1829 17.2821 17.2994L28.7176 25.1253C28.9455 25.2813 29.2567 25.223 29.4126 24.9951C29.5686 24.7672 29.5103 24.456 29.2824 24.3001L17.3103 16.107L17.2964 16.0971C17.2874 16.0904 17.2781 16.0841 17.2687 16.0781L17.2544 16.0687L11.4045 12.0653C11.2119 11.9335 11.1361 11.686 11.2218 11.4689C11.4012 11.0149 11.5 10.5196 11.5 10C11.5 7.79086 9.70914 6 7.5 6ZM29.4127 8.00544C29.2568 7.7775 28.9457 7.71909 28.7178 7.87498L20.2553 13.6625C20.0273 13.8184 19.9689 14.1295 20.1248 14.3574C20.2807 14.5854 20.5918 14.6438 20.8198 14.4879L29.2823 8.70041C29.5102 8.54452 29.5686 8.23337 29.4127 8.00544ZM28.1532 7.04955C28.8371 6.5819 29.7705 6.75712 30.2381 7.44093C30.7058 8.12474 30.5306 9.05818 29.8468 9.52583L21.3843 15.3133C20.7005 15.781 19.767 15.6058 19.2994 14.922C18.8317 14.2382 19.0069 13.3047 19.6907 12.8371L28.1532 7.04955ZM4.5 10C4.5 8.34315 5.84315 7 7.5 7C9.15685 7 10.5 8.34315 10.5 10C10.5 10.6055 10.3201 11.1705 10.0107 11.6426C10.0042 11.6524 9.99741 11.6621 9.99025 11.6715C9.98499 11.6784 9.97986 11.6855 9.97486 11.6928C9.96994 11.7 9.96526 11.7072 9.96081 11.7145C9.95463 11.7246 9.94809 11.7344 9.94122 11.744C9.39788 12.5034 8.50693 13 7.5 13C5.84315 13 4.5 11.6569 4.5 10ZM7.5 8C6.39543 8 5.5 8.89543 5.5 10C5.5 11.1046 6.39543 12 7.5 12C8.16527 12 8.7548 11.6757 9.11917 11.1743C9.12901 11.1587 9.13915 11.1433 9.1496 11.1281C9.16031 11.1124 9.17127 11.097 9.18248 11.0819C9.38339 10.7702 9.5 10.3995 9.5 10C9.5 8.89543 8.60457 8 7.5 8ZM4.5 23C4.5 21.3431 5.84315 20 7.5 20C8.50604 20 9.39631 20.4957 9.93977 21.254C9.94696 21.264 9.95377 21.2743 9.9602 21.2848C9.96483 21.2924 9.96971 21.2999 9.97485 21.3075M7.5 21C6.39543 21 5.5 21.8954 5.5 23C5.5 24.1046 6.39543 25 7.5 25C8.60457 25 9.5 24.1046 9.5 23C9.5 22.6014 9.38392 22.2315 9.18386 21.9203C9.17215 21.9045 9.16072 21.8885 9.14959 21.8722C9.13866 21.8562 9.12806 21.8401 9.11781 21.8238C8.75333 21.3235 8.16445 21 7.5 21ZM9.97485 21.3075C9.98008 21.3151 9.98544 21.3225 9.9909 21.3296C9.99841 21.3394 10.0055 21.3495 10.0123 21.3599C10.3207 21.8315 10.5 22.3956 10.5 23C10.5 24.6569 9.15685 26 7.5 26C5.84315 26 4.5 24.6569 4.5 23" fill="white"/>
</svg>
