<svg width="32" height="32" viewBox="0 0 32 32" fill="none" xmlns="http://www.w3.org/2000/svg">
<path fill-rule="evenodd" clip-rule="evenodd" d="M7.74297 4.87946C5.61684 6.03917 4 7.80565 4 10V22C4 24.1938 5.61696 25.9603 7.74297 27.1201C9.90691 28.3005 12.8281 29 16 29C19.1719 29 22.0931 28.3005 24.257 27.1201C26.383 25.9603 28 24.1938 28 22V10C28 7.80565 26.3832 6.03917 24.257 4.87946C22.0931 3.69913 19.1719 3 16 3C12.8281 3 9.90692 3.69913 7.74297 4.87946ZM8.70068 6.63525C6.8456 7.64712 6 8.88064 6 10C6 11.1194 6.8456 12.3529 8.70068 13.3647C10.5179 14.356 13.0968 15 16 15C18.9032 15 21.4821 14.356 23.2993 13.3647C25.1544 12.3529 26 11.1194 26 10C26 8.88064 25.1544 7.64712 23.2993 6.63525C21.4821 5.64402 18.9032 5 16 5C13.0968 5 10.5179 5.64402 8.70068 6.63525ZM26 19.92V22C26 23.1187 25.1545 24.3522 23.2992 25.3643C21.4819 26.3557 18.9031 27 16 27C13.0969 27 10.5181 26.3557 8.70078 25.3643C6.84554 24.3522 6 23.1187 6 22V19.92C6.51554 20.3712 7.10644 20.7728 7.74297 21.1201C9.90691 22.3005 12.8281 23 16 23C19.1719 23 22.0931 22.3005 24.257 21.1201C24.8936 20.7728 25.4845 20.3712 26 19.92ZM6 16C6 17.1187 6.84554 18.3522 8.70078 19.3643C10.5181 20.3557 13.0969 21 16 21C18.9031 21 21.4819 20.3557 23.2992 19.3643C25.1545 18.3522 26 17.1187 26 16V13.9205C25.4845 14.3717 24.8936 14.7733 24.257 15.1205C22.0931 16.3009 19.1719 17 16 17C12.8281 17 9.90692 16.3009 7.74297 15.1205C7.10642 14.7733 6.51552 14.3717 6 13.9205V16Z" fill="white" stroke="white" stroke-linecap="round" stroke-linejoin="round"/>
</svg>
