<svg width="34" height="33" viewBox="0 0 34 33" fill="none" xmlns="http://www.w3.org/2000/svg">
<path fill-rule="evenodd" clip-rule="evenodd" d="M12.9985 5.19342C12.6735 5.19095 12.3528 5.26773 12.0641 5.41711C11.7759 5.56623 11.5284 5.78322 11.3428 6.04934L11.3419 6.0507L5.47949 14.4221H2C1.44772 14.4221 1 14.8698 1 15.4221C1 15.9744 1.44772 16.4221 2 16.4221H32C32.5523 16.4221 33 15.9744 33 15.4221C33 14.8698 32.5523 14.4221 32 14.4221H28.5207L22.6583 6.0507L22.6574 6.04934C22.4718 5.78322 22.2242 5.56623 21.9361 5.41711C21.6474 5.26773 21.3267 5.19095 21.0017 5.19342C20.6767 5.19588 20.3572 5.27751 20.0709 5.43124C19.7845 5.58497 19.5399 5.80616 19.3583 6.07568L17.0046 9.61867L17.0001 9.62557L14.6456 6.08117L14.6419 6.0757C14.4602 5.80617 14.2157 5.58497 13.9293 5.43124C13.643 5.27751 13.3235 5.19588 12.9985 5.19342ZM26.079 14.4221L21.0169 7.19338L18.6724 10.7225C18.4909 10.9992 18.2436 11.2266 17.9525 11.3842C17.66 11.5426 17.3327 11.6256 17.0001 11.6256C16.6675 11.6256 16.3401 11.5426 16.0477 11.3842C15.7566 11.2266 15.5092 10.9992 15.3277 10.7225L12.9833 7.19338L12.9817 7.19565L7.92112 14.4221H26.079Z" fill="white"/>
<path fill-rule="evenodd" clip-rule="evenodd" d="M14.8885 21.9221C14.4338 19.9181 12.6416 18.4221 10.5 18.4221C8.01472 18.4221 6 20.4368 6 22.9221C6 25.4074 8.01472 27.4221 10.5 27.4221C12.6416 27.4221 14.4338 25.9261 14.8885 23.9221H19.1115C19.5662 25.9261 21.3584 27.4221 23.5 27.4221C25.9853 27.4221 28 25.4074 28 22.9221C28 20.4368 25.9853 18.4221 23.5 18.4221C21.3584 18.4221 19.5662 19.9181 19.1115 21.9221H14.8885ZM10.5 20.4221C9.11929 20.4221 8 21.5414 8 22.9221C8 24.3028 9.11929 25.4221 10.5 25.4221C11.8807 25.4221 13 24.3028 13 22.9221C13 21.5414 11.8807 20.4221 10.5 20.4221ZM21 22.9221C21 24.3028 22.1193 25.4221 23.5 25.4221C24.8807 25.4221 26 24.3028 26 22.9221C26 21.5414 24.8807 20.4221 23.5 20.4221C22.1193 20.4221 21 21.5414 21 22.9221Z" fill="white"/>
<path fill-rule="evenodd" clip-rule="evenodd" d="M11.8343 4.97305C12.1951 4.78633 12.596 4.69035 13.0022 4.69343C13.4085 4.69651 13.8079 4.79854 14.1658 4.99071C14.5238 5.18287 14.8295 5.45938 15.0565 5.79628L15.062 5.8045L17.0001 8.7219L18.9418 5.79901L18.9436 5.79627C19.1707 5.45934 19.4764 5.18286 19.8344 4.99071C20.1923 4.79855 20.5917 4.69651 20.9979 4.69343C21.4042 4.69035 21.8051 4.78633 22.1659 4.97305C22.5261 5.15945 22.8355 5.43068 23.0675 5.76334L28.781 13.9221H32C32.8284 13.9221 33.5 14.5937 33.5 15.4221C33.5 16.2505 32.8284 16.9221 32 16.9221H2C1.17157 16.9221 0.5 16.2505 0.5 15.4221C0.5 14.5937 1.17157 13.9221 2 13.9221H5.21922L10.9316 5.76483L10.9323 5.76389C11.1643 5.43123 11.4741 5.15945 11.8343 4.97305ZM17.4211 9.89534L17.4193 9.89808C17.3276 10.0392 17.171 10.1247 17.0026 10.1256C16.8343 10.1264 16.6768 10.0425 16.5836 9.90224L14.2309 6.36057L14.2291 6.35784L14.2272 6.35511M17.4211 9.89534L17.4238 9.89117L19.7729 6.3551C19.7732 6.35469 19.7735 6.35429 19.7738 6.35388C19.9099 6.15231 20.093 5.98685 20.3074 5.87177C20.5221 5.75647 20.7618 5.69525 21.0055 5.6934C21.2493 5.69156 21.4898 5.74914 21.7063 5.86117C21.9223 5.97298 22.1079 6.13565 22.2471 6.33515C22.2471 6.33509 22.2471 6.33521 22.2471 6.33515L22.248 6.33651L28.1111 14.7089C28.2047 14.8425 28.3576 14.9221 28.5207 14.9221H32C32.2761 14.9221 32.5 15.146 32.5 15.4221C32.5 15.6983 32.2761 15.9221 32 15.9221H2C1.72386 15.9221 1.5 15.6983 1.5 15.4221C1.5 15.146 1.72386 14.9221 2 14.9221H5.47949C5.64261 14.9221 5.79548 14.8425 5.88905 14.7089L11.7514 6.3375L11.7529 6.33534M12.9891 6.69341C13.1545 6.69534 13.3082 6.77894 13.3998 6.91671L15.7458 10.4483C15.882 10.6558 16.0675 10.8264 16.2858 10.9446C16.5051 11.0634 16.7506 11.1256 17.0001 11.1256C17.2495 11.1256 17.4951 11.0634 17.7144 10.9446C17.9327 10.8264 18.1182 10.6558 18.2544 10.4483L18.256 10.4458L20.6004 6.91671C20.6919 6.77903 20.8455 6.69545 21.0107 6.69342C21.176 6.69139 21.3316 6.77118 21.4264 6.90657L26.4886 14.1353C26.5956 14.288 26.6086 14.4876 26.5226 14.653C26.4365 14.8184 26.2655 14.9221 26.079 14.9221H7.92112C7.73467 14.9221 7.5637 14.8184 7.47761 14.653C7.39152 14.4876 7.40461 14.288 7.51156 14.1353L12.5718 6.90935L12.5734 6.90708C12.6681 6.77148 12.8237 6.69149 12.9891 6.69341ZM12.9724 8.08059L8.88168 13.9221H25.1185L21.0278 8.08059L19.0905 10.9967C19.0902 10.9972 19.0899 10.9976 19.0897 10.9981C18.8629 11.3434 18.554 11.6271 18.1906 11.8239C17.825 12.0219 17.4158 12.1256 17.0001 12.1256C16.5843 12.1256 16.1751 12.0219 15.8095 11.8239C15.4462 11.6271 15.1373 11.3433 14.9105 10.998C14.9102 10.9976 14.9099 10.9971 14.9096 10.9967L12.9724 8.08059ZM5.5 22.9221C5.5 20.1607 7.73858 17.9221 10.5 17.9221C12.7392 17.9221 14.6337 19.3937 15.271 21.4221H18.729C19.3663 19.3937 21.2608 17.9221 23.5 17.9221C26.2614 17.9221 28.5 20.1607 28.5 22.9221C28.5 25.6835 26.2614 27.9221 23.5 27.9221C21.2608 27.9221 19.3663 26.4505 18.729 24.4221H15.271C14.6337 26.4505 12.7392 27.9221 10.5 27.9221C7.73858 27.9221 5.5 25.6835 5.5 22.9221ZM10.5 18.9221C8.29086 18.9221 6.5 20.713 6.5 22.9221C6.5 25.1313 8.29086 26.9221 10.5 26.9221C12.403 26.9221 13.9967 25.5927 14.4009 23.8115C14.4526 23.5838 14.655 23.4221 14.8885 23.4221H19.1115C19.345 23.4221 19.5474 23.5838 19.5991 23.8115C20.0033 25.5927 21.597 26.9221 23.5 26.9221C25.7091 26.9221 27.5 25.1313 27.5 22.9221C27.5 20.713 25.7091 18.9221 23.5 18.9221C21.597 18.9221 20.0033 20.2515 19.5991 22.0328C19.5474 22.2605 19.345 22.4221 19.1115 22.4221H14.8885C14.655 22.4221 14.4526 22.2605 14.4009 22.0328C13.9967 20.2515 12.403 18.9221 10.5 18.9221ZM7.5 22.9221C7.5 21.2653 8.84315 19.9221 10.5 19.9221C12.1569 19.9221 13.5 21.2653 13.5 22.9221C13.5 24.579 12.1569 25.9221 10.5 25.9221C8.84315 25.9221 7.5 24.579 7.5 22.9221ZM10.5 20.9221C9.39543 20.9221 8.5 21.8175 8.5 22.9221C8.5 24.0267 9.39543 24.9221 10.5 24.9221C11.6046 24.9221 12.5 24.0267 12.5 22.9221C12.5 21.8175 11.6046 20.9221 10.5 20.9221ZM20.5 22.9221C20.5 21.2653 21.8431 19.9221 23.5 19.9221C25.1569 19.9221 26.5 21.2653 26.5 22.9221C26.5 24.579 25.1569 25.9221 23.5 25.9221C21.8431 25.9221 20.5 24.579 20.5 22.9221ZM23.5 20.9221C22.3954 20.9221 21.5 21.8175 21.5 22.9221C21.5 24.0267 22.3954 24.9221 23.5 24.9221C24.6046 24.9221 25.5 24.0267 25.5 22.9221C25.5 21.8175 24.6046 20.9221 23.5 20.9221Z" fill="white"/>
</svg>
