<svg width="32" height="33" viewBox="0 0 32 33" fill="none" xmlns="http://www.w3.org/2000/svg">
<path fill-rule="evenodd" clip-rule="evenodd" d="M20.2194 12.2802C20.6099 12.6707 20.6099 13.3039 20.2194 13.6944L14.5694 19.3444C14.1788 19.7349 13.5457 19.7349 13.1551 19.3444C12.7646 18.9539 12.7646 18.3207 13.1551 17.9302L18.8051 12.2802C19.1957 11.8897 19.8288 11.8897 20.2194 12.2802Z" fill="white"/>
<path fill-rule="evenodd" clip-rule="evenodd" d="M26.0122 4.02603C26.3527 3.92752 26.7135 3.92188 27.057 4.00975C27.4024 4.09811 27.7177 4.27777 27.9698 4.52988C28.2219 4.78199 28.4016 5.09729 28.49 5.44271C28.5778 5.78627 28.5722 6.14706 28.4737 6.48765L21.9144 29.7762L21.9132 29.7804C21.8043 30.1754 21.5767 30.5274 21.2611 30.7888C20.9444 31.0512 20.5546 31.2096 20.1446 31.2424C19.7347 31.2752 19.3246 31.1808 18.9703 30.9721C18.6185 30.7649 18.3386 30.4551 18.1681 30.0844L13.1087 19.391L2.41533 14.3316C2.04457 14.1611 1.73476 13.8812 1.52761 13.5294C1.31892 13.1751 1.22455 12.765 1.25735 12.3551C1.29014 11.9451 1.44851 11.5553 1.71087 11.2386C1.97228 10.9231 2.32427 10.6955 2.7192 10.5866L2.72353 10.5854L26.0122 4.02603ZM26.2873 4.98746L26.557 5.94531L26.5614 5.94736C26.5635 5.94792 26.5658 5.94788 26.568 5.94725L26.2873 4.98746ZM26.5463 5.9534L3.25102 12.5146L3.26493 12.521L13.9619 17.5821C14.383 17.7783 14.7214 18.1168 14.9176 18.5378L19.9787 29.2348L19.9852 29.2487L19.9872 29.2413L26.5463 5.9534Z" fill="white"/>
<path fill-rule="evenodd" clip-rule="evenodd" d="M25.875 3.5452C26.3007 3.42241 26.7516 3.41552 27.1809 3.52535C27.6132 3.63594 28.0078 3.86079 28.3234 4.17632C28.6389 4.49186 28.8638 4.88648 28.9744 5.3188C29.0842 5.74812 29.0773 6.19892 28.9545 6.6246C28.9543 6.62528 28.9541 6.62595 28.954 6.62662L22.3965 29.9087L22.3956 29.9117L22.3953 29.9129C22.2592 30.4066 21.9745 30.8471 21.5801 31.1739C21.1843 31.5018 20.6969 31.6998 20.1845 31.7408C19.6721 31.7818 19.1595 31.6638 18.7166 31.403C18.2776 31.1445 17.9282 30.7581 17.715 30.2958C17.7146 30.2949 17.7142 30.2941 17.7138 30.2933L12.7332 19.7665L2.20385 14.7847C1.74153 14.5714 1.35523 14.2221 1.09676 13.7832C0.835911 13.3402 0.717947 12.8276 0.75894 12.3152C0.799933 11.8028 0.997891 11.3155 1.32585 10.9196C1.65261 10.5252 2.0926 10.2407 2.58625 10.1045L2.59113 10.1032L25.8732 3.54573C25.8738 3.54555 25.8744 3.54537 25.875 3.5452ZM14.0115 20.1299L18.6224 29.8754C18.7503 30.1535 18.9602 30.3859 19.224 30.5413C19.4898 30.6978 19.7973 30.7686 20.1048 30.744C20.4122 30.7194 20.7046 30.6006 20.9421 30.4038C21.1788 30.2077 21.3495 29.9437 21.4312 29.6475L21.4322 29.6437L21.4331 29.6406L27.9924 6.3521L27.9934 6.34868C28.0671 6.09378 28.0713 5.82375 28.0056 5.56662C27.9394 5.3081 27.805 5.07212 27.6163 4.88343C27.4276 4.69474 27.1916 4.56029 26.9331 4.49415C26.676 4.42839 26.406 4.43261 26.1511 4.50634L26.1493 4.50687L26.1477 4.50731L2.85593 11.0675L2.85214 11.0686C2.55595 11.1502 2.29196 11.3209 2.0959 11.5576C1.89913 11.7951 1.78035 12.0875 1.75576 12.3949C1.73116 12.7024 1.80194 13.0099 1.95845 13.2757C2.11382 13.5395 2.34617 13.7495 2.62424 13.8774L2.62918 13.8796L12.3696 18.4882C12.4024 18.1582 12.5442 17.8371 12.7951 17.5832L3.05109 12.973L3.04067 12.9682C2.85086 12.8802 2.73593 12.6833 2.75261 12.4747C2.7693 12.2661 2.91408 12.09 3.11547 12.0333L25.9415 5.60429L25.8074 5.12782L25.806 5.12301C25.7314 4.85815 25.8848 4.58279 26.1493 4.50687C26.4138 4.43095 26.6899 4.583 26.7671 4.8471L26.7685 4.85191L27.0479 5.80689C27.0851 5.93417 27.0702 6.07103 27.0065 6.18735C27.0024 6.1949 26.9981 6.20233 26.9936 6.20962L20.4695 29.3732L20.4685 29.3769L20.4675 29.3806C20.4121 29.5831 20.2361 29.7294 20.027 29.747C19.8178 29.7645 19.6199 29.6496 19.5316 29.4591L19.5267 29.4486L19.5251 29.4452L14.9164 19.7044C14.6625 19.9553 14.3414 20.0971 14.0115 20.1299ZM15.6674 18.9535L19.866 27.8274L25.8232 6.67653L4.67225 12.6337L13.546 16.8322L18.4516 11.9266C19.0374 11.3409 19.9871 11.3409 20.5729 11.9266C21.1587 12.5124 21.1587 13.4622 20.5729 14.048L15.6674 18.9535ZM14.4879 17.3046L19.1587 12.6338C19.354 12.4385 19.6705 12.4385 19.8658 12.6338C20.0611 12.829 20.0611 13.1456 19.8658 13.3409L15.195 18.0116C15.0099 17.7303 14.7692 17.4897 14.4879 17.3046ZM13.7551 18.0374C14.0659 18.1835 14.3161 18.4336 14.4623 18.7444L14.2158 18.9909C14.0205 19.1861 13.704 19.1861 13.5087 18.9909C13.3134 18.7956 13.3134 18.479 13.5087 18.2838L13.7551 18.0374Z" fill="white"/>
</svg>
