<svg width="32" height="33" viewBox="0 0 32 33" fill="none" xmlns="http://www.w3.org/2000/svg">
<path d="M7.5 9.57812C8.32843 9.57812 9 8.90655 9 8.07812C9 7.2497 8.32843 6.57812 7.5 6.57812C6.67157 6.57812 6 7.2497 6 8.07812C6 8.90655 6.67157 9.57812 7.5 9.57812Z" fill="white"/>
<path d="M16 9.57812C16.8284 9.57812 17.5 8.90655 17.5 8.07812C17.5 7.2497 16.8284 6.57812 16 6.57812C15.1716 6.57812 14.5 7.2497 14.5 8.07812C14.5 8.90655 15.1716 9.57812 16 9.57812Z" fill="white"/>
<path d="M26 8.07812C26 8.90655 25.3284 9.57812 24.5 9.57812C23.6716 9.57812 23 8.90655 23 8.07812C23 7.2497 23.6716 6.57812 24.5 6.57812C25.3284 6.57812 26 7.2497 26 8.07812Z" fill="white"/>
<path d="M7.5 18.0781C8.32843 18.0781 9 17.4066 9 16.5781C9 15.7497 8.32843 15.0781 7.5 15.0781C6.67157 15.0781 6 15.7497 6 16.5781C6 17.4066 6.67157 18.0781 7.5 18.0781Z" fill="white"/>
<path d="M17.5 16.5781C17.5 17.4066 16.8284 18.0781 16 18.0781C15.1716 18.0781 14.5 17.4066 14.5 16.5781C14.5 15.7497 15.1716 15.0781 16 15.0781C16.8284 15.0781 17.5 15.7497 17.5 16.5781Z" fill="white"/>
<path d="M24.5 18.0781C25.3284 18.0781 26 17.4066 26 16.5781C26 15.7497 25.3284 15.0781 24.5 15.0781C23.6716 15.0781 23 15.7497 23 16.5781C23 17.4066 23.6716 18.0781 24.5 18.0781Z" fill="white"/>
<path d="M9 25.0781C9 25.9066 8.32843 26.5781 7.5 26.5781C6.67157 26.5781 6 25.9066 6 25.0781C6 24.2497 6.67157 23.5781 7.5 23.5781C8.32843 23.5781 9 24.2497 9 25.0781Z" fill="white"/>
<path d="M16 26.5781C16.8284 26.5781 17.5 25.9066 17.5 25.0781C17.5 24.2497 16.8284 23.5781 16 23.5781C15.1716 23.5781 14.5 24.2497 14.5 25.0781C14.5 25.9066 15.1716 26.5781 16 26.5781Z" fill="white"/>
<path d="M26 25.0781C26 25.9066 25.3284 26.5781 24.5 26.5781C23.6716 26.5781 23 25.9066 23 25.0781C23 24.2497 23.6716 23.5781 24.5 23.5781C25.3284 23.5781 26 24.2497 26 25.0781Z" fill="white"/>
<path fill-rule="evenodd" clip-rule="evenodd" d="M5.5 8.07812C5.5 6.97356 6.39543 6.07812 7.5 6.07812C8.60457 6.07812 9.5 6.97356 9.5 8.07812C9.5 9.18269 8.60457 10.0781 7.5 10.0781C6.39543 10.0781 5.5 9.18269 5.5 8.07812ZM7.5 7.07812C6.94772 7.07812 6.5 7.52584 6.5 8.07812C6.5 8.63041 6.94772 9.07812 7.5 9.07812C8.05228 9.07812 8.5 8.63041 8.5 8.07812C8.5 7.52584 8.05228 7.07812 7.5 7.07812ZM14 8.07812C14 6.97356 14.8954 6.07812 16 6.07812C17.1046 6.07812 18 6.97356 18 8.07812C18 9.18269 17.1046 10.0781 16 10.0781C14.8954 10.0781 14 9.18269 14 8.07812ZM16 7.07812C15.4477 7.07812 15 7.52584 15 8.07812C15 8.63041 15.4477 9.07812 16 9.07812C16.5523 9.07812 17 8.63041 17 8.07812C17 7.52584 16.5523 7.07812 16 7.07812ZM24.5 7.07812C23.9477 7.07812 23.5 7.52584 23.5 8.07812C23.5 8.63041 23.9477 9.07812 24.5 9.07812C25.0523 9.07812 25.5 8.63041 25.5 8.07812C25.5 7.52584 25.0523 7.07812 24.5 7.07812ZM22.5 8.07812C22.5 6.97356 23.3954 6.07812 24.5 6.07812C25.6046 6.07812 26.5 6.97356 26.5 8.07812C26.5 9.18269 25.6046 10.0781 24.5 10.0781C23.3954 10.0781 22.5 9.18269 22.5 8.07812ZM5.5 16.5781C5.5 15.4736 6.39543 14.5781 7.5 14.5781C8.60457 14.5781 9.5 15.4736 9.5 16.5781C9.5 17.6827 8.60457 18.5781 7.5 18.5781C6.39543 18.5781 5.5 17.6827 5.5 16.5781ZM7.5 15.5781C6.94772 15.5781 6.5 16.0258 6.5 16.5781C6.5 17.1304 6.94772 17.5781 7.5 17.5781C8.05228 17.5781 8.5 17.1304 8.5 16.5781C8.5 16.0258 8.05228 15.5781 7.5 15.5781ZM16 15.5781C15.4477 15.5781 15 16.0258 15 16.5781C15 17.1304 15.4477 17.5781 16 17.5781C16.5523 17.5781 17 17.1304 17 16.5781C17 16.0258 16.5523 15.5781 16 15.5781ZM14 16.5781C14 15.4736 14.8954 14.5781 16 14.5781C17.1046 14.5781 18 15.4736 18 16.5781C18 17.6827 17.1046 18.5781 16 18.5781C14.8954 18.5781 14 17.6827 14 16.5781ZM22.5 16.5781C22.5 15.4736 23.3954 14.5781 24.5 14.5781C25.6046 14.5781 26.5 15.4736 26.5 16.5781C26.5 17.6827 25.6046 18.5781 24.5 18.5781C23.3954 18.5781 22.5 17.6827 22.5 16.5781ZM24.5 15.5781C23.9477 15.5781 23.5 16.0258 23.5 16.5781C23.5 17.1304 23.9477 17.5781 24.5 17.5781C25.0523 17.5781 25.5 17.1304 25.5 16.5781C25.5 16.0258 25.0523 15.5781 24.5 15.5781ZM7.5 24.0781C6.94772 24.0781 6.5 24.5258 6.5 25.0781C6.5 25.6304 6.94772 26.0781 7.5 26.0781C8.05228 26.0781 8.5 25.6304 8.5 25.0781C8.5 24.5258 8.05228 24.0781 7.5 24.0781ZM5.5 25.0781C5.5 23.9736 6.39543 23.0781 7.5 23.0781C8.60457 23.0781 9.5 23.9736 9.5 25.0781C9.5 26.1827 8.60457 27.0781 7.5 27.0781C6.39543 27.0781 5.5 26.1827 5.5 25.0781ZM14 25.0781C14 23.9736 14.8954 23.0781 16 23.0781C17.1046 23.0781 18 23.9736 18 25.0781C18 26.1827 17.1046 27.0781 16 27.0781C14.8954 27.0781 14 26.1827 14 25.0781ZM16 24.0781C15.4477 24.0781 15 24.5258 15 25.0781C15 25.6304 15.4477 26.0781 16 26.0781C16.5523 26.0781 17 25.6304 17 25.0781C17 24.5258 16.5523 24.0781 16 24.0781ZM24.5 24.0781C23.9477 24.0781 23.5 24.5258 23.5 25.0781C23.5 25.6304 23.9477 26.0781 24.5 26.0781C25.0523 26.0781 25.5 25.6304 25.5 25.0781C25.5 24.5258 25.0523 24.0781 24.5 24.0781ZM22.5 25.0781C22.5 23.9736 23.3954 23.0781 24.5 23.0781C25.6046 23.0781 26.5 23.9736 26.5 25.0781C26.5 26.1827 25.6046 27.0781 24.5 27.0781C23.3954 27.0781 22.5 26.1827 22.5 25.0781Z" fill="white"/>
</svg>
