<svg width="32" height="33" viewBox="0 0 32 33" fill="none" xmlns="http://www.w3.org/2000/svg">
<path d="M14.5 5.57812C14.5 4.7497 15.1716 4.07812 16 4.07812C16.8284 4.07812 17.5 4.7497 17.5 5.57812V15.9568L20.1893 13.2675C20.7751 12.6817 21.7249 12.6817 22.3107 13.2675C22.8964 13.8533 22.8964 14.803 22.3107 15.3888L17.0575 20.642C16.7313 20.9662 16.2813 21.0165 15.9759 21.0174H15.973C15.582 21.0162 15.1651 20.8628 14.8818 20.5812L9.68934 15.3888C9.10356 14.803 9.10355 13.8533 9.68934 13.2675C10.2751 12.6817 11.2249 12.6817 11.8107 13.2675L14.5 15.9568V5.57812Z" fill="white"/>
<path d="M3.5 19.5781C3.5 18.7497 4.17157 18.0781 5 18.0781C5.82843 18.0781 6.5 18.7497 6.5 19.5781V26.0781H25.5V19.5781C25.5 18.7497 26.1716 18.0781 27 18.0781C27.8284 18.0781 28.5 18.7497 28.5 19.5781V26.5781C28.5 27.2412 28.2366 27.877 27.7678 28.3459C27.2989 28.8147 26.663 29.0781 26 29.0781H6C5.33696 29.0781 4.70108 28.8147 4.23223 28.3459C3.76339 27.8771 3.5 27.2412 3.5 26.5781V19.5781Z" fill="white"/>
</svg>
