<svg width="32" height="33" viewBox="0 0 32 33" fill="none" xmlns="http://www.w3.org/2000/svg">
<path d="M22.5 12.0781C23.3284 12.0781 24 11.4066 24 10.5781C24 9.7497 23.3284 9.07812 22.5 9.07812C21.6716 9.07812 21 9.7497 21 10.5781C21 11.4066 21.6716 12.0781 22.5 12.0781Z" fill="white"/>
<path fill-rule="evenodd" clip-rule="evenodd" d="M6 5.57812C4.89543 5.57812 4 6.47356 4 7.57812V13.5781C4 14.6827 4.89543 15.5781 6 15.5781H26C27.1046 15.5781 28 14.6827 28 13.5781V7.57812C28 6.47356 27.1046 5.57812 26 5.57812H6ZM6 7.57812H26V13.5781H6V7.57812Z" fill="white"/>
<path d="M24 22.5781C24 23.4066 23.3284 24.0781 22.5 24.0781C21.6716 24.0781 21 23.4066 21 22.5781C21 21.7497 21.6716 21.0781 22.5 21.0781C23.3284 21.0781 24 21.7497 24 22.5781Z" fill="white"/>
<path fill-rule="evenodd" clip-rule="evenodd" d="M6 17.5781C4.89543 17.5781 4 18.4736 4 19.5781V25.5781C4 26.6827 4.89543 27.5781 6 27.5781H26C27.1046 27.5781 28 26.6827 28 25.5781V19.5781C28 18.4736 27.1046 17.5781 26 17.5781H6ZM6 19.5781H26V25.5781H6V19.5781Z" fill="white"/>
<path fill-rule="evenodd" clip-rule="evenodd" d="M3.5 7.57812C3.5 6.19741 4.61929 5.07812 6 5.07812H26C27.3807 5.07812 28.5 6.19741 28.5 7.57812V13.5781C28.5 14.9588 27.3807 16.0781 26 16.0781H6C4.61929 16.0781 3.5 14.9588 3.5 13.5781V7.57812ZM6 6.07812C5.17157 6.07812 4.5 6.7497 4.5 7.57812V13.5781C4.5 14.4066 5.17157 15.0781 6 15.0781H26C26.8284 15.0781 27.5 14.4066 27.5 13.5781V7.57812C27.5 6.7497 26.8284 6.07812 26 6.07812H6ZM5.5 7.07812H26.5V14.0781H5.5V7.07812ZM6.5 8.07812V13.0781H25.5V8.07812H6.5ZM20.5 10.5781C20.5 9.47356 21.3954 8.57812 22.5 8.57812C23.6046 8.57812 24.5 9.47356 24.5 10.5781C24.5 11.6827 23.6046 12.5781 22.5 12.5781C21.3954 12.5781 20.5 11.6827 20.5 10.5781ZM22.5 9.57812C21.9477 9.57812 21.5 10.0258 21.5 10.5781C21.5 11.1304 21.9477 11.5781 22.5 11.5781C23.0523 11.5781 23.5 11.1304 23.5 10.5781C23.5 10.0258 23.0523 9.57812 22.5 9.57812ZM3.5 19.5781C3.5 18.1974 4.61929 17.0781 6 17.0781H26C27.3807 17.0781 28.5 18.1974 28.5 19.5781V25.5781C28.5 26.9588 27.3807 28.0781 26 28.0781H6C4.61929 28.0781 3.5 26.9588 3.5 25.5781V19.5781ZM6 18.0781C5.17157 18.0781 4.5 18.7497 4.5 19.5781V25.5781C4.5 26.4066 5.17157 27.0781 6 27.0781H26C26.8284 27.0781 27.5 26.4066 27.5 25.5781V19.5781C27.5 18.7497 26.8284 18.0781 26 18.0781H6ZM5.5 19.0781H26.5V26.0781H5.5V19.0781ZM6.5 20.0781V25.0781H25.5V20.0781H6.5ZM22.5 21.5781C21.9477 21.5781 21.5 22.0258 21.5 22.5781C21.5 23.1304 21.9477 23.5781 22.5 23.5781C23.0523 23.5781 23.5 23.1304 23.5 22.5781C23.5 22.0258 23.0523 21.5781 22.5 21.5781ZM20.5 22.5781C20.5 21.4736 21.3954 20.5781 22.5 20.5781C23.6046 20.5781 24.5 21.4736 24.5 22.5781C24.5 23.6827 23.6046 24.5781 22.5 24.5781C21.3954 24.5781 20.5 23.6827 20.5 22.5781Z" fill="white"/>
</svg>
