<svg width="32" height="32" viewBox="0 0 32 32" fill="none" xmlns="http://www.w3.org/2000/svg">
<path d="M4.23223 4.23223C4.70107 3.76339 5.33696 3.5 6 3.5H17C17.8284 3.5 18.5 4.17157 18.5 5C18.5 5.82843 17.8284 6.5 17 6.5L6.5 6.5L6.5 25.5H25.5V15C25.5 14.1716 26.1716 13.5 27 13.5C27.8284 13.5 28.5 14.1716 28.5 15V26C28.5 26.663 28.2366 27.2989 27.7678 27.7678C27.2989 28.2366 26.663 28.5 26 28.5H6C5.33696 28.5 4.70108 28.2366 4.23223 27.7678C3.76339 27.2989 3.5 26.663 3.5 26V6C3.5 5.33696 3.76339 4.70107 4.23223 4.23223Z" fill="white"/>
<path fill-rule="evenodd" clip-rule="evenodd" d="M25.0607 2.93934L29.0607 6.93934C29.6464 7.52513 29.6464 8.47487 29.0607 9.06066L17.0607 21.0607C16.7794 21.342 16.3978 21.5 16 21.5H12C11.1716 21.5 10.5 20.8284 10.5 20V16C10.5 15.6022 10.658 15.2206 10.9393 14.9393L22.9393 2.93934C23.5251 2.35355 24.4749 2.35355 25.0607 2.93934ZM13.5 18.5V16.6213L21 9.12132L22.8787 11L15.3787 18.5H13.5ZM23.1213 7L25 8.87868L25.8787 8L24 6.12132L23.1213 7Z" fill="white"/>
</svg>
