<svg width="32" height="33" viewBox="0 0 32 33" fill="none" xmlns="http://www.w3.org/2000/svg">
<path fill-rule="evenodd" clip-rule="evenodd" d="M18.5821 4.05452C19.0076 3.87703 19.464 3.78564 19.9249 3.78564C20.3859 3.78564 20.8423 3.87703 21.2677 4.05452C21.6919 4.23147 22.0769 4.49052 22.4006 4.81674L22.4013 4.81749L22.4033 4.81946L28.0703 10.474C28.7174 11.1331 29.08 12.0199 29.08 12.9437C29.08 13.8674 28.7174 14.7542 28.0702 15.4134L28.0686 15.4151L28.0618 15.4219L28.0601 15.4236L17.4987 25.9749H26.9999C27.8284 25.9749 28.4999 26.6465 28.4999 27.4749C28.4999 28.3034 27.8284 28.9749 26.9999 28.9749H9.01243C8.61461 28.9749 8.23308 28.8169 7.95177 28.5356L3.31952 23.9033L3.31787 23.9017C2.99144 23.5779 2.73155 23.1921 2.55452 22.7677C2.37703 22.3423 2.28564 21.8859 2.28564 21.4249C2.28564 20.964 2.37703 20.5076 2.55452 20.0821C2.73158 19.6577 2.99083 19.2725 3.31733 18.9487L3.31955 18.9465L10.2677 11.9983C10.3016 11.9562 10.3379 11.9157 10.3768 11.8768C10.4156 11.838 10.4562 11.8016 10.4983 11.7678L17.4465 4.81955L17.4482 4.81787C17.772 4.49137 18.1577 4.23158 18.5821 4.05452ZM5.432 21.0767L11.4437 15.065L17.806 21.4273L13.254 25.9749H9.63375L5.43561 21.7768L5.43019 21.7714C5.38439 21.7261 5.34804 21.6721 5.32323 21.6126C5.29842 21.5532 5.28564 21.4894 5.28564 21.4249C5.28564 21.3605 5.29842 21.2967 5.32323 21.2372C5.34802 21.1778 5.38437 21.1238 5.4302 21.0785L5.432 21.0767ZM19.9249 6.78564C19.8605 6.78564 19.7967 6.79842 19.7372 6.82323C19.6778 6.84804 19.6238 6.88439 19.5785 6.93019L19.5749 6.93383L19.5731 6.9356L13.565 12.9437L19.9283 19.307L25.933 13.308C26.0273 13.2102 26.08 13.0796 26.08 12.9437C26.08 12.8078 26.0274 12.6774 25.9333 12.5796L20.2736 6.93239L20.2714 6.9302C20.226 6.88437 20.1721 6.84802 20.1126 6.82323C20.0532 6.79842 19.9894 6.78564 19.9249 6.78564Z" fill="white"/>
</svg>
