<svg width="32" height="33" viewBox="0 0 32 33" fill="none" xmlns="http://www.w3.org/2000/svg">
<path fill-rule="evenodd" clip-rule="evenodd" d="M15.2929 1.79289C15.6834 1.40237 16.3166 1.40237 16.7071 1.79289L21.9571 7.04289C22.3476 7.43342 22.3476 8.06658 21.9571 8.45711C21.5666 8.84763 20.9334 8.84763 20.5429 8.45711L16 3.91421L11.4571 8.45711C11.0666 8.84763 10.4334 8.84763 10.0429 8.45711C9.65237 8.06658 9.65237 7.43342 10.0429 7.04289L15.2929 1.79289Z" fill="white"/>
<path fill-rule="evenodd" clip-rule="evenodd" d="M16 1.5C16.5523 1.5 17 1.94772 17 2.5V16.5C17 17.0523 16.5523 17.5 16 17.5C15.4477 17.5 15 17.0523 15 16.5V2.5C15 1.94772 15.4477 1.5 16 1.5Z" fill="white"/>
<path fill-rule="evenodd" clip-rule="evenodd" d="M5.58579 12.0858C5.96086 11.7107 6.46957 11.5 7 11.5H10C10.5523 11.5 11 11.9477 11 12.5C11 13.0523 10.5523 13.5 10 13.5H7L7 26.5H25V13.5H22C21.4477 13.5 21 13.0523 21 12.5C21 11.9477 21.4477 11.5 22 11.5H25C25.5304 11.5 26.0391 11.7107 26.4142 12.0858C26.7893 12.4609 27 12.9696 27 13.5V26.5C27 27.0304 26.7893 27.5391 26.4142 27.9142C26.0391 28.2893 25.5304 28.5 25 28.5H7C6.46957 28.5 5.96086 28.2893 5.58579 27.9142C5.21071 27.5391 5 27.0304 5 26.5V13.5C5 12.9696 5.21071 12.4609 5.58579 12.0858Z" fill="white"/>
<path fill-rule="evenodd" clip-rule="evenodd" d="M16.5742 1.11382C16.7498 1.18648 16.9144 1.29393 17.0575 1.43616C17.0585 1.43722 17.0596 1.43828 17.0607 1.43934L22.3107 6.68934C22.8964 7.27513 22.8964 8.22487 22.3107 8.81066C21.7249 9.39645 20.7751 9.39645 20.1893 8.81066L17.5 6.12132V16.5C17.5 17.3284 16.8284 18 16 18C15.1716 18 14.5 17.3284 14.5 16.5V6.12132L11.8107 8.81066C11.2249 9.39645 10.2751 9.39645 9.68934 8.81066C9.10355 8.22487 9.10355 7.27513 9.68934 6.68934L14.9393 1.43934C14.9404 1.43828 14.9415 1.43722 14.9425 1.43616C15.2137 1.16658 15.5874 1 16 1C16.2034 1 16.3973 1.04048 16.5742 1.11382ZM14.5 3.29289L10.3964 7.39645C10.2012 7.59171 10.2012 7.90829 10.3964 8.10355C10.5917 8.29882 10.9083 8.29882 11.1036 8.10355L14.5 4.70711V3.29289ZM15.5 5.12132V16.5C15.5 16.7761 15.7239 17 16 17C16.2761 17 16.5 16.7761 16.5 16.5V5.12132L16 4.62132L15.5 5.12132ZM16.5 3.70711L16.3536 3.56066C16.1583 3.3654 15.8417 3.3654 15.6464 3.56066L15.5 3.70711V2.5C15.5 2.36215 15.5558 2.23733 15.646 2.14688M17.5 4.70711L20.8964 8.10355C21.0917 8.29882 21.4083 8.29882 21.6036 8.10355C21.7988 7.90829 21.7988 7.59171 21.6036 7.39645L17.5 3.29289V4.70711ZM16.354 2.14688C16.4442 2.23733 16.5 2.36215 16.5 2.5V3.70711M16.354 2.14688C16.3533 2.14617 16.3521 2.14503 16.3514 2.14433C16.2541 2.04811 16.127 2 16 2C15.9349 2 15.8697 2.01265 15.8086 2.03794C15.7484 2.06289 15.6942 2.09926 15.6486 2.14433M5.23223 11.7322C5.70107 11.2634 6.33696 11 7 11H10C10.8284 11 11.5 11.6716 11.5 12.5C11.5 13.3284 10.8284 14 10 14H7.5L7.5 26H24.5V14H22C21.1716 14 20.5 13.3284 20.5 12.5C20.5 11.6716 21.1716 11 22 11H25C25.663 11 26.2989 11.2634 26.7678 11.7322C27.2366 12.2011 27.5 12.837 27.5 13.5V26.5C27.5 27.163 27.2366 27.7989 26.7678 28.2678C26.2989 28.7366 25.663 29 25 29H7C6.33696 29 5.70108 28.7366 5.23223 28.2678C4.76339 27.7989 4.5 27.163 4.5 26.5V13.5C4.5 12.837 4.76339 12.2011 5.23223 11.7322ZM7 12C6.60218 12 6.22064 12.158 5.93934 12.4393C5.65804 12.7206 5.5 13.1022 5.5 13.5V26.5C5.5 26.8978 5.65804 27.2794 5.93934 27.5607C6.22064 27.842 6.60218 28 7 28H25C25.3978 28 25.7794 27.842 26.0607 27.5607C26.342 27.2794 26.5 26.8978 26.5 26.5V13.5C26.5 13.1022 26.342 12.7206 26.0607 12.4393C25.7794 12.158 25.3978 12 25 12H22C21.7239 12 21.5 12.2239 21.5 12.5C21.5 12.7761 21.7239 13 22 13H25C25.2761 13 25.5 13.2239 25.5 13.5V26.5C25.5 26.7761 25.2761 27 25 27H7C6.86739 27 6.74021 26.9473 6.64645 26.8536C6.55268 26.7598 6.5 26.6326 6.5 26.5L6.5 13.5C6.5 13.2239 6.72386 13 7 13H10C10.2761 13 10.5 12.7761 10.5 12.5C10.5 12.2239 10.2761 12 10 12H7Z" fill="white"/>
</svg>
