<svg width="32" height="33" viewBox="0 0 32 33" fill="none" xmlns="http://www.w3.org/2000/svg">
<path d="M13.1649 6.23312C14.1023 6.07621 15.0512 5.99824 16.0016 6.00003C21.4998 6.00048 25.3603 8.48895 27.8108 10.9394C29.0318 12.1604 29.9116 13.3789 30.4882 14.2946C30.7772 14.7536 30.9922 15.14 31.1374 15.4173C31.2101 15.5561 31.2655 15.6679 31.3042 15.7482C31.4766 16.1361 31.4651 16.8878 31.2927 17.2757C31.2469 17.3702 31.1809 17.5019 31.094 17.665C30.9204 17.991 30.6626 18.4439 30.3149 18.9756C29.6215 20.0361 28.5582 21.4289 27.0751 22.7555C26.4577 23.3078 25.5094 23.255 24.9571 22.6376C24.4048 22.0201 24.4576 21.0718 25.0751 20.5195C26.3169 19.4087 27.2162 18.2328 27.804 17.3338C28.014 17.0127 28.1827 16.7293 28.3117 16.5001C28.214 16.3265 28.0935 16.1218 27.9495 15.893C27.4636 15.1212 26.7184 14.0897 25.6894 13.0607C23.6403 11.0115 20.5013 9.00003 16.0001 9.00003H15.9981C15.2152 8.99849 14.4325 9.06268 13.6602 9.19195C12.8432 9.32872 12.0699 8.77724 11.9332 7.96018C11.7964 7.14312 12.3479 6.36989 13.1649 6.23312Z" fill="white"/>
<path d="M15.4638 11.3083C15.618 10.4944 16.4029 9.95959 17.2168 10.1138C18.5999 10.3759 19.8603 11.0807 20.8076 12.1219C21.755 13.1631 22.338 14.4843 22.4686 15.8859C22.5455 16.7107 21.9391 17.4417 21.1143 17.5186C20.2894 17.5955 19.5584 16.9891 19.4816 16.1643C19.4113 15.4108 19.0979 14.7006 18.5887 14.1409C18.0794 13.5811 17.4019 13.2022 16.6583 13.0614C15.8444 12.9071 15.3096 12.1223 15.4638 11.3083Z" fill="white"/>
<path fill-rule="evenodd" clip-rule="evenodd" d="M4.99108 4.3901C5.60406 3.83284 6.55274 3.87801 7.11 4.491L27.11 26.491C27.6673 27.104 27.6221 28.0527 27.0091 28.6099C26.3961 29.1672 25.4474 29.122 24.8902 28.509L22.3783 25.746C20.3602 26.5889 18.1887 27.017 15.9938 26.9999C10.4982 26.998 6.63914 24.5103 4.18942 22.0606C2.96839 20.8395 2.08854 19.6211 1.51199 18.7054C1.22297 18.2464 1.00802 17.86 0.862743 17.5827C0.790049 17.4439 0.734627 17.3321 0.695946 17.2517C0.523614 16.864 0.588598 16.0034 0.760243 15.6163C0.840004 15.4566 0.956711 15.2333 1.11158 14.9608C1.42085 14.4165 1.88603 13.6711 2.52167 12.8411C3.51888 11.5389 4.95648 10.0014 6.89463 8.71392L4.89018 6.50902C4.33292 5.89603 4.37809 4.94736 4.99108 4.3901ZM10.636 12.8295C10.1871 13.4857 9.85983 14.2223 9.67494 15.0045C9.37313 16.2812 9.46473 17.6194 9.93768 18.8431C10.4106 20.0668 11.2428 21.1188 12.3248 21.8607C13.4061 22.602 14.6862 22.9991 15.9971 22.9998C17.1071 23.0036 18.1901 22.721 19.1464 22.1909L20.2044 23.3546C18.8549 23.7923 17.4397 24.0116 16.0123 23.9999L16.0001 23.9999C11.4988 23.9999 8.3599 21.9884 6.31074 19.9393C5.28178 18.9103 4.53663 17.8787 4.05068 17.107C3.90647 16.8779 3.78583 16.6729 3.68807 16.4992L3.71984 16.443C3.97307 15.9974 4.36414 15.3694 4.9035 14.665C5.82512 13.4615 7.15531 12.0668 8.94131 10.9653L10.636 12.8295ZM17.0197 19.8515L12.7633 15.1694C12.6936 15.3391 12.637 15.5146 12.5945 15.6946C12.432 16.3821 12.4813 17.1027 12.736 17.7616C12.9906 18.4205 13.4387 18.9869 14.0213 19.3864C14.6039 19.7859 15.2948 19.9997 16.0012 19.9998L16.0058 19.9998C16.3522 20.0011 16.6937 19.9503 17.0197 19.8515Z" fill="white"/>
</svg>
