<svg width="32" height="33" viewBox="0 0 32 33" fill="none" xmlns="http://www.w3.org/2000/svg">
<path fill-rule="evenodd" clip-rule="evenodd" d="M4.18938 10.9393C6.64003 8.48869 10.5011 6 16 6C21.499 6 25.3601 8.48869 27.8107 10.9393C29.0317 12.1604 29.9116 13.3788 30.4881 14.2945C30.7772 14.7536 30.9921 15.1399 31.1374 15.4173C31.2101 15.556 31.2655 15.6678 31.3042 15.7482C31.4766 16.136 31.4766 16.864 31.3042 17.2518C31.2655 17.3322 31.2101 17.444 31.1374 17.5827C30.9921 17.8601 30.7772 18.2464 30.4881 18.7055C29.9116 19.6212 29.0317 20.8396 27.8107 22.0607C25.3601 24.5113 21.499 27 16 27C10.5011 27 6.64003 24.5113 4.18938 22.0607C2.96835 20.8396 2.0885 19.6212 1.51194 18.7055C1.22293 18.2464 1.00798 17.8601 0.862703 17.5827C0.790008 17.4439 0.734586 17.3321 0.695906 17.2518C0.523529 16.864 0.523096 16.136 0.695473 15.7482C0.734154 15.6679 0.790008 15.5561 0.862703 15.4173C1.00798 15.1399 1.22293 14.7536 1.51194 14.2945C2.0885 13.3788 2.96835 12.1604 4.18938 10.9393ZM6.31071 13.0607C8.35986 11.0115 11.4988 9 16 9C20.5013 9 23.6402 11.0115 25.6894 13.0607C26.7183 14.0896 27.4635 15.1212 27.9494 15.893C28.0935 16.1217 28.214 16.3264 28.3117 16.5C28.214 16.6736 28.0935 16.8783 27.9494 17.107C27.4635 17.8788 26.7183 18.9104 25.6894 19.9393C23.6402 21.9885 20.5013 24 16 24C11.4988 24 8.35986 21.9885 6.31071 19.9393C5.28174 18.9104 4.53658 17.8788 4.05064 17.107C3.90662 16.8783 3.78612 16.6736 3.68843 16.5C3.78612 16.3264 3.90662 16.1217 4.05064 15.893C4.53658 15.1212 5.28174 14.0896 6.31071 13.0607ZM9.50004 16.5C9.50004 12.9101 12.4102 10 16 10C19.5899 10 22.5 12.9101 22.5 16.5C22.5 20.0899 19.5899 23 16 23C12.4102 23 9.50004 20.0899 9.50004 16.5ZM16 13C14.067 13 12.5 14.567 12.5 16.5C12.5 18.433 14.067 20 16 20C17.933 20 19.5 18.433 19.5 16.5C19.5 14.567 17.933 13 16 13Z" fill="white"/>
</svg>
