<svg width="16" height="16" viewBox="0 0 16 16" fill="none" xmlns="http://www.w3.org/2000/svg">
<path fill-rule="evenodd" clip-rule="evenodd" d="M2.09469 5.21967C3.32001 3.99435 5.25054 2.75 8.00002 2.75C10.7495 2.75 12.68 3.99435 13.9054 5.21967C14.5159 5.83019 14.9558 6.43941 15.2441 6.89726C15.3886 7.12678 15.4961 7.31996 15.5687 7.45863C15.605 7.52802 15.6327 7.58392 15.6521 7.62409C15.7383 7.81802 15.7383 8.18198 15.6521 8.37591C15.6327 8.41608 15.605 8.47198 15.5687 8.54137C15.4961 8.68004 15.3886 8.87322 15.2441 9.10273C14.9558 9.56059 14.5159 10.1698 13.9054 10.7803C12.68 12.0057 10.7495 13.25 8.00002 13.25C5.25054 13.25 3.32001 12.0057 2.09469 10.7803C1.48417 10.1698 1.04425 9.56059 0.755972 9.10274C0.611465 8.87322 0.503991 8.68004 0.431351 8.54136C0.395004 8.47197 0.367293 8.41607 0.347953 8.3759C0.261764 8.18198 0.261548 7.81802 0.347736 7.6241C0.367077 7.58393 0.395004 7.52803 0.431351 7.45863C0.503991 7.31996 0.611465 7.12678 0.755972 6.89727C1.04425 6.43941 1.48417 5.83019 2.09469 5.21967ZM3.15535 6.28033C4.17993 5.25575 5.7494 4.25 8.00002 4.25C10.2506 4.25 11.8201 5.25575 12.8447 6.28033C13.3592 6.79481 13.7318 7.31059 13.9747 7.69648C14.0467 7.81085 14.107 7.91322 14.1558 8C14.107 8.08678 14.0467 8.18915 13.9747 8.30352C13.7318 8.68941 13.3592 9.20519 12.8447 9.71967C11.8201 10.7442 10.2506 11.75 8.00002 11.75C5.7494 11.75 4.17993 10.7442 3.15535 9.71967C2.64087 9.20519 2.26829 8.68941 2.02532 8.30351C1.95331 8.18915 1.89306 8.08678 1.84422 8C1.89306 7.91322 1.95331 7.81085 2.02532 7.69649C2.26829 7.31059 2.64087 6.79481 3.15535 6.28033ZM4.75002 8C4.75002 6.20507 6.2051 4.75 8.00002 4.75C9.79495 4.75 11.25 6.20507 11.25 8C11.25 9.79493 9.79495 11.25 8.00002 11.25C6.2051 11.25 4.75002 9.79493 4.75002 8ZM8.00002 6.25C7.03352 6.25 6.25002 7.0335 6.25002 8C6.25002 8.9665 7.03352 9.75 8.00002 9.75C8.96652 9.75 9.75002 8.9665 9.75002 8C9.75002 7.0335 8.96652 6.25 8.00002 6.25Z" fill="currentColor"/>
</svg>
