<svg width="17" height="16" viewBox="0 0 17 16" fill="none" xmlns="http://www.w3.org/2000/svg">
<path d="M7.08247 2.86656C7.55115 2.78811 8.02558 2.74912 8.50078 2.75002C11.2499 2.75024 13.1802 3.99447 14.4054 5.21969C15.0159 5.83021 15.4558 6.43943 15.7441 6.89728C15.8886 7.12679 15.9961 7.31998 16.0687 7.45865C16.1051 7.52804 16.1328 7.58394 16.1521 7.62411C16.2383 7.81804 16.2325 8.1939 16.1464 8.38783C16.1234 8.43508 16.0904 8.50096 16.047 8.58252C15.9602 8.7455 15.8313 8.97193 15.6574 9.23782C15.3107 9.76803 14.7791 10.4644 14.0376 11.1278C13.7288 11.4039 13.2547 11.3775 12.9785 11.0688C12.7024 10.7601 12.7288 10.2859 13.0375 10.0098C13.6585 9.45434 14.1081 8.86638 14.402 8.4169C14.507 8.25634 14.5914 8.11464 14.6559 8.00003C14.607 7.91324 14.5468 7.81088 14.4747 7.6965C14.2318 7.31061 13.8592 6.79483 13.3447 6.28035C12.3201 5.25577 10.7507 4.25002 8.50004 4.25002H8.49906C8.10758 4.24924 7.71623 4.28134 7.33012 4.34597C6.92159 4.41436 6.53497 4.13862 6.46659 3.73009C6.3982 3.32156 6.67394 2.93494 7.08247 2.86656Z" fill="currentColor"/>
<path d="M8.2319 5.40417C8.30901 4.9972 8.70144 4.72979 9.10841 4.8069C9.79996 4.93794 10.4301 5.29035 10.9038 5.81096C11.3775 6.33157 11.669 6.99213 11.7343 7.69295C11.7727 8.10537 11.4696 8.47087 11.0571 8.50931C10.6447 8.54774 10.2792 8.24457 10.2408 7.83214C10.2057 7.4554 10.049 7.1003 9.79433 6.82044C9.53969 6.54057 9.20093 6.35112 8.82917 6.28068C8.4222 6.20357 8.15479 5.81114 8.2319 5.40417Z" fill="currentColor"/>
<path fill-rule="evenodd" clip-rule="evenodd" d="M2.99554 1.94505C3.30203 1.66642 3.77637 1.68901 4.055 1.9955L14.055 12.9955C14.3336 13.302 14.311 13.7763 14.0045 14.055C13.6981 14.3336 13.2237 14.311 12.9451 14.0045L11.6892 12.623C10.6801 13.0445 9.59436 13.2585 8.49692 13.25C5.74909 13.249 3.81957 12.0051 2.59471 10.7803C1.98419 10.1698 1.54427 9.56055 1.25599 9.1027C1.11149 8.87319 1.00401 8.68 0.931372 8.54133C0.895024 8.47194 0.867314 8.41603 0.847973 8.37586C0.761807 8.18199 0.794299 7.75172 0.880122 7.55813C0.920002 7.47828 0.978355 7.36665 1.05579 7.23039C1.21042 6.95827 1.44301 6.58556 1.76083 6.17053C2.25944 5.51943 2.97824 4.75068 3.94732 4.10696L2.94509 3.00451C2.66646 2.69802 2.68905 2.22368 2.99554 1.94505ZM5.81802 6.16473C5.59353 6.49285 5.42992 6.86117 5.33747 7.25224C5.18657 7.89061 5.23236 8.5597 5.46884 9.17155C5.70532 9.7834 6.12141 10.3094 6.66241 10.6803C7.20303 11.051 7.84309 11.2496 8.49857 11.2499C9.05354 11.2518 9.59507 11.1105 10.0732 10.8454L10.6022 11.4273C9.92747 11.6461 9.21983 11.7558 8.50615 11.75L8.50004 11.75C6.24942 11.75 4.67995 10.7442 3.65537 9.71963C3.14089 9.20515 2.76831 8.68937 2.52534 8.30348C2.45323 8.18895 2.39292 8.08647 2.34404 7.99961L2.35992 7.97149C2.48654 7.74869 2.68207 7.43468 2.95175 7.08252C3.41256 6.48077 4.07766 5.78341 4.97066 5.23263L5.81802 6.16473ZM9.00985 9.67575L6.88165 7.33472C6.8468 7.41953 6.81852 7.5073 6.79724 7.59732C6.71598 7.94105 6.74064 8.30133 6.86798 8.63079C6.99531 8.96025 7.21936 9.24347 7.51066 9.44321C7.80197 9.64295 8.14739 9.74987 8.5006 9.74991L8.50288 9.74991C8.67608 9.75057 8.84684 9.72517 9.00985 9.67575Z" fill="currentColor"/>
</svg>
