<svg width="32" height="32" viewBox="0 0 32 32" fill="none" xmlns="http://www.w3.org/2000/svg">
<path fill-rule="evenodd" clip-rule="evenodd" d="M28.1033 4.90635C27.6971 4.64129 27.2222 4.50015 26.7374 4.5L5.26238 4.5C4.77807 4.50034 4.30252 4.64136 3.89645 4.90635C3.49034 5.17137 3.17007 5.54877 2.97466 5.99258C2.77925 6.4364 2.71713 6.92746 2.79588 7.40595C2.87445 7.88344 3.09031 8.32827 3.41648 8.68567L11.4999 17.5812L11.4998 27.1375L11.4999 27.1426C11.5044 27.5891 11.6287 28.0393 11.8632 28.4253C12.0964 28.8092 12.4287 29.1232 12.8252 29.3342C13.2217 29.5453 13.6677 29.6456 14.1164 29.6247C14.5651 29.6037 14.9998 29.4623 15.375 29.2152L15.377 29.2139L19.3736 26.5536L19.3753 26.5525C19.7224 26.3252 20.0072 26.0146 20.2036 25.6489C20.4004 25.2827 20.5023 24.873 20.4999 24.4573V17.5811L28.5824 8.6866C28.9081 8.32968 29.1252 7.88388 29.2039 7.40595C29.2826 6.92746 29.2205 6.43639 29.0251 5.99258C28.8297 5.54877 28.5094 5.17136 28.1033 4.90635ZM6.39278 7.50013L13.8421 15.6977C14.2685 16.1589 14.5037 16.7649 14.4999 17.393V26.1934L17.4998 24.1948L17.4999 17.393C17.4961 16.7649 17.7313 16.1589 18.1576 15.6978L18.1594 15.6959L25.605 7.50235L6.39278 7.50013Z" fill="white"/>
</svg>
