<svg width="32" height="33" viewBox="0 0 32 33" fill="none" xmlns="http://www.w3.org/2000/svg">
<path d="M27.2696 24.7642C27.1896 24.7642 27.1096 24.7642 27.0296 24.7442C26.3496 24.6142 25.9096 23.9542 26.0396 23.2742C26.4696 21.0542 26.6896 18.7742 26.6896 16.5142C26.6896 13.6442 25.5696 10.9442 23.5396 8.91416C21.5096 6.88416 18.8096 5.76416 15.9396 5.76416C13.0696 5.76416 10.3696 6.88416 8.33961 8.91416C6.30961 10.9442 5.18961 13.6442 5.18961 16.5142C5.18961 18.0242 4.93961 19.5142 4.42961 20.9342C4.31961 21.2442 4.08961 21.5042 3.78961 21.6442C3.48961 21.7842 3.14961 21.8042 2.82961 21.6942C2.51961 21.5842 2.25961 21.3542 2.11961 21.0542C1.97961 20.7542 1.95961 20.4142 2.06961 20.0942C2.47961 18.9442 2.68961 17.7442 2.67961 16.5142C2.67961 12.9742 4.05961 9.64416 6.55961 7.14416C9.05961 4.64416 12.3996 3.26416 15.9396 3.26416C19.4796 3.26416 22.8096 4.64416 25.3096 7.14416C27.8096 9.64416 29.1896 12.9742 29.1896 16.5142C29.1896 18.9342 28.9496 21.3742 28.4896 23.7542C28.4296 24.0842 28.2396 24.3642 27.9596 24.5542C27.7496 24.6942 27.5096 24.7642 27.2596 24.7642H27.2696Z" fill="white"/>
<path d="M6.26961 24.8742C6.07961 24.8742 5.88961 24.8342 5.70961 24.7442C5.08961 24.4342 4.83961 23.6842 5.14961 23.0642C6.15961 21.0342 6.68961 18.7742 6.67961 16.5042C6.67961 15.1242 6.99961 13.7442 7.58961 12.4942C8.18961 11.2542 9.06961 10.1342 10.1396 9.27416C10.3996 9.06416 10.7296 8.97416 11.0596 9.00416C11.3896 9.04416 11.6896 9.20416 11.8996 9.46416C12.3296 10.0042 12.2496 10.7942 11.7096 11.2242C10.9196 11.8542 10.2796 12.6642 9.83961 13.5742C9.39961 14.4842 9.16961 15.4942 9.16961 16.4942C9.16961 19.1442 8.54961 21.7942 7.37961 24.1642C7.22961 24.4642 6.96961 24.6842 6.65961 24.7942C6.52961 24.8342 6.38961 24.8642 6.25961 24.8642L6.26961 24.8742Z" fill="white"/>
<path d="M9.26961 27.7542C9.05961 27.7542 8.84961 27.7042 8.64961 27.5842C8.04961 27.2442 7.83961 26.4742 8.18961 25.8742C9.18961 24.1242 9.90961 22.2342 10.3096 20.2542C10.3796 19.9242 10.5696 19.6442 10.8496 19.4642C11.1296 19.2842 11.4596 19.2142 11.7896 19.2842C12.1196 19.3542 12.3996 19.5442 12.5796 19.8242C12.7596 20.1042 12.8296 20.4342 12.7596 20.7642C12.2996 23.0042 11.4896 25.1442 10.3596 27.1242C10.1296 27.5242 9.70961 27.7542 9.26961 27.7542Z" fill="white"/>
<path d="M23.6896 21.7642C23.6396 21.7642 23.5896 21.7642 23.5296 21.7642C23.1996 21.7242 22.8996 21.5542 22.6996 21.2942C22.4996 21.0342 22.4096 20.7042 22.4496 20.3742C22.6096 19.1042 22.6896 17.8042 22.6896 16.5242C22.6896 14.7242 21.9896 13.0242 20.7096 11.7542C19.8496 10.8942 18.7696 10.2842 17.5896 9.98416C17.0496 9.84416 16.4896 9.77416 15.9396 9.77416C15.6496 9.77416 15.3596 9.79416 15.0896 9.82416C14.7596 9.86416 14.4296 9.77416 14.1696 9.56416C13.9096 9.35416 13.7396 9.06416 13.6996 8.73416C13.6596 8.40416 13.7496 8.07416 13.9596 7.81416C14.1696 7.55416 14.4596 7.38416 14.7896 7.34416C15.1696 7.29416 15.5496 7.27416 15.9396 7.27416C18.4096 7.27416 20.7296 8.23416 22.4796 9.98416C24.2296 11.7342 25.1896 14.0542 25.1896 16.5242C25.1896 17.9042 25.0996 19.3042 24.9296 20.6742C24.8896 21.0042 24.7196 21.3042 24.4596 21.5042C24.2396 21.6742 23.9696 21.7642 23.6896 21.7642Z" fill="white"/>
<path d="M22.2896 27.9542C22.1596 27.9542 22.0196 27.9342 21.8896 27.8942C21.5696 27.7842 21.3196 27.5642 21.1696 27.2642C21.0196 26.9642 20.9996 26.6242 21.0996 26.3142C21.3196 25.6542 21.5196 24.9542 21.7096 24.2142C21.8796 23.5442 22.5596 23.1442 23.2296 23.3142C23.8996 23.4842 24.2996 24.1642 24.1296 24.8342C23.9296 25.6242 23.7096 26.3942 23.4696 27.1042C23.3596 27.4242 23.1396 27.6742 22.8396 27.8242C22.6596 27.9142 22.4696 27.9542 22.2796 27.9542H22.2896Z" fill="white"/>
<path d="M17.2696 29.6942C17.0896 29.6942 16.9096 29.6542 16.7396 29.5742C16.1196 29.2842 15.8496 28.5342 16.1396 27.9042C17.8096 24.3642 18.6896 20.4342 18.6796 16.5142C18.6796 15.7842 18.3896 15.0742 17.8796 14.5642C17.3596 14.0442 16.6696 13.7542 15.9296 13.7542C15.1896 13.7542 14.4996 14.0442 13.9896 14.5642C13.4796 15.0842 13.1796 15.7842 13.1796 16.5042C13.1796 17.2242 12.6196 17.7542 11.9296 17.7542C11.2396 17.7542 10.6796 17.1942 10.6796 16.5042C10.6796 15.1042 11.2296 13.7842 12.2196 12.7942C13.2096 11.8042 14.5296 11.2542 15.9296 11.2542C17.3296 11.2542 18.6496 11.8042 19.6396 12.7942C20.6296 13.7842 21.1796 15.1042 21.1796 16.5042C21.1796 20.7842 20.2296 25.0942 18.3996 28.9642C18.1896 29.4142 17.7396 29.6842 17.2696 29.6842V29.6942Z" fill="white"/>
<path fill-rule="evenodd" clip-rule="evenodd" d="M15.9396 15.2642C16.6296 15.2642 17.1896 15.8242 17.1896 16.5142C17.1896 20.7942 16.1096 25.0042 14.0296 28.7442C13.6996 29.3442 12.9296 29.5642 12.3296 29.2342C11.7296 28.9042 11.5096 28.1342 11.8396 27.5342C13.7096 24.1642 14.6896 20.3742 14.6796 16.5142C14.6796 15.8242 15.2396 15.2642 15.9296 15.2642H15.9396Z" fill="white"/>
</svg>
