<svg width="32" height="33" viewBox="0 0 32 33" fill="none" xmlns="http://www.w3.org/2000/svg">
<path d="M16 14.5781C16.5523 14.5781 17 15.0258 17 15.5781V19.5781C17 20.1304 16.5523 20.5781 16 20.5781C15.4477 20.5781 15 20.1304 15 19.5781V15.5781C15 15.0258 15.4477 14.5781 16 14.5781Z" fill="white"/>
<path fill-rule="evenodd" clip-rule="evenodd" d="M9.00001 2.57812C8.46958 2.57812 7.96087 2.78884 7.5858 3.16391C7.21072 3.53898 7.00001 4.04769 7.00001 4.57812L7 8.57587L7 8.57812L7 8.58038L7 10.2406L7.00002 10.2447C7.00178 10.6745 7.14109 11.0924 7.39754 11.4373L9.99772 14.9126L10 28.5781C10 29.1086 10.2107 29.6173 10.5858 29.9923C10.9609 30.3674 11.4696 30.5781 12 30.5781H20C20.5304 30.5781 21.0391 30.3674 21.4142 29.9923C21.7893 29.6173 22 29.1086 22 28.5781V14.9193L24.6025 11.4373C24.8589 11.0924 24.9982 10.6745 25 10.2447L25 10.2406V4.57812C25 4.04769 24.7893 3.53899 24.4142 3.16391C24.0391 2.78884 23.5304 2.57812 23 2.57812H9.00001ZM9.00001 7.57812H23V4.57812H9.00001V7.57812ZM9.00001 10.2369V9.57812H23L22.9975 10.2439L20.3975 13.7189C20.1411 14.0638 20.0018 14.4817 20 14.9115V28.5781H12L12 14.9156C11.9982 14.4858 11.8589 14.0638 11.6025 13.7189L9.00001 10.2369ZM16 14.5781C16.5523 14.5781 17 15.0258 17 15.5781V19.5781C17 20.1304 16.5523 20.5781 16 20.5781C15.4477 20.5781 15 20.1304 15 19.5781V15.5781C15 15.0258 15.4477 14.5781 16 14.5781Z" fill="white"/>
<path fill-rule="evenodd" clip-rule="evenodd" d="M9.00001 3.07812C8.60218 3.07812 8.22065 3.23616 7.93935 3.51746C7.65804 3.79877 7.50001 4.1803 7.50001 4.57812L7.5 8.57587L7.5 8.57757V8.57868L7.5 8.57983L7.5 10.2406L7.50001 10.2427C7.50134 10.5655 7.60589 10.8794 7.79838 11.1384C7.79825 11.1383 7.79851 11.1386 7.79838 11.1384L10.3832 14.5931C10.4093 14.6247 10.4261 14.653 10.4349 14.6688C10.4535 14.7023 10.465 14.7318 10.4718 14.752C10.4786 14.7722 10.4875 14.8026 10.4931 14.8405C10.4957 14.8588 10.4997 14.8923 10.4979 14.9343C10.4978 14.9353 10.4978 14.9364 10.4977 14.9375L10.5 28.578C10.5 28.9759 10.658 29.3575 10.9393 29.6388C11.2207 29.9201 11.6022 30.0781 12 30.0781H20C20.3978 30.0781 20.7794 29.9201 21.0607 29.6388C21.342 29.3575 21.5 28.9759 21.5 28.5781V14.9193C21.5 14.8114 21.5349 14.7064 21.5995 14.62L24.2012 11.139C24.2011 11.1391 24.2013 11.1388 24.2012 11.139C24.3936 10.88 24.4985 10.566 24.5 10.2434C24.5 10.2431 24.5 10.2436 24.5 10.2434L24.5 10.2406V4.57812C24.5 4.1803 24.342 3.79877 24.0607 3.51747C23.7794 3.23616 23.3978 3.07812 23 3.07812H9.00001ZM10.4977 14.9125C10.4977 14.9053 10.4976 14.8991 10.4974 14.8942L9.99772 14.9126L10.4058 14.6236C10.4037 14.6206 10.4011 14.6171 10.3981 14.613L9.99772 14.9126L10.4977 14.9125ZM9.49772 14.9145L9.49775 15.0789L6.99631 11.7357C6.67614 11.3051 6.50223 10.7833 6.50002 10.2468L6.5 10.2427L6.5 10.2406L6.5 8.58066L6.5 8.57868V8.57757L6.5 8.57587L6.50001 4.57812C6.50001 3.91508 6.7634 3.2792 7.23224 2.81036C7.70108 2.34152 8.33697 2.07812 9.00001 2.07812H23C23.663 2.07812 24.2989 2.34152 24.7678 2.81036C25.2366 3.2792 25.5 3.91509 25.5 4.57812V10.2406L25.5 10.2457L25.5 10.2468C25.4978 10.7834 25.3239 11.3051 25.0037 11.7357L25.003 11.7367L22.5 15.0855V28.5781C22.5 29.2412 22.2366 29.877 21.7678 30.3459C21.2989 30.8147 20.663 31.0781 20 31.0781H12C11.337 31.0781 10.7011 30.8147 10.2322 30.3459C9.76342 29.8771 9.50003 29.2412 9.50001 28.5782C9.50001 28.5782 9.50001 28.5782 9.50001 28.5782L9.49775 15.0789M8.50001 4.57812C8.50001 4.30198 8.72387 4.07812 9.00001 4.07812H23C23.2761 4.07812 23.5 4.30198 23.5 4.57812V7.57812C23.5 7.85427 23.2761 8.07812 23 8.07812H9.00001C8.72387 8.07812 8.50001 7.85427 8.50001 7.57812V4.57812ZM9.50001 5.07812V7.07812H22.5V5.07812H9.50001ZM8.50001 9.57812C8.50001 9.30198 8.72387 9.07812 9.00001 9.07812H23C23.1329 9.07812 23.2604 9.13106 23.3542 9.22523C23.448 9.31939 23.5005 9.44705 23.5 9.57997L23.4975 10.2458C23.4971 10.3531 23.4622 10.4575 23.3979 10.5435L20.7988 14.0173C20.7986 14.0174 20.7989 14.0171 20.7988 14.0173C20.6065 14.2761 20.5015 14.5902 20.5 14.9127V28.5781C20.5 28.8543 20.2762 29.0781 20 29.0781H12C11.8674 29.0781 11.7402 29.0254 11.6465 28.9317C11.5527 28.8379 11.5 28.7107 11.5 28.5781L11.5 14.9167C11.4985 14.5931 11.3933 14.2757 11.2015 14.0176C11.2014 14.0175 11.2016 14.0178 11.2015 14.0176L8.59951 10.5363C8.53491 10.4498 8.50001 10.3448 8.50001 10.2369V9.57812ZM9.50554 10.0781L12.0037 13.4206C12.3245 13.852 12.4978 14.3781 12.5 14.9136L12.5 14.9156L12.5 28.0781H19.5V14.9115L19.5 14.9095C19.5022 14.3729 19.6762 13.8511 19.9963 13.4206L19.9972 13.4194L22.4971 10.0781H9.50554ZM16 15.0781C15.7239 15.0781 15.5 15.302 15.5 15.5781V19.5781C15.5 19.8543 15.7239 20.0781 16 20.0781C16.2761 20.0781 16.5 19.8543 16.5 19.5781V15.5781C16.5 15.302 16.2761 15.0781 16 15.0781ZM14.5 15.5781C14.5 14.7497 15.1716 14.0781 16 14.0781C16.8284 14.0781 17.5 14.7497 17.5 15.5781V19.5781C17.5 20.4066 16.8284 21.0781 16 21.0781C15.1716 21.0781 14.5 20.4066 14.5 19.5781V15.5781Z" fill="white"/>
</svg>
