<svg width="32" height="32" viewBox="0 0 32 32" fill="none" xmlns="http://www.w3.org/2000/svg">
<path d="M12 8C11.4477 8 11 8.44772 11 9C11 9.55229 11.4477 10 12 10H19C19.5523 10 20 9.55229 20 9C20 8.44772 19.5523 8 19 8H12Z" fill="white"/>
<path fill-rule="evenodd" clip-rule="evenodd" d="M6 4C5.46957 4 4.96086 4.21072 4.58579 4.58579C4.21071 4.96086 4 5.46957 4 6V26C4 26.5304 4.21071 27.0391 4.58579 27.4142C4.96086 27.7893 5.46957 28 6 28H26C26.5304 28 27.0391 27.7893 27.4142 27.4142C27.7893 27.0391 28 26.5304 28 26V11.4196L28 11.416C28.0009 11.1547 27.9503 10.8957 27.851 10.654C27.7517 10.4122 27.6057 10.1924 27.4214 10.0072L21.9946 4.5804L21.9929 4.57865C21.8076 4.39431 21.5878 4.24832 21.3461 4.14902C21.1059 4.05036 20.8486 3.99974 20.589 4H6ZM21 26H11V19L21 19V26ZM23 19V26H26V11.4142L20.5858 6.00001L20.5839 6L6 6L6 26H9V19C9 18.4696 9.21071 17.9609 9.58579 17.5858C9.96086 17.2107 10.4696 17 11 17H21C21.5304 17 22.0391 17.2107 22.4142 17.5858C22.7893 17.9609 23 18.4696 23 19Z" fill="white"/>
<path fill-rule="evenodd" clip-rule="evenodd" d="M20.5887 3.5C20.9136 3.49971 21.2355 3.56306 21.536 3.68651C21.8386 3.81078 22.1137 3.99349 22.3455 4.22419C22.3455 4.22417 22.3455 4.2242 22.3455 4.22419L22.3482 4.22684L27.7758 9.65447C28.0065 9.88634 28.1892 10.1614 28.3135 10.464C28.4378 10.7666 28.5012 11.0907 28.5 11.4178L28.5 11.4196V26C28.5 26.663 28.2366 27.2989 27.7678 27.7678C27.2989 28.2366 26.663 28.5 26 28.5H6C5.33696 28.5 4.70108 28.2366 4.23223 27.7678C3.76339 27.2989 3.5 26.663 3.5 26V6C3.5 5.33696 3.76339 4.70107 4.23223 4.23223C4.70107 3.76339 5.33696 3.5 6 3.5H20.5887ZM21.1561 4.61153C20.9763 4.53769 20.7838 4.4998 20.5895 4.5L6 4.5C5.60217 4.5 5.22064 4.65804 4.93934 4.93934C4.65804 5.22065 4.5 5.60218 4.5 6V26C4.5 26.3978 4.65804 26.7794 4.93934 27.0607C5.22065 27.342 5.60218 27.5 6 27.5H26C26.3978 27.5 26.7794 27.342 27.0607 27.0607C27.342 26.7794 27.5 26.3978 27.5 26V11.4196L27.5 11.417L27.5 11.4143C27.5007 11.2187 27.4628 11.0248 27.3885 10.8439C27.3143 10.6632 27.2052 10.499 27.0676 10.3604C27.0674 10.3602 27.0678 10.3606 27.0676 10.3604L21.642 4.93487L21.6411 4.93395L21.6402 4.93312C21.5016 4.79515 21.337 4.68585 21.1561 4.61153ZM6 5.5L20.5852 5.5L20.5871 5.50001C20.7192 5.50034 20.8459 5.55299 20.9394 5.64645L26.3536 11.0606C26.4473 11.1544 26.5 11.2816 26.5 11.4142V26C26.5 26.2761 26.2761 26.5 26 26.5H23C22.7239 26.5 22.5 26.2761 22.5 26V19C22.5 18.6022 22.342 18.2206 22.0607 17.9393C21.7794 17.658 21.3978 17.5 21 17.5H11C10.6022 17.5 10.2206 17.658 9.93934 17.9393C9.65804 18.2206 9.5 18.6022 9.5 19V26C9.5 26.2761 9.27614 26.5 9 26.5H6C5.86739 26.5 5.74021 26.4473 5.64645 26.3536C5.55268 26.2598 5.5 26.1326 5.5 26L5.5 6C5.5 5.72386 5.72386 5.5 6 5.5ZM6.5 6.5L6.5 25.5H8.5V19C8.5 18.337 8.76339 17.7011 9.23223 17.2322C9.70108 16.7634 10.337 16.5 11 16.5H21C21.663 16.5 22.2989 16.7634 22.7678 17.2322C23.2366 17.7011 23.5 18.337 23.5 19V25.5H25.5V11.6213L20.3787 6.5L6.5 6.5ZM10.5 9C10.5 8.17157 11.1716 7.5 12 7.5H19C19.8284 7.5 20.5 8.17157 20.5 9C20.5 9.82843 19.8284 10.5 19 10.5H12C11.1716 10.5 10.5 9.82843 10.5 9ZM12 8.5C11.7239 8.5 11.5 8.72386 11.5 9C11.5 9.27614 11.7239 9.5 12 9.5H19C19.2761 9.5 19.5 9.27614 19.5 9C19.5 8.72386 19.2761 8.5 19 8.5H12ZM10.6464 18.6464C10.7402 18.5527 10.8674 18.5 11 18.5L21 18.5C21.2761 18.5 21.5 18.7239 21.5 19V26C21.5 26.2761 21.2761 26.5 21 26.5H11C10.7239 26.5 10.5 26.2761 10.5 26V19C10.5 18.8674 10.5527 18.7402 10.6464 18.6464ZM11.5 19.5V25.5H20.5V19.5L11.5 19.5Z" fill="white"/>
</svg>
