<svg width="32" height="32" viewBox="0 0 32 32" fill="none" xmlns="http://www.w3.org/2000/svg">
<path d="M21.3364 3.50019L25 3.50019C25.8284 3.50019 26.5 4.17177 26.5 5.00019C26.5 5.82862 25.8284 6.50019 25 6.50019H21.3394C20.7532 6.50185 20.1861 6.70837 19.7362 7.08403C19.2861 7.45981 18.9816 7.98116 18.8755 8.55778L18.8753 8.55877L17.7968 14.5002H23C23.8284 14.5002 24.5 15.1718 24.5 16.0002C24.5 16.8286 23.8284 17.5002 23 17.5002H17.2522L16.0754 23.9832C15.8429 25.2491 15.1745 26.3943 14.1865 27.2192C13.1985 28.0441 11.953 28.4973 10.6659 28.5002L10.6647 28.5002L7 28.5002C6.17157 28.5002 5.5 27.8286 5.5 27.0002C5.5 26.1718 6.17157 25.5002 7 25.5002L10.659 25.5002C11.2453 25.4986 11.814 25.292 12.2638 24.9164C12.7138 24.5406 13.0183 24.0194 13.1245 23.4429L14.2032 17.5002H9C8.17157 17.5002 7.5 16.8286 7.5 16.0002C7.5 15.1718 8.17157 14.5002 9 14.5002H14.7478L15.9241 8.01979C16.1567 6.75385 16.8255 5.60609 17.8135 4.78117C18.8015 3.95625 20.0493 3.50307 21.3364 3.50019Z" fill="white"/>
</svg>
