<svg width="32" height="33" viewBox="0 0 32 33" fill="none" xmlns="http://www.w3.org/2000/svg">
<path fill-rule="evenodd" clip-rule="evenodd" d="M4.91142 21.1645L2.38212 19.7151C1.98135 19.4854 1.70873 19.0839 1.64312 18.6267C1.54564 17.9475 1.49694 17.2629 1.49707 16.5782C1.49694 15.8934 1.54564 15.2087 1.64312 14.5295C1.70873 14.0723 1.98135 13.6708 2.38212 13.4411L4.91142 11.9917C4.95351 11.8964 5.0031 11.7867 5.04637 11.6913L4.35697 8.8497C4.24822 8.40147 4.35174 7.92813 4.63766 7.5662C5.40422 6.59587 6.2936 5.72928 7.28343 4.98819C7.6411 4.71185 8.12132 4.5992 8.59301 4.72687L11.4243 5.49316C11.5156 5.45614 11.6071 5.41968 11.6988 5.38377L13.227 2.88062C13.4673 2.48702 13.8753 2.22583 14.3333 2.17235C14.8872 2.10769 15.444 2.07531 16.0004 2.0752C16.5569 2.07531 17.1134 2.10769 17.6673 2.17235C18.1253 2.22583 18.5333 2.48702 18.7736 2.88062L20.3018 5.38378C20.3935 5.41968 20.485 5.45614 20.5763 5.49316L23.4076 4.72687C23.8793 4.5992 24.3595 4.71186 24.7172 4.98821C25.707 5.7293 26.5964 6.59588 27.363 7.5662C27.6489 7.92812 27.7524 8.40147 27.6437 8.8497L26.9542 11.6913C26.9975 11.7867 27.0471 11.8964 27.0892 11.9917L29.6185 13.4411C30.0193 13.6708 30.2919 14.0723 30.3575 14.5295C30.455 15.2087 30.5037 15.8934 30.5036 16.5782C30.5037 17.2629 30.455 17.9475 30.3575 18.6267C30.2919 19.0839 30.0193 19.4854 29.6185 19.7151L27.0892 21.1645C27.0471 21.2598 26.9975 21.3695 26.9542 21.4649L27.6437 24.3065C27.7524 24.7547 27.6489 25.2281 27.363 25.59C26.5964 26.5603 25.7071 27.4269 24.7173 28.168C24.3596 28.4443 23.8793 28.557 23.4076 28.4293L20.5763 27.663C20.485 27.7001 20.3935 27.7365 20.3018 27.7724L18.7736 30.2756C18.5333 30.6692 18.1253 30.9304 17.6673 30.9838C17.1134 31.0485 16.5567 31.0809 16.0002 31.081C15.4437 31.0809 14.8872 31.0485 14.3333 30.9838C13.8753 30.9304 13.4673 30.6692 13.227 30.2756L11.6988 27.7724C11.6071 27.7365 11.5156 27.7001 11.4243 27.663L8.59301 28.4293C8.12131 28.557 7.64108 28.4443 7.2834 28.168C6.29358 27.4269 5.40421 26.5603 4.63766 25.59C4.35174 25.2281 4.24822 24.7547 4.35697 24.3065L5.04637 21.4649C5.0031 21.3695 4.95351 21.2598 4.91142 21.1645ZM15.3921 5.09159L13.9913 7.38602C13.8028 7.69477 13.5195 7.91192 13.2022 8.02174C12.8383 8.15566 12.4784 8.29936 12.1223 8.45284C11.8111 8.58695 11.4637 8.61177 11.1367 8.52325L8.54105 7.82074C8.15443 8.14904 7.79039 8.50305 7.45143 8.88037L8.08698 11.5C8.17232 11.8518 8.12752 12.2223 7.96136 12.5432L7.52979 13.5524C7.42267 13.8378 7.22776 14.0932 6.95739 14.2731C6.94824 14.2792 6.93888 14.285 6.92933 14.2904L4.5334 15.6658C4.50911 15.9693 4.497 16.2736 4.49707 16.5779C4.497 16.8823 4.50911 17.1869 4.5334 17.4904L6.92933 18.8658C6.93888 18.8712 6.94823 18.877 6.95739 18.8831C7.22776 19.063 7.42268 19.3184 7.5298 19.6038L7.96136 20.613C8.12752 20.9339 8.17232 21.3044 8.08698 21.6562L7.45143 24.2758C7.79039 24.6531 8.15443 25.0072 8.54105 25.3355L11.1367 24.6329C11.4637 24.5444 11.8111 24.5692 12.1223 24.7034C12.4784 24.8568 12.8383 25.0005 13.2022 25.1345C13.5195 25.2443 13.8028 25.4614 13.9913 25.7702L15.3921 28.0646C15.5947 28.0755 15.7974 28.0809 16.0002 28.081C16.2029 28.0809 16.406 28.0755 16.6085 28.0646L18.0093 25.7702C18.1978 25.4614 18.4812 25.2443 18.7984 25.1345C19.1623 25.0005 19.5223 24.8568 19.8783 24.7034C20.1895 24.5692 20.5369 24.5444 20.8639 24.6329L23.4596 25.3355C23.8462 25.0072 24.2102 24.6531 24.5492 24.2758L23.9136 21.6562C23.8283 21.3044 23.8731 20.9339 24.0393 20.613L24.4708 19.6038C24.578 19.3184 24.7729 19.063 25.0432 18.8831C25.0524 18.877 25.0617 18.8712 25.0713 18.8658L27.4672 17.4904C27.4915 17.1869 27.5036 16.8823 27.5036 16.5779C27.5036 16.2736 27.4915 15.9693 27.4672 15.6658L25.0713 14.2904C25.0617 14.285 25.0524 14.2792 25.0432 14.2731C24.7729 14.0932 24.578 13.8378 24.4708 13.5524L24.0393 12.5432C23.8731 12.2223 23.8283 11.8518 23.9136 11.5L24.5492 8.88037C24.2102 8.50305 23.8462 8.14904 23.4596 7.82074L20.8639 8.52325C20.5369 8.61177 20.1895 8.58695 19.8783 8.45284C19.5223 8.29936 19.1623 8.15567 18.7984 8.02175C18.4812 7.91193 18.1978 7.69478 18.0093 7.38602L16.6085 5.09159L16.0002 5.0752L15.3921 5.09159ZM8.50031 16.5781C8.50031 12.4359 11.8582 9.07807 16.0003 9.07807C20.1424 9.07807 23.5003 12.4359 23.5003 16.5781C23.5003 20.7202 20.1425 24.0781 16.0003 24.0781C11.8582 24.0781 8.50031 20.7202 8.50031 16.5781ZM16.0003 12.0781C13.515 12.0781 11.5003 14.0928 11.5003 16.5781C11.5003 19.0634 13.515 21.0781 16.0003 21.0781C18.4856 21.0781 20.5003 19.0634 20.5003 16.5781C20.5003 14.0928 18.4856 12.0781 16.0003 12.0781Z" fill="white"/>
</svg>
