<svg width="32" height="32" viewBox="0 0 32 32" fill="none" xmlns="http://www.w3.org/2000/svg">
<path fill-rule="evenodd" clip-rule="evenodd" d="M23.5427 6.46272C23.5427 7.39173 23.2199 8.28746 22.6365 9H27C28.1046 9 29 9.89543 29 11V15C29 16.1046 28.1046 17 27 17V25C27 25.5304 26.7893 26.0391 26.4142 26.4142C26.0391 26.7893 25.5304 27 25 27H7C6.46957 27 5.96086 26.7893 5.58579 26.4142C5.21071 26.0391 5 25.5304 5 25V17C3.89543 17 3 16.1046 3 15V11C3 9.89543 3.89543 9 5 9H9.36345C8.78003 8.28746 8.45728 7.39173 8.45728 6.46272C8.45728 5.40048 8.87925 4.38174 9.63037 3.63062C10.3815 2.8795 11.4002 2.45752 12.4625 2.45752C13.5247 2.45752 14.5435 2.8795 15.2946 3.63062L15.2977 3.63373C15.5862 3.92481 15.8156 4.27494 16 4.64297C16.1844 4.27495 16.4138 3.92482 16.7023 3.63374L16.7054 3.63062C17.4565 2.8795 18.4753 2.45752 19.5375 2.45752C20.5997 2.45752 21.6185 2.8795 22.3696 3.63062C23.1207 4.38174 23.5427 5.40048 23.5427 6.46272ZM18.1213 5.04318C17.9267 5.24025 17.7231 5.60269 17.5449 6.13905C17.3718 6.6598 17.25 7.25934 17.1665 7.84459C17.1096 8.24335 17.0721 8.6242 17.0473 8.95294C17.376 8.92816 17.7569 8.89058 18.1556 8.83369C18.7409 8.75018 19.3404 8.62844 19.8612 8.45536C20.3976 8.27709 20.76 8.07351 20.9571 7.87893C21.3321 7.50304 21.5427 6.99374 21.5427 6.46272C21.5427 5.93091 21.3314 5.42088 20.9554 5.04483C20.5793 4.66878 20.0693 4.45752 19.5375 4.45752C19.0065 4.45752 18.4972 4.66816 18.1213 5.04318ZM21.6625 8.58772L22.0748 9H22.0712L21.6625 8.58772ZM9.9252 9H9.92882L10.3375 8.58772L9.9252 9ZM17 25H25V17H17V25ZM15 17V25H7V17H15ZM17 15H27V11H17V15ZM15 11V15H5V11H15ZM12.1388 8.45536C11.6024 8.27709 11.24 8.07351 11.0429 7.87893C10.6679 7.50304 10.4573 6.99374 10.4573 6.46272C10.4573 5.93091 10.6685 5.42088 11.0446 5.04483C11.4206 4.66878 11.9307 4.45752 12.4625 4.45752C12.9935 4.45752 13.5028 4.66815 13.8787 5.04315C14.0733 5.24021 14.2768 5.60266 14.4551 6.13905C14.6282 6.6598 14.7499 7.25934 14.8334 7.84459C14.8903 8.24335 14.9279 8.6242 14.9527 8.95294C14.624 8.92816 14.2431 8.89058 13.8444 8.83369C13.2591 8.75018 12.6596 8.62844 12.1388 8.45536Z" fill="white"/>
<path fill-rule="evenodd" clip-rule="evenodd" d="M12.4625 2.95752C11.5328 2.95752 10.6413 3.32682 9.98393 3.98417C9.32657 4.64152 8.95728 5.53309 8.95728 6.46272C8.95728 7.22405 9.20496 7.95986 9.65571 8.56239L9.98237 8.23573L9.98392 8.23417C10.1784 8.03966 10.4934 8.03887 10.6889 8.23207C10.2204 7.76246 9.95728 7.12615 9.95728 6.46272C9.95728 5.7983 10.2212 5.16109 10.691 4.69128C11.1608 4.22146 11.7981 3.95752 12.4625 3.95752C13.1259 3.95752 13.7622 4.22067 14.2318 4.68917L14.2345 4.69183C14.5077 4.96849 14.7414 5.41518 14.9296 5.98136C15.1155 6.54058 15.2425 7.17199 15.3284 7.77397C15.3872 8.18591 15.4259 8.57805 15.4513 8.91536C15.4622 9.06064 15.4093 9.20347 15.3062 9.30649C15.2032 9.40951 15.0604 9.46247 14.9151 9.45152C14.5778 9.4261 14.1857 9.38745 13.7737 9.32867C13.1717 9.24278 12.5403 9.1157 11.9811 8.92984C11.4149 8.74167 10.9683 8.5079 10.6916 8.23472L10.6903 8.23339C10.8856 8.42792 10.8867 8.7439 10.6926 8.93972L10.691 8.94128L10.2839 9.35199C10.19 9.44671 10.0622 9.5 9.92882 9.5H9.9252C9.82279 9.5 9.72548 9.46876 9.64433 9.41365C9.56303 9.46885 9.46566 9.5 9.36345 9.5H5C4.17157 9.5 3.5 10.1716 3.5 11V15C3.5 15.8284 4.17157 16.5 5 16.5C5.27614 16.5 5.5 16.7239 5.5 17V25C5.5 25.3978 5.65804 25.7794 5.93934 26.0607C6.22065 26.342 6.60218 26.5 7 26.5H25C25.3978 26.5 25.7794 26.342 26.0607 26.0607C26.342 25.7794 26.5 25.3978 26.5 25V17C26.5 16.7239 26.7239 16.5 27 16.5C27.8284 16.5 28.5 15.8284 28.5 15V11C28.5 10.1716 27.8284 9.5 27 9.5H22.6365C22.5343 9.5 22.437 9.46885 22.3557 9.41365C22.2745 9.46876 22.1772 9.5 22.0748 9.5H22.0712C21.9378 9.5 21.8099 9.44671 21.7161 9.35199L21.3089 8.94128L21.3074 8.93972C21.1137 8.74435 21.1143 8.42935 21.3084 8.23472C21.0317 8.5079 20.585 8.74167 20.0189 8.92984C19.4597 9.1157 18.8282 9.24278 18.2263 9.32867C17.8143 9.38745 17.4222 9.4261 17.0849 9.45152C16.9396 9.46247 16.7967 9.40951 16.6937 9.30649C16.5907 9.20347 16.5377 9.06064 16.5487 8.91536C16.5741 8.57805 16.6128 8.18591 16.6715 7.77397C16.7574 7.17199 16.8845 6.54057 17.0704 5.98136C17.2585 5.41521 17.4923 4.96855 17.7655 4.69189L17.7681 4.68921C18.2377 4.22069 18.8741 3.95752 19.5375 3.95752C20.2019 3.95752 20.8391 4.22146 21.3089 4.69128C21.7788 5.16109 22.0427 5.7983 22.0427 6.46272C22.0427 7.12615 21.7796 7.76245 21.3111 8.23206L21.3097 8.23339C21.5051 8.03886 21.8211 8.03921 22.0161 8.23417L22.0176 8.23573L22.3443 8.56239C22.795 7.95986 23.0427 7.22405 23.0427 6.46272C23.0427 5.53309 22.6734 4.64152 22.0161 3.98417C21.3587 3.32682 20.4671 2.95752 19.5375 2.95752C18.608 2.95752 17.7165 3.32672 17.0592 3.98391L17.0574 3.98573C16.8158 4.22949 16.6148 4.53207 16.447 4.86694C16.3623 5.03614 16.1892 5.14297 16 5.14297C15.8107 5.14297 15.6377 5.03613 15.553 4.86694C15.3854 4.53242 15.1846 4.23013 14.9434 3.9865L14.9426 3.98572L14.9411 3.9842C14.2837 3.32685 13.3921 2.95752 12.4625 2.95752ZM9.27682 3.27706C10.1217 2.43217 11.2676 1.95752 12.4625 1.95752C13.6573 1.95752 14.8033 2.43217 15.6481 3.27706L15.6528 3.28174C15.7792 3.40923 15.8945 3.54515 16 3.68649C16.1054 3.54515 16.2208 3.40924 16.3472 3.28175L16.3518 3.27706C17.1967 2.43217 18.3426 1.95752 19.5375 1.95752C20.7324 1.95752 21.8783 2.43217 22.7232 3.27706C23.568 4.12195 24.0427 5.26787 24.0427 6.46272C24.0427 7.1773 23.8729 7.87436 23.5558 8.5H27C28.3807 8.5 29.5 9.61929 29.5 11V15C29.5 16.2095 28.6411 17.2184 27.5 17.45V25C27.5 25.663 27.2366 26.2989 26.7678 26.7678C26.2989 27.2366 25.663 27.5 25 27.5H7C6.33696 27.5 5.70108 27.2366 5.23223 26.7678C4.76339 26.2989 4.5 25.663 4.5 25V17.45C3.35888 17.2184 2.5 16.2095 2.5 15V11C2.5 9.61929 3.61929 8.5 5 8.5H8.44422C8.12704 7.87436 7.95728 7.1773 7.95728 6.46272C7.95728 5.26787 8.43193 4.12195 9.27682 3.27706ZM12.4625 4.95752C12.0633 4.95752 11.6804 5.1161 11.3981 5.39838C11.1159 5.68066 10.9573 6.06352 10.9573 6.46272C10.9573 6.86065 11.1148 7.24234 11.3954 7.52435C11.5136 7.64033 11.7917 7.81309 12.2965 7.98088C12.7788 8.14117 13.3464 8.25758 13.915 8.3387C14.0803 8.36229 14.2427 8.38247 14.3995 8.39974C14.3822 8.24293 14.362 8.08054 14.3385 7.91522C14.2573 7.34669 14.1409 6.77903 13.9806 6.29675C13.8129 5.79191 13.6401 5.51387 13.5241 5.39569C13.2421 5.1151 12.8604 4.95752 12.4625 4.95752ZM18.4759 5.39569C18.3599 5.51387 18.1871 5.79192 18.0193 6.29675C17.8591 6.77903 17.7426 7.34669 17.6615 7.91522C17.6379 8.08055 17.6177 8.24293 17.6005 8.39974C17.7573 8.38247 17.9197 8.36229 18.085 8.3387C18.6535 8.25758 19.2212 8.14117 19.7035 7.98088C20.2083 7.81309 20.4864 7.64033 20.6045 7.52435C20.8851 7.24234 21.0427 6.86065 21.0427 6.46272C21.0427 6.06352 20.8841 5.68066 20.6018 5.39838C20.3196 5.1161 19.9367 4.95752 19.5375 4.95752C19.1396 4.95752 18.7579 5.1151 18.4759 5.39569ZM4.5 11C4.5 10.7239 4.72386 10.5 5 10.5H15C15.2761 10.5 15.5 10.7239 15.5 11V15C15.5 15.2761 15.2761 15.5 15 15.5H5C4.72386 15.5 4.5 15.2761 4.5 15V11ZM5.5 11.5V14.5H14.5V11.5H5.5ZM16.5 11C16.5 10.7239 16.7239 10.5 17 10.5H27C27.2761 10.5 27.5 10.7239 27.5 11V15C27.5 15.2761 27.2761 15.5 27 15.5H17C16.7239 15.5 16.5 15.2761 16.5 15V11ZM17.5 11.5V14.5H26.5V11.5H17.5ZM6.5 17C6.5 16.7239 6.72386 16.5 7 16.5H15C15.2761 16.5 15.5 16.7239 15.5 17V25C15.5 25.2761 15.2761 25.5 15 25.5H7C6.72386 25.5 6.5 25.2761 6.5 25V17ZM7.5 17.5V24.5H14.5V17.5H7.5ZM16.5 17C16.5 16.7239 16.7239 16.5 17 16.5H25C25.2761 16.5 25.5 16.7239 25.5 17V25C25.5 25.2761 25.2761 25.5 25 25.5H17C16.7239 25.5 16.5 25.2761 16.5 25V17ZM17.5 17.5V24.5H24.5V17.5H17.5Z" fill="white"/>
</svg>
