<svg width="32" height="33" viewBox="0 0 32 33" fill="none" xmlns="http://www.w3.org/2000/svg">
<path fill-rule="evenodd" clip-rule="evenodd" d="M22.9839 5.67915C23.0827 5.13577 22.7223 4.61519 22.1789 4.51639C21.6355 4.41759 21.1149 4.778 21.0161 5.32137L19.8927 11.5001H13.9255L14.9839 5.67915C15.0827 5.13577 14.7223 4.61519 14.1789 4.51639C13.6355 4.41759 13.1149 4.778 13.0161 5.32137L11.8927 11.5001H5.45001C4.89773 11.5001 4.45001 11.9478 4.45001 12.5001C4.45001 13.0524 4.89773 13.5001 5.45001 13.5001H11.5291L10.4382 19.5001H4C3.44772 19.5001 3 19.9478 3 20.5001C3 21.0524 3.44772 21.5001 4 21.5001H10.0745L9.01612 27.3214C8.91732 27.8648 9.27773 28.3853 9.82111 28.4841C10.3645 28.5829 10.8851 28.2225 10.9839 27.6791L12.1073 21.5001H18.0745L17.0161 27.3214C16.9173 27.8648 17.2777 28.3853 17.8211 28.4841C18.3645 28.5829 18.8851 28.2225 18.9839 27.6791L20.1073 21.5001H26.55C27.1023 21.5001 27.55 21.0524 27.55 20.5001C27.55 19.9478 27.1023 19.5001 26.55 19.5001H20.471L21.5619 13.5001H28C28.5523 13.5001 29 13.0524 29 12.5001C29 11.9478 28.5523 11.5001 28 11.5001H21.9255L22.9839 5.67915ZM18.4382 19.5001L19.5291 13.5001H13.5619L12.471 19.5001H18.4382Z" fill="white"/>
<path fill-rule="evenodd" clip-rule="evenodd" d="M12.5242 5.23193C12.6724 4.41687 13.4533 3.87626 14.2683 4.02446C15.0834 4.17265 15.624 4.95352 15.4758 5.76859L14.5246 11.0001H19.4754L20.5242 5.23193C20.6724 4.41687 21.4533 3.87626 22.2683 4.02446C23.0834 4.17265 23.624 4.95352 23.4758 5.76859L22.5246 11.0001H28C28.8284 11.0001 29.5 11.6717 29.5 12.5001C29.5 13.3285 28.8284 14.0001 28 14.0001H21.9792L21.0701 19.0001H26.55C27.3784 19.0001 28.05 19.6717 28.05 20.5001C28.05 21.3285 27.3784 22.0001 26.55 22.0001H20.5246L19.4758 27.7686C19.3276 28.5837 18.5467 29.1243 17.7317 28.9761C16.9166 28.8279 16.376 28.047 16.5242 27.2319L17.4754 22.0001H12.5246L11.4758 27.7686C11.3276 28.5837 10.5467 29.1243 9.73166 28.9761C8.9166 28.8279 8.37599 28.047 8.52419 27.2319L9.47543 22.0001H4C3.17157 22.0001 2.5 21.3285 2.5 20.5001C2.5 19.6717 3.17157 19.0001 4 19.0001H10.0209L10.93 14.0001H5.45001C4.62158 14.0001 3.95001 13.3285 3.95001 12.5001C3.95001 11.6717 4.62159 11.0001 5.45001 11.0001H11.4754L12.5242 5.23193ZM14.0894 5.00833C13.8177 4.95893 13.5575 5.13913 13.5081 5.41082L12.3847 11.5895C12.3414 11.8273 12.1344 12.0001 11.8927 12.0001H5.45001C5.17387 12.0001 4.95001 12.2239 4.95001 12.5001C4.95001 12.7762 5.17387 13.0001 5.45001 13.0001H11.5291C11.6773 13.0001 11.818 13.0659 11.913 13.1797C12.008 13.2935 12.0475 13.4437 12.021 13.5895L10.9301 19.5895C10.8869 19.8273 10.6798 20.0001 10.4382 20.0001H4C3.72386 20.0001 3.5 20.2239 3.5 20.5001C3.5 20.7762 3.72386 21.0001 4 21.0001H10.0745C10.2228 21.0001 10.3634 21.0659 10.4584 21.1797C10.5534 21.2935 10.593 21.4437 10.5665 21.5895L9.50806 27.4108C9.45866 27.6825 9.63886 27.9428 9.91055 27.9922C10.1822 28.0416 10.4425 27.8614 10.4919 27.5897L11.6154 21.4106C11.6586 21.1729 11.8657 21.0001 12.1073 21.0001H18.0745C18.2228 21.0001 18.3634 21.0659 18.4584 21.1797C18.5534 21.2935 18.593 21.4437 18.5665 21.5895L17.5081 27.4108C17.4587 27.6825 17.6389 27.9428 17.9105 27.9922C18.1822 28.0416 18.4425 27.8614 18.4919 27.5897L19.6154 21.4106C19.6586 21.1729 19.8657 21.0001 20.1073 21.0001H26.55C26.8261 21.0001 27.05 20.7762 27.05 20.5001C27.05 20.2239 26.8261 20.0001 26.55 20.0001H20.471C20.3227 20.0001 20.1821 19.9343 20.0871 19.8205C19.9921 19.7066 19.9525 19.5565 19.979 19.4106L21.0699 13.4106C21.1132 13.1729 21.3202 13.0001 21.5619 13.0001H28C28.2762 13.0001 28.5 12.7762 28.5 12.5001C28.5 12.2239 28.2762 12.0001 28 12.0001H21.9255C21.7772 12.0001 21.6366 11.9343 21.5416 11.8205C21.4466 11.7066 21.407 11.5565 21.4336 11.4106L22.4919 5.5897C22.5413 5.31802 22.3611 5.05772 22.0894 5.00833C21.8177 4.95893 21.5575 5.13913 21.5081 5.41082L20.3847 11.5895C20.3414 11.8273 20.1344 12.0001 19.8927 12.0001H13.9255C13.7772 12.0001 13.6366 11.9343 13.5416 11.8205C13.4466 11.7066 13.4071 11.5565 13.4336 11.4106L14.4919 5.5897C14.5413 5.31801 14.3611 5.05772 14.0894 5.00833ZM13.0699 13.4106C13.1132 13.1729 13.3202 13.0001 13.5619 13.0001H19.5291C19.6773 13.0001 19.818 13.0659 19.913 13.1797C20.008 13.2935 20.0475 13.4437 20.021 13.5895L18.9301 19.5895C18.8869 19.8273 18.6798 20.0001 18.4382 20.0001H12.471C12.3227 20.0001 12.1821 19.9343 12.0871 19.8205C11.9921 19.7066 11.9525 19.5565 11.979 19.4106L13.0699 13.4106ZM13.9792 14.0001L13.0701 19.0001H18.0209L18.93 14.0001H13.9792Z" fill="white"/>
</svg>
