<svg width="32" height="33" viewBox="0 0 32 33" fill="none" xmlns="http://www.w3.org/2000/svg">
<path fill-rule="evenodd" clip-rule="evenodd" d="M13.7601 4.93873C12.1277 4.06949 10.2446 3.79267 8.43107 4.15537C6.61758 4.51807 4.98577 5.49788 3.81326 6.9281C2.64076 8.35833 2 10.1506 2 12C2 16.9404 5.57958 21.2022 8.74655 24.0525C10.3754 25.5184 11.9974 26.7018 13.2091 27.5177C13.8164 27.9266 14.3242 28.2456 14.6831 28.464C14.8602 28.5718 15.1494 28.7403 15.2521 28.8001L15.2596 28.8046L15.2671 28.8088C15.7224 29.0638 16.2776 29.0638 16.7329 28.8088L16.7479 28.8001C16.8506 28.7403 17.1398 28.5718 17.3169 28.464C17.6758 28.2456 18.1836 27.9266 18.7909 27.5177C20.0026 26.7018 21.6246 25.5184 23.2534 24.0525C26.4204 21.2022 30 16.9404 30 12C30 10.1506 29.3592 8.35833 28.1867 6.9281C27.0142 5.49788 25.3824 4.51807 23.5689 4.15537C21.7554 3.79267 19.8723 4.06949 18.2399 4.93873C17.3869 5.39296 16.6299 5.99428 16 6.70851C15.3701 5.99428 14.6131 5.39296 13.7601 4.93873ZM12.3501 7.58671C11.3298 7.04344 10.1529 6.87042 9.01942 7.09711C7.88599 7.3238 6.8661 7.93618 6.13329 8.83007C5.40048 9.72396 5 10.8441 5 12C5 15.5596 7.67045 19.0479 10.7534 21.8226C12.2496 23.1691 13.7526 24.2669 14.8847 25.0292C15.3139 25.3183 15.6978 25.5638 16 25.7517C16.3022 25.5638 16.6861 25.3183 17.1153 25.0292C18.2474 24.2669 19.7504 23.1691 21.2466 21.8226C24.3295 19.0479 27 15.5596 27 12C27 10.8441 26.5995 9.72396 25.8667 8.83007C25.1339 7.93618 24.114 7.3238 22.9806 7.09711C21.8471 6.87042 20.6702 7.04344 19.6499 7.58671C18.63 8.12982 17.8297 9.00941 17.385 10.0759C17.0582 10.8703 16.3908 11.1263 16.0044 11.1305L15.9921 11.1306C15.605 11.1254 14.9409 10.8683 14.6149 10.0758C14.1702 9.00933 13.3699 8.12979 12.3501 7.58671Z" fill="white"/>
</svg>
