<svg width="32" height="33" viewBox="0 0 32 33" fill="none" xmlns="http://www.w3.org/2000/svg">
<path d="M8.43107 4.15537C10.2446 3.79267 12.1277 4.06949 13.7601 4.93873C14.6131 5.39296 15.3701 5.99428 16 6.70851C16.6299 5.99428 17.3869 5.39296 18.2399 4.93873C19.8723 4.06949 21.7554 3.79267 23.5689 4.15537C25.3824 4.51807 27.0142 5.49788 28.1867 6.9281C29.3592 8.35833 30 10.1506 30 12C30 16.9404 26.4204 21.2022 23.2534 24.0525C21.6246 25.5184 20.0026 26.7018 18.7909 27.5177C18.1836 27.9266 17.6758 28.2456 17.3169 28.464C17.1399 28.5717 16.8509 28.7401 16.7481 28.8L16.7479 28.8001L16.7329 28.8088C16.2776 29.0638 15.7224 29.0638 15.2671 28.8088L15.2596 28.8046L15.2521 28.8001L15.2519 28.8C15.1491 28.7401 14.8601 28.5717 14.6831 28.464C14.3242 28.2456 13.8164 27.9266 13.2091 27.5177C11.9974 26.7018 10.3754 25.5184 8.74655 24.0525C5.57958 21.2022 2 16.9404 2 12C2 10.1506 2.64076 8.35833 3.81326 6.9281C4.98577 5.49788 6.61758 4.51807 8.43107 4.15537Z" fill="white"/>
</svg>
