<svg width="32" height="32" viewBox="0 0 32 32" fill="none" xmlns="http://www.w3.org/2000/svg">
<path fill-rule="evenodd" clip-rule="evenodd" d="M3.5 6C3.5 4.61929 4.61929 3.5 6 3.5H26C27.3807 3.5 28.5 4.61929 28.5 6V26C28.5 27.3807 27.3807 28.5 26 28.5H6C4.61929 28.5 3.5 27.3807 3.5 26V6ZM19.2227 13.6559L14 18.8786L11.7773 16.6559L11.7763 16.6548C11.5447 16.421 11.2692 16.2352 10.9655 16.108C10.6597 15.98 10.3315 15.9141 10 15.9141C9.66847 15.9141 9.34025 15.98 9.03446 16.108C8.73085 16.2352 8.45535 16.421 8.22376 16.6548L8.22269 16.6559L6.5 18.3786V6.5H25.5V16.3786L22.7772 13.6558L22.7761 13.6547C22.5446 13.4209 22.2691 13.2351 21.9655 13.108C21.6597 12.98 21.3315 12.9141 21 12.9141C20.6685 12.9141 20.3403 12.98 20.0345 13.108C19.7308 13.2352 19.4553 13.421 19.2237 13.6548L19.2227 13.6559ZM10.5 11.5C10.5 10.3954 11.3954 9.5 12.5 9.5C13.6046 9.5 14.5 10.3954 14.5 11.5C14.5 12.6046 13.6046 13.5 12.5 13.5C11.3954 13.5 10.5 12.6046 10.5 11.5ZM21 16.1212L15.7773 21.3439L15.7765 21.3447C15.5448 21.5787 15.2693 21.7646 14.9655 21.8917C14.6597 22.0198 14.3315 22.0857 14 22.0857C13.6685 22.0857 13.3403 22.0198 13.0345 21.8917C12.7308 21.7646 12.4553 21.5788 12.2237 21.345L12.2226 21.3438L10 19.1212L6.5 22.6212V25.5H25.5V20.6212L21 16.1212Z" fill="white"/>
</svg>
