<svg width="100%" height="100%" viewBox="0 0 32 33" fill="none" xmlns="http://www.w3.org/2000/svg">
<path fill-rule="evenodd" clip-rule="evenodd" d="M8 8.5C8.55228 8.5 9 8.94772 9 9.5V22.5H26C26.5523 22.5 27 22.9477 27 23.5C27 24.0523 26.5523 24.5 26 24.5H8C7.44772 24.5 7 24.0523 7 23.5V9.5C7 8.94772 7.44772 8.5 8 8.5Z" fill="white"/>
<path fill-rule="evenodd" clip-rule="evenodd" d="M6.5 9.5C6.5 8.67157 7.17157 8 8 8C8.82843 8 9.5 8.67157 9.5 9.5V22H26C26.8284 22 27.5 22.6716 27.5 23.5C27.5 24.3284 26.8284 25 26 25H8C7.17157 25 6.5 24.3284 6.5 23.5V9.5ZM8 9C7.72386 9 7.5 9.22386 7.5 9.5V23.5C7.5 23.7761 7.72386 24 8 24H26C26.2761 24 26.5 23.7761 26.5 23.5C26.5 23.2239 26.2761 23 26 23H9C8.72386 23 8.5 22.7761 8.5 22.5V9.5C8.5 9.22386 8.27614 9 8 9Z" fill="white"/>
</svg>
