<svg width="32" height="33" viewBox="0 0 32 33" fill="none" xmlns="http://www.w3.org/2000/svg">
<path fill-rule="evenodd" clip-rule="evenodd" d="M7 10.5C7 9.94772 7.44772 9.5 8 9.5H26C26.5523 9.5 27 9.94772 27 10.5C27 11.0523 26.5523 11.5 26 11.5H9V24.5C9 25.0523 8.55228 25.5 8 25.5C7.44772 25.5 7 25.0523 7 24.5V10.5Z" fill="white"/>
<path fill-rule="evenodd" clip-rule="evenodd" d="M6.5 10.5C6.5 9.67157 7.17157 9 8 9H26C26.8284 9 27.5 9.67157 27.5 10.5C27.5 11.3284 26.8284 12 26 12H9.5V24.5C9.5 25.3284 8.82843 26 8 26C7.17157 26 6.5 25.3284 6.5 24.5V10.5ZM8 10C7.72386 10 7.5 10.2239 7.5 10.5V24.5C7.5 24.7761 7.72386 25 8 25C8.27614 25 8.5 24.7761 8.5 24.5V11.5C8.5 11.2239 8.72386 11 9 11H26C26.2761 11 26.5 10.7761 26.5 10.5C26.5 10.2239 26.2761 10 26 10H8Z" fill="white"/>
</svg>
