<svg width="32" height="33" viewBox="0 0 32 33" fill="none" xmlns="http://www.w3.org/2000/svg">
<path fill-rule="evenodd" clip-rule="evenodd" d="M5 10.5C5 9.94772 5.44772 9.5 6 9.5H24C24.5523 9.5 25 9.94772 25 10.5V24.5C25 25.0523 24.5523 25.5 24 25.5C23.4477 25.5 23 25.0523 23 24.5V11.5H6C5.44772 11.5 5 11.0523 5 10.5Z" fill="white"/>
<path fill-rule="evenodd" clip-rule="evenodd" d="M4.5 10.5C4.5 9.67157 5.17157 9 6 9H24C24.8284 9 25.5 9.67157 25.5 10.5V24.5C25.5 25.3284 24.8284 26 24 26C23.1716 26 22.5 25.3284 22.5 24.5V12H6C5.17157 12 4.5 11.3284 4.5 10.5ZM6 10C5.72386 10 5.5 10.2239 5.5 10.5C5.5 10.7761 5.72386 11 6 11H23C23.2761 11 23.5 11.2239 23.5 11.5V24.5C23.5 24.7761 23.7239 25 24 25C24.2761 25 24.5 24.7761 24.5 24.5V10.5C24.5 10.2239 24.2761 10 24 10H6Z" fill="white"/>
</svg>
