<svg width="32" height="33" viewBox="0 0 32 33" fill="none" xmlns="http://www.w3.org/2000/svg">
<path fill-rule="evenodd" clip-rule="evenodd" d="M24 8.5C24.5523 8.5 25 8.94772 25 9.5V23.5C25 24.0523 24.5523 24.5 24 24.5H6C5.44772 24.5 5 24.0523 5 23.5C5 22.9477 5.44772 22.5 6 22.5H23V9.5C23 8.94772 23.4477 8.5 24 8.5Z" fill="white"/>
<path fill-rule="evenodd" clip-rule="evenodd" d="M22.5 9.5C22.5 8.67157 23.1716 8 24 8C24.8284 8 25.5 8.67157 25.5 9.5V23.5C25.5 24.3284 24.8284 25 24 25H6C5.17157 25 4.5 24.3284 4.5 23.5C4.5 22.6716 5.17157 22 6 22H22.5V9.5ZM24 9C23.7239 9 23.5 9.22386 23.5 9.5V22.5C23.5 22.7761 23.2761 23 23 23H6C5.72386 23 5.5 23.2239 5.5 23.5C5.5 23.7761 5.72386 24 6 24H24C24.2761 24 24.5 23.7761 24.5 23.5V9.5C24.5 9.22386 24.2761 9 24 9Z" fill="white"/>
</svg>
