<svg width="32" height="32" viewBox="0 0 32 32" fill="none" xmlns="http://www.w3.org/2000/svg">
<path d="M5.13915 9.0839C6.50655 8.51681 8.01137 8.36777 9.46344 8.65561C10.9155 8.94346 12.2497 9.65528 13.2974 10.7011L20.8407 19.1943C21.4658 19.8112 22.2583 20.2312 23.1201 20.402C23.9904 20.5746 24.8923 20.4852 25.7118 20.1454C26.5314 19.8055 27.2317 19.2303 27.7245 18.4925C28.2172 17.7547 28.4802 16.8874 28.4802 16.0002C28.4802 15.113 28.2172 14.2457 27.7245 13.5079C27.2317 12.7701 26.5314 12.1949 25.7118 11.855C24.8923 11.5152 23.9904 11.4258 23.1201 11.5984C22.2636 11.7681 21.4755 12.1841 20.8522 12.7948L19.7969 13.9835C19.2469 14.6031 18.2988 14.6594 17.6793 14.1094C17.0598 13.5595 17.0034 12.6114 17.5534 11.9919L18.6409 10.7669C18.6609 10.7443 18.6816 10.7224 18.7029 10.7011C19.7031 9.56743 21.6756 8.86508 22.5368 8.65561C23.9889 8.36777 25.4937 8.51681 26.8611 9.0839C28.2285 9.651 29.3971 10.6107 30.2193 11.8417C31.0414 13.0728 31.4802 14.5199 31.4802 16.0002C31.4802 17.4805 31.0414 18.9276 30.2193 20.1587C29.3971 21.3897 28.2285 22.3494 26.8611 22.9165C25.4937 23.4836 23.9889 23.6326 22.5368 23.3448C21.0847 23.0569 19.7506 22.3451 18.7029 21.2993L11.1595 12.8061C10.5344 12.1892 9.74193 11.7692 8.8801 11.5984C8.00983 11.4258 7.10794 11.5152 6.28842 11.855C5.46889 12.1949 4.7685 12.7701 4.27576 13.5079C3.78301 14.2457 3.52002 15.113 3.52002 16.0002C3.52002 16.8874 3.78301 17.7547 4.27576 18.4925C4.7685 19.2303 5.46889 19.8055 6.28842 20.1454C7.10794 20.4852 8.00983 20.5746 8.8801 20.402C9.73665 20.2323 10.5248 19.8163 11.1481 19.2056L12.2034 18.0169C12.7534 17.3973 13.7014 17.341 14.321 17.891C14.9405 18.4409 14.9969 19.389 14.4469 20.0085L13.3594 21.2335C13.3394 21.2561 13.3187 21.278 13.2974 21.2993C12.2497 22.3451 10.9155 23.0569 9.46345 23.3448C8.01137 23.6326 6.50655 23.4836 5.13915 22.9165C3.77176 22.3494 2.60314 21.3897 1.78098 20.1587C0.958823 18.9276 0.52002 17.4805 0.52002 16.0002C0.52002 14.5199 0.958823 13.0728 1.78098 11.8417C2.60314 10.6107 3.77175 9.651 5.13915 9.0839Z" fill="white"/>
</svg>
