<svg width="100%" height="100%" viewBox="0 0 185 61" fill="none" xmlns="http://www.w3.org/2000/svg">
<g clip-path="url(#clip0_2214_14246)">
<path d="M123.995 20.324H113.319V59.2542H123.995V20.324Z" fill="#BFF009"/>
<path d="M163.885 19.9192C152.934 19.9056 145.276 26.9916 143.909 37.0409C142.778 44.8906 145.91 53.3583 152.73 57.4491C158.817 61.2989 168.334 61.0444 173.475 55.7037V59.249H184.069V40.1864C184.069 28.9915 175.032 19.9192 163.885 19.9192ZM163.885 50.0631C158.455 50.0631 154.056 45.6406 154.056 40.1911C154.056 34.7412 158.459 30.3187 163.885 30.3187C169.312 30.3187 173.715 34.7412 173.715 40.1911C173.715 45.6406 169.312 50.0631 163.885 50.0631Z" fill="#BFF009"/>
<path d="M71.288 15.6467C71.288 13.2923 73.1977 11.3742 75.542 11.3742H83.1537V0.979248H75.542C67.4773 0.979248 60.9378 7.54712 60.9378 15.6467C60.9378 17.7602 61.3858 19.7692 62.187 21.5828C55.9237 24.2418 51.7647 29.8915 50.796 37.0411C49.6648 44.8907 52.7966 53.3584 59.6165 57.4493C65.7033 61.299 75.2207 61.0446 80.3615 55.7038V59.2491H90.956V19.9192H75.5463C73.202 19.9192 71.288 18.0011 71.288 15.6467ZM80.5969 30.3187V40.1909C80.5969 45.6451 76.1935 50.0633 70.7675 50.0633C65.3412 50.0633 60.9378 45.6407 60.9378 40.1909C60.9378 34.7413 65.3412 30.3187 70.7675 30.3187H80.5969Z" fill="#BFF009"/>
<path d="M118.694 0.979248C116.979 0.979248 115.563 1.57013 114.44 2.75189C113.318 3.93365 112.757 5.36086 112.757 7.02442C112.757 8.68795 113.318 10.1833 114.44 11.3378C115.563 12.4923 116.979 13.0696 118.694 13.0696C120.41 13.0696 121.889 12.4923 122.989 11.3378C124.084 10.1833 124.636 8.74704 124.636 7.02442C124.636 5.30177 124.089 3.93365 122.989 2.75189C121.894 1.57013 120.459 0.979248 118.694 0.979248Z" fill="#BFF009"/>
<path d="M26.2483 20.3238L12.8209 34.7548H10.5129V33.5595V0.979248H0V59.2538H10.5129V44.8226H12.8209L26.2483 59.2538H39.0874L20.9217 39.7863L39.0874 20.3238H26.2483Z" fill="#BFF009"/>
</g>
<defs>
<clipPath id="clip0_2214_14246">
<rect width="184.471" height="59.5067" fill="white" transform="translate(0 0.967773)"/>
</clipPath>
</defs>
</svg>
