<svg width="100%" height="100%" viewBox="0 0 185 60" fill="none" xmlns="http://www.w3.org/2000/svg">
<g clip-path="url(#clip0_2214_14245)">
<path d="M123.995 19.7581H113.319V58.6883H123.995V19.7581Z" fill="#040404"/>
<path d="M163.885 19.3533C152.934 19.3397 145.276 26.4257 143.909 36.475C142.778 44.3247 145.91 52.7924 152.73 56.8832C158.817 60.733 168.334 60.4785 173.475 55.1378V58.683H184.069V39.6204C184.069 28.4256 175.032 19.3533 163.885 19.3533ZM163.885 49.4972C158.455 49.4972 154.056 45.0747 154.056 39.6251C154.056 34.1753 158.459 29.7528 163.885 29.7528C169.312 29.7528 173.715 34.1753 173.715 39.6251C173.715 45.0747 169.312 49.4972 163.885 49.4972Z" fill="#040404"/>
<path d="M71.288 15.0805C71.288 12.7261 73.1977 10.808 75.542 10.808H83.1537V0.413086H75.542C67.4773 0.413086 60.9378 6.98095 60.9378 15.0805C60.9378 17.1941 61.3858 19.2031 62.187 21.0166C55.9237 23.6756 51.7647 29.3253 50.796 36.4749C49.6648 44.3245 52.7966 52.7923 59.6165 56.8831C65.7033 60.7329 75.2207 60.4784 80.3615 55.1376V58.6829H90.956V19.3531H75.5463C73.202 19.3531 71.288 17.435 71.288 15.0805ZM80.5969 29.7526V39.6247C80.5969 45.0789 76.1935 49.4971 70.7675 49.4971C65.3412 49.4971 60.9378 45.0746 60.9378 39.6247C60.9378 34.1752 65.3412 29.7526 70.7675 29.7526H80.5969Z" fill="#040404"/>
<path d="M118.694 0.413086C116.979 0.413086 115.563 1.00397 114.44 2.18573C113.318 3.36749 112.757 4.7947 112.757 6.45826C112.757 8.12179 113.318 9.61719 114.44 10.7717C115.563 11.9262 116.979 12.5034 118.694 12.5034C120.41 12.5034 121.889 11.9262 122.989 10.7717C124.084 9.61719 124.636 8.18088 124.636 6.45826C124.636 4.73561 124.089 3.36749 122.989 2.18573C121.894 1.00397 120.459 0.413086 118.694 0.413086Z" fill="#040404"/>
<path d="M26.2483 19.7576L12.8209 34.1886H10.5129V32.9933V0.413086H0V58.6876H10.5129V44.2564H12.8209L26.2483 58.6876H39.0874L20.9217 39.2201L39.0874 19.7576H26.2483Z" fill="#040404"/>
</g>
<defs>
<clipPath id="clip0_2214_14245">
<rect width="184.471" height="59.5067" fill="white" transform="translate(0 0.401611)"/>
</clipPath>
</defs>
</svg>
