<svg width="32" height="33" viewBox="0 0 32 33" fill="none" xmlns="http://www.w3.org/2000/svg">
<path fill-rule="evenodd" clip-rule="evenodd" d="M22.0485 2.12363C20.0116 1.71849 17.9004 1.92642 15.9818 2.72114C14.0632 3.51586 9.5 6.14937 9.5 12.4191C9.49651 13.4222 9.63975 14.4186 9.92364 15.3769L2.93934 22.3612C2.65803 22.6425 2.5 23.0241 2.5 23.4219V28.4219C2.5 29.2503 3.17157 29.9219 4 29.9219H9C9.82843 29.9219 10.5 29.2503 10.5 28.4219V26.9219H12C12.8284 26.9219 13.5 26.2503 13.5 25.4219V23.9219H15C15.3978 23.9219 15.7794 23.7638 16.0607 23.4825L17.045 22.4982C18.0033 22.7821 18.9997 22.9254 20.0028 22.9219C22.0785 22.9213 24.1076 22.3055 25.8335 21.1523C27.5602 19.9986 28.906 18.3587 29.7007 16.4401C30.4955 14.5214 30.7034 12.4102 30.2982 10.3734C29.8931 8.33663 28.8931 6.46571 27.4246 4.99726C25.9562 3.52881 24.0853 2.52878 22.0485 2.12363ZM21.4632 5.06599C20.0083 4.7766 18.5003 4.92513 17.1299 5.49278C15.7594 6.06044 14.5881 7.02173 13.764 8.2551C12.9399 9.48847 12.5 10.9385 12.5 12.4219C12.4964 13.3745 12.6796 14.324 13.039 15.2057C13.2669 15.7646 13.1375 16.4057 12.7107 16.8325L5.5 24.0432V26.9219H7.5V25.4219C7.5 24.5935 8.17157 23.9219 9 23.9219H10.5V22.4219C10.5 21.5935 11.1716 20.9219 12 20.9219H14.3787L15.5746 19.7259C15.5746 19.7259 15.6991 19.596 15.7607 19.5449C15.879 19.4465 16.0691 19.3158 16.3147 19.2536C16.5899 19.1839 16.8418 19.2381 16.9974 19.2889C17.0796 19.3157 17.2446 19.3944 17.2446 19.3944C18.1183 19.7462 19.0576 19.9254 20 19.9219C21.4834 19.9219 22.9334 19.482 24.1668 18.6579C25.4001 17.8338 26.3614 16.6625 26.9291 15.292C27.4968 13.9216 27.6453 12.4136 27.3559 10.9587C27.0665 9.50385 26.3522 8.16747 25.3033 7.11858C24.2544 6.06968 22.918 5.35538 21.4632 5.06599ZM22.5 7.92188C21.3954 7.92188 20.5 8.81731 20.5 9.92188C20.5 11.0264 21.3954 11.9219 22.5 11.9219C23.6046 11.9219 24.5 11.0264 24.5 9.92188C24.5 8.81731 23.6046 7.92188 22.5 7.92188Z" fill="white"/>
</svg>
