<svg width="32" height="33" viewBox="0 0 32 33" fill="none" xmlns="http://www.w3.org/2000/svg">
<path d="M7 15.5781C6.44772 15.5781 6 16.0258 6 16.5781C6 17.1304 6.44772 17.5781 7 17.5781H25C25.5523 17.5781 26 17.1304 26 16.5781C26 16.0258 25.5523 15.5781 25 15.5781H7Z" fill="white"/>
<path d="M6 12.5781C6 12.0258 6.44772 11.5781 7 11.5781H25C25.5523 11.5781 26 12.0258 26 12.5781C26 13.1304 25.5523 13.5781 25 13.5781H7C6.44772 13.5781 6 13.1304 6 12.5781Z" fill="white"/>
<path d="M7 19.5781C6.44772 19.5781 6 20.0258 6 20.5781C6 21.1304 6.44772 21.5781 7 21.5781H8C8.55228 21.5781 9 21.1304 9 20.5781C9 20.0258 8.55228 19.5781 8 19.5781H7Z" fill="white"/>
<path d="M11 20.5781C11 20.0258 11.4477 19.5781 12 19.5781H20C20.5523 19.5781 21 20.0258 21 20.5781C21 21.1304 20.5523 21.5781 20 21.5781H12C11.4477 21.5781 11 21.1304 11 20.5781Z" fill="white"/>
<path d="M24 19.5781C23.4477 19.5781 23 20.0258 23 20.5781C23 21.1304 23.4477 21.5781 24 21.5781H25C25.5523 21.5781 26 21.1304 26 20.5781C26 20.0258 25.5523 19.5781 25 19.5781H24Z" fill="white"/>
<path fill-rule="evenodd" clip-rule="evenodd" d="M4.06258 6.51758C2.89001 6.51758 1.93945 7.46813 1.93945 8.6407V24.5157C1.93945 25.6883 2.89001 26.6388 4.06258 26.6388H27.9376C29.1101 26.6388 30.0607 25.6883 30.0607 24.5157V8.6407C30.0607 7.46813 29.1101 6.51758 27.9376 6.51758H4.06258ZM4.0607 8.6407L4.06125 8.63938L4.06258 8.63883H27.9376L27.9389 8.63938L27.9395 8.6407V24.5157L27.9389 24.517L27.9376 24.5176H4.06258L4.06125 24.517L4.0607 24.5157V8.6407Z" fill="white"/>
<path fill-rule="evenodd" clip-rule="evenodd" d="M1.43945 8.6407C1.43945 7.19199 2.61387 6.01758 4.06258 6.01758H27.9376C29.3863 6.01758 30.5607 7.19199 30.5607 8.6407V24.5157C30.5607 25.9644 29.3863 27.1388 27.9376 27.1388H4.06258C2.61387 27.1388 1.43945 25.9644 1.43945 24.5157V8.6407ZM4.06258 7.01758C3.16615 7.01758 2.43945 7.74428 2.43945 8.6407V24.5157C2.43945 25.4121 3.16615 26.1388 4.06258 26.1388H27.9376C28.834 26.1388 29.5607 25.4121 29.5607 24.5157V8.6407C29.5607 7.74428 28.834 7.01758 27.9376 7.01758H4.06258ZM3.8713 8.17686C3.93194 8.15175 3.99694 8.13883 4.06258 8.13883H27.9376C28.0032 8.13883 28.0683 8.15176 28.1289 8.17689L28.1302 8.17744C28.2528 8.22818 28.3501 8.32552 28.4008 8.44803L28.4014 8.44935C28.4265 8.51002 28.4395 8.57504 28.4395 8.6407V24.5157C28.4395 24.5814 28.4265 24.6464 28.4014 24.7071L28.4008 24.7084C28.3501 24.8309 28.2528 24.9282 28.1303 24.9789L28.129 24.9795C28.0683 25.0046 28.0033 25.0176 27.9376 25.0176H4.06258C3.99691 25.0176 3.93189 25.0046 3.87123 24.9795L3.8699 24.979C3.74739 24.9282 3.65006 24.8309 3.59931 24.7084L3.59876 24.707C3.57364 24.6464 3.5607 24.5814 3.5607 24.5157V8.6407C3.5607 8.57506 3.57363 8.51007 3.59874 8.44942L3.59929 8.4481C3.65004 8.32553 3.74741 8.22816 3.86997 8.17741L3.8713 8.17686ZM4.5607 9.13883V24.0176H27.4395V9.13883H4.5607ZM7 12.0781C6.72386 12.0781 6.5 12.302 6.5 12.5781C6.5 12.8543 6.72386 13.0781 7 13.0781H25C25.2761 13.0781 25.5 12.8543 25.5 12.5781C25.5 12.302 25.2761 12.0781 25 12.0781H7ZM5.5 12.5781C5.5 11.7497 6.17157 11.0781 7 11.0781H25C25.8284 11.0781 26.5 11.7497 26.5 12.5781C26.5 13.4066 25.8284 14.0781 25 14.0781H7C6.17157 14.0781 5.5 13.4066 5.5 12.5781ZM5.5 16.5781C5.5 15.7497 6.17157 15.0781 7 15.0781H25C25.8284 15.0781 26.5 15.7497 26.5 16.5781C26.5 17.4066 25.8284 18.0781 25 18.0781H7C6.17157 18.0781 5.5 17.4066 5.5 16.5781ZM7 16.0781C6.72386 16.0781 6.5 16.302 6.5 16.5781C6.5 16.8543 6.72386 17.0781 7 17.0781H25C25.2761 17.0781 25.5 16.8543 25.5 16.5781C25.5 16.302 25.2761 16.0781 25 16.0781H7ZM5.5 20.5781C5.5 19.7497 6.17157 19.0781 7 19.0781H8C8.82843 19.0781 9.5 19.7497 9.5 20.5781C9.5 21.4066 8.82843 22.0781 8 22.0781H7C6.17157 22.0781 5.5 21.4066 5.5 20.5781ZM7 20.0781C6.72386 20.0781 6.5 20.302 6.5 20.5781C6.5 20.8543 6.72386 21.0781 7 21.0781H8C8.27614 21.0781 8.5 20.8543 8.5 20.5781C8.5 20.302 8.27614 20.0781 8 20.0781H7ZM12 20.0781C11.7239 20.0781 11.5 20.302 11.5 20.5781C11.5 20.8543 11.7239 21.0781 12 21.0781H20C20.2761 21.0781 20.5 20.8543 20.5 20.5781C20.5 20.302 20.2761 20.0781 20 20.0781H12ZM10.5 20.5781C10.5 19.7497 11.1716 19.0781 12 19.0781H20C20.8284 19.0781 21.5 19.7497 21.5 20.5781C21.5 21.4066 20.8284 22.0781 20 22.0781H12C11.1716 22.0781 10.5 21.4066 10.5 20.5781ZM22.5 20.5781C22.5 19.7497 23.1716 19.0781 24 19.0781H25C25.8284 19.0781 26.5 19.7497 26.5 20.5781C26.5 21.4066 25.8284 22.0781 25 22.0781H24C23.1716 22.0781 22.5 21.4066 22.5 20.5781ZM24 20.0781C23.7239 20.0781 23.5 20.302 23.5 20.5781C23.5 20.8543 23.7239 21.0781 24 21.0781H25C25.2761 21.0781 25.5 20.8543 25.5 20.5781C25.5 20.302 25.2761 20.0781 25 20.0781H24Z" fill="white"/>
</svg>
