<svg width="32" height="33" viewBox="0 0 32 33" fill="none" xmlns="http://www.w3.org/2000/svg">
<path fill-rule="evenodd" clip-rule="evenodd" d="M5 5.5C3.89543 5.5 3 6.39543 3 7.5V25.5C3 26.6046 3.89543 27.5 5 27.5H27C28.1046 27.5 29 26.6046 29 25.5V7.5C29 6.39543 28.1046 5.5 27 5.5H5ZM27 12.5V7.5H5V12.5H27ZM5 14.5V25.5H12V14.5H5ZM14 25.5V14.5H27V25.5H14Z" fill="white"/>
<path fill-rule="evenodd" clip-rule="evenodd" d="M2.5 7.5C2.5 6.11929 3.61929 5 5 5H27C28.3807 5 29.5 6.11929 29.5 7.5V25.5C29.5 26.8807 28.3807 28 27 28H5C3.61929 28 2.5 26.8807 2.5 25.5V7.5ZM5 6C4.17157 6 3.5 6.67157 3.5 7.5V25.5C3.5 26.3284 4.17157 27 5 27H27C27.8284 27 28.5 26.3284 28.5 25.5V7.5C28.5 6.67157 27.8284 6 27 6H5ZM4.5 7.5C4.5 7.22386 4.72386 7 5 7H27C27.2761 7 27.5 7.22386 27.5 7.5V12.5C27.5 12.7761 27.2761 13 27 13H5C4.72386 13 4.5 12.7761 4.5 12.5V7.5ZM5.5 8V12H26.5V8H5.5ZM4.5 14.5C4.5 14.2239 4.72386 14 5 14H12C12.2761 14 12.5 14.2239 12.5 14.5V25.5C12.5 25.7761 12.2761 26 12 26H5C4.72386 26 4.5 25.7761 4.5 25.5V14.5ZM5.5 15V25H11.5V15H5.5ZM13.5 14.5C13.5 14.2239 13.7239 14 14 14H27C27.2761 14 27.5 14.2239 27.5 14.5V25.5C27.5 25.7761 27.2761 26 27 26H14C13.7239 26 13.5 25.7761 13.5 25.5V14.5ZM14.5 15V25H26.5V15H14.5Z" fill="white"/>
</svg>
