<svg width="100%" height="100%" viewBox="0 0 200 200" fill="none" xmlns="http://www.w3.org/2000/svg">
<rect width="200" height="200" fill="#BFF009"/>
<path fill-rule="evenodd" clip-rule="evenodd" d="M123.163 49.0321L121.33 50.8645C113.784 58.4109 113.829 70.7705 121.529 78.4708C129.23 86.1712 141.589 86.2163 149.136 78.67L150.968 76.8376L163.025 88.8946L161.193 90.727C156.2 95.7195 150.104 98.9332 143.675 100.378C150.085 101.952 156.173 105.254 161.193 110.273L163.025 112.106L150.968 124.163L149.136 122.33C141.326 114.52 128.788 114.474 121.131 122.131C113.474 129.788 113.52 142.326 121.33 150.136L123.163 151.968L111.106 164.025L109.273 162.193C104.38 157.299 101.119 151.39 99.5 145.157C97.881 151.39 94.6202 157.299 89.7269 162.193L87.8945 164.025L75.8375 151.968L77.6699 150.136C85.48 142.325 85.5257 129.788 77.8691 122.131C70.2125 114.474 57.6745 114.52 49.8645 122.33L48.032 124.163L35.975 112.106L37.8075 110.273C42.8267 105.254 48.9144 101.952 55.325 100.378C48.8961 98.9332 42.7999 95.7195 37.8075 90.7271L35.975 88.8946L48.032 76.8376L49.8645 78.6701C57.4108 86.2164 69.7704 86.1713 77.4707 78.4709C85.1711 70.7706 85.2162 58.411 77.6699 50.8646L75.8375 49.0322L87.8945 36.9752L89.7269 38.8076C94.8649 43.9456 98.1188 50.2527 99.5 56.8882C100.881 50.2527 104.135 43.9455 109.273 38.8075L111.106 36.9751L123.163 49.0321ZM89.4215 90.4217C94.7253 85.1179 98.0888 78.607 99.5 71.7899C100.911 78.607 104.275 85.1178 109.579 90.4216C114.514 95.3574 120.495 98.6128 126.796 100.178C120.253 101.63 114.046 104.889 108.968 109.968C104.235 114.7 101.082 120.413 99.5 126.463C97.9178 120.412 94.7647 114.7 90.0323 109.968C84.954 104.889 78.7471 101.63 72.2044 100.178C78.5048 98.6128 84.4858 95.3574 89.4215 90.4217Z" fill="#040404"/>
</svg>
