<svg width="100%" height="100%" viewBox="0 0 200 200" fill="none" xmlns="http://www.w3.org/2000/svg">
<rect width="200" height="200" fill="#BFF009"/>
<g clip-path="url(#clip0_1907_17350)">
<path d="M120.43 135.863C119.436 135.863 118.541 135.177 118.315 134.17C118.051 133.002 118.784 131.838 119.957 131.573C139.221 127.227 152.298 116.239 158.824 98.9108C163.747 85.8336 162.918 73.8418 162.909 73.7202C162.818 72.5262 163.717 71.4842 164.911 71.3931C166.109 71.3062 167.147 72.1963 167.238 73.3902C167.277 73.9112 168.158 86.3285 162.944 100.287C158.099 113.26 146.871 129.95 120.912 135.811C120.751 135.846 120.591 135.863 120.434 135.863H120.43Z" fill="#040404"/>
<path d="M117.417 142.141C113.744 142.141 109.845 141.816 105.707 141.104C104.526 140.899 103.732 139.775 103.936 138.594C104.14 137.413 105.26 136.623 106.445 136.823C125.905 140.179 142.191 135.029 154.851 121.522C164.407 111.324 168.228 99.9268 168.267 99.8139C168.64 98.6764 169.869 98.0555 171.006 98.4289C172.144 98.8023 172.765 100.027 172.391 101.164C172.231 101.663 168.293 113.473 158.133 124.371C150.179 132.902 137.033 142.141 117.417 142.141Z" fill="#040404"/>
<path d="M121.294 149.965C111.846 149.965 101.101 147.416 89.6429 140.178C88.6312 139.536 88.3273 138.199 88.9655 137.183C89.6038 136.171 90.9454 135.867 91.9613 136.505C108.707 147.086 125.77 148.536 142.681 140.83C155.376 135.042 163.161 126.064 163.239 125.972C164.021 125.061 165.388 124.956 166.3 125.738C167.212 126.519 167.316 127.887 166.534 128.799C166.196 129.198 158.038 138.602 144.483 144.781C138.3 147.598 130.398 149.965 121.294 149.965Z" fill="#040404"/>
<path d="M121.91 158.448C108.23 158.448 89.721 153.816 75.1502 133.171C74.4599 132.19 74.6943 130.835 75.6712 130.145C76.6525 129.454 78.0071 129.689 78.6974 130.666C90.1204 146.847 105.329 154.71 123.903 154.067C137.844 153.577 148.477 148.263 148.582 148.206C149.65 147.663 150.956 148.089 151.499 149.161C152.042 150.229 151.616 151.536 150.544 152.079C150.079 152.318 138.943 157.884 124.055 158.405C123.356 158.431 122.64 158.444 121.91 158.444V158.448Z" fill="#040404"/>
<path d="M124.142 167.561C119.661 167.561 110.231 167.023 99.9674 163.189C86.9944 158.344 70.3049 147.116 64.4436 121.157C64.1787 119.989 64.9125 118.826 66.0848 118.561C67.2527 118.296 68.4163 119.03 68.6811 120.202C73.0271 139.466 84.016 152.543 101.344 159.069C114.421 163.993 126.413 163.163 126.534 163.155C127.728 163.063 128.77 163.962 128.862 165.156C128.953 166.35 128.058 167.392 126.864 167.483C126.725 167.492 125.757 167.561 124.146 167.561H124.142Z" fill="#040404"/>
<path d="M99.7634 172.75C99.5376 172.75 99.3118 172.715 99.0904 172.641C98.5911 172.481 86.7817 168.543 75.884 158.383C65.7548 148.94 54.627 132.181 59.151 105.957C59.3551 104.776 60.4753 103.986 61.6605 104.186C62.8415 104.39 63.636 105.514 63.432 106.695C60.0758 126.155 65.2251 142.44 78.7321 155.101C88.9265 164.657 100.328 168.478 100.441 168.517C101.578 168.89 102.199 170.119 101.826 171.256C101.526 172.172 100.675 172.75 99.7634 172.75Z" fill="#040404"/>
<path d="M72.8665 167.305C72.3672 167.305 71.8636 167.136 71.4554 166.784C71.056 166.446 61.6519 158.288 55.4736 144.733C49.7295 132.133 45.8654 112.391 60.0758 89.8927C60.7184 88.881 62.0556 88.5771 63.0716 89.2154C64.0832 89.8579 64.3871 91.1952 63.7489 92.2111C53.2029 108.905 51.7267 125.924 59.3638 142.788C65.1296 155.518 74.1951 163.411 74.2862 163.489C75.1937 164.27 75.2979 165.642 74.5163 166.55C74.0865 167.049 73.4787 167.305 72.8665 167.305Z" fill="#040404"/>
<path d="M50.1029 151.984C49.3127 151.984 48.5486 151.55 48.1665 150.794C47.9321 150.325 42.3617 139.193 41.8407 124.305C41.3544 110.464 45.3401 90.7484 67.079 75.4004C68.0602 74.7101 69.4148 74.9446 70.1052 75.9214C70.7955 76.9027 70.5611 78.2573 69.5842 78.9476C53.4504 90.3359 45.5745 105.493 46.178 123.997C46.6296 137.964 51.9916 148.728 52.0437 148.832C52.582 149.9 52.1566 151.207 51.0842 151.749C50.7716 151.91 50.4329 151.984 50.1073 151.984H50.1029Z" fill="#040404"/>
<path d="M34.933 129.116C33.8085 129.116 32.8577 128.252 32.7708 127.11C32.7318 126.589 31.8504 114.172 37.0648 100.213C41.9101 87.2401 53.1378 70.5506 79.0969 64.6893C80.2648 64.4245 81.4284 65.1582 81.6932 66.3305C81.958 67.4984 81.2243 68.662 80.052 68.9268C60.7314 73.2859 47.6368 84.3269 41.133 101.733C36.2485 114.801 37.0908 126.659 37.1039 126.776C37.195 127.97 36.3006 129.016 35.1067 129.107C35.0502 129.107 34.9938 129.112 34.9374 129.112L34.933 129.116Z" fill="#040404"/>
<path d="M29.6708 102.184C29.4451 102.184 29.2193 102.15 28.9935 102.076C27.856 101.702 27.2351 100.478 27.6085 99.3405C27.7692 98.8412 31.7071 87.0318 41.8667 76.1341C51.3099 66.0049 68.0689 54.8815 94.2928 59.4012C95.4738 59.6052 96.2683 60.7297 96.0642 61.9107C95.8602 63.0916 94.74 63.8818 93.5547 63.6821C74.0952 60.326 57.8095 65.4752 45.149 78.9823C35.5929 89.1766 31.7722 100.578 31.7332 100.691C31.4336 101.603 30.5826 102.184 29.6708 102.184Z" fill="#040404"/>
<path d="M35.1154 75.2872C34.6161 75.2872 34.1124 75.1135 33.7043 74.7619C32.7969 73.9803 32.6883 72.6127 33.4698 71.7053C33.8085 71.3059 41.9666 61.9017 55.5214 55.7235C68.121 49.9794 87.8628 46.1153 110.361 60.3257C111.373 60.9682 111.677 62.3055 111.039 63.3215C110.401 64.3331 109.059 64.637 108.043 63.9988C91.3491 53.4527 74.3296 51.9766 57.4665 59.6136C44.7366 65.3751 36.8434 74.4449 36.7652 74.5361C36.3354 75.0354 35.7275 75.2915 35.1197 75.2915L35.1154 75.2872Z" fill="#040404"/>
<path d="M123.078 70.7501C122.397 70.7501 121.724 70.4289 121.303 69.8297C109.914 53.6959 94.7531 45.8244 76.253 46.4192C62.2858 46.8708 51.5227 52.2328 51.4185 52.2849C50.3461 52.8232 49.0436 52.3977 48.5008 51.3297C47.9581 50.2616 48.388 48.9548 49.456 48.4121C49.9249 48.1733 61.0571 42.6072 75.9448 42.0862C89.7775 41.5956 109.502 45.5856 124.85 67.3245C125.54 68.3058 125.306 69.6604 124.329 70.3507C123.947 70.6199 123.513 70.7501 123.078 70.7501Z" fill="#040404"/>
<path d="M133.438 81.9909C132.443 81.9909 131.549 81.3049 131.323 80.2976C126.977 61.0334 115.988 47.9562 98.6606 41.4306C85.5834 36.5071 73.5872 37.3364 73.47 37.3451C72.2804 37.4406 71.234 36.5375 71.1428 35.3436C71.0517 34.1496 71.9461 33.1076 73.14 33.0164C73.661 32.9773 86.0783 32.096 100.037 37.3104C113.01 42.1557 129.699 53.3834 135.561 79.3424C135.826 80.5103 135.092 81.6739 133.92 81.9388C133.759 81.9735 133.598 81.9909 133.442 81.9909H133.438Z" fill="#040404"/>
<path d="M138.717 96.3447C138.596 96.3447 138.47 96.336 138.344 96.3143C137.163 96.1102 136.368 94.9857 136.572 93.8048C139.929 74.3452 134.779 58.0595 121.272 45.3991C111.078 35.843 99.6766 32.0223 99.5637 31.9832C98.4261 31.6098 97.8053 30.3811 98.1787 29.2436C98.5521 28.106 99.7764 27.4852 100.914 27.8586C101.413 28.0192 113.223 31.9571 124.12 42.1167C134.25 51.5599 145.377 68.3189 140.853 94.5428C140.671 95.5979 139.755 96.3447 138.717 96.3447Z" fill="#040404"/>
<path d="M138.092 111.623C137.697 111.623 137.293 111.515 136.933 111.289C135.921 110.646 135.617 109.309 136.255 108.293C146.801 91.5992 148.278 74.5797 140.641 57.7165C134.875 44.9866 125.809 37.0934 125.718 37.0153C124.811 36.2338 124.706 34.8618 125.488 33.9544C126.269 33.0469 127.637 32.9384 128.549 33.7199C128.948 34.0586 138.352 42.2166 144.531 55.7714C150.275 68.3711 154.139 88.1128 139.929 110.612C139.516 111.263 138.813 111.623 138.092 111.623Z" fill="#040404"/>
<path d="M131.675 125.499C130.993 125.499 130.32 125.178 129.899 124.579C129.209 123.597 129.443 122.243 130.42 121.552C146.554 110.164 154.43 95.0072 153.826 76.5028C153.375 62.5355 148.013 51.7724 147.961 51.6682C147.422 50.6002 147.848 49.2933 148.92 48.7506C149.988 48.2079 151.295 48.6377 151.838 49.7058C152.072 50.1747 157.643 61.3068 158.164 76.1945C158.65 90.0359 154.664 109.752 132.925 125.1C132.543 125.369 132.109 125.499 131.675 125.499Z" fill="#040404"/>
</g>
<defs>
<clipPath id="clip0_1907_17350">
<rect width="145" height="145" fill="white" transform="translate(27.5 27.75)"/>
</clipPath>
</defs>
</svg>
