<svg width="100%" height="100%" viewBox="0 0 200 200" fill="none" xmlns="http://www.w3.org/2000/svg">
<rect width="200" height="200" fill="#BFF009"/>
<path fill-rule="evenodd" clip-rule="evenodd" d="M85.5611 58.9863C72.9736 62.9738 64.6164 72.0673 61.3434 80.5944C53.277 81.7277 43.6614 83.6766 43.3349 84.5723C43.3249 84.5887 43.3178 84.6049 43.3137 84.6206C42.8222 86.6192 49.8379 95.0757 56.3285 100.826C49.9793 101.894 44.0162 103.22 43.3819 103.953C43.3454 103.99 43.3224 104.026 43.3137 104.06C42.8509 105.922 46.2748 110.748 52.3862 116.44C56.103 120.209 60.1922 123.699 63.0488 125.103L63.1323 125.162L63.6842 125.556C65.7739 127.046 67.8563 128.53 70.0216 129.976C72.4827 131.733 75.3451 133.483 78.6594 135.132C86.5719 139.228 96.4226 142.536 111.036 144.025C109.272 142.756 107.928 141.2 106.999 139.674C105.035 136.448 104.607 133.018 104.705 130.936C104.738 130.246 105.323 129.713 106.013 129.746C106.703 129.779 107.235 130.364 107.203 131.054C107.122 132.746 107.481 135.658 109.134 138.374C110.753 141.033 113.659 143.588 118.854 144.618C119.05 144.628 119.247 144.638 119.445 144.648C121.811 144.763 123.931 144.681 125.82 144.434C127.32 144.365 128.794 144.214 130.231 143.986C143.851 141.833 154.281 132.775 154.281 121.182C154.281 110.814 145.967 102.039 134.465 99.0321C133.996 97.5794 133.48 95.8433 132.919 93.9574C131.62 89.5848 130.081 84.4058 128.334 80.0853C125.541 73.1673 121.564 67.2681 115.566 62.7657C108.501 57.4745 98.2304 54.9604 85.5611 58.9863ZM125.114 106.492C127.7 106.492 129.797 104.322 129.797 101.644C129.797 98.9673 127.7 96.797 125.114 96.797C122.527 96.797 120.43 98.9673 120.43 101.644C120.43 104.322 122.527 106.492 125.114 106.492ZM87.2554 108.073C87.217 107.303 87.8104 106.647 88.5809 106.609L88.6918 106.604C88.7615 106.601 88.8627 106.597 88.9922 106.592C89.2511 106.583 89.6231 106.572 90.0809 106.565C90.9955 106.55 92.2582 106.549 93.6493 106.604C96.3526 106.71 99.8128 107.033 102.05 108.025C102.55 108.247 102.875 108.74 102.881 109.287C102.886 109.834 102.572 110.334 102.077 110.567L102.026 110.591C101.991 110.607 101.939 110.632 101.869 110.665C101.731 110.731 101.525 110.83 101.258 110.959C100.725 111.217 99.9496 111.597 98.984 112.084C97.0523 113.057 94.363 114.452 91.3356 116.142C90.662 116.517 89.8112 116.276 89.4354 115.602C89.0595 114.929 89.3009 114.078 89.9745 113.702C92.9065 112.066 95.5247 110.702 97.4605 109.724C96.2115 109.549 94.8497 109.447 93.5396 109.395C92.2132 109.343 91.0039 109.344 90.1257 109.358C89.6872 109.365 89.3328 109.376 89.0892 109.384C88.9675 109.388 88.8736 109.392 88.8109 109.395C88.0405 109.433 87.2937 108.844 87.2554 108.073Z" fill="#040404"/>
</svg>
