<svg width="32" height="33" viewBox="0 0 32 33" fill="none" xmlns="http://www.w3.org/2000/svg">
<path d="M17.1797 6.69196C16.6352 6.59965 16.119 6.96624 16.0267 7.51076C15.9344 8.05528 16.301 8.57152 16.8455 8.66383C17.8636 8.83641 18.803 9.32074 19.5341 10.05C20.2652 10.7792 20.7519 11.7174 20.9271 12.735C21.0208 13.2793 21.538 13.6446 22.0823 13.5509C22.6265 13.4572 22.9918 12.94 22.8981 12.3957C22.6527 10.97 21.9708 9.65562 20.9465 8.63396C19.9222 7.6123 18.6061 6.93375 17.1797 6.69196Z" fill="white"/>
<path d="M10.0001 29.5781C10.0001 29.0258 10.4478 28.5781 11.0001 28.5781H21.0001C21.5524 28.5781 22.0001 29.0258 22.0001 29.5781C22.0001 30.1304 21.5524 30.5781 21.0001 30.5781H11.0001C10.4478 30.5781 10.0001 30.1304 10.0001 29.5781Z" fill="white"/>
<path fill-rule="evenodd" clip-rule="evenodd" d="M21.9389 4.91638C20.1206 3.66916 17.9555 3.02601 15.7511 3.07813C10.0525 3.20957 5.47455 7.94632 5.50011 13.6415C5.50529 15.2254 5.8709 16.788 6.56923 18.2097C7.26706 19.6304 8.27884 20.8737 9.52803 21.8456L9.53094 21.8479C9.8303 22.0844 10.0728 22.3851 10.2405 22.7278C10.4082 23.0704 10.4969 23.4462 10.5001 23.8276L10.5001 23.8318L10.5001 24.578C10.5001 24.9758 10.6581 25.3574 10.9394 25.6387C11.2208 25.92 11.6023 26.078 12.0001 26.078H20.0001C20.3979 26.078 20.7795 25.92 21.0608 25.6387C21.3421 25.3574 21.5001 24.9758 21.5001 24.578V23.829L21.5001 23.8279C21.501 23.4433 21.5898 23.064 21.7596 22.7189C21.9293 22.3741 22.1754 22.0727 22.4792 21.8374L22.4809 21.8361L22.4839 21.8338C24.2183 20.472 25.48 18.5986 26.0899 16.4795C26.6999 14.3603 26.6272 12.1029 25.8821 10.0275C25.137 7.95196 23.7574 6.16373 21.9389 4.91638ZM15.7278 2.0784C18.1419 2.02138 20.5131 2.72577 22.5045 4.09173C24.4962 5.45788 26.0072 7.41642 26.8233 9.68957C27.6393 11.9627 27.719 14.4351 27.0509 16.7561C26.3829 19.0771 25.0011 21.1288 23.1014 22.6203L23.0954 22.625L23.0925 22.6273C22.9085 22.7695 22.7595 22.9519 22.6568 23.1605C22.5544 23.3687 22.5008 23.5975 22.5001 23.8295V24.578C22.5001 25.241 22.2367 25.8769 21.7679 26.3458C21.299 26.8146 20.6631 27.078 20.0001 27.078H12.0001C11.3371 27.078 10.7012 26.8146 10.2323 26.3458C9.7635 25.8769 9.50011 25.241 9.50011 24.578V23.834C9.49789 23.6028 9.444 23.3751 9.34235 23.1674C9.24066 22.9597 9.09378 22.7773 8.91248 22.6338C7.54429 21.5688 6.43608 20.2068 5.67166 18.6506C4.90647 17.0928 4.50584 15.3813 4.50012 13.6457C4.47229 7.40927 9.48093 2.22264 15.7278 2.0784ZM15.7748 4.07785C17.7693 4.03064 19.728 4.61254 21.3732 5.74103C23.0185 6.86959 24.2668 8.48751 24.9409 10.3653C25.615 12.2432 25.6808 14.2856 25.129 16.2029C24.5774 18.1191 23.4369 19.8131 21.8691 21.0451L21.8664 21.0472C21.4425 21.3755 21.0991 21.7962 20.8624 22.2773C20.6251 22.7594 20.5012 23.2893 20.5001 23.8266L20.5001 24.578C20.5001 24.8541 20.2762 25.078 20.0001 25.078H12.0001C11.8675 25.078 11.7403 25.0253 11.6465 24.9315C11.5528 24.8378 11.5001 24.7106 11.5001 24.578L11.5001 23.8297C11.4962 23.2967 11.3723 22.7654 11.1387 22.2882C10.9045 21.8096 10.5655 21.3899 10.147 21.0602L10.1457 21.0592L10.1445 21.0583C9.01391 20.1792 8.09821 19.0543 7.46679 17.7688C6.83534 16.4833 6.50479 15.0696 6.5001 13.6375C6.47671 8.48364 10.6245 4.1967 15.7748 4.07785ZM10.762 20.2717L10.7658 20.2747C11.3023 20.6973 11.7367 21.2352 12.0369 21.8485C12.3375 22.4626 12.4955 23.1426 12.5001 23.8246L12.5001 23.828L12.5001 24.078H19.5001L19.5001 23.8261C19.5014 23.1362 19.6605 22.4547 19.9651 21.8358C20.2688 21.2187 20.7091 20.6791 21.2525 20.2577C22.6547 19.1556 23.6746 17.6403 24.168 15.9263C24.6617 14.2108 24.6029 12.3834 23.9997 10.7032C23.3965 9.02305 22.2797 7.57544 20.8076 6.56568C19.3355 5.55592 17.5828 5.03527 15.7982 5.07758C11.1957 5.18363 7.47883 9.02113 7.50009 13.6336C7.50428 14.9141 7.79987 16.1787 8.36435 17.3279C8.92887 18.4772 9.74754 19.4829 10.7584 20.2688L10.762 20.2717ZM15.5337 7.42719C15.6722 6.61042 16.4465 6.06053 17.2633 6.19899C18.7917 6.45808 20.202 7.18519 21.2996 8.27996C22.3972 9.37472 23.1279 10.7832 23.3909 12.3109C23.5314 13.1273 22.9835 13.9031 22.1671 14.0436C21.3507 14.1842 20.5749 13.6363 20.4344 12.8199C20.2767 11.9042 19.8388 11.0601 19.181 10.404C18.5232 9.74786 17.6779 9.31208 16.7619 9.1568C15.9451 9.01834 15.3953 8.24397 15.5337 7.42719ZM17.0962 7.18493C16.8239 7.13877 16.5658 7.32207 16.5196 7.59433C16.4735 7.86659 16.6568 8.12471 16.929 8.17086C18.0492 8.36075 19.0828 8.89363 19.8872 9.69598C20.6916 10.4983 21.2271 11.5306 21.4199 12.6502C21.4667 12.9224 21.7253 13.105 21.9974 13.0581C22.2696 13.0113 22.4522 12.7527 22.4054 12.4806C22.1775 11.1569 21.5444 9.93652 20.5934 8.98797C19.6424 8.03941 18.4205 7.40942 17.0962 7.18493ZM11.0001 29.0781C10.724 29.0781 10.5001 29.302 10.5001 29.5781C10.5001 29.8543 10.724 30.0781 11.0001 30.0781H21.0001C21.2763 30.0781 21.5001 29.8543 21.5001 29.5781C21.5001 29.302 21.2763 29.0781 21.0001 29.0781H11.0001ZM9.50012 29.5781C9.50012 28.7497 10.1717 28.0781 11.0001 28.0781H21.0001C21.8286 28.0781 22.5001 28.7497 22.5001 29.5781C22.5001 30.4066 21.8286 31.0781 21.0001 31.0781H11.0001C10.1717 31.0781 9.50012 30.4066 9.50012 29.5781Z" fill="white"/>
<path fill-rule="evenodd" clip-rule="evenodd" d="M15.7511 3.07813C17.9555 3.02601 20.1206 3.66916 21.9389 4.91638C23.7574 6.16373 25.137 7.95196 25.8821 10.0275C26.6272 12.1029 26.6999 14.3603 26.0899 16.4795C25.48 18.5986 24.2183 20.472 22.4839 21.8338L22.4809 21.8361L22.4792 21.8374C22.1754 22.0727 21.9293 22.3741 21.7596 22.7189C21.5898 23.064 21.501 23.4433 21.5001 23.8279L21.5001 23.829V24.578C21.5001 24.9758 21.3421 25.3574 21.0608 25.6387C20.7795 25.92 20.3979 26.078 20.0001 26.078H12.0001C11.6023 26.078 11.2208 25.92 10.9394 25.6387C10.6581 25.3574 10.5001 24.9758 10.5001 24.578L10.5001 23.8318L10.5001 23.8276C10.4969 23.4462 10.4082 23.0704 10.2405 22.7278C10.0728 22.3851 9.8303 22.0844 9.53094 21.8479L9.52803 21.8456C8.27884 20.8737 7.26706 19.6304 6.56923 18.2097C5.8709 16.788 5.50529 15.2254 5.50011 13.6415C5.47455 7.94632 10.0525 3.20957 15.7511 3.07813ZM15.7748 4.07785C17.7693 4.03064 19.728 4.61254 21.3732 5.74103C23.0185 6.86959 24.2668 8.48751 24.9409 10.3653C25.615 12.2432 25.6808 14.2856 25.129 16.2029C24.5774 18.1191 23.4369 19.8131 21.8691 21.0451L21.8664 21.0472C21.4425 21.3755 21.0991 21.7962 20.8624 22.2773C20.6251 22.7594 20.5012 23.2893 20.5001 23.8266L20.5001 24.578C20.5001 24.8541 20.2762 25.078 20.0001 25.078H12.0001C11.8675 25.078 11.7403 25.0253 11.6465 24.9315C11.5528 24.8378 11.5001 24.7106 11.5001 24.578L11.5001 23.8297C11.4962 23.2967 11.3723 22.7654 11.1387 22.2882C10.9045 21.8096 10.5655 21.3899 10.147 21.0602L10.1457 21.0592L10.1445 21.0583C9.01391 20.1792 8.09821 19.0543 7.46679 17.7688C6.83534 16.4833 6.50479 15.0696 6.5001 13.6375C6.47671 8.48364 10.6245 4.1967 15.7748 4.07785Z" fill="white"/>
</svg>
