<svg width="100%" height="100%" viewBox="0 0 200 200" fill="none" xmlns="http://www.w3.org/2000/svg">
<rect width="200" height="200" fill="#BFF009"/>
<path d="M128.937 46.7433C128.937 46.426 128.931 46.1099 128.921 45.7951C119.942 49.2392 110.191 51.1264 100 51.1264C89.8088 51.1264 80.0582 49.2392 71.0789 45.7951C71.0688 46.1099 71.0637 46.426 71.0637 46.7433C71.0637 62.7244 84.0189 75.6797 100 75.6797C115.981 75.6797 128.937 62.7244 128.937 46.7433Z" fill="#040404"/>
<path d="M71.0636 153.257C71.0636 153.574 71.0687 153.891 71.0789 154.205C80.0582 150.761 89.8087 148.874 100 148.874C110.191 148.874 119.942 150.761 128.921 154.205C128.931 153.891 128.936 153.574 128.936 153.257C128.936 137.276 115.981 124.321 100 124.321C84.0189 124.321 71.0636 137.276 71.0636 153.257Z" fill="#040404"/>
<path d="M153.257 128.936C153.574 128.936 153.89 128.931 154.205 128.921C150.761 119.942 148.874 110.191 148.874 99.9999C148.874 89.8086 150.761 80.058 154.205 71.0787C153.89 71.0686 153.574 71.0635 153.257 71.0635C137.276 71.0635 124.321 84.0188 124.321 99.9999C124.321 115.981 137.276 128.936 153.257 128.936Z" fill="#040404"/>
<path d="M46.7428 71.0637C46.4256 71.0637 46.1095 71.0688 45.7947 71.0789C49.2388 80.0582 51.126 89.8088 51.126 100C51.126 110.191 49.2388 119.942 45.7947 128.921C46.1095 128.931 46.4256 128.937 46.7428 128.937C62.724 128.937 75.6793 115.981 75.6793 100C75.6793 84.019 62.724 71.0637 46.7428 71.0637Z" fill="#040404"/>
</svg>
