<svg width="32" height="33" viewBox="0 0 32 33" fill="none" xmlns="http://www.w3.org/2000/svg">
<path fill-rule="evenodd" clip-rule="evenodd" d="M14 12.5781V10.0781C14 8.88465 13.5259 7.74006 12.682 6.89614C11.8381 6.05223 10.6935 5.57812 9.5 5.57812C8.30653 5.57812 7.16193 6.05223 6.31802 6.89614C5.47411 7.74006 5 8.88465 5 10.0781C5 11.2716 5.47411 12.4162 6.31802 13.2601C7.16193 14.104 8.30653 14.5781 9.5 14.5781H12V18.5781H9.5C8.30653 18.5781 7.16193 19.0522 6.31802 19.8961C5.47411 20.7401 5 21.8847 5 23.0781C5 24.2716 5.47411 25.4162 6.31802 26.2601C7.16193 27.104 8.30653 27.5781 9.5 27.5781C10.6935 27.5781 11.8381 27.104 12.682 26.2601C13.5259 25.4162 14 24.2716 14 23.0781V20.5781H18V23.0781C18 24.2716 18.4741 25.4162 19.318 26.2601C20.1619 27.104 21.3065 27.5781 22.5 27.5781C23.6935 27.5781 24.8381 27.104 25.682 26.2601C26.5259 25.4162 27 24.2716 27 23.0781C27 21.8847 26.5259 20.7401 25.682 19.8961C24.8381 19.0522 23.6935 18.5781 22.5 18.5781H20V14.5781H22.5C23.6935 14.5781 24.8381 14.104 25.682 13.2601C26.5259 12.4162 27 11.2716 27 10.0781C27 8.88465 26.5259 7.74006 25.682 6.89614C24.8381 6.05223 23.6935 5.57812 22.5 5.57812C21.3065 5.57812 20.1619 6.05223 19.318 6.89614C18.4741 7.74006 18 8.88465 18 10.0781V12.5781H14ZM12 12.5781V10.0781C12 9.41508 11.7366 8.7792 11.2678 8.31036C10.7989 7.84152 10.163 7.57812 9.5 7.57812C8.83696 7.57812 8.20107 7.84152 7.73223 8.31036C7.26339 8.7792 7 9.41508 7 10.0781C7 10.7412 7.26339 11.3771 7.73223 11.8459C8.20107 12.3147 8.83696 12.5781 9.5 12.5781H12ZM22.5 7.57812C21.837 7.57812 21.2011 7.84152 20.7322 8.31036C20.2634 8.7792 20 9.41508 20 10.0781V12.5781H22.5C23.163 12.5781 23.7989 12.3147 24.2678 11.8459C24.7366 11.3771 25 10.7412 25 10.0781C25 9.41508 24.7366 8.7792 24.2678 8.31036C23.7989 7.84152 23.163 7.57812 22.5 7.57812ZM20 23.0781V20.5781H22.5C23.163 20.5781 23.7989 20.8415 24.2678 21.3104C24.7366 21.7792 25 22.4151 25 23.0781C25 23.7412 24.7366 24.3771 24.2678 24.8459C23.7989 25.3147 23.163 25.5781 22.5 25.5781C21.837 25.5781 21.2011 25.3147 20.7322 24.8459C20.2634 24.3771 20 23.7412 20 23.0781ZM9.5 25.5781C10.163 25.5781 10.7989 25.3147 11.2678 24.8459C11.7366 24.3771 12 23.7412 12 23.0781V20.5781H9.5C8.83696 20.5781 8.20107 20.8415 7.73223 21.3104C7.26339 21.7792 7 22.4151 7 23.0781C7 23.7412 7.26339 24.3771 7.73223 24.8459C8.20107 25.3147 8.83696 25.5781 9.5 25.5781ZM14 18.5781V14.5781H18V18.5781H14Z" fill="white"/>
<path fill-rule="evenodd" clip-rule="evenodd" d="M5.96447 6.54259C6.90215 5.60491 8.17392 5.07812 9.5 5.07812C10.8261 5.07812 12.0979 5.60491 13.0355 6.54259C13.9732 7.48027 14.5 8.75204 14.5 10.0781V12.0781H17.5V10.0781C17.5 8.75204 18.0268 7.48027 18.9645 6.54259C19.9021 5.60491 21.1739 5.07812 22.5 5.07812C23.8261 5.07812 25.0979 5.60491 26.0355 6.54259C26.9732 7.48027 27.5 8.75204 27.5 10.0781C27.5 11.4042 26.9732 12.676 26.0355 13.6137C25.0979 14.5513 23.8261 15.0781 22.5 15.0781H20.5V18.0781H22.5C23.8261 18.0781 25.0979 18.6049 26.0355 19.5426C26.9732 20.4803 27.5 21.752 27.5 23.0781C27.5 24.4042 26.9732 25.676 26.0355 26.6137C25.0979 27.5513 23.8261 28.0781 22.5 28.0781C21.1739 28.0781 19.9021 27.5513 18.9645 26.6137C18.0268 25.676 17.5 24.4042 17.5 23.0781V21.0781H14.5V23.0781C14.5 24.4042 13.9732 25.676 13.0355 26.6137C12.0979 27.5513 10.8261 28.0781 9.5 28.0781C8.17392 28.0781 6.90215 27.5513 5.96447 26.6137C5.02678 25.676 4.5 24.4042 4.5 23.0781C4.5 21.752 5.02678 20.4803 5.96447 19.5426C6.90215 18.6049 8.17392 18.0781 9.5 18.0781H11.5V15.0781H9.5C8.17392 15.0781 6.90215 14.5513 5.96447 13.6137C5.02678 12.676 4.5 11.4042 4.5 10.0781C4.5 8.75204 5.02678 7.48027 5.96447 6.54259ZM9.5 6.07812C8.43913 6.07812 7.42172 6.49955 6.67157 7.2497C5.92143 7.99984 5.5 9.01726 5.5 10.0781C5.5 11.139 5.92143 12.1564 6.67157 12.9066C7.42172 13.6567 8.43913 14.0781 9.5 14.0781H12C12.2761 14.0781 12.5 14.302 12.5 14.5781V18.5781C12.5 18.8543 12.2761 19.0781 12 19.0781H9.5C8.43913 19.0781 7.42172 19.4996 6.67157 20.2497C5.92143 20.9998 5.5 22.0173 5.5 23.0781C5.5 24.139 5.92143 25.1564 6.67157 25.9066C7.42172 26.6567 8.43913 27.0781 9.5 27.0781C10.5609 27.0781 11.5783 26.6567 12.3284 25.9066C13.0786 25.1564 13.5 24.139 13.5 23.0781V20.5781C13.5 20.302 13.7239 20.0781 14 20.0781H18C18.2761 20.0781 18.5 20.302 18.5 20.5781V23.0781C18.5 24.139 18.9214 25.1564 19.6716 25.9066C20.4217 26.6567 21.4391 27.0781 22.5 27.0781C23.5609 27.0781 24.5783 26.6567 25.3284 25.9066C26.0786 25.1564 26.5 24.139 26.5 23.0781C26.5 22.0173 26.0786 20.9998 25.3284 20.2497C24.5783 19.4996 23.5609 19.0781 22.5 19.0781H20C19.7239 19.0781 19.5 18.8543 19.5 18.5781V14.5781C19.5 14.302 19.7239 14.0781 20 14.0781H22.5C23.5609 14.0781 24.5783 13.6567 25.3284 12.9066C26.0786 12.1564 26.5 11.139 26.5 10.0781C26.5 9.01726 26.0786 7.99984 25.3284 7.2497C24.5783 6.49955 23.5609 6.07812 22.5 6.07812C21.4391 6.07812 20.4217 6.49955 19.6716 7.2497C18.9214 7.99984 18.5 9.01726 18.5 10.0781V12.5781C18.5 12.8543 18.2761 13.0781 18 13.0781H14C13.7239 13.0781 13.5 12.8543 13.5 12.5781V10.0781C13.5 9.01726 13.0786 7.99984 12.3284 7.2497C11.5783 6.49955 10.5609 6.07812 9.5 6.07812ZM7.37868 7.9568C7.94129 7.3942 8.70435 7.07812 9.5 7.07812C10.2956 7.07812 11.0587 7.3942 11.6213 7.9568C12.1839 8.51941 12.5 9.28248 12.5 10.0781V12.5781C12.5 12.8543 12.2761 13.0781 12 13.0781H9.5C8.70435 13.0781 7.94129 12.7621 7.37868 12.1994C6.81607 11.6368 6.5 10.8738 6.5 10.0781C6.5 9.28248 6.81607 8.51941 7.37868 7.9568ZM9.5 8.07812C8.96957 8.07812 8.46086 8.28884 8.08579 8.66391C7.71071 9.03898 7.5 9.54769 7.5 10.0781C7.5 10.6086 7.71071 11.1173 8.08579 11.4923C8.46086 11.8674 8.96957 12.0781 9.5 12.0781H11.5V10.0781C11.5 9.54769 11.2893 9.03898 10.9142 8.66391C10.5391 8.28884 10.0304 8.07812 9.5 8.07812ZM20.3787 7.9568C20.9413 7.3942 21.7043 7.07812 22.5 7.07812C23.2956 7.07812 24.0587 7.3942 24.6213 7.9568C25.1839 8.51941 25.5 9.28248 25.5 10.0781C25.5 10.8738 25.1839 11.6368 24.6213 12.1994C24.0587 12.7621 23.2956 13.0781 22.5 13.0781H20C19.7239 13.0781 19.5 12.8543 19.5 12.5781V10.0781C19.5 9.28248 19.8161 8.51941 20.3787 7.9568ZM22.5 8.07812C21.9696 8.07812 21.4609 8.28884 21.0858 8.66391C20.7107 9.03898 20.5 9.54769 20.5 10.0781V12.0781H22.5C23.0304 12.0781 23.5391 11.8674 23.9142 11.4923C24.2893 11.1173 24.5 10.6086 24.5 10.0781C24.5 9.54769 24.2893 9.03898 23.9142 8.66391C23.5391 8.28884 23.0304 8.07812 22.5 8.07812ZM13.5 14.5781C13.5 14.302 13.7239 14.0781 14 14.0781H18C18.2761 14.0781 18.5 14.302 18.5 14.5781V18.5781C18.5 18.8543 18.2761 19.0781 18 19.0781H14C13.7239 19.0781 13.5 18.8543 13.5 18.5781V14.5781ZM14.5 15.0781V18.0781H17.5V15.0781H14.5ZM7.37868 20.9568C7.94129 20.3942 8.70435 20.0781 9.5 20.0781H12C12.2761 20.0781 12.5 20.302 12.5 20.5781V23.0781C12.5 23.8738 12.1839 24.6368 11.6213 25.1994C11.0587 25.7621 10.2957 26.0781 9.5 26.0781C8.70435 26.0781 7.94129 25.7621 7.37868 25.1994C6.81607 24.6368 6.5 23.8738 6.5 23.0781C6.5 22.2825 6.81607 21.5194 7.37868 20.9568ZM9.5 21.0781C8.96957 21.0781 8.46086 21.2888 8.08579 21.6639C7.71071 22.039 7.5 22.5477 7.5 23.0781C7.5 23.6086 7.71071 24.1173 8.08579 24.4923C8.46086 24.8674 8.96957 25.0781 9.5 25.0781C10.0304 25.0781 10.5391 24.8674 10.9142 24.4923C11.2893 24.1173 11.5 23.6086 11.5 23.0781V21.0781H9.5ZM19.5 20.5781C19.5 20.302 19.7239 20.0781 20 20.0781H22.5C23.2957 20.0781 24.0587 20.3942 24.6213 20.9568C25.1839 21.5194 25.5 22.2825 25.5 23.0781C25.5 23.8738 25.1839 24.6368 24.6213 25.1994C24.0587 25.7621 23.2957 26.0781 22.5 26.0781C21.7043 26.0781 20.9413 25.7621 20.3787 25.1994C19.8161 24.6368 19.5 23.8738 19.5 23.0781V20.5781ZM20.5 21.0781V23.0781C20.5 23.6086 20.7107 24.1173 21.0858 24.4923C21.4609 24.8674 21.9696 25.0781 22.5 25.0781C23.0304 25.0781 23.5391 24.8674 23.9142 24.4923C24.2893 24.1173 24.5 23.6086 24.5 23.0781C24.5 22.5477 24.2893 22.039 23.9142 21.6639C23.5391 21.2888 23.0304 21.0781 22.5 21.0781H20.5Z" fill="white"/>
</svg>
