<svg width="32" height="33" viewBox="0 0 32 33" fill="none" xmlns="http://www.w3.org/2000/svg">
<path d="M17.5004 9.57813C17.5004 8.7497 18.172 8.07812 19.0004 8.07812H28.0004C28.8289 8.07812 29.5004 8.7497 29.5004 9.57813C29.5004 10.4066 28.8289 11.0781 28.0004 11.0781H19.0004C18.172 11.0781 17.5004 10.4066 17.5004 9.57813Z" fill="white"/>
<path d="M7.50391 9.57821C7.50391 8.74978 8.17548 8.07821 9.00391 8.07821L11.888 8.08247C12.3971 8.07351 13.556 8.33641 14.1183 9.45967L14.1187 9.46057L20.4343 22.0781H28.0004C28.8289 22.0781 29.5004 22.7497 29.5004 23.5781C29.5004 24.4066 28.8289 25.0781 28.0004 25.0781H20.1342C19.6686 25.0825 19.2111 24.9561 18.8137 24.7133C18.4137 24.4688 18.0909 24.1163 17.8825 23.6964L11.5734 11.0781L9.00392 11.0782C8.17549 11.0782 7.50391 10.4066 7.50391 9.57821Z" fill="white"/>
</svg>
