<svg width="32" height="32" viewBox="0 0 32 32" fill="none" xmlns="http://www.w3.org/2000/svg">
<path fill-rule="evenodd" clip-rule="evenodd" d="M7 5C6.46957 5 5.96086 5.21071 5.58579 5.58579C5.21071 5.96086 5 6.46957 5 7V18C4.99996 19.4515 5.2872 20.8887 5.84515 22.2286C6.4031 23.5686 7.22074 24.7849 8.25094 25.8075C9.28114 26.83 10.5035 27.6385 11.8476 28.1864C13.1915 28.7343 14.6306 29.0108 16.0818 29C22.1609 28.9586 27 23.92 27 17.875V7C27 6.46957 26.7893 5.96086 26.4142 5.58579C26.0391 5.21071 25.5304 5 25 5H20C19.4696 5 18.9609 5.21071 18.5858 5.58579C18.2107 5.96086 18 6.46957 18 7V18C18 18.5304 17.7893 19.0391 17.4142 19.4142C17.0391 19.7893 16.5304 20 16 20C15.4696 20 14.9609 19.7893 14.5858 19.4142C14.2107 19.0391 14 18.5304 14 18V7C14 6.46957 13.7893 5.96086 13.4142 5.58579C13.0391 5.21071 12.5304 5 12 5H7ZM12 11V7L7 7V11H12ZM7 13H12V18C12 19.0609 12.4214 20.0783 13.1716 20.8284C13.9217 21.5786 14.9391 22 16 22C17.0609 22 18.0783 21.5786 18.8284 20.8284C19.5786 20.0783 20 19.0609 20 18V13H25V17.875C25 22.855 21.0134 26.9664 16.0675 27C14.8799 27.0089 13.7023 26.7827 12.6026 26.3344C11.5029 25.8861 10.5027 25.2246 9.65986 24.388C8.81697 23.5514 8.14799 22.5562 7.69148 21.4598C7.23498 20.3635 6.99997 19.1876 7 18V13ZM25 11V7L20 7V11H25Z" fill="white" stroke="white" stroke-linecap="round" stroke-linejoin="round"/>
</svg>
