<svg width="100%" height="100%" viewBox="0 0 32 32" fill="none" xmlns="http://www.w3.org/2000/svg">
<path fill-rule="evenodd" clip-rule="evenodd" d="M4 16C4 15.4477 4.44772 15 5 15H27C27.5523 15 28 15.4477 28 16C28 16.5523 27.5523 17 27 17H5C4.44772 17 4 16.5523 4 16Z" fill="white"/>
<path fill-rule="evenodd" clip-rule="evenodd" d="M3.5 16C3.5 15.1716 4.17157 14.5 5 14.5H27C27.8284 14.5 28.5 15.1716 28.5 16C28.5 16.8284 27.8284 17.5 27 17.5H5C4.17157 17.5 3.5 16.8284 3.5 16ZM5 15.5C4.72386 15.5 4.5 15.7239 4.5 16C4.5 16.2761 4.72386 16.5 5 16.5H27C27.2761 16.5 27.5 16.2761 27.5 16C27.5 15.7239 27.2761 15.5 27 15.5H5Z" fill="white"/>
</svg>
