<svg width="32" height="33" viewBox="0 0 32 33" fill="none" xmlns="http://www.w3.org/2000/svg">
<path fill-rule="evenodd" clip-rule="evenodd" d="M5.31847 3.30309C4.84958 3.24286 4.37321 3.31681 3.94465 3.51638C3.51608 3.71594 3.15289 4.03292 2.89719 4.43055C2.64152 4.82816 2.50375 5.29014 2.5 5.76291L2.50005 25.2367C2.50379 25.7094 2.6415 26.1714 2.89719 26.569C3.15289 26.9667 3.51609 27.2836 3.94465 27.4832C4.37321 27.6828 4.84957 27.7567 5.31848 27.6965C5.78736 27.6363 6.22958 27.4443 6.59381 27.1429C9.66983 24.5659 12.8102 23.2746 15.1687 22.6331C16.0806 22.3851 16.8742 22.2341 17.5 22.1421V25.9572C17.4976 26.3729 17.5994 26.7826 17.7962 27.1489C17.9929 27.5149 18.2781 27.8258 18.6256 28.0532L19.9942 28.9614C20.3267 29.1829 20.7075 29.3215 21.1046 29.3656C21.5026 29.4097 21.9054 29.3576 22.279 29.2137C22.6527 29.0698 22.9863 28.8382 23.2517 28.5384C23.5172 28.2387 23.707 27.879 23.8048 27.4907L25.2001 21.8883C26.4777 21.6483 27.664 21.0285 28.5962 20.0962C29.8152 18.8772 30.5 17.2239 30.5 15.5C30.5 13.7761 29.8152 12.1228 28.5962 10.9038C27.3772 9.68482 25.7239 9 24 9H19.0209C18.9829 8.99901 18.8603 8.99583 18.7751 8.99124C18.6046 8.98206 18.3436 8.9631 18.0056 8.92399C17.3291 8.84571 16.3477 8.68713 15.1687 8.36644C12.8102 7.72496 9.67684 6.43951 6.60081 3.86246C6.2366 3.56107 5.78737 3.36332 5.31847 3.30309ZM5.5 6.82624V24.1733C8.70439 21.7007 11.9086 20.4109 14.3813 19.7383C15.6371 19.3968 16.7077 19.2134 17.5 19.1148V11.8848C16.7077 11.7862 15.6371 11.6028 14.3813 11.2613C11.9086 10.5887 8.70439 9.29885 5.5 6.82624ZM20.5 12H24C24.9283 12 25.8185 12.3687 26.4749 13.0251C27.1313 13.6815 27.5 14.5717 27.5 15.5C27.5 16.4283 27.1313 17.3185 26.4749 17.9749C25.8237 18.626 24.9424 18.9941 24.0222 18.9999C24.0056 18.9997 23.9892 18.9997 23.9727 19H20.5V12ZM22.0806 22H20.5V25.6965L21.0664 26.0724L22.0806 22Z" fill="white"/>
</svg>
