<svg width="32" height="33" viewBox="0 0 32 33" fill="none" xmlns="http://www.w3.org/2000/svg">
<path fill-rule="evenodd" clip-rule="evenodd" d="M6 5.5C5.44772 5.5 5 5.94772 5 6.5V14.5C5 15.0523 5.44772 15.5 6 15.5H14C14.5523 15.5 15 15.0523 15 14.5V6.5C15 5.94772 14.5523 5.5 14 5.5H6ZM7 13.5V7.5H13V13.5H7Z" fill="white"/>
<path fill-rule="evenodd" clip-rule="evenodd" d="M18 5.5C17.4477 5.5 17 5.94772 17 6.5V14.5C17 15.0523 17.4477 15.5 18 15.5H26C26.5523 15.5 27 15.0523 27 14.5V6.5C27 5.94772 26.5523 5.5 26 5.5H18ZM19 13.5V7.5H25V13.5H19Z" fill="white"/>
<path fill-rule="evenodd" clip-rule="evenodd" d="M5 18.5C5 17.9477 5.44772 17.5 6 17.5H14C14.5523 17.5 15 17.9477 15 18.5V26.5C15 27.0523 14.5523 27.5 14 27.5H6C5.44772 27.5 5 27.0523 5 26.5V18.5ZM7 19.5V25.5H13V19.5H7Z" fill="white"/>
<path fill-rule="evenodd" clip-rule="evenodd" d="M18 17.5C17.4477 17.5 17 17.9477 17 18.5V26.5C17 27.0523 17.4477 27.5 18 27.5H26C26.5523 27.5 27 27.0523 27 26.5V18.5C27 17.9477 26.5523 17.5 26 17.5H18ZM19 25.5V19.5H25V25.5H19Z" fill="white"/>
<path fill-rule="evenodd" clip-rule="evenodd" d="M4.5 6.5C4.5 5.67157 5.17157 5 6 5H14C14.8284 5 15.5 5.67157 15.5 6.5V14.5C15.5 15.3284 14.8284 16 14 16H6C5.17157 16 4.5 15.3284 4.5 14.5V6.5ZM6 6C5.72386 6 5.5 6.22386 5.5 6.5V14.5C5.5 14.7761 5.72386 15 6 15H14C14.2761 15 14.5 14.7761 14.5 14.5V6.5C14.5 6.22386 14.2761 6 14 6H6ZM16.5 6.5C16.5 5.67157 17.1716 5 18 5H26C26.8284 5 27.5 5.67157 27.5 6.5V14.5C27.5 15.3284 26.8284 16 26 16H18C17.1716 16 16.5 15.3284 16.5 14.5V6.5ZM18 6C17.7239 6 17.5 6.22386 17.5 6.5V14.5C17.5 14.7761 17.7239 15 18 15H26C26.2761 15 26.5 14.7761 26.5 14.5V6.5C26.5 6.22386 26.2761 6 26 6H18ZM6.5 7.5C6.5 7.22386 6.72386 7 7 7H13C13.2761 7 13.5 7.22386 13.5 7.5V13.5C13.5 13.7761 13.2761 14 13 14H7C6.72386 14 6.5 13.7761 6.5 13.5V7.5ZM7.5 8V13H12.5V8H7.5ZM18.5 7.5C18.5 7.22386 18.7239 7 19 7H25C25.2761 7 25.5 7.22386 25.5 7.5V13.5C25.5 13.7761 25.2761 14 25 14H19C18.7239 14 18.5 13.7761 18.5 13.5V7.5ZM19.5 8V13H24.5V8H19.5ZM6 18C5.72386 18 5.5 18.2239 5.5 18.5V26.5C5.5 26.7761 5.72386 27 6 27H14C14.2761 27 14.5 26.7761 14.5 26.5V18.5C14.5 18.2239 14.2761 18 14 18H6ZM4.5 18.5C4.5 17.6716 5.17157 17 6 17H14C14.8284 17 15.5 17.6716 15.5 18.5V26.5C15.5 27.3284 14.8284 28 14 28H6C5.17157 28 4.5 27.3284 4.5 26.5V18.5ZM16.5 18.5C16.5 17.6716 17.1716 17 18 17H26C26.8284 17 27.5 17.6716 27.5 18.5V26.5C27.5 27.3284 26.8284 28 26 28H18C17.1716 28 16.5 27.3284 16.5 26.5V18.5ZM18 18C17.7239 18 17.5 18.2239 17.5 18.5V26.5C17.5 26.7761 17.7239 27 18 27H26C26.2761 27 26.5 26.7761 26.5 26.5V18.5C26.5 18.2239 26.2761 18 26 18H18ZM6.5 19.5C6.5 19.2239 6.72386 19 7 19H13C13.2761 19 13.5 19.2239 13.5 19.5V25.5C13.5 25.7761 13.2761 26 13 26H7C6.72386 26 6.5 25.7761 6.5 25.5V19.5ZM7.5 20V25H12.5V20H7.5ZM18.5 19.5C18.5 19.2239 18.7239 19 19 19H25C25.2761 19 25.5 19.2239 25.5 19.5V25.5C25.5 25.7761 25.2761 26 25 26H19C18.7239 26 18.5 25.7761 18.5 25.5V19.5ZM19.5 20V25H24.5V20H19.5Z" fill="white"/>
</svg>
