<svg width="32" height="32" viewBox="0 0 32 32" fill="none" xmlns="http://www.w3.org/2000/svg">
<path fill-rule="evenodd" clip-rule="evenodd" d="M16 11C13.2386 11 11 13.2386 11 16C11 18.7614 13.2386 21 16 21C18.7614 21 21 18.7614 21 16C21 13.2386 18.7614 11 16 11ZM13 16C13 14.3431 14.3431 13 16 13C17.6569 13 19 14.3431 19 16C19 17.6569 17.6569 19 16 19C14.3431 19 13 17.6569 13 16Z" fill="white"/>
<path fill-rule="evenodd" clip-rule="evenodd" d="M3 7C1.89543 7 1 7.89543 1 9V16.9996V23C1 24.1046 1.89543 25 3 25H9.99227C9.99716 25 10.0021 25 10.0069 25H29C30.1046 25 31 24.1046 31 23V9C31 7.89543 30.1046 7 29 7H3ZM10.3757 23H21.6243L29 16.5463V15.4538L21.6243 9H10.3758L3 15.4538V16.5462L10.3757 23ZM3 19.2038V23H7.33855L3 19.2038ZM3 12.7963L7.33858 9H3V12.7963ZM29 19.2038V23H24.6615L29 19.2038ZM29 9H24.6614L29 12.7962V9Z" fill="white"/>
<path fill-rule="evenodd" clip-rule="evenodd" d="M0.5 9C0.5 7.61929 1.61929 6.5 3 6.5H29C30.3807 6.5 31.5 7.61929 31.5 9V23C31.5 24.3807 30.3807 25.5 29 25.5H3C1.61929 25.5 0.5 24.3807 0.5 23V9ZM3 7.5C2.17157 7.5 1.5 8.17157 1.5 9V23C1.5 23.8284 2.17157 24.5 3 24.5H9.99597L10.0032 24.5L10.0069 24.5L29 24.5C29.8284 24.5 30.5 23.8284 30.5 23V9C30.5 8.17157 29.8284 7.5 29 7.5H3ZM2.5 9C2.5 8.72386 2.72386 8.5 3 8.5H7.33858C7.54688 8.5 7.73336 8.62914 7.80663 8.82414C7.8799 9.01913 7.8246 9.23912 7.66783 9.37629L3.32925 13.1725C3.18161 13.3017 2.97205 13.3326 2.79339 13.2516C2.61474 13.1705 2.5 12.9924 2.5 12.7963V9ZM3.5 9.5V11.6944L6.00785 9.5H3.5ZM10.0465 8.62371C10.1377 8.54396 10.2547 8.5 10.3758 8.5H21.6243C21.7454 8.5 21.8624 8.54396 21.9535 8.62371L29.3293 15.0775C29.4378 15.1724 29.5 15.3096 29.5 15.4538V16.5463C29.5 16.6904 29.4378 16.8276 29.3293 16.9225L21.9535 23.3763C21.8624 23.456 21.7454 23.5 21.6243 23.5H10.3757C10.2546 23.5 10.1376 23.456 10.0465 23.3763L2.67075 16.9225C2.56224 16.8276 2.5 16.6904 2.5 16.5462V15.4538C2.5 15.3096 2.56224 15.1724 2.67075 15.0775L10.0465 8.62371ZM10.5636 9.5L3.5 15.6807V16.3193L10.5636 22.5H21.4364L28.5 16.3194V15.6807L21.4364 9.5H10.5636ZM24.1934 8.82414C24.2667 8.62914 24.4531 8.5 24.6614 8.5H29C29.2761 8.5 29.5 8.72386 29.5 9V12.7962C29.5 12.9924 29.3853 13.1705 29.2066 13.2516C29.028 13.3326 28.8184 13.3017 28.6707 13.1725L24.3322 9.37629C24.1754 9.23912 24.1201 9.01913 24.1934 8.82414ZM25.9922 9.5L28.5 11.6943V9.5H25.9922ZM10.5 16C10.5 12.9624 12.9624 10.5 16 10.5C19.0376 10.5 21.5 12.9624 21.5 16C21.5 19.0376 19.0376 21.5 16 21.5C12.9624 21.5 10.5 19.0376 10.5 16ZM16 11.5C13.5147 11.5 11.5 13.5147 11.5 16C11.5 18.4853 13.5147 20.5 16 20.5C18.4853 20.5 20.5 18.4853 20.5 16C20.5 13.5147 18.4853 11.5 16 11.5ZM16 13.5C14.6193 13.5 13.5 14.6193 13.5 16C13.5 17.3807 14.6193 18.5 16 18.5C17.3807 18.5 18.5 17.3807 18.5 16C18.5 14.6193 17.3807 13.5 16 13.5ZM12.5 16C12.5 14.067 14.067 12.5 16 12.5C17.933 12.5 19.5 14.067 19.5 16C19.5 17.933 17.933 19.5 16 19.5C14.067 19.5 12.5 17.933 12.5 16ZM2.79339 18.7485C2.97205 18.6674 3.18161 18.6983 3.32925 18.8275L7.6678 22.6237C7.82457 22.7609 7.87987 22.9809 7.8066 23.1759C7.73333 23.3709 7.54685 23.5 7.33855 23.5H3C2.72386 23.5 2.5 23.2761 2.5 23V19.2038C2.5 19.0076 2.61474 18.8295 2.79339 18.7485ZM29.2066 18.7485C29.3853 18.8295 29.5 19.0076 29.5 19.2038V23C29.5 23.2761 29.2761 23.5 29 23.5H24.6615C24.4532 23.5 24.2667 23.3709 24.1934 23.1759C24.1202 22.9809 24.1755 22.7609 24.3322 22.6237L28.6707 18.8275C28.8184 18.6983 29.028 18.6674 29.2066 18.7485ZM3.5 20.3057V22.5H6.00782L3.5 20.3057ZM25.9922 22.5H28.5V20.3057L25.9922 22.5Z" fill="white"/>
</svg>
