<svg width="32" height="32" viewBox="0 0 32 32" fill="none" xmlns="http://www.w3.org/2000/svg">
<path fill-rule="evenodd" clip-rule="evenodd" d="M14.7696 1.47202C15.1441 1.25745 15.5683 1.14453 16 1.14453C16.431 1.14453 16.8545 1.25709 17.2286 1.471L17.2304 1.47201L28.2282 7.6583C28.5561 7.84448 28.837 8.1016 29.0512 8.40991C29.0932 8.46463 29.1318 8.52272 29.1666 8.58397C29.1921 8.62887 29.2151 8.67469 29.2356 8.72124C29.4071 9.06485 29.4979 9.44393 29.5 9.82944L29.5 9.83766L29.5 22.1627L29.5 22.1668L29.5 22.1707C29.4976 22.6125 29.3788 23.0458 29.1555 23.427C28.9322 23.8083 28.6124 24.1238 28.2282 24.342L28.2239 24.3445L28.2229 24.345L17.2303 30.5283L17.2286 30.5293C16.8545 30.7432 16.431 30.8558 16 30.8558C15.569 30.8558 15.1455 30.7432 14.7714 30.5293L14.7697 30.5283L3.77612 24.3445L3.77256 24.3425C3.3884 24.1243 3.06777 23.8083 2.84449 23.427C2.62121 23.0458 2.50239 22.6125 2.50002 22.1707L2.50002 22.1694L2.5 22.164L2.5 22.1627V9.83228C2.5 9.42505 2.56838 9.09951 2.66862 8.84942C2.7631 8.6137 2.89995 8.41191 3.06514 8.29502C3.07713 8.28653 3.0895 8.27858 3.1022 8.27118L14.7696 1.47202ZM5 10.9506V22.1578C5.0001 22.1598 5.00068 22.1618 5.0017 22.1635C5.00274 22.1653 5.00419 22.1668 5.00594 22.1679L15.0131 27.7969L15.1075 16.5846L5 10.9506ZM10.0078 7.59256L7.07251 9.24366L16.1054 14.2787L19.0734 12.5926L10.0078 7.59256ZM22.1334 10.8543L13.0831 5.86269L16 4.22196L24.9481 9.25529L22.1334 10.8543ZM23.6249 13.4573V19.0627C23.6249 19.8911 22.9534 20.5627 22.1249 20.5627C21.2965 20.5627 20.6249 19.8911 20.6249 19.0627V15.1615L17.6052 16.877L17.5205 26.9231L26.5 21.8721V11.824L23.6249 13.4573Z" fill="white"/>
</svg>
