<svg width="32" height="33" viewBox="0 0 32 33" fill="none" xmlns="http://www.w3.org/2000/svg">
<path d="M3.5 7.42236C3.5 6.59394 4.17157 5.92236 5 5.92236C5.82843 5.92236 6.5 6.59394 6.5 7.42236V25.4224C6.5 26.2508 5.82843 26.9224 5 26.9224C4.17157 26.9224 3.5 26.2508 3.5 25.4224V7.42236Z" fill="white"/>
<path d="M11.5 12.4224C11.5 11.5939 12.1716 10.9224 13 10.9224C13.8284 10.9224 14.5 11.5939 14.5 12.4224V14.3563L16.3355 13.7586C17.1233 13.502 17.9698 13.9327 18.2263 14.7204C18.4828 15.5081 18.0522 16.3546 17.2645 16.6111L15.4252 17.2101L16.5639 18.7788C17.0505 19.4492 16.9015 20.3872 16.2311 20.8738C15.5607 21.3605 14.6227 21.2115 14.136 20.5411L13 18.976L11.8639 20.5411C11.3772 21.2115 10.4393 21.3605 9.76883 20.8738C9.0984 20.3872 8.94942 19.4492 9.43606 18.7788L10.5747 17.2101L8.7355 16.6111C7.94779 16.3546 7.51718 15.5081 7.7737 14.7204C8.03023 13.9327 8.87675 13.502 9.66446 13.7586L11.5 14.3563V12.4224Z" fill="white"/>
<path d="M23.5 12.4224C23.5 11.5939 24.1716 10.9224 25 10.9224C25.8284 10.9224 26.5 11.5939 26.5 12.4224V14.3563L28.3355 13.7586C29.1233 13.502 29.9698 13.9327 30.2263 14.7204C30.4828 15.5081 30.0522 16.3546 29.2645 16.6111L27.4252 17.2101L28.5639 18.7788C29.0505 19.4492 28.9015 20.3872 28.2311 20.8738C27.5607 21.3605 26.6227 21.2115 26.136 20.5411L25 18.976L23.8639 20.5411C23.3772 21.2115 22.4393 21.3605 21.7688 20.8738C21.0984 20.3872 20.9494 19.4492 21.4361 18.7788L22.5747 17.2101L20.7355 16.6111C19.9478 16.3546 19.5172 15.5081 19.7737 14.7204C20.0302 13.9327 20.8767 13.502 21.6645 13.7586L23.5 14.3563V12.4224Z" fill="white"/>
</svg>
