<svg width="100%" height="100%" viewBox="0 0 12 12" fill="white" xmlns="http://www.w3.org/2000/svg">
<g id="Paste">
<g id="Vector">
<path fill-rule="evenodd" clip-rule="evenodd" d="M6.25891 0.9375C6.24727 0.925367 6.27082 0.949414 6.25891 0.9375C5.81713 0.495519 5.50997 0.1875 4.875 0.1875C4.24003 0.1875 3.93287 0.49552 3.49109 0.9375C3.47918 0.949414 3.50273 0.925366 3.49109 0.9375H1.875C1.62636 0.9375 1.3879 1.03627 1.21209 1.21209C1.03627 1.3879 0.9375 1.62636 0.9375 1.875V8.625C0.9375 8.87364 1.03627 9.1121 1.21209 9.28791C1.3879 9.46373 1.62636 9.5625 1.875 9.5625H2.625C2.93566 9.5625 3.1875 9.31066 3.1875 9C3.1875 8.68934 2.93566 8.4375 2.625 8.4375H2.0625L2.0625 2.0625H2.87828C2.83491 2.24535 2.8125 2.43402 2.8125 2.625V2.86708C2.8125 3.17774 3.06434 3.42958 3.375 3.42958H6.375C6.68566 3.42958 6.9375 3.17774 6.9375 2.86708V2.625C6.9375 2.43402 6.91509 2.24535 6.87172 2.0625H7.6875V2.73621C7.6875 3.04687 7.93934 3.29871 8.25 3.29871C8.56066 3.29871 8.8125 3.04687 8.8125 2.73621V1.875C8.8125 1.62636 8.71373 1.3879 8.53791 1.21209C8.3621 1.03627 8.12364 0.9375 7.875 0.9375H6.25891ZM3.95096 2.4375H5.79904C5.79904 2.4375 5.4375 1.3125 4.875 1.3125C4.3125 1.3125 3.95096 2.4375 3.95096 2.4375Z"/>
<path fill-rule="evenodd" clip-rule="evenodd" d="M6.375 6.56243C6.06434 6.56243 5.8125 6.81427 5.8125 7.12493C5.8125 7.43559 6.06434 7.68743 6.375 7.68743H8.25C8.56066 7.68743 8.8125 7.43559 8.8125 7.12493C8.8125 6.81427 8.56066 6.56243 8.25 6.56243H6.375ZM6.375 8.43743C6.06434 8.43743 5.8125 8.68927 5.8125 8.99993C5.8125 9.31059 6.06434 9.56243 6.375 9.56243H8.25C8.56066 9.56243 8.8125 9.31059 8.8125 8.99993C8.8125 8.68927 8.56066 8.43743 8.25 8.43743H6.375Z"/>
<path fill-rule="evenodd" clip-rule="evenodd" d="M4.5 3.93743C4.25136 3.93743 4.0129 4.0362 3.83709 4.21202C3.66127 4.38783 3.5625 4.62629 3.5625 4.87493V10.8749C3.5625 11.1236 3.66127 11.362 3.83709 11.5378C4.0129 11.7137 4.25136 11.8124 4.5 11.8124H10.125C10.3736 11.8124 10.6121 11.7137 10.7879 11.5378C10.9637 11.362 11.0625 11.1236 11.0625 10.8749V4.87493C11.0625 4.62629 10.9637 4.38783 10.7879 4.21202C10.6121 4.0362 10.3736 3.93743 10.125 3.93743H4.5ZM4.6875 10.6874H9.9375V5.06243H4.6875V10.6874Z"/>
</g>
</g>
</svg>
