<svg width="32" height="33" viewBox="0 0 32 33" fill="none" xmlns="http://www.w3.org/2000/svg">
<path fill-rule="evenodd" clip-rule="evenodd" d="M20.0345 3.60804C20.3403 3.48 20.6685 3.41406 21 3.41406C21.3315 3.41406 21.6597 3.48 21.9655 3.60804C22.2691 3.73515 22.5446 3.92094 22.7762 4.15473L22.7772 4.15576L28.3441 9.72269L28.3451 9.72363C28.5789 9.95522 28.7647 10.2307 28.8918 10.5343C29.0199 10.8401 29.0858 11.1684 29.0858 11.4999C29.0858 11.8314 29.0199 12.1596 28.8918 12.4654C28.7648 12.769 28.579 13.0444 28.3452 13.276L28.3442 13.277L13.0607 28.5606C12.7794 28.8419 12.3978 28.9999 12 28.9999H6C5.33696 28.9999 4.70108 28.7365 4.23223 28.2677C3.76339 27.7988 3.5 27.1629 3.5 26.4999V20.9138C3.5 20.3036 3.77608 19.7083 4.15416 19.3197L4.15784 19.3159L15.7987 7.6015C15.8412 7.54478 15.8881 7.49056 15.9393 7.43934C15.9883 7.39041 16.0399 7.34541 16.0939 7.30444L19.2227 4.15587C19.4545 3.9217 19.7305 3.7353 20.0345 3.60804ZM6.5 25.9999V21.1212L17 10.6213L21.8786 15.4999L11.3787 25.9999H6.5ZM21 6.62119L19.1213 8.49996L23.9999 13.3786L25.8787 11.4999L21 6.62119Z" fill="white"/>
</svg>
