<svg width="32" height="33" viewBox="0 0 32 33" fill="none" xmlns="http://www.w3.org/2000/svg">
<path fill-rule="evenodd" clip-rule="evenodd" d="M11.6086 3.37616C11.1365 3.10313 10.5878 2.99283 10.0469 3.06221C8.23807 3.29405 6.5753 4.17702 5.37035 5.54589C4.16532 6.91484 3.50041 8.67631 3.5 10.5C3.5 15.4065 5.4491 20.1121 8.91853 23.5815C12.388 27.0509 17.0938 29 22.0003 29C23.8241 28.9996 25.5852 28.3347 26.9542 27.1297C28.3231 25.9247 29.2061 24.2621 29.4378 22.4532C29.5072 21.9123 29.3969 21.3635 29.1239 20.8914C28.8526 20.4222 28.4354 20.0546 27.9361 19.8443L27.9341 19.8434L22.1001 17.3378L22.0988 17.3373C21.7164 17.1712 21.2935 17.1018 20.8762 17.1403C20.4599 17.1786 20.06 17.3213 19.7134 17.555L19.7123 17.5558L16.8296 19.4814C15.2109 18.6374 13.8888 17.3183 13.0412 15.7015L14.9725 12.7639L14.9758 12.7587C15.1969 12.4134 15.3296 12.019 15.3623 11.6103C15.395 11.2023 15.3255 10.79 15.1636 10.4156L12.6569 4.56655L12.6561 4.56478C12.4459 4.06508 12.0781 3.64765 11.6086 3.37616ZM10.211 16.7507L10.2095 16.7476C10.0249 16.3618 9.94229 15.9352 9.96965 15.5084C9.98214 15.3136 10.0174 15.1217 10.074 14.9365L10.0749 14.9336L10.0832 14.9073C10.1502 14.6974 10.245 14.4965 10.3657 14.3101L10.3674 14.3075L12.303 11.3567L10.0516 6.10336C9.11328 6.30554 8.26053 6.80293 7.62221 7.52809C6.89928 8.34937 6.50033 9.40591 6.5 10.5C6.5001 14.6108 8.13312 18.5535 11.0398 21.4602C13.9466 24.3669 17.8893 25.9999 22 26C23.0941 25.9997 24.1507 25.6008 24.972 24.8778C25.697 24.2396 26.194 23.3865 26.3961 22.4478L21.1575 20.1981L18.2615 22.1326L18.2606 22.1332C18.0584 22.2692 17.8284 22.3765 17.6041 22.4471L17.601 22.4481C17.424 22.5026 17.2409 22.5374 17.0548 22.5516C16.6219 22.5844 16.1879 22.504 15.7956 22.3182L15.7928 22.3169C13.36 21.1465 11.3893 19.1841 10.2125 16.7538L10.211 16.7507Z" fill="white"/>
</svg>
