<svg width="32" height="33" viewBox="0 0 32 33" fill="none" xmlns="http://www.w3.org/2000/svg">
<path fill-rule="evenodd" clip-rule="evenodd" d="M12.8673 14.1187C14.8787 13.4154 17.0681 13.4097 19.0829 14.1022L19.8583 17.8166L19.8614 17.8306C19.9327 18.1492 20.0799 18.4459 20.2906 18.6953C20.5013 18.9447 20.7692 19.1395 21.0714 19.263L26.9863 21.6264C27.3893 21.7917 27.8355 21.82 28.2562 21.7069C28.6783 21.5934 29.0511 21.344 29.3171 20.9974C30.3581 19.6512 30.8731 17.972 30.7658 16.2736C30.6585 14.5744 29.9348 12.972 28.7316 11.7674C25.354 8.39241 20.7745 6.49658 15.9997 6.49658C11.225 6.49658 6.64485 8.39307 3.26725 11.7681C2.06402 12.9726 1.34104 14.5744 1.23367 16.2736C1.12635 17.972 1.64139 19.6513 2.68243 20.9974C2.94842 21.344 3.32125 21.5934 3.74328 21.7069C4.16402 21.82 4.6102 21.7917 5.01318 21.6264L10.9208 19.2659L10.931 19.2618C11.2361 19.1359 11.5059 18.9374 11.7168 18.6834C11.9277 18.4295 12.0734 18.1279 12.1411 17.8048L12.8657 14.1193L12.8673 14.1187ZM4.68198 13.1818C7.68451 10.1818 11.7553 8.49658 15.9997 8.49658C20.2441 8.49658 24.3147 10.1817 27.3172 13.1815C28.1767 14.0419 28.6931 15.186 28.7698 16.3997C28.8464 17.6122 28.479 18.8111 27.7362 19.7723L21.8271 17.4112C21.8238 17.4096 21.8208 17.4074 21.8184 17.4046C21.8162 17.402 21.8146 17.399 21.8136 17.3958L21.0419 13.6991C20.9742 13.3639 20.8211 13.0517 20.5974 12.7929C20.3725 12.5327 20.0839 12.3354 19.7599 12.2201L19.4247 13.1623L19.7514 12.2171C17.307 11.3723 14.6491 11.3771 12.2078 12.2306C11.8829 12.3437 11.5927 12.5388 11.3652 12.7969C11.1374 13.0554 10.9802 13.3682 10.9089 13.7052L10.906 13.7194L10.1831 17.3964C10.1821 17.3998 10.1805 17.4029 10.1782 17.4056C10.176 17.4084 10.1731 17.4106 10.1699 17.4122L4.26617 19.7711L4.26329 19.7723C3.52052 18.811 3.15307 17.6122 3.22969 16.3997C3.30638 15.1862 3.82269 14.0421 4.68198 13.1818Z" fill="white"/>
<path d="M4.99976 24.5C4.44747 24.5 3.99976 24.9477 3.99976 25.5C3.99976 26.0523 4.44747 26.5 4.99976 26.5H26.9998C27.552 26.5 27.9998 26.0523 27.9998 25.5C27.9998 24.9477 27.552 24.5 26.9998 24.5H4.99976Z" fill="white"/>
<path fill-rule="evenodd" clip-rule="evenodd" d="M2.91383 11.4144C6.38517 7.94572 11.0924 5.99658 15.9997 5.99658C20.9071 5.99658 25.6136 7.94504 29.085 11.4137C30.3741 12.7043 31.1498 14.4215 31.2648 16.2421C31.3798 18.0616 30.8281 19.8606 29.713 21.3028C29.3801 21.7361 28.9138 22.0478 28.386 22.1897C27.8602 22.3311 27.3025 22.2959 26.7987 22.0899C26.798 22.0896 26.7973 22.0893 26.7966 22.089L20.8859 19.7273L20.8823 19.7258C20.5054 19.5718 20.1714 19.3289 19.9087 19.018C19.646 18.707 19.4623 18.3371 19.3734 17.9398L19.3727 17.9363L19.3696 17.9223L19.3689 17.9188L18.6526 14.4877C16.9086 13.9487 15.0414 13.9535 13.3001 14.5018L12.6305 17.9073C12.5461 18.3102 12.3644 18.6863 12.1015 19.0029C11.8385 19.3195 11.5021 19.5671 11.1216 19.724L11.1064 19.7303L5.20065 22.09C4.69686 22.296 4.13929 22.3311 3.61348 22.1897C3.08559 22.0478 2.61919 21.736 2.28633 21.3025C1.17132 19.8604 0.619697 18.0615 0.734665 16.2421C0.849708 14.4215 1.62466 12.705 2.91383 11.4144ZM3.62086 12.1216C2.50365 13.2401 1.83237 14.7274 1.73267 16.3051C1.63302 17.8822 2.11128 19.4415 3.07795 20.6915L3.07911 20.693C3.27818 20.9525 3.55722 21.1391 3.87308 21.224C4.18797 21.3086 4.5219 21.2875 4.82351 21.1638L4.82765 21.1621L10.7327 18.8027L10.7403 18.7995C10.9701 18.7048 11.1734 18.5552 11.3322 18.364C11.4905 18.1734 11.5999 17.9472 11.6511 17.705L12.3751 14.0228C12.4093 13.8488 12.5332 13.7059 12.7006 13.6473L12.7023 13.6468C14.8197 12.9063 17.1245 12.9003 19.2455 13.6294C19.4122 13.6866 19.5364 13.8275 19.5724 14L20.347 17.7109L20.3478 17.7144L20.3493 17.7215C20.3494 17.722 20.3495 17.7225 20.3497 17.723C20.4035 17.9624 20.5143 18.1852 20.6726 18.3726C20.8309 18.56 21.032 18.7064 21.2589 18.7994C21.2594 18.7997 21.26 18.7999 21.2606 18.8001L27.176 21.1638C27.4776 21.2874 27.8115 21.3086 28.1264 21.224C28.4423 21.1391 28.7213 20.9524 28.9204 20.693L28.9216 20.6915C29.8882 19.4415 30.3665 17.8822 30.2668 16.3051C30.1671 14.7276 29.4953 13.2396 28.3782 12.1211C25.0943 8.83978 20.642 6.99658 15.9997 6.99658C11.3576 6.99658 6.9047 8.84036 3.62086 12.1216ZM15.9997 8.99658C11.8879 8.99658 7.94436 10.6291 5.0356 13.5352C4.26233 14.3096 3.79771 15.3391 3.72869 16.4313C3.66762 17.3978 3.92009 18.3547 4.44312 19.162L9.74272 17.0444L10.4161 13.6194L10.419 13.6052L10.4198 13.6017C10.5089 13.1804 10.7054 12.7894 10.9901 12.4663C11.2744 12.1438 11.6371 11.9 12.0431 11.7585C14.5906 10.8679 17.3641 10.863 19.9147 11.7446C19.9169 11.7453 19.919 11.746 19.9211 11.7468C19.9232 11.7475 19.9254 11.7483 19.9275 11.749C20.333 11.8933 20.6942 12.1403 20.9756 12.4659C21.2553 12.7894 21.4467 13.1795 21.5317 13.5984C21.5318 13.599 21.5319 13.5995 21.532 13.6001L22.2505 17.0419L27.5563 19.162C28.0794 18.3548 28.3319 17.3978 28.2708 16.4313C28.2018 15.339 27.7371 14.3094 26.9637 13.535C24.0549 10.629 20.1114 8.99658 15.9997 8.99658ZM18.9537 12.9947L18.9522 12.9989C18.8623 13.2591 18.9995 13.543 19.2593 13.6341C19.519 13.7252 19.8036 13.5892 19.8958 13.3299L19.8973 13.3256L20.0344 12.9403C20.1008 12.9945 20.1626 13.0546 20.2191 13.1199C20.3865 13.3136 20.5011 13.5472 20.5518 13.7981L20.5525 13.8013L21.3242 17.498C21.3273 17.513 21.3311 17.5278 21.3356 17.5425C21.3564 17.6102 21.3907 17.6731 21.4365 17.7273C21.4864 17.7863 21.5487 17.8336 21.6187 17.8657C21.6219 17.8671 21.6251 17.8686 21.6284 17.87C21.6327 17.8719 21.6371 17.8737 21.6416 17.8755L27.5507 20.2366C27.7581 20.3195 27.9953 20.2548 28.1318 20.078C28.9489 19.0207 29.3531 17.7019 29.2688 16.3682C29.1844 15.0331 28.6164 13.7746 27.671 12.8281C24.5747 9.73463 20.3766 7.99658 15.9997 7.99658C11.6228 7.99658 7.42486 9.73438 4.32857 12.8281C3.38335 13.7745 2.81504 15.0333 2.73068 16.3682C2.64641 17.7019 3.05059 19.0206 3.86765 20.078C4.00564 20.2566 4.24617 20.3206 4.45466 20.2342C4.45464 20.2342 4.45469 20.2342 4.45466 20.2342L10.3554 17.8765C10.3663 17.8721 10.377 17.8674 10.3876 17.8623C10.455 17.8297 10.5148 17.7829 10.5629 17.7251C10.61 17.6683 10.6447 17.6022 10.6646 17.5312C10.6681 17.5185 10.6712 17.5058 10.6737 17.4929L11.3959 13.8194L11.3966 13.8158L11.3981 13.8087C11.3982 13.8082 11.3983 13.8076 11.3984 13.807C11.4521 13.5549 11.5698 13.3209 11.7403 13.1275C11.9109 12.9339 12.1286 12.7876 12.3723 12.7028C14.5496 11.9415 16.9077 11.886 19.1118 12.5371L18.9537 12.9947ZM10.1699 17.4122L10.1619 17.3923L10.1699 17.4122ZM3.49976 25.5C3.49976 24.6716 4.17133 24 4.99976 24H26.9998C27.8282 24 28.4998 24.6716 28.4998 25.5C28.4998 26.3284 27.8282 27 26.9998 27H4.99976C4.17133 27 3.49976 26.3284 3.49976 25.5ZM4.99976 25C4.72361 25 4.49976 25.2239 4.49976 25.5C4.49976 25.7761 4.72361 26 4.99976 26H26.9998C27.2759 26 27.4998 25.7761 27.4998 25.5C27.4998 25.2239 27.2759 25 26.9998 25H4.99976Z" fill="white"/>
</svg>
