<svg width="32" height="33" viewBox="0 0 32 33" fill="none" xmlns="http://www.w3.org/2000/svg">
<path d="M27.0607 5.43934C27.6464 6.02513 27.6464 6.97487 27.0607 7.56066L23.6213 11H25C25.8284 11 26.5 11.6716 26.5 12.5C26.5 13.3284 25.8284 14 25 14H20.0007L19.9964 14C19.5856 13.9988 19.2122 13.8319 18.9425 13.5638L18.9415 13.5628L18.9362 13.5575C18.7947 13.4151 18.687 13.2505 18.614 13.0743C18.541 12.8982 18.5006 12.7045 18.5 12.5038L18.5 7.5C18.5 6.67157 19.1716 6 20 6C20.8284 6 21.5 6.67157 21.5 7.5V8.87868L24.9393 5.43934C25.5251 4.85355 26.4749 4.85355 27.0607 5.43934Z" fill="white"/>
<path fill-rule="evenodd" clip-rule="evenodd" d="M11.6086 3.37518C11.1365 3.10216 10.5878 2.99185 10.0469 3.06123C8.23807 3.29308 6.5753 4.17605 5.37035 5.54491C4.16532 6.91387 3.50041 8.67533 3.5 10.4991C3.5 15.4056 5.4491 20.1111 8.91853 23.5805C12.388 27.05 17.0938 28.9991 22.0003 28.9991C23.8241 28.9987 25.5852 28.3337 26.9542 27.1287C28.3231 25.9237 29.2061 24.2612 29.4378 22.4522C29.5072 21.9113 29.3969 21.3625 29.1239 20.8904C28.8526 20.4213 28.4354 20.0536 27.9361 19.8433L27.9341 19.8424L22.1001 17.3368L22.0988 17.3363C21.7164 17.1702 21.2935 17.1009 20.8762 17.1393C20.4599 17.1776 20.06 17.3203 19.7134 17.554L19.7123 17.5548L16.8296 19.4805C15.2109 18.6364 13.8888 17.3173 13.0412 15.7005L14.9725 12.7629L14.9758 12.7578C15.1969 12.4124 15.3296 12.018 15.3623 11.6093C15.395 11.2013 15.3255 10.789 15.1636 10.4146L12.6569 4.56558L12.6561 4.56381C12.4459 4.0641 12.0781 3.64668 11.6086 3.37518ZM10.211 16.7497L10.2095 16.7466C10.0249 16.3609 9.94229 15.9342 9.96965 15.5075C9.98214 15.3126 10.0174 15.1207 10.074 14.9355L10.0749 14.9326L10.0832 14.9063C10.1502 14.6965 10.245 14.4955 10.3657 14.3091L10.3674 14.3065L12.303 11.3557L10.0516 6.10238C9.11328 6.30457 8.26053 6.80196 7.62221 7.52711C6.89928 8.34839 6.50033 9.40493 6.5 10.4991C6.5001 14.6098 8.13312 18.5525 11.0398 21.4592C13.9466 24.3659 17.8893 25.999 22 25.9991C23.0941 25.9987 24.1507 25.5998 24.972 24.8769C25.697 24.2386 26.194 23.3855 26.3961 22.4469L21.1575 20.1971L18.2615 22.1316L18.2606 22.1322C18.0584 22.2682 17.8284 22.3755 17.6041 22.4462L17.601 22.4471C17.424 22.5016 17.2409 22.5365 17.0548 22.5506C16.6219 22.5835 16.1879 22.503 15.7956 22.3173L15.7928 22.3159C13.36 21.1456 11.3893 19.1831 10.2125 16.7528L10.211 16.7497Z" fill="white"/>
</svg>
