<svg width="32" height="33" viewBox="0 0 32 33" fill="none" xmlns="http://www.w3.org/2000/svg">
<path fill-rule="evenodd" clip-rule="evenodd" d="M17.921 9.10583C18.0628 8.57204 18.6104 8.25425 19.1442 8.39601C20.3347 8.7122 21.4205 9.33748 22.2915 10.2085C23.1625 11.0795 23.7878 12.1653 24.104 13.3558C24.2458 13.8896 23.928 14.4372 23.3942 14.579C22.8604 14.7208 22.3128 14.403 22.171 13.8692C21.9453 13.0194 21.499 12.2444 20.8773 11.6227C20.2556 11.001 19.4806 10.5547 18.6308 10.329C18.0971 10.1872 17.7793 9.63961 17.921 9.10583Z" fill="white"/>
<path fill-rule="evenodd" clip-rule="evenodd" d="M18.9592 5.24051C19.1023 4.7071 19.6508 4.39074 20.1842 4.5339C22.0498 5.03458 23.7509 6.01715 25.1167 7.383C26.4826 8.74885 27.4651 10.4499 27.9658 12.3155C28.109 12.8489 27.7926 13.3974 27.2592 13.5405C26.7258 13.6837 26.1773 13.3673 26.0342 12.8339C25.6244 11.3071 24.8203 9.91501 23.7025 8.79721C22.5847 7.67942 21.1926 6.87529 19.6658 6.46554C19.1324 6.32238 18.816 5.77392 18.9592 5.24051Z" fill="white"/>
<path fill-rule="evenodd" clip-rule="evenodd" d="M18.4763 5.11091C18.691 4.3108 19.5137 3.83625 20.3138 4.05098C22.2641 4.5744 24.0424 5.60158 25.4703 7.02945C26.8981 8.45731 27.9253 10.2356 28.4487 12.1859C28.6635 12.986 28.1889 13.8087 27.3888 14.0235C26.5887 14.2382 25.766 13.7636 25.5513 12.9635C25.1642 11.5215 24.4047 10.2065 23.3489 9.15077C22.2932 8.09499 20.9783 7.33547 19.5362 6.94845C18.7361 6.73372 18.2615 5.91102 18.4763 5.11091ZM20.0546 5.01681C19.7879 4.94523 19.5137 5.10341 19.4421 5.37012C19.3705 5.63682 19.5287 5.91105 19.7954 5.98263C21.4069 6.41511 22.8762 7.26385 24.0561 8.44366C25.2359 9.62347 26.0846 11.0928 26.5171 12.7043C26.5887 12.971 26.8629 13.1292 27.1296 13.0576C27.3963 12.9861 27.5545 12.7118 27.4829 12.4451C27.005 10.6642 26.067 9.04039 24.7632 7.73655C23.4593 6.43272 21.8355 5.49476 20.0546 5.01681ZM17.4378 8.97748C17.6504 8.17681 18.4719 7.70012 19.2725 7.91277C20.5483 8.25157 21.7117 8.9216 22.6451 9.85494C23.5784 10.7883 24.2485 11.9518 24.5873 13.2275C24.7999 14.0282 24.3232 14.8496 23.5225 15.0623C22.7219 15.2749 21.9004 14.7982 21.6878 13.9975C21.4847 13.233 21.0831 12.5356 20.5238 11.9763C19.9644 11.4169 19.2671 11.0153 18.5025 10.8123C17.7018 10.5996 17.2251 9.77815 17.4378 8.97748ZM19.0159 8.87926C18.749 8.80838 18.4751 8.96728 18.4043 9.23417C18.3334 9.50106 18.4923 9.77488 18.7592 9.84576C19.6941 10.0941 20.5468 10.5851 21.2309 11.2692C21.9149 11.9532 22.406 12.8059 22.6543 13.7409C22.7251 14.0077 22.999 14.1666 23.2659 14.0958C23.5327 14.0249 23.6916 13.7511 23.6208 13.4842C23.3272 12.3788 22.7467 11.3707 21.938 10.562C21.1293 9.75336 20.1212 9.17282 19.0159 8.87926Z" fill="white"/>
<path fill-rule="evenodd" clip-rule="evenodd" d="M11.6086 3.37518C11.1365 3.10216 10.5878 2.99185 10.0469 3.06123C8.23807 3.29308 6.5753 4.17605 5.37035 5.54491C4.16532 6.91387 3.50041 8.67533 3.5 10.4991C3.5 15.4056 5.4491 20.1111 8.91853 23.5805C12.388 27.05 17.0938 28.9991 22.0003 28.9991C23.8241 28.9987 25.5852 28.3337 26.9542 27.1287C28.3231 25.9237 29.2061 24.2612 29.4378 22.4522C29.5072 21.9113 29.3969 21.3625 29.1239 20.8904C28.8526 20.4213 28.4354 20.0536 27.9361 19.8433L27.9341 19.8424L22.1001 17.3368L22.0988 17.3363C21.7164 17.1702 21.2935 17.1009 20.8762 17.1393C20.4599 17.1776 20.06 17.3203 19.7134 17.554L19.7123 17.5548L16.8296 19.4805C15.2109 18.6364 13.8888 17.3173 13.0412 15.7005L14.9725 12.7629L14.9758 12.7578C15.1969 12.4124 15.3296 12.018 15.3623 11.6093C15.395 11.2013 15.3255 10.789 15.1636 10.4146L12.6569 4.56558L12.6561 4.56381C12.4459 4.0641 12.0781 3.64668 11.6086 3.37518ZM10.211 16.7497L10.2095 16.7466C10.0249 16.3609 9.94229 15.9342 9.96965 15.5075C9.98214 15.3126 10.0174 15.1207 10.074 14.9355L10.0749 14.9326L10.0832 14.9063C10.1502 14.6965 10.245 14.4955 10.3657 14.3091L10.3674 14.3065L12.303 11.3557L10.0516 6.10238C9.11328 6.30457 8.26053 6.80196 7.62221 7.52711C6.89928 8.34839 6.50033 9.40493 6.5 10.4991C6.5001 14.6098 8.13312 18.5525 11.0398 21.4592C13.9466 24.3659 17.8893 25.999 22 25.9991C23.0941 25.9987 24.1507 25.5998 24.972 24.8769C25.697 24.2386 26.194 23.3855 26.3961 22.4469L21.1575 20.1971L18.2615 22.1316L18.2606 22.1322C18.0584 22.2682 17.8284 22.3755 17.6041 22.4462L17.601 22.4471C17.424 22.5016 17.2409 22.5365 17.0548 22.5506C16.6219 22.5835 16.1879 22.503 15.7956 22.3173L15.7928 22.3159C13.36 21.1456 11.3893 19.1831 10.2125 16.7528L10.211 16.7497Z" fill="white"/>
</svg>
