<svg width="32" height="33" viewBox="0 0 32 33" fill="none" xmlns="http://www.w3.org/2000/svg">
<path d="M14.5039 6.57812C14.5039 5.7497 15.1755 5.07812 16.0039 5.07812C16.8323 5.07812 17.5039 5.7497 17.5039 6.57812V16.0781C17.5039 16.9066 16.8323 17.5781 16.0039 17.5781C15.1755 17.5781 14.5039 16.9066 14.5039 16.0781V6.57812Z" fill="white"/>
<path d="M9.18573 6.09593C9.88006 5.64406 10.8092 5.84062 11.2611 6.53496C11.713 7.2293 11.5164 8.15849 10.8221 8.61035C9.10564 9.72741 7.79611 11.3692 7.08869 13.2911C6.38127 15.2129 6.31384 17.312 6.89643 19.2753C7.47903 21.2386 8.68047 22.9611 10.3217 24.186C11.9629 25.4109 13.956 26.0727 16.0039 26.0727C18.0518 26.0727 20.0449 25.4109 21.6861 24.186C23.3273 22.9611 24.5288 21.2386 25.1114 19.2753C25.694 17.312 25.6265 15.2129 24.9191 13.2911C24.2117 11.3692 22.9022 9.72741 21.1857 8.61035C20.4914 8.15848 20.2948 7.2293 20.7467 6.53496C21.1986 5.84063 22.1277 5.64406 22.8221 6.09593C25.0806 7.56574 26.8036 9.72601 27.7345 12.2548C28.6653 14.7835 28.754 17.5454 27.9874 20.1287C27.2208 22.712 25.64 24.9784 23.4805 26.5902C21.321 28.2019 18.6985 29.0727 16.0039 29.0727C13.3093 29.0727 10.6868 28.2019 8.52729 26.5902C6.3678 24.9784 4.78696 22.712 4.02039 20.1287C3.25381 17.5454 3.34255 14.7835 4.27336 12.2548C5.20418 9.72601 6.92724 7.56574 9.18573 6.09593Z" fill="white"/>
</svg>
