<svg width="32" height="32" viewBox="0 0 32 32" fill="none" xmlns="http://www.w3.org/2000/svg">
<path d="M25 14.5C25 15.3284 24.3284 16 23.5 16C22.6716 16 22 15.3284 22 14.5C22 13.6716 22.6716 13 23.5 13C24.3284 13 25 13.6716 25 14.5Z" fill="white"/>
<path fill-rule="evenodd" clip-rule="evenodd" d="M8 4C7.44772 4 7 4.44772 7 5V9H5.6625C3.99829 9 2.5 10.2751 2.5 12V22C2.5 22.5523 2.94772 23 3.5 23H7V27.5C7 28.0523 7.44772 28.5 8 28.5H24C24.5523 28.5 25 28.0523 25 27.5V23H28.5C29.0523 23 29.5 22.5523 29.5 22V12C29.5 10.2751 28.0017 9 26.3375 9H25V5C25 4.44772 24.5523 4 24 4H8ZM5.6625 11H26.3375C27.0483 11 27.5 11.5249 27.5 12V21H25V19C25 18.4477 24.5523 18 24 18H8C7.44772 18 7 18.4477 7 19V21H4.5V12C4.5 11.5249 4.95171 11 5.6625 11ZM9 9H23V6H9V9ZM9 20H23V26.5H9V20Z" fill="white"/>
<path fill-rule="evenodd" clip-rule="evenodd" d="M6.5 5C6.5 4.17157 7.17157 3.5 8 3.5H24C24.8284 3.5 25.5 4.17157 25.5 5V8.5H26.3375C28.2363 8.5 30 9.95913 30 12V22C30 22.8284 29.3284 23.5 28.5 23.5H25.5V27.5C25.5 28.3284 24.8284 29 24 29H8C7.17157 29 6.5 28.3284 6.5 27.5V23.5H3.5C2.67157 23.5 2 22.8284 2 22V12C2 9.95913 3.76369 8.5 5.6625 8.5H6.5V5ZM8 4.5C7.72386 4.5 7.5 4.72386 7.5 5V9.5H5.6625C4.2329 9.5 3 10.591 3 12V22C3 22.2761 3.22386 22.5 3.5 22.5H7.5V27.5C7.5 27.7761 7.72386 28 8 28H24C24.2761 28 24.5 27.7761 24.5 27.5V22.5H28.5C28.7761 22.5 29 22.2761 29 22V12C29 10.591 27.7671 9.5 26.3375 9.5H24.5V5C24.5 4.72386 24.2761 4.5 24 4.5H8ZM8.5 5.5H23.5V9.5H8.5V5.5ZM9.5 6.5V8.5H22.5V6.5H9.5ZM5.6625 11.5C5.20067 11.5 5 11.8275 5 12V20.5H6.5V19C6.5 18.1716 7.17157 17.5 8 17.5H24C24.8284 17.5 25.5 18.1716 25.5 19V20.5H27V12C27 11.8275 26.7993 11.5 26.3375 11.5H5.6625ZM4 12C4 11.2224 4.70275 10.5 5.6625 10.5H26.3375C27.2973 10.5 28 11.2224 28 12V21.5H24.5V19C24.5 18.7239 24.2761 18.5 24 18.5H8C7.72386 18.5 7.5 18.7239 7.5 19V21.5H4V12ZM23.5 13.5C22.9477 13.5 22.5 13.9477 22.5 14.5C22.5 15.0523 22.9477 15.5 23.5 15.5C24.0523 15.5 24.5 15.0523 24.5 14.5C24.5 13.9477 24.0523 13.5 23.5 13.5ZM21.5 14.5C21.5 13.3954 22.3954 12.5 23.5 12.5C24.6046 12.5 25.5 13.3954 25.5 14.5C25.5 15.6046 24.6046 16.5 23.5 16.5C22.3954 16.5 21.5 15.6046 21.5 14.5ZM8.5 19.5H23.5V27H8.5V19.5ZM9.5 20.5V26H22.5V20.5H9.5Z" fill="white"/>
</svg>
