<svg width="32" height="33" viewBox="0 0 32 33" fill="none" xmlns="http://www.w3.org/2000/svg">
<path fill-rule="evenodd" clip-rule="evenodd" d="M18.2842 2.16003C17.5739 1.97177 16.8308 1.9424 16.1079 2.07399C15.3849 2.20559 14.6998 2.49493 14.1014 2.92141C13.503 3.34789 13.0059 3.90104 12.6456 4.54148C12.2861 5.18041 12.0716 5.89055 12.0171 6.62159C12.0071 6.74748 12.0019 6.87344 12.0015 6.9992H8.00017C7.33713 6.9992 6.70125 7.26259 6.23241 7.73143C5.76357 8.20027 5.50017 8.83615 5.50017 9.4992V12.9961C4.77298 12.9952 4.05424 13.153 3.39413 13.4585C2.72724 13.7671 2.13658 14.219 1.66419 14.7818C1.19179 15.3447 0.849273 16.0048 0.661011 16.7151C0.47275 17.4255 0.443373 18.1685 0.57497 18.8915C0.706567 19.6145 0.995903 20.2996 1.42239 20.898C1.84887 21.4964 2.40202 21.9935 3.04246 22.3538C3.68139 22.7132 4.39154 22.9278 5.12258 22.9823C5.24847 22.9923 5.37443 22.9974 5.50017 22.9978V26.4992C5.50017 27.1622 5.76357 27.7981 6.23241 28.267C6.70125 28.7358 7.33713 28.9992 8.00017 28.9992H26.0002C26.6632 28.9992 27.2991 28.7358 27.7679 28.267C28.2368 27.7981 28.5002 27.1622 28.5002 26.4992V21.1617C28.5002 20.6469 28.2361 20.168 27.8007 19.8932C27.3654 19.6184 26.8195 19.5861 26.3547 19.8077C26.0894 19.9341 25.7994 20.0006 25.5055 20.0023C25.2116 20.0039 24.9209 19.9408 24.6541 19.8173C24.3874 19.6939 24.1511 19.5131 23.9622 19.288C23.7732 19.0628 23.6362 18.7988 23.5609 18.5147C23.4856 18.2305 23.4738 17.9333 23.5265 17.6441C23.5791 17.3549 23.6948 17.0809 23.8654 16.8415C24.036 16.6022 24.2573 16.4033 24.5135 16.2592C24.7696 16.1151 25.0544 16.0292 25.3476 16.0077L25.3494 16.0075L25.3564 16.007L25.3582 16.0068C25.7006 15.9793 26.0443 16.0426 26.3543 16.1905C26.8191 16.4122 27.3651 16.3801 27.8006 16.1053C28.2361 15.8305 28.5002 15.3516 28.5002 14.8367V9.4992C28.5002 8.83616 28.2368 8.20027 27.7679 7.73143C27.2991 7.26259 26.6632 6.9992 26.0002 6.9992H22.0033C22.0041 6.272 21.8464 5.55326 21.5409 4.89315C21.2322 4.22626 20.7804 3.6356 20.2175 3.16321C19.6546 2.69081 18.9945 2.3483 18.2842 2.16003ZM17.5156 5.05991C17.2315 4.98461 16.9343 4.97286 16.6451 5.0255C16.3559 5.07813 16.0819 5.19387 15.8425 5.36446C15.6031 5.53506 15.4043 5.75632 15.2602 6.01249C15.1161 6.26867 15.0302 6.55346 15.0086 6.84661L15.0081 6.85367L15.0075 6.86162C14.9808 7.2026 15.0442 7.54463 15.1915 7.85337C15.4132 8.31812 15.381 8.8641 15.1063 9.29959C14.8315 9.73508 14.3526 9.9992 13.8377 9.9992H8.50017V14.8367C8.50017 15.3515 8.23613 15.8304 7.80075 16.1052C7.36536 16.38 6.81947 16.4123 6.35473 16.1907C6.0894 16.0642 5.79945 15.9978 5.50551 15.9961C5.21158 15.9945 4.92089 16.0576 4.65414 16.1811C4.38738 16.3045 4.15112 16.4852 3.96216 16.7104C3.7732 16.9356 3.63619 17.1996 3.56089 17.4837C3.48558 17.7678 3.47383 18.0651 3.52647 18.3543C3.57911 18.6435 3.69485 18.9175 3.86544 19.1569C4.03603 19.3962 4.25729 19.595 4.51347 19.7392C4.76964 19.8833 5.05444 19.9692 5.34759 19.9907L5.35472 19.9913L5.36263 19.9919C5.7036 20.0186 6.04562 19.9551 6.35435 19.8078C6.8191 19.5862 7.36508 19.6183 7.80057 19.8931C8.23605 20.1678 8.50017 20.6468 8.50017 21.1617V25.9992H25.5002V23.0023C24.773 23.0032 24.0542 22.8454 23.3941 22.5399C22.7272 22.2313 22.1366 21.7794 21.6642 21.2165C21.1918 20.6537 20.8493 19.9936 20.661 19.2832C20.4728 18.5729 20.4434 17.8298 20.575 17.1069C20.7066 16.3839 20.9959 15.6988 21.4224 15.1004C21.8489 14.502 22.402 14.0049 23.0425 13.6446C23.6814 13.2852 24.3915 13.0706 25.1225 13.0161C25.2484 13.0061 25.3744 13.0009 25.5002 13.0006V9.9992H20.1627C19.6478 9.9992 19.169 9.73516 18.8942 9.29977C18.6194 8.86439 18.5871 8.3185 18.8086 7.85375C18.9351 7.58842 19.0016 7.29847 19.0032 7.00453C19.0049 6.71061 18.9418 6.41992 18.8183 6.15316C18.6949 5.8864 18.5141 5.65014 18.289 5.46118C18.0638 5.27222 17.7998 5.13522 17.5156 5.05991Z" fill="white"/>
</svg>
