<svg width="32" height="32" viewBox="0 0 32 32" fill="none" xmlns="http://www.w3.org/2000/svg">
<path d="M8.5 13C8.5 12.4477 8.94772 12 9.5 12H22.5C23.0523 12 23.5 12.4477 23.5 13C23.5 13.5523 23.0523 14 22.5 14H9.5C8.94772 14 8.5 13.5523 8.5 13Z" fill="white"/>
<path d="M8.5 17C8.5 16.4477 8.94772 16 9.5 16H22.5C23.0523 16 23.5 16.4477 23.5 17C23.5 17.5523 23.0523 18 22.5 18H9.5C8.94772 18 8.5 17.5523 8.5 17Z" fill="white"/>
<path fill-rule="evenodd" clip-rule="evenodd" d="M5 5C4.46957 5 3.96086 5.21071 3.58579 5.58579C3.21071 5.96086 3 6.46957 3 7V26C3 26.3466 3.17945 26.6684 3.47427 26.8507C3.76909 27.0329 4.13723 27.0494 4.44721 26.8944L8 25.118L11.5528 26.8944C11.8343 27.0352 12.1657 27.0352 12.4472 26.8944L16 25.118L19.5528 26.8944C19.8343 27.0352 20.1657 27.0352 20.4472 26.8944L24 25.118L27.5528 26.8944C27.8628 27.0494 28.2309 27.0329 28.5257 26.8507C28.8205 26.6684 29 26.3466 29 26V7C29 6.46957 28.7893 5.96086 28.4142 5.58579C28.0391 5.21071 27.5304 5 27 5H5ZM5 7L27 7V24.382L24.4472 23.1056C24.1657 22.9648 23.8343 22.9648 23.5528 23.1056L20 24.882L16.4472 23.1056C16.1657 22.9648 15.8343 22.9648 15.5528 23.1056L12 24.882L8.44721 23.1056C8.16569 22.9648 7.83431 22.9648 7.55279 23.1056L5 24.382L5 7Z" fill="white"/>
<path fill-rule="evenodd" clip-rule="evenodd" d="M3.23223 5.23223C3.70107 4.76339 4.33696 4.5 5 4.5H27C27.663 4.5 28.2989 4.76339 28.7678 5.23223C29.2366 5.70107 29.5 6.33696 29.5 7V26C29.5 26.5199 29.2308 27.0027 28.7886 27.276C28.3464 27.5493 27.7942 27.5741 27.3292 27.3416L24 25.6771L20.6708 27.3416C20.2485 27.5528 19.7515 27.5528 19.3292 27.3416L16 25.677L12.6708 27.3416C12.2485 27.5528 11.7515 27.5528 11.3292 27.3416L8 25.677L4.67082 27.3416C4.20584 27.5741 3.65363 27.5493 3.2114 27.276C2.76918 27.0027 2.5 26.5199 2.5 26V7C2.5 6.33696 2.76339 5.70107 3.23223 5.23223ZM5 5.5C4.60217 5.5 4.22064 5.65804 3.93934 5.93934C3.65804 6.22064 3.5 6.60217 3.5 7V26C3.5 26.1733 3.58973 26.3342 3.73713 26.4253C3.88454 26.5164 4.06861 26.5247 4.22361 26.4472L7.77639 24.6708C7.91716 24.6004 8.08284 24.6004 8.22361 24.6708L11.7764 26.4472C11.9172 26.5176 12.0828 26.5176 12.2236 26.4472L15.7764 24.6708C15.9172 24.6004 16.0828 24.6004 16.2236 24.6708L19.7764 26.4472C19.9172 26.5176 20.0828 26.5176 20.2236 26.4472L23.7764 24.6708C23.9172 24.6004 24.0828 24.6004 24.2236 24.6708L27.7764 26.4472C27.9314 26.5247 28.1155 26.5164 28.2629 26.4253C28.4103 26.3342 28.5 26.1733 28.5 26V7C28.5 6.60218 28.342 6.22065 28.0607 5.93934C27.7794 5.65804 27.3978 5.5 27 5.5H5ZM5.5 7.5L5.5 23.573L7.32918 22.6584C7.75147 22.4472 8.24853 22.4472 8.67082 22.6584L12 24.323L15.3292 22.6584C15.7515 22.4472 16.2485 22.4472 16.6708 22.6584L20 24.323L23.3292 22.6584C23.7515 22.4472 24.2485 22.4472 24.6708 22.6584L26.5 23.5729V7.5L5.5 7.5ZM5 6.5L27 6.5C27.1326 6.5 27.2598 6.55268 27.3536 6.64645C27.4473 6.74021 27.5 6.86739 27.5 7V24.382C27.5 24.5553 27.4103 24.7162 27.2629 24.8073C27.1155 24.8984 26.9314 24.9067 26.7764 24.8292L24.2236 23.5528C24.0828 23.4824 23.9172 23.4824 23.7764 23.5528L20.2236 25.3292C20.0828 25.3996 19.9172 25.3996 19.7764 25.3292L16.2236 23.5528C16.0828 23.4824 15.9172 23.4824 15.7764 23.5528L12.2236 25.3292C12.0828 25.3996 11.9172 25.3996 11.7764 25.3292L8.22361 23.5528C8.08284 23.4824 7.91716 23.4824 7.77639 23.5528L5.22361 24.8292C5.06861 24.9067 4.88454 24.8984 4.73713 24.8073C4.58973 24.7162 4.5 24.5553 4.5 24.382L4.5 7C4.5 6.72386 4.72386 6.5 5 6.5ZM9.5 12.5C9.22386 12.5 9 12.7239 9 13C9 13.2761 9.22386 13.5 9.5 13.5H22.5C22.7761 13.5 23 13.2761 23 13C23 12.7239 22.7761 12.5 22.5 12.5H9.5ZM8 13C8 12.1716 8.67157 11.5 9.5 11.5H22.5C23.3284 11.5 24 12.1716 24 13C24 13.8284 23.3284 14.5 22.5 14.5H9.5C8.67157 14.5 8 13.8284 8 13ZM9.5 16.5C9.22386 16.5 9 16.7239 9 17C9 17.2761 9.22386 17.5 9.5 17.5H22.5C22.7761 17.5 23 17.2761 23 17C23 16.7239 22.7761 16.5 22.5 16.5H9.5ZM8 17C8 16.1716 8.67157 15.5 9.5 15.5H22.5C23.3284 15.5 24 16.1716 24 17C24 17.8284 23.3284 18.5 22.5 18.5H9.5C8.67157 18.5 8 17.8284 8 17Z" fill="white"/>
</svg>
