<svg width="32" height="32" viewBox="0 0 32 32" fill="none" xmlns="http://www.w3.org/2000/svg">
<path fill-rule="evenodd" clip-rule="evenodd" d="M11.5 24H20.5C22.433 24 24 22.433 24 20.5C24 18.567 22.433 17 20.5 17H11.5C9.567 17 8 18.567 8 20.5C8 22.433 9.567 24 11.5 24ZM11.5 19C10.6716 19 10 19.6716 10 20.5C10 21.3284 10.6716 22 11.5 22H12.5V19H11.5ZM22 20.5C22 19.6716 21.3284 19 20.5 19H19.5V22H20.5C21.3284 22 22 21.3284 22 20.5ZM14.5 19V22H17.5V19H14.5Z" fill="white"/>
<path d="M10.5 15C11.3284 15 12 14.3284 12 13.5C12 12.6716 11.3284 12 10.5 12C9.67157 12 9 12.6716 9 13.5C9 14.3284 9.67157 15 10.5 15Z" fill="white"/>
<path d="M23 13.5C23 14.3284 22.3284 15 21.5 15C20.6716 15 20 14.3284 20 13.5C20 12.6716 20.6716 12 21.5 12C22.3284 12 23 12.6716 23 13.5Z" fill="white"/>
<path fill-rule="evenodd" clip-rule="evenodd" d="M17 2C17 1.44772 16.5523 1 16 1C15.4477 1 15 1.44772 15 2V6H7C4.79086 6 3 7.79086 3 10V24C3 26.2091 4.79086 28 7 28H25C27.2091 28 29 26.2091 29 24V10C29 7.79086 27.2091 6 25 6H17V2ZM7 8C5.89543 8 5 8.89543 5 10V24C5 25.1046 5.89543 26 7 26H25C26.1046 26 27 25.1046 27 24V10C27 8.89543 26.1046 8 25 8H7Z" fill="white"/>
<path fill-rule="evenodd" clip-rule="evenodd" d="M11.5 24H20.5C22.433 24 24 22.433 24 20.5C24 18.567 22.433 17 20.5 17H11.5C9.567 17 8 18.567 8 20.5C8 22.433 9.567 24 11.5 24ZM11.5 19C10.6716 19 10 19.6716 10 20.5C10 21.3284 10.6716 22 11.5 22H12.5V19H11.5ZM22 20.5C22 19.6716 21.3284 19 20.5 19H19.5V22H20.5C21.3284 22 22 21.3284 22 20.5ZM14.5 19V22H17.5V19H14.5Z" stroke="white"/>
<path d="M10.5 15C11.3284 15 12 14.3284 12 13.5C12 12.6716 11.3284 12 10.5 12C9.67157 12 9 12.6716 9 13.5C9 14.3284 9.67157 15 10.5 15Z" stroke="white"/>
<path d="M23 13.5C23 14.3284 22.3284 15 21.5 15C20.6716 15 20 14.3284 20 13.5C20 12.6716 20.6716 12 21.5 12C22.3284 12 23 12.6716 23 13.5Z" stroke="white"/>
<path fill-rule="evenodd" clip-rule="evenodd" d="M17 2C17 1.44772 16.5523 1 16 1C15.4477 1 15 1.44772 15 2V6H7C4.79086 6 3 7.79086 3 10V24C3 26.2091 4.79086 28 7 28H25C27.2091 28 29 26.2091 29 24V10C29 7.79086 27.2091 6 25 6H17V2ZM7 8C5.89543 8 5 8.89543 5 10V24C5 25.1046 5.89543 26 7 26H25C26.1046 26 27 25.1046 27 24V10C27 8.89543 26.1046 8 25 8H7Z" stroke="white"/>
</svg>
