<svg width="32" height="33" viewBox="0 0 32 33" fill="none" xmlns="http://www.w3.org/2000/svg">
<path d="M6 6.49934C6.00036 5.94706 6.44837 5.49964 7.00066 5.5C12.3037 5.50349 17.3886 7.61167 21.1385 11.3615C24.8883 15.1114 26.9965 20.1963 27 25.4993C27.0004 26.0516 26.5529 26.4996 26.0007 26.5C25.4484 26.5004 25.0004 26.0529 25 25.5007C24.9969 20.7275 23.0994 16.1508 19.7243 12.7757C16.3492 9.40064 11.7725 7.50314 6.99934 7.5C6.44706 7.49964 5.99964 7.05163 6 6.49934Z" fill="white"/>
<path d="M6 15.5C6 14.9477 6.44772 14.5 7 14.5C8.44454 14.5 9.87494 14.7845 11.2095 15.3373C12.5441 15.8901 13.7567 16.7004 14.7782 17.7218C15.7996 18.7433 16.6099 19.9559 17.1627 21.2905C17.7155 22.6251 18 24.0555 18 25.5C18 26.0523 17.5523 26.5 17 26.5C16.4477 26.5 16 26.0523 16 25.5C16 24.3181 15.7672 23.1478 15.3149 22.0558C14.8626 20.9639 14.1997 19.9718 13.364 19.136C12.5282 18.3003 11.5361 17.6374 10.4442 17.1851C9.35222 16.7328 8.1819 16.5 7 16.5C6.44772 16.5 6 16.0523 6 15.5Z" fill="white"/>
<path d="M8.5 25.5C8.5 26.3284 7.82843 27 7 27C6.17157 27 5.5 26.3284 5.5 25.5C5.5 24.6716 6.17157 24 7 24C7.82843 24 8.5 24.6716 8.5 25.5Z" fill="white"/>
<path fill-rule="evenodd" clip-rule="evenodd" d="M7.00033 6C6.72419 5.99982 6.50018 6.22353 6.5 6.49967C6.49982 6.77581 6.72353 6.99982 6.99967 7C11.9053 7.00322 16.609 8.9534 20.0778 12.4222C23.5466 15.891 25.4968 20.5947 25.5 25.5003C25.5002 25.7765 25.7242 26.0002 26.0003 26C26.2765 25.9998 26.5002 25.7758 26.5 25.4997C26.4966 20.3291 24.4411 15.3712 20.7849 11.7151C17.1288 8.05891 12.1709 6.0034 7.00033 6ZM5.5 6.49901C5.50054 5.67059 6.17256 4.99946 7.00099 5C12.4366 5.00357 17.6485 7.16443 21.492 11.008C25.3356 14.8515 27.4964 20.0634 27.5 25.499C27.5005 26.3274 26.8294 26.9995 26.001 27C25.1726 27.0005 24.5005 26.3294 24.5 25.501C24.497 20.8604 22.6521 16.4107 19.3707 13.1293C16.0893 9.84788 11.6396 8.00305 6.99901 8C6.17059 7.99946 5.49946 7.32744 5.5 6.49901ZM7 15C6.72386 15 6.5 15.2239 6.5 15.5C6.5 15.7761 6.72386 16 7 16C8.24756 16 9.4829 16.2457 10.6355 16.7231C11.7881 17.2006 12.8354 17.9003 13.7175 18.7825C14.5997 19.6646 15.2994 20.7119 15.7769 21.8645C16.2543 23.0171 16.5 24.2524 16.5 25.5C16.5 25.7761 16.7239 26 17 26C17.2761 26 17.5 25.7761 17.5 25.5C17.5 24.1211 17.2284 22.7557 16.7007 21.4818C16.1731 20.2079 15.3996 19.0504 14.4246 18.0754C13.4496 17.1004 12.2921 16.3269 11.0182 15.7993C9.74426 15.2716 8.37888 15 7 15ZM5.5 15.5C5.5 14.6716 6.17157 14 7 14C8.5102 14 10.0056 14.2975 11.4009 14.8754C12.7961 15.4533 14.0639 16.3004 15.1317 17.3683C16.1996 18.4361 17.0467 19.7039 17.6246 21.0991C18.2025 22.4944 18.5 23.9898 18.5 25.5C18.5 26.3284 17.8284 27 17 27C16.1716 27 15.5 26.3284 15.5 25.5C15.5 24.3838 15.2801 23.2785 14.853 22.2472C14.4258 21.2159 13.7997 20.2789 13.0104 19.4896C12.2211 18.7003 11.2841 18.0742 10.2528 17.647C9.22154 17.2199 8.11624 17 7 17C6.17157 17 5.5 16.3284 5.5 15.5ZM7 24.5C6.44772 24.5 6 24.9477 6 25.5C6 26.0523 6.44772 26.5 7 26.5C7.55228 26.5 8 26.0523 8 25.5C8 24.9477 7.55228 24.5 7 24.5ZM5 25.5C5 24.3954 5.89543 23.5 7 23.5C8.10457 23.5 9 24.3954 9 25.5C9 26.6046 8.10457 27.5 7 27.5C5.89543 27.5 5 26.6046 5 25.5Z" fill="white"/>
</svg>
