<svg width="32" height="32" viewBox="0 0 32 32" fill="none" xmlns="http://www.w3.org/2000/svg">
<path fill-rule="evenodd" clip-rule="evenodd" d="M16 4C16.5523 4 17 4.44772 17 5V7.75359L24.7611 6.0289C24.8382 6.00995 24.9183 6 25 6C25.301 6.00042 25.581 6.13573 25.7674 6.35873C25.8357 6.44028 25.8916 6.53359 25.9316 6.63639L29.9285 16.6286C29.9757 16.7467 30 16.8728 30 17C30 18.5611 29.0895 19.5973 28.066 20.1937C27.0721 20.7728 25.8907 21 25 21C24.1093 21 22.9279 20.7728 21.934 20.1937C20.9105 19.5973 20 18.5611 20 17C20 16.8728 20.0243 16.7467 20.0715 16.6286L23.3681 8.38725L17 9.80238V26H19C19.5523 26 20 26.4477 20 27C20 27.5523 19.5523 28 19 28H13C12.4477 28 12 27.5523 12 27C12 26.4477 12.4477 26 13 26H15V10.2468L8.3655 11.7212L11.9285 20.6286C11.9757 20.7467 12 20.8728 12 21C12 22.5611 11.0895 23.5973 10.066 24.1937C9.07215 24.7728 7.89074 25 7 25C6.10926 25 4.92785 24.7728 3.93404 24.1937C2.91047 23.5973 2 22.5611 2 21C2 20.8728 2.02428 20.7467 2.07152 20.6286L6.0676 10.6384C6.07341 10.6235 6.07958 10.6087 6.0861 10.5941C6.14146 10.4693 6.22055 10.3598 6.31675 10.2698C6.3944 10.197 6.48429 10.1361 6.58413 10.0906C6.65417 10.0585 6.72821 10.0344 6.80493 10.0192L15 8.19804V5C15 4.44772 15.4477 4 16 4ZM4.00825 21.172C4.06346 21.7343 4.39385 22.1469 4.94096 22.4657C5.57215 22.8335 6.39074 23 7 23C7.60926 23 8.42785 22.8335 9.05904 22.4657C9.60615 22.1469 9.93654 21.7343 9.99175 21.172L7 13.6926L4.00825 21.172ZM22.941 18.4657C22.3938 18.1469 22.0635 17.7343 22.0083 17.172L25 9.69258L27.9917 17.172C27.9365 17.7343 27.6062 18.1469 27.059 18.4657C26.4279 18.8335 25.6093 19 25 19C24.3907 19 23.5721 18.8335 22.941 18.4657Z" fill="white"/>
<path fill-rule="evenodd" clip-rule="evenodd" d="M16 3.5C15.1716 3.5 14.5 4.17157 14.5 5V7.79695L6.70141 9.52997C6.58837 9.55292 6.4793 9.58866 6.37609 9.63589C6.22606 9.70429 6.09166 9.79555 5.97521 9.90461C5.89775 9.97298 5.7201 10.166 5.62923 10.3909C5.61987 10.4119 5.61098 10.4332 5.60257 10.4547L5.60163 10.4571L1.60728 20.4429C1.53641 20.6201 1.5 20.8092 1.5 21C1.5 22.7898 2.55462 23.9686 3.68231 24.6257C4.76683 25.2577 6.03896 25.5 7 25.5C7.96104 25.5 9.23317 25.2577 10.3177 24.6257C11.4454 23.9686 12.5 22.7898 12.5 21C12.5 20.8092 12.4636 20.6201 12.3927 20.4429L9.04821 12.0816L14.5 10.8701V25.5H13C12.1716 25.5 11.5 26.1716 11.5 27C11.5 27.8284 12.1716 28.5 13 28.5H19C19.8284 28.5 20.5 27.8284 20.5 27C20.5 26.1716 19.8284 25.5 19 25.5H17.5V10.2035L22.5521 9.08077L19.6073 16.4429C19.5364 16.6201 19.5 16.8092 19.5 17C19.5 18.7898 20.5546 19.9686 21.6823 20.6257C22.7668 21.2577 24.039 21.5 25 21.5C25.961 21.5 27.2332 21.2577 28.3177 20.6257C29.4454 19.9686 30.5 18.7898 30.5 17C30.5 16.8092 30.4636 16.6201 30.3927 16.4429L26.3976 6.45509L26.3966 6.45252C26.3365 6.29905 26.2528 6.15958 26.1507 6.03773C25.8708 5.70304 25.4508 5.50064 25 5.5C24.8797 5.5 24.7616 5.51439 24.6477 5.5419L17.5 7.13028V5C17.5 4.17157 16.8284 3.5 16 3.5ZM16 4C16.5523 4 17 4.44772 17 5V7.75359L24.7611 6.0289C24.8382 6.00995 24.9183 6 25 6C25.301 6.00042 25.581 6.13573 25.7674 6.35873C25.8357 6.44028 25.8916 6.53359 25.9316 6.63639L29.9285 16.6286C29.9757 16.7467 30 16.8728 30 17C30 18.5611 29.0895 19.5973 28.066 20.1937C27.0721 20.7728 25.8907 21 25 21C24.1093 21 22.9279 20.7728 21.934 20.1937C20.9105 19.5973 20 18.5611 20 17C20 16.8728 20.0243 16.7467 20.0715 16.6286L23.3681 8.38725L17 9.80238V26H19C19.5523 26 20 26.4477 20 27C20 27.5523 19.5523 28 19 28H13C12.4477 28 12 27.5523 12 27C12 26.4477 12.4477 26 13 26H15V10.2468L8.3655 11.7212L11.9285 20.6286C11.9757 20.7467 12 20.8728 12 21C12 22.5611 11.0895 23.5973 10.066 24.1937C9.07215 24.7728 7.89074 25 7 25C6.10926 25 4.92785 24.7728 3.93404 24.1937C2.91047 23.5973 2 22.5611 2 21C2 20.8728 2.02428 20.7467 2.07152 20.6286L6.0676 10.6384C6.07341 10.6235 6.07958 10.6087 6.0861 10.5941C6.14146 10.4693 6.22055 10.3598 6.31675 10.2698C6.3944 10.197 6.48429 10.1361 6.58413 10.0906C6.65417 10.0585 6.72821 10.0344 6.80493 10.0192L15 8.19804V5C15 4.44772 15.4477 4 16 4Z" fill="white"/>
<path fill-rule="evenodd" clip-rule="evenodd" d="M4.00825 21.172C4.06346 21.7343 4.39385 22.1469 4.94096 22.4657C5.57215 22.8335 6.39074 23 7 23C7.60926 23 8.42785 22.8335 9.05904 22.4657C9.60615 22.1469 9.93654 21.7343 9.99175 21.172L7 13.6926L4.00825 21.172ZM7 15.0389L4.52234 21.233C4.5851 21.5397 4.78603 21.7967 5.19269 22.0337C5.73329 22.3487 6.46121 22.5 7 22.5C7.53879 22.5 8.26671 22.3487 8.80731 22.0337C9.21397 21.7967 9.4149 21.5397 9.47766 21.233L7 15.0389Z" fill="white"/>
<path fill-rule="evenodd" clip-rule="evenodd" d="M22.941 18.4657C22.3938 18.1469 22.0635 17.7343 22.0083 17.172L25 9.69258L27.9917 17.172C27.9365 17.7343 27.6062 18.1469 27.059 18.4657C26.4279 18.8335 25.6093 19 25 19C24.3907 19 23.5721 18.8335 22.941 18.4657ZM22.5223 17.233C22.5851 17.5397 22.786 17.7967 23.1927 18.0337C23.7333 18.3487 24.4612 18.5 25 18.5C25.5388 18.5 26.2667 18.3487 26.8073 18.0337C27.214 17.7967 27.4149 17.5397 27.4777 17.233L25 11.0389L22.5223 17.233Z" fill="white"/>
</svg>
