<svg width="100%" height="100%" viewBox="0 0 32 33" fill="gray" xmlns="http://www.w3.org/2000/svg">
<path fill-rule="evenodd" clip-rule="evenodd" d="M14.5 3.07812C7.87258 3.07812 2.5 8.45071 2.5 15.0781C2.5 21.7055 7.87258 27.0781 14.5 27.0781C17.2726 27.0781 19.8267 26.1372 21.8586 24.5578L26.9394 29.6386C27.5252 30.2244 28.4749 30.2244 29.0607 29.6386C29.6465 29.0528 29.6465 28.1031 29.0607 27.5173L23.9799 22.4364C25.5592 20.4046 26.5 17.8506 26.5 15.0781C26.5 8.45071 21.1274 3.07812 14.5 3.07812ZM14.5 6.07812C9.52944 6.07812 5.5 10.1076 5.5 15.0781C5.5 20.0487 9.52944 24.0781 14.5 24.0781C19.4706 24.0781 23.5 20.0487 23.5 15.0781C23.5 10.1076 19.4706 6.07812 14.5 6.07812Z"/>
</svg>
