<svg width="32" height="33" viewBox="0 0 32 33" fill="none" xmlns="http://www.w3.org/2000/svg">
<path fill-rule="evenodd" clip-rule="evenodd" d="M13.5196 7.84522C13.8883 8.25647 13.8537 8.88869 13.4425 9.25733L7.89247 14.2323C7.48122 14.601 6.849 14.5664 6.48036 14.1552C6.11172 13.7439 6.14626 13.1117 6.5575 12.7431L12.1075 7.76808C12.5188 7.39944 13.151 7.43398 13.5196 7.84522Z" fill="white"/>
<path fill-rule="evenodd" clip-rule="evenodd" d="M5 13.5C3.89543 13.5 3 14.3954 3 15.5C3 16.6046 3.89543 17.5 5 17.5C6.10457 17.5 7 16.6046 7 15.5C7 14.3954 6.10457 13.5 5 13.5ZM1 15.5C1 13.2909 2.79086 11.5 5 11.5C7.20914 11.5 9 13.2909 9 15.5C9 17.7091 7.20914 19.5 5 19.5C2.79086 19.5 1 17.7091 1 15.5Z" fill="white"/>
<path fill-rule="evenodd" clip-rule="evenodd" d="M15 4.5C13.8954 4.5 13 5.39543 13 6.5C13 7.60457 13.8954 8.5 15 8.5C16.1046 8.5 17 7.60457 17 6.5C17 5.39543 16.1046 4.5 15 4.5ZM11 6.5C11 4.29086 12.7909 2.5 15 2.5C17.2091 2.5 19 4.29086 19 6.5C19 8.70914 17.2091 10.5 15 10.5C12.7909 10.5 11 8.70914 11 6.5Z" fill="white"/>
<path fill-rule="evenodd" clip-rule="evenodd" d="M16.9355 7.02307C17.0815 6.49042 17.6316 6.17695 18.1643 6.32292L23.3643 7.74792C23.8969 7.89388 24.2104 8.44401 24.0644 8.97666C23.9184 9.5093 23.3683 9.82277 22.8357 9.6768L17.6357 8.2518C17.103 8.10584 16.7896 7.55571 16.9355 7.02307Z" fill="white"/>
<path fill-rule="evenodd" clip-rule="evenodd" d="M25.3324 11.3818C25.8533 11.5654 26.1267 12.1365 25.9432 12.6574L21.9432 24.0074C21.7596 24.5282 21.1885 24.8017 20.6676 24.6181C20.1468 24.4346 19.8733 23.8635 20.0569 23.3426L24.0569 11.9926C24.2405 11.4717 24.8115 11.1983 25.3324 11.3818Z" fill="white"/>
<path fill-rule="evenodd" clip-rule="evenodd" d="M26 7.5C24.8954 7.5 24 8.39543 24 9.5C24 10.6046 24.8954 11.5 26 11.5C27.1046 11.5 28 10.6046 28 9.5C28 8.39543 27.1046 7.5 26 7.5ZM22 9.5C22 7.29086 23.7909 5.5 26 5.5C28.2091 5.5 30 7.29086 30 9.5C30 11.7091 28.2091 13.5 26 13.5C23.7909 13.5 22 11.7091 22 9.5Z" fill="white"/>
<path fill-rule="evenodd" clip-rule="evenodd" d="M6.61884 16.6833C6.94563 16.238 7.57148 16.142 8.0167 16.4688L18.1667 23.9188C18.6119 24.2456 18.7079 24.8715 18.3811 25.3167C18.0544 25.7619 17.4285 25.8579 16.9833 25.5311L6.83329 18.0811C6.38806 17.7543 6.29205 17.1285 6.61884 16.6833Z" fill="white"/>
<path fill-rule="evenodd" clip-rule="evenodd" d="M20 24.5C18.8954 24.5 18 25.3954 18 26.5C18 27.6046 18.8954 28.5 20 28.5C21.1046 28.5 22 27.6046 22 26.5C22 25.3954 21.1046 24.5 20 24.5ZM16 26.5C16 24.2909 17.7909 22.5 20 22.5C22.2091 22.5 24 24.2909 24 26.5C24 28.7091 22.2091 30.5 20 30.5C17.7909 30.5 16 28.7091 16 26.5Z" fill="white"/>
<path fill-rule="evenodd" clip-rule="evenodd" d="M10.5 6.5C10.5 4.01472 12.5147 2 15 2C17.3733 2 19.3176 3.83733 19.4879 6.16721L22.3001 6.93787C23.1126 5.76682 24.4667 5 26 5C28.4853 5 30.5 7.01472 30.5 9.5C30.5 11.9852 28.4854 13.9999 26.0001 14L22.8284 22.9998C23.8481 23.8248 24.5 25.0862 24.5 26.5C24.5 28.9853 22.4853 31 20 31C17.5147 31 15.5 28.9853 15.5 26.5C15.5 26.0488 15.5664 25.6131 15.69 25.2021L7.53652 19.2175C6.81431 19.7112 5.94088 20 5 20C2.51472 20 0.5 17.9853 0.5 15.5C0.5 13.0147 2.51472 11 5 11C5.77718 11 6.50834 11.197 7.14627 11.5438L10.8442 8.22905C10.6224 7.69672 10.5 7.11266 10.5 6.5ZM11.3439 9.12407L7.98639 12.1337C8.2361 12.3554 8.46097 12.6044 8.6563 12.8762L12.0138 9.86648C11.7641 9.64481 11.5392 9.39577 11.3439 9.12407ZM12.7647 9.19337C12.5075 8.97964 12.2814 8.72977 12.0941 8.45154L12.4412 8.14039C12.6469 7.95607 12.963 7.97334 13.1473 8.17896C13.3316 8.38459 13.3143 8.7007 13.1087 8.88502L12.7647 9.19337ZM12.854 10.4563L9.15595 13.7712C9.37761 14.3035 9.5 14.8875 9.5 15.5C9.5 15.9512 9.43359 16.3869 9.31001 16.7979L17.4635 22.7825C18.1857 22.2888 19.0591 22 19.9999 22L23.1716 13.0002C22.2326 12.2405 21.6055 11.1106 21.5121 9.83253L18.7 9.06191C17.8876 10.2331 16.5333 11 15 11C14.2229 11 13.4919 10.803 12.854 10.4563ZM17.6586 8.77651C17.0166 9.52545 16.0637 10 15 10C14.5252 10 14.0725 9.90545 13.6596 9.73416L13.7762 9.62964C14.0075 9.42228 14.1594 9.15932 14.2297 8.87908C14.4723 8.95758 14.7312 9 15 9C15.6895 9 16.3138 8.7209 16.766 8.26951C16.9538 8.4867 17.2058 8.65244 17.5035 8.73402L17.6586 8.77651ZM19.1848 8.15788L21.5531 8.80688C21.6049 8.47155 21.6938 8.14845 21.8153 7.84189L19.447 7.19287C19.3952 7.5282 19.3063 7.8513 19.1848 8.15788ZM18.4743 6.92631C18.4331 7.26535 18.3435 7.58944 18.2125 7.89144L17.7678 7.76958C17.5015 7.6966 17.3448 7.42154 17.4177 7.15521C17.4907 6.88889 17.7658 6.73216 18.0321 6.80514L18.4743 6.92631ZM18.4455 5.88156C18.1535 4.24353 16.722 3 15 3C13.067 3 11.5 4.567 11.5 6.5C11.5 6.85073 11.5516 7.18941 11.6476 7.50887L11.7738 7.39576C12.0015 7.19161 12.2745 7.06989 12.556 7.02861C12.5193 6.85821 12.5 6.68136 12.5 6.5C12.5 5.11929 13.6193 4 15 4C16.1618 4 17.1385 4.7925 17.419 5.8664C17.6929 5.77343 17.9965 5.75851 18.2964 5.8407L18.4455 5.88156ZM22.7876 8.10833C22.6566 8.41032 22.5669 8.7344 22.5257 9.07343L22.9678 9.19458C23.2341 9.26756 23.5092 9.11083 23.5822 8.84451C23.6552 8.57819 23.4984 8.30312 23.2321 8.23014L22.7876 8.10833ZM22.5544 10.1182C22.683 10.8397 23.0327 11.4848 23.5309 11.9807L23.5853 11.8264C23.6877 11.5358 23.8705 11.2966 24.1 11.1248C23.8579 10.842 23.6778 10.5045 23.5809 10.1333C23.3071 10.2263 23.0035 10.2412 22.7035 10.159L22.5544 10.1182ZM24.2341 7.73039C24.6863 7.27906 25.3106 7 26 7C27.3807 7 28.5 8.11929 28.5 9.5C28.5 10.7254 27.6184 11.7449 26.4548 11.9587C26.5247 12.2352 26.5166 12.5345 26.4147 12.8236L26.359 12.9818C28.1233 12.8021 29.5 11.3118 29.5 9.5C29.5 7.567 27.933 6 26 6C24.9364 6 23.9835 6.47446 23.3416 7.22328L23.4964 7.2657C23.7942 7.3473 24.0463 7.51311 24.2341 7.73039ZM25.3158 12.9332L25.4716 12.4912C25.5568 12.2493 25.445 11.9858 25.22 11.8759C25.1835 11.8639 25.1473 11.8511 25.1116 11.8375C24.867 11.7813 24.6139 11.9165 24.5285 12.1588L24.3731 12.5997C24.6654 12.7534 24.9821 12.867 25.3158 12.9332ZM24.0379 13.5508L21.0193 22.1159C21.349 22.1923 21.6647 22.3048 21.9622 22.4492L24.9807 13.8841C24.6511 13.8077 24.3353 13.6952 24.0379 13.5508ZM21.627 23.4003C21.3347 23.2466 21.018 23.133 20.6842 23.0668L20.5285 23.5088C20.4432 23.7508 20.5552 24.0145 20.7804 24.1242C20.8167 24.1361 20.8526 24.1488 20.8881 24.1623C21.1328 24.2189 21.3862 24.0836 21.4716 23.8412L21.627 23.4003ZM20.4305 25.0627C20.4538 25.0722 20.4775 25.0812 20.5014 25.0897C20.5241 25.0977 20.5468 25.1051 20.5696 25.1119C21.1156 25.3362 21.5 25.8732 21.5 26.5C21.5 27.3284 20.8284 28 20 28C19.1716 28 18.5 27.3284 18.5 26.5C18.5 25.6716 19.1716 25 20 25C20.1496 25 20.2942 25.0219 20.4305 25.0627ZM19.5453 24.0413C19.4754 23.7648 19.4834 23.4655 19.5853 23.1764L19.6411 23.0182C19.1717 23.066 18.7297 23.2066 18.3338 23.4213L18.4626 23.5157C18.7117 23.6986 18.888 23.944 18.9856 24.2144C19.1623 24.1358 19.3498 24.0772 19.5453 24.0413ZM17.5151 26.2239C17.5051 26.3146 17.5 26.4067 17.5 26.5C17.5 27.8807 18.6193 29 20 29C21.3807 29 22.5 27.8807 22.5 26.5C22.5 25.8797 22.2741 25.3122 21.9 24.8752C22.1295 24.7034 22.3123 24.4642 22.4147 24.1736L22.4691 24.0194C23.1059 24.6532 23.5 25.5306 23.5 26.5C23.5 28.433 21.933 30 20 30C18.067 30 16.5 28.433 16.5 26.5C16.5 26.2751 16.5212 26.0551 16.5618 25.842L16.6874 25.9342C16.9379 26.118 17.2264 26.2126 17.5151 26.2239ZM16.9091 24.8564L17.2791 25.128C17.5018 25.2914 17.8147 25.2434 17.9781 25.0208C18.1415 24.7982 18.0935 24.4853 17.8708 24.3219L17.5005 24.05C17.267 24.2882 17.0673 24.5596 16.9091 24.8564ZM16.6879 23.4536L8.9037 17.7401C8.73649 18.0308 8.53774 18.3011 8.31211 18.5463L16.0963 24.2599C16.2635 23.9691 16.4623 23.6988 16.6879 23.4536ZM7.49957 17.9499C7.73303 17.7118 7.93273 17.4404 8.09091 17.1435L7.72085 16.8719C7.49823 16.7085 7.18531 16.7565 7.02192 16.9791C6.85852 17.2017 6.90653 17.5146 7.12914 17.678L7.49957 17.9499ZM8.43825 16.158C8.47878 15.9449 8.5 15.7249 8.5 15.5C8.5 15.1494 8.44844 14.8108 8.3525 14.4914L8.22621 14.6046C7.99848 14.8088 7.72559 14.9305 7.44409 14.9718C7.48072 15.1421 7.5 15.3188 7.5 15.5C7.5 15.5933 7.49489 15.6854 7.48494 15.776C7.77361 15.7873 8.06213 15.8819 8.31256 16.0657L8.43825 16.158ZM6.01443 17.7856C5.70441 17.9234 5.36115 18 5 18C3.61929 18 2.5 16.8807 2.5 15.5C2.5 14.1193 3.61929 13 5 13C5.26881 13 5.5277 13.0424 5.77036 13.1209C5.84071 12.8409 5.99254 12.578 6.22376 12.3708L6.34068 12.266C5.92775 12.0946 5.47492 12 5 12C3.067 12 1.5 13.567 1.5 15.5C1.5 17.433 3.067 19 5 19C5.60321 19 6.17077 18.8474 6.6662 18.5787L6.53743 18.4842C6.28828 18.3013 6.11204 18.056 6.01443 17.7856ZM7.23549 12.8068L6.89124 13.1154C6.68652 13.2989 6.66851 13.6131 6.85027 13.8188C6.85289 13.8216 6.85549 13.8245 6.85809 13.8274C7.04313 14.0274 7.3551 14.0425 7.55872 13.86L7.90602 13.5487C7.71882 13.2705 7.49271 13.0206 7.23549 12.8068ZM6.10815 14.489C5.83384 14.1885 5.43894 14 5 14C4.17157 14 3.5 14.6716 3.5 15.5C3.5 16.3284 4.17157 17 5 17C5.82843 17 6.5 16.3284 6.5 15.5C6.5 15.1154 6.35525 14.7646 6.11725 14.4991C6.11421 14.4958 6.11117 14.4924 6.10815 14.489ZM25.5701 10.9375C25.7063 10.9782 25.8506 11 26 11C26.8284 11 27.5 10.3284 27.5 9.5C27.5 8.67157 26.8284 8 26 8C25.1716 8 24.5 8.67157 24.5 9.5C24.5 10.1266 24.8842 10.6635 25.43 10.8879C25.4529 10.8948 25.4758 10.9022 25.4986 10.9103C25.5228 10.9188 25.5466 10.9279 25.5701 10.9375ZM15 5C14.1716 5 13.5 5.67157 13.5 6.5C13.5 7.32843 14.1716 8 15 8C15.8284 8 16.5 7.32843 16.5 6.5C16.5 5.67157 15.8284 5 15 5Z" fill="white"/>
</svg>
