<svg width="32" height="33" viewBox="0 0 32 33" fill="none" xmlns="http://www.w3.org/2000/svg">
<path fill-rule="evenodd" clip-rule="evenodd" d="M22.5821 9.91789C22.9726 10.3084 22.9726 10.9416 22.5821 11.3321L10.8321 23.0821C10.4416 23.4726 9.80842 23.4726 9.41789 23.0821C9.02737 22.6916 9.02737 22.0584 9.41789 21.6679L21.1679 9.91789C21.5584 9.52737 22.1916 9.52737 22.5821 9.91789Z" fill="white"/>
<path fill-rule="evenodd" clip-rule="evenodd" d="M8 22.5C6.89543 22.5 6 23.3954 6 24.5C6 25.6046 6.89543 26.5 8 26.5C9.10457 26.5 10 25.6046 10 24.5C10 23.3954 9.10457 22.5 8 22.5ZM4 24.5C4 22.2909 5.79086 20.5 8 20.5C10.2091 20.5 12 22.2909 12 24.5C12 26.7091 10.2091 28.5 8 28.5C5.79086 28.5 4 26.7091 4 24.5Z" fill="white"/>
<path fill-rule="evenodd" clip-rule="evenodd" d="M24 6.5C22.8954 6.5 22 7.39543 22 8.5C22 9.60457 22.8954 10.5 24 10.5C25.1046 10.5 26 9.60457 26 8.5C26 7.39543 25.1046 6.5 24 6.5ZM20 8.5C20 6.29086 21.7909 4.5 24 4.5C26.2091 4.5 28 6.29086 28 8.5C28 10.7091 26.2091 12.5 24 12.5C21.7909 12.5 20 10.7091 20 8.5Z" fill="white"/>
<path fill-rule="evenodd" clip-rule="evenodd" d="M19.5 8.5C19.5 6.01472 21.5147 4 24 4C26.4853 4 28.5 6.01472 28.5 8.5C28.5 10.9853 26.4853 13 24 13C23.3053 13 22.6473 12.8426 22.0599 12.5614L12.0614 22.5599C12.3426 23.1473 12.5 23.8053 12.5 24.5C12.5 26.9853 10.4853 29 8 29C5.51472 29 3.5 26.9853 3.5 24.5C3.5 22.0147 5.51472 20 8 20C8.69472 20 9.35267 20.1574 9.94012 20.4386L19.9386 10.4401C19.6574 9.85267 19.5 9.19472 19.5 8.5ZM20.4841 11.3088L10.8088 20.9841C11.0699 21.1929 11.3071 21.4301 11.5159 21.6912L21.1912 12.0159C20.9301 11.8071 20.6929 11.5699 20.4841 11.3088ZM21.9039 11.3032C21.6359 11.1024 21.3976 10.8641 21.1968 10.5961L21.5214 10.2714C21.7167 10.0762 22.0333 10.0762 22.2286 10.2714C22.4238 10.4667 22.4238 10.7833 22.2286 10.9786L21.9039 11.3032ZM22.8238 11.7975C23.1914 11.9286 23.5874 12 24 12C25.933 12 27.5 10.433 27.5 8.5C27.5 6.567 25.933 5 24 5C22.067 5 20.5 6.567 20.5 8.5C20.5 8.91262 20.5714 9.30857 20.7025 9.67615L20.8143 9.56434C21.0334 9.34529 21.3033 9.20815 21.5861 9.15293C21.53 8.94479 21.5 8.72589 21.5 8.5C21.5 7.11929 22.6193 6 24 6C25.3807 6 26.5 7.11929 26.5 8.5C26.5 9.88071 25.3807 11 24 11C23.7741 11 23.5552 10.97 23.3471 10.9139C23.2918 11.1967 23.1547 11.4666 22.9357 11.6857L22.8238 11.7975ZM10.8032 22.4039C10.6024 22.1359 10.3641 21.8976 10.0961 21.6968L9.77145 22.0214C9.57618 22.2167 9.57618 22.5333 9.77145 22.7286C9.96671 22.9238 10.2833 22.9238 10.4786 22.7286L10.8032 22.4039ZM9.17615 21.2025C8.80857 21.0714 8.41262 21 8 21C6.067 21 4.5 22.567 4.5 24.5C4.5 26.433 6.067 28 8 28C9.933 28 11.5 26.433 11.5 24.5C11.5 24.0874 11.4286 23.6914 11.2975 23.3238L11.1857 23.4357C10.9666 23.6547 10.6967 23.7918 10.4139 23.8471C10.47 24.0552 10.5 24.2741 10.5 24.5C10.5 25.8807 9.38071 27 8 27C6.61929 27 5.5 25.8807 5.5 24.5C5.5 23.1193 6.61929 22 8 22C8.22589 22 8.44478 22.03 8.65292 22.0861C8.70815 21.8033 8.84529 21.5334 9.06434 21.3143L9.17615 21.2025ZM24 7C23.1716 7 22.5 7.67157 22.5 8.5C22.5 9.32843 23.1716 10 24 10C24.8284 10 25.5 9.32843 25.5 8.5C25.5 7.67157 24.8284 7 24 7ZM8 23C7.17157 23 6.5 23.6716 6.5 24.5C6.5 25.3284 7.17157 26 8 26C8.82843 26 9.5 25.3284 9.5 24.5C9.5 23.6716 8.82843 23 8 23Z" fill="white"/>
</svg>
