<svg width="32" height="33" viewBox="0 0 32 33" fill="none" xmlns="http://www.w3.org/2000/svg">
<path fill-rule="evenodd" clip-rule="evenodd" d="M17.5731 17.7235C17.9122 17.2876 18.5405 17.209 18.9764 17.5481L23.2514 20.8731C23.6874 21.2122 23.7659 21.8404 23.4268 22.2764C23.0878 22.7123 22.4595 22.7909 22.0235 22.4518L17.7485 19.1268C17.3126 18.7877 17.234 18.1595 17.5731 17.7235Z" fill="white"/>
<path fill-rule="evenodd" clip-rule="evenodd" d="M25 11.5C23.8954 11.5 23 12.3954 23 13.5C23 14.6046 23.8954 15.5 25 15.5C26.1046 15.5 27 14.6046 27 13.5C27 12.3954 26.1046 11.5 25 11.5ZM21 13.5C21 11.2909 22.7909 9.5 25 9.5C27.2091 9.5 29 11.2909 29 13.5C29 15.7091 27.2091 17.5 25 17.5C22.7909 17.5 21 15.7091 21 13.5Z" fill="white"/>
<path fill-rule="evenodd" clip-rule="evenodd" d="M23.0987 14.1337C23.2733 14.6577 22.9902 15.224 22.4662 15.3987L19.1662 16.4987C18.6423 16.6733 18.076 16.3902 17.9013 15.8662C17.7267 15.3423 18.0098 14.7759 18.5338 14.6013L21.8338 13.5013C22.3577 13.3266 22.924 13.6098 23.0987 14.1337Z" fill="white"/>
<path fill-rule="evenodd" clip-rule="evenodd" d="M12.8046 9.32454C13.3088 9.09925 13.9002 9.32537 14.1255 9.82961L15.7005 13.3546C15.9258 13.8589 15.6997 14.4503 15.1955 14.6756C14.6912 14.9009 14.0998 14.6747 13.8745 14.1705L12.2995 10.6455C12.0742 10.1413 12.3003 9.54984 12.8046 9.32454Z" fill="white"/>
<path fill-rule="evenodd" clip-rule="evenodd" d="M12 5.5C10.8954 5.5 10 6.39543 10 7.5C10 8.60457 10.8954 9.5 12 9.5C13.1046 9.5 14 8.60457 14 7.5C14 6.39543 13.1046 5.5 12 5.5ZM8 7.5C8 5.29086 9.79086 3.5 12 3.5C14.2091 3.5 16 5.29086 16 7.5C16 9.70914 14.2091 11.5 12 11.5C9.79086 11.5 8 9.70914 8 7.5Z" fill="white"/>
<path fill-rule="evenodd" clip-rule="evenodd" d="M16 14.5C14.8954 14.5 14 15.3954 14 16.5C14 17.6046 14.8954 18.5 16 18.5C17.1046 18.5 18 17.6046 18 16.5C18 15.3954 17.1046 14.5 16 14.5ZM12 16.5C12 14.2909 13.7909 12.5 16 12.5C18.2091 12.5 20 14.2909 20 16.5C20 18.7091 18.2091 20.5 16 20.5C13.7909 20.5 12 18.7091 12 16.5Z" fill="white"/>
<path fill-rule="evenodd" clip-rule="evenodd" d="M25 21.5C23.8954 21.5 23 22.3954 23 23.5C23 24.6046 23.8954 25.5 25 25.5C26.1046 25.5 27 24.6046 27 23.5C27 22.3954 26.1046 21.5 25 21.5ZM21 23.5C21 21.2909 22.7909 19.5 25 19.5C27.2091 19.5 29 21.2909 29 23.5C29 25.7091 27.2091 27.5 25 27.5C22.7909 27.5 21 25.7091 21 23.5Z" fill="white"/>
<path fill-rule="evenodd" clip-rule="evenodd" d="M14.5097 17.8227C14.8767 18.2354 14.8398 18.8674 14.4271 19.2345L9.90212 23.2595C9.48946 23.6266 8.85738 23.5896 8.49032 23.1769C8.12326 22.7643 8.16022 22.1322 8.57288 21.7651L13.0979 17.7401C13.5105 17.3731 14.1426 17.41 14.5097 17.8227Z" fill="white"/>
<path fill-rule="evenodd" clip-rule="evenodd" d="M7 22.5C5.89543 22.5 5 23.3954 5 24.5C5 25.6046 5.89543 26.5 7 26.5C8.10457 26.5 9 25.6046 9 24.5C9 23.3954 8.10457 22.5 7 22.5ZM3 24.5C3 22.2909 4.79086 20.5 7 20.5C9.20914 20.5 11 22.2909 11 24.5C11 26.7091 9.20914 28.5 7 28.5C4.79086 28.5 3 26.7091 3 24.5Z" fill="white"/>
<path fill-rule="evenodd" clip-rule="evenodd" d="M7.5 7.5C7.5 5.01472 9.51472 3 12 3C14.4853 3 16.5 5.01472 16.5 7.5C16.5 8.7874 15.9594 9.94852 15.0928 10.7688L15.649 12.0135C15.7648 12.0046 15.8819 12 16 12C17.443 12 18.7273 12.6792 19.5508 13.7352L20.5007 13.4186C20.5441 10.9709 22.5419 9 25 9C27.4853 9 29.5 11.0147 29.5 13.5C29.5 15.9853 27.4853 18 25 18C23.557 18 22.2727 17.3208 21.4492 16.2647L20.4993 16.5814C20.491 17.0489 20.4114 17.4991 20.2709 17.9215L22.5715 19.7109C23.2721 19.2609 24.1056 19 25 19C27.4853 19 29.5 21.0147 29.5 23.5C29.5 25.9853 27.4853 28 25 28C22.5147 28 20.5 25.9853 20.5 23.5C20.5 23.0033 20.5805 22.5253 20.7291 22.0785L18.4285 20.2891C17.7279 20.739 16.8944 21 16 21C15.2108 21 14.4691 20.7968 13.8242 20.44L11.1687 22.8021C11.3823 23.326 11.5 23.8993 11.5 24.5C11.5 26.9853 9.48528 29 7 29C4.51472 29 2.5 26.9853 2.5 24.5C2.5 22.0147 4.51472 20 7 20C7.78909 20 8.53075 20.2031 9.17554 20.5599L11.8312 18.1976C11.6177 17.6738 11.5 17.1006 11.5 16.5C11.5 15.2126 12.0406 14.0515 12.9072 13.2312L12.3511 11.9865C12.2352 11.9954 12.1181 12 12 12C9.51472 12 7.5 9.98528 7.5 7.5ZM13.359 11.7911L13.7273 12.6153C14.0132 12.4476 14.3193 12.3107 14.641 12.2089L14.2727 11.3847C13.9868 11.5524 13.6808 11.6893 13.359 11.7911ZM13.8615 10.4644C13.5812 10.6409 13.274 10.7786 12.9476 10.8702L12.756 10.4415C12.6535 10.212 12.738 9.94625 12.9443 9.81551C12.9902 9.79679 13.0353 9.77675 13.0798 9.75543C13.3141 9.69062 13.5669 9.80489 13.669 10.0336L13.8615 10.4644ZM14.6526 9.78349C15.1807 9.17055 15.5 8.37256 15.5 7.5C15.5 5.567 13.933 4 12 4C10.067 4 8.5 5.567 8.5 7.5C8.5 9.40283 10.0185 10.951 11.9098 10.9989L11.843 10.8495C11.7173 10.5681 11.6853 10.2686 11.7336 9.98598C10.4782 9.853 9.5 8.79073 9.5 7.5C9.5 6.11929 10.6193 5 12 5C13.3807 5 14.5 6.11929 14.5 7.5C14.5 8.05085 14.3218 8.56009 14.02 8.97325C14.2591 9.12564 14.4577 9.34741 14.582 9.62564L14.6526 9.78349ZM12.6952 8.82954C13.1736 8.57888 13.5 8.07756 13.5 7.5C13.5 6.67157 12.8284 6 12 6C11.1716 6 10.5 6.67157 10.5 7.5C10.5 8.32843 11.1716 9 12 9C12.1816 9 12.3557 8.96772 12.5168 8.90858C12.5442 8.89431 12.5721 8.88078 12.6006 8.86804C12.6319 8.85405 12.6635 8.84123 12.6952 8.82954ZM15.0524 13.1298C14.726 13.2214 14.4188 13.3591 14.1385 13.5356L14.331 13.9665C14.4331 14.195 14.6855 14.3093 14.9196 14.2449C14.9644 14.2233 15.01 14.2031 15.0563 14.1842C15.2622 14.0534 15.3465 13.7879 15.244 13.5586L15.0524 13.1298ZM15.3041 15.1709C15.3361 15.1591 15.3679 15.1462 15.3994 15.1321C15.4282 15.1192 15.4564 15.1055 15.484 15.0911C15.6449 15.0322 15.8187 15 16 15C16.8284 15 17.5 15.6716 17.5 16.5C17.5 16.8096 17.4062 17.0972 17.2455 17.3362C17.2224 17.362 17.2 17.3888 17.1784 17.4165C17.1571 17.444 17.1368 17.472 17.1176 17.5005C16.843 17.8071 16.444 18 16 18C15.5919 18 15.2218 17.837 14.9513 17.5725C14.9298 17.5446 14.9071 17.5172 14.8833 17.4904C14.8598 17.464 14.8357 17.4387 14.8108 17.4144C14.6159 17.1613 14.5 16.8442 14.5 16.5C14.5 15.9228 14.8261 15.4217 15.3041 15.1709ZM13.98 15.0268C13.7409 14.8744 13.5423 14.6527 13.418 14.3745L13.3474 14.2165C12.8193 14.8294 12.5 15.6274 12.5 16.5C12.5 16.8399 12.5485 17.1685 12.6388 17.4793L12.7656 17.3665C12.9944 17.163 13.2683 17.0422 13.5505 17.0022C13.5174 16.84 13.5 16.672 13.5 16.5C13.5 15.9492 13.6781 15.4399 13.98 15.0268ZM14.0793 18.1004C13.8924 17.947 13.6166 17.9479 13.4302 18.1137L13.0779 18.4271C13.2628 18.707 13.4868 18.9587 13.7422 19.1745L14.0948 18.8609C14.2811 18.6952 14.3142 18.4216 14.1839 18.2181C14.1479 18.18 14.113 18.1407 14.0793 18.1004ZM15.2121 18.8733C15.1393 19.148 14.9877 19.4051 14.7594 19.6081L14.6311 19.7222C15.0516 19.901 15.5142 20 16 20C16.5669 20 17.1023 19.8652 17.5759 19.626L17.4416 19.5215C17.2001 19.3336 17.0317 19.0866 16.941 18.8169C16.6505 18.9349 16.3329 19 16 19C15.7247 19 15.4598 18.9555 15.2121 18.8733ZM17.925 18.0953C17.8074 18.3071 17.8583 18.5788 18.0555 18.7321L18.4274 19.0214C18.6679 18.7899 18.8753 18.5243 19.0419 18.2324L18.6694 17.9428C18.4724 17.7895 18.1968 17.8069 18.0205 17.9726C17.9899 18.0145 17.958 18.0554 17.925 18.0953ZM19.0975 17.0296C19.1615 17.0657 19.2236 17.107 19.2834 17.1534L19.4177 17.2579C19.442 17.1481 19.4611 17.0363 19.4747 16.9229L19.3243 16.973C19.2491 16.9981 19.1733 17.0169 19.0975 17.0296ZM20.4016 15.5598L20.9144 15.3889C20.7756 15.089 20.6688 14.7713 20.5984 14.4401L20.0856 14.6111C20.2244 14.9109 20.3312 15.2286 20.4016 15.5598ZM19.1289 14.93C19.2772 15.2248 19.385 15.5435 19.445 15.8787L19.0081 16.0243C18.7461 16.1116 18.463 15.9701 18.3757 15.7081C18.2883 15.4461 18.4299 15.163 18.6919 15.0756L19.1289 14.93ZM18.5257 14.077C17.908 13.4334 17.0468 13.0254 16.0902 13.0011L16.157 13.1506C16.2828 13.432 16.3148 13.7315 16.2665 14.014C16.7999 14.0705 17.2832 14.2948 17.6627 14.633C17.8385 14.4049 18.0819 14.2249 18.3757 14.127L18.5257 14.077ZM21.555 14.1213C21.615 14.4565 21.7228 14.7752 21.871 15.07L22.3081 14.9243C22.5701 14.837 22.7117 14.5538 22.6243 14.2919C22.537 14.0299 22.2539 13.8883 21.9919 13.9756L21.555 14.1213ZM22.4743 15.923C23.1113 16.5868 24.0074 17 25 17C26.933 17 28.5 15.433 28.5 13.5C28.5 11.567 26.933 10 25 10C23.2101 10 21.7341 11.3435 21.5253 13.0771L21.6757 13.027C21.9693 12.9291 22.2718 12.9271 22.5492 13.0039C22.7793 11.8608 23.7891 11 25 11C26.3807 11 27.5 12.1193 27.5 13.5C27.5 14.8807 26.3807 16 25 16C24.3616 16 23.7791 15.7607 23.3373 15.3669C23.1614 15.5951 22.9181 15.7751 22.6243 15.873L22.4743 15.923ZM19.8376 18.8513C19.6622 19.137 19.4558 19.4015 19.2231 19.6403L21.1624 21.1486C21.3378 20.863 21.5442 20.5985 21.7769 20.3597L19.8376 18.8513ZM22.5726 20.9786C22.3322 21.2101 22.1248 21.4757 21.9582 21.7675L22.3305 22.0571C22.5277 22.2105 22.8036 22.193 22.9799 22.0269C23.0103 21.9853 23.0419 21.9447 23.0747 21.9051C23.1927 21.6933 23.1418 21.4213 22.9444 21.2678L22.5726 20.9786ZM23.7549 22.6632C23.7779 22.6375 23.8001 22.6109 23.8215 22.5834C23.8427 22.5561 23.8628 22.5283 23.8819 22.5001C24.1565 22.1932 24.5557 22 25 22C25.8284 22 26.5 22.6716 26.5 23.5C26.5 24.3284 25.8284 25 25 25C24.1716 25 23.5 24.3284 23.5 23.5C23.5 23.1901 23.594 22.9022 23.7549 22.6632ZM22.5232 23.1582C22.5079 23.27 22.5 23.3841 22.5 23.5C22.5 24.8807 23.6193 26 25 26C26.3807 26 27.5 24.8807 27.5 23.5C27.5 22.1193 26.3807 21 25 21C24.6671 21 24.3495 21.0651 24.059 21.1831C23.9683 20.9133 23.7999 20.6663 23.5584 20.4784L23.4241 20.374C23.8977 20.1348 24.4331 20 25 20C26.933 20 28.5 21.567 28.5 23.5C28.5 25.433 26.933 27 25 27C23.067 27 21.5 25.433 21.5 23.5C21.5 23.2397 21.5284 22.9861 21.5823 22.742L21.7166 22.8465C21.9582 23.0344 22.2392 23.1368 22.5232 23.1582ZM12.9891 19.8444C12.7411 19.6209 12.518 19.3703 12.3246 19.0971L10.0107 21.1554C10.2587 21.3789 10.4818 21.6295 10.6752 21.9027L12.9891 19.8444ZM9.92199 22.5726C9.73703 22.2928 9.51295 22.0411 9.25755 21.8253L8.90519 22.1387C8.71859 22.3047 8.68563 22.5791 8.81679 22.7826C8.85227 22.8202 8.88659 22.8588 8.9197 22.8984C9.1066 23.0526 9.38312 23.052 9.56981 22.8859L9.92199 22.5726ZM8.0498 23.4286C8.07101 23.456 8.09332 23.4829 8.11673 23.5092C8.1398 23.5352 8.16358 23.5601 8.188 23.5841C8.38362 23.8375 8.5 24.1551 8.5 24.5C8.5 25.3284 7.82843 26 7 26C6.17157 26 5.5 25.3284 5.5 24.5C5.5 23.6716 6.17157 23 7 23C7.40872 23 7.77925 23.1635 8.0498 23.4286ZM7.78776 22.1266C7.54009 22.0445 7.27524 22 7 22C5.61929 22 4.5 23.1193 4.5 24.5C4.5 25.8807 5.61929 27 7 27C8.38071 27 9.5 25.8807 9.5 24.5C9.5 24.3279 9.4826 24.1598 9.44947 23.9974C9.73163 23.9574 10.0055 23.8367 10.2344 23.6331L10.3611 23.5204C10.4515 23.8313 10.5 24.16 10.5 24.5C10.5 26.433 8.933 28 7 28C5.067 28 3.5 26.433 3.5 24.5C3.5 22.567 5.067 21 7 21C7.48564 21 7.94818 21.0989 8.36857 21.2777L8.24057 21.3915C8.01224 21.5946 7.86059 21.8518 7.78776 22.1266ZM25 12C24.1716 12 23.5 12.6716 23.5 13.5C23.5 14.3284 24.1716 15 25 15C25.8284 15 26.5 14.3284 26.5 13.5C26.5 12.6716 25.8284 12 25 12Z" fill="white"/>
</svg>
