<svg width="32" height="33" viewBox="0 0 32 33" fill="none" xmlns="http://www.w3.org/2000/svg">
<path fill-rule="evenodd" clip-rule="evenodd" d="M24.2929 4.79289C24.6834 4.40237 25.3166 4.40237 25.7071 4.79289L30.7071 9.79289C31.0976 10.1834 31.0976 10.8166 30.7071 11.2071L25.7071 16.2071C25.3166 16.5976 24.6834 16.5976 24.2929 16.2071C23.9024 15.8166 23.9024 15.1834 24.2929 14.7929L28.5858 10.5L24.2929 6.20711C23.9024 5.81658 23.9024 5.18342 24.2929 4.79289Z" fill="white"/>
<path fill-rule="evenodd" clip-rule="evenodd" d="M22 11.5C20.6739 11.5 19.4021 12.0268 18.4645 12.9645C17.5268 13.9021 17 15.1739 17 16.5C17 18.3565 16.2625 20.137 14.9497 21.4497C13.637 22.7625 11.8565 23.5 10 23.5H9C8.44772 23.5 8 23.0523 8 22.5C8 21.9477 8.44772 21.5 9 21.5H10C11.3261 21.5 12.5979 20.9732 13.5355 20.0355C14.4732 19.0979 15 17.8261 15 16.5C15 14.6435 15.7375 12.863 17.0503 11.5503C18.363 10.2375 20.1435 9.5 22 9.5H30C30.5523 9.5 31 9.94772 31 10.5C31 11.0523 30.5523 11.5 30 11.5H22Z" fill="white"/>
<path fill-rule="evenodd" clip-rule="evenodd" d="M5.5 20C4.11929 20 3 21.1193 3 22.5C3 23.8807 4.11929 25 5.5 25C6.88071 25 8 23.8807 8 22.5C8 21.1193 6.88071 20 5.5 20ZM1 22.5C1 20.0147 3.01472 18 5.5 18C7.98528 18 10 20.0147 10 22.5C10 24.9853 7.98528 27 5.5 27C3.01472 27 1 24.9853 1 22.5Z" fill="white"/>
<path fill-rule="evenodd" clip-rule="evenodd" d="M23.9393 4.43934C24.5251 3.85355 25.4749 3.85355 26.0607 4.43934L31.0607 9.43934C31.2049 9.58359 31.3136 9.74991 31.3868 9.92743C31.4581 10.0998 31.4981 10.2884 31.4999 10.4862C31.5 10.4908 31.5 10.4954 31.5 10.5C31.5 10.5046 31.5 10.5092 31.4999 10.5138C31.4981 10.7116 31.4581 10.9002 31.3868 11.0726C31.3136 11.2501 31.2049 11.4164 31.0607 11.5607L26.0607 16.5607C25.4749 17.1464 24.5251 17.1464 23.9393 16.5607C23.3536 15.9749 23.3536 15.0251 23.9393 14.4393L26.3787 12H22C20.8065 12 19.6619 12.4741 18.818 13.318C17.9741 14.1619 17.5 15.3065 17.5 16.5C17.5 18.4891 16.7098 20.3968 15.3033 21.8033C13.9612 23.1454 12.1627 23.9264 10.2727 23.995C9.63705 26.0262 7.74064 27.5 5.5 27.5C2.73858 27.5 0.5 25.2614 0.5 22.5C0.5 19.7386 2.73858 17.5 5.5 17.5C7.73587 17.5 9.62897 18.9676 10.2686 20.992C11.3641 20.9265 12.4016 20.4624 13.182 19.682C14.0259 18.8381 14.5 17.6935 14.5 16.5C14.5 14.5109 15.2902 12.6032 16.6967 11.1967C18.1032 9.79018 20.0109 9 22 9H26.3787L23.9393 6.56066C23.3536 5.97487 23.3536 5.02513 23.9393 4.43934ZM27.3787 10H22C20.2761 10 18.6228 10.6848 17.4038 11.9038C16.1848 13.1228 15.5 14.7761 15.5 16.5C15.5 17.9587 14.9205 19.3576 13.8891 20.3891C12.9698 21.3084 11.7585 21.8687 10.4732 21.9796C10.4909 22.1507 10.5 22.3243 10.5 22.5C10.5 22.6628 10.4922 22.8237 10.477 22.9825C12.0265 22.8685 13.4901 22.2023 14.5962 21.0962C15.8152 19.8772 16.5 18.2239 16.5 16.5C16.5 15.0413 17.0795 13.6424 18.1109 12.6109C19.1424 11.5795 20.5413 11 22 11H27.3787L27.8787 10.5L27.3787 10ZM28.7929 11L28.9393 10.8536C29.0331 10.7598 29.0858 10.6326 29.0858 10.5C29.0858 10.3674 29.0331 10.2402 28.9393 10.1464L28.7929 10H30C30.1381 10 30.2631 10.056 30.3536 10.1464C30.442 10.2349 30.4975 10.3564 30.4999 10.4908C30.5 10.4938 30.5 10.4969 30.5 10.5C30.5 10.508 30.4998 10.516 30.4994 10.524C30.4967 10.5811 30.4842 10.6378 30.4621 10.6914C30.4377 10.7504 30.4015 10.8056 30.3536 10.8536C30.2631 10.944 30.1381 11 30 11H28.7929ZM27.7929 12L24.6464 15.1464C24.4512 15.3417 24.4512 15.6583 24.6464 15.8536C24.8417 16.0488 25.1583 16.0488 25.3536 15.8536L29.2071 12H27.7929ZM29.2071 9H27.7929L24.6464 5.85355C24.4512 5.65829 24.4512 5.34171 24.6464 5.14645C24.8417 4.95118 25.1583 4.95118 25.3536 5.14645L29.2071 9ZM9.46905 23C9.48948 22.8362 9.5 22.6693 9.5 22.5C9.5 22.3307 9.48948 22.1638 9.46905 22H9C8.72386 22 8.5 22.2239 8.5 22.5C8.5 22.7761 8.72386 23 9 23H9.46905ZM8.2148 21.2217C7.73484 20.2041 6.69965 19.5 5.5 19.5C3.84315 19.5 2.5 20.8431 2.5 22.5C2.5 24.1569 3.84315 25.5 5.5 25.5C6.69965 25.5 7.73484 24.7959 8.2148 23.7783C8.4432 23.9189 8.71213 24 9 24H9.20924C8.61585 25.4659 7.17869 26.5 5.5 26.5C3.29086 26.5 1.5 24.7091 1.5 22.5C1.5 20.2909 3.29086 18.5 5.5 18.5C7.17869 18.5 8.61585 19.5341 9.20924 21H9C8.71213 21 8.4432 21.0811 8.2148 21.2217ZM7.5 22.5C7.5 23.6046 6.60457 24.5 5.5 24.5C4.39543 24.5 3.5 23.6046 3.5 22.5C3.5 21.3954 4.39543 20.5 5.5 20.5C6.60457 20.5 7.5 21.3954 7.5 22.5Z" fill="white"/>
</svg>
