<svg width="32" height="33" viewBox="0 0 32 33" fill="none" xmlns="http://www.w3.org/2000/svg">
<path fill-rule="evenodd" clip-rule="evenodd" d="M5 23.5C3.89543 23.5 3 24.3954 3 25.5C3 26.6046 3.89543 27.5 5 27.5C6.10457 27.5 7 26.6046 7 25.5C7 24.3954 6.10457 23.5 5 23.5ZM1 25.5C1 23.2909 2.79086 21.5 5 21.5C7.20914 21.5 9 23.2909 9 25.5C9 27.7091 7.20914 29.5 5 29.5C2.79086 29.5 1 27.7091 1 25.5Z" fill="white"/>
<path fill-rule="evenodd" clip-rule="evenodd" d="M11.0482 14.2565C11.5348 14.5178 11.7173 15.1241 11.4559 15.6107L7.30593 23.3357C7.04456 23.8222 6.43827 24.0047 5.95175 23.7433C5.46523 23.482 5.2827 22.8757 5.54407 22.3892L9.69407 14.6642C9.95544 14.1776 10.5617 13.9951 11.0482 14.2565Z" fill="white"/>
<path fill-rule="evenodd" clip-rule="evenodd" d="M12 10.5C10.8954 10.5 10 11.3954 10 12.5C10 13.6046 10.8954 14.5 12 14.5C13.1046 14.5 14 13.6046 14 12.5C14 11.3954 13.1046 10.5 12 10.5ZM8 12.5C8 10.2909 9.79086 8.5 12 8.5C14.2091 8.5 16 10.2909 16 12.5C16 14.7091 14.2091 16.5 12 16.5C9.79086 16.5 8 14.7091 8 12.5Z" fill="white"/>
<path fill-rule="evenodd" clip-rule="evenodd" d="M13.4179 13.9179C13.8084 13.5274 14.4416 13.5274 14.8321 13.9179L18.5821 17.6679C18.9726 18.0584 18.9726 18.6916 18.5821 19.0821C18.1916 19.4726 17.5584 19.4726 17.1679 19.0821L13.4179 15.3321C13.0274 14.9416 13.0274 14.3084 13.4179 13.9179Z" fill="white"/>
<path fill-rule="evenodd" clip-rule="evenodd" d="M26.0483 9.25647C26.5348 9.51784 26.7173 10.1241 26.4559 10.6107L22.3059 18.3357C22.0446 18.8222 21.4383 19.0047 20.9517 18.7433C20.4652 18.482 20.2827 17.8757 20.5441 17.3892L24.6941 9.66415C24.9554 9.17763 25.5617 8.9951 26.0483 9.25647Z" fill="white"/>
<path fill-rule="evenodd" clip-rule="evenodd" d="M20 18.5C18.8954 18.5 18 19.3954 18 20.5C18 21.6046 18.8954 22.5 20 22.5C21.1046 22.5 22 21.6046 22 20.5C22 19.3954 21.1046 18.5 20 18.5ZM16 20.5C16 18.2909 17.7909 16.5 20 16.5C22.2091 16.5 24 18.2909 24 20.5C24 22.7091 22.2091 24.5 20 24.5C17.7909 24.5 16 22.7091 16 20.5Z" fill="white"/>
<path fill-rule="evenodd" clip-rule="evenodd" d="M27 5.5C25.8954 5.5 25 6.39543 25 7.5C25 8.60457 25.8954 9.5 27 9.5C28.1046 9.5 29 8.60457 29 7.5C29 6.39543 28.1046 5.5 27 5.5ZM23 7.5C23 5.29086 24.7909 3.5 27 3.5C29.2091 3.5 31 5.29086 31 7.5C31 9.70914 29.2091 11.5 27 11.5C24.7909 11.5 23 9.70914 23 7.5Z" fill="white"/>
<path fill-rule="evenodd" clip-rule="evenodd" d="M22.5 7.5C22.5 5.01472 24.5147 3 27 3C29.4853 3 31.5 5.01472 31.5 7.5C31.5 9.98528 29.4853 12 27 12C26.7639 12 26.532 11.9818 26.3057 11.9468L23.3343 17.4779C24.0587 18.2767 24.5 19.3368 24.5 20.5C24.5 22.9853 22.4853 25 20 25C17.5147 25 15.5 22.9853 15.5 20.5C15.5 19.8053 15.6574 19.1473 15.9386 18.5599L13.9401 16.5614C13.3527 16.8426 12.6947 17 12 17C11.7639 17 11.532 16.9818 11.3057 16.9468L8.33429 22.4779C9.05866 23.2767 9.5 24.3368 9.5 25.5C9.5 27.9853 7.48528 30 5 30C2.51472 30 0.5 27.9853 0.5 25.5C0.5 23.0147 2.51472 21 5 21C5.23608 21 5.46791 21.0182 5.69418 21.0532L8.66565 15.522C7.94132 14.7233 7.5 13.6632 7.5 12.5C7.5 10.0147 9.51472 8 12 8C14.4853 8 16.5 10.0147 16.5 12.5C16.5 13.1947 16.3426 13.8527 16.0614 14.4401L18.0599 16.4386C18.6473 16.1574 19.3053 16 20 16C20.2361 16 20.4679 16.0182 20.6942 16.0532L23.6656 10.522C22.9413 9.72327 22.5 8.66317 22.5 7.5ZM24.437 11.1993L21.6831 16.3253C21.9953 16.4513 22.2901 16.6113 22.563 16.8007L25.3168 11.6746C25.0046 11.5486 24.7098 11.3887 24.437 11.1993ZM25.7938 10.7866C25.4765 10.6701 25.1808 10.509 24.9142 10.3109L25.1345 9.90078C25.2578 9.67129 25.5346 9.57708 25.7698 9.67686C25.7976 9.69259 25.8257 9.70781 25.8541 9.7225C26.0651 9.86409 26.1382 10.1455 26.0155 10.374L25.7938 10.7866ZM26.8169 10.9953C26.8775 10.9984 26.9386 11 27 11C28.933 11 30.5 9.433 30.5 7.5C30.5 5.567 28.933 4 27 4C25.067 4 23.5 5.567 23.5 7.5C23.5 8.27437 23.7515 8.99001 24.1772 9.56969L24.2536 9.42753C24.3998 9.15545 24.6179 8.94676 24.8717 8.81232C24.636 8.43088 24.5 7.98132 24.5 7.5C24.5 6.11929 25.6193 5 27 5C28.3807 5 29.5 6.11929 29.5 7.5C29.5 8.85772 28.4177 9.96264 27.0688 9.99907C27.0953 10.2829 27.0414 10.5774 26.8964 10.8473L26.8169 10.9953ZM26.3425 8.84859C26.541 8.94557 26.7642 9 27 9C27.8284 9 28.5 8.32843 28.5 7.5C28.5 6.67157 27.8284 6 27 6C26.1716 6 25.5 6.67157 25.5 7.5C25.5 8.0484 25.7943 8.52807 26.2336 8.78968C26.2508 8.7981 26.2679 8.80687 26.2849 8.81601C26.3044 8.8265 26.3236 8.83737 26.3425 8.84859ZM22.0857 17.6891C21.8191 17.4909 21.5234 17.3298 21.2061 17.2134L20.9845 17.6258C20.8615 17.8548 20.9352 18.1369 21.1472 18.2782C21.1747 18.2924 21.2019 18.3071 21.2288 18.3223C21.4643 18.4231 21.7419 18.329 21.8655 18.099L22.0857 17.6891ZM20.6594 19.1523C20.6776 19.1632 20.6962 19.1736 20.7151 19.1838C20.7315 19.1926 20.7479 19.201 20.7645 19.2092C21.2048 19.4705 21.5 19.9508 21.5 20.5C21.5 21.3284 20.8284 22 20 22C19.1716 22 18.5 21.3284 18.5 20.5C18.5 19.6716 19.1716 19 20 19C20.2366 19 20.4604 19.0548 20.6594 19.1523ZM19.9312 18.0009C19.9047 17.7171 19.9586 17.4225 20.1036 17.1525L20.183 17.0047C20.1224 17.0016 20.0614 17 20 17C19.5874 17 19.1914 17.0714 18.8238 17.2025L18.9357 17.3143C19.1547 17.5334 19.2919 17.8033 19.3471 18.0861C19.534 18.0357 19.7297 18.0064 19.9312 18.0009ZM17.5861 19.8471C17.53 20.0552 17.5 20.2741 17.5 20.5C17.5 21.8807 18.6193 23 20 23C21.3807 23 22.5 21.8807 22.5 20.5C22.5 20.0186 22.3639 19.569 22.1282 19.1875C22.3821 19.0531 22.6002 18.8444 22.7464 18.5723L22.8227 18.4302C23.2485 19.0099 23.5 19.7256 23.5 20.5C23.5 22.433 21.933 24 20 24C18.067 24 16.5 22.433 16.5 20.5C16.5 20.0874 16.5714 19.6914 16.7025 19.3238L16.8143 19.4357C17.0334 19.6547 17.3033 19.7918 17.5861 19.8471ZM17.1968 18.4039L17.5214 18.7286C17.7167 18.9238 18.0333 18.9238 18.2286 18.7286C18.4238 18.5333 18.4238 18.2167 18.2286 18.0214L17.9039 17.6968C17.6359 17.8976 17.3976 18.1359 17.1968 18.4039ZM17.1912 16.9841L15.5159 15.3088C15.3071 15.5699 15.0699 15.8071 14.8088 16.0159L16.4841 17.6912C16.6929 17.4301 16.9301 17.1929 17.1912 16.9841ZM14.0961 15.3032C14.3641 15.1024 14.6024 14.8641 14.8032 14.5961L14.4786 14.2714C14.2833 14.0762 13.9667 14.0762 13.7714 14.2714C13.5762 14.4667 13.5762 14.7833 13.7714 14.9786L14.0961 15.3032ZM15.2975 13.6762C15.4286 13.3086 15.5 12.9126 15.5 12.5C15.5 10.567 13.933 9 12 9C10.067 9 8.5 10.567 8.5 12.5C8.5 13.2744 8.75148 13.99 9.17723 14.5697L9.25361 14.4275C9.39977 14.1554 9.61785 13.9468 9.87172 13.8123C9.63602 13.4309 9.5 12.9813 9.5 12.5C9.5 11.1193 10.6193 10 12 10C13.3807 10 14.5 11.1193 14.5 12.5C14.5 12.7259 14.47 12.9448 14.4139 13.1529C14.6967 13.2082 14.9666 13.3453 15.1857 13.5643L15.2975 13.6762ZM12.6529 14.9139C12.466 14.9643 12.2703 14.9936 12.0688 14.9991C12.0953 15.2829 12.0414 15.5774 11.8964 15.8473L11.8169 15.9953C11.8775 15.9984 11.9386 16 12 16C12.4126 16 12.8086 15.9286 13.1762 15.7975L13.0643 15.6857C12.8453 15.4666 12.7082 15.1967 12.6529 14.9139ZM10.7938 15.7866L11.0155 15.374C11.1382 15.1455 11.0651 14.8641 10.8541 14.7225C10.8257 14.7078 10.7976 14.6926 10.7698 14.6769C10.5346 14.5771 10.2578 14.6713 10.1345 14.9008L9.91422 15.3109C10.1808 15.509 10.4765 15.6701 10.7938 15.7866ZM9.43697 16.1993L6.68315 21.3253C6.99531 21.4513 7.29011 21.6113 7.56295 21.8007L10.3168 16.6746C10.0046 16.5486 9.70981 16.3886 9.43697 16.1993ZM7.0857 22.6891C6.81912 22.4909 6.52338 22.3298 6.20609 22.2134L5.98454 22.6258C5.86151 22.8548 5.93518 23.1369 6.1472 23.2782C6.17471 23.2924 6.20192 23.3071 6.22881 23.3223C6.4643 23.4231 6.74193 23.329 6.86546 23.099L7.0857 22.6891ZM5.65939 24.1523C5.67766 24.1632 5.69624 24.1736 5.71513 24.1838C5.73148 24.1926 5.74793 24.201 5.76446 24.2091C6.20483 24.4705 6.5 24.9508 6.5 25.5C6.5 26.3284 5.82843 27 5 27C4.17157 27 3.5 26.3284 3.5 25.5C3.5 24.6716 4.17157 24 5 24C5.23658 24 5.46038 24.0548 5.65939 24.1523ZM4.93125 23.0009C3.58232 23.0373 2.5 24.1423 2.5 25.5C2.5 26.8807 3.61929 28 5 28C6.38071 28 7.5 26.8807 7.5 25.5C7.5 25.0186 7.36394 24.569 7.12819 24.1875C7.3821 24.0531 7.60021 23.8444 7.74639 23.5723L7.82271 23.4302C8.24849 24.0099 8.5 24.7256 8.5 25.5C8.5 27.433 6.933 29 5 29C3.067 29 1.5 27.433 1.5 25.5C1.5 23.567 3.067 22 5 22C5.06139 22 5.12241 22.0016 5.18302 22.0047L5.10361 22.1525C4.95857 22.4225 4.90466 22.7171 4.93125 23.0009ZM11.3425 13.8486C11.541 13.9456 11.7642 14 12 14C12.8284 14 13.5 13.3284 13.5 12.5C13.5 11.6716 12.8284 11 12 11C11.1716 11 10.5 11.6716 10.5 12.5C10.5 13.0484 10.7943 13.5281 11.2336 13.7897C11.2508 13.7981 11.2679 13.8069 11.2849 13.816C11.3044 13.8265 11.3236 13.8374 11.3425 13.8486Z" fill="white"/>
</svg>
