<svg width="32" height="33" viewBox="0 0 32 33" fill="none" xmlns="http://www.w3.org/2000/svg">
<path fill-rule="evenodd" clip-rule="evenodd" d="M4.71465 4.96772C5.07336 4.66679 5.52808 4.5 6 4.5H26C26.5304 4.5 27.0391 4.71071 27.4142 5.08579C27.7893 5.46086 28 5.96957 28 6.5V26.5C28 26.9715 27.8335 27.4259 27.533 27.7845C27.4998 27.832 27.462 27.8773 27.4196 27.9197C27.3771 27.9622 27.3318 28 27.2842 28.0332C26.9257 28.3336 26.4714 28.5 26 28.5H23C22.4477 28.5 22 28.0523 22 27.5C22 26.9477 22.4477 26.5 23 26.5H24.5857L6 7.91434L6 9.5C6 10.0523 5.55228 10.5 5 10.5C4.44772 10.5 4 10.0523 4 9.5V6.5C4 6.0282 4.16671 5.57359 4.4675 5.21491C4.50056 5.16768 4.53819 5.12267 4.58037 5.08049C4.62251 5.03835 4.66747 5.00076 4.71465 4.96772ZM7.41409 6.5L26 25.0859V6.5L7.41409 6.5Z" fill="white"/>
<path d="M5 13.5C5.55228 13.5 6 13.9477 6 14.5V18.5C6 19.0523 5.55228 19.5 5 19.5C4.44772 19.5 4 19.0523 4 18.5V14.5C4 13.9477 4.44772 13.5 5 13.5Z" fill="white"/>
<path d="M13 27.5C13 26.9477 13.4477 26.5 14 26.5H18C18.5523 26.5 19 26.9477 19 27.5C19 28.0523 18.5523 28.5 18 28.5H14C13.4477 28.5 13 28.0523 13 27.5Z" fill="white"/>
<path d="M6 23.5C6 22.9477 5.55228 22.5 5 22.5C4.44772 22.5 4 22.9477 4 23.5V26.5C4 27.0304 4.21071 27.5391 4.58579 27.9142C4.96086 28.2893 5.46957 28.5 6 28.5H9C9.55228 28.5 10 28.0523 10 27.5C10 26.9477 9.55228 26.5 9 26.5H6V23.5Z" fill="white"/>
<path fill-rule="evenodd" clip-rule="evenodd" d="M6 5C5.64608 5 5.30502 5.12509 5.036 5.35078C5.02489 5.3601 5.01337 5.36893 5.00149 5.37725C4.97803 5.39369 4.9554 5.41256 4.93392 5.43404C4.91242 5.45555 4.89353 5.4782 4.87708 5.50169C4.86876 5.51357 4.85993 5.52508 4.85061 5.5362C4.62503 5.80519 4.5 6.14616 4.5 6.5V9.5C4.5 9.77614 4.72386 10 5 10C5.27614 10 5.5 9.77614 5.5 9.5L5.5 7.91434C5.5 7.7121 5.62182 7.52979 5.80866 7.4524C5.9955 7.37501 6.21055 7.41778 6.35355 7.56078L24.9392 26.1464C25.0822 26.2894 25.125 26.5045 25.0476 26.6913C24.9702 26.8782 24.7879 27 24.5857 27H23C22.7239 27 22.5 27.2239 22.5 27.5C22.5 27.7761 22.7239 28 23 28H26C26.3535 28 26.6943 27.8752 26.9631 27.6499C26.9743 27.6406 26.9859 27.6317 26.9979 27.6233C27.0216 27.6068 27.0444 27.5878 27.066 27.5662C27.0876 27.5445 27.1066 27.5217 27.1232 27.4981C27.1315 27.4861 27.1404 27.4745 27.1498 27.4633C27.3751 27.1944 27.5 26.8536 27.5 26.5V6.5C27.5 6.10218 27.342 5.72065 27.0607 5.43934C26.7794 5.15804 26.3978 5 26 5H6ZM4.40926 4.57138C4.85515 4.20358 5.41707 4 6 4H26C26.663 4 27.2989 4.26339 27.7678 4.73223C28.2366 5.20107 28.5 5.83696 28.5 6.5V26.5C28.5 27.0824 28.2968 27.6438 27.9296 28.0895C27.883 28.1541 27.8308 28.2156 27.7731 28.2733C27.7154 28.331 27.6538 28.3833 27.5892 28.4299C27.1435 28.7969 26.5822 29 26 29H23C22.1716 29 21.5 28.3284 21.5 27.5C21.5 26.6716 22.1716 26 23 26H23.3786L6.5 9.12144V9.5C6.5 10.3284 5.82843 11 5 11C4.17157 11 3.5 10.3284 3.5 9.5V6.5C3.5 5.91721 3.70348 5.35543 4.0711 4.90959C4.11751 4.84541 4.16946 4.7843 4.22682 4.72694C4.28411 4.66964 4.34516 4.61775 4.40926 4.57138ZM7.41409 6L26 6C26.1326 6 26.2598 6.05268 26.3536 6.14645C26.4473 6.24021 26.5 6.36739 26.5 6.5V25.0859C26.5 25.2881 26.3782 25.4705 26.1913 25.5478C26.0045 25.6252 25.7894 25.5825 25.6464 25.4395L7.06054 6.85355C6.91754 6.71055 6.87476 6.4955 6.95215 6.30866C7.02954 6.12182 7.21186 6 7.41409 6ZM8.6212 7L25.5 23.8788V7L8.6212 7ZM5 14C4.72386 14 4.5 14.2239 4.5 14.5V18.5C4.5 18.7761 4.72386 19 5 19C5.27614 19 5.5 18.7761 5.5 18.5V14.5C5.5 14.2239 5.27614 14 5 14ZM3.5 14.5C3.5 13.6716 4.17157 13 5 13C5.82843 13 6.5 13.6716 6.5 14.5V18.5C6.5 19.3284 5.82843 20 5 20C4.17157 20 3.5 19.3284 3.5 18.5V14.5ZM3.5 23.5C3.5 22.6716 4.17157 22 5 22C5.82843 22 6.5 22.6716 6.5 23.5V26H9C9.82843 26 10.5 26.6716 10.5 27.5C10.5 28.3284 9.82843 29 9 29H6C5.33696 29 4.70108 28.7366 4.23223 28.2678C3.76339 27.7989 3.5 27.163 3.5 26.5V23.5ZM5 23C4.72386 23 4.5 23.2239 4.5 23.5V26.5C4.5 26.8978 4.65804 27.2794 4.93934 27.5607C5.22065 27.842 5.60218 28 6 28H9C9.27614 28 9.5 27.7761 9.5 27.5C9.5 27.2239 9.27614 27 9 27H6C5.72386 27 5.5 26.7761 5.5 26.5V23.5C5.5 23.2239 5.27614 23 5 23ZM14 27C13.7239 27 13.5 27.2239 13.5 27.5C13.5 27.7761 13.7239 28 14 28H18C18.2761 28 18.5 27.7761 18.5 27.5C18.5 27.2239 18.2761 27 18 27H14ZM12.5 27.5C12.5 26.6716 13.1716 26 14 26H18C18.8284 26 19.5 26.6716 19.5 27.5C19.5 28.3284 18.8284 29 18 29H14C13.1716 29 12.5 28.3284 12.5 27.5Z" fill="white"/>
</svg>
