<svg width="32" height="33" viewBox="0 0 32 33" fill="none" xmlns="http://www.w3.org/2000/svg">
<path d="M13.5 6.5C13.5 5.94772 13.9477 5.5 14.5 5.5H17.5C18.0523 5.5 18.5 5.94772 18.5 6.5C18.5 7.05228 18.0523 7.5 17.5 7.5H14.5C13.9477 7.5 13.5 7.05228 13.5 6.5Z" fill="white"/>
<path d="M13.5 26.5C13.5 25.9477 13.9477 25.5 14.5 25.5H17.5C18.0523 25.5 18.5 25.9477 18.5 26.5C18.5 27.0523 18.0523 27.5 17.5 27.5H14.5C13.9477 27.5 13.5 27.0523 13.5 26.5Z" fill="white"/>
<path d="M22.5 5.5C21.9477 5.5 21.5 5.94772 21.5 6.5C21.5 7.05228 21.9477 7.5 22.5 7.5L25 7.5V10C25 10.5523 25.4477 11 26 11C26.5523 11 27 10.5523 27 10V7.5C27 6.96957 26.7893 6.46086 26.4142 6.08579C26.0391 5.71071 25.5304 5.5 25 5.5H22.5Z" fill="white"/>
<path d="M26 14C26.5523 14 27 14.4477 27 15V18C27 18.5523 26.5523 19 26 19C25.4477 19 25 18.5523 25 18V15C25 14.4477 25.4477 14 26 14Z" fill="white"/>
<path d="M7 15C7 14.4477 6.55228 14 6 14C5.44772 14 5 14.4477 5 15V18C5 18.5523 5.44772 19 6 19C6.55228 19 7 18.5523 7 18V15Z" fill="white"/>
<path d="M6 22C6.55228 22 7 22.4477 7 23V25.5H9.5C10.0523 25.5 10.5 25.9477 10.5 26.5C10.5 27.0523 10.0523 27.5 9.5 27.5H7C6.46957 27.5 5.96086 27.2893 5.58579 26.9142C5.21071 26.5391 5 26.0304 5 25.5V23C5 22.4477 5.44772 22 6 22Z" fill="white"/>
<path d="M7 5.5C6.46957 5.5 5.96086 5.71071 5.58579 6.08579C5.21071 6.46086 5 6.96957 5 7.5V10C5 10.5523 5.44772 11 6 11C6.55228 11 7 10.5523 7 10L7 7.5L9.5 7.5C10.0523 7.5 10.5 7.05228 10.5 6.5C10.5 5.94772 10.0523 5.5 9.5 5.5H7Z" fill="white"/>
<path d="M26 22C26.5523 22 27 22.4477 27 23V25.5H29.5C30.0523 25.5 30.5 25.9477 30.5 26.5C30.5 27.0523 30.0523 27.5 29.5 27.5H27V30C27 30.5523 26.5523 31 26 31C25.4477 31 25 30.5523 25 30V27.5H22.5C21.9477 27.5 21.5 27.0523 21.5 26.5C21.5 25.9477 21.9477 25.5 22.5 25.5H25V23C25 22.4477 25.4477 22 26 22Z" fill="white"/>
<path fill-rule="evenodd" clip-rule="evenodd" d="M5.23223 5.73223C5.70107 5.26339 6.33696 5 7 5H9.5C10.3284 5 11 5.67157 11 6.5C11 7.32843 10.3284 8 9.5 8L7.5 8L7.5 10C7.5 10.8284 6.82843 11.5 6 11.5C5.17157 11.5 4.5 10.8284 4.5 10V7.5C4.5 6.83696 4.76339 6.20107 5.23223 5.73223ZM7 6C6.60217 6 6.22064 6.15804 5.93934 6.43934C5.65804 6.72064 5.5 7.10217 5.5 7.5V10C5.5 10.2761 5.72386 10.5 6 10.5C6.27614 10.5 6.5 10.2761 6.5 10L6.5 7.5C6.5 7.22386 6.72386 7 7 7L9.5 7C9.77614 7 10 6.77614 10 6.5C10 6.22386 9.77614 6 9.5 6H7ZM14.5 6C14.2239 6 14 6.22386 14 6.5C14 6.77614 14.2239 7 14.5 7H17.5C17.7761 7 18 6.77614 18 6.5C18 6.22386 17.7761 6 17.5 6H14.5ZM13 6.5C13 5.67157 13.6716 5 14.5 5H17.5C18.3284 5 19 5.67157 19 6.5C19 7.32843 18.3284 8 17.5 8H14.5C13.6716 8 13 7.32843 13 6.5ZM21 6.5C21 5.67157 21.6716 5 22.5 5H25C25.663 5 26.2989 5.26339 26.7678 5.73223C27.2366 6.20107 27.5 6.83696 27.5 7.5V10C27.5 10.8284 26.8284 11.5 26 11.5C25.1716 11.5 24.5 10.8284 24.5 10V8L22.5 8C21.6716 8 21 7.32843 21 6.5ZM22.5 6C22.2239 6 22 6.22386 22 6.5C22 6.77614 22.2239 7 22.5 7L25 7C25.2761 7 25.5 7.22386 25.5 7.5V10C25.5 10.2761 25.7239 10.5 26 10.5C26.2761 10.5 26.5 10.2761 26.5 10V7.5C26.5 7.10218 26.342 6.72065 26.0607 6.43934C25.7794 6.15804 25.3978 6 25 6H22.5ZM4.5 15C4.5 14.1716 5.17157 13.5 6 13.5C6.82843 13.5 7.5 14.1716 7.5 15V18C7.5 18.8284 6.82843 19.5 6 19.5C5.17157 19.5 4.5 18.8284 4.5 18V15ZM6 14.5C5.72386 14.5 5.5 14.7239 5.5 15V18C5.5 18.2761 5.72386 18.5 6 18.5C6.27614 18.5 6.5 18.2761 6.5 18V15C6.5 14.7239 6.27614 14.5 6 14.5ZM26 14.5C25.7239 14.5 25.5 14.7239 25.5 15V18C25.5 18.2761 25.7239 18.5 26 18.5C26.2761 18.5 26.5 18.2761 26.5 18V15C26.5 14.7239 26.2761 14.5 26 14.5ZM24.5 15C24.5 14.1716 25.1716 13.5 26 13.5C26.8284 13.5 27.5 14.1716 27.5 15V18C27.5 18.8284 26.8284 19.5 26 19.5C25.1716 19.5 24.5 18.8284 24.5 18V15ZM6 22.5C5.72386 22.5 5.5 22.7239 5.5 23V25.5C5.5 25.8978 5.65804 26.2794 5.93934 26.5607C6.22065 26.842 6.60218 27 7 27H9.5C9.77614 27 10 26.7761 10 26.5C10 26.2239 9.77614 26 9.5 26H7C6.72386 26 6.5 25.7761 6.5 25.5V23C6.5 22.7239 6.27614 22.5 6 22.5ZM4.5 23C4.5 22.1716 5.17157 21.5 6 21.5C6.82843 21.5 7.5 22.1716 7.5 23V25H9.5C10.3284 25 11 25.6716 11 26.5C11 27.3284 10.3284 28 9.5 28H7C6.33696 28 5.70108 27.7366 5.23223 27.2678C4.76339 26.7989 4.5 26.163 4.5 25.5V23ZM26 22.5C25.7239 22.5 25.5 22.7239 25.5 23V25.5C25.5 25.7761 25.2761 26 25 26H22.5C22.2239 26 22 26.2239 22 26.5C22 26.7761 22.2239 27 22.5 27H25C25.2761 27 25.5 27.2239 25.5 27.5V30C25.5 30.2761 25.7239 30.5 26 30.5C26.2761 30.5 26.5 30.2761 26.5 30V27.5C26.5 27.2239 26.7239 27 27 27H29.5C29.7761 27 30 26.7761 30 26.5C30 26.2239 29.7761 26 29.5 26H27C26.7239 26 26.5 25.7761 26.5 25.5V23C26.5 22.7239 26.2761 22.5 26 22.5ZM24.5 23C24.5 22.1716 25.1716 21.5 26 21.5C26.8284 21.5 27.5 22.1716 27.5 23V25H29.5C30.3284 25 31 25.6716 31 26.5C31 27.3284 30.3284 28 29.5 28H27.5V30C27.5 30.8284 26.8284 31.5 26 31.5C25.1716 31.5 24.5 30.8284 24.5 30V28H22.5C21.6716 28 21 27.3284 21 26.5C21 25.6716 21.6716 25 22.5 25H24.5V23ZM14.5 26C14.2239 26 14 26.2239 14 26.5C14 26.7761 14.2239 27 14.5 27H17.5C17.7761 27 18 26.7761 18 26.5C18 26.2239 17.7761 26 17.5 26H14.5ZM13 26.5C13 25.6716 13.6716 25 14.5 25H17.5C18.3284 25 19 25.6716 19 26.5C19 27.3284 18.3284 28 17.5 28H14.5C13.6716 28 13 27.3284 13 26.5Z" fill="white"/>
</svg>
