<svg width="32" height="33" viewBox="0 0 32 33" fill="none" xmlns="http://www.w3.org/2000/svg">
<path d="M18 4.5C17.4477 4.5 17 4.94772 17 5.5C17 6.05228 17.4477 6.5 18 6.5H20C20.5523 6.5 21 6.05228 21 5.5C21 4.94772 20.5523 4.5 20 4.5H18Z" fill="white"/>
<path fill-rule="evenodd" clip-rule="evenodd" d="M6 10.5C4.89543 10.5 4 11.3954 4 12.5V26.5C4 27.6046 4.89543 28.5 6 28.5H20C21.1046 28.5 22 27.6046 22 26.5V12.5C22 11.3954 21.1046 10.5 20 10.5H6ZM6 26.5V12.5H20V26.5H6Z" fill="white"/>
<path d="M24 5.5C24 4.94772 24.4477 4.5 25 4.5H26C26.5304 4.5 27.0391 4.71071 27.4142 5.08579C27.7893 5.46086 28 5.96957 28 6.5V7.5C28 8.05228 27.5523 8.5 27 8.5C26.4477 8.5 26 8.05228 26 7.5V6.5L25 6.5C24.4477 6.5 24 6.05228 24 5.5Z" fill="white"/>
<path d="M28 12.5C28 11.9477 27.5523 11.5 27 11.5C26.4477 11.5 26 11.9477 26 12.5V14.5C26 15.0523 26.4477 15.5 27 15.5C27.5523 15.5 28 15.0523 28 14.5V12.5Z" fill="white"/>
<path d="M27 18.5C27.5523 18.5 28 18.9477 28 19.5V20.5C28 21.0304 27.7893 21.5391 27.4142 21.9142C27.0391 22.2893 26.5304 22.5 26 22.5H25C24.4477 22.5 24 22.0523 24 21.5C24 20.9477 24.4477 20.5 25 20.5H26V19.5C26 18.9477 26.4477 18.5 27 18.5Z" fill="white"/>
<path d="M12 4.5C11.4696 4.5 10.9609 4.71071 10.5858 5.08579C10.2107 5.46086 10 5.96957 10 6.5V7.5C10 8.05228 10.4477 8.5 11 8.5C11.5523 8.5 12 8.05228 12 7.5V6.5L13 6.5C13.5523 6.5 14 6.05228 14 5.5C14 4.94772 13.5523 4.5 13 4.5H12Z" fill="white"/>
<path fill-rule="evenodd" clip-rule="evenodd" d="M10.2322 4.73223C10.7011 4.26339 11.337 4 12 4H13C13.8284 4 14.5 4.67157 14.5 5.5C14.5 6.32843 13.8284 7 13 7H12.5V7.5C12.5 8.32843 11.8284 9 11 9C10.1716 9 9.5 8.32843 9.5 7.5V6.5C9.5 5.83696 9.76339 5.20107 10.2322 4.73223ZM12 5C11.6022 5 11.2206 5.15804 10.9393 5.43934C10.658 5.72064 10.5 6.10217 10.5 6.5V7.5C10.5 7.77614 10.7239 8 11 8C11.2761 8 11.5 7.77614 11.5 7.5V6.5C11.5 6.22386 11.7239 6 12 6L13 6C13.2761 6 13.5 5.77614 13.5 5.5C13.5 5.22386 13.2761 5 13 5H12ZM16.5 5.5C16.5 4.67157 17.1716 4 18 4H20C20.8284 4 21.5 4.67157 21.5 5.5C21.5 6.32843 20.8284 7 20 7H18C17.1716 7 16.5 6.32843 16.5 5.5ZM18 5C17.7239 5 17.5 5.22386 17.5 5.5C17.5 5.77614 17.7239 6 18 6H20C20.2761 6 20.5 5.77614 20.5 5.5C20.5 5.22386 20.2761 5 20 5H18ZM25 5C24.7239 5 24.5 5.22386 24.5 5.5C24.5 5.77614 24.7239 6 25 6L26 6C26.2761 6 26.5 6.22386 26.5 6.5V7.5C26.5 7.77614 26.7239 8 27 8C27.2761 8 27.5 7.77614 27.5 7.5V6.5C27.5 6.10218 27.342 5.72065 27.0607 5.43934C26.7794 5.15804 26.3978 5 26 5H25ZM23.5 5.5C23.5 4.67157 24.1716 4 25 4H26C26.663 4 27.2989 4.26339 27.7678 4.73223C28.2366 5.20107 28.5 5.83696 28.5 6.5V7.5C28.5 8.32843 27.8284 9 27 9C26.1716 9 25.5 8.32843 25.5 7.5V7H25C24.1716 7 23.5 6.32843 23.5 5.5ZM3.5 12.5C3.5 11.1193 4.61929 10 6 10H20C21.3807 10 22.5 11.1193 22.5 12.5V26.5C22.5 27.8807 21.3807 29 20 29H6C4.61929 29 3.5 27.8807 3.5 26.5V12.5ZM6 11C5.17157 11 4.5 11.6716 4.5 12.5V26.5C4.5 27.3284 5.17157 28 6 28H20C20.8284 28 21.5 27.3284 21.5 26.5V12.5C21.5 11.6716 20.8284 11 20 11H6ZM25.5 12.5C25.5 11.6716 26.1716 11 27 11C27.8284 11 28.5 11.6716 28.5 12.5V14.5C28.5 15.3284 27.8284 16 27 16C26.1716 16 25.5 15.3284 25.5 14.5V12.5ZM27 12C26.7239 12 26.5 12.2239 26.5 12.5V14.5C26.5 14.7761 26.7239 15 27 15C27.2761 15 27.5 14.7761 27.5 14.5V12.5C27.5 12.2239 27.2761 12 27 12ZM5.5 12.5C5.5 12.2239 5.72386 12 6 12H20C20.2761 12 20.5 12.2239 20.5 12.5V26.5C20.5 26.7761 20.2761 27 20 27H6C5.72386 27 5.5 26.7761 5.5 26.5V12.5ZM6.5 13V26H19.5V13H6.5ZM27 19C26.7239 19 26.5 19.2239 26.5 19.5V20.5C26.5 20.7761 26.2761 21 26 21H25C24.7239 21 24.5 21.2239 24.5 21.5C24.5 21.7761 24.7239 22 25 22H26C26.3978 22 26.7794 21.842 27.0607 21.5607C27.342 21.2794 27.5 20.8978 27.5 20.5V19.5C27.5 19.2239 27.2761 19 27 19ZM25.5 19.5C25.5 18.6716 26.1716 18 27 18C27.8284 18 28.5 18.6716 28.5 19.5V20.5C28.5 21.163 28.2366 21.7989 27.7678 22.2678C27.2989 22.7366 26.663 23 26 23H25C24.1716 23 23.5 22.3284 23.5 21.5C23.5 20.6716 24.1716 20 25 20H25.5V19.5Z" fill="white"/>
</svg>
