<svg width="32" height="33" viewBox="0 0 32 33" fill="none" xmlns="http://www.w3.org/2000/svg">
<path d="M6.73995 4.82734C6.36844 4.41868 5.73599 4.38856 5.32733 4.76007C4.91868 5.13158 4.88856 5.76403 5.26007 6.17268L25.2601 28.1727C25.6316 28.5813 26.264 28.6115 26.6727 28.24C27.0813 27.8684 27.1115 27.236 26.7399 26.8273L6.73995 4.82734Z" fill="white"/>
<path d="M13 5.5C13 4.94772 13.4477 4.5 14 4.5H18C18.5523 4.5 19 4.94772 19 5.5C19 6.05229 18.5523 6.5 18 6.5H14C13.4477 6.5 13 6.05229 13 5.5Z" fill="white"/>
<path d="M13 27.5C13 26.9477 13.4477 26.5 14 26.5H18C18.5523 26.5 19 26.9477 19 27.5C19 28.0523 18.5523 28.5 18 28.5H14C13.4477 28.5 13 28.0523 13 27.5Z" fill="white"/>
<path d="M23 4.5C22.4477 4.5 22 4.94772 22 5.5C22 6.05229 22.4477 6.5 23 6.5L26 6.5V9.5C26 10.0523 26.4477 10.5 27 10.5C27.5523 10.5 28 10.0523 28 9.5V6.5C28 5.96957 27.7893 5.46086 27.4142 5.08579C27.0391 4.71072 26.5304 4.5 26 4.5H23Z" fill="white"/>
<path d="M27 13.5C27.5523 13.5 28 13.9477 28 14.5V18.5C28 19.0523 27.5523 19.5 27 19.5C26.4477 19.5 26 19.0523 26 18.5V14.5C26 13.9477 26.4477 13.5 27 13.5Z" fill="white"/>
<path d="M6 14.5C6 13.9477 5.55228 13.5 5 13.5C4.44772 13.5 4 13.9477 4 14.5V18.5C4 19.0523 4.44772 19.5 5 19.5C5.55228 19.5 6 19.0523 6 18.5V14.5Z" fill="white"/>
<path d="M5 22.5C5.55228 22.5 6 22.9477 6 23.5V26.5H9C9.55228 26.5 10 26.9477 10 27.5C10 28.0523 9.55228 28.5 9 28.5H6C5.46957 28.5 4.96086 28.2893 4.58579 27.9142C4.21071 27.5391 4 27.0304 4 26.5V23.5C4 22.9477 4.44772 22.5 5 22.5Z" fill="white"/>
<path fill-rule="evenodd" clip-rule="evenodd" d="M4.991 4.3901C5.60398 3.83284 6.55266 3.87801 7.10992 4.491L27.1099 26.491C27.6672 27.104 27.622 28.0527 27.009 28.6099C26.396 29.1672 25.4474 29.122 24.8901 28.509L4.8901 6.50902C4.33284 5.89603 4.37801 4.94736 4.991 4.3901ZM6.36998 5.16367C6.18422 4.95935 5.868 4.94429 5.66367 5.13004C5.45934 5.31579 5.44428 5.63202 5.63004 5.83635L25.63 27.8363C25.8158 28.0407 26.132 28.0557 26.3363 27.87C26.5407 27.6842 26.5557 27.368 26.37 27.1637L6.36998 5.16367ZM14 5C13.7239 5 13.5 5.22386 13.5 5.5C13.5 5.77615 13.7239 6 14 6H18C18.2761 6 18.5 5.77615 18.5 5.5C18.5 5.22386 18.2761 5 18 5H14ZM12.5 5.5C12.5 4.67158 13.1716 4 14 4H18C18.8284 4 19.5 4.67158 19.5 5.5C19.5 6.32843 18.8284 7 18 7H14C13.1716 7 12.5 6.32843 12.5 5.5ZM21.5 5.5C21.5 4.67158 22.1716 4 23 4H26C26.663 4 27.2989 4.2634 27.7678 4.73224C28.2366 5.20108 28.5 5.83696 28.5 6.5V9.5C28.5 10.3284 27.8284 11 27 11C26.1716 11 25.5 10.3284 25.5 9.5V7L23 7C22.1716 7 21.5 6.32843 21.5 5.5ZM23 5C22.7239 5 22.5 5.22386 22.5 5.5C22.5 5.77615 22.7239 6 23 6L26 6C26.2761 6 26.5 6.22386 26.5 6.5V9.5C26.5 9.77615 26.7239 10 27 10C27.2761 10 27.5 9.77615 27.5 9.5V6.5C27.5 6.10218 27.342 5.72065 27.0607 5.43934C26.7794 5.15804 26.3978 5 26 5H23ZM3.5 14.5C3.5 13.6716 4.17157 13 5 13C5.82843 13 6.5 13.6716 6.5 14.5V18.5C6.5 19.3284 5.82843 20 5 20C4.17157 20 3.5 19.3284 3.5 18.5V14.5ZM5 14C4.72386 14 4.5 14.2239 4.5 14.5V18.5C4.5 18.7761 4.72386 19 5 19C5.27614 19 5.5 18.7761 5.5 18.5V14.5C5.5 14.2239 5.27614 14 5 14ZM27 14C26.7239 14 26.5 14.2239 26.5 14.5V18.5C26.5 18.7761 26.7239 19 27 19C27.2761 19 27.5 18.7761 27.5 18.5V14.5C27.5 14.2239 27.2761 14 27 14ZM25.5 14.5C25.5 13.6716 26.1716 13 27 13C27.8284 13 28.5 13.6716 28.5 14.5V18.5C28.5 19.3284 27.8284 20 27 20C26.1716 20 25.5 19.3284 25.5 18.5V14.5ZM5 23C4.72386 23 4.5 23.2239 4.5 23.5V26.5C4.5 26.8978 4.65804 27.2794 4.93934 27.5607C5.22065 27.842 5.60218 28 6 28H9C9.27614 28 9.5 27.7761 9.5 27.5C9.5 27.2239 9.27614 27 9 27H6C5.72386 27 5.5 26.7761 5.5 26.5V23.5C5.5 23.2239 5.27614 23 5 23ZM3.5 23.5C3.5 22.6716 4.17157 22 5 22C5.82843 22 6.5 22.6716 6.5 23.5V26H9C9.82843 26 10.5 26.6716 10.5 27.5C10.5 28.3284 9.82843 29 9 29H6C5.33696 29 4.70108 28.7366 4.23223 28.2678C3.76339 27.7989 3.5 27.163 3.5 26.5V23.5ZM14 27C13.7239 27 13.5 27.2239 13.5 27.5C13.5 27.7761 13.7239 28 14 28H18C18.2761 28 18.5 27.7761 18.5 27.5C18.5 27.2239 18.2761 27 18 27H14ZM12.5 27.5C12.5 26.6716 13.1716 26 14 26H18C18.8284 26 19.5 26.6716 19.5 27.5C19.5 28.3284 18.8284 29 18 29H14C13.1716 29 12.5 28.3284 12.5 27.5Z" fill="white"/>
</svg>
