<svg width="32" height="33" viewBox="0 0 32 33" fill="none" xmlns="http://www.w3.org/2000/svg">
<path d="M12 4.5C11.4696 4.5 10.9609 4.71071 10.5858 5.08579C10.2107 5.46086 10 5.96957 10 6.5V11.5C10 12.0523 10.4477 12.5 11 12.5H14C14.5523 12.5 15 12.0523 15 11.5C15 10.9477 14.5523 10.5 14 10.5H12V6.5H26V20.5H22V18.5C22 17.9477 21.5523 17.5 21 17.5C20.4477 17.5 20 17.9477 20 18.5V21.5C20 22.0523 20.4477 22.5 21 22.5H26C26.5304 22.5 27.0391 22.2893 27.4142 21.9142C27.7893 21.5391 28 21.0304 28 20.5V6.5C28 5.96957 27.7893 5.46086 27.4142 5.08579C27.0391 4.71071 26.5304 4.5 26 4.5H12Z" fill="white"/>
<path d="M5 24.5C5.55228 24.5 6 24.9477 6 25.5V26.5H7C7.55228 26.5 8 26.9477 8 27.5C8 28.0523 7.55228 28.5 7 28.5H6C5.46957 28.5 4.96086 28.2893 4.58579 27.9142C4.21071 27.5391 4 27.0304 4 26.5V25.5C4 24.9477 4.44772 24.5 5 24.5Z" fill="white"/>
<path d="M12 26.5C11.4477 26.5 11 26.9477 11 27.5C11 28.0523 11.4477 28.5 12 28.5H14C14.5523 28.5 15 28.0523 15 27.5C15 26.9477 14.5523 26.5 14 26.5H12Z" fill="white"/>
<path d="M6 18.5C6 17.9477 5.55228 17.5 5 17.5C4.44772 17.5 4 17.9477 4 18.5V20.5C4 21.0523 4.44772 21.5 5 21.5C5.55228 21.5 6 21.0523 6 20.5V18.5Z" fill="white"/>
<path d="M21 24.5C21.5523 24.5 22 24.9477 22 25.5V26.5C22 27.0304 21.7893 27.5391 21.4142 27.9142C21.0391 28.2893 20.5304 28.5 20 28.5H19C18.4477 28.5 18 28.0523 18 27.5C18 26.9477 18.4477 26.5 19 26.5H20V25.5C20 24.9477 20.4477 24.5 21 24.5Z" fill="white"/>
<path d="M19 10.5C18.4477 10.5 18 10.9477 18 11.5C18 12.0523 18.4477 12.5 19 12.5H20V13.5C20 14.0523 20.4477 14.5 21 14.5C21.5523 14.5 22 14.0523 22 13.5V12.5C22 11.9696 21.7893 11.4609 21.4142 11.0858C21.0391 10.7107 20.5304 10.5 20 10.5H19Z" fill="white"/>
<path d="M4.58579 11.0858C4.96086 10.7107 5.46957 10.5 6 10.5H7C7.55228 10.5 8 10.9477 8 11.5C8 12.0523 7.55228 12.5 7 12.5H6L6 13.5C6 14.0523 5.55228 14.5 5 14.5C4.44772 14.5 4 14.0523 4 13.5V12.5C4 11.9696 4.21071 11.4609 4.58579 11.0858Z" fill="white"/>
<path fill-rule="evenodd" clip-rule="evenodd" d="M10.2322 4.73223C10.7011 4.26339 11.337 4 12 4H26C26.663 4 27.2989 4.26339 27.7678 4.73223C28.2366 5.20107 28.5 5.83696 28.5 6.5V20.5C28.5 21.163 28.2366 21.7989 27.7678 22.2678C27.2989 22.7366 26.663 23 26 23H21C20.1716 23 19.5 22.3284 19.5 21.5V18.5C19.5 17.6716 20.1716 17 21 17C21.8284 17 22.5 17.6716 22.5 18.5V20H25.5V7H12.5V10H14C14.8284 10 15.5 10.6716 15.5 11.5C15.5 12.3284 14.8284 13 14 13H11C10.1716 13 9.5 12.3284 9.5 11.5V6.5C9.5 5.83696 9.76339 5.20107 10.2322 4.73223ZM12 5C11.6022 5 11.2206 5.15804 10.9393 5.43934C10.658 5.72064 10.5 6.10217 10.5 6.5V11.5C10.5 11.7761 10.7239 12 11 12H14C14.2761 12 14.5 11.7761 14.5 11.5C14.5 11.2239 14.2761 11 14 11H12C11.7239 11 11.5 10.7761 11.5 10.5V6.5C11.5 6.22386 11.7239 6 12 6H26C26.2761 6 26.5 6.22386 26.5 6.5V20.5C26.5 20.7761 26.2761 21 26 21H22C21.7239 21 21.5 20.7761 21.5 20.5V18.5C21.5 18.2239 21.2761 18 21 18C20.7239 18 20.5 18.2239 20.5 18.5V21.5C20.5 21.7761 20.7239 22 21 22H26C26.3978 22 26.7794 21.842 27.0607 21.5607C27.342 21.2794 27.5 20.8978 27.5 20.5V6.5C27.5 6.10218 27.342 5.72065 27.0607 5.43934C26.7794 5.15804 26.3978 5 26 5H12ZM6 11C5.60217 11 5.22064 11.158 4.93934 11.4393C4.65804 11.7206 4.5 12.1022 4.5 12.5V13.5C4.5 13.7761 4.72386 14 5 14C5.27614 14 5.5 13.7761 5.5 13.5L5.5 12.5C5.5 12.2239 5.72386 12 6 12H7C7.27614 12 7.5 11.7761 7.5 11.5C7.5 11.2239 7.27614 11 7 11H6ZM4.23223 10.7322C4.70107 10.2634 5.33696 10 6 10H7C7.82843 10 8.5 10.6716 8.5 11.5C8.5 12.3284 7.82843 13 7 13H6.5V13.5C6.5 14.3284 5.82843 15 5 15C4.17157 15 3.5 14.3284 3.5 13.5V12.5C3.5 11.837 3.76339 11.2011 4.23223 10.7322ZM17.5 11.5C17.5 10.6716 18.1716 10 19 10H20C20.663 10 21.2989 10.2634 21.7678 10.7322C22.2366 11.2011 22.5 11.837 22.5 12.5V13.5C22.5 14.3284 21.8284 15 21 15C20.1716 15 19.5 14.3284 19.5 13.5V13H19C18.1716 13 17.5 12.3284 17.5 11.5ZM19 11C18.7239 11 18.5 11.2239 18.5 11.5C18.5 11.7761 18.7239 12 19 12H20C20.2761 12 20.5 12.2239 20.5 12.5V13.5C20.5 13.7761 20.7239 14 21 14C21.2761 14 21.5 13.7761 21.5 13.5V12.5C21.5 12.1022 21.342 11.7206 21.0607 11.4393C20.7794 11.158 20.3978 11 20 11H19ZM3.5 18.5C3.5 17.6716 4.17157 17 5 17C5.82843 17 6.5 17.6716 6.5 18.5V20.5C6.5 21.3284 5.82843 22 5 22C4.17157 22 3.5 21.3284 3.5 20.5V18.5ZM5 18C4.72386 18 4.5 18.2239 4.5 18.5V20.5C4.5 20.7761 4.72386 21 5 21C5.27614 21 5.5 20.7761 5.5 20.5V18.5C5.5 18.2239 5.27614 18 5 18ZM5 25C4.72386 25 4.5 25.2239 4.5 25.5V26.5C4.5 26.8978 4.65804 27.2794 4.93934 27.5607C5.22065 27.842 5.60218 28 6 28H7C7.27614 28 7.5 27.7761 7.5 27.5C7.5 27.2239 7.27614 27 7 27H6C5.72386 27 5.5 26.7761 5.5 26.5V25.5C5.5 25.2239 5.27614 25 5 25ZM3.5 25.5C3.5 24.6716 4.17157 24 5 24C5.82843 24 6.5 24.6716 6.5 25.5V26H7C7.82843 26 8.5 26.6716 8.5 27.5C8.5 28.3284 7.82843 29 7 29H6C5.33696 29 4.70108 28.7366 4.23223 28.2678C3.76339 27.7989 3.5 27.163 3.5 26.5V25.5ZM21 25C20.7239 25 20.5 25.2239 20.5 25.5V26.5C20.5 26.7761 20.2761 27 20 27H19C18.7239 27 18.5 27.2239 18.5 27.5C18.5 27.7761 18.7239 28 19 28H20C20.3978 28 20.7794 27.842 21.0607 27.5607C21.342 27.2794 21.5 26.8978 21.5 26.5V25.5C21.5 25.2239 21.2761 25 21 25ZM19.5 25.5C19.5 24.6716 20.1716 24 21 24C21.8284 24 22.5 24.6716 22.5 25.5V26.5C22.5 27.163 22.2366 27.7989 21.7678 28.2678C21.2989 28.7366 20.663 29 20 29H19C18.1716 29 17.5 28.3284 17.5 27.5C17.5 26.6716 18.1716 26 19 26H19.5V25.5ZM10.5 27.5C10.5 26.6716 11.1716 26 12 26H14C14.8284 26 15.5 26.6716 15.5 27.5C15.5 28.3284 14.8284 29 14 29H12C11.1716 29 10.5 28.3284 10.5 27.5ZM12 27C11.7239 27 11.5 27.2239 11.5 27.5C11.5 27.7761 11.7239 28 12 28H14C14.2761 28 14.5 27.7761 14.5 27.5C14.5 27.2239 14.2761 27 14 27H12Z" fill="white"/>
</svg>
