<svg width="32" height="33" viewBox="0 0 32 33" fill="none" xmlns="http://www.w3.org/2000/svg">
<path d="M4 10.4999C4.55228 10.4999 5 10.9477 5 11.4999V26.4999H24C24.5523 26.4999 25 26.9477 25 27.4999C25 28.0522 24.5523 28.4999 24 28.4999H5C4.46957 28.4999 3.96086 28.2892 3.58579 27.9142C3.21071 27.5391 3 27.0304 3 26.4999V11.4999C3 10.9477 3.44772 10.4999 4 10.4999Z" fill="white"/>
<path fill-rule="evenodd" clip-rule="evenodd" d="M4 10.9999C3.72386 10.9999 3.5 11.2238 3.5 11.4999V26.4999C3.5 26.8978 3.65804 27.2793 3.93934 27.5606C4.22065 27.8419 4.60218 27.9999 5 27.9999H24C24.2761 27.9999 24.5 27.7761 24.5 27.4999C24.5 27.2238 24.2761 26.9999 24 26.9999H5C4.72386 26.9999 4.5 26.7761 4.5 26.4999V11.4999C4.5 11.2238 4.27614 10.9999 4 10.9999ZM2.5 11.4999C2.5 10.6715 3.17157 9.99994 4 9.99994C4.82843 9.99994 5.5 10.6715 5.5 11.4999V25.9999H24C24.8284 25.9999 25.5 26.6715 25.5 27.4999C25.5 28.3284 24.8284 28.9999 24 28.9999H5C4.33696 28.9999 3.70108 28.7366 3.23223 28.2677C2.76339 27.7989 2.5 27.163 2.5 26.4999V11.4999Z" fill="white"/>
<path fill-rule="evenodd" clip-rule="evenodd" d="M20.792 6.57414C21.1825 6.18362 21.8157 6.18362 22.2062 6.57414L28.2062 12.5741C28.5967 12.9647 28.5967 13.5978 28.2062 13.9884L22.2062 19.9884C21.8157 20.3789 21.1825 20.3789 20.792 19.9884C20.4015 19.5978 20.4015 18.9647 20.792 18.5741L26.0849 13.2812L20.792 7.98836C20.4015 7.59783 20.4015 6.96467 20.792 6.57414Z" fill="white"/>
<path fill-rule="evenodd" clip-rule="evenodd" d="M20.4991 14.2812C17.5817 14.2812 14.7838 15.4402 12.7209 17.5031C10.658 19.566 10.4991 21.3639 10.4991 22.2812C10.4991 22.8335 10.0514 23.2812 9.4991 23.2812C8.94682 23.2812 8.4991 22.8335 8.4991 22.2812C8.4991 20.8334 8.86874 18.5268 11.3067 16.0889C13.7447 13.6509 17.0513 12.2812 20.4991 12.2812H27.4991C28.0514 12.2812 28.4991 12.729 28.4991 13.2812C28.4991 13.8335 28.0514 14.2812 27.4991 14.2812H20.4991Z" fill="white"/>
<path fill-rule="evenodd" clip-rule="evenodd" d="M20.4384 6.22059C21.0242 5.6348 21.974 5.6348 22.5598 6.22059L28.5598 12.2206C28.704 12.3648 28.8127 12.5312 28.8859 12.7087C28.9572 12.8811 28.9972 13.0697 28.999 13.2674C28.9991 13.272 28.9991 13.2766 28.9991 13.2812C28.9991 13.2859 28.9991 13.2905 28.999 13.2951C28.9972 13.4928 28.9572 13.6814 28.8859 13.8538C28.8127 14.0313 28.704 14.1977 28.5598 14.3419L22.5598 20.3419C21.974 20.9277 21.0242 20.9277 20.4384 20.3419C19.8527 19.7561 19.8527 18.8064 20.4384 18.2206L23.8778 14.7812H20.4991C17.7143 14.7812 15.0436 15.8875 13.0745 17.8566C11.1053 19.8258 10.9991 21.4965 10.9991 22.2812C10.9991 23.1097 10.3275 23.7812 9.4991 23.7812C8.67067 23.7812 7.9991 23.1097 7.9991 22.2812C7.9991 20.7008 8.42142 18.267 10.9532 15.7353C13.4849 13.2036 16.9187 11.7812 20.4991 11.7812H23.8778L20.4384 8.34191C19.8527 7.75612 19.8527 6.80638 20.4384 6.22059ZM24.8778 12.7812H20.4991C17.1839 12.7812 14.0045 14.0982 11.6603 16.4424C9.31606 18.7866 8.9991 20.966 8.9991 22.2812C8.9991 22.5574 9.22296 22.7812 9.4991 22.7812C9.77524 22.7812 9.9991 22.5574 9.9991 22.2812C9.9991 21.2313 10.2107 19.3062 12.3674 17.1495C14.524 14.9929 17.4491 13.7812 20.4991 13.7812H24.8778L25.3778 13.2812L24.8778 12.7812ZM26.292 13.7812L26.4384 13.6348C26.5322 13.541 26.5849 13.4139 26.5849 13.2812C26.5849 13.1486 26.5322 13.0215 26.4384 12.9277L26.292 12.7812H27.4991C27.6372 12.7812 27.7622 12.8372 27.8527 12.9277C27.9411 13.0162 27.9966 13.1376 27.999 13.272C27.9991 13.2751 27.9991 13.2782 27.9991 13.2812C27.9991 13.2892 27.9989 13.2972 27.9985 13.3052C27.9958 13.3623 27.9833 13.419 27.9612 13.4726C27.9368 13.5316 27.9006 13.5869 27.8527 13.6348C27.7622 13.7253 27.6372 13.7812 27.4991 13.7812H26.292ZM25.292 14.7812L21.1455 18.9277C20.9503 19.123 20.9503 19.4395 21.1455 19.6348C21.3408 19.8301 21.6574 19.8301 21.8527 19.6348L26.7062 14.7812H25.292ZM26.7062 11.7812H25.292L21.1455 7.6348C20.9503 7.43954 20.9503 7.12296 21.1455 6.9277C21.3408 6.73243 21.6574 6.73243 21.8527 6.9277L26.7062 11.7812Z" fill="white"/>
</svg>
