<svg width="32" height="33" viewBox="0 0 32 33" fill="none" xmlns="http://www.w3.org/2000/svg">
<path fill-rule="evenodd" clip-rule="evenodd" d="M22 12.5C20.5967 12.5 19.3285 11.9219 18.4204 10.9909L12.6627 14.6909C12.8805 15.2519 13 15.862 13 16.5C13 17.1381 12.8805 17.7484 12.6625 18.3095L18.4201 22.0094C19.3282 21.0782 20.5966 20.5 22 20.5C24.7614 20.5 27 22.7386 27 25.5C27 28.2614 24.7614 30.5 22 30.5C19.2386 30.5 17 28.2614 17 25.5C17 24.862 17.1195 24.2519 17.3373 23.6909L11.5796 19.9909C10.6715 20.9219 9.40327 21.5 8 21.5C5.23858 21.5 3 19.2614 3 16.5C3 13.7386 5.23858 11.5 8 11.5C9.4034 11.5 10.6718 12.0782 11.5799 13.0094L17.3375 9.30946C17.1195 8.74834 17 8.13813 17 7.5C17 4.73858 19.2386 2.5 22 2.5C24.7614 2.5 27 4.73858 27 7.5C27 10.2614 24.7614 12.5 22 12.5ZM19 7.5C19 5.84315 20.3431 4.5 22 4.5C23.6569 4.5 25 5.84315 25 7.5C25 9.15685 23.6569 10.5 22 10.5C20.9625 10.5 20.0479 9.9733 19.5092 9.17268C19.4996 9.15564 19.4895 9.13877 19.4788 9.12211C19.4676 9.10479 19.4561 9.08794 19.4441 9.07154C19.1625 8.61451 19 8.07623 19 7.5ZM10.5561 18.0713C10.544 18.0878 10.5324 18.1047 10.5212 18.1221C10.5105 18.1388 10.5003 18.1558 10.4906 18.1729C9.9519 18.9734 9.03745 19.5 8 19.5C6.34315 19.5 5 18.1569 5 16.5C5 14.8431 6.34315 13.5 8 13.5C9.03649 13.5 9.9502 14.0256 10.4891 14.8249C10.4992 14.8429 10.5099 14.8607 10.5212 14.8783C10.5329 14.8965 10.5451 14.9142 10.5577 14.9314C10.8382 15.3878 11 15.925 11 16.5C11 17.0761 10.8376 17.6143 10.5561 18.0713ZM19.4424 23.9312C19.1618 24.3876 19 24.9249 19 25.5C19 27.1569 20.3431 28.5 22 28.5C23.6569 28.5 25 27.1569 25 25.5C25 23.8431 23.6569 22.5 22 22.5C20.9634 22.5 20.0496 23.0257 19.5107 23.8251C19.5007 23.843 19.49 23.8608 19.4788 23.8783C19.4671 23.8965 19.455 23.9141 19.4424 23.9312Z" fill="white"/>
<path fill-rule="evenodd" clip-rule="evenodd" d="M22 3C19.5147 3 17.5 5.01472 17.5 7.5C17.5 8.07523 17.6077 8.62413 17.8035 9.12845C17.8896 9.35004 17.8077 9.60158 17.6078 9.73009L11.8502 13.43C11.6503 13.5584 11.3877 13.5285 11.2219 13.3584C10.404 12.5198 9.26316 12 8 12C5.51472 12 3.5 14.0147 3.5 16.5C3.5 18.9853 5.51472 21 8 21C9.26304 21 10.4038 20.4803 11.2217 19.6418C11.3875 19.4718 11.6501 19.4419 11.8499 19.5703L17.6076 23.2703C17.8076 23.3988 17.8895 23.6503 17.8034 23.8719C17.6076 24.3761 17.5 24.9249 17.5 25.5C17.5 27.9853 19.5147 30 22 30C24.4853 30 26.5 27.9853 26.5 25.5C26.5 23.0147 24.4853 21 22 21C20.7368 21 19.596 21.5198 18.7781 22.3585C18.6122 22.5285 18.3497 22.5584 18.1498 22.43L12.3922 18.7301C12.1923 18.6016 12.1104 18.3501 12.1965 18.1285C12.3923 17.6241 12.5 17.0752 12.5 16.5C12.5 15.9249 12.3924 15.3761 12.1966 14.8719C12.1105 14.6503 12.1924 14.3987 12.3924 14.2702L18.1501 10.5703C18.3499 10.4419 18.6125 10.4718 18.7783 10.6418C19.5962 11.4803 20.737 12 22 12C24.4853 12 26.5 9.98528 26.5 7.5C26.5 5.01472 24.4853 3 22 3ZM16.5 7.5C16.5 4.46243 18.9624 2 22 2C25.0376 2 27.5 4.46243 27.5 7.5C27.5 10.5376 25.0376 13 22 13C20.6046 13 19.3299 12.4798 18.3605 11.6237L13.2633 14.8993C13.4173 15.4062 13.5 15.9438 13.5 16.5C13.5 17.0563 13.4173 17.594 13.2632 18.1011L18.3603 21.3766C19.3297 20.5203 20.6044 20 22 20C25.0376 20 27.5 22.4624 27.5 25.5C27.5 28.5376 25.0376 31 22 31C18.9624 31 16.5 28.5376 16.5 25.5C16.5 24.9438 16.5827 24.4063 16.7367 23.8993L11.6394 20.6237C10.6701 21.4798 9.39541 22 8 22C4.96243 22 2.5 19.5376 2.5 16.5C2.5 13.4624 4.96243 11 8 11C9.39555 11 10.6703 11.5203 11.6397 12.3765L16.7368 9.1011C16.5827 8.59401 16.5 8.05629 16.5 7.5ZM22 5C20.6193 5 19.5 6.11929 19.5 7.5C19.5 7.97489 19.6319 8.41748 19.8609 8.79479C19.8741 8.81344 19.887 8.83244 19.8994 8.85179C19.9112 8.87023 19.9226 8.88883 19.9336 8.90759C20.3845 9.56811 21.1419 10 22 10C23.3807 10 24.5 8.88071 24.5 7.5C24.5 6.11929 23.3807 5 22 5ZM18.5 7.5C18.5 5.567 20.067 4 22 4C23.933 4 25.5 5.567 25.5 7.5C25.5 9.433 23.933 11 22 11C20.7891 11 19.722 10.3846 19.0944 9.45181C19.087 9.44085 19.0801 9.4296 19.0736 9.41809C19.0687 9.40944 19.0636 9.40088 19.0581 9.39243C19.0524 9.38356 19.0466 9.375 19.0405 9.36674C19.0327 9.35607 19.0253 9.34509 19.0184 9.33384C18.6896 8.80021 18.5 8.17148 18.5 7.5ZM8 14C6.61929 14 5.5 15.1193 5.5 16.5C5.5 17.8807 6.61929 19 8 19C8.85798 19 9.61528 18.5682 10.0663 17.9078C10.0772 17.889 10.0887 17.8703 10.1006 17.8518C10.1131 17.8324 10.126 17.8133 10.1393 17.7945C10.3681 17.4173 10.5 16.9748 10.5 16.5C10.5 16.0265 10.3688 15.5851 10.1411 15.2085C10.1272 15.1889 10.1137 15.169 10.1006 15.1486C10.0881 15.1292 10.0761 15.1095 10.0645 15.0897C9.61336 14.4307 8.85689 14 8 14ZM4.5 16.5C4.5 14.567 6.067 13 8 13C9.2097 13 10.2758 13.6141 10.9037 14.5453C10.9115 14.5569 10.9188 14.5687 10.9256 14.5809C10.9307 14.59 10.9361 14.599 10.9418 14.608C10.9478 14.6173 10.954 14.6263 10.9604 14.635C10.9686 14.6462 10.9764 14.6577 10.9837 14.6696C11.3112 15.2025 11.5 15.83 11.5 16.5C11.5 17.1714 11.3105 17.8 10.9818 18.3336C10.9748 18.3449 10.9674 18.3559 10.9595 18.3666C10.9535 18.3749 10.9476 18.3835 10.9419 18.3924C10.9364 18.4009 10.9312 18.4095 10.9263 18.4182C10.9198 18.4298 10.9128 18.4411 10.9054 18.4521C10.2778 19.3847 9.21082 20 8 20C6.067 20 4.5 18.433 4.5 16.5ZM19.0961 23.5456C19.724 22.6143 20.7902 22 22 22C23.933 22 25.5 23.567 25.5 25.5C25.5 27.433 23.933 29 22 29C20.067 29 18.5 27.433 18.5 25.5C18.5 24.8299 18.6888 24.2023 19.0164 23.6693C19.0237 23.6575 19.0315 23.646 19.0397 23.6348C19.046 23.6262 19.0522 23.6173 19.0581 23.608C19.0639 23.5991 19.0693 23.5901 19.0744 23.581C19.0811 23.5689 19.0884 23.5571 19.0961 23.5456ZM19.9353 24.0899C19.9238 24.1097 19.9119 24.1292 19.8994 24.1486C19.8864 24.1689 19.8729 24.1888 19.859 24.2083C19.6312 24.585 19.5 25.0264 19.5 25.5C19.5 26.8807 20.6193 28 22 28C23.3807 28 24.5 26.8807 24.5 25.5C24.5 24.1193 23.3807 23 22 23C21.143 23 20.3865 23.4308 19.9353 24.0899Z" fill="white"/>
</svg>
