<svg width="32" height="32" viewBox="0 0 32 32" fill="none" xmlns="http://www.w3.org/2000/svg">
<path d="M12 11C12 10.4477 11.5523 10 11 10C10.4477 10 10 10.4477 10 11C10 12.5913 10.6321 14.1174 11.7574 15.2426C12.8826 16.3679 14.4087 17 16 17C17.5913 17 19.1174 16.3679 20.2426 15.2426C21.3679 14.1174 22 12.5913 22 11C22 10.4477 21.5523 10 21 10C20.4477 10 20 10.4477 20 11C20 12.0609 19.5786 13.0783 18.8284 13.8284C18.0783 14.5786 17.0609 15 16 15C14.9391 15 13.9217 14.5786 13.1716 13.8284C12.4214 13.0783 12 12.0609 12 11Z" fill="white"/>
<path fill-rule="evenodd" clip-rule="evenodd" d="M5 5C3.89543 5 3 5.89543 3 7V25C3 26.1046 3.89543 27 5 27H27C28.1046 27 29 26.1046 29 25V7C29 5.89543 28.1046 5 27 5H5ZM5 7H27V25H5V7Z" fill="white"/>
<path fill-rule="evenodd" clip-rule="evenodd" d="M2.5 7C2.5 5.61929 3.61929 4.5 5 4.5H27C28.3807 4.5 29.5 5.61929 29.5 7V25C29.5 26.3807 28.3807 27.5 27 27.5H5C3.61929 27.5 2.5 26.3807 2.5 25V7ZM5 5.5C4.17157 5.5 3.5 6.17157 3.5 7V25C3.5 25.8284 4.17157 26.5 5 26.5H27C27.8284 26.5 28.5 25.8284 28.5 25V7C28.5 6.17157 27.8284 5.5 27 5.5H5ZM4.5 7C4.5 6.72386 4.72386 6.5 5 6.5H27C27.2761 6.5 27.5 6.72386 27.5 7V25C27.5 25.2761 27.2761 25.5 27 25.5H5C4.72386 25.5 4.5 25.2761 4.5 25V7ZM5.5 7.5V24.5H26.5V7.5H5.5ZM9.5 11C9.5 10.1716 10.1716 9.5 11 9.5C11.8284 9.5 12.5 10.1716 12.5 11C12.5 11.9283 12.8687 12.8185 13.5251 13.4749C14.1815 14.1313 15.0717 14.5 16 14.5C16.9283 14.5 17.8185 14.1313 18.4749 13.4749C19.1313 12.8185 19.5 11.9283 19.5 11C19.5 10.1716 20.1716 9.5 21 9.5C21.8284 9.5 22.5 10.1716 22.5 11C22.5 12.7239 21.8152 14.3772 20.5962 15.5962C19.3772 16.8152 17.7239 17.5 16 17.5C14.2761 17.5 12.6228 16.8152 11.4038 15.5962C10.1848 14.3772 9.5 12.7239 9.5 11ZM11 10.5C10.7239 10.5 10.5 10.7239 10.5 11C10.5 12.4587 11.0795 13.8576 12.1109 14.8891C13.1424 15.9205 14.5413 16.5 16 16.5C17.4587 16.5 18.8576 15.9205 19.8891 14.8891C20.9205 13.8576 21.5 12.4587 21.5 11C21.5 10.7239 21.2761 10.5 21 10.5C20.7239 10.5 20.5 10.7239 20.5 11C20.5 12.1935 20.0259 13.3381 19.182 14.182C18.3381 15.0259 17.1935 15.5 16 15.5C14.8065 15.5 13.6619 15.0259 12.818 14.182C11.9741 13.3381 11.5 12.1935 11.5 11C11.5 10.7239 11.2761 10.5 11 10.5Z" fill="white"/>
</svg>
