<svg width="32" height="33" viewBox="0 0 32 33" fill="none" xmlns="http://www.w3.org/2000/svg">
<path d="M6 4.07812C5.33696 4.07812 4.70107 4.34152 4.23223 4.81036C3.76339 5.2792 3.5 5.91508 3.5 6.57812V26.5781C3.5 27.2412 3.76339 27.8771 4.23223 28.3459C4.70107 28.8147 5.33696 29.0781 6 29.0781H13C13.8284 29.0781 14.5 28.4066 14.5 27.5781C14.5 26.7497 13.8284 26.0781 13 26.0781H6.5L6.5 7.07813L13 7.07812C13.8284 7.07812 14.5 6.40655 14.5 5.57812C14.5 4.7497 13.8284 4.07812 13 4.07812H6Z" fill="white"/>
<path d="M28.5 16.5781L28.5 16.5713L28.4999 16.5643C28.4965 16.1858 28.3499 15.8067 28.0607 15.5175L22.8107 10.2675C22.2249 9.68168 21.2751 9.68168 20.6893 10.2675C20.1036 10.8533 20.1036 11.803 20.6893 12.3888L23.3787 15.0781H13C12.1716 15.0781 11.5 15.7497 11.5 16.5781C11.5 17.4066 12.1716 18.0781 13 18.0781H23.3787L20.6893 20.7675C20.1036 21.3533 20.1036 22.303 20.6893 22.8888C21.2751 23.4746 22.2249 23.4746 22.8107 22.8888L28.0607 17.6388C28.335 17.3644 28.4811 17.009 28.4983 16.6499C28.4994 16.626 28.5 16.6021 28.5 16.5781Z" fill="white"/>
</svg>
