<svg width="32" height="33" viewBox="0 0 32 33" fill="none" xmlns="http://www.w3.org/2000/svg">
<path d="M18.5 16.5781L18.5 16.5713L18.4999 16.5643C18.4965 16.1858 18.3499 15.8067 18.0607 15.5175L12.8107 10.2675C12.2249 9.68168 11.2751 9.68168 10.6893 10.2675C10.1036 10.8533 10.1036 11.803 10.6893 12.3888L13.3787 15.0781H3C2.17157 15.0781 1.5 15.7497 1.5 16.5781C1.5 17.4066 2.17157 18.0781 3 18.0781H13.3787L10.6893 20.7675C10.1036 21.3533 10.1036 22.303 10.6893 22.8888C11.2751 23.4746 12.2249 23.4746 12.8107 22.8888L18.0607 17.6388C18.335 17.3644 18.4811 17.009 18.4983 16.6499C18.4994 16.626 18.5 16.6021 18.5 16.5781Z" fill="white"/>
<path d="M24 4.07812C24.663 4.07812 25.2989 4.34152 25.7678 4.81036C26.2366 5.2792 26.5 5.91508 26.5 6.57812V26.5781C26.5 27.2412 26.2366 27.8771 25.7678 28.3459C25.2989 28.8147 24.663 29.0781 24 29.0781H17C16.1716 29.0781 15.5 28.4066 15.5 27.5781C15.5 26.7497 16.1716 26.0781 17 26.0781H23.5V7.07813L17 7.07812C16.1716 7.07812 15.5 6.40655 15.5 5.57812C15.5 4.7497 16.1716 4.07812 17 4.07812H24Z" fill="white"/>
</svg>
