<svg width="32" height="33" viewBox="0 0 32 33" fill="none" xmlns="http://www.w3.org/2000/svg">
<path fill-rule="evenodd" clip-rule="evenodd" d="M7 3.57812C6.46957 3.57812 5.96086 3.78884 5.58579 4.16391C5.21071 4.53898 5 5.04769 5 5.57812V27.5781C5 28.1086 5.21071 28.6173 5.58579 28.9923C5.96086 29.3674 6.46957 29.5781 7 29.5781H25C25.5304 29.5781 26.0391 29.3674 26.4142 28.9923C26.7893 28.6173 27 28.1086 27 27.5781V11.5781C27 11.3129 26.8946 11.0586 26.7071 10.871L19.7071 3.87102C19.5196 3.68348 19.2652 3.57812 19 3.57812H7ZM7 5.57813L18.5858 5.57812L25 11.9923V27.5781H7L7 5.57813ZM10 14.5781C9.44772 14.5781 9 15.0258 9 15.5781V24.5781C9 25.1304 9.44772 25.5781 10 25.5781H22C22.5523 25.5781 23 25.1304 23 24.5781V15.5781C23 15.0258 22.5523 14.5781 22 14.5781H10ZM19 23.5781V19.5781C19 19.0258 18.5523 18.5781 18 18.5781C17.4477 18.5781 17 19.0258 17 19.5781V23.5781H15V19.5781C15 19.0258 14.5523 18.5781 14 18.5781C13.4477 18.5781 13 19.0258 13 19.5781V23.5781H11V16.5781H21V23.5781H19Z" fill="white"/>
<path fill-rule="evenodd" clip-rule="evenodd" d="M7 4.07812C6.60217 4.07812 6.22064 4.23616 5.93934 4.51747C5.65804 4.79877 5.5 5.1803 5.5 5.57812V27.5781C5.5 27.9759 5.65804 28.3575 5.93934 28.6388C6.22065 28.9201 6.60218 29.0781 7 29.0781H25C25.3978 29.0781 25.7794 28.9201 26.0607 28.6388C26.342 28.3575 26.5 27.9759 26.5 27.5781V11.5781C26.5 11.4455 26.4473 11.3183 26.3536 11.2246L19.3536 4.22457C19.2598 4.1308 19.1326 4.07812 19 4.07812H7ZM5.23223 3.81036C5.70107 3.34152 6.33696 3.07812 7 3.07812H19C19.3978 3.07812 19.7794 3.23616 20.0607 3.51746L27.0607 10.5175C27.342 10.7988 27.5 11.1803 27.5 11.5781V27.5781C27.5 28.2412 27.2366 28.877 26.7678 29.3459C26.2989 29.8147 25.663 30.0781 25 30.0781H7C6.33696 30.0781 5.70108 29.8147 5.23223 29.3459C4.76339 28.8771 4.5 28.2412 4.5 27.5781V5.57812C4.5 4.91508 4.76339 4.2792 5.23223 3.81036ZM7 5.07813L18.5858 5.07812C18.7184 5.07812 18.8456 5.1308 18.9393 5.22457L25.3536 11.6388C25.4473 11.7326 25.5 11.8597 25.5 11.9923V27.5781C25.5 27.8543 25.2761 28.0781 25 28.0781H7C6.86739 28.0781 6.74021 28.0254 6.64645 27.9317C6.55268 27.8379 6.5 27.7107 6.5 27.5781L6.5 5.57813C6.5 5.30198 6.72386 5.07813 7 5.07813ZM7.5 6.07813L7.5 27.0781H24.5V12.1994L18.3787 6.07812L7.5 6.07813ZM10 15.0781C9.72386 15.0781 9.5 15.302 9.5 15.5781V24.5781C9.5 24.8543 9.72386 25.0781 10 25.0781H22C22.2761 25.0781 22.5 24.8543 22.5 24.5781V15.5781C22.5 15.302 22.2761 15.0781 22 15.0781H10ZM8.5 15.5781C8.5 14.7497 9.17157 14.0781 10 14.0781H22C22.8284 14.0781 23.5 14.7497 23.5 15.5781V24.5781C23.5 25.4066 22.8284 26.0781 22 26.0781H10C9.17157 26.0781 8.5 25.4066 8.5 24.5781V15.5781ZM10.5 16.5781C10.5 16.302 10.7239 16.0781 11 16.0781H21C21.2761 16.0781 21.5 16.302 21.5 16.5781V23.5781C21.5 23.8543 21.2761 24.0781 21 24.0781H19C18.7239 24.0781 18.5 23.8543 18.5 23.5781V19.5781C18.5 19.302 18.2761 19.0781 18 19.0781C17.7239 19.0781 17.5 19.302 17.5 19.5781V23.5781C17.5 23.8543 17.2761 24.0781 17 24.0781H15C14.7239 24.0781 14.5 23.8543 14.5 23.5781V19.5781C14.5 19.302 14.2761 19.0781 14 19.0781C13.7239 19.0781 13.5 19.302 13.5 19.5781V23.5781C13.5 23.8543 13.2761 24.0781 13 24.0781H11C10.7239 24.0781 10.5 23.8543 10.5 23.5781V16.5781ZM11.5 17.0781V23.0781H12.5V19.5781C12.5 18.7497 13.1716 18.0781 14 18.0781C14.8284 18.0781 15.5 18.7497 15.5 19.5781V23.0781H16.5V19.5781C16.5 18.7497 17.1716 18.0781 18 18.0781C18.8284 18.0781 19.5 18.7497 19.5 19.5781V23.0781H20.5V17.0781H11.5Z" fill="white"/>
</svg>
