<svg width="32" height="33" viewBox="0 0 32 33" fill="none" xmlns="http://www.w3.org/2000/svg">
<path fill-rule="evenodd" clip-rule="evenodd" d="M16.4959 4.63176C16.1885 4.45608 15.8111 4.45608 15.5036 4.63176L1.50364 12.6318C1.19207 12.8098 0.99978 13.1411 0.99978 13.5C0.99978 13.8589 1.19207 14.1902 1.50364 14.3682L15.5036 22.3682C15.8111 22.5439 16.1885 22.5439 16.4959 22.3682L30.4959 14.3682C30.8075 14.1902 30.9998 13.8589 30.9998 13.5C30.9998 13.1411 30.8075 12.8098 30.4959 12.6318L16.4959 4.63176ZM15.9998 20.3482L4.01534 13.5L15.9998 6.65175L27.9842 13.5L15.9998 20.3482Z" fill="white"/>
<path d="M2.49591 17.6319C2.01639 17.3579 1.40554 17.5245 1.13153 18.004C0.857515 18.4835 1.02411 19.0944 1.50363 19.3684L15.5036 27.3684C15.8111 27.5441 16.1885 27.5441 16.4959 27.3684L30.4959 19.3684C30.9754 19.0944 31.142 18.4835 30.868 18.004C30.594 17.5245 29.9831 17.3579 29.5036 17.6319L15.9998 25.3484L2.49591 17.6319Z" fill="white"/>
<path fill-rule="evenodd" clip-rule="evenodd" d="M15.2556 4.19764C15.7167 3.93412 16.2828 3.93412 16.744 4.19764L30.744 12.1976C31.2114 12.4647 31.4998 12.9617 31.4998 13.5C31.4998 14.0383 31.2114 14.5353 30.744 14.8024L16.744 22.8024C16.2828 23.0659 15.7167 23.0659 15.2556 22.8024L1.25557 14.8024C0.78821 14.5353 0.49978 14.0383 0.49978 13.5C0.49978 12.9617 0.788209 12.4647 1.25557 12.1976L15.2556 4.19764ZM16.2478 5.06588C16.0941 4.97804 15.9054 4.97804 15.7517 5.06588L1.75171 13.0659C1.59592 13.1549 1.49978 13.3206 1.49978 13.5C1.49978 13.6794 1.59592 13.8451 1.75171 13.9341L15.7517 21.9341C15.9054 22.022 16.0941 22.022 16.2478 21.9341L30.2479 13.9341C30.4036 13.8451 30.4998 13.6794 30.4998 13.5C30.4998 13.3206 30.4036 13.1549 30.2479 13.0659L16.2478 5.06588ZM15.7517 6.21763C15.9054 6.12979 16.0941 6.12979 16.2479 6.21763L28.2323 13.0659C28.3881 13.1549 28.4842 13.3206 28.4842 13.5C28.4842 13.6794 28.3881 13.8451 28.2323 13.9341L16.2479 20.7824C16.0941 20.8702 15.9054 20.8702 15.7517 20.7824L3.76728 13.9341C3.61149 13.8451 3.51534 13.6794 3.51534 13.5C3.51534 13.3206 3.61149 13.1549 3.76728 13.0659L15.7517 6.21763ZM5.02313 13.5L15.9998 19.7724L26.9764 13.5L15.9998 7.22763L5.02313 13.5ZM29.2556 17.1978C29.9748 16.7868 30.8911 17.0367 31.3021 17.756C31.7132 18.4752 31.4633 19.3915 30.744 19.8025L16.744 27.8025C16.2828 28.066 15.7167 28.066 15.2556 27.8025L1.25556 19.8025C0.536284 19.3915 0.286389 18.4752 0.697404 17.756C1.10842 17.0367 2.0247 16.7868 2.74398 17.1978L15.9998 24.7725L29.2556 17.1978ZM30.4339 18.2521C30.2969 18.0123 29.9915 17.929 29.7517 18.0661L16.2478 25.7825C16.0941 25.8704 15.9054 25.8704 15.7517 25.7825L2.24784 18.066C2.00808 17.929 1.70265 18.0123 1.56565 18.2521C1.42864 18.4919 1.51194 18.7973 1.7517 18.9343L15.7517 26.9343C15.9054 27.0221 16.0941 27.0221 16.2478 26.9343L30.2478 18.9343C30.4876 18.7973 30.5709 18.4919 30.4339 18.2521Z" fill="white"/>
</svg>
