<svg width="32" height="33" viewBox="0 0 32 33" fill="none" xmlns="http://www.w3.org/2000/svg">
<path fill-rule="evenodd" clip-rule="evenodd" d="M16.5041 2.63622C16.1928 2.45459 15.8078 2.45459 15.4964 2.63622L3.49639 9.63622C3.18918 9.81543 3.00026 10.1443 3.00026 10.5C3.00026 10.8557 3.18918 11.1846 3.49639 11.3638L15.4964 18.3638C15.8078 18.5454 16.1928 18.5454 16.5041 18.3638L28.5041 11.3638C28.8114 11.1846 29.0003 10.8557 29.0003 10.5C29.0003 10.1443 28.8114 9.81543 28.5041 9.63622L16.5041 2.63622ZM16.0003 16.3423L5.9849 10.5L16.0003 4.6577L26.0156 10.5L16.0003 16.3423Z" fill="white"/>
<path d="M3.13647 15.9963C3.41475 15.5192 4.02706 15.3581 4.50412 15.6364L16.0002 22.3425L27.4964 15.6364C27.9734 15.3581 28.5857 15.5192 28.864 15.9963C29.1423 16.4733 28.9812 17.0857 28.5041 17.3639L16.5041 24.3639C16.1928 24.5456 15.8077 24.5456 15.4964 24.3639L3.49637 17.3639C3.01932 17.0857 2.85819 16.4733 3.13647 15.9963Z" fill="white"/>
<path d="M3.13647 21.9963C3.41475 21.5192 4.02706 21.3581 4.50412 21.6364L16.0002 28.3425L27.4964 21.6364C27.9734 21.3581 28.5857 21.5192 28.864 21.9963C29.1423 22.4733 28.9812 23.0857 28.5041 23.3639L16.5041 30.3639C16.1928 30.5456 15.8077 30.5456 15.4964 30.3639L3.49637 23.3639C3.01932 23.0857 2.85819 22.4733 3.13647 21.9963Z" fill="white"/>
<path fill-rule="evenodd" clip-rule="evenodd" d="M15.2445 2.20433C15.7115 1.93189 16.289 1.93189 16.7561 2.20433L28.7561 9.20433C29.2169 9.47315 29.5003 9.9665 29.5003 10.5C29.5003 11.0335 29.2169 11.5269 28.7561 11.7957L16.7561 18.7957C16.289 19.0681 15.7115 19.0681 15.2445 18.7957L3.24446 11.7957C2.78363 11.5269 2.50026 11.0335 2.50026 10.5C2.50026 9.9665 2.78363 9.47315 3.24446 9.20433L15.2445 2.20433ZM16.2522 3.06811C16.0965 2.9773 15.904 2.9773 15.7483 3.06811L3.74833 10.0681C3.59472 10.1577 3.50026 10.3222 3.50026 10.5C3.50026 10.6778 3.59472 10.8423 3.74833 10.9319L15.7483 17.9319C15.904 18.0227 16.0965 18.0227 16.2522 17.9319L28.2522 10.9319C28.4058 10.8423 28.5003 10.6778 28.5003 10.5C28.5003 10.3222 28.4058 10.1577 28.2522 10.0681L16.2522 3.06811ZM15.7483 4.22581C15.904 4.135 16.0965 4.135 16.2522 4.22581L26.2676 10.0681C26.4212 10.1577 26.5156 10.3222 26.5156 10.5C26.5156 10.6778 26.4212 10.8423 26.2676 10.9319L16.2522 16.7742C16.0965 16.865 15.904 16.865 15.7483 16.7742L5.73296 10.9319C5.57936 10.8423 5.4849 10.6778 5.4849 10.5C5.4849 10.3222 5.57936 10.1577 5.73296 10.0681L15.7483 4.22581ZM6.97722 10.5L16.0003 15.7634L25.0233 10.5L16.0003 5.23656L6.97722 10.5ZM4.25218 16.0683C4.01365 15.9291 3.70749 16.0097 3.56836 16.2482C3.42922 16.4868 3.50978 16.7929 3.74831 16.9321L15.7483 23.9321C15.904 24.0229 16.0965 24.0229 16.2522 23.9321L28.2522 16.9321C28.4907 16.7929 28.5713 16.4868 28.4321 16.2482C28.293 16.0097 27.9868 15.9291 27.7483 16.0683L16.2522 22.7743C16.0965 22.8652 15.904 22.8652 15.7483 22.7743L4.25218 16.0683ZM2.70458 15.7444C3.122 15.0288 4.04047 14.7871 4.75605 15.2045L16.0002 21.7636L27.2444 15.2045C27.96 14.7871 28.8785 15.0288 29.2959 15.7444C29.7133 16.4599 29.4716 17.3784 28.7561 17.7958L16.7561 24.7958C16.289 25.0683 15.7115 25.0683 15.2444 24.7958L3.24444 17.7958C2.52886 17.3784 2.28716 16.4599 2.70458 15.7444ZM4.25218 22.0683C4.01365 21.9291 3.7075 22.0097 3.56836 22.2482C3.42922 22.4868 3.50978 22.7929 3.74831 22.9321L15.7483 29.9321C15.904 30.0229 16.0965 30.0229 16.2522 29.9321L28.2522 22.9321C28.4907 22.7929 28.5713 22.4868 28.4321 22.2482C28.293 22.0097 27.9868 21.9291 27.7483 22.0683L16.2522 28.7743C16.0965 28.8652 15.904 28.8652 15.7483 28.7743L4.25218 22.0683ZM2.70458 21.7444C3.122 21.0288 4.04047 20.7871 4.75605 21.2045L16.0002 27.7636L27.2444 21.2045C27.96 20.7871 28.8785 21.0288 29.2959 21.7444C29.7133 22.4599 29.4716 23.3784 28.7561 23.7958L16.7561 30.7958C16.289 31.0683 15.7115 31.0683 15.2444 30.7958L3.24444 23.7958C2.52886 23.3784 2.28716 22.4599 2.70458 21.7444Z" fill="white"/>
</svg>
