<svg width="32" height="32" viewBox="0 0 32 32" fill="none" xmlns="http://www.w3.org/2000/svg">
<path fill-rule="evenodd" clip-rule="evenodd" d="M6.75026 4H25.2585C25.6897 4.00355 26.1083 4.14553 26.4528 4.40497C26.7972 4.66442 27.0492 5.02762 27.1716 5.44108L27.1745 5.45102L28.9558 11.7044C28.971 11.7536 28.9825 11.8044 28.99 11.8565C28.9982 11.9126 29.0015 11.9684 29.0002 12.0237V14C29.0002 15.3261 28.4735 16.5979 27.5358 17.5355C27.3675 17.7038 27.1884 17.8589 27.0002 18V26.0002C27.0002 26.5306 26.7895 27.0393 26.4145 27.4144C26.0394 27.7895 25.5307 28.0002 25.0002 28.0002H7.00024C6.46981 28.0002 5.9611 27.7895 5.58603 27.4144C5.21096 27.0393 5.00024 26.5306 5.00024 26.0002V18C4.81205 17.8589 4.633 17.7038 4.46471 17.5355C3.52703 16.5979 3.00024 15.3261 3.00024 14V12.0225C2.9991 11.971 3.00196 11.9189 3.00905 11.8667C3.01652 11.8106 3.02863 11.7561 3.04499 11.7033L4.82886 5.44107C4.95128 5.02761 5.20333 4.66441 5.54775 4.40497C5.89218 4.14553 6.31083 4.00358 6.74203 4.00003L6.75026 4ZM25.6206 16.5248C25.5363 16.5594 25.4579 16.6052 25.387 16.6603C24.9627 16.8814 24.4876 17 24.0002 17C23.2046 17 22.4415 16.6839 21.8789 16.1213C21.3163 15.5587 21.0002 14.7956 21.0002 14V12C21.0002 11.4477 20.5525 11 20.0002 11C19.448 11 19.0002 11.4477 19.0002 12V14C19.0002 14.7956 18.6842 15.5587 18.1216 16.1213C17.559 16.6839 16.7959 17 16.0002 17C15.2046 17 14.4415 16.6839 13.8789 16.1213C13.3163 15.5587 13.0002 14.7956 13.0002 14V12C13.0002 11.4477 12.5525 11 12.0002 11C11.448 11 11.0002 11.4477 11.0002 12V14C11.0002 14.7956 10.6842 15.5587 10.1216 16.1213C9.55896 16.6839 8.79589 17 8.00024 17C7.51292 17 7.03781 16.8814 6.61351 16.6603C6.54263 16.6052 6.46415 16.5594 6.3799 16.5248C6.20029 16.4095 6.03217 16.2746 5.87892 16.1213C5.31631 15.5587 5.00024 14.7956 5.00024 14V12.1397L6.74694 6.00794C6.74778 6.00578 6.74921 6.00388 6.75107 6.00248C6.75299 6.00104 6.75528 6.00018 6.75767 6H25.2428C25.2452 6.00018 25.2475 6.00104 25.2494 6.00248C25.2513 6.00388 25.2527 6.00577 25.2536 6.00793L27.0002 12.1396V14C27.0002 14.7956 26.6842 15.5587 26.1216 16.1213C25.9683 16.2746 25.8002 16.4095 25.6206 16.5248ZM20.0002 17C19.8591 17.1882 19.7041 17.3673 19.5358 17.5355C18.5981 18.4732 17.3263 19 16.0002 19C14.6742 19 13.4024 18.4732 12.4647 17.5355C12.2964 17.3673 12.1414 17.1882 12.0002 17C11.8591 17.1882 11.7041 17.3673 11.5358 17.5355C10.5981 18.4732 9.32633 19 8.00024 19C7.66182 19 7.32694 18.9657 7.00024 18.899V26.0002H25.0002V18.899C24.6735 18.9657 24.3387 19 24.0002 19C22.6742 19 21.4024 18.4732 20.4647 17.5355C20.2964 17.3673 20.1414 17.1882 20.0002 17Z" fill="white"/>
<path fill-rule="evenodd" clip-rule="evenodd" d="M6.75026 3.5H25.2626C25.801 3.50443 26.3236 3.68172 26.7536 4.0056C27.1836 4.3295 27.4982 4.78294 27.651 5.29912L27.6554 5.31404L29.4353 11.5626C29.4573 11.6348 29.474 11.7093 29.485 11.7854L28.99 11.8565L29.4848 11.7842L29.485 11.7854C29.4968 11.8669 29.5018 11.9483 29.5002 12.0289V12.0237H29.0002L29.5001 12.0353C29.5002 12.0332 29.5002 12.0311 29.5002 12.0289V14C29.5002 15.4587 28.9208 16.8576 27.8893 17.8891C27.7648 18.0136 27.6349 18.1315 27.5002 18.2427V18H27.0002L27.3002 18.4C27.368 18.3492 27.4347 18.2967 27.5002 18.2427V26.0002C27.5002 26.6632 27.2369 27.2991 26.768 27.768C26.2992 28.2368 25.6633 28.5002 25.0002 28.5002H7.00024C6.33721 28.5002 5.70132 28.2368 5.23248 27.768C4.76364 27.2991 4.50024 26.6632 4.50024 26.0002V18.2427C4.56579 18.2967 4.63247 18.3492 4.70024 18.4L5.00024 18H4.50024V18.2427C4.36555 18.1315 4.23567 18.0136 4.11116 17.8891C3.07971 16.8576 2.50024 15.4587 2.50024 14V12.0275C2.50028 12.0295 2.50032 12.0316 2.50037 12.0336L3.00024 12.0225H2.50024V12.0275C2.49888 11.952 2.50323 11.8758 2.51359 11.7995L3.00905 11.8667L2.51343 11.8007C2.52434 11.7187 2.5419 11.6387 2.56555 11.5613L2.56412 11.5663L3.04499 11.7033L2.56744 11.5552C2.56681 11.5572 2.56618 11.5593 2.56555 11.5613L4.34941 5.2991C4.50226 4.78288 4.81696 4.32947 5.24692 4.0056C5.67693 3.6817 6.19959 3.50448 6.73791 3.50005L6.73997 3.50003L6.75026 3.5ZM6.75128 4.5L6.74614 4.50002C6.42208 4.50268 6.10744 4.60937 5.84858 4.80435C5.59034 4.99887 5.40122 5.27097 5.30897 5.5807L3.52266 11.8515C3.51456 11.8776 3.5084 11.9047 3.50467 11.9327L3.50451 11.934C3.50097 11.96 3.49955 11.9859 3.50012 12.0114L3.50037 12.0225L3.50024 14C3.50024 15.1935 3.97435 16.3381 4.81826 17.182C4.96974 17.3335 5.13089 17.473 5.30025 17.6C5.42615 17.6945 5.50024 17.8426 5.50024 18V26.0002C5.50024 26.398 5.65828 26.7796 5.93958 27.0609C6.22089 27.3422 6.60242 27.5002 7.00024 27.5002H25.0002C25.3981 27.5002 25.7796 27.3422 26.0609 27.0609C26.3422 26.7796 26.5002 26.398 26.5002 26.0002V18C26.5002 17.8426 26.5743 17.6945 26.7002 17.6C26.8696 17.473 27.0307 17.3335 27.1822 17.182C28.0261 16.3381 28.5002 15.1935 28.5002 14V12.012C28.5009 11.9846 28.4994 11.9569 28.4953 11.9289L28.4951 11.9277C28.4914 11.9016 28.4857 11.8764 28.4781 11.852L28.4748 11.8414L26.6951 5.59297L26.6937 5.588L26.6922 5.58304C26.6002 5.2723 26.4108 4.99933 26.1519 4.80435C25.8936 4.60974 25.5796 4.50307 25.2563 4.5H6.75128ZM6.72069 5.50137C6.73299 5.50046 6.74533 5.5 6.75767 5.5H25.2428C25.2552 5.5 25.2675 5.50046 25.2798 5.50137C25.3776 5.50862 25.4715 5.54377 25.5503 5.60313C25.6267 5.66067 25.6851 5.7382 25.7195 5.82664C25.7252 5.84117 25.7302 5.85596 25.7344 5.87095L27.4811 12.0026C27.4938 12.0472 27.5002 12.0933 27.5002 12.1396V14C27.5002 14.9283 27.1315 15.8185 26.4751 16.4749C26.2963 16.6536 26.1002 16.8111 25.8906 16.9456C25.8653 16.9619 25.8384 16.9758 25.8105 16.9873C25.7687 17.0045 25.7295 17.0273 25.6939 17.055C25.6701 17.0735 25.6448 17.0897 25.6181 17.1036C25.1231 17.3616 24.5688 17.5 24.0002 17.5C23.072 17.5 22.1817 17.1313 21.5254 16.4749C20.869 15.8185 20.5002 14.9283 20.5002 14V12C20.5002 11.7239 20.2764 11.5 20.0002 11.5C19.7241 11.5 19.5002 11.7239 19.5002 12V14C19.5002 14.9283 19.1315 15.8185 18.4751 16.4749C17.8187 17.1313 16.9285 17.5 16.0002 17.5C15.072 17.5 14.1817 17.1313 13.5254 16.4749C12.869 15.8185 12.5002 14.9283 12.5002 14V12C12.5002 11.7239 12.2764 11.5 12.0002 11.5C11.7241 11.5 11.5002 11.7239 11.5002 12V14C11.5002 14.9283 11.1315 15.8185 10.4751 16.4749C9.81874 17.1313 8.9285 17.5 8.00024 17.5C7.43168 17.5 6.87738 17.3616 6.38239 17.1036C6.35572 17.0897 6.33036 17.0735 6.30661 17.055C6.27101 17.0273 6.23179 17.0045 6.18995 16.9873C6.16205 16.9758 6.13524 16.9619 6.10985 16.9456C5.90029 16.8111 5.70414 16.6536 5.52537 16.4749C4.86899 15.8185 4.50024 14.9283 4.50024 14V12.1397C4.50024 12.0934 4.50668 12.0473 4.51937 12.0027L6.26607 5.87096C6.27033 5.85601 6.27528 5.84127 6.28091 5.82678C6.31536 5.73817 6.37389 5.66061 6.45026 5.60309C6.52893 5.54384 6.62284 5.50863 6.72069 5.50137ZM7.12666 6.5L5.50024 12.2095V14C5.50024 14.663 5.76364 15.2989 6.23248 15.7678C6.35094 15.8862 6.48005 15.9916 6.61755 16.0828C6.7102 16.1247 6.79772 16.1756 6.87898 16.2344C7.22381 16.4075 7.60725 16.5 8.00024 16.5C8.66328 16.5 9.29917 16.2366 9.76801 15.7678C10.2369 15.2989 10.5002 14.663 10.5002 14V12C10.5002 11.1716 11.1718 10.5 12.0002 10.5C12.8287 10.5 13.5002 11.1716 13.5002 12V14C13.5002 14.663 13.7636 15.2989 14.2325 15.7678C14.7013 16.2366 15.3372 16.5 16.0002 16.5C16.6633 16.5 17.2992 16.2366 17.768 15.7678C18.2369 15.2989 18.5002 14.663 18.5002 14V12C18.5002 11.1716 19.1718 10.5 20.0002 10.5C20.8287 10.5 21.5002 11.1716 21.5002 12V14C21.5002 14.663 21.7636 15.2989 22.2325 15.7678C22.7013 16.2366 23.3372 16.5 24.0002 16.5C24.3932 16.5 24.7767 16.4075 25.1215 16.2344C25.2028 16.1756 25.2903 16.1247 25.3829 16.0828C25.5204 15.9916 25.6495 15.8862 25.768 15.7678C26.2369 15.2989 26.5002 14.663 26.5002 14V12.2094L24.8739 6.5H7.12666ZM12.0002 16.5C12.1576 16.5 12.3058 16.5741 12.4002 16.7C12.5273 16.8694 12.6668 17.0305 12.8183 17.182C13.6622 18.0259 14.8068 18.5 16.0002 18.5C17.1937 18.5 18.3383 18.0259 19.1822 17.182C19.3337 17.0305 19.4732 16.8694 19.6003 16.7C19.6947 16.5741 19.8429 16.5 20.0002 16.5C20.1576 16.5 20.3058 16.5741 20.4002 16.7C20.5273 16.8694 20.6668 17.0305 20.8183 17.182C21.6622 18.0259 22.8068 18.5 24.0002 18.5C24.3049 18.5 24.6062 18.4691 24.9002 18.4091C25.0473 18.3791 25.2002 18.4167 25.3165 18.5117C25.4328 18.6067 25.5002 18.7489 25.5002 18.899V26.0002C25.5002 26.2763 25.2764 26.5002 25.0002 26.5002H7.00024C6.7241 26.5002 6.50024 26.2763 6.50024 26.0002V18.899C6.50024 18.7489 6.56772 18.6067 6.68402 18.5117C6.80032 18.4167 6.95314 18.3791 7.10025 18.4091C7.39425 18.4691 7.69564 18.5 8.00024 18.5C9.19372 18.5 10.3383 18.0259 11.1822 17.182C11.3337 17.0305 11.4732 16.8694 11.6002 16.7C11.6947 16.5741 11.8429 16.5 12.0002 16.5ZM12.0002 17.7749C11.9639 17.8135 11.9269 17.8515 11.8893 17.8891C10.8579 18.9205 9.45894 19.5 8.00024 19.5C7.83264 19.5 7.66582 19.4923 7.50024 19.4772V25.5002H24.5002V19.4772C24.3347 19.4923 24.1678 19.5 24.0002 19.5C22.5416 19.5 21.1426 18.9205 20.1112 17.8891C20.0736 17.8515 20.0366 17.8135 20.0002 17.7749C19.9639 17.8135 19.9269 17.8515 19.8893 17.8891C18.8579 18.9205 17.4589 19.5 16.0002 19.5C14.5416 19.5 13.1426 18.9205 12.1112 17.8891C12.0736 17.8515 12.0366 17.8135 12.0002 17.7749Z" fill="white"/>
<path d="M4.50024 18.2427C4.56579 18.2967 4.63247 18.3492 4.70024 18.4L5.00024 18H4.50024V18.2427Z" fill="white"/>
<path d="M27.5002 18.2427V18H27.0002L27.3002 18.4C27.368 18.3492 27.4347 18.2967 27.5002 18.2427Z" fill="white"/>
</svg>
