<svg width="32" height="32" viewBox="0 0 32 32" fill="none" xmlns="http://www.w3.org/2000/svg">
<path fill-rule="evenodd" clip-rule="evenodd" d="M4 6C3.44772 6 3 6.44772 3 7V24C3 24.5304 3.21071 25.0391 3.58579 25.4142C3.96086 25.7893 4.46957 26 5 26H27C27.5304 26 28.0391 25.7893 28.4142 25.4142C28.7893 25.0391 29 24.5304 29 24V7C29 6.44772 28.5523 6 28 6H4ZM12 24H27V20H12V24ZM10 20V24H5V20H10ZM12 18H27V14H12V18ZM10 14V18H5V14H10ZM27 12V8H5V12H27Z" fill="white"/>
<path fill-rule="evenodd" clip-rule="evenodd" d="M2.5 7C2.5 6.17157 3.17157 5.5 4 5.5H28C28.8284 5.5 29.5 6.17157 29.5 7V24C29.5 24.663 29.2366 25.2989 28.7678 25.7678C28.2989 26.2366 27.663 26.5 27 26.5H5C4.33696 26.5 3.70108 26.2366 3.23223 25.7678C2.76339 25.2989 2.5 24.663 2.5 24V7ZM4 6.5C3.72386 6.5 3.5 6.72386 3.5 7V24C3.5 24.3978 3.65804 24.7794 3.93934 25.0607C4.22065 25.342 4.60218 25.5 5 25.5H27C27.3978 25.5 27.7794 25.342 28.0607 25.0607C28.342 24.7794 28.5 24.3978 28.5 24V7C28.5 6.72386 28.2761 6.5 28 6.5H4ZM4.5 8C4.5 7.72386 4.72386 7.5 5 7.5H27C27.2761 7.5 27.5 7.72386 27.5 8V12C27.5 12.2761 27.2761 12.5 27 12.5H5C4.72386 12.5 4.5 12.2761 4.5 12V8ZM5.5 8.5V11.5H26.5V8.5H5.5ZM4.5 14C4.5 13.7239 4.72386 13.5 5 13.5H10C10.2761 13.5 10.5 13.7239 10.5 14V18C10.5 18.2761 10.2761 18.5 10 18.5H5C4.72386 18.5 4.5 18.2761 4.5 18V14ZM5.5 14.5V17.5H9.5V14.5H5.5ZM11.5 14C11.5 13.7239 11.7239 13.5 12 13.5H27C27.2761 13.5 27.5 13.7239 27.5 14V18C27.5 18.2761 27.2761 18.5 27 18.5H12C11.7239 18.5 11.5 18.2761 11.5 18V14ZM12.5 14.5V17.5H26.5V14.5H12.5ZM4.5 20C4.5 19.7239 4.72386 19.5 5 19.5H10C10.2761 19.5 10.5 19.7239 10.5 20V24C10.5 24.2761 10.2761 24.5 10 24.5H5C4.72386 24.5 4.5 24.2761 4.5 24V20ZM5.5 20.5V23.5H9.5V20.5H5.5ZM11.5 20C11.5 19.7239 11.7239 19.5 12 19.5H27C27.2761 19.5 27.5 19.7239 27.5 20V24C27.5 24.2761 27.2761 24.5 27 24.5H12C11.7239 24.5 11.5 24.2761 11.5 24V20ZM12.5 20.5V23.5H26.5V20.5H12.5Z" fill="white"/>
</svg>
