<svg width="32" height="33" viewBox="0 0 32 33" fill="none" xmlns="http://www.w3.org/2000/svg">
<path fill-rule="evenodd" clip-rule="evenodd" d="M14.1056 3.05279C14.275 2.714 14.6212 2.5 15 2.5C16.3261 2.5 17.5979 3.02678 18.5355 3.96447C19.0932 4.52209 19.5055 5.19786 19.7481 5.93295C19.8334 6.19138 19.8977 6.45713 19.94 6.72766C19.9797 6.98161 20 7.23976 20 7.5V9.5H26.7363C27.8683 9.48421 30.0468 10.1377 29.7043 12.8778L28.2048 24.874C28.1137 25.5966 27.7628 26.2624 27.2177 26.7454C26.6726 27.2284 25.9705 27.4966 25.2422 27.5L25.2375 27.5H4C3.46957 27.5 2.96086 27.2893 2.58579 26.9142C2.21071 26.5391 2 26.0304 2 25.5V14.5C2 13.9696 2.21071 13.4609 2.58579 13.0858C2.96086 12.7107 3.46957 12.5 4 12.5H9.38197L14.1056 3.05279ZM4 25.5V14.5H9V25.5H4ZM15.5889 4.55835L11 13.7361V25.5H25.2349C25.4769 25.4984 25.7102 25.409 25.8914 25.2485C26.0731 25.0875 26.19 24.8659 26.2203 24.625L27.7212 12.6179C27.7398 12.4782 27.7284 12.3362 27.6875 12.2014C27.6467 12.0665 27.5775 11.9419 27.4846 11.8361C27.3916 11.7302 27.2771 11.6454 27.1486 11.5874C27.0202 11.5295 26.8809 11.4996 26.74 11.5L19 11.5C18.4477 11.5 18 11.0523 18 10.5V7.5C18 6.70435 17.6839 5.94129 17.1213 5.37868C16.6996 4.95693 16.1652 4.67372 15.5889 4.55835Z" fill="white"/>
<path fill-rule="evenodd" clip-rule="evenodd" d="M11 13.7361L15.5889 4.55835C16.1652 4.67372 16.6996 4.95693 17.1213 5.37868C17.6839 5.94129 18 6.70435 18 7.5V10.5C18 11.0523 18.4477 11.5 19 11.5L26.74 11.5C26.8809 11.4996 27.0202 11.5295 27.1486 11.5874C27.2771 11.6454 27.3916 11.7302 27.4846 11.8361C27.5775 11.9419 27.6467 12.0665 27.6875 12.2014C27.7284 12.3362 27.7398 12.4782 27.7212 12.6179L26.2203 24.625C26.19 24.8659 26.0731 25.0875 25.8914 25.2485C25.7102 25.409 25.4769 25.4984 25.2349 25.5H11V13.7361ZM15.8522 5.14973L11.5 13.8541V25H25.2329C25.3534 24.9989 25.4695 24.9542 25.5598 24.8743C25.6505 24.7939 25.7089 24.6832 25.7242 24.563L27.2251 12.5559L27.2256 12.5519C27.2348 12.4828 27.2291 12.4127 27.209 12.3462C27.1888 12.2797 27.1547 12.2182 27.1088 12.1659C27.0629 12.1136 27.0064 12.0718 26.943 12.0432C26.8796 12.0145 26.8108 11.9998 26.7412 12L26.74 12L19 12C18.1716 12 17.5 11.3284 17.5 10.5V7.5C17.5 6.83696 17.2366 6.20107 16.7678 5.73223C16.5064 5.47088 16.1931 5.27336 15.8522 5.14973Z" fill="white"/>
<path fill-rule="evenodd" clip-rule="evenodd" d="M15 2C14.4318 2 13.9124 2.321 13.6584 2.82918L9.07295 12H4C3.33696 12 2.70107 12.2634 2.23223 12.7322C1.76339 13.2011 1.5 13.837 1.5 14.5V25.5C1.5 26.163 1.76339 26.7989 2.23223 27.2678C2.70108 27.7366 3.33696 28 4 28H25.2375L25.2434 28L25.2445 28C26.0942 27.996 26.9134 27.6831 27.5493 27.1196C28.1854 26.556 28.5947 25.7789 28.7009 24.9361L30.2004 12.9398C30.3916 11.4107 29.8749 10.3832 29.0816 9.7618C28.3249 9.16907 27.3767 8.99173 26.733 9H20.5V7.5C20.5 7.21376 20.4777 6.92979 20.434 6.65043C20.3875 6.35283 20.3167 6.06049 20.2229 5.77623C19.956 4.96768 19.5025 4.22431 18.8891 3.61091C17.8576 2.57946 16.4587 2 15 2ZM14.5528 3.27639C14.6375 3.107 14.8106 3 15 3C16.1935 3 17.3381 3.47411 18.182 4.31802C18.6838 4.81987 19.0549 5.42805 19.2733 6.08967C19.3501 6.32226 19.4079 6.56143 19.446 6.80489C19.4817 7.03342 19.5 7.26575 19.5 7.5V9.5C19.5 9.77614 19.7239 10 20 10L26.7363 10L26.7433 9.99995C27.2315 9.99314 27.9365 10.1351 28.4649 10.549C28.9582 10.9354 29.3595 11.6048 29.2082 12.8158L27.7086 24.812C27.6327 25.4142 27.3402 25.9689 26.8862 26.3712C26.4319 26.7737 25.8467 26.9972 25.2398 27L25.2363 27L4 27C3.60218 27 3.22064 26.842 2.93934 26.5607C2.65804 26.2794 2.5 25.8978 2.5 25.5V14.5C2.5 14.1022 2.65804 13.7206 2.93934 13.4393C3.22064 13.158 3.60218 13 4 13H9.38197C9.57135 13 9.74448 12.893 9.82918 12.7236L14.5528 3.27639ZM4 14C3.72386 14 3.5 14.2239 3.5 14.5V25.5C3.5 25.7761 3.72386 26 4 26H9C9.27614 26 9.5 25.7761 9.5 25.5V14.5C9.5 14.2239 9.27614 14 9 14H4ZM4.5 25V15H8.5V25H4.5Z" fill="white"/>
</svg>
