<svg width="32" height="33" viewBox="0 0 32 33" fill="none" xmlns="http://www.w3.org/2000/svg">
<path fill-rule="evenodd" clip-rule="evenodd" d="M14.1056 29.9472C14.275 30.286 14.6212 30.5 15 30.5C16.3261 30.5 17.5979 29.9732 18.5355 29.0355C19.0932 28.4779 19.5055 27.8021 19.7481 27.067C19.8334 26.8086 19.8977 26.5429 19.94 26.2723C19.9797 26.0184 20 25.7602 20 25.5V23.5H26.7363C27.8683 23.5158 30.0468 22.8623 29.7043 20.1222L28.2048 8.12597C28.1137 7.40337 27.7628 6.73762 27.2177 6.25462C26.6726 5.77162 25.9705 5.5034 25.2422 5.50001L25.2375 5.5H4C3.46957 5.5 2.96086 5.71071 2.58579 6.08578C2.21071 6.46086 2 6.96957 2 7.5V18.5C2 19.0304 2.21071 19.5391 2.58579 19.9142C2.96086 20.2893 3.46957 20.5 4 20.5H9.38197L14.1056 29.9472ZM4 7.5V18.5H9V7.5H4ZM15.5889 28.4417L11 19.2639V7.5H25.2349C25.4769 7.50162 25.7102 7.59097 25.8914 7.75152C26.0731 7.91253 26.19 8.13412 26.2203 8.37499L27.7212 20.3821C27.7398 20.5218 27.7284 20.6638 27.6875 20.7986C27.6467 20.9335 27.5775 21.0581 27.4846 21.1639C27.3916 21.2698 27.2771 21.3546 27.1486 21.4126C27.0202 21.4705 26.8809 21.5004 26.74 21.5L19 21.5C18.4477 21.5 18 21.9477 18 22.5V25.5C18 26.2956 17.6839 27.0587 17.1213 27.6213C16.6996 28.0431 16.1652 28.3263 15.5889 28.4417Z" fill="white"/>
<path fill-rule="evenodd" clip-rule="evenodd" d="M11 19.2639L15.5889 28.4417C16.1652 28.3263 16.6996 28.0431 17.1213 27.6213C17.6839 27.0587 18 26.2956 18 25.5V22.5C18 21.9477 18.4477 21.5 19 21.5L26.74 21.5C26.8809 21.5004 27.0202 21.4705 27.1486 21.4126C27.2771 21.3546 27.3916 21.2698 27.4846 21.1639C27.5775 21.0581 27.6467 20.9335 27.6875 20.7986C27.7284 20.6638 27.7398 20.5218 27.7212 20.3821L26.2203 8.37499C26.19 8.13412 26.0731 7.91253 25.8914 7.75152C25.7102 7.59097 25.4769 7.50162 25.2349 7.5H11V19.2639ZM15.8522 27.8503L11.5 19.1459V8H25.2329C25.3534 8.00115 25.4695 8.04579 25.5598 8.12575C25.6505 8.20615 25.7089 8.31676 25.7242 8.43701L27.2251 20.4441L27.2256 20.4481C27.2348 20.5172 27.2291 20.5873 27.209 20.6538C27.1888 20.7203 27.1547 20.7818 27.1088 20.8341C27.0629 20.8864 27.0064 20.9282 26.943 20.9568C26.8796 20.9855 26.8108 21.0002 26.7412 21L26.74 21L19 21C18.1716 21 17.5 21.6716 17.5 22.5V25.5C17.5 26.163 17.2366 26.7989 16.7678 27.2678C16.5064 27.5291 16.1931 27.7266 15.8522 27.8503Z" fill="white"/>
<path fill-rule="evenodd" clip-rule="evenodd" d="M15 31C14.4318 31 13.9124 30.679 13.6584 30.1708L9.07295 21H4C3.33696 21 2.70107 20.7366 2.23223 20.2678C1.76339 19.7989 1.5 19.163 1.5 18.5V7.5C1.5 6.83696 1.76339 6.20107 2.23223 5.73223C2.70108 5.26339 3.33696 5 4 5H25.2375L25.2434 5.00001L25.2445 5.00002C26.0942 5.00397 26.9134 5.31689 27.5493 5.88039C28.1854 6.444 28.5947 7.22109 28.7009 8.06395L30.2004 20.0602C30.3916 21.5893 29.8749 22.6168 29.0816 23.2382C28.3249 23.8309 27.3767 24.0083 26.733 24H20.5V25.5C20.5 25.7862 20.4777 26.0702 20.434 26.3496C20.3875 26.6472 20.3167 26.9395 20.2229 27.2238C19.956 28.0323 19.5025 28.7757 18.8891 29.3891C17.8576 30.4205 16.4587 31 15 31ZM14.5528 29.7236C14.6375 29.893 14.8106 30 15 30C16.1935 30 17.3381 29.5259 18.182 28.682C18.6838 28.1801 19.0549 27.572 19.2733 26.9103C19.3501 26.6777 19.4079 26.4386 19.446 26.1951C19.4817 25.9666 19.5 25.7342 19.5 25.5V23.5C19.5 23.2239 19.7239 23 20 23L26.7363 23L26.7433 23C27.2315 23.0069 27.9365 22.8649 28.4649 22.451C28.9582 22.0646 29.3595 21.3952 29.2082 20.1842L27.7086 8.18798C27.6327 7.58584 27.3402 7.03113 26.8862 6.62885C26.4319 6.22634 25.8467 6.00283 25.2398 6.00001L25.2363 6L4 6C3.60218 6 3.22064 6.15803 2.93934 6.43934C2.65804 6.72064 2.5 7.10218 2.5 7.5V18.5C2.5 18.8978 2.65804 19.2794 2.93934 19.5607C3.22064 19.842 3.60218 20 4 20H9.38197C9.57135 20 9.74448 20.107 9.82918 20.2764L14.5528 29.7236ZM4 19C3.72386 19 3.5 18.7761 3.5 18.5V7.5C3.5 7.22386 3.72386 7 4 7H9C9.27614 7 9.5 7.22386 9.5 7.5V18.5C9.5 18.7761 9.27614 19 9 19H4ZM4.5 8V18H8.5V8H4.5Z" fill="white"/>
</svg>
