<svg width="32" height="32" viewBox="0 0 32 32" fill="none" xmlns="http://www.w3.org/2000/svg">
<path fill-rule="evenodd" clip-rule="evenodd" d="M2.23224 6.23223C2.70108 5.76339 3.33696 5.5 4.00001 5.5H28C28.663 5.5 29.2989 5.76339 29.7678 6.23223C30.2366 6.70107 30.5 7.33696 30.5 8V11.0848L30.5001 11.0918C30.5033 11.6719 30.3036 12.2349 29.9356 12.6834C29.5716 13.1272 29.0653 13.4312 28.503 13.5442C27.9433 13.6652 27.4416 13.9736 27.0811 14.4187C26.7187 14.8661 26.521 15.4244 26.521 16.0001C26.521 16.5758 26.7187 17.1341 27.0811 17.5815C27.4416 18.0266 27.9433 18.335 28.5029 18.4559C29.0653 18.569 29.5716 18.873 29.9357 19.3168C29.9454 19.3286 29.9546 19.3409 29.9632 19.3536C30.0256 19.4459 30.1799 19.6901 30.267 19.9064C30.324 20.0375 30.501 20.4481 30.5 20.9022V24C30.5 24.663 30.2366 25.2989 29.7678 25.7678C29.2989 26.2366 28.663 26.5 28 26.5H4.00001C3.33697 26.5 2.70108 26.2366 2.23224 25.7678C1.7634 25.2989 1.50001 24.663 1.50001 24V20.9C1.49876 20.3228 1.69827 19.7631 2.06449 19.3168C2.42862 18.873 2.9349 18.569 3.49734 18.4559C4.05695 18.335 4.55858 18.0265 4.91904 17.5815C5.28141 17.1341 5.47914 16.5758 5.47914 16.0001C5.47914 15.4244 5.28141 14.8661 4.91904 14.4187C4.55858 13.9737 4.05696 13.6652 3.49736 13.5443C2.93492 13.4313 2.42862 13.1272 2.06449 12.6834C1.6986 12.2375 1.49913 11.6784 1.50001 11.1018L1.50001 11.1L1.50001 8C1.50001 7.33696 1.7634 6.70107 2.23224 6.23223ZM13.5 23.5V8.5L27.5 8.5V10.7052C26.4215 11.0175 25.4606 11.653 24.7499 12.5305C23.9548 13.5121 23.521 14.7369 23.521 16.0001C23.521 17.2633 23.9548 18.4881 24.7499 19.4697C25.46 20.3465 26.4247 20.9776 27.5 21.2897V23.5H13.5ZM4.50001 21.295V23.5H10.5V8.5H4.50001V10.7051C5.5786 11.0175 6.53951 11.653 7.25027 12.5305C8.04532 13.5121 8.47914 14.7369 8.47914 16.0001C8.47914 17.2633 8.04532 18.4881 7.25027 19.4697C6.53951 20.3472 5.5786 20.9827 4.50001 21.295Z" fill="white"/>
</svg>
