<svg width="32" height="33" viewBox="0 0 32 33" fill="none" xmlns="http://www.w3.org/2000/svg">
<path d="M13 1C12.4477 1 12 1.44772 12 2C12 2.55228 12.4477 3 13 3H19C19.5523 3 20 2.55228 20 2C20 1.44772 19.5523 1 19 1H13Z" fill="white"/>
<path d="M21.6571 11.3429C22.0476 11.7335 22.0476 12.3666 21.6571 12.7572L16.7071 17.7072C16.3166 18.0977 15.6834 18.0977 15.2929 17.7072C14.9024 17.3166 14.9024 16.6835 15.2929 16.2929L20.2429 11.3429C20.6334 10.9524 21.2666 10.9524 21.6571 11.3429Z" fill="white"/>
<path fill-rule="evenodd" clip-rule="evenodd" d="M4 17C4 10.3726 9.37258 5 16 5C22.6274 5 28 10.3726 28 17C28 23.6274 22.6274 29 16 29C9.37258 29 4 23.6274 4 17ZM16 7C10.4772 7 6 11.4772 6 17C6 22.5228 10.4772 27 16 27C21.5228 27 26 22.5228 26 17C26 11.4772 21.5228 7 16 7Z" fill="white"/>
<path fill-rule="evenodd" clip-rule="evenodd" d="M11.5 2C11.5 1.17157 12.1716 0.5 13 0.5H19C19.8284 0.5 20.5 1.17157 20.5 2C20.5 2.82843 19.8284 3.5 19 3.5H13C12.1716 3.5 11.5 2.82843 11.5 2ZM13 1.5C12.7239 1.5 12.5 1.72386 12.5 2C12.5 2.27614 12.7239 2.5 13 2.5H19C19.2761 2.5 19.5 2.27614 19.5 2C19.5 1.72386 19.2761 1.5 19 1.5H13ZM16 5.5C9.64873 5.5 4.5 10.6487 4.5 17C4.5 23.3513 9.64873 28.5 16 28.5C22.3513 28.5 27.5 23.3513 27.5 17C27.5 10.6487 22.3513 5.5 16 5.5ZM3.5 17C3.5 10.0964 9.09644 4.5 16 4.5C22.9036 4.5 28.5 10.0964 28.5 17C28.5 23.9036 22.9036 29.5 16 29.5C9.09644 29.5 3.5 23.9036 3.5 17ZM5.5 17C5.5 11.201 10.201 6.5 16 6.5C21.799 6.5 26.5 11.201 26.5 17C26.5 22.799 21.799 27.5 16 27.5C10.201 27.5 5.5 22.799 5.5 17ZM16 7.5C10.7533 7.5 6.5 11.7533 6.5 17C6.5 22.2467 10.7533 26.5 16 26.5C21.2467 26.5 25.5 22.2467 25.5 17C25.5 11.7533 21.2467 7.5 16 7.5ZM21.3036 11.6965C21.1083 11.5012 20.7917 11.5012 20.5964 11.6965L15.6464 16.6465C15.4512 16.8418 15.4512 17.1583 15.6464 17.3536C15.8417 17.5489 16.1583 17.5489 16.3536 17.3536L21.3036 12.4036C21.4988 12.2083 21.4988 11.8918 21.3036 11.6965ZM19.8893 10.9894C20.4751 10.4036 21.4249 10.4036 22.0107 10.9894C22.5964 11.5752 22.5964 12.5249 22.0107 13.1107L17.0607 18.0607C16.4749 18.6465 15.5251 18.6465 14.9393 18.0607C14.3536 17.4749 14.3536 16.5252 14.9393 15.9394L19.8893 10.9894Z" fill="white"/>
</svg>
