<svg width="32" height="33" viewBox="0 0 32 33" fill="none" xmlns="http://www.w3.org/2000/svg">
<path fill-rule="evenodd" clip-rule="evenodd" d="M11 3.5C11.5523 3.5 12 3.94772 12 4.5V6.5H19C19.5523 6.5 20 6.94772 20 7.5C20 8.05228 19.5523 8.5 19 8.5H15.9615C15.7352 11.4353 14.5177 14.214 12.5006 16.3735C12.5501 16.4097 12.5998 16.4455 12.6499 16.4809C14.3407 17.6766 16.3311 18.3683 18.3905 18.4828L21.1055 13.0528C21.2749 12.714 21.6212 12.5 22 12.5C22.3787 12.5 22.725 12.714 22.8944 13.0528L27.8849 23.0338C27.8892 23.0419 27.8933 23.05 27.8973 23.0581L27.9046 23.0731L29.8944 27.0528C30.1414 27.5468 29.9412 28.1474 29.4472 28.3944C28.9532 28.6414 28.3525 28.4412 28.1055 27.9472L26.3819 24.5H17.618L15.8944 27.9472C15.6474 28.4412 15.0467 28.6414 14.5528 28.3944C14.0588 28.1474 13.8586 27.5468 14.1055 27.0528L16.0963 23.0712C16.102 23.0592 16.1079 23.0474 16.1141 23.0357L17.4297 20.4045C15.3005 20.1452 13.2597 19.3617 11.4951 18.1139C11.3272 17.9951 11.1624 17.8726 11.0008 17.7464C8.72759 19.5215 5.91424 20.5 3 20.5C2.44772 20.5 2 20.0523 2 19.5C2 18.9477 2.44772 18.5 3 18.5C5.35217 18.5 7.62666 17.7466 9.50088 16.3735C8.28587 15.0727 7.34432 13.5291 6.74472 11.8331C6.56062 11.3124 6.8335 10.7411 7.3542 10.557C7.87489 10.3729 8.44624 10.6458 8.63034 11.1665C9.14397 12.6192 9.95413 13.9399 11.0007 15.0491C12.6948 13.2537 13.7313 10.9453 13.9545 8.5H3C2.44772 8.5 2 8.05228 2 7.5C2 6.94772 2.44772 6.5 3 6.5H10V4.5C10 3.94772 10.4477 3.5 11 3.5ZM19.8866 19.9628L18.618 22.5H25.3819L22 15.7361L19.9031 19.9299C19.8978 19.941 19.8923 19.9519 19.8866 19.9628Z" fill="white"/>
<path fill-rule="evenodd" clip-rule="evenodd" d="M11 4C10.7239 4 10.5 4.22386 10.5 4.5V6.5C10.5 6.77614 10.2761 7 10 7H3C2.72386 7 2.5 7.22386 2.5 7.5C2.5 7.77614 2.72386 8 3 8H13.9545C14.095 8 14.229 8.05912 14.3238 8.16289C14.4185 8.26666 14.4652 8.40551 14.4524 8.54544C14.2191 11.1019 13.1355 13.5152 11.3644 15.3922C11.2699 15.4923 11.1384 15.5491 11.0007 15.5491C10.8631 15.5491 10.7315 15.4923 10.6371 15.3922C9.54291 14.2327 8.69591 12.8519 8.15893 11.3331C8.06689 11.0728 7.78121 10.9363 7.52086 11.0284C7.26051 11.1204 7.12408 11.4061 7.21612 11.6665C7.79266 13.2972 8.69799 14.7814 9.86628 16.0322C9.96386 16.1367 10.0121 16.2779 9.99869 16.4203C9.98533 16.5626 9.91169 16.6924 9.79638 16.7769C7.83697 18.2124 5.4591 19 3 19C2.72386 19 2.5 19.2239 2.5 19.5C2.5 19.7761 2.72386 20 3 20C5.80214 20 8.5073 19.0591 10.6931 17.3523C10.8739 17.2111 11.1276 17.2111 11.3085 17.3523C11.4639 17.4736 11.6223 17.5914 11.7838 17.7056C13.4806 18.9055 15.4428 19.6588 17.4902 19.9081C17.6515 19.9278 17.7932 20.0246 17.8702 20.1678C17.9471 20.311 17.9496 20.4827 17.8769 20.6281L16.5568 23.2683C16.5538 23.2741 16.5507 23.2799 16.5479 23.2858L16.5436 23.2948L14.5528 27.2764C14.4293 27.5234 14.5294 27.8237 14.7764 27.9472C15.0234 28.0707 15.3237 27.9706 15.4472 27.7236L17.1708 24.2764C17.2555 24.107 17.4286 24 17.618 24H26.3819C26.5713 24 26.7445 24.107 26.8292 24.2764L28.5528 27.7236C28.6763 27.9706 28.9766 28.0707 29.2236 27.9472C29.4706 27.8237 29.5707 27.5234 29.4472 27.2764L27.4543 23.2906L27.4489 23.2794L27.4427 23.2672L27.4376 23.2575L22.4472 13.2764C22.3625 13.107 22.1894 13 22 13C21.8106 13 21.6375 13.107 21.5528 13.2764L18.8377 18.7064C18.7486 18.8848 18.5619 18.9931 18.3628 18.9821C16.2097 18.8624 14.1289 18.1392 12.3612 16.8892C12.3089 16.8521 12.2568 16.8147 12.2051 16.7768C12.0898 16.6923 12.0162 16.5625 12.0028 16.4202C11.9895 16.2779 12.0377 16.1366 12.1352 16.0322C14.0747 13.9558 15.2453 11.284 15.463 8.46156C15.4831 8.2011 15.7003 8 15.9615 8H19C19.2761 8 19.5 7.77614 19.5 7.5C19.5 7.22386 19.2761 7 19 7H12C11.7239 7 11.5 6.77614 11.5 6.5V4.5C11.5 4.22386 11.2761 4 11 4ZM9.5 4.5C9.5 3.67157 10.1716 3 11 3C11.8284 3 12.5 3.67157 12.5 4.5V6H19C19.8284 6 20.5 6.67157 20.5 7.5C20.5 8.32843 19.8284 9 19 9H16.4165C16.1161 11.6869 15.0146 14.2268 13.2506 16.285C14.7037 17.2362 16.3679 17.8106 18.0927 17.9604L20.6583 12.8292C20.9124 12.321 21.4318 12 22 12C22.5681 12 23.0875 12.321 23.3416 12.8292L28.3299 22.8058C28.332 22.8097 28.334 22.8137 28.3361 22.8177C28.3393 22.824 28.3425 22.8304 28.3457 22.8369L28.3476 22.8407L28.3533 22.8526L30.3416 26.8292C30.7121 27.5701 30.4118 28.4712 29.6708 28.8416C28.9298 29.2121 28.0288 28.9118 27.6583 28.1708L26.0729 25H17.927L16.3416 28.1708C15.9711 28.9118 15.0701 29.2121 14.3292 28.8416C13.5882 28.4712 13.2879 27.5701 13.6583 26.8292L15.6471 22.8516C15.6541 22.837 15.6614 22.8225 15.6689 22.8081L16.6741 20.7977C14.715 20.4548 12.846 19.6815 11.2065 18.5221C11.1374 18.4733 11.0688 18.4238 11.0008 18.3738C8.69635 20.0694 5.89616 21 3 21C2.17157 21 1.5 20.3284 1.5 19.5C1.5 18.6716 2.17157 18 3 18C5.05837 18 7.05444 17.3956 8.75094 16.2851C7.67412 15.0287 6.83119 13.5777 6.27331 11.9998C5.99717 11.2187 6.40648 10.3617 7.18753 10.0856C7.96858 9.80943 8.8256 10.2187 9.10174 10.9998C9.53079 12.2133 10.1766 13.3303 11.0007 14.2999C12.2836 12.7906 13.1106 10.9519 13.3924 9H3C2.17157 9 1.5 8.32843 1.5 7.5C1.5 6.67157 2.17157 6 3 6H9.5V4.5ZM22 15.2361C22.1894 15.2361 22.3625 15.3431 22.4472 15.5125L25.8292 22.2764C25.9067 22.4314 25.8984 22.6155 25.8073 22.7629C25.7162 22.9103 25.5552 23 25.3819 23H18.618C18.4447 23 18.2838 22.9103 18.1927 22.7629C18.1016 22.6155 18.0933 22.4314 18.1708 22.2764L19.4435 19.7309C19.4464 19.7255 19.4492 19.7201 19.4518 19.7146L19.4558 19.7062L21.5528 15.5125C21.6375 15.3431 21.8106 15.2361 22 15.2361ZM20.3522 20.1497C20.3456 20.1633 20.3389 20.1768 20.332 20.1901L19.427 22H24.5729L22 16.8541L20.3522 20.1497Z" fill="white"/>
</svg>
