<svg width="32" height="32" viewBox="0 0 32 32" fill="none" xmlns="http://www.w3.org/2000/svg">
<path fill-rule="evenodd" clip-rule="evenodd" d="M13.838 10.2789C13.6136 10.8238 13.4988 11.4076 13.5 11.9968L13.5 14.5003L11.5 14.5V13.5C11.5 12.1193 10.3807 11 9 11H4C2.61929 11 1.5 12.1193 1.5 13.5V18.5C1.5 19.8807 2.61929 21 4 21H9C10.3807 21 11.5 19.8807 11.5 18.5V17.5003H13.5L13.5 20.0029C13.4988 20.5922 13.6136 21.1759 13.838 21.7208C14.0636 22.2687 14.3954 22.7664 14.8144 23.1854C15.2333 23.6043 15.7311 23.9362 16.2789 24.1617C16.826 24.387 17.4122 24.5019 18.0038 24.4997H18.5V26C18.5 27.3807 19.6193 28.5 21 28.5H27C28.3807 28.5 29.5 27.3807 29.5 26V20C29.5 18.6193 28.3807 17.5 27 17.5H21C19.6193 17.5 18.5 18.6193 18.5 20V21.4997H17.9937C17.7973 21.5006 17.6027 21.4625 17.4211 21.3877C17.2395 21.3129 17.0745 21.2029 16.9357 21.0641C16.7968 20.9252 16.6868 20.7602 16.612 20.5786C16.5373 20.397 16.4992 20.2024 16.5 20.006L16.5 11.9937C16.4992 11.7973 16.5373 11.6027 16.612 11.4211C16.6868 11.2395 16.7968 11.0745 16.9357 10.9357C17.0745 10.7968 17.2395 10.6868 17.4211 10.612C17.6027 10.5373 17.7973 10.4992 17.9937 10.5L17.9958 10.5L18.5 10.5V12C18.5 13.3807 19.6193 14.5 21 14.5H27C28.3807 14.5 29.5 13.3807 29.5 12V6C29.5 4.61929 28.3807 3.5 27 3.5H21C19.6193 3.5 18.5 4.61929 18.5 6V7.50003H18.0028C17.4116 7.498 16.8257 7.61286 16.2789 7.838C15.7311 8.06358 15.2333 8.39542 14.8144 8.81436C14.3954 9.2333 14.0636 9.73105 13.838 10.2789ZM4.5 14V18H8.5V14H4.5ZM21.5 25.5V20.5H26.5V25.5H21.5ZM21.5 6.5V11.5H26.5V6.5H21.5Z" fill="white"/>
</svg>
