<svg width="32" height="33" viewBox="0 0 32 33" fill="none" xmlns="http://www.w3.org/2000/svg">
<path d="M15.4258 4.19194C15.6027 4.1186 15.7966 4.07812 16 4.07812C16.4126 4.07812 16.7863 4.24471 17.0575 4.51429L17.0607 4.51746L22.3107 9.76747C22.8964 10.3533 22.8964 11.303 22.3107 11.8888C21.7249 12.4746 20.7751 12.4746 20.1893 11.8888L17.5 9.19945V19.5781C17.5 20.4066 16.8284 21.0781 16 21.0781C15.1716 21.0781 14.5 20.4066 14.5 19.5781V9.19945L11.8107 11.8888C11.2249 12.4746 10.2751 12.4746 9.68934 11.8888C9.10355 11.303 9.10355 10.3533 9.68934 9.76747L14.939 4.51776L14.9425 4.51429C15.0856 4.37205 15.2502 4.2646 15.4258 4.19194Z" fill="white"/>
<path d="M3.5 19.5781C3.5 18.7497 4.17157 18.0781 5 18.0781C5.82843 18.0781 6.5 18.7497 6.5 19.5781V26.0781H25.5V19.5781C25.5 18.7497 26.1716 18.0781 27 18.0781C27.8284 18.0781 28.5 18.7497 28.5 19.5781V26.5781C28.5 27.2412 28.2366 27.8771 27.7678 28.3459C27.2989 28.8147 26.663 29.0781 26 29.0781H6C5.33696 29.0781 4.70108 28.8147 4.23223 28.3459C3.76339 27.8771 3.5 27.2412 3.5 26.5781V19.5781Z" fill="white"/>
</svg>
