<svg width="34" height="33" viewBox="0 0 34 33" fill="none" xmlns="http://www.w3.org/2000/svg">
<path fill-rule="evenodd" clip-rule="evenodd" d="M12.899 21.5C14.1955 20.2295 15 18.4587 15 16.5C15 12.634 11.866 9.5 8 9.5C4.13401 9.5 1 12.634 1 16.5C1 20.366 4.13401 23.5 8 23.5H26C29.866 23.5 33 20.366 33 16.5C33 12.634 29.866 9.5 26 9.5C22.134 9.5 19 12.634 19 16.5C19 18.4587 19.8045 20.2295 21.101 21.5H12.899ZM8 11.5C5.23858 11.5 3 13.7386 3 16.5C3 19.2614 5.23858 21.5 8 21.5C10.7614 21.5 13 19.2614 13 16.5C13 13.7386 10.7614 11.5 8 11.5ZM26 21.5C28.7614 21.5 31 19.2614 31 16.5C31 13.7386 28.7614 11.5 26 11.5C23.2386 11.5 21 13.7386 21 16.5C21 19.2614 23.2386 21.5 26 21.5Z" fill="white"/>
<path fill-rule="evenodd" clip-rule="evenodd" d="M0.5 16.5C0.5 12.3579 3.85786 9 8 9C12.1421 9 15.5 12.3579 15.5 16.5C15.5 18.1882 14.9418 19.7467 14.0005 21H19.9995C19.0582 19.7467 18.5 18.1882 18.5 16.5C18.5 12.3579 21.8579 9 26 9C30.1421 9 33.5 12.3579 33.5 16.5C33.5 20.6421 30.1421 24 26 24H8C3.85786 24 0.5 20.6421 0.5 16.5ZM8 10C4.41015 10 1.5 12.9101 1.5 16.5C1.5 20.0899 4.41015 23 8 23H26C29.5899 23 32.5 20.0899 32.5 16.5C32.5 12.9101 29.5899 10 26 10C22.4101 10 19.5 12.9101 19.5 16.5C19.5 18.3189 20.2464 19.9625 21.451 21.1429C21.5961 21.2851 21.6407 21.5009 21.5639 21.689C21.4871 21.8771 21.3042 22 21.101 22H12.899C12.6958 22 12.5129 21.8771 12.4361 21.689C12.3593 21.5009 12.4039 21.2851 12.549 21.1429C13.7536 19.9625 14.5 18.3189 14.5 16.5C14.5 12.9101 11.5899 10 8 10ZM2.5 16.5C2.5 13.4624 4.96243 11 8 11C11.0376 11 13.5 13.4624 13.5 16.5C13.5 19.5376 11.0376 22 8 22C4.96243 22 2.5 19.5376 2.5 16.5ZM8 12C5.51472 12 3.5 14.0147 3.5 16.5C3.5 18.9853 5.51472 21 8 21C10.4853 21 12.5 18.9853 12.5 16.5C12.5 14.0147 10.4853 12 8 12ZM20.5 16.5C20.5 13.4624 22.9624 11 26 11C29.0376 11 31.5 13.4624 31.5 16.5C31.5 19.5376 29.0376 22 26 22C22.9624 22 20.5 19.5376 20.5 16.5ZM26 12C23.5147 12 21.5 14.0147 21.5 16.5C21.5 18.9853 23.5147 21 26 21C28.4853 21 30.5 18.9853 30.5 16.5C30.5 14.0147 28.4853 12 26 12Z" fill="white"/>
</svg>
