<svg width="32" height="33" viewBox="0 0 32 33" fill="none" xmlns="http://www.w3.org/2000/svg">
<path fill-rule="evenodd" clip-rule="evenodd" d="M28 6.42188C28.5523 6.42188 29 6.86959 29 7.42188V25.4219C29 25.9742 28.5523 26.4219 28 26.4219H4C3.44772 26.4219 3 25.9742 3 25.4219V7.42188C3 6.86959 3.44772 6.42188 4 6.42188H28ZM5 12.4219V8.42188H15V12.4219H5ZM5 14.4219V18.4219H9V14.4219H5ZM5 20.4219V24.4219H15V20.4219H5ZM17 24.4219H27V20.4219H17V24.4219ZM27 18.4219V14.4219H23V18.4219H27ZM27 12.4219H17V8.42188H27V12.4219ZM21 14.4219V18.4219H11V14.4219H21Z" fill="white"/>
<path fill-rule="evenodd" clip-rule="evenodd" d="M4 6.92188C3.72386 6.92188 3.5 7.14573 3.5 7.42188V25.4219C3.5 25.698 3.72386 25.9219 4 25.9219H28C28.2761 25.9219 28.5 25.698 28.5 25.4219V7.42188C28.5 7.14573 28.2761 6.92188 28 6.92188H4ZM2.5 7.42188C2.5 6.59345 3.17157 5.92188 4 5.92188H28C28.8284 5.92188 29.5 6.59345 29.5 7.42188V25.4219C29.5 26.2503 28.8284 26.9219 28 26.9219H4C3.17157 26.9219 2.5 26.2503 2.5 25.4219V7.42188ZM4.5 8.42188C4.5 8.14573 4.72386 7.92188 5 7.92188H15C15.2761 7.92188 15.5 8.14573 15.5 8.42188V12.4219C15.5 12.698 15.2761 12.9219 15 12.9219H5C4.72386 12.9219 4.5 12.698 4.5 12.4219V8.42188ZM5.5 8.92188V11.9219H14.5V8.92188H5.5ZM16.5 8.42188C16.5 8.14573 16.7239 7.92188 17 7.92188H27C27.2761 7.92188 27.5 8.14573 27.5 8.42188V12.4219C27.5 12.698 27.2761 12.9219 27 12.9219H17C16.7239 12.9219 16.5 12.698 16.5 12.4219V8.42188ZM17.5 8.92188V11.9219H26.5V8.92188H17.5ZM4.5 14.4219C4.5 14.1457 4.72386 13.9219 5 13.9219H9C9.27614 13.9219 9.5 14.1457 9.5 14.4219V18.4219C9.5 18.698 9.27614 18.9219 9 18.9219H5C4.72386 18.9219 4.5 18.698 4.5 18.4219V14.4219ZM5.5 14.9219V17.9219H8.5V14.9219H5.5ZM10.5 14.4219C10.5 14.1457 10.7239 13.9219 11 13.9219H21C21.2761 13.9219 21.5 14.1457 21.5 14.4219V18.4219C21.5 18.698 21.2761 18.9219 21 18.9219H11C10.7239 18.9219 10.5 18.698 10.5 18.4219V14.4219ZM11.5 14.9219V17.9219H20.5V14.9219H11.5ZM22.5 14.4219C22.5 14.1457 22.7239 13.9219 23 13.9219H27C27.2761 13.9219 27.5 14.1457 27.5 14.4219V18.4219C27.5 18.698 27.2761 18.9219 27 18.9219H23C22.7239 18.9219 22.5 18.698 22.5 18.4219V14.4219ZM23.5 14.9219V17.9219H26.5V14.9219H23.5ZM4.5 20.4219C4.5 20.1457 4.72386 19.9219 5 19.9219H15C15.2761 19.9219 15.5 20.1457 15.5 20.4219V24.4219C15.5 24.698 15.2761 24.9219 15 24.9219H5C4.72386 24.9219 4.5 24.698 4.5 24.4219V20.4219ZM5.5 20.9219V23.9219H14.5V20.9219H5.5ZM16.5 20.4219C16.5 20.1457 16.7239 19.9219 17 19.9219H27C27.2761 19.9219 27.5 20.1457 27.5 20.4219V24.4219C27.5 24.698 27.2761 24.9219 27 24.9219H17C16.7239 24.9219 16.5 24.698 16.5 24.4219V20.4219ZM17.5 20.9219V23.9219H26.5V20.9219H17.5Z" fill="white"/>
</svg>
