<svg width="32" height="33" viewBox="0 0 32 33" fill="none" xmlns="http://www.w3.org/2000/svg">
<path fill-rule="evenodd" clip-rule="evenodd" d="M2.5 15.0781C2.5 8.45071 7.87258 3.07812 14.5 3.07812C21.1274 3.07812 26.5 8.45071 26.5 15.0781C26.5 17.8506 25.5592 20.4046 23.9799 22.4364L29.0607 27.5173C29.6465 28.1031 29.6465 29.0528 29.0607 29.6386C28.4749 30.2244 27.5252 30.2244 26.9394 29.6386L21.8586 24.5578C19.8267 26.1372 17.2726 27.0781 14.5 27.0781C7.87258 27.0781 2.5 21.7055 2.5 15.0781ZM14.5 6.07812C9.52944 6.07812 5.5 10.1076 5.5 15.0781C5.5 20.0487 9.52944 24.0781 14.5 24.0781C19.4706 24.0781 23.5 20.0487 23.5 15.0781C23.5 10.1076 19.4706 6.07812 14.5 6.07812ZM9 15.0781C9 14.2497 9.67157 13.5781 10.5 13.5781H18.5C19.3284 13.5781 20 14.2497 20 15.0781C20 15.9066 19.3284 16.5781 18.5 16.5781H10.5C9.67157 16.5781 9 15.9066 9 15.0781Z" fill="white"/>
</svg>
