<svg width="32" height="33" viewBox="0 0 32 33" fill="none" xmlns="http://www.w3.org/2000/svg">
<path fill-rule="evenodd" clip-rule="evenodd" d="M14.5 3.07812C7.87258 3.07812 2.5 8.45071 2.5 15.0781C2.5 21.7055 7.87258 27.0781 14.5 27.0781C17.2726 27.0781 19.8267 26.1372 21.8586 24.5578L26.9394 29.6386C27.5252 30.2244 28.4749 30.2244 29.0607 29.6386C29.6465 29.0528 29.6465 28.1031 29.0607 27.5173L23.9799 22.4364C25.5592 20.4046 26.5 17.8506 26.5 15.0781C26.5 8.45071 21.1274 3.07812 14.5 3.07812ZM14.5 6.07812C9.52944 6.07812 5.5 10.1076 5.5 15.0781C5.5 20.0487 9.52944 24.0781 14.5 24.0781C19.4706 24.0781 23.5 20.0487 23.5 15.0781C23.5 10.1076 19.4706 6.07812 14.5 6.07812ZM14.5 9.57812C13.6716 9.57812 13 10.2497 13 11.0781V13.5781H10.5C9.67157 13.5781 9 14.2497 9 15.0781C9 15.9066 9.67157 16.5781 10.5 16.5781H13V19.0781C13 19.9066 13.6716 20.5781 14.5 20.5781C15.3284 20.5781 16 19.9066 16 19.0781V16.5781H18.5C19.3284 16.5781 20 15.9066 20 15.0781C20 14.2497 19.3284 13.5781 18.5 13.5781H16V11.0781C16 10.2497 15.3284 9.57812 14.5 9.57812Z" fill="white"/>
</svg>
