<svg width="32" height="33" viewBox="0 0 32 33" fill="none" xmlns="http://www.w3.org/2000/svg">
<path d="M16.0002 8.58057C11.4493 8.58057 7.08108 10.3712 3.83961 13.5656C3.44623 13.9532 2.81308 13.9486 2.42543 13.5552C2.03778 13.1618 2.04241 12.5287 2.43579 12.141C6.05145 8.57793 10.9239 6.58057 16.0002 6.58057C21.0765 6.58057 25.9489 8.57793 29.5646 12.141C29.958 12.5287 29.9626 13.1618 29.575 13.5552C29.1873 13.9486 28.5542 13.9532 28.1608 13.5656C24.9193 10.3712 20.5511 8.58057 16.0002 8.58057Z" fill="white"/>
<path d="M8.07363 17.8066C10.1936 15.738 13.0382 14.5801 16.0002 14.5801C18.9622 14.5801 21.8069 15.738 23.9269 17.8066C24.3221 18.1923 24.9553 18.1845 25.341 17.7892C25.7267 17.394 25.7189 16.7608 25.3236 16.3751C22.8301 13.942 19.4842 12.5801 16.0002 12.5801C12.5163 12.5801 9.17041 13.942 6.67686 16.3751C6.28158 16.7608 6.27381 17.394 6.65952 17.7892C7.04522 18.1845 7.67834 18.1923 8.07363 17.8066Z" fill="white"/>
<path d="M12.3051 22.0621C13.299 21.1086 14.623 20.5762 16.0003 20.5762C17.3776 20.5762 18.7016 21.1086 19.6955 22.0621C20.094 22.4445 20.727 22.4314 21.1094 22.0328C21.4917 21.6343 21.4786 21.0013 21.0801 20.6189C19.7138 19.3081 17.8937 18.5762 16.0003 18.5762C14.1069 18.5762 12.2868 19.3081 10.9205 20.6189C10.522 21.0013 10.5088 21.6343 10.8912 22.0328C11.2735 22.4314 11.9066 22.4445 12.3051 22.0621Z" fill="white"/>
<path d="M17.5002 25.5781C17.5002 26.4066 16.8287 27.0781 16.0002 27.0781C15.1718 27.0781 14.5002 26.4066 14.5002 25.5781C14.5002 24.7497 15.1718 24.0781 16.0002 24.0781C16.8287 24.0781 17.5002 24.7497 17.5002 25.5781Z" fill="white"/>
<path fill-rule="evenodd" clip-rule="evenodd" d="M16.0002 7.08057C11.0552 7.08057 6.30886 9.02625 2.78674 12.4972C2.59005 12.691 2.58774 13.0076 2.78156 13.2043C2.97539 13.4009 3.29196 13.4033 3.48865 13.2094C6.82367 9.9229 11.3179 8.08057 16.0002 8.08057C20.6825 8.08057 25.1767 9.9229 28.5117 13.2094C28.7084 13.4033 29.025 13.4009 29.2188 13.2043C29.4127 13.0076 29.4103 12.691 29.2136 12.4972C25.6915 9.02625 20.9451 7.08057 16.0002 7.08057ZM2.08483 11.7849C5.79405 8.12961 10.7926 6.08057 16.0002 6.08057C21.2078 6.08057 26.2063 8.12961 29.9156 11.7849C30.5056 12.3664 30.5126 13.3161 29.9311 13.9062C29.3496 14.4962 28.3999 14.5032 27.8098 13.9217C24.6619 10.8195 20.4198 9.08057 16.0002 9.08057C11.5806 9.08057 7.33848 10.8195 4.19056 13.9217C3.6005 14.5032 2.65078 14.4962 2.0693 13.9062C1.48782 13.3161 1.49477 12.3664 2.08483 11.7849ZM6.32767 16.0173C8.91461 13.493 12.3858 12.0801 16.0002 12.0801C19.6147 12.0801 23.0859 13.493 25.6728 16.0173C26.2657 16.5958 26.2774 17.5455 25.6988 18.1384C25.1203 18.7314 24.1706 18.743 23.5777 18.1644C21.5511 16.187 18.8318 15.0801 16.0002 15.0801C13.1687 15.0801 10.4494 16.187 8.42282 18.1644C7.82989 18.743 6.88021 18.7314 6.30165 18.1384C5.7231 17.5455 5.73475 16.5958 6.32767 16.0173ZM16.0002 13.0801C12.6468 13.0801 9.42621 14.391 7.02605 16.733C6.82841 16.9258 6.82453 17.2424 7.01738 17.44C7.21023 17.6377 7.52679 17.6416 7.72443 17.4487C9.9378 15.289 12.9078 14.0801 16.0002 14.0801C19.0927 14.0801 22.0627 15.289 24.2761 17.4487C24.4737 17.6416 24.7903 17.6377 24.9831 17.44C25.176 17.2424 25.1721 16.9258 24.9744 16.733C22.5743 14.391 19.3537 13.0801 16.0002 13.0801ZM10.5743 20.2581C12.0337 18.858 13.9779 18.0762 16.0003 18.0762C18.0227 18.0762 19.9669 18.858 21.4263 20.2581C22.024 20.8316 22.0437 21.7812 21.4702 22.379C20.8967 22.9768 19.9471 22.9964 19.3493 22.4229C18.4486 21.5587 17.2486 21.0762 16.0003 21.0762C14.752 21.0762 13.552 21.5587 12.6513 22.4229C12.0535 22.9964 11.1039 22.9768 10.5304 22.379C9.95686 21.7812 9.97654 20.8316 10.5743 20.2581ZM16.0003 19.0762C14.2359 19.0762 12.5398 19.7582 11.2666 20.9797C11.0674 21.1709 11.0608 21.4874 11.252 21.6867C11.4432 21.8859 11.7597 21.8925 11.9589 21.7013C13.0459 20.6585 14.494 20.0762 16.0003 20.0762C17.5066 20.0762 18.9547 20.6585 20.0416 21.7013C20.2409 21.8925 20.5574 21.8859 20.7486 21.6867C20.9398 21.4874 20.9332 21.1709 20.7339 20.9797C19.4608 19.7582 17.7647 19.0762 16.0003 19.0762ZM16.0002 24.5781C15.448 24.5781 15.0002 25.0258 15.0002 25.5781C15.0002 26.1304 15.448 26.5781 16.0002 26.5781C16.5525 26.5781 17.0002 26.1304 17.0002 25.5781C17.0002 25.0258 16.5525 24.5781 16.0002 24.5781ZM14.0002 25.5781C14.0002 24.4736 14.8957 23.5781 16.0002 23.5781C17.1048 23.5781 18.0002 24.4736 18.0002 25.5781C18.0002 26.6827 17.1048 27.5781 16.0002 27.5781C14.8957 27.5781 14.0002 26.6827 14.0002 25.5781Z" fill="white"/>
</svg>
