<svg width="32" height="33" viewBox="0 0 32 33" fill="none" xmlns="http://www.w3.org/2000/svg">
<path d="M12.3046 22.0621C13.2985 21.1086 14.6225 20.5762 15.9998 20.5762C17.3771 20.5762 18.7011 21.1086 19.695 22.0621C20.0935 22.4445 20.7266 22.4314 21.1089 22.0328C21.4913 21.6343 21.4781 21.0013 21.0796 20.6189C19.7133 19.3081 17.8932 18.5762 15.9998 18.5762C14.1064 18.5762 12.2863 19.3081 10.92 20.6189C10.5215 21.0013 10.5084 21.6343 10.8907 22.0328C11.2731 22.4314 11.9061 22.4445 12.3046 22.0621Z" fill="white"/>
<path d="M17.4998 25.5781C17.4998 26.4066 16.8282 27.0781 15.9998 27.0781C15.1713 27.0781 14.4998 26.4066 14.4998 25.5781C14.4998 24.7497 15.1713 24.0781 15.9998 24.0781C16.8282 24.0781 17.4998 24.7497 17.4998 25.5781Z" fill="white"/>
<path fill-rule="evenodd" clip-rule="evenodd" d="M10.5738 20.2581C12.0332 18.858 13.9774 18.0762 15.9998 18.0762C18.0222 18.0762 19.9664 18.858 21.4258 20.2581C22.0236 20.8316 22.0432 21.7812 21.4697 22.379C20.8962 22.9768 19.9466 22.9964 19.3488 22.4229C18.4481 21.5587 17.2481 21.0762 15.9998 21.0762C14.7515 21.0762 13.5515 21.5587 12.6508 22.4229C12.053 22.9964 11.1034 22.9768 10.5299 22.379C9.95638 21.7812 9.97605 20.8316 10.5738 20.2581ZM15.9998 19.0762C14.2354 19.0762 12.5393 19.7582 11.2662 20.9797C11.0669 21.1709 11.0603 21.4874 11.2515 21.6867C11.4427 21.8859 11.7592 21.8925 11.9585 21.7013C13.0454 20.6585 14.4935 20.0762 15.9998 20.0762C17.5061 20.0762 18.9542 20.6585 20.0412 21.7013C20.2404 21.8925 20.5569 21.8859 20.7481 21.6867C20.9393 21.4874 20.9327 21.1709 20.7335 20.9797C19.4603 19.7582 17.7642 19.0762 15.9998 19.0762ZM15.9998 24.5781C15.4475 24.5781 14.9998 25.0258 14.9998 25.5781C14.9998 26.1304 15.4475 26.5781 15.9998 26.5781C16.552 26.5781 16.9998 26.1304 16.9998 25.5781C16.9998 25.0258 16.552 24.5781 15.9998 24.5781ZM13.9998 25.5781C13.9998 24.4736 14.8952 23.5781 15.9998 23.5781C17.1043 23.5781 17.9998 24.4736 17.9998 25.5781C17.9998 26.6827 17.1043 27.5781 15.9998 27.5781C14.8952 27.5781 13.9998 26.6827 13.9998 25.5781Z" fill="white"/>
</svg>
