<svg width="32" height="33" viewBox="0 0 32 33" fill="none" xmlns="http://www.w3.org/2000/svg">
<path d="M16 14.5801C13.038 14.5801 10.1934 15.738 8.07338 17.8066C7.6781 18.1923 7.04498 18.1845 6.65927 17.7892C6.27357 17.394 6.28134 16.7608 6.67662 16.3751C9.17016 13.942 12.5161 12.5801 16 12.5801C19.4839 12.5801 22.8298 13.942 25.3234 16.3751C25.7187 16.7608 25.7264 17.394 25.3407 17.7892C24.955 18.1845 24.3219 18.1923 23.9266 17.8066C21.8066 15.738 18.962 14.5801 16 14.5801Z" fill="white"/>
<path d="M16 20.5762C14.6227 20.5762 13.2987 21.1086 12.3049 22.0621C11.9063 22.4445 11.2733 22.4314 10.8909 22.0328C10.5086 21.6343 10.5217 21.0013 10.9202 20.6189C12.2865 19.3081 14.1066 18.5762 16 18.5762C17.8935 18.5762 19.7136 19.3081 21.0799 20.6189C21.4784 21.0013 21.4915 21.6343 21.1092 22.0328C20.7268 22.4314 20.0938 22.4445 19.6952 22.0621C18.7014 21.1086 17.3774 20.5762 16 20.5762Z" fill="white"/>
<path d="M17.5 25.5781C17.5 26.4066 16.8284 27.0781 16 27.0781C15.1716 27.0781 14.5 26.4066 14.5 25.5781C14.5 24.7497 15.1716 24.0781 16 24.0781C16.8284 24.0781 17.5 24.7497 17.5 25.5781Z" fill="white"/>
<path fill-rule="evenodd" clip-rule="evenodd" d="M16 13.0801C12.6466 13.0801 9.42596 14.391 7.02581 16.733C6.82817 16.9258 6.82428 17.2424 7.01714 17.44C7.20999 17.6377 7.52655 17.6416 7.72419 17.4487C9.93756 15.289 12.9075 14.0801 16 14.0801C19.0925 14.0801 22.0624 15.289 24.2758 17.4487C24.4735 17.6416 24.79 17.6377 24.9829 17.44C25.1757 17.2424 25.1718 16.9258 24.9742 16.733C22.574 14.391 19.3534 13.0801 16 13.0801ZM6.32743 16.0173C8.91436 13.493 12.3856 12.0801 16 12.0801C19.6144 12.0801 23.0856 13.493 25.6726 16.0173C26.2655 16.5958 26.2771 17.5455 25.6986 18.1384C25.12 18.7314 24.1704 18.743 23.5774 18.1644C21.5508 16.187 18.8315 15.0801 16 15.0801C13.1685 15.0801 10.4492 16.187 8.42257 18.1644C7.82964 18.743 6.87997 18.7314 6.30141 18.1384C5.72285 17.5455 5.7345 16.5958 6.32743 16.0173ZM16 19.0762C14.2357 19.0762 12.5396 19.7582 11.2664 20.9797C11.0671 21.1709 11.0606 21.4874 11.2517 21.6867C11.4429 21.8859 11.7594 21.8925 11.9587 21.7013C13.0457 20.6585 14.4937 20.0762 16 20.0762C17.5064 20.0762 18.9544 20.6585 20.0414 21.7013C20.2407 21.8925 20.5572 21.8859 20.7484 21.6867C20.9395 21.4874 20.933 21.1709 20.7337 20.9797C19.4605 19.7582 17.7644 19.0762 16 19.0762ZM10.5741 20.2581C12.0335 18.858 13.9776 18.0762 16 18.0762C18.0225 18.0762 19.9666 18.858 21.426 20.2581C22.0238 20.8316 22.0435 21.7812 21.47 22.379C20.8964 22.9768 19.9469 22.9964 19.3491 22.4229C18.4483 21.5587 17.2483 21.0762 16 21.0762C14.7518 21.0762 13.5518 21.5587 12.651 22.4229C12.0532 22.9964 11.1037 22.9768 10.5301 22.379C9.95662 21.7812 9.97629 20.8316 10.5741 20.2581ZM16 24.5781C15.4477 24.5781 15 25.0258 15 25.5781C15 26.1304 15.4477 26.5781 16 26.5781C16.5523 26.5781 17 26.1304 17 25.5781C17 25.0258 16.5523 24.5781 16 24.5781ZM14 25.5781C14 24.4736 14.8954 23.5781 16 23.5781C17.1046 23.5781 18 24.4736 18 25.5781C18 26.6827 17.1046 27.5781 16 27.5781C14.8954 27.5781 14 26.6827 14 25.5781Z" fill="white"/>
</svg>
