<svg width="32" height="33" viewBox="0 0 32 33" fill="none" xmlns="http://www.w3.org/2000/svg">
<path d="M16 27.0781C16.8284 27.0781 17.5 26.4066 17.5 25.5781C17.5 24.7497 16.8284 24.0781 16 24.0781C15.1716 24.0781 14.5 24.7497 14.5 25.5781C14.5 26.4066 15.1716 27.0781 16 27.0781Z" fill="white"/>
<path fill-rule="evenodd" clip-rule="evenodd" d="M14 25.5781C14 24.4736 14.8954 23.5781 16 23.5781C17.1046 23.5781 18 24.4736 18 25.5781C18 26.6827 17.1046 27.5781 16 27.5781C14.8954 27.5781 14 26.6827 14 25.5781ZM16 24.5781C15.4477 24.5781 15 25.0258 15 25.5781C15 26.1304 15.4477 26.5781 16 26.5781C16.5523 26.5781 17 26.1304 17 25.5781C17 25.0258 16.5523 24.5781 16 24.5781Z" fill="white"/>
</svg>
