<svg width="32" height="33" viewBox="0 0 32 33" fill="none" xmlns="http://www.w3.org/2000/svg">
<path d="M5.32758 4.8382C5.73624 4.46669 6.36868 4.49681 6.74019 4.90546L20.7383 20.3033C20.7846 20.3457 20.826 20.3915 20.8626 20.4401L26.7402 26.9055C27.1117 27.3141 27.0816 27.9466 26.6729 28.3181C26.2643 28.6896 25.6318 28.6595 25.2603 28.2508L19.3519 21.7516C18.3516 20.953 17.0975 20.538 15.8162 20.5835C14.5035 20.6301 13.2535 21.1569 12.3034 22.064C11.9039 22.4454 11.2709 22.4308 10.8895 22.0313C10.5081 21.6319 10.5228 20.9989 10.9222 20.6175C12.2267 19.372 13.9429 18.6487 15.7453 18.5847C15.9921 18.576 16.2382 18.5796 16.4827 18.5955L13.1553 14.9353C11.2435 15.4315 9.49103 16.4197 8.07462 17.8056C7.67987 18.1918 7.04674 18.185 6.66049 17.7902C6.27423 17.3955 6.28112 16.7623 6.67587 16.3761C8.09517 14.9873 9.80129 13.9381 11.6658 13.2968L8.79618 10.1403C6.95784 10.9806 5.28017 12.139 3.84131 13.5638C3.44887 13.9524 2.81571 13.9493 2.42711 13.5568C2.03852 13.1644 2.04164 12.5312 2.43408 12.1426C3.88929 10.7017 5.56333 9.50481 7.39134 8.59494L5.26031 6.25081C4.8888 5.84215 4.91892 5.2097 5.32758 4.8382Z" fill="white"/>
<path d="M28.1588 13.5634C24.9262 10.3586 20.555 8.56594 16.003 8.57819L15.9991 8.57819C15.1735 8.57714 14.3489 8.63632 13.5319 8.75526C12.9854 8.83483 12.4778 8.45628 12.3983 7.90976C12.3187 7.36324 12.6972 6.85569 13.2438 6.77613C14.1563 6.64327 15.0774 6.57711 15.9996 6.57819C21.0801 6.56504 25.9588 8.56609 29.5669 12.143C29.9591 12.5319 29.9618 13.165 29.573 13.5572C29.1842 13.9494 28.551 13.9522 28.1588 13.5634Z" fill="white"/>
<path d="M18.042 13.713C18.1748 13.1769 18.717 12.8499 19.2531 12.9827C21.5448 13.5503 23.6422 14.7228 25.3261 16.3776C25.72 16.7647 25.7255 17.3979 25.3384 17.7918C24.9513 18.1857 24.3182 18.1912 23.9243 17.8041C22.4957 16.4002 20.7165 15.4056 18.7723 14.924C18.2362 14.7913 17.9092 14.249 18.042 13.713Z" fill="white"/>
<path d="M17.5002 25.5781C17.5002 26.4066 16.8287 27.0781 16.0002 27.0781C15.1718 27.0781 14.5002 26.4066 14.5002 25.5781C14.5002 24.7497 15.1718 24.0781 16.0002 24.0781C16.8287 24.0781 17.5002 24.7497 17.5002 25.5781Z" fill="white"/>
<path fill-rule="evenodd" clip-rule="evenodd" d="M6.37022 5.2418C6.18447 5.03747 5.86824 5.02241 5.66391 5.20817C5.45959 5.39392 5.44453 5.71014 5.63028 5.91447L8.20613 8.74791L7.61414 9.04256C5.8337 9.92875 4.20323 11.0945 2.78589 12.4979C2.58967 12.6922 2.58811 13.0088 2.7824 13.205C2.9767 13.4012 3.29328 13.4028 3.4895 13.2085C4.97016 11.7423 6.69656 10.5503 8.5883 9.68552L8.92047 9.53368L12.5467 13.5226L11.8284 13.7696C10.0338 14.3869 8.39165 15.3968 7.02556 16.7335C6.82818 16.9266 6.82474 17.2431 7.01787 17.4405C7.21099 17.6379 7.52755 17.6413 7.72493 17.4482C9.20381 16.0012 11.0336 14.9695 13.0297 14.4513L13.3221 14.3755L17.6848 19.1744L16.4504 19.0944C16.2225 19.0797 15.9931 19.0762 15.763 19.0844C14.083 19.1441 12.4834 19.8183 11.2675 20.9791C11.0678 21.1698 11.0605 21.4863 11.2512 21.686C11.4419 21.8858 11.7584 21.8931 11.9581 21.7024C12.9968 20.7107 14.3633 20.1347 15.7985 20.0838C17.1992 20.034 18.5702 20.4878 19.6638 21.3608L19.695 21.3857L25.6303 27.9145C25.816 28.1188 26.1323 28.1339 26.3366 27.9481C26.5409 27.7624 26.556 27.4461 26.3702 27.2418L20.477 20.7592L20.463 20.7407C20.4449 20.7166 20.4242 20.6937 20.4008 20.6723L20.3838 20.6568L6.37022 5.2418ZM4.99124 4.46823C5.60423 3.91097 6.5529 3.95614 7.11016 4.56913L21.0943 19.9516C21.1498 20.0041 21.2006 20.0602 21.2466 20.1192L27.1102 26.5691C27.6674 27.1821 27.6222 28.1308 27.0093 28.688C26.3963 29.2453 25.4476 29.2001 24.8903 28.5871L19.0094 22.1182C18.1075 21.4099 16.9828 21.0424 15.834 21.0831C14.6436 21.1254 13.5101 21.6031 12.6486 22.4257C12.0495 22.9978 11.1 22.9758 10.5279 22.3766C9.9558 21.7774 9.97777 20.8279 10.577 20.2559C11.8816 19.0102 13.572 18.2536 15.3625 18.1065L12.9917 15.4986C11.2768 15.9948 9.7065 16.9084 8.4243 18.163C7.83218 18.7423 6.88249 18.732 6.30311 18.1399C5.72373 17.5478 5.73406 16.5981 6.32619 16.0187C7.61827 14.7544 9.13947 13.7614 10.7998 13.0875L8.67469 10.7499C7.01851 11.5511 5.50378 12.6213 4.19312 13.9191C3.60445 14.502 2.65472 14.4973 2.07182 13.9086C1.48893 13.32 1.49361 12.3702 2.08227 11.7873C3.41891 10.4638 4.93548 9.34097 6.58424 8.45043L4.89034 6.58714C4.33308 5.97416 4.37826 5.02549 4.99124 4.46823ZM29.2148 12.4981C25.7008 9.01432 20.9491 7.06538 16.0009 7.07819L15.999 7.07819C15.1011 7.07714 14.2043 7.14155 13.3158 7.27091C13.0425 7.31069 12.8533 7.56447 12.893 7.83773C12.9328 8.11099 13.1866 8.30026 13.4599 8.26048C14.3008 8.13806 15.1495 8.07713 15.9992 8.07819M16.0017 8.07819C20.6859 8.06558 25.1842 9.91035 28.5108 13.2083C28.7069 13.4027 29.0235 13.4013 29.2179 13.2052C29.4123 13.0091 29.411 12.6925 29.2148 12.4981M15.9993 6.07819C21.2118 6.06495 26.2171 8.11808 29.9189 11.788C30.5072 12.3712 30.5113 13.3209 29.9281 13.9093C29.3448 14.4976 28.3951 14.5017 27.8068 13.9184C24.6681 10.8068 20.424 9.06629 16.0044 9.07819L15.9994 9.07819C15.1981 9.07717 14.3968 9.13461 13.6039 9.25005C12.7841 9.36939 12.0228 8.80158 11.9035 7.98179C11.7841 7.16201 12.3519 6.40069 13.1717 6.28134C14.108 6.14503 15.0531 6.07713 15.9993 6.07819ZM19.1329 13.468C18.8648 13.4016 18.5937 13.5651 18.5274 13.8332C18.461 14.1012 18.6244 14.3723 18.8925 14.4387C20.9235 14.9417 22.7823 15.9808 24.2747 17.4475C24.4717 17.641 24.7882 17.6383 24.9818 17.4413C25.1754 17.2444 25.1726 16.9278 24.9756 16.7342C23.3556 15.1421 21.3377 14.0141 19.1329 13.468ZM17.5567 13.5927C17.7558 12.7886 18.5692 12.2982 19.3733 12.4974C21.7519 13.0865 23.9288 14.3034 25.6766 16.021C26.2674 16.6017 26.2757 17.5514 25.695 18.1423C25.1144 18.7331 24.1647 18.7414 23.5738 18.1607C22.2091 16.8196 20.5094 15.8694 18.6521 15.4094C17.8479 15.2102 17.3575 14.3969 17.5567 13.5927ZM16.0002 24.5781C15.448 24.5781 15.0002 25.0258 15.0002 25.5781C15.0002 26.1304 15.448 26.5781 16.0002 26.5781C16.5525 26.5781 17.0002 26.1304 17.0002 25.5781C17.0002 25.0258 16.5525 24.5781 16.0002 24.5781ZM14.0002 25.5781C14.0002 24.4736 14.8957 23.5781 16.0002 23.5781C17.1048 23.5781 18.0002 24.4736 18.0002 25.5781C18.0002 26.6827 17.1048 27.5781 16.0002 27.5781C14.8957 27.5781 14.0002 26.6827 14.0002 25.5781Z" fill="white"/>
</svg>
