<svg width="32" height="33" viewBox="0 0 32 33" fill="none" xmlns="http://www.w3.org/2000/svg">
<path d="M28.7074 8.28523C29.0979 7.89471 29.0979 7.26154 28.7074 6.87102C28.3168 6.48049 27.6837 6.48049 27.2931 6.87102L25.0002 9.16391L22.7074 6.87102C22.3168 6.48049 21.6837 6.48049 21.2931 6.87102C20.9026 7.26154 20.9026 7.89471 21.2931 8.28523L23.586 10.5781L21.2931 12.871C20.9026 13.2615 20.9026 13.8947 21.2931 14.2852C21.6837 14.6758 22.3168 14.6758 22.7074 14.2852L25.0002 11.9923L27.2931 14.2852C27.6837 14.6758 28.3168 14.6758 28.7074 14.2852C29.0979 13.8947 29.0979 13.2615 28.7074 12.871L26.4145 10.5781L28.7074 8.28523Z" fill="white"/>
<path d="M12.3051 22.0621C13.299 21.1086 14.623 20.5762 16.0003 20.5762C17.3776 20.5762 18.7016 21.1086 19.6955 22.0621C20.094 22.4445 20.727 22.4314 21.1094 22.0328C21.4917 21.6343 21.4786 21.0013 21.0801 20.6189C19.7138 19.3081 17.8937 18.5762 16.0003 18.5762C14.1069 18.5762 12.2868 19.3081 10.9205 20.6189C10.522 21.0013 10.5088 21.6343 10.8912 22.0328C11.2735 22.4314 11.9066 22.4445 12.3051 22.0621Z" fill="white"/>
<path d="M3.84173 13.5634C7.07436 10.3586 11.4456 8.56594 15.9975 8.57819L16.0013 6.57819C10.9207 6.56492 6.04181 8.56598 2.43366 12.143C2.04145 12.5319 2.0387 13.165 2.42753 13.5572C2.81636 13.9494 3.44952 13.9522 3.84173 13.5634Z" fill="white"/>
<path d="M17.8339 14.7268C17.2297 14.6249 16.6179 14.5752 16.0052 14.5783L15.9962 14.5783C13.0343 14.5664 10.1877 15.7256 8.07674 17.8034C7.68315 18.1909 7.05 18.1859 6.66257 17.7923C6.27515 17.3987 6.28015 16.7655 6.67375 16.3781C9.1597 13.9311 12.5117 12.5654 15.9998 12.5783C16.7258 12.5749 17.4507 12.6339 18.1666 12.7547C18.7112 12.8466 19.0782 13.3625 18.9863 13.9071C18.8944 14.4517 18.3785 14.8187 17.8339 14.7268Z" fill="white"/>
<path d="M17.5002 25.5781C17.5002 26.4066 16.8287 27.0781 16.0002 27.0781C15.1718 27.0781 14.5002 26.4066 14.5002 25.5781C14.5002 24.7497 15.1718 24.0781 16.0002 24.0781C16.8287 24.0781 17.5002 24.7497 17.5002 25.5781Z" fill="white"/>
<path fill-rule="evenodd" clip-rule="evenodd" d="M2.08164 11.7879C5.78375 8.11775 10.7897 6.06458 16.0027 6.07819L16.5023 6.0795L16.4965 9.07953L15.9962 9.07819C11.5765 9.06629 7.33241 10.8068 4.19375 13.9184C3.60544 14.5017 2.6557 14.4976 2.07245 13.9092C1.48921 13.3209 1.49332 12.3712 2.08164 11.7879ZM15.5004 7.08355C10.7327 7.19839 6.18142 9.13164 2.78568 12.4981C2.58957 12.6925 2.5882 13.0091 2.78261 13.2052C2.97703 13.4013 3.29361 13.4027 3.48971 13.2083C6.69768 10.028 10.9952 8.19901 15.4985 8.08391L15.5004 7.08355ZM20.9396 6.51746C21.5254 5.93168 22.4751 5.93168 23.0609 6.51746L25.0002 8.4568L26.9396 6.51746C27.5254 5.93168 28.4751 5.93168 29.0609 6.51746C29.6467 7.10325 29.6467 8.053 29.0609 8.63879L27.1216 10.5781L29.0609 12.5175C29.6467 13.1033 29.6467 14.053 29.0609 14.6388C28.4751 15.2246 27.5254 15.2246 26.9396 14.6388L25.0002 12.6994L23.0609 14.6388C22.4751 15.2246 21.5254 15.2246 20.9396 14.6388C20.3538 14.053 20.3538 13.1033 20.9396 12.5175L22.8789 10.5781L20.9396 8.63879C20.3538 8.053 20.3538 7.10325 20.9396 6.51746ZM22.3538 7.22457C22.1585 7.02931 21.842 7.02931 21.6467 7.22457C21.4514 7.41983 21.4514 7.73642 21.6467 7.93168L24.2931 10.5781L21.6467 13.2246C21.4514 13.4198 21.4514 13.7364 21.6467 13.9317C21.842 14.1269 22.1585 14.1269 22.3538 13.9317L25.0002 11.2852L27.6467 13.9317C27.842 14.1269 28.1585 14.1269 28.3538 13.9317C28.5491 13.7364 28.5491 13.4198 28.3538 13.2246L25.7074 10.5781L28.3538 7.93168C28.5491 7.73642 28.5491 7.41983 28.3538 7.22457C28.1585 7.02931 27.842 7.02931 27.6467 7.22457L25.0002 9.87102L22.3538 7.22457ZM18.0834 13.2477C17.3958 13.1317 16.6994 13.075 16.0021 13.0783L15.9979 13.0783C12.6417 13.0659 9.41647 14.38 7.0245 16.7344C6.8277 16.9281 6.8252 17.2447 7.01891 17.4415C7.21262 17.6383 7.5292 17.6408 7.72599 17.4471C9.9304 15.2773 12.9029 14.0664 15.996 14.0783L16.0027 14.0783C16.6441 14.0751 17.2846 14.1271 17.9171 14.2338C18.1894 14.2797 18.4473 14.0962 18.4933 13.8239C18.5392 13.5516 18.3557 13.2937 18.0834 13.2477ZM15.9995 12.0783C16.7535 12.0749 17.5063 12.1363 18.2497 12.2617C19.0666 12.3995 19.6171 13.1734 19.4793 13.9903C19.3415 14.8072 18.5676 15.3577 17.7507 15.2199C17.1749 15.1227 16.5917 15.0753 16.0077 15.0783L15.9987 15.0783L15.9942 15.0783C13.1642 15.0669 10.4444 16.1745 8.42749 18.1598C7.8371 18.7409 6.88738 18.7334 6.30624 18.143C5.7251 17.5526 5.7326 16.6029 6.323 16.0218C8.90245 13.4827 12.3803 12.0655 15.9995 12.0783ZM10.5743 20.2581C12.0337 18.858 13.9779 18.0762 16.0003 18.0762C18.0227 18.0762 19.9669 18.858 21.4263 20.2581C22.024 20.8316 22.0437 21.7812 21.4702 22.379C20.8967 22.9768 19.9471 22.9964 19.3493 22.4229C18.4486 21.5587 17.2486 21.0762 16.0003 21.0762C14.752 21.0762 13.552 21.5587 12.6513 22.4229C12.0535 22.9964 11.1039 22.9768 10.5304 22.379C9.95686 21.7812 9.97654 20.8316 10.5743 20.2581ZM16.0003 19.0762C14.2359 19.0762 12.5398 19.7582 11.2666 20.9797C11.0674 21.1709 11.0608 21.4874 11.252 21.6867C11.4432 21.8859 11.7597 21.8925 11.9589 21.7013C13.0459 20.6585 14.494 20.0762 16.0003 20.0762C17.5066 20.0762 18.9547 20.6585 20.0416 21.7013C20.2409 21.8925 20.5574 21.8859 20.7486 21.6867C20.9398 21.4874 20.9332 21.1709 20.7339 20.9797C19.4608 19.7582 17.7647 19.0762 16.0003 19.0762ZM16.0002 24.5781C15.448 24.5781 15.0002 25.0258 15.0002 25.5781C15.0002 26.1304 15.448 26.5781 16.0002 26.5781C16.5525 26.5781 17.0002 26.1304 17.0002 25.5781C17.0002 25.0258 16.5525 24.5781 16.0002 24.5781ZM14.0002 25.5781C14.0002 24.4736 14.8957 23.5781 16.0002 23.5781C17.1048 23.5781 18.0002 24.4736 18.0002 25.5781C18.0002 26.6827 17.1048 27.5781 16.0002 27.5781C14.8957 27.5781 14.0002 26.6827 14.0002 25.5781Z" fill="white"/>
</svg>
