<svg width="32" height="32" viewBox="0 0 32 32" fill="none" xmlns="http://www.w3.org/2000/svg">
<path fill-rule="evenodd" clip-rule="evenodd" d="M18 20C18 19.4477 18.4477 19 19 19H25C25.3905 19 25.7453 19.2273 25.9085 19.5821C26.0717 19.9369 26.0134 20.3543 25.7593 20.6508L21.1742 26H25C25.5523 26 26 26.4477 26 27C26 27.5523 25.5523 28 25 28H19C18.6095 28 18.2547 27.7727 18.0915 27.4179C17.9283 27.0631 17.9866 26.6457 18.2408 26.3492L22.8258 21H19C18.4477 21 18 20.5523 18 20Z" fill="white"/>
<path fill-rule="evenodd" clip-rule="evenodd" d="M19 10.5C19 9.94772 19.4477 9.5 20 9.5H24C24.5523 9.5 25 9.94772 25 10.5C25 11.0523 24.5523 11.5 24 11.5H20C19.4477 11.5 19 11.0523 19 10.5Z" fill="white"/>
<path fill-rule="evenodd" clip-rule="evenodd" d="M22 4C22.4089 4 22.7766 4.24895 22.9285 4.62861L25.9285 12.1286C26.1336 12.6414 25.8842 13.2234 25.3714 13.4285C24.8586 13.6336 24.2766 13.3842 24.0715 12.8714L22 7.69258L19.9285 12.8714C19.7234 13.3842 19.1414 13.6336 18.6286 13.4285C18.1158 13.2234 17.8664 12.6414 18.0715 12.1286L21.0715 4.62861C21.2234 4.24895 21.5911 4 22 4Z" fill="white"/>
<path fill-rule="evenodd" clip-rule="evenodd" d="M5.29289 22.2929C5.68342 21.9024 6.31658 21.9024 6.70711 22.2929L10 25.5858L13.2929 22.2929C13.6834 21.9024 14.3166 21.9024 14.7071 22.2929C15.0976 22.6834 15.0976 23.3166 14.7071 23.7071L10.7071 27.7071C10.3166 28.0976 9.68342 28.0976 9.29289 27.7071L5.29289 23.7071C4.90237 23.3166 4.90237 22.6834 5.29289 22.2929Z" fill="white"/>
<path fill-rule="evenodd" clip-rule="evenodd" d="M10 4C10.5523 4 11 4.44772 11 5V27C11 27.5523 10.5523 28 10 28C9.44772 28 9 27.5523 9 27V5C9 4.44772 9.44772 4 10 4Z" fill="white"/>
<path fill-rule="evenodd" clip-rule="evenodd" d="M8.5 5C8.5 4.17157 9.17157 3.5 10 3.5C10.8284 3.5 11.5 4.17157 11.5 5V23.3787L12.9393 21.9393C13.5251 21.3536 14.4749 21.3536 15.0607 21.9393C15.6464 22.5251 15.6464 23.4749 15.0607 24.0607L11.0607 28.0607C10.9164 28.2049 10.7501 28.3136 10.5726 28.3868C10.4002 28.4581 10.2116 28.4981 10.0138 28.4999C10.0092 28.5 10.0046 28.5 10 28.5C9.99538 28.5 9.99076 28.5 9.98615 28.4999C9.6069 28.4965 9.22871 28.35 8.93934 28.0607L4.93934 24.0607C4.35355 23.4749 4.35355 22.5251 4.93934 21.9393C5.52513 21.3536 6.47487 21.3536 7.06066 21.9393L8.5 23.3787V5ZM8.5 24.7929L6.35355 22.6464C6.15829 22.4512 5.84171 22.4512 5.64645 22.6464C5.45118 22.8417 5.45118 23.1583 5.64645 23.3536L8.5 26.2071V24.7929ZM9.5 25.7929L9.64645 25.9393C9.74021 26.0331 9.86739 26.0858 10 26.0858C10.1326 26.0858 10.2598 26.0331 10.3536 25.9393L10.5 25.7929V27C10.5 27.1381 10.444 27.2631 10.3536 27.3536C10.2651 27.442 10.1436 27.4975 10.0092 27.4999C10.0062 27.5 10.0031 27.5 10 27.5C9.99137 27.5 9.98279 27.4998 9.97427 27.4993C9.91584 27.4964 9.86006 27.4834 9.80861 27.4621C9.74844 27.4371 9.69419 27.4007 9.64857 27.3557L9.64645 27.3536C9.55596 27.2631 9.5 27.1381 9.5 27V25.7929ZM11.5 26.2071L14.3536 23.3536C14.5488 23.1583 14.5488 22.8417 14.3536 22.6464C14.1583 22.4512 13.8417 22.4512 13.6464 22.6464L11.5 24.7929V26.2071ZM10.5 24.3787V5C10.5 4.72386 10.2761 4.5 10 4.5C9.72386 4.5 9.5 4.72386 9.5 5V24.3787L10 24.8787L10.5 24.3787ZM20.6073 4.44291C20.8351 3.87343 21.3866 3.5 22 3.5C22.6133 3.5 23.1649 3.87343 23.3927 4.44291L26.3927 11.9429C26.7004 12.7121 26.3263 13.585 25.5571 13.8927C24.7879 14.2004 23.9149 13.8263 23.6073 13.0571L23.1844 12H20.8155L20.3927 13.0571C20.085 13.8263 19.2121 14.2004 18.4429 13.8927C17.6737 13.585 17.2996 12.7121 17.6073 11.9429L20.6073 4.44291ZM21.2155 11H22.7844L22.3844 10H21.6155L21.2155 11ZM20.5385 10L20.1385 11H20C19.7239 11 19.5 10.7761 19.5 10.5C19.5 10.2239 19.7239 10 20 10H20.5385ZM23.0615 9L22.4642 7.50689C22.3883 7.31706 22.2044 7.19258 22 7.19258C21.7955 7.19258 21.6117 7.31706 21.5358 7.50689L20.9385 9H20C19.9524 9 19.9053 9.00222 19.8589 9.00655L21.5358 4.8143C21.6117 4.62448 21.7955 4.5 22 4.5C22.2044 4.5 22.3883 4.62448 22.4642 4.8143L24.1411 9.00655C24.0947 9.00222 24.0476 9 24 9H23.0615ZM23.4615 10L23.8615 11H24C24.2761 11 24.5 10.7761 24.5 10.5C24.5 10.2239 24.2761 10 24 10H23.4615ZM24.253 11.9788L24.5358 12.6857C24.6383 12.9421 24.9293 13.0668 25.1857 12.9642C25.4421 12.8617 25.5668 12.5707 25.4642 12.3143L25.1321 11.484C24.9096 11.7399 24.6018 11.9195 24.253 11.9788ZM18.8679 11.484C19.0904 11.7398 19.3982 11.9195 19.747 11.9788L19.4642 12.6857C19.3617 12.9421 19.0707 13.0668 18.8143 12.9642C18.5579 12.8617 18.4332 12.5707 18.5358 12.3143L18.8679 11.484ZM17.5 20C17.5 19.1716 18.1716 18.5 19 18.5H25C25.5858 18.5 26.118 18.841 26.3628 19.3732C26.6076 19.9054 26.5201 20.5314 26.1389 20.9762L22.2613 25.5H25C25.8284 25.5 26.5 26.1716 26.5 27C26.5 27.8284 25.8284 28.5 25 28.5H19C18.4142 28.5 17.882 28.159 17.6372 27.6268C17.3925 27.0946 17.4799 26.4686 17.8611 26.0238L21.7387 21.5H19C18.1716 21.5 17.5 20.8284 17.5 20ZM19 19.5C18.7239 19.5 18.5 19.7239 18.5 20C18.5 20.2761 18.7239 20.5 19 20.5H22.8258C23.0211 20.5 23.1985 20.6137 23.2801 20.7911C23.3616 20.9685 23.3325 21.1771 23.2054 21.3254L18.6204 26.6746C18.4933 26.8229 18.4642 27.0315 18.5458 27.2089C18.6274 27.3863 18.8047 27.5 19 27.5H25C25.2762 27.5 25.5 27.2761 25.5 27C25.5 26.7239 25.2762 26.5 25 26.5H21.1742C20.979 26.5 20.8016 26.3863 20.72 26.2089C20.6384 26.0315 20.6675 25.8229 20.7946 25.6746L25.3796 20.3254C25.5067 20.1771 25.5359 19.9685 25.4543 19.7911C25.3727 19.6137 25.1953 19.5 25 19.5H19Z" fill="white"/>
</svg>
