<svg width="32" height="32" viewBox="0 0 32 32" fill="none" xmlns="http://www.w3.org/2000/svg">
<path fill-rule="evenodd" clip-rule="evenodd" d="M18 20C18 19.4477 18.4478 19 19 19H25C25.3906 19 25.7454 19.2273 25.9086 19.5821C26.0717 19.9369 26.0135 20.3543 25.7593 20.6508L21.1743 26H25C25.5523 26 26 26.4477 26 27C26 27.5523 25.5523 28 25 28H19C18.6095 28 18.2547 27.7727 18.0915 27.4179C17.9283 27.0631 17.9866 26.6457 18.2408 26.3492L22.8258 21H19C18.4478 21 18 20.5523 18 20Z" fill="white"/>
<path fill-rule="evenodd" clip-rule="evenodd" d="M19 10.5C19 9.94772 19.4477 9.5 20 9.5H24C24.5523 9.5 25 9.94772 25 10.5C25 11.0523 24.5523 11.5 24 11.5H20C19.4477 11.5 19 11.0523 19 10.5Z" fill="white"/>
<path fill-rule="evenodd" clip-rule="evenodd" d="M22 4C22.4089 4 22.7766 4.24895 22.9285 4.62861L25.9285 12.1286C26.1336 12.6414 25.8842 13.2234 25.3714 13.4285C24.8586 13.6336 24.2767 13.3842 24.0715 12.8714L22 7.69258L19.9285 12.8714C19.7234 13.3842 19.1414 13.6336 18.6286 13.4285C18.1158 13.2234 17.8664 12.6414 18.0715 12.1286L21.0715 4.62861C21.2234 4.24895 21.5911 4 22 4Z" fill="white"/>
<path fill-rule="evenodd" clip-rule="evenodd" d="M14.7071 9.70711C14.3166 10.0976 13.6834 10.0976 13.2929 9.70711L10 6.41421L6.70711 9.70711C6.31658 10.0976 5.68342 10.0976 5.29289 9.70711C4.90237 9.31658 4.90237 8.68342 5.29289 8.29289L9.29289 4.29289C9.68342 3.90237 10.3166 3.90237 10.7071 4.29289L14.7071 8.29289C15.0976 8.68342 15.0976 9.31658 14.7071 9.70711Z" fill="white"/>
<path fill-rule="evenodd" clip-rule="evenodd" d="M10 4C10.5523 4 11 4.44772 11 5V27C11 27.5523 10.5523 28 10 28C9.44772 28 9 27.5523 9 27V5C9 4.44772 9.44772 4 10 4Z" fill="white"/>
<path fill-rule="evenodd" clip-rule="evenodd" d="M10.5723 3.61305C10.7499 3.68625 10.9163 3.79502 11.0607 3.93934L15.0607 7.93934C15.6464 8.52513 15.6464 9.47487 15.0607 10.0607C14.4749 10.6464 13.5251 10.6464 12.9393 10.0607L11.5 8.62132V27C11.5 27.8284 10.8284 28.5 10 28.5C9.17157 28.5 8.5 27.8284 8.5 27V8.62132L7.06066 10.0607C6.47487 10.6464 5.52513 10.6464 4.93934 10.0607C4.35355 9.47488 4.35355 8.52513 4.93934 7.93934L8.93934 3.93934C9.2275 3.65118 9.60372 3.50478 9.98137 3.50011C9.9938 3.49996 10.0062 3.49996 10.0187 3.50012C10.2145 3.5025 10.4014 3.54243 10.5723 3.61305ZM8.5 5.79289L5.64645 8.64645C5.45118 8.84171 5.45118 9.15829 5.64645 9.35355C5.84171 9.54882 6.15829 9.54882 6.35355 9.35355L8.5 7.20711V5.79289ZM9.5 7.62132V27C9.5 27.2761 9.72386 27.5 10 27.5C10.2761 27.5 10.5 27.2761 10.5 27V7.62132L10 7.12132L9.5 7.62132ZM10.5 6.20711L10.3536 6.06066C10.2598 5.96689 10.1326 5.91421 10 5.91421C9.86739 5.91421 9.74021 5.96689 9.64645 6.06066L9.5 6.20711V5C9.5 4.86193 9.55596 4.73693 9.64645 4.64645C9.6925 4.60039 9.7475 4.56328 9.80861 4.53794C9.86685 4.51384 9.92873 4.50122 9.99077 4.50008M11.5 7.20711L13.6464 9.35355C13.8417 9.54882 14.1583 9.54882 14.3536 9.35355C14.5488 9.15829 14.5488 8.84171 14.3536 8.64645L11.5 5.79289V7.20711ZM10.1895 4.53716C10.3717 4.61182 10.5 4.79093 10.5 5V6.20711M10.0092 4.50008C10.0706 4.50121 10.1318 4.51357 10.1895 4.53716L10.0092 4.50008ZM20.6073 4.44292C20.8351 3.87343 21.3867 3.5 22 3.5C22.6134 3.5 23.1649 3.87343 23.3927 4.44292L26.3927 11.9429C26.7004 12.7121 26.3263 13.585 25.5571 13.8927C24.7879 14.2004 23.915 13.8263 23.6073 13.0571L23.1845 12H20.8156L20.3927 13.0571C20.0851 13.8263 19.2121 14.2004 18.4429 13.8927C17.6738 13.585 17.2996 12.7121 17.6073 11.9429L20.6073 4.44292ZM21.2156 11H22.7845L22.3845 10H21.6156L21.2156 11ZM20.5385 10L20.1385 11H20C19.7239 11 19.5 10.7761 19.5 10.5C19.5 10.2239 19.7239 10 20 10H20.5385ZM23.0615 9L22.4643 7.50689C22.3883 7.31706 22.2045 7.19258 22 7.19258C21.7956 7.19258 21.6117 7.31706 21.5358 7.50689L20.9385 9H20C19.9524 9 19.9054 9.00222 19.8589 9.00655L21.5358 4.81431C21.6117 4.62448 21.7956 4.5 22 4.5C22.2045 4.5 22.3883 4.62448 22.4643 4.81431L24.1412 9.00655C24.0947 9.00222 24.0476 9 24 9H23.0615ZM23.4615 10L23.8615 11H24C24.2762 11 24.5 10.7761 24.5 10.5C24.5 10.2239 24.2762 10 24 10H23.4615ZM24.253 11.9788L24.5358 12.6857C24.6383 12.9421 24.9293 13.0668 25.1857 12.9642C25.4421 12.8617 25.5668 12.5707 25.4643 12.3143L25.1322 11.4841C24.9096 11.7399 24.6018 11.9195 24.253 11.9788ZM18.8679 11.484C19.0904 11.7398 19.3982 11.9195 19.747 11.9788L19.4643 12.6857C19.3617 12.9421 19.0707 13.0668 18.8143 12.9642C18.5579 12.8617 18.4332 12.5707 18.5358 12.3143L18.8679 11.484ZM17.5 20C17.5 19.1716 18.1716 18.5 19 18.5H25C25.5858 18.5 26.118 18.841 26.3628 19.3732C26.6076 19.9054 26.5202 20.5314 26.1389 20.9762L22.2614 25.5H25C25.8285 25.5 26.5 26.1716 26.5 27C26.5 27.8284 25.8285 28.5 25 28.5H19C18.4143 28.5 17.8821 28.159 17.6373 27.6268C17.3925 27.0946 17.4799 26.4686 17.8612 26.0238L21.7387 21.5H19C18.1716 21.5 17.5 20.8284 17.5 20ZM19 19.5C18.7239 19.5 18.5 19.7239 18.5 20C18.5 20.2761 18.7239 20.5 19 20.5H22.8258C23.0211 20.5 23.1985 20.6137 23.2801 20.7911C23.3617 20.9685 23.3325 21.1771 23.2055 21.3254L18.6204 26.6746C18.4933 26.8229 18.4642 27.0315 18.5458 27.2089C18.6274 27.3863 18.8048 27.5 19 27.5H25C25.2762 27.5 25.5 27.2761 25.5 27C25.5 26.7239 25.2762 26.5 25 26.5H21.1743C20.979 26.5 20.8016 26.3863 20.72 26.2089C20.6384 26.0315 20.6676 25.8229 20.7946 25.6746L25.3797 20.3254C25.5068 20.1771 25.5359 19.9685 25.4543 19.7911C25.3727 19.6137 25.1953 19.5 25 19.5H19Z" fill="white"/>
</svg>
