<svg width="32" height="33" viewBox="0 0 32 33" fill="none" xmlns="http://www.w3.org/2000/svg">
<path fill-rule="evenodd" clip-rule="evenodd" d="M16 9.42383C14.9999 9.42383 14.0284 9.75696 13.2387 10.3706C12.449 10.9843 11.8863 11.8435 11.6394 12.8126C11.3924 13.7817 11.4753 14.8055 11.875 15.7222C12.1505 16.3542 12.5658 16.9106 13.0849 17.352L11.682 20.6255C11.5505 20.9283 11.496 21.2589 11.5234 21.5879C11.5509 21.9182 11.66 22.2364 11.841 22.5141C12.022 22.7917 12.2691 23.02 12.5601 23.1785C12.8512 23.337 13.1771 23.4207 13.5085 23.422H18.4875L18.4915 23.422C18.8229 23.4207 19.1488 23.337 19.4399 23.1785C19.7309 23.02 19.978 22.7917 20.159 22.5141C20.34 22.2364 20.4491 21.9182 20.4766 21.5879C20.504 21.2589 20.4495 20.9283 20.3181 20.6255L18.9151 17.352C19.4342 16.9106 19.8495 16.3542 20.125 15.7222C20.5247 14.8055 20.6076 13.7817 20.3606 12.8126C20.1137 11.8435 19.551 10.9843 18.7613 10.3706C17.9717 9.75696 17.0001 9.42383 16 9.42383ZM14.4659 11.9498C14.9046 11.6089 15.4444 11.4238 16 11.4238C16.5556 11.4238 17.0954 11.6089 17.5341 11.9498C17.9728 12.2908 18.2854 12.7681 18.4226 13.3065C18.5598 13.8449 18.5137 14.4136 18.2917 14.9229C18.0696 15.4322 17.6843 15.8531 17.1964 16.1189C16.7435 16.3658 16.5526 16.9168 16.7559 17.3909L18.4808 21.4159L18.4835 21.422H13.5165L15.2441 17.3909C15.4474 16.9168 15.2565 16.3658 14.8036 16.1189C14.3157 15.8531 13.9304 15.4322 13.7083 14.9229C13.4863 14.4136 13.4402 13.8449 13.5774 13.3065C13.7146 12.7681 14.0272 12.2908 14.4659 11.9498Z" fill="white"/>
<path fill-rule="evenodd" clip-rule="evenodd" d="M16 3.42188C8.8203 3.42188 3 9.24217 3 16.4219C3 23.6016 8.8203 29.4219 16 29.4219C23.1797 29.4219 29 23.6016 29 16.4219C29 9.24217 23.1797 3.42188 16 3.42188ZM5 16.4219C5 10.3467 9.92487 5.42188 16 5.42188C22.0751 5.42188 27 10.3467 27 16.4219C27 22.497 22.0751 27.4219 16 27.4219C9.92487 27.4219 5 22.497 5 16.4219Z" fill="white"/>
<path fill-rule="evenodd" clip-rule="evenodd" d="M2.5 16.4219C2.5 8.96603 8.54416 2.92188 16 2.92188C23.4558 2.92188 29.5 8.96603 29.5 16.4219C29.5 23.8777 23.4558 29.9219 16 29.9219C8.54416 29.9219 2.5 23.8777 2.5 16.4219ZM16 3.92188C9.09644 3.92188 3.5 9.51832 3.5 16.4219C3.5 23.3254 9.09644 28.9219 16 28.9219C22.9036 28.9219 28.5 23.3254 28.5 16.4219C28.5 9.51832 22.9036 3.92188 16 3.92188ZM16 5.92188C10.201 5.92188 5.5 10.6229 5.5 16.4219C5.5 22.2209 10.201 26.9219 16 26.9219C21.799 26.9219 26.5 22.2209 26.5 16.4219C26.5 10.6229 21.799 5.92188 16 5.92188ZM4.5 16.4219C4.5 10.0706 9.64873 4.92188 16 4.92188C22.3513 4.92188 27.5 10.0706 27.5 16.4219C27.5 22.7731 22.3513 27.9219 16 27.9219C9.64873 27.9219 4.5 22.7731 4.5 16.4219ZM12.9319 9.97583C13.8093 9.29398 14.8888 8.92383 16 8.92383C17.1112 8.92383 18.1907 9.29398 19.0681 9.97583C19.9455 10.6577 20.5708 11.6124 20.8452 12.6892C21.1196 13.7659 21.0274 14.9035 20.5834 15.922C20.3276 16.5087 19.9634 17.0367 19.5142 17.4806L20.7767 20.4264C20.7768 20.4268 20.777 20.4271 20.7771 20.4274C20.9411 20.8056 21.0091 21.2185 20.9749 21.6294C20.9405 22.0422 20.8041 22.4401 20.5779 22.7871C20.3517 23.1342 20.0428 23.4196 19.679 23.6177C19.3151 23.8157 18.9078 23.9203 18.4935 23.922L18.4925 23.922L18.4885 23.922H13.5085L13.5065 23.922C13.0922 23.9203 12.6849 23.8157 12.321 23.6176C11.9572 23.4196 11.6483 23.1342 11.4221 22.7871C11.1959 22.4401 11.0595 22.0422 11.0251 21.6294C10.9909 21.2186 11.0588 20.8058 11.2228 20.4276C11.223 20.4272 11.2231 20.4268 11.2233 20.4264L12.4858 17.4806C12.0366 17.0367 11.6724 16.5087 11.4166 15.922C10.9726 14.9034 10.8805 13.7659 11.1548 12.6892C11.4292 11.6124 12.0545 10.6577 12.9319 9.97583ZM16 9.92383C15.111 9.92383 14.2474 10.2199 13.5455 10.7654C12.8436 11.3109 12.3434 12.0747 12.1239 12.9361C11.9044 13.7975 11.9781 14.7075 12.3333 15.5224C12.5782 16.0842 12.9474 16.5787 13.4088 16.9711C13.5758 17.1131 13.6308 17.3474 13.5445 17.5489L12.1415 20.8225L12.1406 20.8246C12.042 21.0517 12.0011 21.2997 12.0217 21.5464C12.0423 21.7941 12.1242 22.0328 12.2599 22.2411C12.3956 22.4493 12.5809 22.6205 12.7992 22.7394C13.0173 22.8581 13.2614 22.9209 13.5096 22.922H18.4866L18.4895 22.922C18.7381 22.921 18.9825 22.8582 19.2008 22.7394C19.4191 22.6205 19.6044 22.4493 19.7401 22.2411C19.8759 22.0328 19.9577 21.7941 19.9783 21.5464C19.9989 21.2997 19.958 21.0517 19.8594 20.8247L19.8585 20.8225L18.4555 17.5489C18.3692 17.3474 18.4242 17.1131 18.5912 16.9711C19.0526 16.5787 19.4218 16.0842 19.6667 15.5224C20.0219 14.7075 20.0956 13.7975 19.8761 12.9361C19.6566 12.0747 19.1564 11.3109 18.4545 10.7654C17.7526 10.2199 16.889 9.92383 16 9.92383ZM16 11.9238C15.5555 11.9238 15.1237 12.0719 14.7728 12.3446C14.4218 12.6174 14.1717 12.9992 14.0619 13.43C13.9522 13.8607 13.989 14.3157 14.1667 14.7231C14.3443 15.1306 14.6526 15.4672 15.0429 15.6799C15.7223 16.0502 16.0085 16.8766 15.7037 17.5879L14.2748 20.922H17.7252L16.2963 17.5879C15.9915 16.8766 16.2777 16.0502 16.9571 15.6799C17.3474 15.4672 17.6557 15.1306 17.8333 14.7231C18.011 14.3157 18.0478 13.8607 17.9381 13.43C17.8283 12.9993 17.5782 12.6174 17.2272 12.3446C16.8763 12.0719 16.4445 11.9238 16 11.9238ZM18.9404 21.219L18.9417 21.222C19.0092 21.3765 18.9942 21.5547 18.9018 21.6958C18.8094 21.837 18.6522 21.922 18.4835 21.922H13.5165C13.3485 21.922 13.1916 21.8376 13.0991 21.6972C13.0066 21.5569 12.9908 21.3795 13.057 21.225L14.7846 17.194C14.8862 16.9569 14.7908 16.6814 14.5643 16.558C13.9789 16.2389 13.5164 15.7339 13.25 15.1228C12.9835 14.5116 12.9283 13.8291 13.0929 13.183C13.2575 12.537 13.6327 11.9641 14.1591 11.555C14.6856 11.1459 15.3333 10.9238 16 10.9238C16.6667 10.9238 17.3144 11.1459 17.8409 11.555C18.3673 11.9641 18.7425 12.537 18.9071 13.183C19.0717 13.8291 19.0165 14.5116 18.75 15.1228C18.4836 15.7339 18.0211 16.2389 17.4357 16.558C17.2092 16.6814 17.1138 16.9569 17.2154 17.194L18.9391 21.2159L18.9404 21.219Z" fill="white"/>
</svg>
