<svg width="32" height="33" viewBox="0 0 32 33" fill="none" xmlns="http://www.w3.org/2000/svg">
<path fill-rule="evenodd" clip-rule="evenodd" d="M3 16.4219C3 9.24217 8.8203 3.42188 16 3.42188C23.1797 3.42188 29 9.24217 29 16.4219C29 23.6016 23.1797 29.4219 16 29.4219C8.8203 29.4219 3 23.6016 3 16.4219ZM19.2083 15.3226C18.8975 16.0356 18.358 16.6248 17.675 16.997L19.4 21.022C19.4663 21.1739 19.4938 21.3398 19.48 21.505C19.4663 21.6701 19.4117 21.8292 19.3212 21.968C19.2308 22.1069 19.1072 22.221 18.9617 22.3003C18.8161 22.3795 18.6532 22.4213 18.4875 22.422H13.5125C13.3468 22.4213 13.1839 22.3795 13.0383 22.3003C12.8928 22.221 12.7692 22.1069 12.6788 21.968C12.5883 21.8292 12.5337 21.6701 12.52 21.505C12.5062 21.3398 12.5337 21.1739 12.6 21.022L14.325 16.997C13.642 16.6248 13.1025 16.0356 12.7917 15.3226C12.4808 14.6096 12.4163 13.8133 12.6084 13.0596C12.8005 12.3058 13.2381 11.6375 13.8523 11.1602C14.4665 10.6829 15.2222 10.4238 16 10.4238C16.7778 10.4238 17.5335 10.6829 18.1477 11.1602C18.7619 11.6375 19.1995 12.3058 19.3916 13.0596C19.5837 13.8133 19.5192 14.6096 19.2083 15.3226Z" fill="white"/>
<path fill-rule="evenodd" clip-rule="evenodd" d="M16 3.92188C9.09644 3.92188 3.5 9.51832 3.5 16.4219C3.5 23.3254 9.09644 28.9219 16 28.9219C22.9036 28.9219 28.5 23.3254 28.5 16.4219C28.5 9.51832 22.9036 3.92188 16 3.92188ZM2.5 16.4219C2.5 8.96603 8.54416 2.92188 16 2.92188C23.4558 2.92188 29.5 8.96603 29.5 16.4219C29.5 23.8777 23.4558 29.9219 16 29.9219C8.54416 29.9219 2.5 23.8777 2.5 16.4219ZM16 10.9238C15.3333 10.9238 14.6856 11.1459 14.1591 11.555C13.6327 11.9641 13.2575 12.537 13.0929 13.183C12.9283 13.8291 12.9835 14.5116 13.25 15.1228C13.5164 15.7339 13.9789 16.2389 14.5643 16.558C14.7908 16.6814 14.8862 16.9569 14.7846 17.194L13.0596 21.219L13.0583 21.222C13.0251 21.2979 13.0114 21.3809 13.0182 21.4635C13.0251 21.5461 13.0524 21.6256 13.0976 21.695C13.1429 21.7644 13.2047 21.8215 13.2774 21.8611C13.3499 21.9006 13.4311 21.9215 13.5137 21.922H18.4863C18.5689 21.9215 18.65 21.9006 18.7226 21.8611C18.7953 21.8215 18.8571 21.7644 18.9024 21.695C18.9476 21.6256 18.9749 21.546 18.9818 21.4635C18.9886 21.3809 18.9749 21.2979 18.9417 21.222L18.9404 21.219L17.2154 17.194C17.1138 16.9569 17.2092 16.6814 17.4357 16.558C18.0211 16.2389 18.4836 15.7339 18.75 15.1228C19.0165 14.5116 19.0717 13.8291 18.9071 13.183C18.7425 12.537 18.3673 11.9641 17.8409 11.555C17.3144 11.1459 16.6667 10.9238 16 10.9238ZM13.5455 10.7654C14.2474 10.2199 15.111 9.92383 16 9.92383C16.889 9.92383 17.7526 10.2199 18.4545 10.7654C19.1564 11.3109 19.6566 12.0747 19.8761 12.9361C20.0956 13.7975 20.0219 14.7075 19.6667 15.5224C19.3728 16.1966 18.9 16.7739 18.3034 17.194L19.8583 20.822C19.8585 20.8226 19.8588 20.8231 19.859 20.8237C19.9579 21.0511 19.9989 21.2994 19.9783 21.5464C19.9577 21.7941 19.8758 22.0328 19.7401 22.2411C19.6044 22.4493 19.4191 22.6205 19.2008 22.7394C18.9825 22.8582 18.7381 22.921 18.4895 22.922L18.4875 22.922H13.5125L13.5105 22.922C13.2619 22.921 13.0175 22.8582 12.7992 22.7394C12.5809 22.6205 12.3956 22.4493 12.2599 22.2411C12.1242 22.0328 12.0423 21.7941 12.0217 21.5464C12.0011 21.2994 12.0421 21.0511 12.141 20.8238C12.1412 20.8232 12.1415 20.8226 12.1417 20.822L13.6966 17.194C13.1 16.7739 12.6272 16.1966 12.3333 15.5224C11.9781 14.7075 11.9044 13.7975 12.1239 12.9361C12.3434 12.0747 12.8436 11.3109 13.5455 10.7654Z" fill="white"/>
</svg>
