<svg width="32" height="33" viewBox="0 0 32 33" fill="none" xmlns="http://www.w3.org/2000/svg">
<circle cx="15.5" cy="16.5" r="9.5" fill="#040404"/>
<path fill-rule="evenodd" clip-rule="evenodd" d="M12.546 3.78321C13.3714 2.99331 14.4909 1.92188 16 1.92188C17.5091 1.92188 18.6286 2.99331 19.454 3.78321L19.4956 3.82305L19.4989 3.82624C19.7436 4.06462 19.9877 4.29949 20.2189 4.49404C20.4584 4.69566 20.6442 4.81932 20.7708 4.86917C20.9068 4.92276 21.119 4.96208 21.4098 4.98607C21.6935 5.00946 22.0105 5.01562 22.3448 5.02192L22.3469 5.02196L22.3794 5.02228C23.5479 5.0342 25.1356 5.0504 26.2536 6.16832C27.3715 7.28624 27.3877 8.87401 27.3996 10.0425L27.3999 10.0749L27.4 10.0772C27.4014 10.154 27.4025 10.2288 27.4036 10.3018C27.4074 10.5561 27.4108 10.7886 27.4268 11.0074C27.4475 11.2907 27.4865 11.4961 27.5471 11.6374C27.6115 11.7878 27.7423 11.9803 27.9376 12.2128C28.1289 12.4406 28.3574 12.6784 28.5956 12.9229L28.5988 12.9262L28.6387 12.9679C29.4286 13.7933 30.5 14.9128 30.5 16.4219C30.5 17.9309 29.4286 19.0505 28.6387 19.8758L28.5988 19.9175L28.5956 19.9208C28.3572 20.1655 28.1224 20.4096 27.9278 20.6407C27.7262 20.8803 27.6026 21.0661 27.5527 21.1926C27.4991 21.3287 27.4598 21.5409 27.4358 21.8317C27.4124 22.1154 27.4063 22.4323 27.4 22.7666L27.3999 22.7688L27.3996 22.8013C27.3877 23.9697 27.3715 25.5575 26.2536 26.6754C25.1356 27.7934 23.5479 27.8096 22.3794 27.8215L22.3469 27.8218L22.3447 27.8218C22.2679 27.8233 22.1931 27.8244 22.1201 27.8255C21.8657 27.8293 21.6333 27.8327 21.4145 27.8487C21.1311 27.8693 20.9258 27.9084 20.7845 27.9689C20.6341 28.0334 20.4415 28.1642 20.209 28.3595C19.9812 28.5507 19.7435 28.7792 19.4989 29.0175L19.4956 29.0207L19.454 29.0605C18.6286 29.8504 17.5091 30.9219 16 30.9219C14.4909 30.9219 13.3714 29.8504 12.546 29.0605L12.5044 29.0207L12.5011 29.0175C12.2564 28.7791 12.0123 28.5443 11.7811 28.3497C11.5416 28.1481 11.3558 28.0244 11.2292 27.9746C11.0932 27.921 10.881 27.8817 10.5902 27.8577C10.3065 27.8343 9.98954 27.8281 9.65529 27.8218L9.65307 27.8218L9.62062 27.8215C8.45213 27.8096 6.86437 27.7934 5.74645 26.6754C4.62853 25.5575 4.61233 23.9697 4.6004 22.8013L4.60009 22.7688L4.60005 22.7666C4.5986 22.6898 4.59749 22.615 4.5964 22.542C4.59262 22.2876 4.58915 22.0552 4.5732 21.8364C4.55254 21.553 4.51351 21.3477 4.45293 21.2063C4.38849 21.056 4.25766 20.8634 4.06241 20.6309C3.87113 20.4031 3.64263 20.1653 3.40439 19.9208L3.40116 19.9175L3.36134 19.8758C2.57143 19.0505 1.5 17.9309 1.5 16.4219C1.5 14.9128 2.57143 13.7933 3.36134 12.9679L3.40118 12.9263L3.40437 12.9229C3.64275 12.6783 3.87761 12.4341 4.07217 12.203C4.27379 11.9635 4.39745 11.7777 4.4473 11.6511C4.50089 11.5151 4.54021 11.3028 4.56419 11.012C4.58759 10.7283 4.59374 10.4114 4.60005 10.0771L4.6004 10.0425C4.61233 8.874 4.62853 7.28624 5.74645 6.16832C6.86437 5.0504 8.45213 5.0342 9.62061 5.02228L9.65524 5.02192C9.73204 5.02048 9.80684 5.01937 9.87983 5.01828C10.1342 5.01449 10.3667 5.01103 10.5855 4.99507C10.8689 4.97441 11.0742 4.93539 11.2155 4.8748C11.3659 4.81037 11.5585 4.67954 11.791 4.48429C12.0188 4.293 12.2565 4.06451 12.5011 3.82626L12.5044 3.82304L12.546 3.78321ZM16.5604 8.9534C15.6251 8.8479 14.679 9.00855 13.8309 9.41688C12.9829 9.8252 12.2673 10.4646 11.7665 11.2616C11.2657 12.0585 11 12.9806 11 13.9219C11 14.3197 11.158 14.7012 11.4393 14.9825C11.7206 15.2638 12.1022 15.4219 12.5 15.4219C12.8978 15.4219 13.2794 15.2638 13.5607 14.9825C13.842 14.7012 14 14.3197 14 13.9219C14 13.5263 14.1173 13.1396 14.3371 12.8107C14.5568 12.4818 14.8692 12.2255 15.2346 12.0741C15.6001 11.9227 16.0022 11.8831 16.3902 11.9603C16.7781 12.0375 17.1345 12.228 17.4142 12.5077C17.6939 12.7874 17.8844 13.1437 17.9616 13.5317C18.0387 13.9197 17.9991 14.3218 17.8478 14.6872C17.6964 15.0527 17.44 15.3651 17.1111 15.5848C16.7822 15.8046 16.3956 15.9219 16 15.9219C15.6022 15.9219 15.2206 16.0799 14.9393 16.3612C14.658 16.6425 14.5 17.0241 14.5 17.4219V18.4219C14.5 18.8197 14.658 19.2012 14.9393 19.4825C15.2206 19.7638 15.6022 19.9219 16 19.9219C16.3978 19.9219 16.7794 19.7638 17.0607 19.4825C17.2756 19.2676 17.4185 18.9942 17.4741 18.6997C18.2499 18.4603 18.9577 18.035 19.5346 17.4584C20.2003 16.793 20.6647 15.9532 20.8744 15.0356C21.084 14.118 21.0304 13.1599 20.7197 12.2714C20.409 11.3829 19.8539 10.6002 19.1181 10.0132C18.3823 9.42625 17.4957 9.05889 16.5604 8.9534ZM15.6098 20.9603C15.9978 20.8831 16.3999 20.9227 16.7654 21.0741C17.1308 21.2255 17.4432 21.4818 17.6629 21.8107C17.8827 22.1396 18 22.5263 18 22.9219C18 23.4523 17.7893 23.961 17.4142 24.3361C17.0391 24.7112 16.5304 24.9219 16 24.9219C15.6044 24.9219 15.2178 24.8046 14.8889 24.5848C14.56 24.3651 14.3036 24.0527 14.1522 23.6872C14.0009 23.3218 13.9613 22.9197 14.0384 22.5317C14.1156 22.1437 14.3061 21.7874 14.5858 21.5077C14.8655 21.228 15.2219 21.0375 15.6098 20.9603Z" fill="white"/>
</svg>
