<svg width="32" height="32" viewBox="0 0 32 32" fill="none" xmlns="http://www.w3.org/2000/svg">
<path d="M17.5806 4.05555C16.0094 3.74301 14.3807 3.90341 12.9007 4.51648C11.4206 5.12955 10.1555 6.16775 9.26549 7.49979C8.37545 8.83182 7.90039 10.3979 7.90039 11.9999C7.90039 12.6074 8.39288 13.0999 9.00039 13.0999C9.6079 13.0999 10.1004 12.6074 10.1004 11.9999C10.1004 10.833 10.4464 9.69229 11.0947 8.72204C11.743 7.75179 12.6645 6.99557 13.7426 6.54902C14.8206 6.10246 16.0069 5.98562 17.1514 6.21327C18.2959 6.44093 19.3472 7.00285 20.1723 7.82798C20.9974 8.65311 21.5594 9.70438 21.787 10.8489C22.0147 11.9934 21.8978 13.1797 21.4513 14.2577C21.0047 15.3358 20.2485 16.2573 19.2783 16.9056C18.308 17.5539 17.1673 17.8999 16.0004 17.8999C15.7087 17.8999 15.4289 18.0158 15.2226 18.2221C15.0163 18.4284 14.9004 18.7082 14.9004 18.9999V20.9999C14.9004 21.6074 15.3929 22.0999 16.0004 22.0999C16.6079 22.0999 17.1004 21.6074 17.1004 20.9999V20.0249C18.3122 19.8588 19.4756 19.4196 20.5005 18.7348C21.8325 17.8448 22.8707 16.5797 23.4838 15.0996C24.0969 13.6196 24.2573 11.9909 23.9447 10.4197C23.6322 8.84843 22.8608 7.40515 21.728 6.27234C20.5951 5.13954 19.1519 4.36809 17.5806 4.05555Z" fill="white"/>
<path d="M17.5004 26.5C17.5004 27.3284 16.8288 28 16.0004 28C15.1719 28 14.5004 27.3284 14.5004 26.5C14.5004 25.6716 15.1719 25 16.0004 25C16.8288 25 17.5004 25.6716 17.5004 26.5Z" fill="white"/>
<path fill-rule="evenodd" clip-rule="evenodd" d="M12.7093 4.05454C14.2808 3.40363 16.0099 3.23332 17.6782 3.56515C19.3464 3.89699 20.8788 4.71606 22.0815 5.91879C23.2842 7.12152 24.1033 8.65389 24.4351 10.3221C24.767 11.9904 24.5967 13.7195 23.9458 15.291C23.2948 16.8624 22.1926 18.2056 20.7783 19.1505C19.8125 19.7958 18.7309 20.2357 17.6004 20.4498V20.9999C17.6004 21.8836 16.884 22.5999 16.0004 22.5999C15.1167 22.5999 14.4004 21.8836 14.4004 20.9999V18.9999C14.4004 18.5756 14.569 18.1686 14.869 17.8685C15.1691 17.5685 15.576 17.3999 16.0004 17.3999C17.0684 17.3999 18.1124 17.0832 19.0005 16.4898C19.8885 15.8965 20.5806 15.0531 20.9893 14.0664C21.3981 13.0797 21.505 11.9939 21.2966 10.9464C21.0883 9.89892 20.574 8.93673 19.8188 8.18153C19.0636 7.42633 18.1014 6.91203 17.0539 6.70367C16.0064 6.49531 14.9206 6.60224 13.9339 7.01096C12.9472 7.41967 12.1038 8.1118 11.5105 8.99983C10.9171 9.88785 10.6004 10.9319 10.6004 11.9999C10.6004 12.8836 9.88405 13.5999 9.00039 13.5999C8.11673 13.5999 7.40039 12.8836 7.40039 11.9999C7.40039 10.299 7.90477 8.63626 8.84975 7.222C9.79473 5.80774 11.1379 4.70546 12.7093 4.05454ZM17.4831 4.54594C16.0088 4.25269 14.4807 4.4032 13.092 4.97842C11.7033 5.55365 10.5163 6.52776 9.68122 7.77757C8.84612 9.02738 8.40039 10.4968 8.40039 11.9999C8.40039 12.3313 8.66902 12.5999 9.00039 12.5999C9.33176 12.5999 9.60039 12.3313 9.60039 11.9999C9.60039 10.7341 9.97574 9.49673 10.679 8.44426C11.3822 7.39178 12.3818 6.57148 13.5512 6.08708C14.7207 5.60268 16.0075 5.47593 17.249 5.72288C18.4904 5.96983 19.6308 6.57937 20.5259 7.47442C21.4209 8.36948 22.0305 9.50985 22.2774 10.7513C22.5244 11.9928 22.3976 13.2796 21.9132 14.4491C21.4288 15.6185 20.6085 16.6181 19.556 17.3213C18.5036 18.0245 17.2662 18.3999 16.0004 18.3999C15.8413 18.3999 15.6886 18.4631 15.5761 18.5756C15.4636 18.6882 15.4004 18.8408 15.4004 18.9999V20.9999C15.4004 21.3313 15.669 21.5999 16.0004 21.5999C16.3318 21.5999 16.6004 21.3313 16.6004 20.9999V20.0249C16.6004 19.775 16.7849 19.5634 17.0325 19.5295C18.1695 19.3737 19.2611 18.9616 20.2227 18.3191C21.4725 17.484 22.4466 16.297 23.0219 14.9083C23.5971 13.5196 23.7476 11.9915 23.4544 10.5172C23.1611 9.04296 22.4373 7.68877 21.3744 6.6259C20.3115 5.56302 18.9573 4.83919 17.4831 4.54594ZM16.0004 25.5C15.4481 25.5 15.0004 25.9477 15.0004 26.5C15.0004 27.0523 15.4481 27.5 16.0004 27.5C16.5527 27.5 17.0004 27.0523 17.0004 26.5C17.0004 25.9477 16.5527 25.5 16.0004 25.5ZM14.0004 26.5C14.0004 25.3954 14.8958 24.5 16.0004 24.5C17.1049 24.5 18.0004 25.3954 18.0004 26.5C18.0004 27.6046 17.1049 28.5 16.0004 28.5C14.8958 28.5 14.0004 27.6046 14.0004 26.5Z" fill="white"/>
</svg>
