<svg width="32" height="33" viewBox="0 0 32 33" fill="none" xmlns="http://www.w3.org/2000/svg">
<path fill-rule="evenodd" clip-rule="evenodd" d="M15.6 3.77813C15.297 3.55087 14.8916 3.51431 14.5528 3.68371C14.214 3.8531 14 4.19936 14 4.57813V14.5781L7.60006 9.77819C7.15823 9.44682 6.53143 9.53636 6.20006 9.97819C5.86869 10.42 5.95823 11.0468 6.40006 11.3782L13.3334 16.5782L6.40006 21.7782C5.95823 22.1096 5.86869 22.7364 6.20006 23.1782C6.53143 23.62 7.15823 23.7096 7.60006 23.3782L14 18.5782V28.5781C14 28.9569 14.214 29.3032 14.5528 29.4726C14.8916 29.642 15.297 29.6054 15.6 29.3781L23.6 23.3781C23.8518 23.1893 24 22.8929 24 22.5781C24 22.2634 23.8518 21.967 23.6 21.7781L16.6667 16.5781L23.6 11.3781C23.8518 11.1893 24 10.8929 24 10.5781C24 10.2634 23.8518 9.96699 23.6 9.77813L15.6 3.77813ZM21.3333 10.5781L16 14.5781V6.57813L21.3333 10.5781ZM21.3333 22.5781L16 26.5781V18.5781L21.3333 22.5781Z" fill="white"/>
<path d="M6.5 18.0781C7.32843 18.0781 8 17.4066 8 16.5781C8 15.7497 7.32843 15.0781 6.5 15.0781C5.67157 15.0781 5 15.7497 5 16.5781C5 17.4066 5.67157 18.0781 6.5 18.0781Z" fill="white"/>
<path d="M26 16.5781C26 17.4066 25.3284 18.0781 24.5 18.0781C23.6716 18.0781 23 17.4066 23 16.5781C23 15.7497 23.6716 15.0781 24.5 15.0781C25.3284 15.0781 26 15.7497 26 16.5781Z" fill="white"/>
<path fill-rule="evenodd" clip-rule="evenodd" d="M14.3292 3.23649C14.8374 2.9824 15.4455 3.03724 15.9 3.37813L23.9 9.37813C24.2777 9.66142 24.5 10.106 24.5 10.5781C24.5 11.0503 24.2777 11.4949 23.9 11.7781L17.5 16.5781L23.9 21.3781C24.2777 21.6614 24.5 22.106 24.5 22.5781C24.5 23.0503 24.2777 23.4949 23.9 23.7781L15.9 29.7781C15.4455 30.119 14.8374 30.1739 14.3292 29.9198C13.821 29.6657 13.5 29.1463 13.5 28.5781V19.5782L7.90006 23.7782C7.23732 24.2752 6.29712 24.1409 5.80006 23.4782C5.303 22.8154 5.43732 21.8752 6.10006 21.3782L12.5001 16.5782L6.10006 11.7782C5.43732 11.2811 5.303 10.3409 5.80006 9.67819C6.29712 9.01544 7.23732 8.88113 7.90006 9.37819L13.5 13.5781V4.57813C13.5 4.00998 13.821 3.49058 14.3292 3.23649ZM15.3 4.17813C15.1485 4.0645 14.9458 4.04622 14.7764 4.13092C14.607 4.21562 14.5 4.38875 14.5 4.57813V15.5781L7.30006 10.1782C7.07914 10.0125 6.76574 10.0573 6.60006 10.2782C6.43437 10.4991 6.47915 10.8125 6.70006 10.9782L14.1667 16.5782L6.70006 22.1782C6.47915 22.3439 6.43437 22.6573 6.60006 22.8782C6.76574 23.0991 7.07915 23.1439 7.30006 22.9782L14.5 17.5782V28.5781C14.5 28.7675 14.607 28.9407 14.7764 29.0253C14.9458 29.11 15.1485 29.0918 15.3 28.9781L23.3 22.9781C23.4259 22.8837 23.5 22.7355 23.5 22.5781C23.5 22.4208 23.4259 22.2726 23.3 22.1781L15.8333 16.5781L23.3 10.9781C23.4259 10.8837 23.5 10.7355 23.5 10.5781C23.5 10.4208 23.4259 10.2726 23.3 10.1781L15.3 4.17813ZM15.5 5.57813L22.1667 10.5781L15.5 15.5781V5.57813ZM16.5 7.57813V13.5781L20.5 10.5781L16.5 7.57813ZM4.5 16.5781C4.5 15.4736 5.39543 14.5781 6.5 14.5781C7.60457 14.5781 8.5 15.4736 8.5 16.5781C8.5 17.6827 7.60457 18.5781 6.5 18.5781C5.39543 18.5781 4.5 17.6827 4.5 16.5781ZM6.5 15.5781C5.94772 15.5781 5.5 16.0258 5.5 16.5781C5.5 17.1304 5.94772 17.5781 6.5 17.5781C7.05228 17.5781 7.5 17.1304 7.5 16.5781C7.5 16.0258 7.05228 15.5781 6.5 15.5781ZM24.5 15.5781C23.9477 15.5781 23.5 16.0258 23.5 16.5781C23.5 17.1304 23.9477 17.5781 24.5 17.5781C25.0523 17.5781 25.5 17.1304 25.5 16.5781C25.5 16.0258 25.0523 15.5781 24.5 15.5781ZM22.5 16.5781C22.5 15.4736 23.3954 14.5781 24.5 14.5781C25.6046 14.5781 26.5 15.4736 26.5 16.5781C26.5 17.6827 25.6046 18.5781 24.5 18.5781C23.3954 18.5781 22.5 17.6827 22.5 16.5781ZM15.5 17.5781L22.1667 22.5781L15.5 27.5781V17.5781ZM16.5 19.5781V25.5781L20.5 22.5781L16.5 19.5781Z" fill="white"/>
</svg>
