<svg width="32" height="33" viewBox="0 0 32 33" fill="none" xmlns="http://www.w3.org/2000/svg">
<path fill-rule="evenodd" clip-rule="evenodd" d="M15.6 3.77813C15.297 3.55087 14.8916 3.51431 14.5528 3.68371C14.214 3.8531 14 4.19936 14 4.57813V14.5781L7.60009 9.77819C7.15826 9.44682 6.53146 9.53636 6.20009 9.97819C5.86872 10.42 5.95826 11.0468 6.40009 11.3782L13.3334 16.5782L6.40009 21.7782C5.95826 22.1096 5.86872 22.7364 6.20009 23.1782C6.53146 23.62 7.15826 23.7096 7.60009 23.3782L14 18.5782V28.5781C14 28.9569 14.214 29.3032 14.5528 29.4726C14.8916 29.642 15.297 29.6054 15.6 29.3781L23.6 23.3781C23.8518 23.1893 24 22.8929 24 22.5781C24 22.2634 23.8518 21.967 23.6 21.7781L16.6667 16.5781L23.6 11.3781C23.8518 11.1893 24 10.8929 24 10.5781C24 10.2634 23.8518 9.96699 23.6 9.77813L15.6 3.77813ZM21.3334 10.5781L16 14.5781V6.57813L21.3334 10.5781ZM21.3334 22.5781L16 26.5781V18.5781L21.3334 22.5781Z" fill="white"/>
<path fill-rule="evenodd" clip-rule="evenodd" d="M14.3292 3.23649C14.8374 2.9824 15.4455 3.03724 15.9 3.37813L23.9 9.37813C24.2777 9.66142 24.5 10.106 24.5 10.5781C24.5 11.0503 24.2777 11.4949 23.9 11.7781L17.5 16.5781L23.9 21.3781C24.2777 21.6614 24.5 22.106 24.5 22.5781C24.5 23.0503 24.2777 23.4949 23.9 23.7781L15.9 29.7781C15.4455 30.119 14.8374 30.1739 14.3292 29.9198C13.821 29.6657 13.5 29.1463 13.5 28.5781V19.5782L7.90009 23.7782C7.23735 24.2752 6.29714 24.1409 5.80009 23.4782C5.30303 22.8154 5.43735 21.8752 6.10009 21.3782L12.5001 16.5782L6.10009 11.7782C5.43735 11.2811 5.30303 10.3409 5.80009 9.67819C6.29714 9.01544 7.23735 8.88113 7.90009 9.37819L13.5 13.5781V4.57813C13.5 4.00998 13.821 3.49058 14.3292 3.23649ZM15.3 4.17813C15.1485 4.0645 14.9458 4.04622 14.7764 4.13092C14.607 4.21562 14.5 4.38875 14.5 4.57813V14.5781C14.5 14.7675 14.393 14.9407 14.2236 15.0254C14.0542 15.1101 13.8515 15.0918 13.7 14.9781L7.30009 10.1782C7.07917 10.0125 6.76577 10.0573 6.60009 10.2782C6.4344 10.4991 6.47917 10.8125 6.70009 10.9782L13.6334 16.1782C13.7593 16.2726 13.8334 16.4208 13.8334 16.5782C13.8334 16.7356 13.7593 16.8838 13.6334 16.9782L6.70009 22.1782C6.47917 22.3439 6.4344 22.6573 6.60009 22.8782C6.76577 23.0991 7.07917 23.1439 7.30009 22.9782L13.7 18.1782C13.8515 18.0646 14.0542 18.0463 14.2236 18.131C14.393 18.2157 14.5 18.3888 14.5 18.5782V28.5781C14.5 28.7675 14.607 28.9407 14.7764 29.0253C14.9458 29.11 15.1485 29.0918 15.3 28.9781L23.3 22.9781C23.4259 22.8837 23.5 22.7355 23.5 22.5781C23.5 22.4208 23.4259 22.2726 23.3 22.1781L16.3667 16.9781C16.2408 16.8837 16.1667 16.7355 16.1667 16.5781C16.1667 16.4208 16.2408 16.2726 16.3667 16.1781L23.3 10.9781C23.4259 10.8837 23.5 10.7355 23.5 10.5781C23.5 10.4208 23.4259 10.2726 23.3 10.1781L15.3 4.17813ZM15.7764 6.13092C15.9458 6.04622 16.1485 6.0645 16.3 6.17813L21.6334 10.1781C21.7593 10.2726 21.8334 10.4208 21.8334 10.5781C21.8334 10.7355 21.7593 10.8837 21.6334 10.9781L16.3 14.9781C16.1485 15.0918 15.9458 15.11 15.7764 15.0253C15.607 14.9407 15.5 14.7675 15.5 14.5781V6.57813C15.5 6.38875 15.607 6.21562 15.7764 6.13092ZM16.5 7.57813V13.5781L20.5 10.5781L16.5 7.57813ZM15.7764 18.1309C15.9458 18.0462 16.1485 18.0645 16.3 18.1781L21.6334 22.1781C21.7593 22.2726 21.8334 22.4208 21.8334 22.5781C21.8334 22.7355 21.7593 22.8837 21.6334 22.9781L16.3 26.9781C16.1485 27.0918 15.9458 27.11 15.7764 27.0253C15.607 26.9407 15.5 26.7675 15.5 26.5781V18.5781C15.5 18.3887 15.607 18.2156 15.7764 18.1309ZM16.5 19.5781V25.5781L20.5 22.5781L16.5 19.5781Z" fill="white"/>
</svg>
