<svg width="32" height="33" viewBox="0 0 32 33" fill="none" xmlns="http://www.w3.org/2000/svg">
<path d="M14.5528 3.68371C14.8916 3.51431 15.297 3.55087 15.6 3.77813L23.6 9.77813C23.8519 9.96704 24.0001 10.2635 24 10.5784C23.9999 10.8932 23.8516 11.1896 23.5996 11.3784L19.4121 14.5159C18.9701 14.8471 18.3434 14.7572 18.0122 14.3153C17.6811 13.8733 17.7709 13.2465 18.2129 12.9153L21.3328 10.5777L16 6.57813V9.52813C16 10.0804 15.5523 10.5281 15 10.5281C14.4477 10.5281 14 10.0804 14 9.52813V4.57813C14 4.19936 14.214 3.8531 14.5528 3.68371Z" fill="white"/>
<path fill-rule="evenodd" clip-rule="evenodd" d="M6.73995 4.90546C6.36844 4.4968 5.736 4.46669 5.32734 4.83819C4.91868 5.2097 4.88856 5.84215 5.26007 6.25081L14.1154 15.9917L6.40006 21.7782C5.95823 22.1096 5.86869 22.7364 6.20006 23.1782C6.53143 23.62 7.15823 23.7096 7.60006 23.3782L14 18.5782V28.5781C14 28.957 14.2141 29.3033 14.553 29.4727C14.892 29.642 15.2975 29.6053 15.6005 29.3778L21.9502 24.6099L25.2601 28.2508C25.6316 28.6595 26.264 28.6896 26.6727 28.3181C27.0813 27.9466 27.1115 27.3141 26.74 26.9055L18.9304 18.3149C18.9052 18.2835 18.8779 18.2534 18.8485 18.2248L6.73995 4.90546ZM17.4669 19.6783L16 18.5781V26.5767L20.5989 23.1235L17.4669 19.6783Z" fill="white"/>
<path fill-rule="evenodd" clip-rule="evenodd" d="M15.3 4.17813C15.1485 4.0645 14.9458 4.04622 14.7764 4.13092C14.607 4.21562 14.5 4.38875 14.5 4.57813V9.52813C14.5 9.80428 14.7239 10.0281 15 10.0281C15.2761 10.0281 15.5 9.80428 15.5 9.52813V6.57813C15.5 6.38875 15.607 6.21562 15.7764 6.13092C15.9458 6.04622 16.1485 6.0645 16.3 6.17813L21.6328 10.1777C21.7587 10.2722 21.8328 10.4204 21.8328 10.5779C21.8328 10.7353 21.7586 10.8835 21.6326 10.9779L18.5127 13.3155C18.2917 13.4811 18.2468 13.7944 18.4124 14.0154C18.5779 14.2364 18.8913 14.2814 19.1123 14.1158L23.2998 10.9783C23.4258 10.8839 23.5 10.7357 23.5 10.5783C23.5 10.4208 23.4259 10.2726 23.3 10.1781L15.3 4.17813ZM15.9 3.37813L23.9 9.37813C24.2778 9.66149 24.5001 10.1062 24.5 10.5785C24.4999 11.0508 24.2774 11.4954 23.8994 11.7786L19.7119 14.9161C19.049 15.4128 18.1088 15.278 17.6121 14.6151C17.1153 13.9521 17.2501 13.0119 17.9131 12.5152L20.4992 10.5775L16.5 7.57813V9.52813C16.5 10.3566 15.8284 11.0281 15 11.0281C14.1716 11.0281 13.5 10.3566 13.5 9.52813V4.57813C13.5 4.00998 13.821 3.49058 14.3292 3.23649C14.8374 2.9824 15.4455 3.03724 15.9 3.37813ZM4.991 4.46822C5.60399 3.91096 6.55266 3.95614 7.10992 4.56913L19.2092 17.8783C19.2447 17.9137 19.2782 17.9506 19.3096 17.9888L27.1099 26.5691C27.6672 27.1821 27.622 28.1308 27.009 28.688C26.396 29.2453 25.4474 29.2001 24.8901 28.5871L21.8864 25.2831L15.9007 29.7776C15.4462 30.1189 14.8379 30.174 14.3296 29.92C13.8212 29.666 13.5 29.1464 13.5 28.5781V19.5782L7.90006 23.7782C7.23732 24.2752 6.29712 24.1409 5.80006 23.4782C5.30301 22.8154 5.43732 21.8752 6.10006 21.3782L13.3758 15.9214L4.8901 6.58714C4.33284 5.97416 4.37801 5.02549 4.991 4.46822ZM6.36998 5.2418C6.18423 5.03747 5.868 5.02241 5.66367 5.20816C5.45935 5.39392 5.44429 5.71014 5.63004 5.91447L14.4854 15.6553C14.5801 15.7595 14.6265 15.8988 14.6132 16.039C14.5998 16.1791 14.528 16.3072 14.4154 16.3917L6.70006 22.1782C6.47915 22.3439 6.43438 22.6573 6.60006 22.8782C6.76575 23.0991 7.07915 23.1439 7.30006 22.9782L13.7 18.1782C13.8515 18.0646 14.0542 18.0463 14.2236 18.131C14.393 18.2157 14.5 18.3888 14.5 18.5782V28.5781C14.5 28.7676 14.6071 28.9407 14.7765 29.0254C14.946 29.1101 15.1487 29.0917 15.3002 28.978L21.6499 24.2101C21.8563 24.0552 22.1466 24.0827 22.3201 24.2736L25.63 27.9145C25.8158 28.1188 26.132 28.1339 26.3363 27.9481C26.5407 27.7624 26.5557 27.4461 26.37 27.2418L18.5604 18.6512C18.5535 18.6437 18.5469 18.6359 18.5405 18.628C18.528 18.6124 18.5144 18.5974 18.4997 18.5831C18.4924 18.576 18.4854 18.5687 18.4785 18.5612L6.36998 5.2418ZM15.7764 18.1309C15.9458 18.0462 16.1485 18.0645 16.3 18.1781L17.7669 19.2783C17.7921 19.2972 17.8156 19.3186 17.8368 19.3419L20.9689 22.7872C21.0635 22.8913 21.1099 23.0305 21.0967 23.1707C21.0834 23.3108 21.0117 23.4388 20.8991 23.5233L16.3002 26.9766C16.1487 27.0903 15.946 27.1087 15.7765 27.024C15.6071 26.9393 15.5 26.7662 15.5 26.5767V18.5781C15.5 18.3887 15.607 18.2156 15.7764 18.1309ZM16.5 19.5781V25.576L19.8595 23.0534L17.1289 20.0498L16.5 19.5781Z" fill="white"/>
</svg>
