<svg width="32" height="33" viewBox="0 0 32 33" fill="none" xmlns="http://www.w3.org/2000/svg">
<path fill-rule="evenodd" clip-rule="evenodd" d="M15.6 3.77813C15.297 3.55087 14.8916 3.51431 14.5528 3.68371C14.214 3.8531 14 4.19936 14 4.57813V14.5781L7.60009 9.77819C7.15826 9.44682 6.53146 9.53636 6.20009 9.97819C5.86872 10.42 5.95826 11.0468 6.40009 11.3782L13.3334 16.5782L6.40009 21.7782C5.95826 22.1096 5.86872 22.7364 6.20009 23.1782C6.53146 23.62 7.15826 23.7096 7.60009 23.3782L14 18.5782V28.5781C14 28.9569 14.214 29.3032 14.5528 29.4726C14.8916 29.642 15.297 29.6054 15.6 29.3781L23.6 23.3781C23.8518 23.1893 24 22.8929 24 22.5781C24 22.2634 23.8518 21.967 23.6 21.7781L16.6667 16.5781L19.6 14.3781C20.0419 14.0468 20.1314 13.42 19.8 12.9781C19.4687 12.5363 18.8419 12.4468 18.4 12.7781L16 14.5781V6.57813L18.4 8.37813C18.8419 8.70951 19.4687 8.61996 19.8 8.17813C20.1314 7.73631 20.0419 7.1095 19.6 6.77813L15.6 3.77813ZM21.3334 22.5781L16 26.5781V18.5781L21.3334 22.5781Z" fill="white"/>
<path d="M29.7071 8.28523C30.0977 7.89471 30.0977 7.26155 29.7071 6.87102C29.3166 6.4805 28.6834 6.4805 28.2929 6.87102L26 9.16391L23.7071 6.87102C23.3166 6.4805 22.6834 6.4805 22.2929 6.87102C21.9024 7.26155 21.9024 7.89471 22.2929 8.28523L24.5858 10.5781L22.2929 12.871C21.9024 13.2615 21.9024 13.8947 22.2929 14.2852C22.6834 14.6758 23.3166 14.6758 23.7071 14.2852L26 11.9923L28.2929 14.2852C28.6834 14.6758 29.3166 14.6758 29.7071 14.2852C30.0977 13.8947 30.0977 13.2615 29.7071 12.871L27.4142 10.5781L29.7071 8.28523Z" fill="white"/>
<path fill-rule="evenodd" clip-rule="evenodd" d="M14.3292 3.23649C14.8374 2.9824 15.4455 3.03724 15.9 3.37813L19.9 6.37813C20.5628 6.87519 20.6971 7.81539 20.2 8.47813C19.703 9.14087 18.7628 9.27519 18.1 8.77813L16.5 7.57813V13.5781L18.1 12.3781C18.7628 11.8811 19.703 12.0154 20.2 12.6781C20.6971 13.3409 20.5628 14.2811 19.9 14.7781L17.5 16.5781L23.9 21.3781C24.2777 21.6614 24.5 22.106 24.5 22.5781C24.5 23.0503 24.2777 23.4949 23.9 23.7781L15.9 29.7781C15.4455 30.119 14.8374 30.1739 14.3292 29.9198C13.821 29.6657 13.5 29.1463 13.5 28.5781V19.5782L7.90009 23.7782C7.23735 24.2752 6.29714 24.1409 5.80009 23.4782C5.30303 22.8154 5.43735 21.8752 6.10009 21.3782L12.5001 16.5782L6.10009 11.7782C5.43735 11.2811 5.30303 10.3409 5.80009 9.67819C6.29714 9.01544 7.23735 8.88113 7.90009 9.37819L13.5 13.5781V4.57813C13.5 4.00998 13.821 3.49058 14.3292 3.23649ZM15.3 4.17813C15.1485 4.0645 14.9458 4.04622 14.7764 4.13092C14.607 4.21562 14.5 4.38875 14.5 4.57813V14.5781C14.5 14.7675 14.393 14.9407 14.2236 15.0254C14.0542 15.1101 13.8515 15.0918 13.7 14.9781L7.30009 10.1782C7.07917 10.0125 6.76577 10.0573 6.60009 10.2782C6.4344 10.4991 6.47917 10.8125 6.70009 10.9782L13.6334 16.1782C13.7593 16.2726 13.8334 16.4208 13.8334 16.5782C13.8334 16.7356 13.7593 16.8838 13.6334 16.9782L6.70009 22.1782C6.47917 22.3439 6.4344 22.6573 6.60009 22.8782C6.76577 23.0991 7.07917 23.1439 7.30009 22.9782L13.7 18.1782C13.8515 18.0646 14.0542 18.0463 14.2236 18.131C14.393 18.2157 14.5 18.3888 14.5 18.5782V28.5781C14.5 28.7675 14.607 28.9407 14.7764 29.0253C14.9458 29.11 15.1485 29.0918 15.3 28.9781L23.3 22.9781C23.4259 22.8837 23.5 22.7355 23.5 22.5781C23.5 22.4208 23.4259 22.2726 23.3 22.1781L16.3667 16.9781C16.2408 16.8837 16.1667 16.7355 16.1667 16.5781C16.1667 16.4208 16.2408 16.2726 16.3667 16.1781L19.3 13.9781C19.5209 13.8124 19.5657 13.499 19.4 13.2781C19.2343 13.0572 18.9209 13.0124 18.7 13.1781L16.3 14.9781C16.1485 15.0918 15.9458 15.11 15.7764 15.0253C15.607 14.9407 15.5 14.7675 15.5 14.5781V6.57813C15.5 6.38875 15.607 6.21562 15.7764 6.13092C15.9458 6.04622 16.1485 6.0645 16.3 6.17813L18.7 7.97813C18.9209 8.14382 19.2343 8.09905 19.4 7.87813C19.5657 7.65722 19.5209 7.34382 19.3 7.17813L15.3 4.17813ZM21.9394 6.51747C22.5252 5.93168 23.4749 5.93168 24.0607 6.51747L26 8.45681L27.9394 6.51747C28.5252 5.93168 29.4749 5.93168 30.0607 6.51747C30.6465 7.10325 30.6465 8.053 30.0607 8.63879L28.1214 10.5781L30.0607 12.5175C30.6465 13.1033 30.6465 14.053 30.0607 14.6388C29.4749 15.2246 28.5252 15.2246 27.9394 14.6388L26 12.6994L24.0607 14.6388C23.4749 15.2246 22.5252 15.2246 21.9394 14.6388C21.3536 14.053 21.3536 13.1033 21.9394 12.5175L23.8787 10.5781L21.9394 8.63879C21.3536 8.053 21.3536 7.10325 21.9394 6.51747ZM23.3536 7.22458C23.1583 7.02931 22.8417 7.02931 22.6465 7.22458C22.4512 7.41984 22.4512 7.73642 22.6465 7.93168L24.9394 10.2246C25.1346 10.4198 25.1346 10.7364 24.9394 10.9317L22.6465 13.2246C22.4512 13.4198 22.4512 13.7364 22.6465 13.9317C22.8417 14.1269 23.1583 14.1269 23.3536 13.9317L25.6465 11.6388C25.8417 11.4435 26.1583 11.4435 26.3536 11.6388L28.6465 13.9317C28.8417 14.1269 29.1583 14.1269 29.3536 13.9317C29.5488 13.7364 29.5488 13.4198 29.3536 13.2246L27.0607 10.9317C26.8654 10.7364 26.8654 10.4198 27.0607 10.2246L29.3536 7.93168C29.5488 7.73642 29.5488 7.41984 29.3536 7.22458C29.1583 7.02931 28.8417 7.02931 28.6465 7.22458L26.3536 9.51747C26.2598 9.61124 26.1326 9.66391 26 9.66391C25.8674 9.66391 25.7402 9.61124 25.6465 9.51747L23.3536 7.22458ZM15.7764 18.1309C15.9458 18.0462 16.1485 18.0645 16.3 18.1781L21.6334 22.1781C21.7593 22.2726 21.8334 22.4208 21.8334 22.5781C21.8334 22.7355 21.7593 22.8837 21.6334 22.9781L16.3 26.9781C16.1485 27.0918 15.9458 27.11 15.7764 27.0253C15.607 26.9407 15.5 26.7675 15.5 26.5781V18.5781C15.5 18.3887 15.607 18.2156 15.7764 18.1309ZM16.5 19.5781V25.5781L20.5 22.5781L16.5 19.5781Z" fill="white"/>
</svg>
