<svg width="32" height="33" viewBox="0 0 32 33" fill="none" xmlns="http://www.w3.org/2000/svg">
<path fill-rule="evenodd" clip-rule="evenodd" d="M16.0004 18.72C17.2265 18.72 18.2205 17.726 18.2205 16.4999C18.2205 15.2738 17.2265 14.2798 16.0004 14.2798C14.7743 14.2798 13.7803 15.2738 13.7803 16.4999C13.7803 17.726 14.7743 18.72 16.0004 18.72ZM16.0004 20.72C18.3311 20.72 20.2205 18.8306 20.2205 16.4999C20.2205 14.1692 18.3311 12.2798 16.0004 12.2798C13.6697 12.2798 11.7803 14.1692 11.7803 16.4999C11.7803 18.8306 13.6697 20.72 16.0004 20.72Z" fill="white"/>
<path fill-rule="evenodd" clip-rule="evenodd" d="M16.0004 12.7798C13.9458 12.7798 12.2803 14.4453 12.2803 16.4999C12.2803 18.5545 13.9458 20.22 16.0004 20.22C18.0549 20.22 19.7205 18.5545 19.7205 16.4999C19.7205 14.4453 18.0549 12.7798 16.0004 12.7798ZM11.2803 16.4999C11.2803 13.8931 13.3935 11.7798 16.0004 11.7798C18.6072 11.7798 20.7205 13.8931 20.7205 16.4999C20.7205 19.1067 18.6072 21.22 16.0004 21.22C13.3935 21.22 11.2803 19.1067 11.2803 16.4999ZM16.0004 14.7798C15.0504 14.7798 14.2803 15.5499 14.2803 16.4999C14.2803 17.4499 15.0504 18.22 16.0004 18.22C16.9504 18.22 17.7205 17.4499 17.7205 16.4999C17.7205 15.5499 16.9504 14.7798 16.0004 14.7798ZM13.2803 16.4999C13.2803 14.9976 14.4981 13.7798 16.0004 13.7798C17.5027 13.7798 18.7205 14.9976 18.7205 16.4999C18.7205 18.0022 17.5027 19.22 16.0004 19.22C14.4981 19.22 13.2803 18.0022 13.2803 16.4999Z" fill="white"/>
</svg>
