<svg width="32" height="33" viewBox="0 0 32 33" fill="none" xmlns="http://www.w3.org/2000/svg">
<path d="M20.22 16.4999C20.22 18.8306 18.3306 20.72 15.9999 20.72C13.6692 20.72 11.7798 18.8306 11.7798 16.4999C11.7798 14.1692 13.6692 12.2798 15.9999 12.2798C18.3306 12.2798 20.22 14.1692 20.22 16.4999Z" fill="white"/>
<path fill-rule="evenodd" clip-rule="evenodd" d="M15.9999 12.7798C13.9453 12.7798 12.2798 14.4453 12.2798 16.4999C12.2798 18.5545 13.9453 20.22 15.9999 20.22C18.0545 20.22 19.72 18.5545 19.72 16.4999C19.72 14.4453 18.0545 12.7798 15.9999 12.7798ZM11.2798 16.4999C11.2798 13.8931 13.3931 11.7798 15.9999 11.7798C18.6067 11.7798 20.72 13.8931 20.72 16.4999C20.72 19.1067 18.6067 21.22 15.9999 21.22C13.3931 21.22 11.2798 19.1067 11.2798 16.4999Z" fill="white"/>
</svg>
