<svg width="32" height="32" viewBox="0 0 32 32" fill="none" xmlns="http://www.w3.org/2000/svg">
<path fill-rule="evenodd" clip-rule="evenodd" d="M10.7519 4.16795C11.0301 3.75065 11.4985 3.5 12 3.5H20C20.5015 3.5 20.9699 3.75065 21.2481 4.16795L22.8028 6.5H26C26.9283 6.5 27.8185 6.86875 28.4749 7.52513C29.1313 8.1815 29.5 9.07174 29.5 10V24C29.5 24.9283 29.1313 25.8185 28.4749 26.4749C27.8185 27.1313 26.9283 27.5 26 27.5H6C5.07174 27.5 4.1815 27.1313 3.52513 26.4749C2.86875 25.8185 2.5 24.9283 2.5 24V10C2.5 9.07174 2.86875 8.1815 3.52513 7.52513C4.1815 6.86875 5.07174 6.5 6 6.5H9.19722L10.7519 4.16795ZM11.2481 8.83205L12.8028 6.5H19.1972L20.7519 8.83205C21.0301 9.24935 21.4985 9.5 22 9.5H26C26.1326 9.5 26.2598 9.55268 26.3536 9.64645C26.4473 9.74022 26.5 9.86739 26.5 10V24C26.5 24.1326 26.4473 24.2598 26.3535 24.3536C26.2598 24.4473 26.1326 24.5 26 24.5H6C5.86739 24.5 5.74022 24.4473 5.64645 24.3536C5.55268 24.2598 5.5 24.1326 5.5 24V10C5.5 9.86739 5.55268 9.74022 5.64645 9.64645C5.74021 9.55268 5.86739 9.5 6 9.5H10C10.5015 9.5 10.9699 9.24935 11.2481 8.83205ZM10 16.5C10 13.1863 12.6863 10.5 16 10.5C19.3137 10.5 22 13.1863 22 16.5C22 19.8137 19.3137 22.5 16 22.5C12.6863 22.5 10 19.8137 10 16.5ZM16 13.5C14.3431 13.5 13 14.8431 13 16.5C13 18.1569 14.3431 19.5 16 19.5C17.6569 19.5 19 18.1569 19 16.5C19 14.8431 17.6569 13.5 16 13.5Z" fill="white"/>
</svg>
