<svg width="32" height="33" viewBox="0 0 32 33" fill="none" xmlns="http://www.w3.org/2000/svg">
<path fill-rule="evenodd" clip-rule="evenodd" d="M13.4764 6.32418C13.1107 6.64085 12.6725 6.97431 12.1715 7.18269C11.6668 7.39264 11.1215 7.46415 10.6416 7.4957C10.3273 7.51635 9.97668 7.52195 9.65709 7.52704C9.50544 7.52946 9.36078 7.53177 9.23032 7.53552C8.26905 7.56317 7.77973 7.68136 7.51961 7.94148C7.26095 8.20014 7.14752 8.67489 7.12311 9.63023C7.11998 9.75259 7.11812 9.88681 7.11617 10.0275C7.11163 10.354 7.10661 10.7154 7.08422 11.0446C7.0511 11.5316 6.97546 12.0809 6.75988 12.5957C6.54654 13.1051 6.21293 13.5474 5.8927 13.9183C5.67424 14.1714 5.42223 14.4344 5.19353 14.6732C5.0962 14.7747 5.0031 14.8719 4.9186 14.9621C4.60965 15.2916 4.37092 15.5714 4.20848 15.8349C4.05009 16.0918 4 16.2769 4 16.4219C4 16.5655 4.05064 16.7536 4.21248 17.0167C4.37753 17.285 4.61952 17.57 4.92944 17.902C5.01803 17.9969 5.11631 18.0998 5.21898 18.2073C5.44426 18.4431 5.69069 18.701 5.90231 18.9454C6.21898 19.3112 6.55243 19.7493 6.76082 20.2503C6.97077 20.7551 7.04228 21.3004 7.07382 21.7803C7.09448 22.0946 7.10007 22.4452 7.10517 22.7648C7.10759 22.9164 7.1099 23.0611 7.11365 23.1916C7.1413 24.1528 7.25949 24.6421 7.51961 24.9023C7.77827 25.1609 8.25302 25.2744 9.20836 25.2988C9.33073 25.3019 9.46496 25.3038 9.60569 25.3057C9.93213 25.3102 10.2935 25.3153 10.6227 25.3377C11.1097 25.3708 11.659 25.4464 12.1738 25.662C12.6832 25.8753 13.1255 26.2089 13.4964 26.5292C13.7495 26.7476 14.0125 26.9996 14.2513 27.2283C14.3529 27.3257 14.4501 27.4188 14.5402 27.5033C14.8697 27.8122 15.1495 28.051 15.413 28.2134C15.67 28.3718 15.8551 28.4219 16 28.4219C16.1436 28.4219 16.3317 28.3712 16.5948 28.2094C16.8631 28.0443 17.1481 27.8024 17.4801 27.4924C17.575 27.4038 17.6779 27.3056 17.7854 27.2029C18.0212 26.9776 18.2791 26.7312 18.5236 26.5196C18.8893 26.2029 19.3275 25.8694 19.8285 25.6611C20.3332 25.4511 20.8785 25.3796 21.3584 25.3481C21.6727 25.3274 22.0233 25.3218 22.3429 25.3167C22.4945 25.3143 22.6392 25.312 22.7697 25.3082C23.7309 25.2806 24.2203 25.1624 24.4804 24.9023C24.7391 24.6436 24.8525 24.1689 24.8769 23.2135C24.88 23.0911 24.8819 22.9569 24.8838 22.8162C24.8884 22.4897 24.8934 22.1284 24.9158 21.7991C24.9489 21.3122 25.0245 20.7629 25.2401 20.2481C25.4535 19.7387 25.7871 19.2964 26.1073 18.9254C26.3258 18.6724 26.5778 18.4093 26.8065 18.1706C26.9038 18.069 26.9969 17.9718 27.0814 17.8817C27.3903 17.5521 27.6291 17.2723 27.7915 17.0088C27.9499 16.7519 28 16.5668 28 16.4219C28 16.2783 27.9494 16.0902 27.7875 15.8271C27.6225 15.5588 27.3805 15.2738 27.0706 14.9418C26.982 14.8468 26.8837 14.744 26.781 14.6365C26.5557 14.4007 26.3093 14.1427 26.0977 13.8983C25.781 13.5325 25.4476 13.0944 25.2392 12.5934C25.0292 12.0886 24.9577 11.5434 24.9262 11.0634C24.9055 10.7492 24.8999 10.3986 24.8948 10.079C24.8924 9.92733 24.8901 9.78266 24.8864 9.65219C24.8587 8.69093 24.7405 8.2016 24.4804 7.94148C24.2217 7.68282 23.747 7.5694 22.7916 7.54499C22.6693 7.54186 22.5351 7.54 22.3944 7.53804C22.0679 7.53351 21.7065 7.52849 21.3773 7.50609C20.8903 7.47298 20.341 7.39734 19.8262 7.18175C19.3168 6.96841 18.8745 6.6348 18.5036 6.31458C18.2505 6.09611 17.9874 5.8441 17.7487 5.6154C17.6471 5.51808 17.5499 5.42497 17.4598 5.34047C17.1303 5.03153 16.8505 4.79279 16.587 4.63036C16.33 4.47197 16.1449 4.42188 16 4.42188C15.8564 4.42188 15.6683 4.47251 15.4052 4.63436C15.1369 4.79941 14.8519 5.04139 14.5199 5.35131C14.425 5.43991 14.3221 5.53819 14.2146 5.64086C13.9788 5.86614 13.7209 6.11256 13.4764 6.32418ZM14.3573 2.93088C14.8098 2.65249 15.3623 2.42188 16 2.42188C16.6363 2.42188 17.1856 2.64991 17.6365 2.92785C18.0808 3.20174 18.4822 3.55754 18.8277 3.8814C18.9535 3.9993 19.0695 4.11058 19.1805 4.21696C19.3986 4.42614 19.597 4.61636 19.8105 4.80066C20.1224 5.06988 20.3769 5.24409 20.5988 5.337C20.8153 5.42766 21.1097 5.48327 21.513 5.5107C21.7883 5.52943 22.0554 5.53299 22.3511 5.53694C22.5054 5.539 22.6675 5.54116 22.8427 5.54564C23.7218 5.5681 25.0033 5.63593 25.8946 6.52727C26.7845 7.41715 26.8601 8.70907 26.8855 9.59468C26.891 9.78394 26.8936 9.95708 26.8961 10.1212C26.9004 10.4064 26.9043 10.6643 26.9219 10.9323C26.9485 11.3379 27.002 11.6239 27.0858 11.8253C27.1712 12.0306 27.3393 12.2768 27.6097 12.5892C27.7903 12.7977 27.9758 12.9917 28.1798 13.205C28.2912 13.3214 28.408 13.4435 28.5326 13.577C28.8586 13.9262 29.2158 14.3318 29.491 14.7792C29.7694 15.2317 30 15.7842 30 16.4219C30 17.0582 29.772 17.6075 29.494 18.0583C29.2201 18.5027 28.8643 18.9041 28.5405 19.2496C28.4226 19.3753 28.3113 19.4914 28.2049 19.6023C27.9957 19.8205 27.8055 20.0189 27.6212 20.2324C27.352 20.5442 27.1778 20.7988 27.0849 21.0207C26.9942 21.2371 26.9386 21.5316 26.9112 21.9348C26.8924 22.2102 26.8889 22.4772 26.8849 22.7729C26.8829 22.9272 26.8807 23.0894 26.8762 23.2646C26.8538 24.1436 26.7859 25.4251 25.8946 26.3165C25.0047 27.2064 23.7128 27.2819 22.8272 27.3074C22.6379 27.3128 22.4648 27.3155 22.3007 27.3179C22.0155 27.3222 21.7576 27.3261 21.4896 27.3437C21.084 27.3704 20.798 27.4239 20.5965 27.5077C20.3913 27.5931 20.145 27.7612 19.8327 28.0316C19.6241 28.2122 19.4302 28.3977 19.2169 28.6017C19.1005 28.713 18.9783 28.8299 18.8449 28.9544C18.4956 29.2805 18.09 29.6377 17.6427 29.9129C17.1902 30.1913 16.6377 30.4219 16 30.4219C15.3637 30.4219 14.8144 30.1938 14.3635 29.9159C13.9192 29.642 13.5178 29.2862 13.1723 28.9624C13.0465 28.8444 12.9305 28.7332 12.8196 28.6268C12.6014 28.4176 12.403 28.2274 12.1895 28.0431C11.8776 27.7739 11.6231 27.5997 11.4012 27.5068C11.1847 27.4161 10.8903 27.3605 10.487 27.333C10.2117 27.3143 9.94465 27.3108 9.64895 27.3068C9.49462 27.3048 9.33249 27.3026 9.15727 27.2981C8.27823 27.2756 6.99673 27.2078 6.10539 26.3165C5.21552 25.4266 5.13995 24.1347 5.11448 23.2491C5.10903 23.0598 5.10642 22.8867 5.10394 22.7226C5.09964 22.4374 5.09574 22.1794 5.07813 21.9115C5.05147 21.5059 4.99798 21.2199 4.91418 21.0184C4.82882 20.8132 4.66071 20.5669 4.39027 20.2545C4.20972 20.046 4.02422 19.8521 3.82016 19.6387C3.70885 19.5224 3.59201 19.4002 3.46744 19.2668C3.14142 18.9175 2.78418 18.5119 2.509 18.0646C2.23061 17.6121 2 17.0595 2 16.4219C2 15.7856 2.22803 15.2363 2.50597 14.7854C2.77986 14.3411 3.13566 13.9396 3.45953 13.5942C3.57743 13.4684 3.68871 13.3524 3.79508 13.2414C4.00427 13.0233 4.19448 12.8249 4.37878 12.6114C4.64801 12.2995 4.82221 12.0449 4.91512 11.8231C5.00579 11.6066 5.0614 11.3122 5.08883 10.9089C5.10756 10.6335 5.11112 10.3665 5.11506 10.0708C5.11712 9.9165 5.11929 9.75436 5.12376 9.57914C5.14623 8.70011 5.21405 7.41861 6.10539 6.52727C6.99527 5.63739 8.2872 5.56183 9.17281 5.53635C9.36206 5.53091 9.5352 5.52829 9.69932 5.52582C9.98449 5.52151 10.2424 5.51762 10.5104 5.5C10.916 5.47335 11.202 5.41986 11.4035 5.33606C11.6087 5.25069 11.855 5.08259 12.1673 4.81214C12.3759 4.63159 12.5698 4.4461 12.7832 4.24203C12.8995 4.13072 13.0217 4.01389 13.1551 3.88931C13.5044 3.56329 13.91 3.20606 14.3573 2.93088Z" fill="white"/>
<path fill-rule="evenodd" clip-rule="evenodd" d="M16 2.92188C15.486 2.92188 15.0246 3.10741 14.6193 3.35675C14.2166 3.60446 13.8411 3.93298 13.4963 4.25481C13.3654 4.37702 13.2453 4.49184 13.1288 4.60336L13.1242 4.60769C12.914 4.80872 12.7125 5.00148 12.4946 5.19015C12.1692 5.47185 11.8749 5.6815 11.5955 5.79772C11.3179 5.91315 10.9669 5.97108 10.5432 5.99893C10.2626 6.01737 9.99391 6.02143 9.71305 6.02567L9.70687 6.02576C9.54245 6.02824 9.37255 6.03081 9.18719 6.03614C8.28471 6.0621 7.19197 6.1478 6.45895 6.88082C5.72519 7.61458 5.6465 8.69587 5.6236 9.59192C5.61921 9.76365 5.61708 9.92288 5.61502 10.0775L5.61493 10.0843C5.61105 10.3752 5.60733 10.6538 5.58768 10.9428C5.55885 11.3667 5.49829 11.725 5.37631 12.0162C5.25321 12.3102 5.03901 12.6117 4.75726 12.9381C4.5644 13.1615 4.36651 13.3679 4.16051 13.5828L4.15599 13.5875C4.04941 13.6986 3.94 13.8127 3.82429 13.9362C3.50433 14.2775 3.17769 14.6486 2.9316 15.0478C2.68346 15.4503 2.5 15.9085 2.5 16.4219C2.5 16.9359 2.68554 17.3973 2.93487 17.8026C3.18258 18.2053 3.5111 18.5808 3.83294 18.9256C3.95514 19.0565 4.06997 19.1765 4.18148 19.2931L4.18582 19.2977C4.38686 19.5078 4.5796 19.7093 4.76828 19.9273C5.04998 20.2526 5.25962 20.547 5.37584 20.8264C5.49128 21.1039 5.5492 21.455 5.57705 21.8787C5.5955 22.1593 5.59955 22.428 5.60379 22.7088L5.60388 22.715C5.60637 22.8794 5.60894 23.0493 5.61427 23.2347C5.64023 24.1372 5.72593 25.2299 6.45895 25.9629C7.1927 26.6967 8.27399 26.7754 9.17004 26.7983C9.34178 26.8027 9.501 26.8048 9.65562 26.8069L9.66226 26.8069C9.95326 26.8108 10.2319 26.8145 10.521 26.8342C10.9448 26.863 11.3031 26.9236 11.5943 27.0456C11.8883 27.1687 12.1899 27.3829 12.5162 27.6646C12.7396 27.8574 12.9459 28.0553 13.1607 28.2612L13.1656 28.2659C13.2767 28.3725 13.3909 28.4819 13.5143 28.5976C13.8556 28.9175 14.2267 29.2442 14.6259 29.4903C15.0284 29.7384 15.4867 29.9219 16 29.9219C16.514 29.9219 16.9754 29.7363 17.3807 29.487C17.7834 29.2393 18.1589 28.9108 18.5037 28.5889C18.6346 28.4667 18.7547 28.3519 18.8712 28.2404L18.8757 28.2362C19.0859 28.0351 19.2874 27.8423 19.5054 27.6536C19.8308 27.3719 20.1251 27.1623 20.4045 27.046C20.6821 26.9306 21.0331 26.8727 21.4568 26.8448C21.7374 26.8264 22.0061 26.8223 22.2869 26.8181L22.2931 26.818C22.4575 26.8155 22.6274 26.8129 22.8128 26.8076C23.7153 26.7816 24.808 26.6959 25.5411 25.9629C26.2748 25.2292 26.3535 24.1479 26.3764 23.2518C26.3808 23.0801 26.3829 22.9209 26.385 22.7663L26.3851 22.7596C26.389 22.4686 26.3927 22.19 26.4123 21.9009C26.4412 21.4771 26.5017 21.1188 26.6237 20.8275C26.7468 20.5336 26.961 20.232 27.2427 19.9056C27.4356 19.6822 27.6335 19.4759 27.8395 19.261L27.844 19.2563C27.9506 19.1451 28.06 19.031 28.1757 18.9076C28.4957 18.5663 28.8223 18.1952 29.0684 17.796C29.3165 17.3934 29.5 16.9352 29.5 16.4219C29.5 15.9078 29.3145 15.4465 29.0651 15.0411C28.8174 14.6385 28.4889 14.263 28.1671 13.9182C28.0449 13.7873 27.93 13.6672 27.8185 13.5506L27.8143 13.5462C27.6132 13.336 27.4204 13.1344 27.2317 12.9165C26.95 12.5911 26.7404 12.2968 26.6242 12.0174C26.5087 11.7398 26.4508 11.3888 26.4229 10.9651C26.4045 10.6845 26.4005 10.4158 26.3962 10.135L26.3961 10.1288C26.3936 9.96434 26.3911 9.79443 26.3857 9.60906C26.3598 8.70658 26.2741 7.61384 25.5411 6.88082C24.8073 6.14707 23.726 6.06837 22.83 6.04548C22.6582 6.04109 22.499 6.03896 22.3444 6.03689L22.3376 6.0368C22.0467 6.03292 21.7681 6.02921 21.479 6.00955C21.0552 5.98072 20.6969 5.92016 20.4056 5.79819C20.1117 5.67509 19.8101 5.46088 19.4838 5.17914C19.2604 4.98631 19.054 4.78845 18.8392 4.58248L18.8344 4.57786C18.7233 4.47129 18.6091 4.36188 18.4857 4.24617C18.1444 3.9262 17.7733 3.59956 17.3741 3.35347C16.9716 3.10533 16.5133 2.92188 16 2.92188ZM14.0953 2.50501C14.5951 2.19757 15.2387 1.92188 16 1.92188C16.7593 1.92188 17.3996 2.19448 17.8988 2.50222C18.3883 2.80391 18.82 3.18887 19.1697 3.51663C19.2974 3.6364 19.4151 3.74926 19.5256 3.85519L19.5265 3.85605C19.7463 4.0668 19.9353 4.24785 20.1372 4.42218C20.4346 4.67889 20.6422 4.81308 20.7919 4.87581C20.9337 4.93516 21.1642 4.98582 21.5469 5.01186C21.8064 5.0295 22.0597 5.03301 22.3577 5.03698L22.3588 5.037C22.5125 5.03905 22.6772 5.04125 22.8555 5.0458C23.7175 5.06783 25.1992 5.12479 26.2482 6.17371C27.2949 7.22045 27.3603 8.71156 27.3853 9.58031C27.3909 9.77299 27.3935 9.949 27.396 10.1125L27.396 10.1137C27.4003 10.4009 27.4042 10.6462 27.4208 10.8995C27.4463 11.2869 27.4953 11.5079 27.5475 11.6333C27.602 11.7644 27.7286 11.9626 27.9877 12.2619C28.1588 12.4595 28.3356 12.6445 28.5412 12.8594L28.5419 12.8602C28.6528 12.9761 28.7714 13.1001 28.8981 13.2358C29.2283 13.5895 29.6142 14.0252 29.9169 14.5172C30.2243 15.0169 30.5 15.6606 30.5 16.4219C30.5 17.1811 30.2274 17.8215 29.9197 18.3207C29.618 18.8101 29.233 19.2419 28.9052 19.5915C28.7854 19.7194 28.6724 19.8372 28.5665 19.9477C28.3557 20.1675 28.174 20.3572 27.9997 20.5591C27.743 20.8565 27.6088 21.064 27.5461 21.2138C27.4867 21.3555 27.4361 21.586 27.41 21.9688C27.3924 22.2283 27.3889 22.4816 27.3849 22.7796L27.3849 22.7809C27.3828 22.9345 27.3806 23.0992 27.3761 23.2774C27.354 24.1394 27.2971 25.6211 26.2482 26.67C25.2014 27.7168 23.7103 27.7822 22.8416 27.8072C22.6489 27.8127 22.4729 27.8154 22.3094 27.8179L22.3082 27.8179C22.021 27.8222 21.7757 27.826 21.5224 27.8427C21.1349 27.8681 20.914 27.9172 20.7886 27.9694C20.6575 28.0239 20.4593 28.1504 20.16 28.4096C19.9623 28.5807 19.7773 28.7575 19.5625 28.963C19.4465 29.074 19.3218 29.1932 19.1861 29.3199C18.8323 29.6501 18.3967 30.0361 17.9047 30.3387C17.4049 30.6462 16.7613 30.9219 16 30.9219C15.2407 30.9219 14.6004 30.6493 14.1012 30.3415C13.6117 30.0398 13.18 29.6549 12.8303 29.3271C12.7026 29.2073 12.5849 29.0945 12.4744 28.9885L12.4735 28.9877C12.2537 28.777 12.0647 28.5959 11.8628 28.4216C11.5654 28.1649 11.3578 28.0307 11.2081 27.9679C11.0663 27.9086 10.8358 27.8579 10.4531 27.8319C10.1936 27.8142 9.94028 27.8107 9.64227 27.8068L9.64101 27.8068C9.48734 27.8047 9.32271 27.8025 9.14449 27.7979C8.28248 27.7759 6.80076 27.719 5.75184 26.67C4.7051 25.6233 4.63967 24.1322 4.61468 23.2634C4.60914 23.0708 4.60648 22.8948 4.60401 22.7312L4.604 22.7301C4.59966 22.4429 4.59585 22.1975 4.57921 21.9443C4.55374 21.5568 4.50468 21.3358 4.45252 21.2104C4.39801 21.0794 4.27145 20.8812 4.01226 20.5818C3.84118 20.3842 3.66436 20.1992 3.45883 19.9843L3.45773 19.9832C3.34694 19.8674 3.22846 19.7435 3.10194 19.6079C2.77174 19.2542 2.38579 18.8186 2.08314 18.3266C1.77569 17.8268 1.5 17.1832 1.5 16.4219C1.5 15.6626 1.77261 15.0222 2.08034 14.523C2.38204 14.0336 2.76699 13.6018 3.09476 13.2522C3.21463 13.1244 3.32757 13.0066 3.43356 12.896C3.64431 12.6762 3.82598 12.4866 4.0003 12.2846C4.25701 11.9873 4.39121 11.7797 4.45394 11.6299C4.51329 11.4882 4.56395 11.2577 4.58998 10.875C4.60763 10.6155 4.61113 10.3622 4.61511 10.0641L4.61512 10.0631C4.61717 9.90935 4.61937 9.74465 4.62393 9.56637C4.64595 8.70435 4.70292 7.22264 5.75184 6.17372C6.79858 5.12698 8.28969 5.06155 9.15843 5.03656C9.35111 5.03102 9.52711 5.02836 9.69062 5.02589L9.69178 5.02587C9.979 5.02154 10.2243 5.01773 10.4776 5.00108C10.8651 4.97562 11.086 4.92656 11.2114 4.8744C11.3425 4.81989 11.5407 4.69332 11.8401 4.43413C12.0376 4.26306 12.2227 4.08623 12.4375 3.8807L12.4384 3.87988C12.5543 3.76901 12.6783 3.65044 12.8139 3.52381C13.1677 3.19361 13.6033 2.80766 14.0953 2.50501ZM15.1432 4.20849C15.4541 4.01727 15.7332 3.92188 16 3.92188C16.2674 3.92188 16.5435 4.0162 16.8493 4.20473C17.1582 4.39512 17.4685 4.66326 17.8018 4.97571C17.8939 5.06204 17.9927 5.15669 18.0934 5.25315L18.0946 5.25435C18.3353 5.48491 18.5888 5.72762 18.8303 5.9361C19.1863 6.24344 19.5817 6.53728 20.0194 6.72056C20.4597 6.90497 20.9454 6.97556 21.4112 7.00725C21.7245 7.02856 22.072 7.03351 22.4013 7.03809L22.4031 7.03811C22.5425 7.04005 22.6791 7.04195 22.8044 7.04515C23.2936 7.05765 23.6915 7.09318 24.012 7.16873C24.3369 7.2453 24.6169 7.37092 24.8339 7.58793C25.0523 7.80625 25.179 8.09073 25.2569 8.41803C25.3342 8.7425 25.372 9.14503 25.3861 9.63781C25.39 9.77141 25.3923 9.91865 25.3947 10.0687L25.3948 10.071C25.3999 10.3934 25.4054 10.7311 25.4251 11.0306C25.4554 11.4917 25.5224 11.9723 25.7008 12.4014C25.8785 12.8286 26.1708 13.2188 26.4757 13.571C26.6778 13.8045 26.9154 14.0534 27.1426 14.2911L27.1434 14.292C27.2453 14.3987 27.3454 14.5034 27.4361 14.6006C27.7498 14.9366 28.0207 15.2519 28.2134 15.5651C28.4046 15.8759 28.5 16.1551 28.5 16.4219C28.5 16.6893 28.4057 16.9654 28.2171 17.2712C28.0268 17.5801 27.7586 17.8904 27.4462 18.2237C27.3598 18.3157 27.2652 18.4145 27.1688 18.5152L27.1675 18.5165C26.937 18.7572 26.6943 19.0107 26.4858 19.2522C26.1784 19.6082 25.8846 20.0036 25.7013 20.4412C25.5169 20.8815 25.4463 21.3672 25.4146 21.8331C25.3933 22.1464 25.3884 22.4938 25.3838 22.8231L25.3838 22.8249C25.3818 22.9643 25.3799 23.101 25.3767 23.2263C25.3642 23.7154 25.3287 24.1133 25.2531 24.4339C25.1766 24.7588 25.051 25.0388 24.8339 25.2558C24.6156 25.4741 24.3311 25.6008 24.0038 25.6788C23.6794 25.7561 23.2768 25.7938 22.7841 25.808C22.6505 25.8119 22.5032 25.8142 22.3532 25.8166L22.3508 25.8166C22.0285 25.8218 21.6908 25.8273 21.3912 25.847C20.9301 25.8773 20.4496 25.9442 20.0205 26.1227C19.5933 26.3004 19.2031 26.5926 18.8509 26.8976C18.6174 27.0997 18.3685 27.3373 18.1308 27.5644C18.0238 27.6666 17.9187 27.767 17.8213 27.8579C17.4852 28.1717 17.17 28.4426 16.8568 28.6353C16.5459 28.8265 16.2668 28.9219 16 28.9219C15.7326 28.9219 15.4565 28.8275 15.1507 28.639C14.8418 28.4486 14.5315 28.1805 14.1982 27.868C14.1061 27.7817 14.0074 27.6871 13.9067 27.5907L13.9054 27.5894C13.6647 27.3588 13.4112 27.1161 13.1697 26.9077C12.8137 26.6003 12.4183 26.3065 11.9806 26.1232C11.5403 25.9388 11.0546 25.8682 10.5888 25.8365C10.2755 25.8152 9.92803 25.8102 9.59874 25.8057L9.59694 25.8056C9.45756 25.8037 9.32088 25.8018 9.19559 25.7986C8.70644 25.7861 8.30854 25.7506 7.98802 25.675C7.66312 25.5984 7.38306 25.4728 7.16605 25.2558C6.94774 25.0375 6.82104 24.753 6.74306 24.4257C6.66576 24.1013 6.62803 23.6987 6.61386 23.2059C6.61001 23.0723 6.60766 22.925 6.60527 22.7748L6.60523 22.7728C6.60009 22.4504 6.59459 22.1127 6.5749 21.8131C6.54459 21.352 6.47763 20.8714 6.29916 20.4424C6.12147 20.0152 5.82924 19.6249 5.5243 19.2727C5.32216 19.0392 5.08457 18.7904 4.85744 18.5526L4.8561 18.5512C4.75438 18.4448 4.65448 18.3402 4.56394 18.2432C4.25021 17.9071 3.97928 17.5918 3.78661 17.2786C3.5954 16.9678 3.5 16.6887 3.5 16.4219C3.5 16.1544 3.59433 15.8784 3.78285 15.5725C3.97324 15.2637 4.24139 14.9534 4.55383 14.6201C4.64021 14.528 4.7349 14.4291 4.83141 14.3284L4.83247 14.3273C5.06303 14.0866 5.30574 13.8331 5.51422 13.5916C5.82156 13.2356 6.11541 12.8401 6.29869 12.4025C6.48309 11.9622 6.55369 11.4765 6.58537 11.0107C6.60668 10.6974 6.61164 10.3499 6.61621 10.0206L6.61624 10.0188C6.61817 9.8794 6.62007 9.74275 6.62327 9.61746C6.63577 9.12831 6.67131 8.73041 6.74685 8.4099C6.82343 8.08499 6.94905 7.80494 7.16605 7.58793C7.38437 7.36961 7.66886 7.24292 7.99616 7.16494C8.32062 7.08764 8.72315 7.04991 9.21594 7.03573C9.3496 7.03189 9.49691 7.02954 9.64703 7.02714L9.64912 7.02711C9.97149 7.02197 10.3092 7.01646 10.6088 6.99678C11.0699 6.96647 11.5504 6.8995 11.9795 6.72103C12.4067 6.54335 12.7969 6.25111 13.1491 5.94617C13.3826 5.74403 13.6315 5.50645 13.8692 5.27932L13.8705 5.2781C13.977 5.17634 14.0817 5.07639 14.1787 4.98581C14.5148 4.67209 14.83 4.40115 15.1432 4.20849ZM16 4.92188C15.9796 4.92188 15.8825 4.92775 15.6672 5.06022C15.4438 5.19767 15.189 5.4107 14.8611 5.71681C14.7687 5.80306 14.668 5.89923 14.56 6.00239L14.5554 6.00678C14.3226 6.22917 14.0574 6.48253 13.8037 6.70219C13.4244 7.03059 12.9384 7.40527 12.3636 7.64435C11.7831 7.88578 11.1732 7.96184 10.6744 7.99462C10.3477 8.01609 9.98685 8.02185 9.6716 8.02688L9.66507 8.02698C9.5126 8.02941 9.37133 8.03167 9.24469 8.03532C8.77622 8.04879 8.45345 8.08398 8.22791 8.13771C8.0052 8.19077 7.91496 8.25323 7.87316 8.29504C7.83151 8.33669 7.77108 8.42334 7.72018 8.6393C7.66824 8.85966 7.63486 9.17681 7.62295 9.64301C7.61991 9.76189 7.61808 9.89303 7.61612 10.0345L7.61602 10.0412C7.61155 10.3633 7.60638 10.7358 7.58307 11.0785C7.54851 11.5866 7.46784 12.1996 7.22106 12.7888C6.97767 13.37 6.6043 13.8592 6.27118 14.245C6.04423 14.5079 5.78485 14.7787 5.55905 15.0144L5.55458 15.019C5.45681 15.1211 5.36567 15.2163 5.28337 15.304C4.97791 15.6299 4.7686 15.8791 4.63411 16.0973C4.50586 16.3053 4.5 16.3994 4.5 16.4219C4.5 16.4423 4.50588 16.5393 4.63835 16.7547C4.77579 16.9781 4.98883 17.2329 5.29494 17.5608C5.38118 17.6532 5.47736 17.7539 5.58052 17.8619L5.58499 17.8666C5.80735 18.0993 6.06069 18.3645 6.28032 18.6182C6.60872 18.9975 6.98339 19.4835 7.22248 20.0583C7.46391 20.6388 7.53996 21.2487 7.57275 21.7475C7.59422 22.0742 7.59997 22.435 7.605 22.7503L7.60511 22.7568C7.60754 22.9093 7.6098 23.0505 7.61344 23.1772C7.62692 23.6457 7.6621 23.9684 7.71584 24.194C7.7689 24.4167 7.83136 24.5069 7.87316 24.5487C7.91481 24.5904 8.00146 24.6508 8.21743 24.7017C8.43779 24.7536 8.75494 24.787 9.22113 24.7989C9.34003 24.802 9.47119 24.8038 9.61263 24.8058L9.61942 24.8059C9.94148 24.8103 10.3139 24.8155 10.6567 24.8388C11.1647 24.8734 11.7777 24.954 12.3669 25.2008C12.9481 25.4442 13.4373 25.8176 13.8232 26.1507C14.0861 26.3776 14.3568 26.637 14.5925 26.8628L14.5972 26.8673C14.6992 26.9651 14.7944 27.0562 14.8822 27.1385C15.208 27.444 15.4572 27.6533 15.6754 27.7878C15.8835 27.916 15.9775 27.9219 16 27.9219C16.0204 27.9219 16.1175 27.916 16.3328 27.7835C16.5562 27.6461 16.811 27.433 17.1389 27.1269C17.2313 27.0407 17.332 26.9445 17.44 26.8414L17.4447 26.8368C17.6775 26.6145 17.9426 26.3612 18.1963 26.1416C18.5756 25.8132 19.0616 25.4385 19.6364 25.1994C20.2169 24.958 20.8268 24.8819 21.3256 24.8491C21.6523 24.8277 22.0131 24.8219 22.3283 24.8169L22.3349 24.8168C22.4874 24.8143 22.6287 24.8121 22.7553 24.8084C23.2238 24.795 23.5465 24.7598 23.7721 24.706C23.9948 24.653 24.085 24.5905 24.1268 24.5487C24.1685 24.5071 24.2289 24.4204 24.2798 24.2044C24.3318 23.9841 24.3651 23.6669 24.3771 23.2007C24.3801 23.0818 24.3819 22.9507 24.3839 22.8092L24.384 22.8025C24.3885 22.4804 24.3936 22.1079 24.4169 21.7652C24.4515 21.2571 24.5322 20.6442 24.7789 20.0549C25.0223 19.4738 25.3957 18.9846 25.7288 18.5987C25.9558 18.3358 26.2151 18.0651 26.4409 17.8294L26.4454 17.8247C26.5432 17.7227 26.6343 17.6275 26.7166 17.5397C27.0221 17.2139 27.2314 16.9646 27.3659 16.7465C27.4941 16.5384 27.5 16.4443 27.5 16.4219C27.5 16.4015 27.4941 16.3044 27.3617 16.0891C27.2242 15.8657 27.0112 15.6109 26.7051 15.2829C26.6188 15.1905 26.5226 15.0899 26.4195 14.9819L26.415 14.9772C26.1927 14.7445 25.9393 14.4793 25.7197 14.2256C25.3913 13.8463 25.0166 13.3602 24.7775 12.7854C24.5361 12.205 24.46 11.595 24.4273 11.0962C24.4058 10.7696 24.4 10.4088 24.395 10.0935L24.3949 10.087C24.3925 9.93449 24.3902 9.79322 24.3866 9.66657C24.3731 9.19809 24.3379 8.87533 24.2842 8.64979C24.2311 8.42707 24.1686 8.33684 24.1268 8.29503C24.0852 8.25338 23.9985 8.19296 23.7826 8.14206C23.5622 8.09012 23.2451 8.05674 22.7789 8.04482C22.66 8.04179 22.5288 8.03996 22.3874 8.03799L22.3807 8.0379C22.0586 8.03343 21.6861 8.02825 21.3433 8.00494C20.8353 7.97039 20.2223 7.88971 19.6331 7.64294C19.0519 7.39954 18.5627 7.02617 18.1768 6.69306C17.9139 6.4661 17.6432 6.20672 17.4075 5.98093L17.4028 5.97646C17.3008 5.87868 17.2056 5.78754 17.1178 5.70524C16.792 5.39979 16.5428 5.19047 16.3246 5.05598C16.1165 4.92773 16.0225 4.92188 16 4.92188Z" fill="white"/>
</svg>
