<svg width="32" height="33" viewBox="0 0 32 33" fill="none" xmlns="http://www.w3.org/2000/svg">
<path d="M30 16.4219C30 17.7219 29.0625 18.7094 28.2375 19.5719C27.7625 20.0594 27.275 20.5719 27.0875 21.0094C26.9 21.4469 26.9125 22.0969 26.9 22.7594C26.8875 23.9719 26.8625 25.3594 25.9 26.3219C24.9375 27.2844 23.55 27.3094 22.3375 27.3219C21.675 27.3344 21 27.3469 20.5875 27.5094C20.175 27.6719 19.6375 28.1844 19.15 28.6594C18.2875 29.4844 17.3 30.4219 16 30.4219C14.7 30.4219 13.7125 29.4844 12.85 28.6594C12.3625 28.1844 11.85 27.6969 11.4125 27.5094C10.975 27.3219 10.325 27.3344 9.6625 27.3219C8.45 27.3094 7.0625 27.2844 6.1 26.3219C5.1375 25.3594 5.1125 23.9719 5.1 22.7594C5.0875 22.0969 5.075 21.4219 4.9125 21.0094C4.75 20.5969 4.2375 20.0594 3.7625 19.5719C2.9375 18.7094 2 17.7219 2 16.4219C2 15.1219 2.9375 14.1344 3.7625 13.2719C4.2375 12.7844 4.725 12.2719 4.9125 11.8344C5.1 11.3969 5.0875 10.7469 5.1 10.0844C5.1125 8.87188 5.1375 7.48438 6.1 6.52187C7.0625 5.55937 8.45 5.53437 9.6625 5.52187C10.325 5.50937 11 5.49687 11.4125 5.33437C11.825 5.17188 12.3625 4.65937 12.85 4.18438C13.7125 3.35938 14.7 2.42188 16 2.42188C17.3 2.42188 18.2875 3.35938 19.15 4.18438C19.6375 4.65937 20.15 5.14687 20.5875 5.33437C21.025 5.52187 21.675 5.50937 22.3375 5.52187C23.55 5.53437 24.9375 5.55937 25.9 6.52187C26.8625 7.48438 26.8875 8.87188 26.9 10.0844C26.9125 10.7469 26.925 11.4219 27.0875 11.8344C27.25 12.2469 27.7625 12.7844 28.2375 13.2719C29.0625 14.1344 30 15.1219 30 16.4219Z" fill="white"/>
<path fill-rule="evenodd" clip-rule="evenodd" d="M13.1972 4.54416C12.9548 4.78033 12.6871 5.03853 12.4251 5.25908C12.1709 5.47309 11.8817 5.68693 11.5958 5.79958C11.3193 5.90849 10.9878 5.95667 10.6723 5.98268C10.3542 6.00892 10.0077 6.01545 9.68365 6.02156L9.66765 6.02187C8.41442 6.03479 7.24887 6.08011 6.45355 6.87543C5.65823 7.67075 5.61289 8.83629 5.59997 10.0895L5.59993 10.0938C5.59867 10.1608 5.59764 10.2293 5.59662 10.2987C5.59282 10.5579 5.58883 10.8294 5.57055 11.0801C5.54746 11.3968 5.49899 11.7352 5.37207 12.0313C5.24901 12.3185 5.04234 12.6009 4.82821 12.8559C4.61064 13.115 4.35855 13.3766 4.12228 13.6191C3.26609 14.5143 2.5 15.3571 2.5 16.4219C2.5 17.4866 3.26609 18.3295 4.12229 19.2247C4.35846 19.4671 4.61666 19.7348 4.83721 19.9968C5.05121 20.251 5.26505 20.5402 5.3777 20.8261C5.48661 21.1026 5.53479 21.4341 5.56081 21.7495C5.58704 22.0676 5.59358 22.4142 5.59969 22.7382L5.59999 22.7542C5.61289 24.0075 5.65823 25.173 6.45355 25.9683C7.24887 26.7636 8.41442 26.809 9.66765 26.8219L9.67193 26.8219C9.73892 26.8232 9.80743 26.8242 9.87683 26.8253C10.136 26.8291 10.4075 26.833 10.6582 26.8513C10.9749 26.8744 11.3133 26.9229 11.6095 27.0498C11.8966 27.1729 12.179 27.3795 12.434 27.5937C12.6931 27.8112 12.9547 28.0633 13.1972 28.2996C14.0924 29.1558 14.9352 29.9219 16 29.9219C17.0648 29.9219 17.9076 29.1558 18.8028 28.2996C19.0452 28.0634 19.3129 27.8052 19.5749 27.5847C19.8291 27.3707 20.1183 27.1568 20.4042 27.0442C20.6807 26.9353 21.0122 26.8871 21.3277 26.8611C21.6457 26.8348 21.9922 26.8283 22.3163 26.8222L22.3281 26.822L22.3323 26.8219C23.5856 26.809 24.7511 26.7636 25.5464 25.9683C26.3418 25.173 26.3871 24.0075 26.4 22.7542L26.4001 22.7499C26.4014 22.683 26.4024 22.6144 26.4034 22.545C26.4072 22.2859 26.4112 22.0143 26.4294 21.7636C26.4525 21.447 26.501 21.1086 26.6279 20.8124C26.751 20.5253 26.9577 20.2428 27.1718 19.9878C27.3894 19.7287 27.6414 19.4672 27.8777 19.2247C28.7339 18.3295 29.5 17.4867 29.5 16.4219C29.5 15.3571 28.7339 14.5143 27.8777 13.6191C27.6415 13.3767 27.3833 13.109 27.1628 12.847C26.9488 12.5928 26.7349 12.3036 26.6223 12.0176C26.5134 11.7412 26.4652 11.4097 26.4392 11.0942C26.413 10.7761 26.4064 10.4296 26.4003 10.1056L26.4 10.0895C26.3871 8.83629 26.3418 7.67075 25.5464 6.87543C24.7511 6.08011 23.5856 6.03477 22.3323 6.02185L22.3281 6.0218C22.2611 6.02054 22.1926 6.01952 22.1232 6.0185C21.864 6.01469 21.5924 6.0107 21.3418 5.99243C21.0251 5.96934 20.6867 5.92086 20.3905 5.79395C20.1034 5.67088 19.821 5.46421 19.566 5.25009C19.3069 5.03251 19.0453 4.78043 18.8028 4.54416C17.9076 3.68797 17.0648 2.92188 16 2.92188C14.9352 2.92188 14.0924 3.68797 13.1972 4.54416ZM12.546 3.78321C13.3714 2.99331 14.4909 1.92188 16 1.92188C17.5091 1.92188 18.6286 2.99331 19.454 3.78321C19.4679 3.79658 19.4818 3.80986 19.4956 3.82305L19.4989 3.82624C19.7435 4.06449 19.9812 4.293 20.209 4.48429C20.4415 4.67954 20.6341 4.81037 20.7845 4.8748C20.9258 4.93539 21.1311 4.97441 21.4145 4.99507C21.6333 5.01103 21.8658 5.01449 22.1202 5.01828C22.1932 5.01937 22.268 5.02048 22.3448 5.02192L22.3469 5.02196L22.3794 5.02228C23.5479 5.0342 25.1356 5.0504 26.2536 6.16832C27.3715 7.28624 27.3877 8.87401 27.3996 10.0425L27.3999 10.0749L27.4 10.0772C27.4063 10.4114 27.4124 10.7283 27.4358 11.012C27.4598 11.3028 27.4991 11.5151 27.5527 11.6511C27.6026 11.7777 27.7262 11.9635 27.9278 12.203C28.1224 12.4341 28.3572 12.6783 28.5956 12.9229L28.5988 12.9262C28.612 12.94 28.6253 12.9539 28.6387 12.9679C29.4286 13.7933 30.5 14.9128 30.5 16.4219C30.5 17.9309 29.4286 19.0505 28.6387 19.8758L28.5988 19.9175L28.5956 19.9208C28.3574 20.1653 28.1289 20.4031 27.9376 20.6309C27.7423 20.8634 27.6115 21.056 27.5471 21.2063C27.4865 21.3477 27.4475 21.553 27.4268 21.8364C27.4108 22.0552 27.4074 22.2876 27.4036 22.542C27.4025 22.615 27.4014 22.6898 27.4 22.7666L27.3999 22.7688L27.3996 22.8013C27.3877 23.9697 27.3715 25.5575 26.2536 26.6754C25.1356 27.7934 23.5479 27.8096 22.3794 27.8215L22.3469 27.8218L22.3447 27.8218C22.0105 27.8281 21.6935 27.8343 21.4098 27.8577C21.119 27.8817 20.9068 27.921 20.7708 27.9746C20.6442 28.0244 20.4584 28.1481 20.2189 28.3497C19.9877 28.5443 19.7436 28.7791 19.4989 29.0175L19.4956 29.0207L19.454 29.0605C18.6286 29.8504 17.5091 30.9219 16 30.9219C14.4909 30.9219 13.3714 29.8504 12.546 29.0605C12.5321 29.0472 12.5182 29.0339 12.5044 29.0207L12.5011 29.0175C12.2565 28.7792 12.0188 28.5507 11.791 28.3595C11.5585 28.1642 11.3659 28.0334 11.2155 27.9689C11.0742 27.9084 10.8689 27.8693 10.5855 27.8487C10.3667 27.8327 10.1343 27.8293 9.87988 27.8255C9.80688 27.8244 9.73209 27.8233 9.65529 27.8218L9.65307 27.8218L9.62062 27.8215C8.45213 27.8096 6.86437 27.7934 5.74645 26.6754C4.62853 25.5575 4.61233 23.9697 4.6004 22.8013L4.60009 22.7688L4.60005 22.7666C4.59374 22.4324 4.58759 22.1154 4.56419 21.8317C4.54021 21.5409 4.50089 21.3287 4.4473 21.1926C4.39745 21.0661 4.27379 20.8803 4.07217 20.6407C3.87761 20.4096 3.64276 20.1655 3.40439 19.9208L3.40116 19.9175C3.38797 19.9037 3.3747 19.8898 3.36134 19.8758C2.57143 19.0505 1.5 17.9309 1.5 16.4219C1.5 14.9128 2.57143 13.7933 3.36134 12.9679C3.3747 12.9539 3.38798 12.9401 3.40118 12.9263L3.40437 12.9229C3.64262 12.6784 3.87113 12.4406 4.06241 12.2128C4.25766 11.9803 4.38849 11.7878 4.45293 11.6374C4.51351 11.4961 4.55254 11.2907 4.5732 11.0074C4.58915 10.7886 4.59262 10.5561 4.5964 10.3017C4.59749 10.2287 4.5986 10.1539 4.60005 10.0771L4.6004 10.0425C4.61233 8.874 4.62853 7.28624 5.74645 6.16832C6.86437 5.0504 8.45213 5.0342 9.62061 5.02228L9.65523 5.02192C9.98951 5.01562 10.3065 5.00946 10.5902 4.98607C10.881 4.96208 11.0932 4.92276 11.2292 4.86917C11.3558 4.81932 11.5416 4.69566 11.7811 4.49404C12.0123 4.29949 12.2564 4.06464 12.5011 3.82626L12.5044 3.82304C12.5182 3.80984 12.5321 3.79658 12.546 3.78321Z" fill="white"/>
</svg>
