<svg width="32" height="33" viewBox="0 0 32 33" fill="none" xmlns="http://www.w3.org/2000/svg">
<path d="M18.6427 7.68106C20.0525 7.466 21.4932 7.58901 22.8461 8.03998C24.1989 8.49094 25.4253 9.25693 26.4241 10.2748C27.4228 11.2927 28.1654 12.5334 28.5906 13.8946C29.0158 15.2558 29.1115 16.6986 28.8697 18.104C28.6279 19.5094 28.0556 20.8373 27.2 21.9781C26.8686 22.42 26.9582 23.0468 27.4 23.3781C27.8418 23.7095 28.4686 23.62 28.8 23.1781C29.8458 21.7838 30.5452 20.1608 30.8408 18.4431C31.1363 16.7253 31.0193 14.962 30.4996 13.2983C29.98 11.6346 29.0723 10.1182 27.8516 8.87411C26.6309 7.63 25.132 6.69379 23.4785 6.14261C21.825 5.59143 20.0641 5.44108 18.3411 5.70393C16.6181 5.96679 14.9822 6.63533 13.5682 7.65446C12.1542 8.6736 11.0027 10.0141 10.2084 11.5656C10.1923 11.5972 10.1763 11.6287 10.1605 11.6604C9.77645 11.6055 9.38864 11.578 9 11.5781C6.8784 11.5782 4.84335 12.4211 3.34315 13.9213C1.84285 15.4216 1 17.4564 1 19.5781C1 21.6999 1.84285 23.7347 3.34315 25.235C4.84344 26.7353 6.87827 27.5781 9 27.5781H12C12.5523 27.5781 13 27.1304 13 26.5781C13 26.0258 12.5523 25.5781 12 25.5781H9C7.4087 25.5781 5.88258 24.946 4.75736 23.8208C3.63214 22.6955 3 21.1694 3 19.5781C3 17.9868 3.63214 16.4607 4.75736 15.3355C5.88258 14.2103 7.4087 13.5781 9 13.5781C9.1378 13.5781 9.27584 13.5826 9.41314 13.5918C9.13995 14.5602 9 15.565 9 16.5781C9 17.1304 9.44771 17.5781 10 17.5781C10.5523 17.5781 11 17.1304 11 16.5781C11 15.1521 11.3389 13.7464 11.9887 12.477C12.6385 11.2076 13.5807 10.1108 14.7376 9.27695C15.8945 8.44311 17.233 7.89612 18.6427 7.68106Z" fill="white"/>
<path d="M19.713 15.8769C19.6922 15.8558 19.6704 15.8355 19.6478 15.8163C19.5731 15.7526 19.4913 15.7017 19.4052 15.6636C19.2822 15.609 19.1461 15.5785 19.003 15.5781L19 15.5781C18.9969 15.5781 18.9938 15.5781 18.9907 15.5782C18.8665 15.5793 18.7476 15.6031 18.6381 15.6456C18.5123 15.6944 18.3944 15.7695 18.2928 15.871L14.0553 20.1085C13.6648 20.499 13.6648 21.1322 14.0553 21.5227C14.4459 21.9133 15.079 21.9133 15.4696 21.5227L18 18.9923V26.5781C18 27.1304 18.4477 27.5781 19 27.5781C19.5523 27.5781 20 27.1304 20 26.5781V18.9924L22.5303 21.5227C22.9209 21.9133 23.554 21.9133 23.9446 21.5227C24.3351 21.1322 24.3351 20.499 23.9446 20.1085L19.713 15.8769Z" fill="white"/>
<path fill-rule="evenodd" clip-rule="evenodd" d="M18.2657 5.20965C20.0671 4.93485 21.9079 5.09204 23.6366 5.66827C25.3653 6.2445 26.9323 7.22327 28.2085 8.52393C29.4847 9.82458 30.4336 11.4099 30.9769 13.1492C31.5202 14.8885 31.6425 16.732 31.3335 18.5279C31.0246 20.3237 30.2933 22.0204 29.2 23.4781C28.7029 24.1409 27.7627 24.2752 27.1 23.7781C26.4373 23.2811 26.3029 22.3409 26.8 21.6781C27.6081 20.6007 28.1486 19.3466 28.3769 18.0192C28.6053 16.6919 28.5149 15.3293 28.1134 14.0437C27.7118 12.7581 27.0104 11.5864 26.0672 10.625C25.1239 9.66367 23.9657 8.94023 22.6879 8.51432C21.4102 8.08841 20.0496 7.97223 18.7181 8.17534C17.3867 8.37846 16.1226 8.89506 15.03 9.68257C13.9373 10.4701 13.0475 11.506 12.4338 12.7048C11.8201 13.9037 11.5 15.2313 11.5 16.5781C11.5 17.4066 10.8284 18.0781 10 18.0781C9.17157 18.0781 8.5 17.4066 8.5 16.5781C8.5 15.7359 8.59251 14.8992 8.774 14.0828C7.39746 14.1393 6.08897 14.711 5.11091 15.689C4.07946 16.7205 3.5 18.1194 3.5 19.5781C3.5 21.0368 4.07946 22.4358 5.11091 23.4672C6.14236 24.4987 7.54131 25.0781 9 25.0781H12C12.8284 25.0781 13.5 25.7497 13.5 26.5781C13.5 27.4066 12.8284 28.0781 12 28.0781H9C6.74566 28.0781 4.58365 27.1826 2.98959 25.5885C1.39553 23.9945 0.5 21.8325 0.5 19.5781C0.5 17.3238 1.39553 15.1618 2.98959 13.5677C4.58354 11.9738 6.74571 11.0783 8.99984 11.0781M9 13.0781C9.14885 13.0781 9.29795 13.083 9.44631 13.0929C9.59675 13.1029 9.73465 13.1802 9.8216 13.3034C9.90856 13.4266 9.9353 13.5824 9.89436 13.7275C9.63359 14.652 9.5 15.611 9.5 16.5781C9.5 16.8543 9.72386 17.0781 10 17.0781C10.2761 17.0781 10.5 16.8543 10.5 16.5781C10.5 15.0728 10.8577 13.5891 11.5436 12.2492C12.2296 10.9092 13.2241 9.75149 14.4453 8.87133C15.6664 7.99117 17.0792 7.41379 18.5673 7.18678C20.0554 6.95977 21.5761 7.08962 23.0042 7.56563C24.4322 8.04165 25.7267 8.8502 26.781 9.92466C27.8352 10.9991 28.619 12.3087 29.0679 13.7455C29.5167 15.1824 29.6177 16.7053 29.3625 18.1888C29.1073 19.6723 28.5032 21.0739 27.6 22.2781C27.4343 22.499 27.4791 22.8124 27.7 22.9781C27.9209 23.1438 28.2343 23.099 28.4 22.8781C29.3982 21.5471 30.0659 19.998 30.348 18.3583C30.6301 16.7187 30.5185 15.0354 30.0224 13.4474C29.5263 11.8593 28.66 10.4118 27.4947 9.22429C26.3295 8.03674 24.8988 7.14307 23.3204 6.61695C21.742 6.09083 20.0612 5.94731 18.4165 6.19822C16.7718 6.44912 15.2102 7.08727 13.8605 8.06008C12.5108 9.03289 11.4116 10.3125 10.6535 11.7935C10.6381 11.8236 10.6228 11.8537 10.6077 11.8839C10.5115 12.0765 10.3029 12.1858 10.0898 12.1554C10.0575 12.1508 10.0251 12.1464 9.99273 12.1421L10.1411 12.3586C10.2972 12.5863 10.2391 12.8976 10.0113 13.0537C9.78353 13.2098 9.47232 13.1517 9.31621 12.9239L8.73963 12.0827C6.84512 12.1485 5.04163 12.9299 3.6967 14.2748C2.29018 15.6813 1.5 17.589 1.5 19.5781C1.5 21.5672 2.29018 23.4749 3.6967 24.8814C5.10322 26.288 7.01088 27.0781 9 27.0781H12C12.2761 27.0781 12.5 26.8543 12.5 26.5781C12.5 26.302 12.2761 26.0781 12 26.0781H9C7.27609 26.0781 5.62279 25.3933 4.40381 24.1743C3.18482 22.9553 2.5 21.302 2.5 19.5781C2.5 17.8542 3.18482 16.2009 4.40381 14.9819C5.62275 13.763 7.27616 13.0782 9 13.0781ZM8.99984 11.0781C9.29287 11.078 9.5856 11.0928 9.87662 11.1222C10.7016 9.5915 11.8635 8.2668 13.2758 7.24884C14.7541 6.18338 16.4643 5.48446 18.2657 5.20965M18.9863 15.0782L19 15.0781L19.0044 15.0781C19.2182 15.0788 19.4228 15.1244 19.6079 15.2066C19.7373 15.2639 19.8601 15.3403 19.9719 15.4356M20.0695 15.5263L20.0678 15.5247L20.0695 15.5263ZM20.0695 15.5263L24.2981 19.755C24.8839 20.3408 24.8839 21.2905 24.2981 21.8763C23.7123 22.4621 22.7626 22.4621 22.1768 21.8763L20.5 20.1995V26.5781C20.5 27.4066 19.8284 28.0781 19 28.0781C18.1716 28.0781 17.5 27.4066 17.5 26.5781V20.1994L15.8231 21.8763C15.2373 22.4621 14.2876 22.4621 13.7018 21.8763C13.116 21.2905 13.116 20.3408 13.7018 19.755L17.9393 15.5175C18.0909 15.3658 18.2681 15.2528 18.4575 15.1794C18.6223 15.1154 18.8008 15.0799 18.9863 15.0782M18.9952 16.0781L19 16.0781L19.0015 16.0781C19.074 16.0783 19.1416 16.0937 19.2024 16.1206C19.245 16.1395 19.286 16.1649 19.3235 16.1968C19.3348 16.2065 19.346 16.2169 19.3565 16.2276L23.591 20.4621C23.7863 20.6573 23.7863 20.9739 23.591 21.1692C23.3957 21.3644 23.0792 21.3644 22.8839 21.1692L20.3536 18.6388C20.2106 18.4958 19.9955 18.4531 19.8087 18.5304C19.6218 18.6078 19.5 18.7902 19.5 18.9924V26.5781C19.5 26.8543 19.2761 27.0781 19 27.0781C18.7239 27.0781 18.5 26.8543 18.5 26.5781V18.9923C18.5 18.7901 18.3782 18.6077 18.1913 18.5303C18.0045 18.453 17.7894 18.4957 17.6464 18.6387L15.116 21.1692C14.9207 21.3644 14.6042 21.3644 14.4089 21.1692C14.2136 20.9739 14.2136 20.6573 14.4089 20.4621L18.6464 16.2246C18.6978 16.1732 18.7565 16.1359 18.8187 16.1119C18.8728 16.0908 18.9323 16.0787 18.9952 16.0781Z" fill="white"/>
</svg>
