<svg width="32" height="33" viewBox="0 0 32 33" fill="none" xmlns="http://www.w3.org/2000/svg">
<path d="M20.9079 7.58899C18.6864 7.37213 16.4635 7.98856 14.6709 9.31859C14.2273 9.64767 13.601 9.55488 13.2719 9.11135C12.9428 8.66781 13.0356 8.04148 13.4792 7.7124C15.6701 6.08682 18.387 5.33341 21.1022 5.59845C23.8175 5.86349 26.3374 7.12808 28.1726 9.14667C30.0078 11.1653 31.0275 13.7938 31.0335 16.522C31.0396 19.2501 30.0317 21.8832 28.2054 23.9099C27.8357 24.3202 27.2034 24.3531 26.7931 23.9834C26.3828 23.6137 26.3499 22.9814 26.7196 22.5711C28.2138 20.9128 29.0385 18.7585 29.0335 16.5264C29.0286 14.2943 28.1943 12.1437 26.6928 10.4921C25.1912 8.8405 23.1295 7.80584 20.9079 7.58899Z" fill="white"/>
<path d="M6.73995 4.90546C6.36844 4.49681 5.73599 4.46669 5.32733 4.8382L5.66367 5.20817C5.868 5.02241 6.18422 5.03747 6.36998 5.2418L11.7248 11.1321C11.7302 11.1381 11.7358 11.1439 11.7415 11.1496C11.7528 11.1609 11.7635 11.1726 11.7735 11.1848L11.779 11.1914L11.7893 11.2031L26.37 27.2418C26.5557 27.4461 26.5407 27.7624 26.3363 27.9481C26.132 28.1339 25.8158 28.1188 25.63 27.9145L24.3458 26.5019C24.2069 26.349 23.9883 26.2974 23.7957 26.3718C22.5867 26.8389 21.2994 27.0791 19.9993 27.0781H9C7.01088 27.0781 5.10322 26.288 3.6967 24.8814C2.29018 23.4749 1.5 21.5673 1.5 19.5781C1.5 17.589 2.29018 15.6814 3.6967 14.2748C5.10314 12.8684 7.01079 12.0782 8.99979 12.0781C9.36507 12.078 9.72969 12.1039 10.0907 12.1555C10.3033 12.1859 10.5115 12.0772 10.6081 11.8854L10.6137 11.8742C10.7071 11.6893 10.6768 11.4659 10.5374 11.3125L5.63004 5.91447C5.44428 5.71014 5.45934 5.39392 5.66367 5.20817L5.32733 4.8382C4.91868 5.2097 4.88856 5.84215 5.26007 6.25081L10.1615 11.6606C9.77698 11.6056 9.38866 11.578 8.99962 11.5781C6.87803 11.5782 4.84335 12.4211 3.34315 13.9213C1.84285 15.4216 1 17.4564 1 19.5781C1 21.6999 1.84285 23.7347 3.34315 25.235C4.84344 26.7353 6.87827 27.5781 9 27.5781H19.9993C21.3612 27.5791 22.7094 27.3275 23.9759 26.8382L25.2601 28.2508C25.6316 28.6595 26.264 28.6896 26.6727 28.3181C27.0813 27.9466 27.1115 27.3141 26.7399 26.9055L12.1593 10.8668C12.1391 10.8422 12.1176 10.8185 12.0948 10.7958L6.73995 4.90546Z" fill="white"/>
<path d="M5.32733 4.8382C5.73599 4.46669 6.36844 4.49681 6.73995 4.90546L12.0948 10.7958C12.1176 10.8185 12.1391 10.8422 12.1593 10.8668L26.7399 26.9055C27.1115 27.3141 27.0813 27.9466 26.6727 28.3181C26.264 28.6896 25.6316 28.6595 25.2601 28.2508L23.9759 26.8382C22.7094 27.3275 21.3612 27.5791 19.9993 27.5781L19.9989 28.0781C21.3074 28.0791 22.6037 27.857 23.8327 27.424L24.8901 28.5871C25.4474 29.2001 26.396 29.2453 27.009 28.688C27.622 28.1308 27.6672 27.1821 27.1099 26.5691L12.5366 10.5385C12.5115 10.5086 12.4851 10.4795 12.4574 10.4514L7.10992 4.56913C6.55266 3.95614 5.60398 3.91097 4.991 4.46823C4.37801 5.02549 4.33284 5.97416 4.8901 6.58714L8.97285 11.0782C6.72831 11.0853 4.57725 11.9801 2.98959 13.5677C1.39553 15.1618 0.5 17.3238 0.5 19.5781C0.5 21.8325 1.39553 23.9945 2.98959 25.5885C4.58365 27.1826 6.74566 28.0781 9 28.0781H19.9989L19.9993 27.5781H9C6.87827 27.5781 4.84344 26.7353 3.34315 25.235C1.84285 23.7347 1 21.6999 1 19.5781C1 17.4564 1.84285 15.4216 3.34315 13.9213C4.84335 12.4211 6.87803 11.5782 8.99962 11.5781C9.38866 11.578 9.77698 11.6056 10.1615 11.6606L5.26007 6.25081C4.88856 5.84215 4.91868 5.2097 5.32733 4.8382Z" fill="white"/>
<path fill-rule="evenodd" clip-rule="evenodd" d="M6.36998 5.2418C6.18422 5.03747 5.868 5.02241 5.66367 5.20817C5.45934 5.39392 5.44428 5.71014 5.63004 5.91447L10.5374 11.3125C10.6768 11.4659 10.7071 11.6893 10.6137 11.8742L10.6081 11.8854C10.5115 12.0772 10.3033 12.1859 10.0907 12.1555C9.72969 12.1039 9.36507 12.078 8.99979 12.0781C7.01079 12.0782 5.10314 12.8684 3.6967 14.2748C2.29018 15.6814 1.5 17.589 1.5 19.5781C1.5 21.5673 2.29018 23.4749 3.6967 24.8814C5.10322 26.288 7.01088 27.0781 9 27.0781H19.9993C21.2994 27.0791 22.5867 26.8389 23.7957 26.3718C23.9883 26.2974 24.2069 26.349 24.3458 26.5019L25.63 27.9145C25.8158 28.1188 26.132 28.1339 26.3363 27.9481C26.5407 27.7624 26.5557 27.4461 26.37 27.2418L11.7893 11.2031L11.779 11.1914L11.7735 11.1848C11.7635 11.1726 11.7528 11.1609 11.7415 11.1496C11.7358 11.1439 11.7302 11.1381 11.7248 11.1321L6.36998 5.2418ZM11.5434 12.7684C11.713 12.7377 11.8865 12.7966 12.0024 12.9241L22.8784 24.8877C22.9946 25.0155 23.0366 25.1941 22.9896 25.3603C22.9425 25.5264 22.8131 25.6565 22.6472 25.7044C21.789 25.9523 20.8976 26.0788 19.9996 26.0781H9C7.27609 26.0781 5.62279 25.3933 4.40381 24.1743C3.18482 22.9553 2.5 21.302 2.5 19.5781C2.5 17.8542 3.18482 16.2009 4.40381 14.9819C5.62277 13.763 7.27638 13.0782 9.00019 13.0781C9.14806 13.0781 9.29596 13.0829 9.44328 13.0927C9.59383 13.1026 9.73183 13.18 9.81883 13.3032C9.90584 13.4265 9.93253 13.5824 9.89148 13.7276C9.63029 14.6513 9.49736 15.6109 9.50004 16.5795C9.5008 16.8556 9.72528 17.0789 10.0014 17.0781C10.2776 17.0773 10.5008 16.8528 10.5 16.5767C10.4967 15.373 10.7252 14.1846 11.1681 13.0751C11.232 12.915 11.3738 12.7991 11.5434 12.7684Z" fill="white"/>
<path d="M9.41034 13.5916C9.13657 14.5597 8.99723 15.5656 9.00004 16.5809C9.00157 17.1331 9.45053 17.5796 10.0028 17.5781C10.5551 17.5766 11.0016 17.1276 11 16.5753C10.9969 15.4358 11.2132 14.3108 11.6324 13.2604L22.5085 25.2241C21.6953 25.4589 20.8508 25.5787 20 25.5781L19.9996 26.0781C20.8976 26.0788 21.789 25.9523 22.6472 25.7044C22.8131 25.6565 22.9425 25.5264 22.9896 25.3603C23.0366 25.1941 22.9946 25.0155 22.8784 24.8877L12.0024 12.9241C11.8865 12.7966 11.713 12.7377 11.5434 12.7684C11.3738 12.7991 11.232 12.915 11.1681 13.0751C10.7252 14.1846 10.4967 15.373 10.5 16.5767C10.5008 16.8528 10.2776 17.0773 10.0014 17.0781C9.72528 17.0789 9.5008 16.8556 9.50004 16.5795C9.49736 15.6109 9.63029 14.6513 9.89148 13.7276C9.93253 13.5824 9.90584 13.4265 9.81883 13.3032C9.73183 13.18 9.59383 13.1026 9.44328 13.0927C9.29596 13.0829 9.14806 13.0781 9.00019 13.0781C7.27638 13.0782 5.62277 13.763 4.40381 14.9819C3.18482 16.2009 2.5 17.8542 2.5 19.5781C2.5 21.302 3.18482 22.9553 4.40381 24.1743C5.62279 25.3933 7.27609 26.0781 9 26.0781H19.9996L20 25.5781H9C7.4087 25.5781 5.88258 24.946 4.75736 23.8208C3.63214 22.6956 3 21.1694 3 19.5781C3 17.9868 3.63214 16.4607 4.75736 15.3355C5.88258 14.2103 7.40908 13.5781 9.00038 13.5781C9.13724 13.5781 9.27397 13.5826 9.41034 13.5916Z" fill="white"/>
<path fill-rule="evenodd" clip-rule="evenodd" d="M9.00004 16.5809C8.99723 15.5656 9.13657 14.5597 9.41034 13.5916C9.27397 13.5826 9.13724 13.5781 9.00038 13.5781C7.40908 13.5781 5.88258 14.2103 4.75736 15.3355C3.63214 16.4607 3 17.9868 3 19.5781C3 21.1694 3.63214 22.6956 4.75736 23.8208C5.88258 24.946 7.4087 25.5781 9 25.5781H20C20.8508 25.5787 21.6953 25.4589 22.5085 25.2241L11.6324 13.2604C11.2132 14.3108 10.9969 15.4358 11 16.5753C11.0016 17.1276 10.5551 17.5766 10.0028 17.5781C9.45053 17.5796 9.00157 17.1331 9.00004 16.5809ZM11.8304 14.2215C11.6101 14.9825 11.4978 15.7744 11.5 16.5739C11.5023 17.4024 10.8326 18.0758 10.0042 18.0781C9.17577 18.0804 8.50234 17.4107 8.50004 16.5822C8.4977 15.738 8.58936 14.8999 8.77092 14.0829C7.39559 14.1403 6.08813 14.7118 5.11091 15.689C4.07946 16.7205 3.5 18.1194 3.5 19.5781C3.5 21.0368 4.07946 22.4358 5.11091 23.4672C6.14236 24.4987 7.54131 25.0781 9 25.0781H20C20.5276 25.0785 21.053 25.0299 21.5687 24.9336L11.8304 14.2215Z" fill="white"/>
<path fill-rule="evenodd" clip-rule="evenodd" d="M21.1508 5.10081C18.3121 4.82372 15.4718 5.61138 13.1812 7.31086C12.5159 7.80448 12.3768 8.74397 12.8704 9.40928C13.364 10.0746 14.3035 10.2138 14.9688 9.72013C16.6618 8.464 18.7612 7.88182 20.8593 8.08662C22.9575 8.29143 24.9047 9.26861 26.3228 10.8284C27.741 12.3883 28.5289 14.4194 28.5335 16.5275C28.5382 18.6356 27.7594 20.6703 26.3482 22.2364C25.7936 22.8518 25.843 23.8003 26.4584 24.3548C27.0738 24.9094 28.0223 24.86 28.5769 24.2446C30.4861 22.1258 31.5399 19.373 31.5335 16.5209C31.5272 13.6687 30.4612 10.9207 28.5425 8.81032C26.6239 6.69997 23.9895 5.3779 21.1508 5.10081ZM20.9079 7.58899C18.6864 7.37213 16.4635 7.98856 14.6709 9.31859C14.2273 9.64767 13.601 9.55488 13.2719 9.11135C12.9428 8.66781 13.0356 8.04148 13.4792 7.7124C15.6701 6.08682 18.387 5.33341 21.1022 5.59845C23.8175 5.86349 26.3374 7.12808 28.1726 9.14667C30.0078 11.1653 31.0275 13.7938 31.0335 16.522C31.0396 19.2501 30.0317 21.8832 28.2054 23.9099C27.8357 24.3202 27.2034 24.3531 26.7931 23.9834C26.3828 23.6137 26.3499 22.9814 26.7196 22.5711C28.2138 20.9128 29.0385 18.7585 29.0335 16.5264C29.0286 14.2943 28.1943 12.1437 26.6928 10.4921C25.1912 8.8405 23.1295 7.80584 20.9079 7.58899Z" fill="white"/>
</svg>
