<svg width="32" height="33" viewBox="0 0 32 33" fill="none" xmlns="http://www.w3.org/2000/svg">
<path d="M21.6559 3.92041C19.799 3.92041 18.0181 4.65807 16.705 5.97112L13.1675 9.50862C12.777 9.89915 12.777 10.5323 13.1675 10.9228C13.5581 11.3134 14.1912 11.3134 14.5817 10.9228L18.1192 7.38534C19.0572 6.44736 20.3294 5.92041 21.6559 5.92041C22.9824 5.92041 24.2546 6.44736 25.1925 7.38534C26.1305 8.32331 26.6575 9.59548 26.6575 10.922C26.6575 12.2485 26.1305 13.5206 25.1925 14.4586L21.655 17.9961C21.2645 18.3866 21.2645 19.0198 21.655 19.4103C22.0456 19.8009 22.6787 19.8009 23.0692 19.4103L26.6067 15.8728C27.9198 14.5598 28.6575 12.7789 28.6575 10.922C28.6575 9.06505 27.9198 7.28417 26.6067 5.97112C25.2937 4.65807 23.5128 3.92041 21.6559 3.92041Z" fill="white"/>
<path d="M10.3442 15.1602C10.7347 14.7697 10.7347 14.1365 10.3442 13.746C9.9537 13.3555 9.32053 13.3555 8.93001 13.746L5.39251 17.2835C4.07946 18.5966 3.3418 20.3774 3.3418 22.2344C3.3418 24.0913 4.07946 25.8722 5.39251 27.1852C6.70556 28.4983 8.48643 29.2359 10.3434 29.2359C11.2628 29.2359 12.1733 29.0548 13.0227 28.703C13.8722 28.3511 14.6441 27.8354 15.2942 27.1852L18.8317 23.6477C19.2222 23.2572 19.2222 22.624 18.8317 22.2335C18.4412 21.843 17.808 21.843 17.4175 22.2335L13.88 25.771C13.4156 26.2355 12.8642 26.6039 12.2574 26.8552C11.6506 27.1066 11.0002 27.2359 10.3434 27.2359C9.01687 27.2359 7.7447 26.709 6.80672 25.771C5.86875 24.833 5.3418 23.5609 5.3418 22.2344C5.3418 20.9079 5.86875 19.6357 6.80672 18.6977L10.3442 15.1602Z" fill="white"/>
<path fill-rule="evenodd" clip-rule="evenodd" d="M16.3515 5.61757C17.7583 4.21075 19.6663 3.42041 21.6559 3.42041C23.6454 3.42041 25.5535 4.21075 26.9603 5.61757C28.3671 7.02439 29.1575 8.93244 29.1575 10.922C29.1575 12.9115 28.3671 14.8196 26.9603 16.2264L23.4228 19.7639C22.837 20.3497 21.8873 20.3497 21.3015 19.7639C20.7157 19.1781 20.7157 18.2284 21.3015 17.6426L24.839 14.1051C25.6832 13.2609 26.1575 12.1159 26.1575 10.922C26.1575 9.72809 25.6832 8.5831 24.839 7.73889C23.9948 6.89468 22.8498 6.42041 21.6559 6.42041C20.462 6.42041 19.317 6.89468 18.4728 7.73889L14.9353 11.2764C14.3495 11.8622 13.3998 11.8622 12.814 11.2764C12.2282 10.6906 12.2282 9.74085 12.814 9.15507L16.3515 5.61757ZM21.6559 4.42041C19.9316 4.42041 18.2779 5.10539 17.0586 6.32468L13.5211 9.86217C13.3258 10.0574 13.3258 10.374 13.5211 10.5693C13.7163 10.7645 14.0329 10.7645 14.2282 10.5693L17.7657 7.03178C18.7974 6.00004 20.1968 5.42041 21.6559 5.42041C23.115 5.42041 24.5143 6.00004 25.5461 7.03178C26.5778 8.06353 27.1575 9.46287 27.1575 10.922C27.1575 12.3811 26.5778 13.7804 25.5461 14.8122L22.0086 18.3497C21.8133 18.5449 21.8133 18.8615 22.0086 19.0568C22.2038 19.252 22.5204 19.252 22.7157 19.0568L26.2532 15.5193C27.4725 14.3 28.1575 12.6463 28.1575 10.922C28.1575 9.19766 27.4725 7.54396 26.2532 6.32468C25.0339 5.10539 23.3802 4.42041 21.6559 4.42041ZM8.57645 13.3925C9.16224 12.8067 10.112 12.8067 10.6978 13.3925C11.2836 13.9783 11.2836 14.928 10.6978 15.5138L7.16028 19.0513C6.31607 19.8955 5.8418 21.0405 5.8418 22.2344C5.8418 23.4283 6.31607 24.5733 7.16028 25.4175C8.00448 26.2617 9.14948 26.7359 10.3434 26.7359C10.9345 26.7359 11.5199 26.6195 12.066 26.3933C12.6122 26.1671 13.1084 25.8355 13.5265 25.4175L17.064 21.88C17.6497 21.2942 18.5995 21.2942 19.1853 21.88C19.7711 22.4658 19.7711 23.4155 19.1853 24.0013L15.6478 27.5388C14.9512 28.2354 14.1242 28.7879 13.2141 29.1649C12.304 29.5419 11.3285 29.7359 10.3434 29.7359C8.35383 29.7359 6.44577 28.9456 5.03896 27.5388C3.63214 26.132 2.8418 24.2239 2.8418 22.2344C2.8418 20.2448 3.63214 18.3368 5.03896 16.93L8.57645 13.3925ZM9.99067 14.0996C9.79541 13.9043 9.47882 13.9043 9.28356 14.0996L5.74606 17.6371C4.52678 18.8564 3.8418 20.5101 3.8418 22.2344C3.8418 23.9587 4.52678 25.6124 5.74606 26.8317C6.96534 28.051 8.61904 28.7359 10.3434 28.7359C11.1972 28.7359 12.0426 28.5678 12.8314 28.241C13.6202 27.9143 14.3369 27.4354 14.9407 26.8317L18.4782 23.2942C18.6734 23.0989 18.6734 22.7823 18.4782 22.5871C18.2829 22.3918 17.9663 22.3918 17.7711 22.5871L14.2336 26.1246C13.7227 26.6354 13.1162 27.0407 12.4487 27.3172C11.7812 27.5936 11.0658 27.7359 10.3434 27.7359C8.88426 27.7359 7.48491 27.1563 6.45317 26.1246C5.42142 25.0928 4.8418 23.6935 4.8418 22.2344C4.8418 20.7753 5.42142 19.3759 6.45317 18.3442L9.99067 14.8067C10.1859 14.6114 10.1859 14.2948 9.99067 14.0996Z" fill="white"/>
</svg>
