<svg width="32" height="33" viewBox="0 0 32 33" fill="none" xmlns="http://www.w3.org/2000/svg">
<path d="M8.27386 0.93978C8.97439 0.497571 9.90076 0.706982 10.343 1.40751C10.7852 2.10804 10.5758 3.03442 9.87524 3.47662C8.07187 4.615 6.61639 6.22752 5.6681 8.1377C5.29973 8.87972 4.39958 9.18262 3.65756 8.81425C2.91554 8.44588 2.61263 7.54573 2.981 6.80371C4.17402 4.40058 6.0051 2.37193 8.27386 0.93978Z" fill="white"/>
<path d="M21.6561 1.40751C22.0983 0.706982 23.0247 0.497571 23.7252 0.93978C25.994 2.37193 27.8251 4.40058 29.0181 6.80371C29.3865 7.54573 29.0836 8.44588 28.3416 8.81425C27.5995 9.18262 26.6994 8.87972 26.331 8.1377C25.3827 6.22752 23.9272 4.615 22.1239 3.47662C21.4233 3.03442 21.2139 2.10804 21.6561 1.40751Z" fill="white"/>
<path fill-rule="evenodd" clip-rule="evenodd" d="M12.0356 3.8611C13.3157 3.33659 14.6869 3.07052 16.0703 3.07822L16.0723 3.07823C21.8735 3.12218 26.4744 7.93171 26.4744 13.6907V14.5782C26.4744 18.8407 27.3659 21.1708 28.035 22.3266L28.0359 22.328C28.2549 22.7075 28.3705 23.1379 28.3709 23.576C28.3713 24.0141 28.2565 24.4446 28.0382 24.8244C27.8198 25.2042 27.5054 25.5199 27.1266 25.74C26.7478 25.96 26.3178 26.0766 25.8797 26.0782L25.8752 26.0782H21.4766C21.3602 27.3535 20.8014 28.5542 19.8885 29.4671C18.857 30.4986 17.4581 31.0781 15.9994 31.0781C14.5407 31.0781 13.1418 30.4986 12.1103 29.4671C11.1974 28.5542 10.6386 27.3535 10.5222 26.0782H6.12441L6.12007 26.0782C5.68198 26.0766 5.25104 25.96 4.87221 25.74C4.49339 25.5199 4.17904 25.2042 3.96066 24.8244C3.74228 24.4446 3.62754 24.0141 3.62793 23.576C3.62832 23.1379 3.74382 22.7076 3.96287 22.3282L3.967 22.3211C4.63583 21.1634 5.52441 18.8339 5.52441 14.5781V13.5781L5.52442 13.5745C5.52322 12.193 5.795 10.825 6.32411 9.54887C6.85384 8.2712 7.63107 7.11094 8.61104 6.13488C9.59128 5.15871 10.7555 4.38561 12.0356 3.8611ZM9.09536 10.6978C9.47363 9.78549 10.0287 8.95699 10.7285 8.26006C11.4283 7.56313 12.2591 7.01158 13.173 6.63711C14.0865 6.26283 15.0649 6.07288 16.052 6.07816C20.1507 6.11001 23.4744 9.52578 23.4744 13.6907V14.5782C23.4744 18.6332 24.2104 21.328 25.044 23.0782L6.95482 23.0782C7.78842 21.328 8.52441 18.6331 8.52441 14.5781V13.5832L8.52442 13.5759C8.52303 12.5883 8.71708 11.6102 9.09536 10.6978ZM13.5499 26.0782C13.6473 26.5549 13.8825 26.9967 14.2316 27.3458C14.7005 27.8147 15.3363 28.0781 15.9994 28.0781C16.6624 28.0781 17.2983 27.8147 17.7672 27.3458C18.1163 26.9967 18.3515 26.5549 18.4489 26.0782H13.5499Z" fill="white"/>
</svg>
