<svg width="32" height="33" viewBox="0 0 32 33" fill="none" xmlns="http://www.w3.org/2000/svg">
<path d="M8.27777 0.940756C8.9783 0.498547 9.90467 0.707958 10.3469 1.40849C10.7891 2.10902 10.5797 3.03539 9.87915 3.4776C8.07577 4.61598 6.6203 6.22849 5.672 8.13867C5.30363 8.88069 4.40348 9.1836 3.66146 8.81523C2.91944 8.44686 2.61654 7.54671 2.98491 6.80469C4.17793 4.40155 6.00901 2.37291 8.27777 0.940756Z" fill="white"/>
<path d="M21.66 1.40849C22.1022 0.707958 23.0286 0.498547 23.7292 0.940756C25.9979 2.37291 27.829 4.40155 29.022 6.80468C29.3904 7.54671 29.0875 8.44686 28.3455 8.81523C27.6034 9.1836 26.7033 8.88069 26.3349 8.13867C25.3866 6.22849 23.9311 4.61598 22.1278 3.4776C21.4272 3.03539 21.2178 2.10902 21.66 1.40849Z" fill="white"/>
<path fill-rule="evenodd" clip-rule="evenodd" d="M16.0742 3.07919C14.6908 3.0715 13.3196 3.33757 12.0395 3.86208C10.7594 4.38659 9.59519 5.15969 8.61495 6.13586C7.63498 7.11191 6.85774 8.27218 6.32801 9.54984C5.79891 10.826 5.52712 12.194 5.52832 13.5755L5.52832 13.579V14.579C5.52832 18.8349 4.63973 21.1643 3.9709 22.3221L3.96678 22.3292C3.74773 22.7086 3.63223 23.1389 3.63184 23.577C3.63145 24.0151 3.74619 24.4456 3.96457 24.8254C4.18295 25.2051 4.49729 25.5209 4.87612 25.7409C5.25494 25.961 5.68589 26.0776 6.12398 26.0792L6.12831 26.0792H10.5261C10.6425 27.3545 11.2013 28.5552 12.1142 29.4681C13.1457 30.4996 14.5446 31.079 16.0033 31.079C17.462 31.079 18.8609 30.4996 19.8924 29.4681C20.8053 28.5552 21.3641 27.3545 21.4805 26.0792H25.8791L25.8836 26.0792C26.3217 26.0776 26.7517 25.961 27.1305 25.7409C27.5093 25.5209 27.8237 25.2051 28.0421 24.8254C28.2604 24.4456 28.3752 24.0151 28.3748 23.577C28.3744 23.1389 28.2588 22.7084 28.0398 22.329L28.039 22.3276C27.3698 21.1717 26.4783 18.8417 26.4783 14.5792V13.6917C26.4783 7.93269 21.8774 3.12316 16.0762 3.07921L16.0742 3.07919ZM13.5538 26.0792C13.6512 26.5558 13.8864 26.9976 14.2355 27.3468C14.7044 27.8156 15.3403 28.079 16.0033 28.079C16.6663 28.079 17.3022 27.8156 17.7711 27.3468C18.1202 26.9976 18.3554 26.5558 18.4528 26.0792H13.5538Z" fill="white"/>
</svg>
