<svg width="32" height="32" viewBox="0 0 32 32" fill="none" xmlns="http://www.w3.org/2000/svg">
<path fill-rule="evenodd" clip-rule="evenodd" d="M15.898 3.00515C15.3937 3.0563 15.0002 3.48212 15.0001 3.99989L15.0001 15.4227L5.11242 21.134C4.63976 21.407 4.47429 22.0077 4.73719 22.4833C4.75207 22.5165 4.76891 22.5492 4.78774 22.5813C5.94094 24.5457 7.59008 26.1727 9.56998 27.2991C11.5499 28.4256 13.791 29.0121 16.0689 28.9998C18.3468 28.9875 20.5815 28.3769 22.5491 27.2291C24.5167 26.0813 26.1482 24.4367 27.2802 22.4599C28.4121 20.4831 29.0047 18.2436 28.9987 15.9657C28.9927 13.6877 28.3882 11.4514 27.2459 9.48061C26.1035 7.50983 24.4634 5.87382 22.4897 4.73644C20.516 3.59907 18.2782 3.00026 16.0002 3M7.01355 22.3455C7.94287 23.6615 9.15228 24.7604 10.559 25.5608C12.2343 26.514 14.1307 27.0102 16.0581 26.9998C17.9856 26.9894 19.8764 26.4728 21.5414 25.5016C23.2063 24.5304 24.5868 23.1387 25.5446 21.4661C26.5024 19.7934 27.0038 17.8984 26.9987 15.9709C26.9945 14.384 26.6471 12.8208 25.9849 11.3873L16.5187 16.8552C16.506 16.8629 16.4932 16.8703 16.4802 16.8774L7.01355 22.3455ZM24.9847 9.65544C24.0671 8.3559 22.8762 7.26749 21.4911 6.4693C20.1111 5.67403 18.5784 5.18994 17.0001 5.04567V14.2675L24.9847 9.65544Z" fill="white"/>
<path fill-rule="evenodd" clip-rule="evenodd" d="M13.0001 4.68751C13.0001 4.363 12.8427 4.05867 12.5778 3.87122C12.3129 3.68377 11.9735 3.63651 11.6675 3.74445C9.13181 4.63885 6.93623 6.29819 5.38375 8.4935C3.83177 10.6881 2.99895 13.3102 3.00012 15.998C2.9966 16.7987 3.06934 17.5979 3.21736 18.3849C3.27732 18.7037 3.48822 18.9736 3.78307 19.1089C4.07792 19.2442 4.42008 19.228 4.70089 19.0656L12.5009 14.5531C12.8099 14.3743 13.0001 14.0445 13.0001 13.6875V4.68751ZM7.01668 9.64829C8.04958 8.18771 9.41895 7.00756 11.0001 6.20206V13.1107L5.0128 16.5746L5.00012 15.9994C4.99867 13.7246 5.70327 11.5055 7.01668 9.64829Z" fill="white"/>
<path fill-rule="evenodd" clip-rule="evenodd" d="M15.9241 2.50576C15.9489 2.50197 15.9744 2.5 16.0003 2.5C18.3658 2.50027 20.6898 3.12211 22.7394 4.30323C24.7889 5.48435 26.4922 7.18329 27.6785 9.22987C28.8648 11.2764 29.4925 13.5988 29.4987 15.9643C29.505 18.3299 28.8895 20.6555 27.7141 22.7083C26.5386 24.7612 24.8443 26.4691 22.801 27.661C20.7577 28.8529 18.4371 29.487 16.0716 29.4998C13.7061 29.5126 11.3788 28.9035 9.32272 27.7337C7.26667 26.5639 5.5541 24.8744 4.35654 22.8344C4.33207 22.7927 4.30978 22.7502 4.28967 22.707C3.90938 21.9962 4.15931 21.1071 4.86233 20.701L14.5001 15.1341L14.5001 3.99989C14.5002 3.22293 15.0906 2.58449 15.8475 2.5077C15.8734 2.50508 15.8989 2.50448 15.9241 2.50576ZM15.9741 3.49933C15.9657 3.50063 15.9571 3.50172 15.9485 3.5026C15.6969 3.52812 15.5002 3.74134 15.5001 3.99989C15.5001 3.99987 15.5001 3.99991 15.5001 3.99989L15.5001 15.4227C15.5001 15.6013 15.4049 15.7663 15.2502 15.8557L5.36251 21.567C5.12622 21.7034 5.04344 22.0038 5.1748 22.2415C5.1815 22.2536 5.18769 22.266 5.19336 22.2786C5.20082 22.2952 5.20932 22.3118 5.21893 22.3281C6.32778 24.217 7.91349 25.7814 9.81724 26.8646C11.721 27.9477 13.8759 28.5116 16.0662 28.4998C18.2565 28.488 20.4052 27.9009 22.2972 26.7972C24.1891 25.6936 25.7579 24.1122 26.8463 22.2114C27.9347 20.3107 28.5045 18.1573 28.4987 15.967C28.4929 13.7767 27.9117 11.6263 26.8133 9.73136C25.7149 7.83638 24.1378 6.26329 22.24 5.16966C20.3423 4.07602 18.1905 3.50025 16.0002 3.5C15.9914 3.5 15.9828 3.49977 15.9741 3.49933ZM12.2889 4.27936C12.1565 4.18564 11.9868 4.16201 11.8338 4.21598C9.39575 5.07594 7.2847 6.6714 5.79198 8.7822C4.29975 10.8923 3.499 13.4134 3.50012 15.9978L3.50012 16.0002C3.49674 16.7692 3.56659 17.5367 3.70874 18.2924C3.73872 18.4518 3.84417 18.5868 3.9916 18.6544C4.13902 18.7221 4.3101 18.714 4.4505 18.6328L12.2505 14.1203C12.405 14.0309 12.5001 13.866 12.5001 13.6875V4.68751C12.5001 4.52525 12.4214 4.37309 12.2889 4.27936ZM11.5012 3.27292C11.9602 3.11101 12.4693 3.18191 12.8666 3.46308C13.2639 3.74426 13.5001 4.20075 13.5001 4.68751V13.6875C13.5001 14.2229 13.2147 14.7178 12.7513 14.9859L4.95127 19.4984C4.53006 19.7421 4.01682 19.7663 3.57455 19.5633C3.13227 19.3604 2.81592 18.9555 2.72597 18.4773C2.57217 17.6596 2.49654 16.8291 2.50012 15.997C2.49916 13.2061 3.36402 10.4836 4.97551 8.20481C6.58777 5.92498 8.86787 4.20175 11.5012 3.27292ZM16.663 4.67637C16.7668 4.58164 16.9057 4.53495 17.0456 4.54774C18.6957 4.69858 20.298 5.20467 21.7407 6.03608C23.1888 6.87055 24.4339 8.00844 25.3931 9.36705C25.4742 9.48183 25.5032 9.62541 25.473 9.76265C25.4429 9.89989 25.3564 10.0181 25.2348 10.0884L17.2502 14.7004C17.0955 14.7898 16.9049 14.7898 16.7502 14.7005C16.5954 14.6112 16.5001 14.4461 16.5001 14.2675V5.04567C16.5001 4.90515 16.5593 4.77111 16.663 4.67637ZM17.5001 5.60789V13.4012L24.2478 9.50363C23.4233 8.45662 22.404 7.57246 21.2414 6.90251C20.0838 6.23537 18.8135 5.79764 17.5001 5.60789ZM11.2614 5.77575C11.4097 5.86665 11.5001 6.0281 11.5001 6.20206V13.1107C11.5001 13.2892 11.405 13.4542 11.2505 13.5435L5.26318 17.0074C5.1102 17.0959 4.92185 17.097 4.76778 17.0104C4.61371 16.9238 4.51682 16.7623 4.51292 16.5856L4.50001 15.9997C4.49849 13.6214 5.23527 11.3014 6.60845 9.35959C7.68835 7.83254 9.12004 6.59869 10.7732 5.75654C10.9282 5.67758 11.1131 5.68485 11.2614 5.77575ZM10.5001 7.05508C9.29705 7.79378 8.24883 8.77192 7.42492 9.93698C6.22643 11.6317 5.55904 13.6421 5.50384 15.7128L10.5001 12.8224V7.05508ZM26.1361 10.9107C26.27 10.9532 26.3799 11.0501 26.4388 11.1777C27.1311 12.6763 27.4943 14.3105 27.4987 15.9696C27.504 17.9847 26.9798 19.9658 25.9785 21.7145C24.9771 23.4632 23.5339 24.9181 21.7933 25.9334C20.0527 26.9488 18.0759 27.489 16.0608 27.4998C14.0458 27.5107 12.0632 26.9919 10.3118 25.9954C8.84107 25.1586 7.57669 24.0097 6.60513 22.634C6.52407 22.5192 6.49505 22.3756 6.52517 22.2384C6.55529 22.1011 6.64178 21.9829 6.76346 21.9126L16.2398 16.4389C16.2463 16.4353 16.2527 16.4317 16.259 16.4279L16.2686 16.4221L25.7348 10.9544C25.8565 10.8841 26.0022 10.8683 26.1361 10.9107ZM16.7731 17.2857C16.7576 17.295 16.7418 17.3041 16.7259 17.3129L7.75044 22.4973C8.58693 23.5592 9.62354 24.4533 10.8063 25.1262C12.4054 26.0361 14.2156 26.5098 16.0554 26.4998C17.8953 26.4899 19.7002 25.9967 21.2894 25.0697C22.8787 24.1426 24.1964 22.8142 25.1107 21.2176C26.0249 19.621 26.5036 17.8121 26.4987 15.9723C26.4952 14.6416 26.2389 13.3286 25.7482 12.1015L16.7731 17.2857Z" fill="white"/>
</svg>
