<svg width="32" height="32" viewBox="0 0 32 32" fill="none" xmlns="http://www.w3.org/2000/svg">
<path d="M15.898 3.00515C15.3937 3.05631 15.0002 3.48212 15.0001 3.99989L15.0001 15.4227L5.11242 21.134C4.63976 21.407 4.47429 22.0077 4.73719 22.4833C4.75207 22.5165 4.76891 22.5492 4.78774 22.5813C5.94094 24.5457 7.59008 26.1727 9.56998 27.2991C11.5499 28.4256 13.791 29.0121 16.0689 28.9998C18.3468 28.9875 20.5815 28.3769 22.5491 27.2291C24.5167 26.0813 26.1482 24.4367 27.2802 22.4599C28.4121 20.4831 29.0047 18.2436 28.9987 15.9657C28.9927 13.6877 28.3882 11.4514 27.2459 9.48061C26.1035 7.50983 24.4634 5.87382 22.4897 4.73644C20.516 3.59907 18.2782 3.00026 16.0002 3L15.898 3.00515Z" fill="white"/>
<path d="M12.5778 3.87122C12.8427 4.05867 13.0001 4.363 13.0001 4.68751V13.6875C13.0001 14.0445 12.8099 14.3743 12.5009 14.5531L4.70089 19.0656C4.42008 19.228 4.07792 19.2442 3.78307 19.1089C3.48822 18.9736 3.27732 18.7037 3.21736 18.3849C3.06934 17.5979 2.9966 16.7987 3.00012 15.998C2.99895 13.3102 3.83177 10.6881 5.38375 8.4935C6.93623 6.29819 9.13181 4.63885 11.6675 3.74445C11.9735 3.63651 12.3129 3.68377 12.5778 3.87122Z" fill="white"/>
<path fill-rule="evenodd" clip-rule="evenodd" d="M15.9877 2.5L16.0003 2.5C18.3658 2.50027 20.6898 3.12211 22.7394 4.30323C24.7889 5.48435 26.4922 7.18329 27.6785 9.22987C28.8648 11.2764 29.4925 13.5988 29.4987 15.9643C29.505 18.3299 28.8895 20.6555 27.7141 22.7083C26.5386 24.7612 24.8443 26.4691 22.801 27.661C20.7577 28.8529 18.4371 29.487 16.0716 29.4998C13.7061 29.5126 11.3788 28.9035 9.32272 27.7337C7.26667 26.5639 5.5541 24.8744 4.35654 22.8344C4.33207 22.7927 4.30978 22.7502 4.28967 22.707C3.90938 21.9962 4.15931 21.1071 4.86233 20.701L14.5001 15.1341L14.5001 3.99989C14.5002 3.22293 15.0906 2.58449 15.8475 2.50771L15.8602 2.50642L15.9877 2.5ZM16.0127 3.50001L15.938 3.50377C15.6915 3.53405 15.5002 3.74493 15.5001 3.99989C15.5001 3.99987 15.5001 3.99991 15.5001 3.99989L15.5001 15.7113L5.36251 21.567C5.12622 21.7034 5.04344 22.0038 5.1748 22.2415L5.18485 22.2597L5.19336 22.2786C5.20082 22.2952 5.20932 22.3118 5.21893 22.3281C6.32778 24.217 7.91349 25.7814 9.81724 26.8646C11.721 27.9477 13.8759 28.5116 16.0662 28.4998C18.2565 28.488 20.4052 27.9009 22.2972 26.7972C24.1891 25.6936 25.7579 24.1122 26.8463 22.2114C27.9347 20.3107 28.5045 18.1573 28.4987 15.967C28.4929 13.7767 27.9117 11.6263 26.8133 9.73136C25.7149 7.83638 24.1378 6.26329 22.24 5.16966C20.3459 4.0781 18.1987 3.50244 16.0127 3.50001ZM12.2889 4.27937C12.1565 4.18564 11.9868 4.16201 11.8338 4.21598C9.39575 5.07594 7.2847 6.67141 5.79198 8.7822C4.29975 10.8923 3.499 13.4134 3.50012 15.9978L3.50012 16.0002C3.49674 16.7692 3.56659 17.5367 3.70874 18.2924C3.73872 18.4518 3.84417 18.5868 3.9916 18.6544C4.13902 18.7221 4.3101 18.714 4.4505 18.6328L12.2505 14.1203C12.405 14.0309 12.5001 13.866 12.5001 13.6875V4.68751C12.5001 4.52526 12.4214 4.37309 12.2889 4.27937ZM11.5012 3.27293C11.9602 3.11101 12.4693 3.18191 12.8666 3.46308C13.2639 3.74426 13.5001 4.20075 13.5001 4.68751V13.6875C13.5001 14.2229 13.2147 14.7178 12.7513 14.9859L4.95127 19.4984C4.53006 19.7421 4.01682 19.7663 3.57455 19.5633C3.13227 19.3604 2.81592 18.9555 2.72597 18.4773C2.57217 17.6596 2.49654 16.8291 2.50012 15.997C2.49916 13.2061 3.36402 10.4836 4.97551 8.20481C6.58777 5.92498 8.86787 4.20175 11.5012 3.27293Z" fill="white"/>
</svg>
