<svg width="32" height="33" viewBox="0 0 32 33" fill="none" xmlns="http://www.w3.org/2000/svg">
<path d="M14 15.4219C14 14.8696 14.4477 14.4219 15 14.4219H16C16.5523 14.4219 17 14.8696 17 15.4219V21.4219C17.5523 21.4219 18 21.8696 18 22.4219C18 22.9742 17.5523 23.4219 17 23.4219H16C15.4477 23.4219 15 22.9742 15 22.4219V16.4219C14.4477 16.4219 14 15.9742 14 15.4219Z" fill="white"/>
<path d="M17.25 10.9219C17.25 11.7503 16.5784 12.4219 15.75 12.4219C14.9216 12.4219 14.25 11.7503 14.25 10.9219C14.25 10.0934 14.9216 9.42188 15.75 9.42188C16.5784 9.42188 17.25 10.0934 17.25 10.9219Z" fill="white"/>
<path fill-rule="evenodd" clip-rule="evenodd" d="M3 16.4219C3 9.24217 8.8203 3.42188 16 3.42188C23.1797 3.42188 29 9.24217 29 16.4219C29 23.6016 23.1797 29.4219 16 29.4219C8.8203 29.4219 3 23.6016 3 16.4219ZM16 5.42188C9.92487 5.42188 5 10.3467 5 16.4219C5 22.497 9.92487 27.4219 16 27.4219C22.0751 27.4219 27 22.497 27 16.4219C27 10.3467 22.0751 5.42188 16 5.42188Z" fill="white"/>
<path fill-rule="evenodd" clip-rule="evenodd" d="M16 3.92188C9.09644 3.92188 3.5 9.51832 3.5 16.4219C3.5 23.3254 9.09644 28.9219 16 28.9219C22.9036 28.9219 28.5 23.3254 28.5 16.4219C28.5 9.51832 22.9036 3.92188 16 3.92188ZM2.5 16.4219C2.5 8.96603 8.54416 2.92188 16 2.92188C23.4558 2.92188 29.5 8.96603 29.5 16.4219C29.5 23.8777 23.4558 29.9219 16 29.9219C8.54416 29.9219 2.5 23.8777 2.5 16.4219ZM4.5 16.4219C4.5 10.0706 9.64873 4.92188 16 4.92188C22.3513 4.92188 27.5 10.0706 27.5 16.4219C27.5 22.7731 22.3513 27.9219 16 27.9219C9.64873 27.9219 4.5 22.7731 4.5 16.4219ZM16 5.92188C10.201 5.92188 5.5 10.6229 5.5 16.4219C5.5 22.2209 10.201 26.9219 16 26.9219C21.799 26.9219 26.5 22.2209 26.5 16.4219C26.5 10.6229 21.799 5.92188 16 5.92188ZM15.75 9.92188C15.1977 9.92188 14.75 10.3696 14.75 10.9219C14.75 11.4742 15.1977 11.9219 15.75 11.9219C16.3023 11.9219 16.75 11.4742 16.75 10.9219C16.75 10.3696 16.3023 9.92188 15.75 9.92188ZM13.75 10.9219C13.75 9.81731 14.6454 8.92188 15.75 8.92188C16.8546 8.92188 17.75 9.81731 17.75 10.9219C17.75 12.0264 16.8546 12.9219 15.75 12.9219C14.6454 12.9219 13.75 12.0264 13.75 10.9219ZM15 14.9219C14.7239 14.9219 14.5 15.1457 14.5 15.4219C14.5 15.698 14.7239 15.9219 15 15.9219H15.5V22.4219C15.5 22.698 15.7239 22.9219 16 22.9219H17C17.2761 22.9219 17.5 22.698 17.5 22.4219C17.5 22.1457 17.2761 21.9219 17 21.9219H16.5V15.4219C16.5 15.1457 16.2761 14.9219 16 14.9219H15ZM13.5 15.4219C13.5 14.5934 14.1716 13.9219 15 13.9219H16C16.8284 13.9219 17.5 14.5934 17.5 15.4219V21.0072C18.0826 21.2131 18.5 21.7688 18.5 22.4219C18.5 23.2503 17.8284 23.9219 17 23.9219H16C15.1716 23.9219 14.5 23.2503 14.5 22.4219V16.8365C13.9174 16.6306 13.5 16.075 13.5 15.4219Z" fill="white"/>
</svg>
