<svg width="32" height="33" viewBox="0 0 32 33" fill="none" xmlns="http://www.w3.org/2000/svg">
<path d="M17 4.57812C17 4.02584 16.5523 3.57812 16 3.57812C15.4477 3.57812 15 4.02584 15 4.57812V8.57812C15 9.13041 15.4477 9.57812 16 9.57812C16.5523 9.57812 17 9.13041 17 8.57812V4.57812Z" fill="white"/>
<path d="M25.1947 8.79793C25.5852 8.4074 25.5852 7.77424 25.1947 7.38371C24.8042 6.99319 24.171 6.99319 23.7805 7.38371L20.9555 10.2087C20.565 10.5992 20.565 11.2324 20.9555 11.6229C21.346 12.0135 21.9792 12.0135 22.3697 11.6229L25.1947 8.79793Z" fill="white"/>
<path d="M23 16.5781C23 16.0258 23.4477 15.5781 24 15.5781H28C28.5523 15.5781 29 16.0258 29 16.5781C29 17.1304 28.5523 17.5781 28 17.5781H24C23.4477 17.5781 23 17.1304 23 16.5781Z" fill="white"/>
<path d="M22.3697 21.5336C21.9792 21.1431 21.346 21.1431 20.9555 21.5336C20.565 21.9241 20.565 22.5573 20.9555 22.9478L23.7805 25.7728C24.171 26.1634 24.8042 26.1634 25.1947 25.7728C25.5852 25.3823 25.5852 24.7491 25.1947 24.3586L22.3697 21.5336Z" fill="white"/>
<path d="M16 23.5781C16.5523 23.5781 17 24.0258 17 24.5781V28.5781C17 29.1304 16.5523 29.5781 16 29.5781C15.4477 29.5781 15 29.1304 15 28.5781V24.5781C15 24.0258 15.4477 23.5781 16 23.5781Z" fill="white"/>
<path d="M11.0446 22.9478C11.4351 22.5573 11.4351 21.9241 11.0446 21.5336C10.654 21.1431 10.0209 21.1431 9.63034 21.5336L6.80534 24.3586C6.41482 24.7491 6.41482 25.3823 6.80534 25.7728C7.19587 26.1634 7.82903 26.1634 8.21956 25.7728L11.0446 22.9478Z" fill="white"/>
<path d="M3 16.5781C3 16.0258 3.44772 15.5781 4 15.5781H8C8.55228 15.5781 9 16.0258 9 16.5781C9 17.1304 8.55228 17.5781 8 17.5781H4C3.44772 17.5781 3 17.1304 3 16.5781Z" fill="white"/>
<path d="M8.21956 7.38371C7.82903 6.99319 7.19587 6.99319 6.80534 7.38371C6.41482 7.77424 6.41482 8.4074 6.80534 8.79793L9.63034 11.6229C10.0209 12.0135 10.654 12.0135 11.0446 11.6229C11.4351 11.2324 11.4351 10.5992 11.0446 10.2087L8.21956 7.38371Z" fill="white"/>
<path fill-rule="evenodd" clip-rule="evenodd" d="M14.5 4.57812C14.5 3.7497 15.1716 3.07812 16 3.07812C16.8284 3.07812 17.5 3.7497 17.5 4.57812V8.57812C17.5 9.40655 16.8284 10.0781 16 10.0781C15.1716 10.0781 14.5 9.40655 14.5 8.57812V4.57812ZM16 4.07812C15.7239 4.07812 15.5 4.30198 15.5 4.57812V8.57812C15.5 8.85427 15.7239 9.07812 16 9.07812C16.2761 9.07812 16.5 8.85427 16.5 8.57812V4.57812C16.5 4.30198 16.2761 4.07812 16 4.07812ZM6.45179 7.03016C7.03758 6.44437 7.98733 6.44437 8.57311 7.03016L11.3981 9.85516C11.9839 10.4409 11.9839 11.3907 11.3981 11.9765C10.8123 12.5623 9.86258 12.5623 9.27679 11.9765L6.45179 9.15148C5.866 8.56569 5.866 7.61595 6.45179 7.03016ZM7.866 7.73727C7.67074 7.54201 7.35416 7.542 7.1589 7.73727C6.96364 7.93253 6.96364 8.24911 7.1589 8.44437L9.9839 11.2694C10.1792 11.4646 10.4957 11.4646 10.691 11.2694C10.8863 11.0741 10.8863 10.7575 10.691 10.5623L7.866 7.73727ZM23.4269 7.03016C24.0127 6.44437 24.9625 6.44437 25.5483 7.03016C26.134 7.61595 26.134 8.56569 25.5483 9.15148L22.7233 11.9765C22.1375 12.5623 21.1877 12.5623 20.6019 11.9765C20.0162 11.3907 20.0162 10.4409 20.6019 9.85516L23.4269 7.03016ZM24.8411 7.73727C24.6459 7.542 24.3293 7.542 24.134 7.73727L21.309 10.5623C21.1138 10.7575 21.1138 11.0741 21.309 11.2694C21.5043 11.4646 21.8209 11.4646 22.0162 11.2694L24.8411 8.44437C25.0364 8.24911 25.0364 7.93253 24.8411 7.73727ZM4 16.0781C3.72386 16.0781 3.5 16.302 3.5 16.5781C3.5 16.8543 3.72386 17.0781 4 17.0781H8C8.27614 17.0781 8.5 16.8543 8.5 16.5781C8.5 16.302 8.27614 16.0781 8 16.0781H4ZM2.5 16.5781C2.5 15.7497 3.17157 15.0781 4 15.0781H8C8.82843 15.0781 9.5 15.7497 9.5 16.5781C9.5 17.4066 8.82843 18.0781 8 18.0781H4C3.17157 18.0781 2.5 17.4066 2.5 16.5781ZM24 16.0781C23.7239 16.0781 23.5 16.302 23.5 16.5781C23.5 16.8543 23.7239 17.0781 24 17.0781H28C28.2761 17.0781 28.5 16.8543 28.5 16.5781C28.5 16.302 28.2761 16.0781 28 16.0781H24ZM22.5 16.5781C22.5 15.7497 23.1716 15.0781 24 15.0781H28C28.8284 15.0781 29.5 15.7497 29.5 16.5781C29.5 17.4066 28.8284 18.0781 28 18.0781H24C23.1716 18.0781 22.5 17.4066 22.5 16.5781ZM9.27679 21.1801C9.86258 20.5943 10.8123 20.5943 11.3981 21.1801C11.9839 21.7659 11.9839 22.7156 11.3981 23.3014L8.57311 26.1264C7.98733 26.7122 7.03758 26.7122 6.45179 26.1264C5.866 25.5406 5.866 24.5908 6.45179 24.0051L9.27679 21.1801ZM10.691 21.8872C10.4957 21.6919 10.1792 21.6919 9.9839 21.8872L7.1589 24.7122C6.96364 24.9074 6.96364 25.224 7.1589 25.4193C7.35416 25.6145 7.67074 25.6145 7.866 25.4193L10.691 22.5943C10.8863 22.399 10.8863 22.0824 10.691 21.8872ZM20.6019 21.1801C21.1877 20.5943 22.1375 20.5943 22.7233 21.1801L25.5483 24.0051C26.134 24.5908 26.134 25.5406 25.5483 26.1264C24.9625 26.7122 24.0127 26.7122 23.4269 26.1264L20.6019 23.3014C20.0162 22.7156 20.0162 21.7659 20.6019 21.1801ZM22.0162 21.8872C21.8209 21.6919 21.5043 21.6919 21.309 21.8872C21.1138 22.0824 21.1138 22.399 21.309 22.5943L24.134 25.4193C24.3293 25.6145 24.6459 25.6145 24.8412 25.4193C25.0364 25.224 25.0364 24.9074 24.8412 24.7122L22.0162 21.8872ZM16 24.0781C15.7239 24.0781 15.5 24.302 15.5 24.5781V28.5781C15.5 28.8543 15.7239 29.0781 16 29.0781C16.2761 29.0781 16.5 28.8543 16.5 28.5781V24.5781C16.5 24.302 16.2761 24.0781 16 24.0781ZM14.5 24.5781C14.5 23.7497 15.1716 23.0781 16 23.0781C16.8284 23.0781 17.5 23.7497 17.5 24.5781V28.5781C17.5 29.4066 16.8284 30.0781 16 30.0781C15.1716 30.0781 14.5 29.4066 14.5 28.5781V24.5781Z" fill="white"/>
</svg>
