<svg width="32" height="32" viewBox="0 0 32 32" fill="none" xmlns="http://www.w3.org/2000/svg">
<path fill-rule="evenodd" clip-rule="evenodd" d="M7 2.5C6.33696 2.5 5.70107 2.76339 5.23223 3.23223C4.76339 3.70107 4.5 4.33696 4.5 5V27C4.5 27.663 4.76339 28.2989 5.23223 28.7678C5.70108 29.2366 6.33696 29.5 7 29.5H25C25.663 29.5 26.2989 29.2366 26.7678 28.7678C27.2366 28.2989 27.5 27.663 27.5 27V11C27.5 10.594 27.3387 10.2257 27.0767 9.95559L27.0607 9.93934L20.0607 2.93934C19.7892 2.66789 19.4142 2.5 19 2.5H7ZM17.5 11V5.5L7.5 5.5L7.5 26.5H24.5V12.5H19C18.1716 12.5 17.5 11.8284 17.5 11ZM12 15.5C11.1716 15.5 10.5 16.1716 10.5 17C10.5 17.8284 11.1716 18.5 12 18.5H20C20.8284 18.5 21.5 17.8284 21.5 17C21.5 16.1716 20.8284 15.5 20 15.5H12ZM12 19.5C11.1716 19.5 10.5 20.1716 10.5 21C10.5 21.8284 11.1716 22.5 12 22.5H20C20.8284 22.5 21.5 21.8284 21.5 21C21.5 20.1716 20.8284 19.5 20 19.5H12Z" fill="white"/>
</svg>
