<svg width="32" height="32" viewBox="0 0 32 32" fill="none" xmlns="http://www.w3.org/2000/svg">
<path d="M3.5 8C3.5 6.89543 4.39543 6 5.5 6C6.60457 6 7.5 6.89543 7.5 8C7.5 9.10457 6.60457 10 5.5 10C4.39543 10 3.5 9.10457 3.5 8Z" fill="white"/>
<path d="M9.5 8C9.5 7.17157 10.1716 6.5 11 6.5H27C27.8284 6.5 28.5 7.17157 28.5 8C28.5 8.82843 27.8284 9.5 27 9.5H11C10.1716 9.5 9.5 8.82843 9.5 8Z" fill="white"/>
<path d="M3.5 16C3.5 14.8954 4.39543 14 5.5 14C6.60457 14 7.5 14.8954 7.5 16C7.5 17.1046 6.60457 18 5.5 18C4.39543 18 3.5 17.1046 3.5 16Z" fill="white"/>
<path d="M9.5 16C9.5 15.1716 10.1716 14.5 11 14.5H27C27.8284 14.5 28.5 15.1716 28.5 16C28.5 16.8284 27.8284 17.5 27 17.5H11C10.1716 17.5 9.5 16.8284 9.5 16Z" fill="white"/>
<path d="M3.5 24C3.5 22.8954 4.39543 22 5.5 22C6.60457 22 7.5 22.8954 7.5 24C7.5 25.1046 6.60457 26 5.5 26C4.39543 26 3.5 25.1046 3.5 24Z" fill="white"/>
<path d="M9.5 24C9.5 23.1716 10.1716 22.5 11 22.5H27C27.8284 22.5 28.5 23.1716 28.5 24C28.5 24.8284 27.8284 25.5 27 25.5H11C10.1716 25.5 9.5 24.8284 9.5 24Z" fill="white"/>
</svg>
