<svg width="32" height="33" viewBox="0 0 32 33" fill="none" xmlns="http://www.w3.org/2000/svg">
<path d="M11.2166 5.0314C12.7329 4.4027 14.3582 4.0791 15.9996 4.0791C17.641 4.0791 19.2663 4.4027 20.7826 5.0314C22.2988 5.66009 23.6762 6.58155 24.836 7.74305C25.4214 8.32926 25.4207 9.27901 24.8345 9.86437C24.2483 10.4497 23.2985 10.449 22.7132 9.86282C21.832 8.98036 20.7855 8.28028 19.6335 7.80262C18.4815 7.32496 17.2467 7.0791 15.9996 7.0791C14.7525 7.0791 13.5177 7.32496 12.3657 7.80262C11.2137 8.28028 10.1664 8.98114 9.28526 9.8636L7.60339 11.5405H9.97461C10.803 11.5405 11.4746 12.2121 11.4746 13.0405C11.4746 13.869 10.803 14.5405 9.97461 14.5405H3.97461C3.71324 14.5405 3.4661 14.4732 3.25108 14.3547C3.10247 14.2647 2.76853 14.0054 2.62164 13.6887C2.52718 13.4918 2.47461 13.2713 2.47461 13.0403V7.04053C2.47461 6.2121 3.14618 5.54053 3.97461 5.54053C4.80304 5.54053 5.47461 6.2121 5.47461 7.04053V9.42665L7.16362 7.7426C8.32314 6.58172 9.7009 5.65989 11.2166 5.0314Z" fill="white"/>
<path d="M20.5244 20.1157C20.5244 19.2873 21.196 18.6157 22.0244 18.6157H28.0244C28.1839 18.6157 28.3384 18.6408 28.4838 18.6875C28.705 18.7585 28.9127 18.882 29.0868 19.0566C29.3848 19.3555 29.5307 19.7496 29.5244 20.1399V26.1157C29.5244 26.9441 28.8528 27.6157 28.0244 27.6157C27.196 27.6157 26.5244 26.9441 26.5244 26.1157V23.7297L24.836 25.4131C23.6765 26.574 22.2983 27.4963 20.7826 28.1248C19.2663 28.7535 17.641 29.0771 15.9996 29.0771C14.3582 29.0771 12.7329 28.7535 11.2166 28.1248C9.7004 27.4961 8.32298 26.5746 7.16318 25.4131C6.57782 24.8269 6.57851 23.8771 7.16472 23.2918C7.75094 22.7064 8.70068 22.7071 9.28604 23.2933C10.1672 24.1758 11.2137 24.8759 12.3657 25.3535C13.5177 25.8312 14.7525 26.0771 15.9996 26.0771C17.2467 26.0771 18.4815 25.8312 19.6335 25.3535C20.7855 24.8759 21.832 24.1758 22.7132 23.2933L22.714 23.2926L24.3957 21.6157H22.0244C21.196 21.6157 20.5244 20.9441 20.5244 20.1157Z" fill="white"/>
</svg>
