<svg width="32" height="33" viewBox="0 0 32 33" fill="none" xmlns="http://www.w3.org/2000/svg">
<path d="M11.213 5.02866C13.4976 4.08287 16.0115 3.83592 18.4365 4.31906C20.8612 4.80212 23.0881 5.99332 24.8357 7.74201L26.5255 9.42686V7.04053C26.5255 6.2121 27.1971 5.54053 28.0255 5.54053C28.8539 5.54053 29.5255 6.2121 29.5255 7.04053V13.0405C29.5255 13.2371 29.4877 13.4248 29.419 13.5968C29.346 13.7798 29.2356 13.9514 29.0877 14.0997C28.9129 14.2751 28.7055 14.3981 28.4849 14.4689C28.4028 14.4953 28.3176 14.5148 28.23 14.5267C28.1563 14.5368 28.082 14.5414 28.0078 14.5405H22.0255C21.1971 14.5405 20.5255 13.869 20.5255 13.0405C20.5255 12.2121 21.1971 11.5405 22.0255 11.5405H24.3965L22.7151 9.86402C21.3868 8.53465 19.6934 7.62843 17.8504 7.26124C16.0073 6.89405 14.0968 7.08173 12.3604 7.80053C10.6241 8.51934 9.13993 9.73697 8.09572 11.2994C7.0515 12.8618 6.49414 14.6989 6.49414 16.5781C6.49414 18.4574 7.0515 20.2944 8.09572 21.8569C9.13993 23.4193 10.6241 24.6369 12.3604 25.3557C14.0968 26.0745 16.0073 26.2622 17.8504 25.895C19.6934 25.5278 21.3861 24.6223 22.7144 23.2929C23.2999 22.7069 24.2497 22.7065 24.8357 23.292C25.4217 23.8776 25.4221 24.8273 24.8366 25.4134C23.0888 27.1625 20.8616 28.3541 18.4365 28.8372C16.0115 29.3203 13.4976 29.0734 11.213 28.1276C8.92828 27.1818 6.97545 25.5797 5.60148 23.5238C4.22751 21.468 3.49414 19.0508 3.49414 16.5781C3.49414 14.1054 4.22751 11.6883 5.60148 9.63244C6.97545 7.57661 8.92828 5.97446 11.213 5.02866Z" fill="white"/>
</svg>
