<svg width="32" height="32" viewBox="0 0 32 32" fill="none" xmlns="http://www.w3.org/2000/svg">
<path fill-rule="evenodd" clip-rule="evenodd" d="M16 2.8501C15.3764 2.8501 14.7753 3.08319 14.3147 3.50356L4.30205 12.6027L4.29508 12.6092C4.04896 12.8417 3.85184 13.121 3.71533 13.4308C3.57882 13.7406 3.50566 14.0745 3.50018 14.413L3.5 14.4332V25.9998C3.5 26.6628 3.76339 27.2987 4.23223 27.7675C4.70108 28.2364 5.33696 28.4998 6 28.4998H12C12.663 28.4998 13.2989 28.2364 13.7678 27.7675C14.2366 27.2987 14.5 26.6628 14.5 25.9998V20.4998H17.5V25.9998C17.5 26.6628 17.7634 27.2987 18.2322 27.7675C18.7011 28.2364 19.337 28.4998 20 28.4998H26C26.663 28.4998 27.2989 28.2364 27.7678 27.7675C28.2366 27.2987 28.5 26.6628 28.5 25.9998L28.5 14.4373L28.5 14.4332L28.4999 14.417L28.4998 14.413C28.4943 14.0745 28.4212 13.7406 28.2847 13.4308C28.1482 13.121 27.9511 12.8416 27.705 12.6092L17.6853 3.50358C17.2248 3.0832 16.6237 2.8501 16 2.8501ZM25.5 25.4998V14.6719L16 6.02616L6.5 14.6719V25.4998H11.5V19.9998C11.5 19.3367 11.7634 18.7009 12.2322 18.232C12.7011 17.7632 13.337 17.4998 14 17.4998H18C18.663 17.4998 19.2989 17.7632 19.7678 18.232C20.2366 18.7009 20.5 19.3367 20.5 19.9998V25.4998H25.5Z" fill="white"/>
</svg>
