<svg width="32" height="32" viewBox="0 0 32 32" fill="none" xmlns="http://www.w3.org/2000/svg">
<path fill-rule="evenodd" clip-rule="evenodd" d="M16 2.84961C15.3764 2.84961 14.7753 3.0827 14.3147 3.50307L4.30205 12.6022L4.29508 12.6088C4.04896 12.8412 3.85184 13.1205 3.71533 13.4303C3.57882 13.7401 3.50566 14.074 3.50018 14.4125L3.5 14.4327V25.9993C3.5 26.6623 3.76339 27.2982 4.23223 27.7671C4.70108 28.2359 5.33696 28.4993 6 28.4993H12C12.663 28.4993 13.2989 28.2359 13.7678 27.7671C14.2366 27.2982 14.5 26.6623 14.5 25.9993V20.4993H17.5V25.9993C17.5 26.6623 17.7634 27.2982 18.2322 27.7671C18.7011 28.2359 19.337 28.4993 20 28.4993H26C26.663 28.4993 27.2989 28.2359 27.7678 27.7671C28.2366 27.2982 28.5 26.6623 28.5 25.9993L28.5 14.4368L28.5 14.4327L28.4999 14.4165L28.4998 14.4125C28.4943 14.074 28.4212 13.7401 28.2847 13.4303C28.1482 13.1205 27.9511 12.8411 27.705 12.6087L17.6853 3.50309C17.2248 3.08271 16.6237 2.84961 16 2.84961ZM25.5 25.4993V14.6714L16 6.02567L6.5 14.6714V25.4993H11.5V19.9993C11.5 19.3363 11.7634 18.7004 12.2322 18.2315C12.7011 17.7627 13.337 17.4993 14 17.4993H18C18.663 17.4993 19.2989 17.7627 19.7678 18.2315C20.2366 18.7004 20.5 19.3363 20.5 19.9993V25.4993H25.5Z" fill="white"/>
<path d="M25.5 14.6714V25.4993H20.5V19.9993C20.5 19.3363 20.2366 18.7004 19.7678 18.2315C19.2989 17.7627 18.663 17.4993 18 17.4993H14C13.337 17.4993 12.7011 17.7627 12.2322 18.2315C11.7634 18.7004 11.5 19.3363 11.5 19.9993V25.4993H6.5V14.6714L16 6.02567L25.5 14.6714Z" fill="white"/>
</svg>
