<svg width="32" height="33" viewBox="0 0 32 33" fill="none" xmlns="http://www.w3.org/2000/svg">
<path fill-rule="evenodd" clip-rule="evenodd" d="M13.5251 4.447C14.1815 3.79062 15.0717 3.42188 16 3.42188C16.9283 3.42188 17.8185 3.79062 18.4749 4.447C19.1313 5.10338 19.5 5.99362 19.5 6.92188C19.5 7.47416 19.9477 7.92188 20.5 7.92188C21.0523 7.92188 21.5 7.47416 21.5 6.92188C21.5 5.46318 20.9205 4.06424 19.8891 3.03279C18.8576 2.00134 17.4587 1.42188 16 1.42188C14.5413 1.42188 13.1424 2.00134 12.1109 3.03279C11.0795 4.06424 10.5 5.46318 10.5 6.92188V10.4219H6C4.89543 10.4219 4 11.3173 4 12.4219V26.4219C4 27.5264 4.89543 28.4219 6 28.4219H26C27.1046 28.4219 28 27.5264 28 26.4219V12.4219C28 11.3173 27.1046 10.4219 26 10.4219H12.5V6.92188C12.5 5.99362 12.8687 5.10338 13.5251 4.447ZM6 12.4219V26.4219H26V12.4219H6Z" fill="white"/>
<path fill-rule="evenodd" clip-rule="evenodd" d="M11.7574 2.67923C12.8826 1.55402 14.4087 0.921875 16 0.921875C17.5913 0.921875 19.1174 1.55402 20.2426 2.67923C21.3679 3.80445 22 5.33058 22 6.92188C22 7.7503 21.3284 8.42188 20.5 8.42188C19.6716 8.42188 19 7.7503 19 6.92188C19 6.12623 18.6839 5.36316 18.1213 4.80055C17.5587 4.23795 16.7956 3.92188 16 3.92188C15.2044 3.92188 14.4413 4.23795 13.8787 4.80055C13.3161 5.36316 13 6.12623 13 6.92188V9.92188H26C27.3807 9.92188 28.5 11.0412 28.5 12.4219V26.4219C28.5 27.8026 27.3807 28.9219 26 28.9219H6C4.61929 28.9219 3.5 27.8026 3.5 26.4219V12.4219C3.5 11.0412 4.61929 9.92188 6 9.92188H10V6.92188C10 5.33058 10.6321 3.80445 11.7574 2.67923ZM16 1.92188C14.6739 1.92188 13.4021 2.44866 12.4645 3.38634C11.5268 4.32402 11 5.59579 11 6.92188V10.4219C11 10.698 10.7761 10.9219 10.5 10.9219H6C5.17157 10.9219 4.5 11.5934 4.5 12.4219V26.4219C4.5 27.2503 5.17157 27.9219 6 27.9219H26C26.8284 27.9219 27.5 27.2503 27.5 26.4219V12.4219C27.5 11.5934 26.8284 10.9219 26 10.9219H12.5C12.2239 10.9219 12 10.698 12 10.4219V6.92188C12 5.86101 12.4214 4.84359 13.1716 4.09345C13.9217 3.3433 14.9391 2.92188 16 2.92188C17.0609 2.92188 18.0783 3.3433 18.8284 4.09345C19.5786 4.84359 20 5.86101 20 6.92188C20 7.19802 20.2239 7.42188 20.5 7.42188C20.7761 7.42188 21 7.19802 21 6.92188C21 5.59579 20.4732 4.32402 19.5355 3.38634C18.5979 2.44866 17.3261 1.92188 16 1.92188ZM5.5 12.4219C5.5 12.1457 5.72386 11.9219 6 11.9219H26C26.2761 11.9219 26.5 12.1457 26.5 12.4219V26.4219C26.5 26.698 26.2761 26.9219 26 26.9219H6C5.72386 26.9219 5.5 26.698 5.5 26.4219V12.4219ZM6.5 12.9219V25.9219H25.5V12.9219H6.5Z" fill="white"/>
</svg>
