<svg width="32" height="32" viewBox="0 0 32 32" fill="none" xmlns="http://www.w3.org/2000/svg">
<path fill-rule="evenodd" clip-rule="evenodd" d="M26.9965 18.5874C27.5488 18.5855 27.9981 19.0316 28 19.5839C28.0009 19.8452 27.9503 20.1042 27.851 20.346C27.7517 20.5877 27.6057 20.8075 27.4214 20.9928L27.4196 20.9945L20.9946 27.4195L20.9929 27.4213C20.8076 27.6056 20.5878 27.7516 20.3461 27.8509C20.1043 27.9502 19.8454 28.0008 19.584 27.9999C19.0317 27.998 18.5856 27.5487 18.5875 26.9964C18.5895 26.4459 19.0359 26.0008 19.5858 25.9999L26 19.5857C26.0009 19.0358 26.446 18.5893 26.9965 18.5874Z" fill="white"/>
<path fill-rule="evenodd" clip-rule="evenodd" d="M19 20C19 19.4477 19.4477 19 20 19H26.9125C27.4648 19 27.9125 19.4477 27.9125 20C27.9125 20.5523 27.4648 21 26.9125 21H21V26.9125C21 27.4648 20.5523 27.9125 20 27.9125C19.4477 27.9125 19 27.4648 19 26.9125V20Z" fill="white"/>
<path fill-rule="evenodd" clip-rule="evenodd" d="M4.58579 4.58579C4.96086 4.21071 5.46957 4 6 4H26C26.5304 4 27.0391 4.21071 27.4142 4.58579C27.7893 4.96086 28 5.46957 28 6V19.5875C28 20.1398 27.5523 20.5875 27 20.5875C26.4477 20.5875 26 20.1398 26 19.5875V6H6V26H19.5875C20.1398 26 20.5875 26.4477 20.5875 27C20.5875 27.5523 20.1398 28 19.5875 28H6C5.46957 28 4.96086 27.7893 4.58579 27.4142C4.21071 27.0391 4 26.5304 4 26V6C4 5.46957 4.21071 4.96086 4.58579 4.58579Z" fill="white"/>
<path fill-rule="evenodd" clip-rule="evenodd" d="M4.23223 4.23223C4.70107 3.76339 5.33696 3.5 6 3.5H26C26.663 3.5 27.2989 3.76339 27.7678 4.23223C28.2366 4.70107 28.5 5.33696 28.5 6V19.5788C28.5 19.5799 28.5 19.581 28.5 19.5821C28.5011 19.9043 28.4397 20.2235 28.3191 20.5222C28.2947 20.588 28.2657 20.6516 28.2327 20.7127C28.1148 20.946 27.9607 21.1596 27.7758 21.3454L27.7738 21.3475L21.3482 27.7731L21.3459 27.7754C21.1604 27.9599 20.9471 28.114 20.7144 28.2318C20.6521 28.2656 20.5872 28.2951 20.5199 28.3199C20.2305 28.4364 19.9218 28.4975 19.6099 28.4998C19.6025 28.4999 19.595 28.5 19.5875 28.5H6C5.33696 28.5 4.70108 28.2366 4.23223 27.7678C3.76339 27.2989 3.5 26.663 3.5 26V6C3.5 5.33696 3.76339 4.70107 4.23223 4.23223ZM20.5 25.8094V25.7928L20.4906 25.8022C20.4937 25.8046 20.4969 25.807 20.5 25.8094ZM19.5775 26.5C19.5511 26.5005 19.5252 26.5031 19.5 26.5075V26.9125C19.5 27.15 19.6657 27.3489 19.8877 27.3998C20.009 27.3086 20.0875 27.1635 20.0875 27C20.0875 26.7239 19.8636 26.5 19.5875 26.5H19.5775ZM19.5 25.3786V20C19.5 19.7239 19.7239 19.5 20 19.5H25.3786L24.3786 20.5H21C20.7239 20.5 20.5 20.7239 20.5 21V24.3786L19.5 25.3786ZM18.5 25.5V20C18.5 19.1716 19.1716 18.5 20 18.5H25.5V6.5H6.5V25.5H18.5ZM18.1728 26.5H6C5.72386 26.5 5.5 26.2761 5.5 26V6C5.5 5.72386 5.72386 5.5 6 5.5H26C26.2761 5.5 26.5 5.72386 26.5 6V18.1728C26.6548 18.1181 26.8213 18.088 26.9948 18.0874C27.1719 18.0868 27.342 18.1169 27.5 18.1727V6C27.5 5.60218 27.342 5.22065 27.0607 4.93934C26.7794 4.65804 26.3978 4.5 26 4.5H6C5.60218 4.5 5.22064 4.65804 4.93934 4.93934C4.65804 5.22064 4.5 5.60218 4.5 6V26C4.5 26.3978 4.65804 26.7794 4.93934 27.0607C5.22065 27.342 5.60218 27.5 6 27.5H18.1729C18.117 27.342 18.0869 27.1719 18.0875 26.9946C18.0881 26.8212 18.1182 26.6548 18.1728 26.5ZM26.5076 19.5C26.5027 19.5281 26.5001 19.557 26.5 19.5865C26.5 19.5877 26.5 19.589 26.5 19.5902C26.5015 19.8651 26.7248 20.0875 27 20.0875C27.1635 20.0875 27.3086 20.009 27.3998 19.8877C27.3489 19.6657 27.15 19.5 26.9125 19.5H26.5076ZM25.8094 20.5C25.807 20.4969 25.8046 20.4937 25.8022 20.4906L25.7928 20.5H25.8094ZM23.3786 21.5H21.5V23.3786L23.3786 21.5ZM21.5 24.7928L24.7928 21.5H26.207L21.5 26.207V24.7928Z" fill="white"/>
</svg>
