<svg width="32" height="32" viewBox="0 0 32 32" fill="none" xmlns="http://www.w3.org/2000/svg">
<path fill-rule="evenodd" clip-rule="evenodd" d="M12 10.5C11.1716 10.5 10.5 11.1716 10.5 12C10.5 12.8284 11.1716 13.5 12 13.5H20C20.8284 13.5 21.5 12.8284 21.5 12C21.5 11.1716 20.8284 10.5 20 10.5H12ZM12 14.5C11.1716 14.5 10.5 15.1716 10.5 16C10.5 16.8284 11.1716 17.5 12 17.5H20C20.8284 17.5 21.5 16.8284 21.5 16C21.5 15.1716 20.8284 14.5 20 14.5H12ZM12 18.5C11.1716 18.5 10.5 19.1716 10.5 20C10.5 20.8284 11.1716 21.5 12 21.5H16C16.8284 21.5 17.5 20.8284 17.5 20C17.5 19.1716 16.8284 18.5 16 18.5H12Z" fill="white"/>
<path fill-rule="evenodd" clip-rule="evenodd" d="M6 3.5C5.33696 3.5 4.70107 3.76339 4.23223 4.23223C3.76339 4.70107 3.5 5.33696 3.5 6V26C3.5 26.663 3.76339 27.2989 4.23223 27.7678C4.70108 28.2366 5.33696 28.5 6 28.5L19.6099 28.4998C19.9217 28.4975 20.2303 28.4365 20.5196 28.3201C20.5871 28.2951 20.6523 28.2655 20.7148 28.2315C20.9473 28.1138 21.1623 27.958 21.3476 27.7736L27.7732 21.3481C27.9578 21.1625 28.1144 20.9465 28.2322 20.7136C28.2656 20.6519 28.2948 20.5877 28.3195 20.5212C28.4389 20.225 28.5002 19.9085 28.5 19.589V6C28.5 5.33696 28.2366 4.70107 27.7678 4.23223C27.2989 3.76339 26.663 3.5 26 3.5H6ZM20 18.5H25.5V6.5H6.5V25.5H18.5V20C18.5 19.1716 19.1716 18.5 20 18.5Z" fill="white"/>
</svg>
