<svg width="32" height="32" viewBox="0 0 32 32" fill="none" xmlns="http://www.w3.org/2000/svg">
<path d="M10 16C10 15.4477 10.4477 15 11 15H15V11C15 10.4477 15.4477 10 16 10C16.5523 10 17 10.4477 17 11V15H21C21.5523 15 22 15.4477 22 16C22 16.5523 21.5523 17 21 17H17V21C17 21.5523 16.5523 22 16 22C15.4477 22 15 21.5523 15 21V17H11C10.4477 17 10 16.5523 10 16Z" fill="white"/>
<path fill-rule="evenodd" clip-rule="evenodd" d="M3 16C3 8.8203 8.8203 3 16 3C23.1797 3 29 8.8203 29 16C29 23.1797 23.1797 29 16 29C8.8203 29 3 23.1797 3 16ZM16 5C9.92487 5 5 9.92487 5 16C5 22.0751 9.92487 27 16 27C22.0751 27 27 22.0751 27 16C27 9.92487 22.0751 5 16 5Z" fill="white"/>
<path fill-rule="evenodd" clip-rule="evenodd" d="M16 3.5C9.09644 3.5 3.5 9.09644 3.5 16C3.5 22.9036 9.09644 28.5 16 28.5C22.9036 28.5 28.5 22.9036 28.5 16C28.5 9.09644 22.9036 3.5 16 3.5ZM2.5 16C2.5 8.54416 8.54416 2.5 16 2.5C23.4558 2.5 29.5 8.54416 29.5 16C29.5 23.4558 23.4558 29.5 16 29.5C8.54416 29.5 2.5 23.4558 2.5 16ZM4.5 16C4.5 9.64873 9.64873 4.5 16 4.5C22.3513 4.5 27.5 9.64873 27.5 16C27.5 22.3513 22.3513 27.5 16 27.5C9.64873 27.5 4.5 22.3513 4.5 16ZM16 5.5C10.201 5.5 5.5 10.201 5.5 16C5.5 21.799 10.201 26.5 16 26.5C21.799 26.5 26.5 21.799 26.5 16C26.5 10.201 21.799 5.5 16 5.5ZM16 10.5C15.7239 10.5 15.5 10.7239 15.5 11V15C15.5 15.2761 15.2761 15.5 15 15.5H11C10.7239 15.5 10.5 15.7239 10.5 16C10.5 16.2761 10.7239 16.5 11 16.5H15C15.2761 16.5 15.5 16.7239 15.5 17V21C15.5 21.2761 15.7239 21.5 16 21.5C16.2761 21.5 16.5 21.2761 16.5 21V17C16.5 16.7239 16.7239 16.5 17 16.5H21C21.2761 16.5 21.5 16.2761 21.5 16C21.5 15.7239 21.2761 15.5 21 15.5H17C16.7239 15.5 16.5 15.2761 16.5 15V11C16.5 10.7239 16.2761 10.5 16 10.5ZM14.5 11C14.5 10.1716 15.1716 9.5 16 9.5C16.8284 9.5 17.5 10.1716 17.5 11V14.5H21C21.8284 14.5 22.5 15.1716 22.5 16C22.5 16.8284 21.8284 17.5 21 17.5H17.5V21C17.5 21.8284 16.8284 22.5 16 22.5C15.1716 22.5 14.5 21.8284 14.5 21V17.5H11C10.1716 17.5 9.5 16.8284 9.5 16C9.5 15.1716 10.1716 14.5 11 14.5H14.5V11Z" fill="white"/>
</svg>
