<svg width="32" height="32" viewBox="0 0 32 32" fill="none" xmlns="http://www.w3.org/2000/svg">
<path fill-rule="evenodd" clip-rule="evenodd" d="M16 2.5C8.54416 2.5 2.5 8.54416 2.5 16C2.5 23.4558 8.54416 29.5 16 29.5C23.4558 29.5 29.5 23.4558 29.5 16C29.5 8.54416 23.4558 2.5 16 2.5ZM14.5 11C14.5 10.1716 15.1716 9.5 16 9.5C16.8284 9.5 17.5 10.1716 17.5 11V14.5H21C21.8284 14.5 22.5 15.1716 22.5 16C22.5 16.8284 21.8284 17.5 21 17.5H17.5V21C17.5 21.8284 16.8284 22.5 16 22.5C15.1716 22.5 14.5 21.8284 14.5 21V17.5H11C10.1716 17.5 9.5 16.8284 9.5 16C9.5 15.1716 10.1716 14.5 11 14.5H14.5V11Z" fill="white"/>
</svg>
