<svg width="32" height="32" viewBox="0 0 32 32" fill="none" xmlns="http://www.w3.org/2000/svg">
<path d="M16 10C17.1046 10 18 9.10457 18 8C18 6.89543 17.1046 6 16 6C14.8954 6 14 6.89543 14 8C14 9.10457 14.8954 10 16 10Z" fill="white"/>
<path d="M4 16C4 15.4477 4.44772 15 5 15H27C27.5523 15 28 15.4477 28 16C28 16.5523 27.5523 17 27 17H5C4.44772 17 4 16.5523 4 16Z" fill="white"/>
<path d="M18 24C18 25.1046 17.1046 26 16 26C14.8954 26 14 25.1046 14 24C14 22.8954 14.8954 22 16 22C17.1046 22 18 22.8954 18 24Z" fill="white"/>
<path fill-rule="evenodd" clip-rule="evenodd" d="M13.5 8C13.5 6.61929 14.6193 5.5 16 5.5C17.3807 5.5 18.5 6.61929 18.5 8C18.5 9.38071 17.3807 10.5 16 10.5C14.6193 10.5 13.5 9.38071 13.5 8ZM16 6.5C15.1716 6.5 14.5 7.17157 14.5 8C14.5 8.82843 15.1716 9.5 16 9.5C16.8284 9.5 17.5 8.82843 17.5 8C17.5 7.17157 16.8284 6.5 16 6.5ZM5 15.5C4.72386 15.5 4.5 15.7239 4.5 16C4.5 16.2761 4.72386 16.5 5 16.5H27C27.2761 16.5 27.5 16.2761 27.5 16C27.5 15.7239 27.2761 15.5 27 15.5H5ZM3.5 16C3.5 15.1716 4.17157 14.5 5 14.5H27C27.8284 14.5 28.5 15.1716 28.5 16C28.5 16.8284 27.8284 17.5 27 17.5H5C4.17157 17.5 3.5 16.8284 3.5 16ZM16 22.5C15.1716 22.5 14.5 23.1716 14.5 24C14.5 24.8284 15.1716 25.5 16 25.5C16.8284 25.5 17.5 24.8284 17.5 24C17.5 23.1716 16.8284 22.5 16 22.5ZM13.5 24C13.5 22.6193 14.6193 21.5 16 21.5C17.3807 21.5 18.5 22.6193 18.5 24C18.5 25.3807 17.3807 26.5 16 26.5C14.6193 26.5 13.5 25.3807 13.5 24Z" fill="white"/>
</svg>
