<svg width="32" height="32" viewBox="0 0 32 32" fill="none" xmlns="http://www.w3.org/2000/svg">
<path d="M5 11C4.44772 11 4 11.4477 4 12C4 12.5523 4.44772 13 5 13H27C27.5523 13 28 12.5523 28 12C28 11.4477 27.5523 11 27 11H5Z" fill="white"/>
<path d="M5 19C4.44772 19 4 19.4477 4 20C4 20.5523 4.44772 21 5 21H27C27.5523 21 28 20.5523 28 20C28 19.4477 27.5523 19 27 19H5Z" fill="white"/>
<path fill-rule="evenodd" clip-rule="evenodd" d="M3.5 12C3.5 11.1716 4.17157 10.5 5 10.5H27C27.8284 10.5 28.5 11.1716 28.5 12C28.5 12.8284 27.8284 13.5 27 13.5H5C4.17157 13.5 3.5 12.8284 3.5 12ZM5 11.5C4.72386 11.5 4.5 11.7239 4.5 12C4.5 12.2761 4.72386 12.5 5 12.5H27C27.2761 12.5 27.5 12.2761 27.5 12C27.5 11.7239 27.2761 11.5 27 11.5H5ZM3.5 20C3.5 19.1716 4.17157 18.5 5 18.5H27C27.8284 18.5 28.5 19.1716 28.5 20C28.5 20.8284 27.8284 21.5 27 21.5H5C4.17157 21.5 3.5 20.8284 3.5 20ZM5 19.5C4.72386 19.5 4.5 19.7239 4.5 20C4.5 20.2761 4.72386 20.5 5 20.5H27C27.2761 20.5 27.5 20.2761 27.5 20C27.5 19.7239 27.2761 19.5 27 19.5H5Z" fill="white"/>
</svg>
