<svg width="32" height="32" viewBox="0 0 32 32" fill="none" xmlns="http://www.w3.org/2000/svg">
<path fill-rule="evenodd" clip-rule="evenodd" d="M5 9.5C5 7.01472 7.01472 5 9.5 5C11.9853 5 14 7.01472 14 9.5C14 11.9853 11.9853 14 9.5 14C7.01472 14 5 11.9853 5 9.5ZM9.5 7C8.11929 7 7 8.11929 7 9.5C7 10.8807 8.11929 12 9.5 12C10.8807 12 12 10.8807 12 9.5C12 8.11929 10.8807 7 9.5 7Z" fill="white"/>
<path fill-rule="evenodd" clip-rule="evenodd" d="M22.5 18C20.0147 18 18 20.0147 18 22.5C18 24.9853 20.0147 27 22.5 27C24.9853 27 27 24.9853 27 22.5C27 20.0147 24.9853 18 22.5 18ZM20 22.5C20 21.1193 21.1193 20 22.5 20C23.8807 20 25 21.1193 25 22.5C25 23.8807 23.8807 25 22.5 25C21.1193 25 20 23.8807 20 22.5Z" fill="white"/>
<path fill-rule="evenodd" clip-rule="evenodd" d="M9.5 5.5C7.29086 5.5 5.5 7.29086 5.5 9.5C5.5 11.7091 7.29086 13.5 9.5 13.5C11.7091 13.5 13.5 11.7091 13.5 9.5C13.5 7.29086 11.7091 5.5 9.5 5.5ZM4.5 9.5C4.5 6.73858 6.73858 4.5 9.5 4.5C12.2614 4.5 14.5 6.73858 14.5 9.5C14.5 12.2614 12.2614 14.5 9.5 14.5C6.73858 14.5 4.5 12.2614 4.5 9.5ZM6.5 9.5C6.5 7.84315 7.84315 6.5 9.5 6.5C11.1569 6.5 12.5 7.84315 12.5 9.5C12.5 11.1569 11.1569 12.5 9.5 12.5C7.84315 12.5 6.5 11.1569 6.5 9.5ZM9.5 7.5C8.39543 7.5 7.5 8.39543 7.5 9.5C7.5 10.6046 8.39543 11.5 9.5 11.5C10.6046 11.5 11.5 10.6046 11.5 9.5C11.5 8.39543 10.6046 7.5 9.5 7.5ZM17.5 22.5C17.5 19.7386 19.7386 17.5 22.5 17.5C25.2614 17.5 27.5 19.7386 27.5 22.5C27.5 25.2614 25.2614 27.5 22.5 27.5C19.7386 27.5 17.5 25.2614 17.5 22.5ZM22.5 18.5C20.2909 18.5 18.5 20.2909 18.5 22.5C18.5 24.7091 20.2909 26.5 22.5 26.5C24.7091 26.5 26.5 24.7091 26.5 22.5C26.5 20.2909 24.7091 18.5 22.5 18.5ZM22.5 20.5C21.3954 20.5 20.5 21.3954 20.5 22.5C20.5 23.6046 21.3954 24.5 22.5 24.5C23.6046 24.5 24.5 23.6046 24.5 22.5C24.5 21.3954 23.6046 20.5 22.5 20.5ZM19.5 22.5C19.5 20.8431 20.8431 19.5 22.5 19.5C24.1569 19.5 25.5 20.8431 25.5 22.5C25.5 24.1569 24.1569 25.5 22.5 25.5C20.8431 25.5 19.5 24.1569 19.5 22.5Z" fill="white"/>
<path d="M6.29289 25.7071C6.68342 26.0976 7.31658 26.0976 7.70711 25.7071L25.7071 7.70711C26.0976 7.31658 26.0976 6.68342 25.7071 6.29289C25.3166 5.90237 24.6834 5.90237 24.2929 6.29289L6.29289 24.2929C5.90237 24.6834 5.90237 25.3166 6.29289 25.7071Z" fill="white"/>
<path fill-rule="evenodd" clip-rule="evenodd" d="M25.3536 6.64645C25.1583 6.45118 24.8417 6.45118 24.6464 6.64645L6.64645 24.6464C6.45118 24.8417 6.45118 25.1583 6.64645 25.3536C6.84171 25.5488 7.15829 25.5488 7.35355 25.3536L25.3536 7.35355C25.5488 7.15829 25.5488 6.84171 25.3536 6.64645ZM26.0607 5.93934C26.6464 6.52513 26.6464 7.47487 26.0607 8.06066L8.06066 26.0607C7.47487 26.6464 6.52513 26.6464 5.93934 26.0607C5.35355 25.4749 5.35355 24.5251 5.93934 23.9393L23.9393 5.93934C24.5251 5.35355 25.4749 5.35355 26.0607 5.93934Z" fill="white"/>
</svg>
