<svg width="32" height="32" viewBox="0 0 32 32" fill="none" xmlns="http://www.w3.org/2000/svg">
<path d="M9 3C9.55228 3 10 3.44772 10 4V8H14C14.5523 8 15 8.44772 15 9C15 9.55228 14.5523 10 14 10H10V14C10 14.5523 9.55228 15 9 15C8.44772 15 8 14.5523 8 14V10H4C3.44772 10 3 9.55228 3 9C3 8.44772 3.44772 8 4 8H8V4C8 3.44772 8.44772 3 9 3Z" fill="white"/>
<path d="M25.7071 7.70711C26.0976 7.31658 26.0976 6.68342 25.7071 6.29289C25.3166 5.90237 24.6834 5.90237 24.2929 6.29289L6.29289 24.2929C5.90237 24.6834 5.90237 25.3166 6.29289 25.7071C6.68342 26.0976 7.31658 26.0976 7.70711 25.7071L25.7071 7.70711Z" fill="white"/>
<path d="M18 22C17.4477 22 17 22.4477 17 23C17 23.5523 17.4477 24 18 24H28C28.5523 24 29 23.5523 29 23C29 22.4477 28.5523 22 28 22H18Z" fill="white"/>
<path fill-rule="evenodd" clip-rule="evenodd" d="M9 3.5C8.72386 3.5 8.5 3.72386 8.5 4V8C8.5 8.27614 8.27614 8.5 8 8.5H4C3.72386 8.5 3.5 8.72386 3.5 9C3.5 9.27614 3.72386 9.5 4 9.5H8C8.27614 9.5 8.5 9.72386 8.5 10V14C8.5 14.2761 8.72386 14.5 9 14.5C9.27614 14.5 9.5 14.2761 9.5 14V10C9.5 9.72386 9.72386 9.5 10 9.5H14C14.2761 9.5 14.5 9.27614 14.5 9C14.5 8.72386 14.2761 8.5 14 8.5H10C9.72386 8.5 9.5 8.27614 9.5 8V4C9.5 3.72386 9.27614 3.5 9 3.5ZM7.5 4C7.5 3.17157 8.17157 2.5 9 2.5C9.82843 2.5 10.5 3.17157 10.5 4V7.5H14C14.8284 7.5 15.5 8.17157 15.5 9C15.5 9.82843 14.8284 10.5 14 10.5H10.5V14C10.5 14.8284 9.82843 15.5 9 15.5C8.17157 15.5 7.5 14.8284 7.5 14V10.5H4C3.17157 10.5 2.5 9.82843 2.5 9C2.5 8.17157 3.17157 7.5 4 7.5H7.5V4ZM23.9393 5.93934C24.5251 5.35355 25.4749 5.35355 26.0607 5.93934C26.6464 6.52513 26.6464 7.47487 26.0607 8.06066L8.06066 26.0607C7.47487 26.6464 6.52513 26.6464 5.93934 26.0607C5.35355 25.4749 5.35355 24.5251 5.93934 23.9393L23.9393 5.93934ZM25.3536 6.64645C25.1583 6.45118 24.8417 6.45118 24.6464 6.64645L6.64645 24.6464C6.45118 24.8417 6.45118 25.1583 6.64645 25.3536C6.84171 25.5488 7.15829 25.5488 7.35355 25.3536L25.3536 7.35355C25.5488 7.15829 25.5488 6.84171 25.3536 6.64645ZM16.5 23C16.5 22.1716 17.1716 21.5 18 21.5H28C28.8284 21.5 29.5 22.1716 29.5 23C29.5 23.8284 28.8284 24.5 28 24.5H18C17.1716 24.5 16.5 23.8284 16.5 23ZM18 22.5C17.7239 22.5 17.5 22.7239 17.5 23C17.5 23.2761 17.7239 23.5 18 23.5H28C28.2761 23.5 28.5 23.2761 28.5 23C28.5 22.7239 28.2761 22.5 28 22.5H18Z" fill="white"/>
</svg>
