<svg width="32" height="32" viewBox="0 0 32 32" fill="none" xmlns="http://www.w3.org/2000/svg">
<path fill-rule="evenodd" clip-rule="evenodd" d="M7.58582 3.58579C7.96089 3.21071 8.46959 3 9.00003 3H23C23.5305 3 24.0392 3.21071 24.4142 3.58579C24.7893 3.96086 25 4.46957 25 5V9.45616C24.9981 9.7644 24.9254 10.0681 24.7876 10.3438C24.6497 10.6195 24.4504 10.8598 24.2049 11.0463L17.6574 16L24.2049 20.9537C24.4504 21.1402 24.6497 21.3805 24.7876 21.6562C24.9254 21.9319 24.9981 22.2356 25 22.5438L25 22.55L25 27C25 27.5304 24.7893 28.0391 24.4142 28.4142C24.0391 28.7893 23.5304 29 23 29H9.00001C8.46958 29 7.96087 28.7893 7.5858 28.4142C7.21072 28.0391 7.00001 27.5304 7.00001 27V22.4938C7.00191 22.1856 7.07461 21.8819 7.21246 21.6062C7.35031 21.3305 7.54964 21.0902 7.79509 20.9037L7.8 20.9L14.3333 16L7.7951 11.0963C7.54965 10.9098 7.35032 10.6695 7.21247 10.3938C7.07463 10.1181 7.00195 9.8144 7.00005 9.50616L7.00001 9.5L7.00002 8.00359L7.00001 8L7.00002 7.9964L7.00003 5C7.00003 4.46957 7.21074 3.96086 7.58582 3.58579ZM9.00003 9V9.49445L9.00133 9.49935L9.00446 9.50333L15.9974 14.748L22.9951 9.45371L22.9987 9.44935L22.9997 9.4467L23 9.44446V9H9.00003ZM23 7H9.00003V5H23V7ZM9.00001 22.5055L9.00131 22.5007L9.00444 22.4967L15.9974 17.252L22.9951 22.5463L22.9975 22.5487L22.9987 22.5507L22.9994 22.5523L23 22.5555V27H9.00001V22.5055Z" fill="white"/>
<path fill-rule="evenodd" clip-rule="evenodd" d="M9.00003 3.5C8.6022 3.5 8.22067 3.65804 7.93937 3.93934C7.65806 4.22064 7.50003 4.60217 7.50003 5L7.50002 7.9964L7.50001 7.99912V8.00088L7.50002 8.00271L7.50001 9.49846L7.50004 9.50308C7.50147 9.73474 7.55609 9.96297 7.65969 10.1702C7.76308 10.377 7.91248 10.5573 8.0964 10.6973C8.09679 10.6976 8.09717 10.6979 8.09756 10.6982L14.6333 15.6C14.7593 15.6944 14.8333 15.8426 14.8333 16C14.8333 16.1574 14.7593 16.3056 14.6333 16.4L8.10238 21.2982L8.1 21.3L8.09755 21.3019C8.09752 21.3019 8.09757 21.3018 8.09755 21.3019C7.91312 21.442 7.76326 21.6227 7.65967 21.8298C7.55627 22.0366 7.50165 22.2643 7.50001 22.4955V27C7.50001 27.3978 7.65805 27.7794 7.93935 28.0607C8.22065 28.342 8.60219 28.5 9.00001 28.5H23C23.3978 28.5 23.7794 28.342 24.0607 28.0607C24.342 27.7794 24.5 27.3978 24.5 27L24.5 22.55L24.5 22.5469C24.4986 22.3153 24.444 22.087 24.3403 21.8798C24.2368 21.6727 24.087 21.4921 23.9026 21.352C23.9026 21.3519 23.9027 21.352 23.9026 21.352L17.3557 16.3987C17.2308 16.3042 17.1574 16.1566 17.1574 16C17.1574 15.8434 17.2308 15.6958 17.3557 15.6013L23.9025 10.6481C23.9024 10.6482 23.9025 10.6481 23.9025 10.6481C24.0869 10.508 24.2368 10.3273 24.3404 10.1202C24.4438 9.91338 24.4984 9.68566 24.5 9.45452V5C24.5 4.60218 24.342 4.22065 24.0607 3.93934C23.7794 3.65804 23.3979 3.5 23 3.5H9.00003ZM7.23226 3.23223C7.7011 2.76339 8.33699 2.5 9.00003 2.5H23C23.6631 2.5 24.299 2.76339 24.7678 3.23223C25.2366 3.70107 25.5 4.33696 25.5 5V9.45616L25.5 9.45925C25.4976 9.84408 25.4069 10.2232 25.2348 10.5674C25.0627 10.9116 24.8138 11.2116 24.5074 11.4444L18.4861 16L24.5066 20.555C24.813 20.7878 25.0627 21.0884 25.2348 21.4326C25.4069 21.7768 25.4976 22.1559 25.5 22.5408L25.5 22.55L25.5 27C25.5 27.663 25.2366 28.2989 24.7678 28.7678C24.2989 29.2366 23.663 29.5 23 29.5H9.00001C8.33697 29.5 7.70109 29.2366 7.23224 28.7678C6.7634 28.2989 6.50001 27.663 6.50001 27V22.4908C6.50238 22.1059 6.59315 21.7268 6.76524 21.3826C6.93734 21.0384 7.1862 20.7384 7.49263 20.5056L7.49761 20.5018L7.5 20.5L13.5 16L7.4951 11.4963L7.49264 11.4944C7.18619 11.2616 6.93735 10.9616 6.76526 10.6174C6.59316 10.2732 6.50243 9.89406 6.50006 9.50924L6.5 9.5L6.50002 8.00402L6.50001 8.00088V7.99912L6.50002 7.9964L6.50003 5C6.50003 4.33696 6.76342 3.70107 7.23226 3.23223ZM8.50003 5C8.50003 4.72386 8.72389 4.5 9.00003 4.5H23C23.2762 4.5 23.5 4.72386 23.5 5V7C23.5 7.27614 23.2762 7.5 23 7.5H9.00003C8.72389 7.5 8.50003 7.27614 8.50003 7V5ZM9.50003 5.5V6.5H22.5V5.5H9.50003ZM8.50003 9C8.50003 8.72386 8.72389 8.5 9.00003 8.5H23C23.2762 8.5 23.5 8.72386 23.5 9V9.44446C23.5 9.46885 23.4982 9.49321 23.4947 9.51735L23.4944 9.51959C23.4894 9.55325 23.481 9.58632 23.4693 9.61828L23.4684 9.62094C23.4487 9.67463 23.4201 9.72456 23.3836 9.76855L23.38 9.77292C23.3554 9.80254 23.3275 9.82923 23.2968 9.85245L16.2991 15.1468C16.1212 15.2813 15.8758 15.2818 15.6974 15.148L8.70446 9.90333C8.66977 9.87731 8.63861 9.84688 8.61177 9.81283L8.60863 9.80885C8.56641 9.75527 8.53559 9.69362 8.51808 9.62769L8.51678 9.62279C8.50566 9.58092 8.50003 9.53778 8.50003 9.49445V9ZM9.83336 9.5L15.9961 14.122L22.1052 9.5H9.83336ZM15.6974 16.852C15.8758 16.7182 16.1212 16.7187 16.2991 16.8532L23.2968 22.1476C23.3159 22.1621 23.3341 22.1779 23.351 22.1951L23.3533 22.1975C23.3784 22.2229 23.4007 22.2509 23.4198 22.2811L23.4211 22.283C23.4364 22.3073 23.4497 22.3328 23.4607 22.3593L23.4613 22.361C23.4743 22.3923 23.4841 22.4249 23.4905 22.4583L23.4911 22.4615C23.497 22.4925 23.5 22.524 23.5 22.5555V27C23.5 27.2761 23.2762 27.5 23 27.5H9.00001C8.72387 27.5 8.50001 27.2761 8.50001 27V22.5055C8.50001 22.4622 8.50564 22.419 8.51677 22.3772L8.51807 22.3723C8.53558 22.3064 8.56638 22.2448 8.60857 22.1912L8.6117 22.1872C8.63856 22.1532 8.66973 22.1227 8.70444 22.0967L15.6974 16.852ZM9.50001 22.75V26.5H22.5V22.7987L15.9961 17.878L9.50001 22.75Z" fill="white"/>
</svg>
