<svg width="32" height="32" viewBox="0 0 32 32" fill="none" xmlns="http://www.w3.org/2000/svg">
<path fill-rule="evenodd" clip-rule="evenodd" d="M9.00005 3C8.46961 3 7.96091 3.21071 7.58583 3.58579C7.21076 3.96086 7.00005 4.46957 7.00005 5L7.00003 9.5L7.00007 9.50616C7.00197 9.8144 7.07464 10.1181 7.21249 10.3938C7.35034 10.6695 7.54967 10.9098 7.79512 11.0963L14.3334 16L7.80002 20.9L7.79511 20.9037C7.54966 21.0902 7.35032 21.3305 7.21247 21.6062C7.07463 21.8819 7.00193 22.1856 7.00003 22.4938V27C7.00003 27.5304 7.21074 28.0391 7.58582 28.4142C7.96089 28.7893 8.4696 29 9.00003 29H23C23.5305 29 24.0392 28.7893 24.4142 28.4142C24.7893 28.0391 25 27.5304 25 27L25 22.55L25 22.5438C24.9981 22.2356 24.9254 21.9319 24.7876 21.6562C24.6497 21.3805 24.4504 21.1402 24.205 20.9537L17.6574 16L24.205 11.0463C24.4504 10.8598 24.6498 10.6195 24.7876 10.3438C24.9255 10.0681 24.9981 9.7644 25 9.45616V5C25 4.46957 24.7893 3.96086 24.4143 3.58579C24.0392 3.21071 23.5305 3 23 3H9.00005ZM9.00005 5H23L22.9951 9.45371L15.9974 14.748L9.00005 9.5V5ZM9.00003 27V22.5055L15.9974 17.252L23 22.5555V27H9.00003Z" fill="white"/>
<path fill-rule="evenodd" clip-rule="evenodd" d="M7.23226 3.23223C7.7011 2.76339 8.33699 2.5 9.00003 2.5H23C23.6631 2.5 24.299 2.76339 24.7678 3.23223C25.2366 3.70107 25.5 4.33696 25.5 5V9.45616L25.5 9.45925C25.4976 9.84408 25.4069 10.2232 25.2348 10.5674C25.0627 10.9116 24.8138 11.2116 24.5074 11.4444L18.4861 16L24.5066 20.555C24.813 20.7878 25.0627 21.0884 25.2348 21.4326C25.4069 21.7768 25.4976 22.1559 25.5 22.5408L25.5 22.55L25.5 27C25.5 27.663 25.2366 28.2989 24.7678 28.7678C24.2989 29.2366 23.663 29.5 23 29.5H9.00001C8.33697 29.5 7.70109 29.2366 7.23224 28.7678C6.7634 28.2989 6.50001 27.663 6.50001 27V22.4938L6.50002 22.4908C6.50239 22.1059 6.59315 21.7268 6.76524 21.3826C6.93734 21.0384 7.1862 20.7384 7.49263 20.5056L7.49761 20.5018L7.5 20.5L13.5 16L7.4951 11.4963L7.49264 11.4944C7.18619 11.2616 6.93735 10.9616 6.76526 10.6174C6.59316 10.2732 6.50243 9.89406 6.50006 9.50924L6.5 9.5L6.50003 5C6.50003 4.33696 6.76342 3.70107 7.23226 3.23223ZM9.00003 3.5C8.6022 3.5 8.22067 3.65804 7.93937 3.93934C7.65806 4.22064 7.50003 4.60217 7.50003 5L7.50001 9.49846L7.50004 9.50308C7.50147 9.73474 7.55609 9.96297 7.65969 10.1702C7.76308 10.377 7.91248 10.5573 8.0964 10.6973C8.09679 10.6976 8.09717 10.6979 8.09756 10.6982L14.6333 15.6C14.7593 15.6944 14.8333 15.8426 14.8333 16C14.8333 16.1574 14.7593 16.3056 14.6333 16.4L8.10238 21.2982L8.1 21.3L8.09755 21.3019C8.09752 21.3019 8.09757 21.3018 8.09755 21.3019C7.91312 21.442 7.76326 21.6227 7.65967 21.8298C7.55627 22.0366 7.50165 22.2643 7.50001 22.4955V27C7.50001 27.3978 7.65805 27.7794 7.93935 28.0607C8.22065 28.342 8.60219 28.5 9.00001 28.5H23C23.3978 28.5 23.7794 28.342 24.0607 28.0607C24.342 27.7794 24.5 27.3978 24.5 27L24.5 22.55L24.5 22.5469C24.4986 22.3153 24.444 22.087 24.3403 21.8798C24.2368 21.6727 24.087 21.4921 23.9026 21.352C23.9026 21.3519 23.9027 21.352 23.9026 21.352L17.3557 16.3987C17.2308 16.3042 17.1574 16.1566 17.1574 16C17.1574 15.8434 17.2308 15.6958 17.3557 15.6013L23.9025 10.6481C23.9024 10.6482 23.9025 10.6481 23.9025 10.6481C24.0869 10.508 24.2368 10.3273 24.3404 10.1202C24.4438 9.91338 24.4984 9.68566 24.5 9.45452V5C24.5 4.60218 24.342 4.22065 24.0607 3.93934C23.7794 3.65804 23.3979 3.5 23 3.5H9.00003ZM8.50003 5C8.50003 4.72386 8.72389 4.5 9.00003 4.5H23C23.1327 4.5 23.26 4.55275 23.3538 4.64664C23.4476 4.74053 23.5002 4.86785 23.5 5.00055L23.4951 9.45427C23.4949 9.61071 23.4215 9.75806 23.2968 9.85245L16.2991 15.1468C16.1212 15.2813 15.8758 15.2818 15.6974 15.148L8.70003 9.9C8.57413 9.80557 8.50003 9.65738 8.50003 9.5V5ZM9.50003 5.5V9.25L15.9961 14.122L22.4954 9.20482L22.4995 5.5H9.50003ZM15.6972 16.8521C15.8757 16.7181 16.1213 16.7186 16.2993 16.8534L23.2624 22.127C23.3772 22.1981 23.4631 22.3152 23.4905 22.4583L23.4911 22.4615C23.497 22.4925 23.5 22.524 23.5 22.5555V27C23.5 27.2761 23.2762 27.5 23 27.5H9.00001C8.72387 27.5 8.50001 27.2761 8.50001 27V22.5055C8.50001 22.3483 8.57402 22.2001 8.69981 22.1057L15.6972 16.8521ZM22.5 22.8041V26.5H9.50001V22.7554L15.9961 17.8782L22.5 22.8041Z" fill="white"/>
</svg>
