<svg width="32" height="32" viewBox="0 0 32 32" fill="none" xmlns="http://www.w3.org/2000/svg">
<path fill-rule="evenodd" clip-rule="evenodd" d="M8.5 3.5C5.73858 3.5 3.5 5.73858 3.5 8.5C3.5 10.7392 4.97158 12.6337 7 13.271V18.729C4.97158 19.3663 3.5 21.2608 3.5 23.5C3.5 26.2614 5.73858 28.5 8.5 28.5C11.2614 28.5 13.5 26.2614 13.5 23.5C13.5 21.2686 12.0388 19.3796 10.0214 18.7358C10.0399 18.6282 10.0702 18.5226 10.112 18.4211C10.1867 18.2398 10.2964 18.0751 10.435 17.9363C10.7743 17.6002 11.2985 17.5014 11.5016 17.5H20.4994C21.0899 17.5017 21.675 17.3869 22.2211 17.162C22.7685 16.9366 23.2659 16.6052 23.6846 16.1868L23.6857 16.1857C24.1046 15.7667 24.4364 15.269 24.662 14.7211C24.852 14.2597 24.9634 13.7702 24.9924 13.2733C27.0247 12.6385 28.5 10.742 28.5 8.5C28.5 5.73858 26.2614 3.5 23.5 3.5C20.7386 3.5 18.5 5.73858 18.5 8.5C18.5 10.7314 19.9612 12.6204 21.9786 13.2642C21.9601 13.3718 21.9298 13.4774 21.888 13.5789C21.8132 13.7605 21.7032 13.9255 21.5643 14.0643C21.4255 14.2032 21.2605 14.3132 21.0789 14.388C20.8973 14.4628 20.7027 14.5008 20.5063 14.5L20.5042 14.5L11.5 14.5C10.9681 14.5 10.4439 14.6563 10.0249 14.867L10 14.8797V13.271C12.0284 12.6337 13.5 10.7392 13.5 8.5C13.5 5.73858 11.2614 3.5 8.5 3.5ZM8.5 6.5C7.39543 6.5 6.5 7.39543 6.5 8.5C6.5 9.60457 7.39543 10.5 8.5 10.5C9.60457 10.5 10.5 9.60457 10.5 8.5C10.5 7.39543 9.60457 6.5 8.5 6.5ZM6.5 23.5C6.5 22.3954 7.39543 21.5 8.5 21.5C9.60457 21.5 10.5 22.3954 10.5 23.5C10.5 24.6046 9.60457 25.5 8.5 25.5C7.39543 25.5 6.5 24.6046 6.5 23.5ZM23.5 6.5C22.3954 6.5 21.5 7.39543 21.5 8.5C21.5 9.60457 22.3954 10.5 23.5 10.5C24.6046 10.5 25.5 9.60457 25.5 8.5C25.5 7.39543 24.6046 6.5 23.5 6.5Z" fill="white"/>
</svg>
