<svg width="34" height="32" viewBox="0 0 34 32" fill="none" xmlns="http://www.w3.org/2000/svg">
<path fill-rule="evenodd" clip-rule="evenodd" d="M24.4339 15C23.945 11.3306 20.8031 8.5 17 8.5C13.1969 8.5 10.055 11.3306 9.56609 15H2C1.44772 15 1 15.4477 1 16C1 16.5523 1.44772 17 2 17H9.56609C10.055 20.6694 13.1969 23.5 17 23.5C20.8031 23.5 23.945 20.6694 24.4339 17H32C32.5523 17 33 16.5523 33 16C33 15.4477 32.5523 15 32 15H24.4339ZM17 10.5C13.9624 10.5 11.5 12.9624 11.5 16C11.5 19.0376 13.9624 21.5 17 21.5C20.0376 21.5 22.5 19.0376 22.5 16C22.5 12.9624 20.0376 10.5 17 10.5Z" fill="white"/>
<path fill-rule="evenodd" clip-rule="evenodd" d="M9.14049 14.5C9.84285 10.7985 13.0942 8 17 8C20.9058 8 24.1571 10.7985 24.8595 14.5H32C32.8284 14.5 33.5 15.1716 33.5 16C33.5 16.8284 32.8284 17.5 32 17.5H24.8595C24.1571 21.2015 20.9058 24 17 24C13.0942 24 9.84285 21.2015 9.14049 17.5H2C1.17157 17.5 0.5 16.8284 0.5 16C0.5 15.1716 1.17157 14.5 2 14.5H9.14049ZM17 9C13.4509 9 10.5179 11.6418 10.0617 15.066C10.0286 15.3145 9.8167 15.5 9.56609 15.5H2C1.72386 15.5 1.5 15.7239 1.5 16C1.5 16.2761 1.72386 16.5 2 16.5H9.56609C9.8167 16.5 10.0286 16.6855 10.0617 16.934C10.5179 20.3582 13.4509 23 17 23C20.5491 23 23.4821 20.3582 23.9383 16.934C23.9714 16.6855 24.1833 16.5 24.4339 16.5H32C32.2761 16.5 32.5 16.2761 32.5 16C32.5 15.7239 32.2761 15.5 32 15.5H24.4339C24.1833 15.5 23.9714 15.3145 23.9383 15.066C23.4821 11.6418 20.5491 9 17 9ZM11 16C11 12.6863 13.6863 10 17 10C20.3137 10 23 12.6863 23 16C23 19.3137 20.3137 22 17 22C13.6863 22 11 19.3137 11 16ZM17 11C14.2386 11 12 13.2386 12 16C12 18.7614 14.2386 21 17 21C19.7614 21 22 18.7614 22 16C22 13.2386 19.7614 11 17 11Z" fill="white"/>
</svg>
