<svg width="32" height="32" viewBox="0 0 32 32" fill="none" xmlns="http://www.w3.org/2000/svg">
<path fill-rule="evenodd" clip-rule="evenodd" d="M15 21C15 20.4477 14.5523 20 14 20C13.4477 20 13 20.4477 13 21V23.5858L9.96961 20.5554C9.03038 19.615 8.50196 18.3409 8.5 17.0118V12.8885C10.504 12.4338 12 10.6416 12 8.5C12 6.01472 9.98528 4 7.5 4C5.01472 4 3 6.01472 3 8.5C3 10.6416 4.49601 12.4338 6.5 12.8885L6.5 17.0139C6.50251 18.8725 7.24183 20.6547 8.55539 21.9696L11.5858 25H9C8.44772 25 8 25.4477 8 26C8 26.5523 8.44772 27 9 27H14C14.5523 27 15 26.5523 15 26V21ZM7.5 6C6.11929 6 5 7.11929 5 8.5C5 9.88071 6.11929 11 7.5 11C8.88071 11 10 9.88071 10 8.5C10 7.11929 8.88071 6 7.5 6Z" fill="white"/>
<path fill-rule="evenodd" clip-rule="evenodd" d="M18 5C17.4477 5 17 5.44772 17 6V11C17 11.5523 17.4477 12 18 12C18.5523 12 19 11.5523 19 11V8.41421L22.03 11.4442C22.9695 12.3846 23.498 13.659 23.5 14.9882V19.1115C21.496 19.5662 20 21.3584 20 23.5C20 25.9853 22.0147 28 24.5 28C26.9853 28 29 25.9853 29 23.5C29 21.3584 27.504 19.5662 25.5 19.1115V14.9861C25.4975 13.1275 24.7582 11.3453 23.4446 10.0304L20.4142 7H23C23.5523 7 24 6.55228 24 6C24 5.44772 23.5523 5 23 5H18ZM24.5 21C23.1193 21 22 22.1193 22 23.5C22 24.8807 23.1193 26 24.5 26C25.8807 26 27 24.8807 27 23.5C27 22.1193 25.8807 21 24.5 21Z" fill="white"/>
<path fill-rule="evenodd" clip-rule="evenodd" d="M2.5 8.5C2.5 5.73858 4.73858 3.5 7.5 3.5C10.2614 3.5 12.5 5.73858 12.5 8.5C12.5 10.7392 11.0284 12.6337 9 13.271L9 17.011C9.00185 18.2077 9.4776 19.3551 10.3232 20.2018M10.3232 20.2018L12.5 22.3787V21C12.5 20.1716 13.1716 19.5 14 19.5C14.8284 19.5 15.5 20.1716 15.5 21V26C15.5 26.8284 14.8284 27.5 14 27.5H9C8.17157 27.5 7.5 26.8284 7.5 26C7.5 25.1716 8.17157 24.5 9 24.5H10.3787L8.20184 22.3232C6.79481 20.9147 6.00269 19.0055 6 17.0145L6 13.271C3.97158 12.6337 2.5 10.7392 2.5 8.5M7.5 4.5C5.29086 4.5 3.5 6.29086 3.5 8.5C3.5 10.403 4.8294 11.9967 6.61064 12.4009C6.83837 12.4526 7 12.655 7 12.8885L7 17.0132C7.00242 18.7393 7.68904 20.3948 8.90895 21.6161L11.9393 24.6464C12.0823 24.7894 12.1251 25.0045 12.0477 25.1913C11.9703 25.3782 11.788 25.5 11.5858 25.5H9C8.72386 25.5 8.5 25.7239 8.5 26C8.5 26.2761 8.72386 26.5 9 26.5H14C14.2761 26.5 14.5 26.2761 14.5 26V21C14.5 20.7239 14.2761 20.5 14 20.5C13.7239 20.5 13.5 20.7239 13.5 21V23.5858C13.5 23.788 13.3782 23.9703 13.1913 24.0477C13.0045 24.1251 12.7894 24.0823 12.6464 23.9393L9.61605 20.9089C8.58338 19.875 8.00216 18.4738 8 17.0125L8 12.8885C8 12.655 8.16163 12.4526 8.38936 12.4009C10.1706 11.9967 11.5 10.403 11.5 8.5C11.5 6.29086 9.70914 4.5 7.5 4.5ZM16.5 6C16.5 5.17157 17.1716 4.5 18 4.5H23C23.8284 4.5 24.5 5.17157 24.5 6C24.5 6.82843 23.8284 7.5 23 7.5H21.6213L23.7982 9.67684C25.2052 11.0853 25.9973 12.9945 26 14.9855V18.729C28.0284 19.3663 29.5 21.2608 29.5 23.5C29.5 26.2614 27.2614 28.5 24.5 28.5C21.7386 28.5 19.5 26.2614 19.5 23.5C19.5 21.2608 20.9716 19.3663 23 18.729V14.9889C22.9982 13.792 22.5223 12.6446 21.6765 11.7978L19.5 9.62132V11C19.5 11.8284 18.8284 12.5 18 12.5C17.1716 12.5 16.5 11.8284 16.5 11V6ZM18 5.5C17.7239 5.5 17.5 5.72386 17.5 6V11C17.5 11.2761 17.7239 11.5 18 11.5C18.2761 11.5 18.5 11.2761 18.5 11V8.41421C18.5 8.21198 18.6218 8.02966 18.8087 7.95227C18.9955 7.87488 19.2106 7.91766 19.3536 8.06066L22.3836 11.0907C23.4165 12.1247 23.9978 13.5259 24 14.9874V19.1115C24 19.345 23.8384 19.5474 23.6106 19.5991C21.8294 20.0033 20.5 21.597 20.5 23.5C20.5 25.7091 22.2909 27.5 24.5 27.5C26.7091 27.5 28.5 25.7091 28.5 23.5C28.5 21.597 27.1706 20.0033 25.3894 19.5991C25.1616 19.5474 25 19.345 25 19.1115V14.9875C24.9977 13.2612 24.311 11.6051 23.0909 10.3838L20.0607 7.35355C19.9177 7.21055 19.8749 6.9955 19.9523 6.80866C20.0297 6.62182 20.212 6.5 20.4142 6.5H23C23.2761 6.5 23.5 6.27614 23.5 6C23.5 5.72386 23.2761 5.5 23 5.5H18ZM7.5 6.5C6.39543 6.5 5.5 7.39543 5.5 8.5C5.5 9.60457 6.39543 10.5 7.5 10.5C8.60457 10.5 9.5 9.60457 9.5 8.5C9.5 7.39543 8.60457 6.5 7.5 6.5ZM4.5 8.5C4.5 6.84315 5.84315 5.5 7.5 5.5C9.15685 5.5 10.5 6.84315 10.5 8.5C10.5 10.1569 9.15685 11.5 7.5 11.5C5.84315 11.5 4.5 10.1569 4.5 8.5ZM24.5 21.5C23.3954 21.5 22.5 22.3954 22.5 23.5C22.5 24.6046 23.3954 25.5 24.5 25.5C25.6046 25.5 26.5 24.6046 26.5 23.5C26.5 22.3954 25.6046 21.5 24.5 21.5ZM21.5 23.5C21.5 21.8431 22.8431 20.5 24.5 20.5C26.1569 20.5 27.5 21.8431 27.5 23.5C27.5 25.1569 26.1569 26.5 24.5 26.5C22.8431 26.5 21.5 25.1569 21.5 23.5Z" fill="white"/>
</svg>
