<svg width="32" height="32" viewBox="0 0 32 32" fill="none" xmlns="http://www.w3.org/2000/svg">
<path fill-rule="evenodd" clip-rule="evenodd" d="M8.5 3.5C5.73858 3.5 3.5 5.73858 3.5 8.5C3.5 10.7363 4.96776 12.6288 6.99207 13.2685C7.03426 13.7618 7.15567 14.2885 7.33383 14.7211C7.55941 15.269 7.89125 15.7667 8.31019 16.1857C8.72913 16.6046 9.22688 16.9364 9.77473 17.162C10.3222 17.3874 10.9088 17.5023 11.5009 17.5H14.5V18.729C12.4716 19.3663 11 21.2607 11 23.5C11 26.2614 13.2386 28.5 16 28.5C18.7614 28.5 21 26.2614 21 23.5C21 21.2607 19.5284 19.3663 17.5 18.729V17.5H20.4996C21.0901 17.5017 21.6751 17.3868 22.2211 17.162C22.769 16.9364 23.2667 16.6046 23.6857 16.1857C24.1046 15.7667 24.4364 15.269 24.662 14.7211C24.8424 14.2831 24.9492 13.7603 24.9857 13.2754C27.0215 12.6426 28.5 10.7445 28.5 8.5C28.5 5.73858 26.2614 3.5 23.5 3.5C20.7386 3.5 18.5 5.73858 18.5 8.5C18.5 10.7259 19.9541 12.6112 21.9639 13.2594C21.9461 13.3853 21.92 13.501 21.888 13.5789C21.8132 13.7605 21.7032 13.9255 21.5643 14.0643C21.4255 14.2032 21.2605 14.3132 21.0789 14.388C20.8973 14.4628 20.7027 14.5008 20.5063 14.5L20.5022 14.5L20.5 14.5H11.5L11.4954 14.5L11.4896 14.5C11.2932 14.5008 11.0986 14.4628 10.917 14.388C10.7354 14.3132 10.5704 14.2032 10.4315 14.0643C10.2926 13.9255 10.1826 13.7605 10.1079 13.5789C10.0866 13.5272 10.0652 13.4304 10.0524 13.2887C10.0512 13.2756 10.0501 13.2624 10.0492 13.2492C11.9976 12.5665 13.5 10.694 13.5 8.5C13.5 5.73858 11.2614 3.5 8.5 3.5ZM8.5 6.5C7.39543 6.5 6.5 7.39543 6.5 8.5C6.5 9.60457 7.39543 10.5 8.5 10.5C9.60457 10.5 10.5 9.60457 10.5 8.5C10.5 7.39543 9.60457 6.5 8.5 6.5ZM21.5 8.5C21.5 7.39543 22.3954 6.5 23.5 6.5C24.6046 6.5 25.5 7.39543 25.5 8.5C25.5 9.60457 24.6046 10.5 23.5 10.5C22.3954 10.5 21.5 9.60457 21.5 8.5ZM16 21.5C14.8954 21.5 14 22.3954 14 23.5C14 24.6046 14.8954 25.5 16 25.5C17.1046 25.5 18 24.6046 18 23.5C18 22.3954 17.1046 21.5 16 21.5Z" fill="white"/>
</svg>
