<svg width="32" height="32" viewBox="0 0 32 32" fill="none" xmlns="http://www.w3.org/2000/svg">
<path fill-rule="evenodd" clip-rule="evenodd" d="M9.5 14.7607L10.93 16.4756C11.5799 17.2594 12.3944 17.8926 13.3143 18.3284C13.3227 18.3326 13.3311 18.3367 13.3397 18.3407C14.2705 18.7771 15.2863 19.0024 16.3144 19.0003L16.3388 19H19.2561C19.8738 20.7478 21.5407 22 23.5 22C25.9853 22 28 19.9853 28 17.5C28 15.0147 25.9853 13 23.5 13C21.1837 13 19.2762 14.75 19.0275 17H16.3125C16.3038 17 16.2951 17.0001 16.2864 17.0003C15.5692 16.9983 14.861 16.8412 14.2102 16.5399L14.1888 16.5295C13.5248 16.2183 12.9379 15.7641 12.47 15.1994L10.3173 12.6179C11.8974 11.9196 13 10.3386 13 8.5C13 6.01472 10.9853 4 8.5 4C6.01472 4 4 6.01472 4 8.5C4 10.6416 5.49601 12.4338 7.5 12.8885V19.1115C5.49601 19.5662 4 21.3584 4 23.5C4 25.9853 6.01472 28 8.5 28C10.9853 28 13 25.9853 13 23.5C13 21.3584 11.504 19.5662 9.5 19.1115V14.7607ZM8.5 6C7.11929 6 6 7.11929 6 8.5C6 9.88071 7.11929 11 8.5 11C9.88071 11 11 9.88071 11 8.5C11 7.11929 9.88071 6 8.5 6ZM8.5 21C7.11929 21 6 22.1193 6 23.5C6 24.8807 7.11929 26 8.5 26C9.88071 26 11 24.8807 11 23.5C11 22.1193 9.88071 21 8.5 21ZM21 17.5C21 16.1193 22.1193 15 23.5 15C24.8807 15 26 16.1193 26 17.5C26 18.8807 24.8807 20 23.5 20C22.1193 20 21 18.8807 21 17.5Z" fill="white"/>
<path fill-rule="evenodd" clip-rule="evenodd" d="M3.5 8.5C3.5 5.73858 5.73858 3.5 8.5 3.5C11.2614 3.5 13.5 5.73858 13.5 8.5C13.5 10.3107 12.5375 11.8958 11.0977 12.773L12.855 14.8804C13.2759 15.3883 13.8038 15.7968 14.401 16.0768L14.4063 16.0793L14.4239 16.0878C15.0064 16.3569 15.64 16.4976 16.2816 16.5003C16.2919 16.5001 16.3022 16.5 16.3125 16.5H18.6001C19.0636 14.2176 21.0809 12.5 23.5 12.5C26.2614 12.5 28.5 14.7386 28.5 17.5C28.5 20.2614 26.2614 22.5 23.5 22.5C21.449 22.5 19.6875 21.2653 18.9162 19.5H16.3423L16.3154 19.5004C15.2136 19.5026 14.125 19.2611 13.1274 18.7934C13.1217 18.7908 13.116 18.788 13.1103 18.7853C13.1053 18.7829 13.1003 18.7804 13.0954 18.778C12.1116 18.311 11.2407 17.6335 10.5455 16.7952L10 16.141V18.729C12.0284 19.3663 13.5 21.2608 13.5 23.5C13.5 26.2614 11.2614 28.5 8.5 28.5C5.73858 28.5 3.5 26.2614 3.5 23.5C3.5 21.2608 4.97158 19.3663 7 18.729V13.271C4.97158 12.6337 3.5 10.7392 3.5 8.5ZM8.5 4.5C6.29086 4.5 4.5 6.29086 4.5 8.5C4.5 10.403 5.8294 11.9967 7.61064 12.4009C7.83837 12.4526 8 12.655 8 12.8885V19.1115C8 19.345 7.83837 19.5474 7.61064 19.5991C5.8294 20.0033 4.5 21.597 4.5 23.5C4.5 25.7091 6.29086 27.5 8.5 27.5C10.7091 27.5 12.5 25.7091 12.5 23.5C12.5 21.597 11.1706 20.0033 9.38936 19.5991C9.16163 19.5474 9 19.345 9 19.1115V14.7607C9 14.5502 9.13181 14.3622 9.32971 14.2906C9.52761 14.2189 9.74921 14.2788 9.88401 14.4404L11.315 16.1565C11.9183 16.8842 12.6745 17.472 13.5284 17.8766L13.5391 17.8816L13.5519 17.888C14.4151 18.2927 15.3571 18.5018 16.3105 18.5003L16.3388 18.5L19.2561 18.5C19.468 18.5 19.6569 18.6336 19.7275 18.8334C20.2768 20.3876 21.7592 21.5 23.5 21.5C25.7091 21.5 27.5 19.7091 27.5 17.5C27.5 15.2909 25.7091 13.5 23.5 13.5C21.4414 13.5 19.7455 15.0555 19.5244 17.0549C19.4964 17.3083 19.2823 17.5 19.0275 17.5H16.3125L16.2992 17.5002L16.285 17.5003C15.4957 17.4981 14.7163 17.3252 14.0001 16.9936L13.9926 16.9902L13.9738 16.981C13.2445 16.6386 12.5998 16.1395 12.0856 15.5192L9.93334 12.9382C9.83282 12.8176 9.79474 12.6569 9.83049 12.5041C9.86624 12.3512 9.97167 12.2241 10.1152 12.1606C11.5208 11.5394 12.5 10.1335 12.5 8.5C12.5 6.29086 10.7091 4.5 8.5 4.5ZM5.5 8.5C5.5 6.84315 6.84315 5.5 8.5 5.5C10.1569 5.5 11.5 6.84315 11.5 8.5C11.5 10.1569 10.1569 11.5 8.5 11.5C6.84315 11.5 5.5 10.1569 5.5 8.5ZM8.5 6.5C7.39543 6.5 6.5 7.39543 6.5 8.5C6.5 9.60457 7.39543 10.5 8.5 10.5C9.60457 10.5 10.5 9.60457 10.5 8.5C10.5 7.39543 9.60457 6.5 8.5 6.5ZM23.5 15.5C22.3954 15.5 21.5 16.3954 21.5 17.5C21.5 18.6046 22.3954 19.5 23.5 19.5C24.6046 19.5 25.5 18.6046 25.5 17.5C25.5 16.3954 24.6046 15.5 23.5 15.5ZM20.5 17.5C20.5 15.8431 21.8431 14.5 23.5 14.5C25.1569 14.5 26.5 15.8431 26.5 17.5C26.5 19.1569 25.1569 20.5 23.5 20.5C21.8431 20.5 20.5 19.1569 20.5 17.5ZM5.5 23.5C5.5 21.8431 6.84315 20.5 8.5 20.5C10.1569 20.5 11.5 21.8431 11.5 23.5C11.5 25.1569 10.1569 26.5 8.5 26.5C6.84315 26.5 5.5 25.1569 5.5 23.5ZM8.5 21.5C7.39543 21.5 6.5 22.3954 6.5 23.5C6.5 24.6046 7.39543 25.5 8.5 25.5C9.60457 25.5 10.5 24.6046 10.5 23.5C10.5 22.3954 9.60457 21.5 8.5 21.5Z" fill="white"/>
</svg>
