<svg width="32" height="32" viewBox="0 0 32 32" fill="none" xmlns="http://www.w3.org/2000/svg">
<path fill-rule="evenodd" clip-rule="evenodd" d="M13 8.5C13 10.6416 11.504 12.4338 9.5 12.8885V19.1115C11.504 19.5662 13 21.3584 13 23.5C13 25.9853 10.9853 28 8.5 28C6.01472 28 4 25.9853 4 23.5C4 21.3584 5.49601 19.5662 7.5 19.1115V12.8885C5.49601 12.4338 4 10.6416 4 8.5C4 6.01472 6.01472 4 8.5 4C10.9853 4 13 6.01472 13 8.5ZM6 8.5C6 7.11929 7.11929 6 8.5 6C9.88071 6 11 7.11929 11 8.5C11 9.88071 9.88071 11 8.5 11C7.11929 11 6 9.88071 6 8.5ZM6 23.5C6 22.1193 7.11929 21 8.5 21C9.88071 21 11 22.1193 11 23.5C11 24.8807 9.88071 26 8.5 26C7.11929 26 6 24.8807 6 23.5Z" fill="white"/>
<path fill-rule="evenodd" clip-rule="evenodd" d="M19 23.5C19 21.3584 20.496 19.5662 22.5 19.1115V14.9882C22.498 13.659 21.9695 12.3846 21.03 11.4442L18 8.41421V11C18 11.5523 17.5523 12 17 12C16.4477 12 16 11.5523 16 11V6.00069C16 5.99969 16 5.998 16 5.997C16.0004 5.8625 16.0273 5.73425 16.0759 5.61722C16.1243 5.50014 16.196 5.3904 16.2908 5.29502C16.2922 5.2936 16.2936 5.29219 16.295 5.29078C16.49 5.09693 16.745 5 17 5H22C22.5523 5 23 5.44772 23 6C23 6.55228 22.5523 7 22 7H19.4142L22.4446 10.0304C23.7582 11.3453 24.4975 13.1275 24.5 14.9861V19.1115C26.504 19.5662 28 21.3584 28 23.5C28 25.9853 25.9853 28 23.5 28C21.0147 28 19 25.9853 19 23.5ZM21 23.5C21 22.1193 22.1193 21 23.5 21C24.8807 21 26 22.1193 26 23.5C26 24.8807 24.8807 26 23.5 26C22.1193 26 21 24.8807 21 23.5Z" fill="white"/>
<path fill-rule="evenodd" clip-rule="evenodd" d="M8.5 4.5C6.29086 4.5 4.5 6.29086 4.5 8.5C4.5 10.403 5.8294 11.9967 7.61064 12.4009C7.83837 12.4526 8 12.655 8 12.8885V19.1115C8 19.345 7.83837 19.5474 7.61064 19.5991C5.8294 20.0033 4.5 21.597 4.5 23.5C4.5 25.7091 6.29086 27.5 8.5 27.5C10.7091 27.5 12.5 25.7091 12.5 23.5C12.5 21.597 11.1706 20.0033 9.38936 19.5991C9.16163 19.5474 9 19.345 9 19.1115V12.8885C9 12.655 9.16163 12.4526 9.38936 12.4009C11.1706 11.9967 12.5 10.403 12.5 8.5C12.5 6.29086 10.7091 4.5 8.5 4.5ZM3.5 8.5C3.5 5.73858 5.73858 3.5 8.5 3.5C11.2614 3.5 13.5 5.73858 13.5 8.5C13.5 10.7392 12.0284 12.6337 10 13.271V18.729C12.0284 19.3663 13.5 21.2608 13.5 23.5C13.5 26.2614 11.2614 28.5 8.5 28.5C5.73858 28.5 3.5 26.2614 3.5 23.5C3.5 21.2608 4.97158 19.3663 7 18.729V13.271C4.97158 12.6337 3.5 10.7392 3.5 8.5ZM17 5.5C16.8717 5.5 16.7451 5.54838 16.6475 5.64537L16.6454 5.64751C16.5974 5.69583 16.5618 5.75052 16.5379 5.80838C16.5139 5.8662 16.5002 5.93032 16.5 5.99843M16.5 5.99843L16.5 11C16.5 11.2761 16.7239 11.5 17 11.5C17.2761 11.5 17.5 11.2761 17.5 11V8.41421C17.5 8.21198 17.6218 8.02966 17.8087 7.95227C17.9955 7.87488 18.2106 7.91766 18.3536 8.06066L21.3836 11.0907C22.4165 12.1247 22.9978 13.5259 23 14.9874V19.1115C23 19.345 22.8384 19.5474 22.6106 19.5991C20.8294 20.0033 19.5 21.597 19.5 23.5C19.5 25.7091 21.2909 27.5 23.5 27.5C25.7091 27.5 27.5 25.7091 27.5 23.5C27.5 21.597 26.1706 20.0033 24.3894 19.5991C24.1616 19.5474 24 19.345 24 19.1115V14.9868C23.9977 13.2605 23.311 11.6051 22.0909 10.3838L19.0607 7.35355C18.9177 7.21055 18.8749 6.9955 18.9523 6.80866C19.0297 6.62182 19.212 6.5 19.4142 6.5H22C22.2761 6.5 22.5 6.27614 22.5 6C22.5 5.72386 22.2761 5.5 22 5.5H17M15.9425 4.93619C16.2349 4.64547 16.6183 4.5 17 4.5H22C22.8284 4.5 23.5 5.17157 23.5 6C23.5 6.82843 22.8284 7.5 22 7.5H20.6213L22.7982 9.67684C24.2052 11.0853 24.9973 12.9945 25 14.9855V18.729C27.0284 19.3663 28.5 21.2608 28.5 23.5C28.5 26.2614 26.2614 28.5 23.5 28.5C20.7386 28.5 18.5 26.2614 18.5 23.5C18.5 21.2608 19.9716 19.3663 22 18.729V14.9889C21.9982 13.792 21.5223 12.6446 20.6765 11.7978C20.6764 11.7977 20.6765 11.7979 20.6765 11.7978L18.5 9.62132V11C18.5 11.8284 17.8284 12.5 17 12.5C16.1716 12.5 15.5 11.8284 15.5 11V6.00069L15.5 5.99557C15.5006 5.7947 15.5409 5.60193 15.614 5.42569C15.614 5.42581 15.6141 5.42557 15.614 5.42569C15.687 5.24954 15.7947 5.08487 15.9362 4.94252L15.9425 4.93619ZM15.9362 4.94252C15.9362 4.94253 15.9362 4.94252 15.9362 4.94252V4.94252ZM8.5 6.5C7.39543 6.5 6.5 7.39543 6.5 8.5C6.5 9.60457 7.39543 10.5 8.5 10.5C9.60457 10.5 10.5 9.60457 10.5 8.5C10.5 7.39543 9.60457 6.5 8.5 6.5ZM5.5 8.5C5.5 6.84315 6.84315 5.5 8.5 5.5C10.1569 5.5 11.5 6.84315 11.5 8.5C11.5 10.1569 10.1569 11.5 8.5 11.5C6.84315 11.5 5.5 10.1569 5.5 8.5ZM8.5 21.5C7.39543 21.5 6.5 22.3954 6.5 23.5C6.5 24.6046 7.39543 25.5 8.5 25.5C9.60457 25.5 10.5 24.6046 10.5 23.5C10.5 22.3954 9.60457 21.5 8.5 21.5ZM5.5 23.5C5.5 21.8431 6.84315 20.5 8.5 20.5C10.1569 20.5 11.5 21.8431 11.5 23.5C11.5 25.1569 10.1569 26.5 8.5 26.5C6.84315 26.5 5.5 25.1569 5.5 23.5ZM23.5 21.5C22.3954 21.5 21.5 22.3954 21.5 23.5C21.5 24.6046 22.3954 25.5 23.5 25.5C24.6046 25.5 25.5 24.6046 25.5 23.5C25.5 22.3954 24.6046 21.5 23.5 21.5ZM20.5 23.5C20.5 21.8431 21.8431 20.5 23.5 20.5C25.1569 20.5 26.5 21.8431 26.5 23.5C26.5 25.1569 25.1569 26.5 23.5 26.5C21.8431 26.5 20.5 25.1569 20.5 23.5Z" fill="white"/>
</svg>
