<svg width="32" height="33" viewBox="0 0 32 33" fill="none" xmlns="http://www.w3.org/2000/svg">
<path fill-rule="evenodd" clip-rule="evenodd" d="M23.5976 4.03306C23.9861 3.95329 24.3895 3.99083 24.7566 4.14088C25.1237 4.29093 25.4379 4.54674 25.6593 4.87579C25.8807 5.20483 25.9992 5.59226 25.9999 5.98885L25.9999 5.99052L25.9999 26.578C25.9999 27.1084 25.7892 27.6172 25.4141 27.9922C25.039 28.3673 24.5303 28.578 23.9999 28.578H3.41239L3.41072 28.578C3.01414 28.5774 2.62671 28.4588 2.29766 28.2374C1.96861 28.0161 1.71281 27.7019 1.56275 27.3348C1.4127 26.9677 1.37517 26.5642 1.45493 26.1758C1.53439 25.7888 1.72667 25.434 2.00747 25.1562L22.5781 4.58559C22.8559 4.3048 23.2106 4.11252 23.5976 4.03306ZM23.9945 5.99762L3.41411 26.578H23.9999L23.9999 5.99219L23.9945 5.99762Z" fill="white"/>
<path fill-rule="evenodd" clip-rule="evenodd" d="M23.4971 3.54328C23.9827 3.44357 24.4869 3.49048 24.9458 3.67805C25.4047 3.86562 25.7974 4.18538 26.0742 4.59668C26.3509 5.00799 26.4991 5.49228 26.4999 5.98801L26.4999 5.98938L26.4999 5.99052L26.4999 26.578C26.4999 27.2411 26.2365 27.8769 25.7677 28.3458C25.2988 28.8146 24.6629 29.078 23.9999 29.078L3.41015 29.078C2.91442 29.0772 2.42987 28.929 2.01856 28.6523C1.60725 28.3756 1.2875 27.9828 1.09993 27.5239C0.912359 27.0651 0.865446 26.5608 0.965152 26.0752C1.06438 25.5919 1.30437 25.1489 1.65483 24.8018L1.65392 24.8027L2.00747 25.1562L1.65583 24.8008L22.2227 4.23394L22.5781 4.58559L22.2246 4.23204L22.2236 4.23295C22.5707 3.88249 23.0138 3.64251 23.4971 3.54328ZM24.5674 4.60371C24.2921 4.49117 23.9896 4.46302 23.6982 4.52284C23.408 4.58243 23.1419 4.72664 22.9336 4.93724L22.9317 4.93915L2.36103 25.5098L2.35912 25.5117C2.14852 25.72 2.00431 25.9861 1.94472 26.2763C1.88489 26.5677 1.91304 26.8702 2.02558 27.1456C2.13812 27.4209 2.32998 27.6565 2.57676 27.8226C2.82355 27.9886 3.11412 28.0775 3.41156 28.078L23.9999 28.078C24.3977 28.078 24.7792 27.92 25.0606 27.6387C25.3419 27.3574 25.4999 26.9758 25.4999 26.578L25.4999 5.99166L25.4999 5.99052C25.4994 5.69308 25.4105 5.40167 25.2445 5.15489C25.0784 4.9081 24.8428 4.71625 24.5674 4.60371ZM24.1903 5.52988C24.3777 5.60704 24.4999 5.7896 24.4999 5.99219L24.4999 26.578C24.4999 26.8542 24.276 27.078 23.9999 27.078H3.41411C3.21188 27.078 3.02956 26.9562 2.95217 26.7694C2.87478 26.5825 2.91755 26.3675 3.06055 26.2245L23.6396 5.64545L23.6409 5.64407L23.645 5.64002C23.7877 5.49621 24.003 5.45272 24.1903 5.52988ZM23.4999 7.19934L4.62121 26.078H23.4999L23.4999 7.19934Z" fill="white"/>
</svg>
