<svg width="32" height="33" viewBox="0 0 32 33" fill="none" xmlns="http://www.w3.org/2000/svg">
<path d="M23.5978 4.03306C23.9863 3.95329 24.3897 3.99083 24.7568 4.14088C25.1239 4.29093 25.4381 4.54674 25.6595 4.87579C25.8808 5.20483 25.9994 5.59226 26 5.98885V20.528C26 21.0803 25.5523 21.528 25 21.528C24.4478 21.528 24 21.0803 24 20.528L24.0001 5.99219L23.9947 5.99765L17.6322 12.3601C17.2416 12.7506 16.6085 12.7506 16.2179 12.3601C15.8274 11.9696 15.8274 11.3364 16.2179 10.9459L22.5782 4.58568C22.856 4.30483 23.2108 4.11253 23.5978 4.03306Z" fill="white"/>
<path fill-rule="evenodd" clip-rule="evenodd" d="M5.32733 4.83819C5.73599 4.46669 6.36844 4.4968 6.73995 4.90546L14.7568 13.724C14.774 13.739 14.7907 13.7546 14.807 13.7709C14.8465 13.8104 14.882 13.8525 14.9136 13.8964L26.7399 26.9055C27.1115 27.3141 27.0813 27.9466 26.6727 28.3181C26.4771 28.4959 26.2303 28.5817 25.9853 28.578L3.41072 28.578C3.01414 28.5774 2.62671 28.4588 2.29766 28.2374C1.96861 28.0161 1.71281 27.7019 1.56275 27.3348C1.4127 26.9677 1.37517 26.5642 1.45493 26.1758C1.5344 25.7887 1.72671 25.434 2.00756 25.1562L12.7138 14.4499L5.26007 6.25081C4.88856 5.84215 4.91868 5.2097 5.32733 4.83819ZM14.0607 15.9315L3.41411 26.578H23.7394L14.0607 15.9315Z" fill="white"/>
<path fill-rule="evenodd" clip-rule="evenodd" d="M24.5676 4.60371C24.2923 4.49117 23.9897 4.46302 23.6984 4.52284C23.4081 4.58244 23.142 4.72667 22.9336 4.9373L22.9317 4.93923L16.5715 11.2995C16.3762 11.4947 16.3762 11.8113 16.5715 12.0066C16.7668 12.2018 17.0833 12.2018 17.2786 12.0066L23.6384 5.64685L23.6411 5.64409L23.6438 5.64139C23.7861 5.49678 24.0018 5.45258 24.1896 5.52951C24.3774 5.60644 24.5001 5.78925 24.5001 5.99219L24.5 20.528C24.5 20.8042 24.7239 21.028 25 21.028C25.2762 21.028 25.5 20.8042 25.5 20.528V5.98968C25.4996 5.69225 25.4106 5.40167 25.2446 5.15489C25.0786 4.9081 24.8429 4.71625 24.5676 4.60371ZM23.5001 7.19937L23.5 20.528C23.5 21.3564 24.1716 22.028 25 22.028C25.8285 22.028 26.5 21.3564 26.5 20.528V5.98885C26.4992 5.49312 26.351 5.00799 26.0743 4.59669C25.7976 4.18538 25.4048 3.86562 24.946 3.67805C24.4871 3.49048 23.9828 3.44357 23.4972 3.54328C23.0139 3.64251 22.5708 3.88252 22.2237 4.23301L22.2227 4.23405L15.8644 10.5924C15.2786 11.1781 15.2786 12.1279 15.8644 12.7137C16.4502 13.2995 17.3999 13.2995 17.9857 12.7137L23.5001 7.19937ZM6.36998 5.2418C6.18422 5.03747 5.868 5.02241 5.66367 5.20816C5.45934 5.39392 5.44428 5.71014 5.63004 5.91447L13.0838 14.1136C13.2633 14.3111 13.2561 14.6147 13.0674 14.8035L2.36111 25.5097L2.35918 25.5116C2.14855 25.72 2.00432 25.9861 1.94472 26.2763C1.88489 26.5677 1.91304 26.8703 2.02558 27.1456C2.13812 27.4209 2.32998 27.6566 2.57676 27.8226C2.82355 27.9886 3.11412 28.0775 3.41156 28.078L25.9928 28.078C26.1158 28.0799 26.2384 28.0372 26.3363 27.9481C26.5407 27.7624 26.5557 27.4461 26.37 27.2418L14.5436 14.2328C14.5306 14.2185 14.5184 14.2034 14.5071 14.1877C14.4915 14.1658 14.4736 14.1446 14.4534 14.1245C14.4451 14.1161 14.4366 14.1082 14.428 14.1007C14.4135 14.088 14.3998 14.0746 14.3869 14.0604L6.36998 5.2418ZM4.991 4.46822C5.60398 3.91096 6.55266 3.95614 7.10992 4.56912L15.1093 13.3685C15.1267 13.3843 15.1438 13.4006 15.1606 13.4174C15.2117 13.4686 15.2586 13.5227 15.3011 13.5794L27.1099 26.5691C27.6672 27.1821 27.622 28.1308 27.009 28.688C26.7169 28.9536 26.3474 29.0825 25.9819 29.078L3.41072 29.078C2.91499 29.0772 2.42986 28.929 2.01856 28.6523C1.60725 28.3756 1.2875 27.9828 1.09993 27.524C0.912358 27.0651 0.865446 26.5608 0.965152 26.0752C1.06438 25.5919 1.30438 25.1489 1.65485 24.8018L1.65593 24.8007L12.0231 14.4335L4.8901 6.58714C4.33284 5.97415 4.37801 5.02548 4.991 4.46822ZM14.0726 15.4316C14.2093 15.4349 14.3387 15.494 14.4306 15.5951L24.1093 26.2417C24.2425 26.3881 24.2767 26.5993 24.1966 26.7803C24.1166 26.9613 23.9373 27.078 23.7394 27.078H3.41411C3.21188 27.078 3.02956 26.9562 2.95217 26.7694C2.87478 26.5825 2.91755 26.3675 3.06055 26.2245L13.7071 15.5779C13.8038 15.4812 13.9359 15.4284 14.0726 15.4316ZM4.62121 26.078H22.6091L14.0434 16.6558L4.62121 26.078Z" fill="white"/>
</svg>
