<svg width="32" height="33" viewBox="0 0 32 33" fill="none" xmlns="http://www.w3.org/2000/svg">
<path d="M28.707 12.871C29.0975 13.2615 29.0975 13.8947 28.707 14.2852L26.4141 16.5781L28.707 18.871C29.0975 19.2615 29.0975 19.8947 28.707 20.2852C28.3165 20.6758 27.6833 20.6758 27.2928 20.2852L24.9999 17.9923L22.707 20.2852C22.3165 20.6758 21.6833 20.6758 21.2928 20.2852C20.9022 19.8947 20.9022 19.2615 21.2928 18.871L23.5857 16.5781L21.2928 14.2852C20.9022 13.8947 20.9022 13.2615 21.2928 12.871C21.6833 12.4805 22.3165 12.4805 22.707 12.871L24.9999 15.1639L27.2928 12.871C27.6833 12.4805 28.3165 12.4805 28.707 12.871Z" fill="white"/>
<path fill-rule="evenodd" clip-rule="evenodd" d="M22.3534 13.2246C22.1582 13.0293 21.8416 13.0293 21.6463 13.2246C21.4511 13.4198 21.4511 13.7364 21.6463 13.9317L23.9392 16.2246C24.1345 16.4198 24.1345 16.7364 23.9392 16.9317L21.6463 19.2246C21.4511 19.4198 21.4511 19.7364 21.6463 19.9317C21.8416 20.1269 22.1582 20.1269 22.3534 19.9317L24.6463 17.6388C24.8416 17.4435 25.1582 17.4435 25.3534 17.6388L27.6463 19.9317C27.8416 20.1269 28.1582 20.1269 28.3534 19.9317C28.5487 19.7364 28.5487 19.4198 28.3534 19.2246L26.0605 16.9317C25.8653 16.7364 25.8653 16.4198 26.0605 16.2246L28.3534 13.9317C28.5487 13.7364 28.5487 13.4198 28.3534 13.2246C28.1582 13.0293 27.8416 13.0293 27.6463 13.2246L25.3534 15.5175C25.1582 15.7127 24.8416 15.7127 24.6463 15.5175L22.3534 13.2246ZM20.9392 12.5175C21.525 11.9317 22.4748 11.9317 23.0605 12.5175L24.9999 14.4568L26.9392 12.5175C27.525 11.9317 28.4748 11.9317 29.0605 12.5175C29.6463 13.1033 29.6463 14.053 29.0605 14.6388L27.1212 16.5781L29.0605 18.5175C29.6463 19.1033 29.6463 20.053 29.0605 20.6388C28.4748 21.2246 27.525 21.2246 26.9392 20.6388L24.9999 18.6994L23.0605 20.6388C22.4748 21.2246 21.525 21.2246 20.9392 20.6388C20.3534 20.053 20.3534 19.1033 20.9392 18.5175L22.8786 16.5781L20.9392 14.6388C20.3534 14.053 20.3534 13.1033 20.9392 12.5175Z" fill="white"/>
<path d="M24.9458 3.67805C24.4869 3.49048 23.9827 3.44357 23.4971 3.54328C23.0138 3.64251 22.5698 3.88349 22.2227 4.23394L1.65392 24.8027C1.30346 25.1498 1.06438 25.5919 0.965152 26.0752C0.865446 26.5608 0.912359 27.0651 1.09993 27.5239C1.2875 27.9828 1.60725 28.3756 2.01856 28.6523C2.42987 28.929 2.91442 29.0772 3.41015 29.078L23.9999 29.078C24.6629 29.078 25.2988 28.8146 25.7677 28.3458C26.2365 27.8769 26.4999 27.2411 26.4999 26.578V22.2405C26.4999 21.4121 25.8283 20.7405 24.9999 20.7405C24.1715 20.7405 23.4999 21.4121 23.4999 22.2405V26.078H4.62122L23.4999 7.19938L23.4999 10.9155C23.4999 11.7439 24.1715 12.4155 24.9999 12.4155C25.8283 12.4155 26.4999 11.7439 26.4999 10.9155L26.4999 5.99052C26.4991 5.49479 26.3509 5.00799 26.0742 4.59668C25.7974 4.18538 25.4047 3.86562 24.9458 3.67805Z" fill="white"/>
</svg>
