<svg width="32" height="32" viewBox="0 0 32 32" fill="none" xmlns="http://www.w3.org/2000/svg">
<path d="M12.2433 13.831C11.8738 13.4205 11.2416 13.3873 10.831 13.7567C10.4205 14.1262 10.3873 14.7585 10.7567 15.169L15.2567 20.169C15.4464 20.3797 15.7165 20.5 16 20.5C16.2835 20.5 16.5537 20.3797 16.7433 20.169L21.2433 15.169C21.6128 14.7585 21.5795 14.1262 21.169 13.7567C20.7585 13.3873 20.1262 13.4205 19.7567 13.831L16 18.0052L12.2433 13.831Z" fill="white"/>
<path fill-rule="evenodd" clip-rule="evenodd" d="M16 3C8.8203 3 3 8.8203 3 16C3 23.1797 8.8203 29 16 29C23.1797 29 29 23.1797 29 16C29 8.8203 23.1797 3 16 3ZM5 16C5 9.92487 9.92487 5 16 5C22.0751 5 27 9.92487 27 16C27 22.0751 22.0751 27 16 27C9.92487 27 5 22.0751 5 16Z" fill="white"/>
<path fill-rule="evenodd" clip-rule="evenodd" d="M2.5 16C2.5 8.54416 8.54416 2.5 16 2.5C23.4558 2.5 29.5 8.54416 29.5 16C29.5 23.4558 23.4558 29.5 16 29.5C8.54416 29.5 2.5 23.4558 2.5 16ZM16 3.5C9.09644 3.5 3.5 9.09644 3.5 16C3.5 22.9036 9.09644 28.5 16 28.5C22.9036 28.5 28.5 22.9036 28.5 16C28.5 9.09644 22.9036 3.5 16 3.5ZM16 5.5C10.201 5.5 5.5 10.201 5.5 16C5.5 21.799 10.201 26.5 16 26.5C21.799 26.5 26.5 21.799 26.5 16C26.5 10.201 21.799 5.5 16 5.5ZM4.5 16C4.5 9.64873 9.64873 4.5 16 4.5C22.3513 4.5 27.5 9.64873 27.5 16C27.5 22.3513 22.3513 27.5 16 27.5C9.64873 27.5 4.5 22.3513 4.5 16ZM10.4966 13.3851C11.1123 12.8309 12.0608 12.8808 12.615 13.4966L16 17.2577L19.3851 13.4966C19.9393 12.8808 20.8877 12.8309 21.5035 13.3851C22.1192 13.9393 22.1691 14.8877 21.6149 15.5035L17.115 20.5035C16.8305 20.8195 16.4252 21 16 21C15.5748 21 15.1695 20.8195 14.8851 20.5035L10.3851 15.5035C9.83088 14.8877 9.8808 13.9393 10.4966 13.3851ZM11.8717 14.1655C11.6869 13.9603 11.3708 13.9436 11.1655 14.1284C10.9603 14.3131 10.9436 14.6292 11.1284 14.8345L15.6284 19.8345C15.7232 19.9398 15.8583 20 16 20C16.1418 20 16.2768 19.9398 16.3717 19.8345L20.8717 14.8345C21.0564 14.6292 21.0397 14.3131 20.8345 14.1284C20.6292 13.9436 20.3131 13.9603 20.1284 14.1655L16.3717 18.3396C16.2768 18.445 16.1418 18.5052 16 18.5052C15.8583 18.5052 15.7232 18.445 15.6284 18.3396L11.8717 14.1655Z" fill="white"/>
</svg>
