<svg width="32" height="33" viewBox="0 0 32 33" fill="none" xmlns="http://www.w3.org/2000/svg">
<path fill-rule="evenodd" clip-rule="evenodd" d="M18.0537 3.24856C17.0592 1.81624 14.9409 1.81623 13.9465 3.24856L9.89042 9.0907L3.0808 11.1429C1.41129 11.6461 0.756697 13.6607 1.81162 15.0491L6.11443 20.712L5.96194 27.8225C5.92456 29.5658 7.63831 30.8109 9.28471 30.2366L16.0001 27.8943L22.7155 30.2366C24.3619 30.8109 26.0756 29.5658 26.0382 27.8225L25.8857 20.712L30.1885 15.0491C31.2435 13.6607 30.5889 11.6461 28.9194 11.1429L22.1097 9.0907L18.0537 3.24856ZM16.0001 5.55104L12.2553 10.9449C11.9332 11.4087 11.4637 11.7498 10.9231 11.9128L4.63601 13.8075L8.60863 19.0359C8.95024 19.4854 9.12959 20.0374 9.11748 20.6019L8.9767 27.1668L15.1767 25.0043C15.7099 24.8183 16.2903 24.8183 16.8234 25.0043L23.0235 27.1668L22.8827 20.6019C22.8706 20.0374 23.0499 19.4854 23.3915 19.0359L27.3642 13.8075L21.0771 11.9128C20.5365 11.7498 20.0669 11.4087 19.7449 10.9449L16.0001 5.55104Z" fill="white"/>
</svg>
