<svg width="32" height="33" viewBox="0 0 32 33" fill="none" xmlns="http://www.w3.org/2000/svg">
<path fill-rule="evenodd" clip-rule="evenodd" d="M18.0498 3.24807C17.0553 1.81575 14.937 1.81575 13.9426 3.24807L9.88651 9.09022L3.0769 11.1425C1.40739 11.6456 0.752791 13.6602 1.80771 15.0486L6.11053 20.7115L5.95804 27.822C5.92065 29.5653 7.6344 30.8104 9.28081 30.2361L15.9962 27.8938L22.7115 30.2361C24.3579 30.8104 26.0717 29.5653 26.0343 27.822L25.8818 20.7115L30.1846 15.0486C31.2396 13.6602 30.585 11.6456 28.9155 11.1425L22.1058 9.09022L18.0498 3.24807ZM15.9962 5.55055L12.2514 10.9444C11.9293 11.4082 11.4598 11.7494 10.9192 11.9123L4.6321 13.807L8.60472 19.0354C8.94633 19.4849 9.12568 20.0369 9.11358 20.6015L8.97279 27.1663L15.1728 25.0038C15.706 24.8178 16.2864 24.8178 16.8195 25.0038L23.0196 27.1663L22.8788 20.6015C22.8667 20.0369 23.046 19.485 23.3876 19.0354L27.3603 13.807L21.0732 11.9123C20.5326 11.7494 20.063 11.4082 19.741 10.9444L15.9962 5.55055Z" fill="white"/>
<path d="M12.2514 10.9444L15.9962 5.55055L19.741 10.9444C20.063 11.4082 20.5326 11.7494 21.0732 11.9123L27.3603 13.807L23.3876 19.0354C23.046 19.485 22.8667 20.0369 22.8788 20.6015L23.0196 27.1663L16.8195 25.0038C16.2864 24.8178 15.706 24.8178 15.1728 25.0038L8.97279 27.1663L9.11358 20.6015C9.12568 20.0369 8.94633 19.4849 8.60472 19.0354L4.6321 13.807L10.9192 11.9123C11.4598 11.7494 11.9293 11.4082 12.2514 10.9444Z" fill="white"/>
</svg>
