<svg width="32" height="32" viewBox="0 0 32 32" fill="none" xmlns="http://www.w3.org/2000/svg">
<path d="M21 6C21 5.44772 20.5523 5 20 5C19.4477 5 19 5.44772 19 6V12C19 12.5523 19.4477 13 20 13H26C26.5523 13 27 12.5523 27 12C27 11.4477 26.5523 11 26 11H21V6Z" fill="white"/>
<path d="M6 19C5.44772 19 5 19.4477 5 20C5 20.5523 5.44772 21 6 21H11V26C11 26.5523 11.4477 27 12 27C12.5523 27 13 26.5523 13 26V20C13 19.4477 12.5523 19 12 19H6Z" fill="white"/>
<path d="M19 20C19 19.4477 19.4477 19 20 19H26C26.5523 19 27 19.4477 27 20C27 20.5523 26.5523 21 26 21H21V26C21 26.5523 20.5523 27 20 27C19.4477 27 19 26.5523 19 26V20Z" fill="white"/>
<path d="M13 6C13 5.44772 12.5523 5 12 5C11.4477 5 11 5.44772 11 6V11H6C5.44772 11 5 11.4477 5 12C5 12.5523 5.44772 13 6 13H12C12.5523 13 13 12.5523 13 12V6Z" fill="white"/>
<path fill-rule="evenodd" clip-rule="evenodd" d="M10.5 6C10.5 5.17157 11.1716 4.5 12 4.5C12.8284 4.5 13.5 5.17157 13.5 6V12C13.5 12.8284 12.8284 13.5 12 13.5H6C5.17157 13.5 4.5 12.8284 4.5 12C4.5 11.1716 5.17157 10.5 6 10.5H10.5V6ZM12 5.5C11.7239 5.5 11.5 5.72386 11.5 6V11C11.5 11.2761 11.2761 11.5 11 11.5H6C5.72386 11.5 5.5 11.7239 5.5 12C5.5 12.2761 5.72386 12.5 6 12.5H12C12.2761 12.5 12.5 12.2761 12.5 12V6C12.5 5.72386 12.2761 5.5 12 5.5ZM18.5 6C18.5 5.17157 19.1716 4.5 20 4.5C20.8284 4.5 21.5 5.17157 21.5 6V10.5H26C26.8284 10.5 27.5 11.1716 27.5 12C27.5 12.8284 26.8284 13.5 26 13.5H20C19.1716 13.5 18.5 12.8284 18.5 12V6ZM20 5.5C19.7239 5.5 19.5 5.72386 19.5 6V12C19.5 12.2761 19.7239 12.5 20 12.5H26C26.2761 12.5 26.5 12.2761 26.5 12C26.5 11.7239 26.2761 11.5 26 11.5H21C20.7239 11.5 20.5 11.2761 20.5 11V6C20.5 5.72386 20.2761 5.5 20 5.5ZM4.5 20C4.5 19.1716 5.17157 18.5 6 18.5H12C12.8284 18.5 13.5 19.1716 13.5 20V26C13.5 26.8284 12.8284 27.5 12 27.5C11.1716 27.5 10.5 26.8284 10.5 26V21.5H6C5.17157 21.5 4.5 20.8284 4.5 20ZM6 19.5C5.72386 19.5 5.5 19.7239 5.5 20C5.5 20.2761 5.72386 20.5 6 20.5H11C11.2761 20.5 11.5 20.7239 11.5 21V26C11.5 26.2761 11.7239 26.5 12 26.5C12.2761 26.5 12.5 26.2761 12.5 26V20C12.5 19.7239 12.2761 19.5 12 19.5H6ZM20 19.5C19.7239 19.5 19.5 19.7239 19.5 20V26C19.5 26.2761 19.7239 26.5 20 26.5C20.2761 26.5 20.5 26.2761 20.5 26V21C20.5 20.7239 20.7239 20.5 21 20.5H26C26.2761 20.5 26.5 20.2761 26.5 20C26.5 19.7239 26.2761 19.5 26 19.5H20ZM18.5 20C18.5 19.1716 19.1716 18.5 20 18.5H26C26.8284 18.5 27.5 19.1716 27.5 20C27.5 20.8284 26.8284 21.5 26 21.5H21.5V26C21.5 26.8284 20.8284 27.5 20 27.5C19.1716 27.5 18.5 26.8284 18.5 26V20Z" fill="white"/>
</svg>
