<svg width="32" height="32" viewBox="0 0 32 32" fill="none" xmlns="http://www.w3.org/2000/svg">
<path d="M21 5C20.4477 5 20 5.44772 20 6C20 6.55228 20.4477 7 21 7H25V11C25 11.5523 25.4477 12 26 12C26.5523 12 27 11.5523 27 11V6C27 5.44772 26.5523 5 26 5H21Z" fill="white"/>
<path d="M7 21C7 20.4477 6.55228 20 6 20C5.44772 20 5 20.4477 5 21V26C5 26.5523 5.44772 27 6 27H11C11.5523 27 12 26.5523 12 26C12 25.4477 11.5523 25 11 25H7V21Z" fill="white"/>
<path d="M26 20C26.5523 20 27 20.4477 27 21V26C27 26.5523 26.5523 27 26 27H21C20.4477 27 20 26.5523 20 26C20 25.4477 20.4477 25 21 25H25V21C25 20.4477 25.4477 20 26 20Z" fill="white"/>
<path d="M6 5C5.44772 5 5 5.44772 5 6V11C5 11.5523 5.44772 12 6 12C6.55228 12 7 11.5523 7 11V7H11C11.5523 7 12 6.55228 12 6C12 5.44772 11.5523 5 11 5H6Z" fill="white"/>
<path fill-rule="evenodd" clip-rule="evenodd" d="M4.5 6C4.5 5.17157 5.17157 4.5 6 4.5H11C11.8284 4.5 12.5 5.17157 12.5 6C12.5 6.82843 11.8284 7.5 11 7.5H7.5V11C7.5 11.8284 6.82843 12.5 6 12.5C5.17157 12.5 4.5 11.8284 4.5 11V6ZM6 5.5C5.72386 5.5 5.5 5.72386 5.5 6V11C5.5 11.2761 5.72386 11.5 6 11.5C6.27614 11.5 6.5 11.2761 6.5 11V7C6.5 6.72386 6.72386 6.5 7 6.5H11C11.2761 6.5 11.5 6.27614 11.5 6C11.5 5.72386 11.2761 5.5 11 5.5H6ZM19.5 6C19.5 5.17157 20.1716 4.5 21 4.5H26C26.8284 4.5 27.5 5.17157 27.5 6V11C27.5 11.8284 26.8284 12.5 26 12.5C25.1716 12.5 24.5 11.8284 24.5 11V7.5H21C20.1716 7.5 19.5 6.82843 19.5 6ZM21 5.5C20.7239 5.5 20.5 5.72386 20.5 6C20.5 6.27614 20.7239 6.5 21 6.5H25C25.2761 6.5 25.5 6.72386 25.5 7V11C25.5 11.2761 25.7239 11.5 26 11.5C26.2761 11.5 26.5 11.2761 26.5 11V6C26.5 5.72386 26.2761 5.5 26 5.5H21ZM4.5 21C4.5 20.1716 5.17157 19.5 6 19.5C6.82843 19.5 7.5 20.1716 7.5 21V24.5H11C11.8284 24.5 12.5 25.1716 12.5 26C12.5 26.8284 11.8284 27.5 11 27.5H6C5.17157 27.5 4.5 26.8284 4.5 26V21ZM6 20.5C5.72386 20.5 5.5 20.7239 5.5 21V26C5.5 26.2761 5.72386 26.5 6 26.5H11C11.2761 26.5 11.5 26.2761 11.5 26C11.5 25.7239 11.2761 25.5 11 25.5H7C6.72386 25.5 6.5 25.2761 6.5 25V21C6.5 20.7239 6.27614 20.5 6 20.5ZM26 20.5C25.7239 20.5 25.5 20.7239 25.5 21V25C25.5 25.2761 25.2761 25.5 25 25.5H21C20.7239 25.5 20.5 25.7239 20.5 26C20.5 26.2761 20.7239 26.5 21 26.5H26C26.2761 26.5 26.5 26.2761 26.5 26V21C26.5 20.7239 26.2761 20.5 26 20.5ZM24.5 21C24.5 20.1716 25.1716 19.5 26 19.5C26.8284 19.5 27.5 20.1716 27.5 21V26C27.5 26.8284 26.8284 27.5 26 27.5H21C20.1716 27.5 19.5 26.8284 19.5 26C19.5 25.1716 20.1716 24.5 21 24.5H24.5V21Z" fill="white"/>
</svg>
