<svg width="32" height="32" viewBox="0 0 32 32" fill="none" xmlns="http://www.w3.org/2000/svg">
<path d="M16.7071 16.2929L20.7071 20.2929C21.0976 20.6834 21.0976 21.3166 20.7071 21.7071C20.3166 22.0976 19.6834 22.0976 19.2929 21.7071L16 18.4142L12.7071 21.7071C12.3166 22.0976 11.6834 22.0976 11.2929 21.7071C10.9024 21.3166 10.9024 20.6834 11.2929 20.2929L15.2929 16.2929C15.6834 15.9024 16.3166 15.9024 16.7071 16.2929Z" fill="white"/>
<path d="M16.7071 9.29289C16.3166 8.90237 15.6834 8.90237 15.2929 9.29289L11.2929 13.2929C10.9024 13.6834 10.9024 14.3166 11.2929 14.7071C11.6834 15.0976 12.3166 15.0976 12.7071 14.7071L16 11.4142L19.2929 14.7071C19.6834 15.0976 20.3166 15.0976 20.7071 14.7071C21.0976 14.3166 21.0976 13.6834 20.7071 13.2929L16.7071 9.29289Z" fill="white"/>
<path fill-rule="evenodd" clip-rule="evenodd" d="M3 16C3 8.8203 8.8203 3 16 3C23.1797 3 29 8.8203 29 16C29 23.1797 23.1797 29 16 29C8.8203 29 3 23.1797 3 16ZM16 5C9.92487 5 5 9.92487 5 16C5 22.0751 9.92487 27 16 27C22.0751 27 27 22.0751 27 16C27 9.92487 22.0751 5 16 5Z" fill="white"/>
<path fill-rule="evenodd" clip-rule="evenodd" d="M16 3.5C9.09644 3.5 3.5 9.09644 3.5 16C3.5 22.9036 9.09644 28.5 16 28.5C22.9036 28.5 28.5 22.9036 28.5 16C28.5 9.09644 22.9036 3.5 16 3.5ZM2.5 16C2.5 8.54416 8.54416 2.5 16 2.5C23.4558 2.5 29.5 8.54416 29.5 16C29.5 23.4558 23.4558 29.5 16 29.5C8.54416 29.5 2.5 23.4558 2.5 16ZM4.5 16C4.5 9.64873 9.64873 4.5 16 4.5C22.3513 4.5 27.5 9.64873 27.5 16C27.5 22.3513 22.3513 27.5 16 27.5C9.64873 27.5 4.5 22.3513 4.5 16ZM16 5.5C10.201 5.5 5.5 10.201 5.5 16C5.5 21.799 10.201 26.5 16 26.5C21.799 26.5 26.5 21.799 26.5 16C26.5 10.201 21.799 5.5 16 5.5ZM10.9393 12.9393L14.9393 8.93934C15.5251 8.35355 16.4749 8.35355 17.0607 8.93934L21.0607 12.9393C21.6464 13.5251 21.6464 14.4749 21.0607 15.0607C20.4749 15.6464 19.5251 15.6464 18.9393 15.0607L16 12.1213L13.0607 15.0607C12.4749 15.6464 11.5251 15.6464 10.9393 15.0607C10.3536 14.4749 10.3536 13.5251 10.9393 12.9393ZM15.6464 16.6464L11.6464 20.6464C11.4512 20.8417 11.4512 21.1583 11.6464 21.3536C11.8417 21.5488 12.1583 21.5488 12.3536 21.3536L15.6464 18.0607C15.7402 17.9669 15.8674 17.9142 16 17.9142C16.1326 17.9142 16.2598 17.9669 16.3536 18.0607L19.6464 21.3536C19.8417 21.5488 20.1583 21.5488 20.3536 21.3536C20.5488 21.1583 20.5488 20.8417 20.3536 20.6464L16.3536 16.6464C16.1583 16.4512 15.8417 16.4512 15.6464 16.6464ZM14.9393 15.9393C15.5251 15.3536 16.4749 15.3536 17.0607 15.9393L21.0607 19.9393C21.6464 20.5251 21.6464 21.4749 21.0607 22.0607C20.4749 22.6464 19.5251 22.6464 18.9393 22.0607L16 19.1213L13.0607 22.0607C12.4749 22.6464 11.5251 22.6464 10.9393 22.0607C10.3536 21.4749 10.3536 20.5251 10.9393 19.9393L14.9393 15.9393Z" fill="white"/>
</svg>
