<svg width="32" height="32" viewBox="0 0 32 32" fill="none" xmlns="http://www.w3.org/2000/svg">
<path d="M16.7433 12.331C16.5537 12.1203 16.2835 12 16 12C15.7165 12 15.4464 12.1203 15.2567 12.331L10.7567 17.331C10.3873 17.7415 10.4205 18.3738 10.831 18.7433C11.2416 19.1128 11.8738 19.0795 12.2433 18.669L16 14.4948L19.7567 18.669C20.1262 19.0795 20.7585 19.1128 21.169 18.7433C21.5795 18.3738 21.6128 17.7415 21.2433 17.331L16.7433 12.331Z" fill="white"/>
<path fill-rule="evenodd" clip-rule="evenodd" d="M16 3C8.8203 3 3 8.8203 3 16C3 23.1797 8.8203 29 16 29C23.1797 29 29 23.1797 29 16C29 8.8203 23.1797 3 16 3ZM5 16C5 9.92487 9.92487 5 16 5C22.0751 5 27 9.92487 27 16C27 22.0751 22.0751 27 16 27C9.92487 27 5 22.0751 5 16Z" fill="white"/>
<path fill-rule="evenodd" clip-rule="evenodd" d="M2.5 16C2.5 8.54416 8.54416 2.5 16 2.5C23.4558 2.5 29.5 8.54416 29.5 16C29.5 23.4558 23.4558 29.5 16 29.5C8.54416 29.5 2.5 23.4558 2.5 16ZM16 3.5C9.09644 3.5 3.5 9.09644 3.5 16C3.5 22.9036 9.09644 28.5 16 28.5C22.9036 28.5 28.5 22.9036 28.5 16C28.5 9.09644 22.9036 3.5 16 3.5ZM16 5.5C10.201 5.5 5.5 10.201 5.5 16C5.5 21.799 10.201 26.5 16 26.5C21.799 26.5 26.5 21.799 26.5 16C26.5 10.201 21.799 5.5 16 5.5ZM4.5 16C4.5 9.64873 9.64873 4.5 16 4.5C22.3513 4.5 27.5 9.64873 27.5 16C27.5 22.3513 22.3513 27.5 16 27.5C9.64873 27.5 4.5 22.3513 4.5 16ZM14.8851 11.9966C15.1695 11.6805 15.5748 11.5 16 11.5C16.4252 11.5 16.8305 11.6805 17.115 11.9966L21.6149 16.9966C22.1691 17.6123 22.1192 18.5608 21.5035 19.1149C20.8877 19.6691 19.9393 19.6192 19.3851 19.0034L16 15.2423L12.6149 19.0034C12.0608 19.6192 11.1123 19.6691 10.4966 19.1149C9.8808 18.5608 9.83088 17.6123 10.3851 16.9966L14.8851 11.9966ZM16 12.5C15.8583 12.5 15.7232 12.5602 15.6284 12.6655L11.1284 17.6655C10.9436 17.8708 10.9603 18.1869 11.1655 18.3716C11.3708 18.5564 11.6869 18.5397 11.8717 18.3345L15.6284 14.1604C15.7232 14.055 15.8583 13.9948 16 13.9948C16.1418 13.9948 16.2768 14.055 16.3717 14.1604L20.1284 18.3345C20.3131 18.5397 20.6292 18.5564 20.8345 18.3716C21.0397 18.1869 21.0564 17.8708 20.8717 17.6655L16.3717 12.6655C16.2768 12.5602 16.1418 12.5 16 12.5Z" fill="white"/>
</svg>
