<svg width="32" height="32" viewBox="0 0 32 32" fill="none" xmlns="http://www.w3.org/2000/svg">
<path d="M20.7071 11.2929C21.0976 11.6834 21.0976 12.3166 20.7071 12.7071L17.4142 16L20.7071 19.2929C21.0976 19.6834 21.0976 20.3166 20.7071 20.7071C20.3166 21.0976 19.6834 21.0976 19.2929 20.7071L16 17.4142L12.7071 20.7071C12.3166 21.0976 11.6834 21.0976 11.2929 20.7071C10.9024 20.3166 10.9024 19.6834 11.2929 19.2929L14.5858 16L11.2929 12.7071C10.9024 12.3166 10.9024 11.6834 11.2929 11.2929C11.6834 10.9024 12.3166 10.9024 12.7071 11.2929L16 14.5858L19.2929 11.2929C19.6834 10.9024 20.3166 10.9024 20.7071 11.2929Z" fill="white"/>
<path fill-rule="evenodd" clip-rule="evenodd" d="M3 16C3 8.8203 8.8203 3 16 3C23.1797 3 29 8.8203 29 16C29 23.1797 23.1797 29 16 29C8.8203 29 3 23.1797 3 16ZM16 5C9.92487 5 5 9.92487 5 16C5 22.0751 9.92487 27 16 27C22.0751 27 27 22.0751 27 16C27 9.92487 22.0751 5 16 5Z" fill="white"/>
<path fill-rule="evenodd" clip-rule="evenodd" d="M16 3.5C9.09644 3.5 3.5 9.09644 3.5 16C3.5 22.9036 9.09644 28.5 16 28.5C22.9036 28.5 28.5 22.9036 28.5 16C28.5 9.09644 22.9036 3.5 16 3.5ZM2.5 16C2.5 8.54416 8.54416 2.5 16 2.5C23.4558 2.5 29.5 8.54416 29.5 16C29.5 23.4558 23.4558 29.5 16 29.5C8.54416 29.5 2.5 23.4558 2.5 16ZM4.5 16C4.5 9.64873 9.64873 4.5 16 4.5C22.3513 4.5 27.5 9.64873 27.5 16C27.5 22.3513 22.3513 27.5 16 27.5C9.64873 27.5 4.5 22.3513 4.5 16ZM16 5.5C10.201 5.5 5.5 10.201 5.5 16C5.5 21.799 10.201 26.5 16 26.5C21.799 26.5 26.5 21.799 26.5 16C26.5 10.201 21.799 5.5 16 5.5ZM12.3536 11.6464C12.1583 11.4512 11.8417 11.4512 11.6464 11.6464C11.4512 11.8417 11.4512 12.1583 11.6464 12.3536L14.9393 15.6464C15.1346 15.8417 15.1346 16.1583 14.9393 16.3536L11.6464 19.6464C11.4512 19.8417 11.4512 20.1583 11.6464 20.3536C11.8417 20.5488 12.1583 20.5488 12.3536 20.3536L15.6464 17.0607C15.7402 16.9669 15.8674 16.9142 16 16.9142C16.1326 16.9142 16.2598 16.9669 16.3536 17.0607L19.6464 20.3536C19.8417 20.5488 20.1583 20.5488 20.3536 20.3536C20.5488 20.1583 20.5488 19.8417 20.3536 19.6464L17.0607 16.3536C16.9669 16.2598 16.9142 16.1326 16.9142 16C16.9142 15.8674 16.9669 15.7402 17.0607 15.6464L20.3536 12.3536C20.5488 12.1583 20.5488 11.8417 20.3536 11.6464C20.1583 11.4512 19.8417 11.4512 19.6464 11.6464L16.3536 14.9393C16.1583 15.1346 15.8417 15.1346 15.6464 14.9393L12.3536 11.6464ZM10.9393 10.9393C11.5251 10.3536 12.4749 10.3536 13.0607 10.9393L16 13.8787L18.9393 10.9393C19.5251 10.3536 20.4749 10.3536 21.0607 10.9393C21.6464 11.5251 21.6464 12.4749 21.0607 13.0607L18.1213 16L21.0607 18.9393C21.6464 19.5251 21.6464 20.4749 21.0607 21.0607C20.4749 21.6464 19.5251 21.6464 18.9393 21.0607L16 18.1213L13.0607 21.0607C12.4749 21.6464 11.5251 21.6464 10.9393 21.0607C10.3536 20.4749 10.3536 19.5251 10.9393 18.9393L13.8787 16L10.9393 13.0607C10.3536 12.4749 10.3536 11.5251 10.9393 10.9393Z" fill="white"/>
</svg>
