<svg width="32" height="32" viewBox="0 0 32 32" fill="none" xmlns="http://www.w3.org/2000/svg">
<path fill-rule="evenodd" clip-rule="evenodd" d="M16 2.5C8.54416 2.5 2.5 8.54416 2.5 16C2.5 23.4558 8.54416 29.5 16 29.5C23.4558 29.5 29.5 23.4558 29.5 16C29.5 8.54416 23.4558 2.5 16 2.5ZM10.9393 10.9393C11.5251 10.3536 12.4749 10.3536 13.0607 10.9393L16 13.8787L18.9393 10.9393C19.5251 10.3536 20.4749 10.3536 21.0607 10.9393C21.6464 11.5251 21.6464 12.4749 21.0607 13.0607L18.1213 16L21.0607 18.9393C21.6464 19.5251 21.6464 20.4749 21.0607 21.0607C20.4749 21.6464 19.5251 21.6464 18.9393 21.0607L16 18.1213L13.0607 21.0607C12.4749 21.6464 11.5251 21.6464 10.9393 21.0607C10.3536 20.4749 10.3536 19.5251 10.9393 18.9393L13.8787 16L10.9393 13.0607C10.3536 12.4749 10.3536 11.5251 10.9393 10.9393Z" fill="white"/>
</svg>
