<svg width="32" height="33" viewBox="0 0 32 33" fill="none" xmlns="http://www.w3.org/2000/svg">
<path fill-rule="evenodd" clip-rule="evenodd" d="M15.4454 3.66795C15.7813 3.44402 16.2189 3.44402 16.5548 3.66795L28.5547 11.6679C28.8329 11.8534 29 12.1656 29 12.5V25.5C29 26.0304 28.7893 26.5391 28.4142 26.9142C28.0391 27.2893 27.5304 27.5 27 27.5H5.00015C4.46972 27.5 3.96102 27.2893 3.58594 26.9142C3.21087 26.5391 3.00016 26.0304 3.00016 25.5V12.5C3.00016 12.1656 3.16726 11.8534 3.44546 11.6679L15.4454 3.66795ZM5.00015 13.0352V25.5H27V13.0352L16.0001 5.70185L5.00015 13.0352Z" fill="white"/>
<path fill-rule="evenodd" clip-rule="evenodd" d="M3.18609 11.9193C3.50683 11.4697 4.13131 11.3653 4.58092 11.686L14.1327 18.5001H17.8675L27.4193 11.686C27.8689 11.3653 28.4934 11.4697 28.8141 11.9193C29.1348 12.3689 29.0304 12.9934 28.5808 13.3142L18.7683 20.3142C18.5988 20.4351 18.3958 20.5001 18.1876 20.5001H13.8126C13.6044 20.5001 13.4014 20.4351 13.2319 20.3142L3.41943 13.3142C2.96982 12.9934 2.86536 12.3689 3.18609 11.9193Z" fill="white"/>
<path fill-rule="evenodd" clip-rule="evenodd" d="M15.168 3.25192C15.6719 2.91603 16.3283 2.91603 16.8322 3.25192L28.8056 11.2342C28.9366 11.3175 29.0564 11.4225 29.1594 11.5481C29.1968 11.5937 29.2315 11.6414 29.2632 11.6909C29.427 11.9461 29.5039 12.2342 29.5001 12.5188V25.5C29.5001 26.163 29.2367 26.7989 28.7679 27.2678C28.299 27.7366 27.6631 28 27.0001 28H5.0001C4.33706 28 3.70118 27.7366 3.23233 27.2678C2.76349 26.7989 2.5001 26.163 2.5001 25.5V12.5162C2.49693 12.2414 2.569 11.9635 2.72179 11.7152C2.76179 11.65 2.80682 11.5878 2.85654 11.5293C2.95571 11.4122 3.06978 11.3137 3.19391 11.2347L15.168 3.25192ZM3.64375 12.1493C3.66754 12.1251 3.69395 12.1032 3.72275 12.084L3.7291 12.0797C3.89618 11.9721 4.11883 11.9706 4.29049 12.093L4.88054 12.514L4.72275 12.6192C4.58365 12.7119 4.5001 12.868 4.5001 13.0352V13.4709L3.70974 12.9071C3.57434 12.8105 3.50154 12.6588 3.5001 12.5043V12.5C3.5001 12.4157 3.52133 12.3343 3.56021 12.2623C3.56995 12.2443 3.5809 12.2268 3.59308 12.2097C3.60861 12.1879 3.62558 12.1678 3.64375 12.1493ZM3.5001 13.9859V25.5C3.5001 25.8978 3.65814 26.2794 3.93944 26.5607C4.22075 26.842 4.60228 27 5.0001 27H27.0001C27.3979 27 27.7795 26.842 28.0608 26.5607C28.3421 26.2794 28.5001 25.8978 28.5001 25.5V13.986L27.5001 14.6993V25.5C27.5001 25.7761 27.2762 26 27.0001 26H5.0001C4.72396 26 4.5001 25.7761 4.5001 25.5V14.6993L3.5001 13.9859ZM5.5001 15.4127V25H26.5001V15.4127L19.0587 20.7212C18.8045 20.9026 18.4999 21.0001 18.1876 21.0001H13.8126C13.5003 21.0001 13.1958 20.9026 12.9415 20.7212L5.5001 15.4127ZM27.5001 13.471L28.2905 12.9071C28.4251 12.8111 28.4978 12.6607 28.5001 12.5072V12.5C28.5001 12.4081 28.4749 12.3196 28.429 12.243C28.4222 12.2317 28.4149 12.2206 28.4072 12.2097C28.3954 12.1933 28.3829 12.1778 28.3696 12.1632C28.3425 12.1335 28.3117 12.1068 28.2775 12.084L28.2702 12.0792C28.1032 11.9721 27.8811 11.9708 27.7097 12.093L27.1197 12.514L27.2774 12.6192C27.4165 12.7119 27.5001 12.868 27.5001 13.0352V13.471ZM26.2296 11.9206L27.1005 11.2993L16.2774 4.08397C16.1095 3.97201 15.8907 3.97201 15.7228 4.08397L4.89976 11.2993L5.77064 11.9206L15.7227 5.28583C15.8907 5.17386 16.1095 5.17386 16.2775 5.28583L26.2296 11.9206ZM5.75142 13.1352L13.8424 18.9071C13.9271 18.9676 14.0286 19.0001 14.1327 19.0001H17.8675C17.9716 19.0001 18.0731 18.9676 18.1579 18.9071L26.2488 13.1352L26.5001 13.3028V14.1843L18.478 19.9071C18.3932 19.9676 18.2917 20.0001 18.1876 20.0001H13.8126C13.7085 20.0001 13.607 19.9676 13.5222 19.9071L5.5001 14.1843V13.3028L5.75142 13.1352ZM6.64152 12.5418L16.0001 6.30278L25.3587 12.5418L17.7074 18.0001H14.2928L6.64152 12.5418Z" fill="white"/>
</svg>
