<svg width="32" height="33" viewBox="0 0 32 33" fill="none" xmlns="http://www.w3.org/2000/svg">
<path fill-rule="evenodd" clip-rule="evenodd" d="M12.0326 3.86117C13.3127 3.33666 14.684 3.07059 16.0673 3.07829L16.0694 3.0783C21.8706 3.12225 26.4715 7.93178 26.4715 13.6908V14.5783C26.4715 18.8408 27.3629 21.1708 28.0321 22.3267L28.0329 22.3281C28.252 22.7075 28.3676 23.138 28.368 23.5761C28.3683 24.0142 28.2536 24.4447 28.0352 24.8244C27.8168 25.2042 27.5025 25.52 27.1237 25.74C26.7448 25.9601 26.3148 26.0767 25.8768 26.0783L25.8723 26.0783H21.4737C21.3573 27.3535 20.7984 28.5543 19.8855 29.4672C18.8541 30.4987 17.4552 31.0781 15.9965 31.0781C14.5378 31.0781 13.1388 30.4987 12.1074 29.4672C11.1945 28.5543 10.6356 27.3535 10.5192 26.0783H6.12148L6.11714 26.0783C5.67905 26.0767 5.24811 25.9601 4.86928 25.74C4.49046 25.52 4.17611 25.2042 3.95773 24.8244C3.73936 24.4447 3.62461 24.0142 3.625 23.5761C3.62539 23.138 3.74089 22.7077 3.95994 22.3283L3.96407 22.3212C4.6329 21.1634 5.52148 18.834 5.52148 14.5781V13.5781L5.52149 13.5746C5.52029 12.1931 5.79207 10.8251 6.32118 9.54894C6.85091 8.27127 7.62814 7.11101 8.60811 6.13495C9.58835 5.15878 10.7525 4.38568 12.0326 3.86117ZM9.09243 10.6979C9.4707 9.78556 10.0257 8.95706 10.7256 8.26013C11.4254 7.5632 12.2562 7.01165 13.1701 6.63718C14.0835 6.2629 15.0619 6.07295 16.0491 6.07823C20.1478 6.11008 23.4715 9.52585 23.4715 13.6908V14.5783C23.4715 18.6333 24.2075 21.3281 25.0411 23.0783L6.95189 23.0783C7.78549 21.3281 8.52148 18.6332 8.52148 14.5781V13.5833L8.52149 13.576C8.5201 12.5884 8.71415 11.6103 9.09243 10.6979ZM13.547 26.0783C13.6443 26.5549 13.8795 26.9967 14.2287 27.3459C14.6975 27.8147 15.3334 28.0781 15.9965 28.0781C16.6595 28.0781 17.2954 27.8147 17.7642 27.3459C18.1134 26.9967 18.3486 26.5549 18.4459 26.0783H13.547Z" fill="white"/>
<path fill-rule="evenodd" clip-rule="evenodd" d="M9.09243 10.6979C9.4707 9.78556 10.0257 8.95706 10.7256 8.26013C11.4254 7.5632 12.2562 7.01165 13.1701 6.63718C14.0835 6.2629 15.0619 6.07295 16.0491 6.07823C20.1478 6.11008 23.4715 9.52585 23.4715 13.6908V14.5783C23.4715 18.6333 24.2075 21.3281 25.0411 23.0783L6.95189 23.0783C7.78549 21.3281 8.52148 18.6332 8.52148 14.5781V13.5833L8.52149 13.576C8.5201 12.5884 8.71415 11.6103 9.09243 10.6979ZM12 12.5781C12 11.7497 12.6716 11.0781 13.5 11.0781H18.5C19.082 11.0781 19.6115 11.4148 19.8584 11.9419C20.1053 12.469 20.0249 13.0913 19.6523 13.5384L16.7026 17.0781H18.5C19.3284 17.0781 20 17.7497 20 18.5781C20 19.4066 19.3284 20.0781 18.5 20.0781H13.5C12.918 20.0781 12.3885 19.7414 12.1416 19.2144C11.8948 18.6873 11.9751 18.065 12.3477 17.6178L15.2975 14.0781H13.5C12.6716 14.0781 12 13.4066 12 12.5781Z" fill="white"/>
</svg>
