<svg width="32" height="33" viewBox="0 0 32 33" fill="none" xmlns="http://www.w3.org/2000/svg">
<path fill-rule="evenodd" clip-rule="evenodd" d="M6 5.42188C5.46957 5.42188 4.96086 5.63259 4.58579 6.00766C4.21071 6.38273 4 6.89144 4 7.42188V14.7594C4 25.9454 13.4971 29.6475 15.3594 30.2666C15.7736 30.415 16.2264 30.415 16.6406 30.2666C18.5029 29.6475 28 25.9454 28 14.7594V7.42188C28 6.89144 27.7893 6.38274 27.4142 6.00766C27.0391 5.63259 26.5304 5.42188 26 5.42188H6ZM6 7.42188L26 7.42188V14.7594C26 16.9699 25.5775 18.8473 24.9035 20.4359L16.5736 14.6027C16.2293 14.3616 15.7708 14.3616 15.4264 14.6027L7.09651 20.4359C6.42252 18.8474 6 16.9699 6 14.7594L6 7.42188ZM8.02716 22.2258C10.5933 26.34 14.8224 27.9819 16 28.372C17.1776 27.9819 21.4067 26.34 23.9729 22.2258L16 16.6427L8.02716 22.2258Z" fill="white"/>
<path fill-rule="evenodd" clip-rule="evenodd" d="M4.23223 5.65411C4.70107 5.18527 5.33696 4.92188 6 4.92188H26C26.663 4.92188 27.2989 5.18527 27.7678 5.65411C28.2366 6.12295 28.5 6.75884 28.5 7.42188V14.7594C28.5 26.2919 18.7046 30.1064 16.8034 30.7394C16.2837 30.924 15.7163 30.924 15.1966 30.7394C13.2954 30.1064 3.5 26.2919 3.5 14.7594V7.42188C3.5 6.75883 3.76339 6.12295 4.23223 5.65411ZM6 5.92188C5.60217 5.92188 5.22064 6.07991 4.93934 6.36122C4.65804 6.64252 4.5 7.02405 4.5 7.42188V14.7594C4.5 25.5886 13.6811 29.1818 15.5171 29.7922L15.528 29.7958C15.8332 29.9051 16.1668 29.9052 16.472 29.7959L16.4828 29.792C18.3188 29.1816 27.5 25.5886 27.5 14.7594V7.42188C27.5 7.02405 27.342 6.64252 27.0607 6.36122C26.7794 6.07991 26.3978 5.92188 26 5.92188H6ZM6.5 7.92188L6.5 14.7594C6.5 16.6398 6.81478 18.2634 7.32848 19.6631L15.1396 14.1932C15.6562 13.8314 16.3439 13.8314 16.8605 14.1932L24.6715 19.663C25.1852 18.2634 25.5 16.6397 25.5 14.7594V7.92188L6.5 7.92188ZM6 6.92188L26 6.92188C26.1326 6.92188 26.2598 6.97455 26.3536 7.06832C26.4473 7.16209 26.5 7.28927 26.5 7.42188V14.7594C26.5 17.0355 26.0646 18.9795 25.3638 20.6312C25.3049 20.7701 25.1864 20.8749 25.0414 20.9165C24.8963 20.9581 24.7403 20.932 24.6167 20.8455L16.2868 15.0123C16.1146 14.8917 15.8854 14.8917 15.7132 15.0123L7.38331 20.8455C7.25973 20.932 7.10368 20.9581 6.95866 20.9166C6.81363 20.875 6.69515 20.7701 6.63622 20.6312C5.93545 18.9795 5.5 17.0355 5.5 14.7594L5.5 7.42188C5.5 7.14573 5.72386 6.92188 6 6.92188ZM15.7132 16.2331C15.8854 16.1125 16.1146 16.1125 16.2868 16.2331L24.2597 21.8162C24.4774 21.9687 24.5378 22.2649 24.3971 22.4904C21.7373 26.7546 17.3705 28.4448 16.1572 28.8466C16.0551 28.8804 15.9449 28.8804 15.8428 28.8466C14.6295 28.4448 10.2627 26.7546 7.60292 22.4905C7.46225 22.2649 7.52262 21.9688 7.74036 21.8163L15.7132 16.2331ZM8.70966 22.3583C11.0924 25.8746 14.7253 27.399 16 27.8438C17.2748 27.399 20.9076 25.8745 23.2904 22.3583L16 17.2531L8.70966 22.3583Z" fill="white"/>
</svg>
