<svg width="32" height="33" viewBox="0 0 32 33" fill="none" xmlns="http://www.w3.org/2000/svg">
<path fill-rule="evenodd" clip-rule="evenodd" d="M4.58579 6.00766C4.96086 5.63259 5.46957 5.42188 6 5.42188H26C26.5304 5.42188 27.0391 5.63259 27.4142 6.00766C27.7893 6.38274 28 6.89144 28 7.42188V14.7594C28 25.9454 18.5029 29.6475 16.6406 30.2666C16.2264 30.415 15.7736 30.415 15.3594 30.2666C13.4971 29.6475 4 25.9454 4 14.7594V7.42188C4 6.89144 4.21071 6.38273 4.58579 6.00766ZM26 7.42188L6 7.42188L6 14.7594C6 24.542 14.2747 27.8006 16 28.372C17.7253 27.8006 26 24.542 26 14.7594V7.42188Z" fill="white"/>
<path fill-rule="evenodd" clip-rule="evenodd" d="M6 5.92188C5.60217 5.92188 5.22064 6.07991 4.93934 6.36122C4.65804 6.64252 4.5 7.02405 4.5 7.42188V14.7594C4.5 25.5886 13.6811 29.1818 15.5171 29.7922L15.528 29.7958C15.8332 29.9051 16.1668 29.9052 16.472 29.7959L16.4828 29.792C18.3188 29.1816 27.5 25.5886 27.5 14.7594V7.42188C27.5 7.02405 27.342 6.64252 27.0607 6.36122C26.7794 6.07991 26.3978 5.92188 26 5.92188H6ZM4.23223 5.65411C4.70107 5.18527 5.33696 4.92188 6 4.92188H26C26.663 4.92188 27.2989 5.18527 27.7678 5.65411C28.2366 6.12295 28.5 6.75884 28.5 7.42188V14.7594C28.5 26.2919 18.7046 30.1064 16.8034 30.7394C16.2837 30.924 15.7163 30.924 15.1966 30.7394C13.2954 30.1064 3.5 26.2919 3.5 14.7594V7.42188C3.5 6.75883 3.76339 6.12295 4.23223 5.65411ZM6 6.92188L26 6.92188C26.1326 6.92188 26.2598 6.97455 26.3536 7.06832C26.4473 7.16209 26.5 7.28927 26.5 7.42188V14.7594C26.5 24.8982 17.9107 28.2659 16.1572 28.8466C16.0551 28.8804 15.9449 28.8804 15.8428 28.8466C14.0893 28.2659 5.5 24.8982 5.5 14.7594L5.5 7.42188C5.5 7.14573 5.72386 6.92188 6 6.92188ZM6.5 7.92188L6.5 14.7594C6.5 23.9216 14.02 27.1537 16 27.8438C17.98 27.1537 25.5 23.9216 25.5 14.7594V7.92188L6.5 7.92188Z" fill="white"/>
</svg>
