<svg width="32" height="33" viewBox="0 0 32 33" fill="none" xmlns="http://www.w3.org/2000/svg">
<path fill-rule="evenodd" clip-rule="evenodd" d="M4.58579 6.00766C4.96086 5.63259 5.46957 5.42188 6 5.42188H26C26.5304 5.42188 27.0391 5.63259 27.4142 6.00766C27.7893 6.38274 28 6.89144 28 7.42188V14.7594C28 15.3448 27.974 15.9097 27.9244 16.4548C27.9231 16.4969 27.9191 16.5383 27.9127 16.5789C26.9545 26.3526 18.398 29.6824 16.6406 30.2666C16.2264 30.415 15.7736 30.415 15.3594 30.2666C13.6021 29.6824 5.04647 26.353 4.08747 16.5805C4.08083 16.5389 4.07676 16.4963 4.07543 16.4531C4.02596 15.9086 4 15.3442 4 14.7594V7.42188C4 6.89144 4.21071 6.38273 4.58579 6.00766ZM15 7.42188H6L6 14.7594C6 14.9836 6.00435 15.2044 6.01287 15.4219H15V7.42188ZM17 15.4219V7.42188H26V14.7594C26 14.9836 25.9957 15.2044 25.9871 15.4219H17ZM15 17.4219H6.21943C7.34699 24.0112 12.532 26.9504 15 27.9928V17.4219ZM17 27.9928V17.4219H25.7806C24.653 24.0112 19.468 26.9504 17 27.9928Z" fill="white"/>
<path fill-rule="evenodd" clip-rule="evenodd" d="M6 5.92188C5.60217 5.92188 5.22064 6.07991 4.93934 6.36122C4.65804 6.64252 4.5 7.02405 4.5 7.42188V14.7594C4.5 15.3294 4.5253 15.8787 4.57338 16.4079C4.57428 16.4178 4.57489 16.4278 4.57519 16.4378C4.57587 16.4597 4.57792 16.4811 4.58123 16.5018C4.58282 16.5118 4.5841 16.5217 4.58508 16.5317C5.5124 25.9814 13.786 29.2166 15.5171 29.7922L15.528 29.7958C15.8332 29.9051 16.1668 29.9052 16.472 29.7959L16.4828 29.792C18.2141 29.2165 26.4885 25.981 27.4151 16.5301C27.4154 16.5273 27.4156 16.5245 27.416 16.5217C27.4168 16.5148 27.4177 16.5079 27.4188 16.501C27.422 16.4808 27.424 16.46 27.4247 16.4386C27.425 16.4289 27.4256 16.4192 27.4265 16.4095C27.4746 15.8798 27.5 15.33 27.5 14.7594V7.42188C27.5 7.02405 27.342 6.64252 27.0607 6.36122C26.7794 6.07991 26.3978 5.92188 26 5.92188H6ZM4.23223 5.65411C4.70107 5.18527 5.33696 4.92188 6 4.92188H26C26.663 4.92188 27.2989 5.18527 27.7678 5.65411C28.2366 6.12295 28.5 6.75884 28.5 7.42188V14.7594C28.5 15.3548 28.4738 15.9304 28.4236 16.4867C28.4214 16.5387 28.4165 16.5902 28.409 16.6409C27.4137 26.7175 18.5983 30.1418 16.8035 30.7394C16.2838 30.924 15.7162 30.924 15.1965 30.7394C13.4018 30.1418 4.58751 26.718 3.5912 16.643C3.58349 16.591 3.57847 16.5382 3.57626 16.4848C3.52619 15.9292 3.5 15.3542 3.5 14.7594V7.42188C3.5 6.75883 3.76339 6.12295 4.23223 5.65411ZM16.5 7.42188C16.5 7.14573 16.7239 6.92188 17 6.92188H26C26.2761 6.92188 26.5 7.14573 26.5 7.42188V14.7594C26.5 14.9901 26.4955 15.2174 26.4868 15.4414C26.4762 15.7098 26.2557 15.9219 25.9871 15.9219H17C16.7239 15.9219 16.5 15.698 16.5 15.4219V7.42188ZM17.5 7.92188V14.9219H25.4992C25.4997 14.8679 25.5 14.8138 25.5 14.7594V7.92188H17.5ZM5.5 7.42188C5.5 7.14573 5.72386 6.92188 6 6.92188H15C15.2761 6.92188 15.5 7.14573 15.5 7.42188V15.4219C15.5 15.698 15.2761 15.9219 15 15.9219H6.01287C5.74434 15.9219 5.52376 15.7098 5.51325 15.4414C5.50447 15.2174 5.5 14.9901 5.5 14.7594L5.5 7.42188ZM6.5 7.92188L6.5 14.7594C6.5 14.8138 6.50026 14.8679 6.50079 14.9219H14.5V7.92188H6.5ZM5.83722 17.0995C5.93222 16.9869 6.07207 16.9219 6.21943 16.9219H15C15.2761 16.9219 15.5 17.1457 15.5 17.4219V27.9928C15.5 28.1604 15.416 28.3169 15.2763 28.4095C15.1367 28.5021 14.9599 28.5186 14.8055 28.4534C12.2833 27.3881 6.89772 24.3501 5.72659 17.5062C5.70173 17.361 5.74221 17.2122 5.83722 17.0995ZM6.82525 17.9219C7.989 23.3085 12.0196 26.0266 14.5 27.2187V17.9219H6.82525ZM16.5 17.4219C16.5 17.1457 16.7239 16.9219 17 16.9219H25.7806C25.9279 16.9219 26.0678 16.9869 26.1628 17.0995C26.2578 17.2122 26.2983 17.361 26.2734 17.5062C25.1023 24.3501 19.7167 27.3881 17.1945 28.4534C17.0401 28.5186 16.8633 28.5021 16.7237 28.4095C16.584 28.3169 16.5 28.1604 16.5 27.9928V17.4219ZM17.5 17.9219V27.2187C19.9804 26.0266 24.011 23.3085 25.1747 17.9219H17.5Z" fill="white"/>
</svg>
