<svg width="32" height="33" viewBox="0 0 32 33" fill="none" xmlns="http://www.w3.org/2000/svg">
<path fill-rule="evenodd" clip-rule="evenodd" d="M2.68737 11.0956C2.5604 11.3996 2.49592 11.733 2.49512 12.0578L2.49512 21.1838C2.49593 21.5118 2.5617 21.8324 2.68742 22.1334C2.81314 22.4344 2.99682 22.7077 3.22799 22.9377L9.67968 29.3901C9.9084 29.6177 10.1773 29.8018 10.4829 29.9275C10.7843 30.0532 11.1075 30.1184 11.4341 30.1192L11.4356 30.1192L20.563 30.1144C20.8901 30.1136 21.2148 30.0482 21.5166 29.9222C21.8102 29.7995 22.0865 29.6252 22.3226 29.3877L28.7724 22.9379C29.0555 22.6547 29.2512 22.2782 29.3137 22.1254C29.3851 21.9515 29.4395 21.7683 29.4717 21.579C29.4939 21.4481 29.5056 21.3143 29.5053 21.1783L29.5002 12.0506C29.4994 11.7309 29.4418 11.4036 29.3131 11.0953C29.1874 10.7945 29.0034 10.5209 28.7724 10.2909L22.3217 3.83962L22.3208 3.83873C22.0889 3.60801 21.8138 3.42529 21.5113 3.30102C21.2095 3.17708 20.8863 3.11371 20.5601 3.11452L11.4341 3.10986C11.107 3.11067 10.7833 3.17598 10.4814 3.30206C10.1832 3.42664 9.90354 3.60999 9.67071 3.84428L3.22747 10.2918C2.99652 10.5217 2.813 10.7949 2.68737 11.0956ZM11.7939 5.96332L5.34784 12.4127L5.34727 20.8151L11.645 27.115L20.3472 27.1204L26.6472 20.8232L26.6531 12.4136L20.2126 5.96792L11.7939 5.96332Z" fill="white"/>
</svg>
