<svg width="32" height="33" viewBox="0 0 32 33" fill="none" xmlns="http://www.w3.org/2000/svg">
<path fill-rule="evenodd" clip-rule="evenodd" d="M2.68444 11.0951C2.55747 11.3991 2.49299 11.7326 2.49219 12.0573L2.49219 21.1833C2.493 21.5113 2.55877 21.832 2.68449 22.1329C2.81021 22.4339 2.99389 22.7072 3.22506 22.9372L9.67675 29.3897C9.90547 29.6172 10.1744 29.8013 10.4799 29.9271C10.7814 30.0528 11.1046 30.1179 11.4312 30.1187L11.4327 30.1187L20.56 30.1139C20.8871 30.1131 21.2118 30.0477 21.5137 29.9217C21.8073 29.799 22.0836 29.6247 22.3196 29.3872L28.7694 22.9374C29.0526 22.6542 29.2483 22.2777 29.3108 22.1249C29.3822 21.951 29.4365 21.7678 29.4688 21.5785C29.491 21.4476 29.5027 21.3138 29.5023 21.1778L29.4973 12.0501C29.4965 11.7304 29.4389 11.4031 29.3101 11.0948C29.1845 10.794 29.0004 10.5204 28.7694 10.2904L22.3187 3.83913L22.3179 3.83825C22.086 3.60752 21.8109 3.4248 21.5083 3.30053C21.2066 3.17659 20.8834 3.11322 20.5571 3.11403L11.4311 3.10938C11.104 3.11018 10.7803 3.1755 10.4785 3.30157C10.1803 3.42615 9.90061 3.6095 9.66778 3.84379L3.22454 10.2913C2.99359 10.5213 2.81007 10.7944 2.68444 11.0951ZM11.791 5.96283L5.34491 12.4122L5.34434 20.8146L11.6421 27.1145L20.3443 27.1199L26.6443 20.8227L26.6502 12.4131L20.2096 5.96743L11.791 5.96283Z" fill="white"/>
<path d="M5.34491 12.4122L11.791 5.96283L20.2096 5.96743L26.6502 12.4131L26.6443 20.8227L20.3443 27.1199L11.6421 27.1145L5.34434 20.8146L5.34491 12.4122Z" fill="white"/>
</svg>
