<svg width="32" height="33" viewBox="0 0 32 33" fill="none" xmlns="http://www.w3.org/2000/svg">
<path fill-rule="evenodd" clip-rule="evenodd" d="M21.7558 7.75106C20.01 7.4038 18.2004 7.58203 16.5559 8.26321C14.9113 8.9444 13.5057 10.098 12.5168 11.578C11.5278 13.058 11 14.7981 11 16.5781C11 17.1304 10.5523 17.5781 10 17.5781C9.44772 17.5781 9 17.1304 9 16.5781C9 15.5629 9.14048 14.5584 9.41314 13.5918C9.27584 13.5826 9.13818 13.5781 9.00038 13.5781C7.40908 13.5781 5.88258 14.2103 4.75736 15.3355C3.63214 16.4607 3 17.9868 3 19.5781C3 21.1694 3.63214 22.6956 4.75736 23.8208C5.88258 24.946 7.4087 25.5781 9 25.5781H20C21.78 25.5781 23.5201 25.0503 25.0001 24.0614C26.4802 23.0724 27.6337 21.6668 28.3149 20.0223C28.9961 18.3777 29.1743 16.5681 28.8271 14.8223C28.4798 13.0765 27.6226 11.4728 26.364 10.2142C25.1053 8.9555 23.5016 8.09833 21.7558 7.75106ZM10.1605 11.6604C10.3656 11.2499 10.597 10.8512 10.8538 10.4669C12.0625 8.65792 13.7805 7.24802 15.7905 6.41546C17.8005 5.58289 20.0122 5.36505 22.146 5.78949C24.2798 6.21393 26.2398 7.26158 27.7782 8.79996C29.3166 10.3383 30.3642 12.2983 30.7886 14.4321C31.2131 16.5659 30.9952 18.7777 30.1627 20.7876C29.3301 22.7976 27.9202 24.5156 26.1113 25.7243C24.3023 26.933 22.1756 27.5781 20 27.5781H9C6.87827 27.5781 4.84344 26.7353 3.34315 25.235C1.84285 23.7347 1 21.6999 1 19.5781C1 17.4564 1.84285 15.4216 3.34315 13.9213C4.84335 12.4211 6.87803 11.5782 8.99962 11.5781M10.1605 11.6604C9.77644 11.6055 9.38826 11.578 8.99962 11.5781L10.1605 11.6604Z" fill="white"/>
<path d="M24.7071 15.7852C25.0976 15.3947 25.0976 14.7615 24.7071 14.371C24.3166 13.9805 23.6834 13.9805 23.2929 14.371L18 19.6639L15.7071 17.371C15.3166 16.9805 14.6834 16.9805 14.2929 17.371C13.9024 17.7615 13.9024 18.3947 14.2929 18.7852L17.2929 21.7852C17.6834 22.1758 18.3166 22.1758 18.7071 21.7852L24.7071 15.7852Z" fill="white"/>
<path fill-rule="evenodd" clip-rule="evenodd" d="M22.2435 5.2991C20.0128 4.85537 17.7005 5.08311 15.5991 5.95352C13.4978 6.82392 11.7017 8.29791 10.4381 10.1891C10.2357 10.492 10.0484 10.8034 9.87661 11.1222L8.99946 11.0781C6.74531 11.0783 4.58352 11.9738 2.98959 13.5677C1.39553 15.1618 0.5 17.3238 0.5 19.5781C0.5 21.8325 1.39553 23.9945 2.98959 25.5885C4.58365 27.1826 6.74566 28.0781 9 28.0781H20C22.2745 28.0781 24.4979 27.4037 26.3891 26.14C28.2802 24.8764 29.7542 23.0803 30.6246 20.979C31.495 18.8776 31.7228 16.5654 31.279 14.3346C30.8353 12.1038 29.74 10.0547 28.1317 8.4464C26.5234 6.8381 24.4743 5.74283 22.2435 5.2991ZM10.1605 11.6604C10.3656 11.2499 10.597 10.8512 10.8538 10.4669C12.0625 8.65792 13.7805 7.24802 15.7905 6.41546C17.8005 5.58289 20.0122 5.36505 22.146 5.78949C24.2798 6.21393 26.2398 7.26158 27.7782 8.79996C29.3166 10.3383 30.3642 12.2983 30.7886 14.4321C31.2131 16.5659 30.9952 18.7777 30.1627 20.7876C29.3301 22.7976 27.9202 24.5156 26.1113 25.7243C24.3023 26.933 22.1756 27.5781 20 27.5781H9C6.87827 27.5781 4.84344 26.7353 3.34315 25.235C1.84285 23.7347 1 21.6999 1 19.5781C1 17.4564 1.84285 15.4216 3.34315 13.9213C4.84335 12.4211 6.87803 11.5782 8.99962 11.5781C9.38826 11.578 9.77644 11.6055 10.1605 11.6604Z" fill="white"/>
<path fill-rule="evenodd" clip-rule="evenodd" d="M16.5559 8.26321C18.2004 7.58203 20.01 7.4038 21.7558 7.75106C23.5016 8.09833 25.1053 8.9555 26.364 10.2142C27.6226 11.4728 28.4798 13.0765 28.8271 14.8223C29.1743 16.5681 28.9961 18.3777 28.3149 20.0223C27.6337 21.6668 26.4802 23.0724 25.0001 24.0614C23.5201 25.0503 21.78 25.5781 20 25.5781H9C7.4087 25.5781 5.88258 24.946 4.75736 23.8208C3.63214 22.6956 3 21.1694 3 19.5781C3 17.9868 3.63214 16.4607 4.75736 15.3355C5.88258 14.2103 7.40908 13.5781 9.00038 13.5781C9.13818 13.5781 9.27584 13.5826 9.41314 13.5918C9.14048 14.5584 9 15.5629 9 16.5781C9 17.1304 9.44772 17.5781 10 17.5781C10.5523 17.5781 11 17.1304 11 16.5781C11 14.7981 11.5278 13.058 12.5168 11.578C13.5057 10.098 14.9113 8.9444 16.5559 8.26321ZM21.6583 8.24146C20.0094 7.91348 18.3004 8.08181 16.7472 8.72515C15.194 9.3685 13.8665 10.458 12.9325 11.8558C11.9985 13.2536 11.5 14.897 11.5 16.5781C11.5 17.4066 10.8284 18.0781 10 18.0781C9.17157 18.0781 8.5 17.4066 8.5 16.5781C8.5 15.7345 8.59278 14.898 8.77399 14.0828C7.39753 14.1394 6.08886 14.7111 5.11091 15.689C4.07946 16.7205 3.5 18.1194 3.5 19.5781C3.5 21.0368 4.07946 22.4358 5.11091 23.4672C6.14236 24.4987 7.54131 25.0781 9 25.0781H20C21.6811 25.0781 23.3245 24.5796 24.7223 23.6456C26.1202 22.7116 27.2096 21.3841 27.853 19.8309C28.4963 18.2778 28.6646 16.5687 28.3367 14.9199C28.0087 13.271 27.1992 11.7565 26.0104 10.5677C24.8217 9.37898 23.3071 8.56943 21.6583 8.24146Z" fill="white"/>
<path fill-rule="evenodd" clip-rule="evenodd" d="M25.0607 14.0175C24.4749 13.4317 23.5251 13.4317 22.9393 14.0175L18 18.9568L16.0607 17.0175C15.4749 16.4317 14.5251 16.4317 13.9393 17.0175C13.3536 17.6033 13.3536 18.553 13.9393 19.1388L16.9393 22.1388C17.5251 22.7246 18.4749 22.7246 19.0607 22.1388L25.0607 16.1388C25.6464 15.553 25.6464 14.6033 25.0607 14.0175ZM24.7071 14.371C25.0976 14.7615 25.0976 15.3947 24.7071 15.7852L18.7071 21.7852C18.3166 22.1758 17.6834 22.1758 17.2929 21.7852L14.2929 18.7852C13.9024 18.3947 13.9024 17.7615 14.2929 17.371C14.6834 16.9805 15.3166 16.9805 15.7071 17.371L18 19.6639L23.2929 14.371C23.6834 13.9805 24.3166 13.9805 24.7071 14.371Z" fill="white"/>
</svg>
