<svg width="32" height="33" viewBox="0 0 32 33" fill="none" xmlns="http://www.w3.org/2000/svg">
<path fill-rule="evenodd" clip-rule="evenodd" d="M16 3.07812C8.54416 3.07812 2.5 9.12228 2.5 16.5781C2.5 24.034 8.54416 30.0781 16 30.0781C23.4558 30.0781 29.5 24.034 29.5 16.5781C29.5 9.12228 23.4558 3.07812 16 3.07812ZM16 6.07812C10.201 6.07812 5.5 10.7791 5.5 16.5781C5.5 22.3771 10.201 27.0781 16 27.0781C21.799 27.0781 26.5 22.3771 26.5 16.5781C26.5 10.7791 21.799 6.07812 16 6.07812ZM22.5853 12.5427C22.0135 11.9433 21.064 11.921 20.4646 12.4928L14.1634 18.5042L11.5363 15.9937C10.9374 15.4213 9.98791 15.4429 9.41556 16.0418C8.84321 16.6407 8.86475 17.5902 9.46367 18.1626L13.1262 21.6626C13.7056 22.2163 14.618 22.2167 15.1979 21.6635L22.5354 14.6635C23.1348 14.0916 23.1572 13.1421 22.5853 12.5427Z" fill="white"/>
</svg>
