<svg width="32" height="33" viewBox="0 0 32 33" fill="none" xmlns="http://www.w3.org/2000/svg">
<path d="M19.2071 11.7852C19.5976 11.3947 19.5976 10.7615 19.2071 10.371C18.8166 9.98049 18.1834 9.98049 17.7929 10.371L7.5 20.6639L2.70711 15.871C2.31658 15.4805 1.68342 15.4805 1.29289 15.871C0.902369 16.2615 0.902369 16.8947 1.29289 17.2852L6.79289 22.7852C7.18342 23.1758 7.81658 23.1758 8.20711 22.7852L19.2071 11.7852Z" fill="white"/>
<path d="M30.7071 11.7852C31.0976 11.3947 31.0976 10.7615 30.7071 10.371C30.3165 9.98049 29.6834 9.98049 29.2928 10.371L19 20.6639L16.7821 18.446C16.3915 18.0555 15.7584 18.0555 15.3678 18.446C14.9773 18.8365 14.9773 19.4697 15.3678 19.8602L18.2928 22.7852C18.6834 23.1758 19.3165 23.1758 19.7071 22.7852L30.7071 11.7852Z" fill="white"/>
<path fill-rule="evenodd" clip-rule="evenodd" d="M17.4393 10.0175C18.0251 9.43168 18.9749 9.43168 19.5607 10.0175C20.1464 10.6033 20.1464 11.553 19.5607 12.1388L8.56066 23.1388C7.97487 23.7246 7.02513 23.7246 6.43934 23.1388L0.93934 17.6388C0.353553 17.053 0.353553 16.1033 0.93934 15.5175C1.52513 14.9317 2.47487 14.9317 3.06066 15.5175L7.5 19.9568L17.4393 10.0175ZM18.8536 10.7246C18.6583 10.5293 18.3417 10.5293 18.1464 10.7246L7.85355 21.0175C7.65829 21.2127 7.34171 21.2127 7.14645 21.0175L2.35355 16.2246C2.15829 16.0293 1.84171 16.0293 1.64645 16.2246C1.45118 16.4198 1.45118 16.7364 1.64645 16.9317L7.14645 22.4317C7.34171 22.6269 7.65829 22.6269 7.85355 22.4317L18.8536 11.4317C19.0488 11.2364 19.0488 10.9198 18.8536 10.7246ZM28.9393 10.0175C29.5251 9.43168 30.4748 9.43168 31.0606 10.0175C31.6464 10.6033 31.6464 11.553 31.0606 12.1388L20.0606 23.1388C19.4748 23.7246 18.5251 23.7246 17.9393 23.1388L15.0143 20.2138C14.4285 19.628 14.4285 18.6783 15.0143 18.0925C15.6001 17.5067 16.5498 17.5067 17.1356 18.0925L19 19.9568L28.9393 10.0175ZM30.3535 10.7246C30.1582 10.5293 29.8417 10.5293 29.6464 10.7246L19.3535 21.0175C19.2597 21.1112 19.1326 21.1639 19 21.1639C18.8673 21.1639 18.7402 21.1112 18.6464 21.0175L16.4285 18.7996C16.2332 18.6043 15.9167 18.6043 15.7214 18.7996C15.5261 18.9948 15.5261 19.3114 15.7214 19.5067L18.6464 22.4317C18.8417 22.6269 19.1582 22.6269 19.3535 22.4317L30.3535 11.4317C30.5488 11.2364 30.5488 10.9198 30.3535 10.7246Z" fill="white"/>
</svg>
