<svg width="32" height="33" viewBox="0 0 32 33" fill="none" xmlns="http://www.w3.org/2000/svg">
<path d="M6.5 5.07812C5.96957 5.07812 5.46086 5.28884 5.08579 5.66391C4.71071 6.03898 4.5 6.54769 4.5 7.07812V18.4906C4.5 19.0429 4.94772 19.4906 5.5 19.4906C6.05228 19.4906 6.5 19.0429 6.5 18.4906L6.5 7.07813L25.5 7.07812V26.0781H16.95C16.3977 26.0781 15.95 26.5258 15.95 27.0781C15.95 27.6304 16.3977 28.0781 16.95 28.0781H25.5C26.0304 28.0781 26.5391 27.8674 26.9142 27.4923C27.2893 27.1173 27.5 26.6086 27.5 26.0781V7.07812C27.5 6.54769 27.2893 6.03899 26.9142 5.66391C26.5391 5.28884 26.0304 5.07812 25.5 5.07812H6.5Z" fill="white"/>
<path d="M16.7071 20.2852C17.0976 19.8947 17.0976 19.2615 16.7071 18.871C16.3166 18.4805 15.6834 18.4805 15.2929 18.871L8 26.1639L4.70711 22.871C4.31658 22.4805 3.68342 22.4805 3.29289 22.871C2.90237 23.2615 2.90237 23.8947 3.29289 24.2852L7.29289 28.2852C7.68342 28.6758 8.31658 28.6758 8.70711 28.2852L16.7071 20.2852Z" fill="white"/>
<path fill-rule="evenodd" clip-rule="evenodd" d="M4.73223 5.31036C5.20107 4.84152 5.83696 4.57812 6.5 4.57812H25.5C26.163 4.57812 26.7989 4.84152 27.2678 5.31036C27.7366 5.7792 28 6.41509 28 7.07812V26.0781C28 26.7412 27.7366 27.377 27.2678 27.8459C26.7989 28.3147 26.163 28.5781 25.5 28.5781H16.95C16.1216 28.5781 15.45 27.9066 15.45 27.0781C15.45 26.2497 16.1216 25.5781 16.95 25.5781H25V7.57812L7 7.57813V18.4906C7 19.3191 6.32843 19.9906 5.5 19.9906C4.67157 19.9906 4 19.3191 4 18.4906V7.07812C4 6.41508 4.26339 5.7792 4.73223 5.31036ZM6.5 5.57812C6.10217 5.57812 5.72064 5.73616 5.43934 6.01747C5.15804 6.29877 5 6.6803 5 7.07812V18.4906C5 18.7668 5.22386 18.9906 5.5 18.9906C5.77614 18.9906 6 18.7668 6 18.4906L6 7.07813C6 6.80198 6.22386 6.57813 6.5 6.57813L25.5 6.57812C25.6326 6.57812 25.7598 6.6308 25.8536 6.72457C25.9473 6.81834 26 6.94552 26 7.07812V26.0781C26 26.3543 25.7761 26.5781 25.5 26.5781H16.95C16.6739 26.5781 16.45 26.802 16.45 27.0781C16.45 27.3543 16.6739 27.5781 16.95 27.5781H25.5C25.8978 27.5781 26.2794 27.4201 26.5607 27.1388C26.842 26.8575 27 26.4759 27 26.0781V7.07812C27 6.6803 26.842 6.29877 26.5607 6.01747C26.2794 5.73616 25.8978 5.57812 25.5 5.57812H6.5ZM14.9393 18.5175C15.5251 17.9317 16.4749 17.9317 17.0607 18.5175C17.6464 19.1033 17.6464 20.053 17.0607 20.6388L9.06066 28.6388C8.47487 29.2246 7.52513 29.2246 6.93934 28.6388L2.93934 24.6388C2.35355 24.053 2.35355 23.1033 2.93934 22.5175C3.52513 21.9317 4.47487 21.9317 5.06066 22.5175L8 25.4568L14.9393 18.5175ZM16.3536 19.2246C16.1583 19.0293 15.8417 19.0293 15.6464 19.2246L8.35355 26.5175C8.25978 26.6112 8.13261 26.6639 8 26.6639C7.86739 26.6639 7.74021 26.6112 7.64645 26.5175L4.35355 23.2246C4.15829 23.0293 3.84171 23.0293 3.64645 23.2246C3.45118 23.4198 3.45118 23.7364 3.64645 23.9317L7.64645 27.9317C7.84171 28.1269 8.15829 28.1269 8.35355 27.9317L16.3536 19.9317C16.5488 19.7364 16.5488 19.4198 16.3536 19.2246Z" fill="white"/>
</svg>
