<svg width="32" height="33" viewBox="0 0 32 33" fill="none" xmlns="http://www.w3.org/2000/svg">
<path d="M22.1903 14.3017C22.5899 13.9205 22.6048 13.2875 22.2236 12.8879C21.8423 12.4882 21.2093 12.4733 20.8097 12.8546L14.1631 19.1955L11.1909 16.3552C10.7916 15.9736 10.1586 15.988 9.77704 16.3872C9.39547 16.7865 9.40983 17.4195 9.80912 17.8011L13.4716 21.3011C13.8579 21.6702 14.4662 21.6705 14.8528 21.3017L22.1903 14.3017Z" fill="white"/>
<path fill-rule="evenodd" clip-rule="evenodd" d="M6 4.57812C4.89543 4.57812 4 5.47356 4 6.57812V26.5781C4 27.6827 4.89543 28.5781 6 28.5781H26C27.1046 28.5781 28 27.6827 28 26.5781V6.57812C28 5.47356 27.1046 4.57812 26 4.57812H6ZM6 6.57812H26V26.5781H6V6.57812Z" fill="white"/>
<path fill-rule="evenodd" clip-rule="evenodd" d="M3.5 6.57812C3.5 5.19741 4.61929 4.07812 6 4.07812H26C27.3807 4.07812 28.5 5.19741 28.5 6.57812V26.5781C28.5 27.9588 27.3807 29.0781 26 29.0781H6C4.61929 29.0781 3.5 27.9588 3.5 26.5781V6.57812ZM6 5.07812C5.17157 5.07812 4.5 5.7497 4.5 6.57812V26.5781C4.5 27.4066 5.17157 28.0781 6 28.0781H26C26.8284 28.0781 27.5 27.4066 27.5 26.5781V6.57812C27.5 5.7497 26.8284 5.07812 26 5.07812H6ZM5.5 6.57812C5.5 6.30198 5.72386 6.07812 6 6.07812H26C26.2761 6.07812 26.5 6.30198 26.5 6.57812V26.5781C26.5 26.8543 26.2761 27.0781 26 27.0781H6C5.72386 27.0781 5.5 26.8543 5.5 26.5781V6.57812ZM6.5 7.07812V26.0781H25.5V7.07812H6.5ZM20.4646 12.4928C21.064 11.921 22.0135 11.9433 22.5853 12.5427C23.1572 13.1421 23.1348 14.0916 22.5354 14.6635L15.1979 21.6635C14.618 22.2167 13.7056 22.2163 13.1262 21.6626L9.46367 18.1626C8.86475 17.5902 8.84321 16.6407 9.41556 16.0418C9.98791 15.4429 10.9374 15.4213 11.5363 15.9937L14.1634 18.5042L20.4646 12.4928ZM21.8618 13.233C21.6712 13.0332 21.3547 13.0257 21.1549 13.2164L14.5082 19.5573C14.3149 19.7417 14.0108 19.7416 13.8176 19.557L10.8454 16.7166C10.6458 16.5259 10.3293 16.533 10.1385 16.7327C9.94774 16.9323 9.95492 17.2488 10.1546 17.4396L13.8171 20.9396C14.0102 21.1242 14.3143 21.1243 14.5076 20.9399L21.8451 13.9399C22.0449 13.7493 22.0524 13.4328 21.8618 13.233Z" fill="white"/>
</svg>
