<svg width="32" height="32" viewBox="0 0 32 32" fill="none" xmlns="http://www.w3.org/2000/svg">
<path d="M2.5 6C2.5 5.17157 3.17157 4.5 4 4.5C4.82843 4.5 5.5 5.17157 5.5 6V18.3787L10.9393 12.9393C11.5251 12.3536 12.4749 12.3536 13.0607 12.9393L16 15.8787L22.3787 9.5H21C20.1716 9.5 19.5 8.82843 19.5 8C19.5 7.17157 20.1716 6.5 21 6.5H25.9998C26.2036 6.5 26.3995 6.54093 26.5782 6.61562C26.7472 6.68624 26.906 6.78911 27.0442 6.92311C27.0553 6.93385 27.0662 6.94476 27.0769 6.95582C27.3383 7.22537 27.5 7.59432 27.5 8V13C27.5 13.8284 26.8284 14.5 26 14.5C25.1716 14.5 24.5 13.8284 24.5 13V11.6213L17.0607 19.0607C16.4749 19.6464 15.5251 19.6464 14.9393 19.0607L12 16.1213L5.5 22.6213V24.5H28C28.8284 24.5 29.5 25.1716 29.5 26C29.5 26.8284 28.8284 27.5 28 27.5H4C3.17157 27.5 2.5 26.8284 2.5 26V6Z" fill="white"/>
</svg>
