<svg width="32" height="32" viewBox="0 0 32 32" fill="none" xmlns="http://www.w3.org/2000/svg">
<path d="M16 3C16.5523 3 17 3.44772 17 4V8C17 8.55228 16.5523 9 16 9C15.4477 9 15 8.55228 15 8V4C15 3.44772 15.4477 3 16 3Z" fill="white"/>
<path d="M25.1947 6.80534C25.5852 7.19587 25.5852 7.82903 25.1947 8.21956L22.3697 11.0446C21.9792 11.4351 21.346 11.4351 20.9555 11.0446C20.565 10.654 20.565 10.0209 20.9555 9.63034L23.7805 6.80534C24.171 6.41482 24.8042 6.41482 25.1947 6.80534Z" fill="white"/>
<path d="M24 15C23.4477 15 23 15.4477 23 16C23 16.5523 23.4477 17 24 17H28C28.5523 17 29 16.5523 29 16C29 15.4477 28.5523 15 28 15H24Z" fill="white"/>
<path d="M20.9555 20.9555C21.346 20.565 21.9792 20.565 22.3697 20.9555L25.1947 23.7805C25.5852 24.171 25.5852 24.8042 25.1947 25.1947C24.8042 25.5852 24.171 25.5852 23.7805 25.1947L20.9555 22.3697C20.565 21.9792 20.565 21.346 20.9555 20.9555Z" fill="white"/>
<path d="M17 24C17 23.4477 16.5523 23 16 23C15.4477 23 15 23.4477 15 24V28C15 28.5523 15.4477 29 16 29C16.5523 29 17 28.5523 17 28V24Z" fill="white"/>
<path d="M11.0446 20.9555C11.4351 21.346 11.4351 21.9792 11.0446 22.3697L8.21956 25.1947C7.82903 25.5852 7.19587 25.5852 6.80534 25.1947C6.41482 24.8042 6.41482 24.171 6.80534 23.7805L9.63034 20.9555C10.0209 20.565 10.654 20.565 11.0446 20.9555Z" fill="white"/>
<path d="M4 15C3.44772 15 3 15.4477 3 16C3 16.5523 3.44772 17 4 17H8C8.55228 17 9 16.5523 9 16C9 15.4477 8.55228 15 8 15H4Z" fill="white"/>
<path d="M6.80534 6.80534C7.19587 6.41482 7.82903 6.41482 8.21956 6.80534L11.0446 9.63034C11.4351 10.0209 11.4351 10.654 11.0446 11.0446C10.654 11.4351 10.0209 11.4351 9.63034 11.0446L6.80534 8.21956C6.41482 7.82903 6.41482 7.19587 6.80534 6.80534Z" fill="white"/>
<path d="M20 16C20 18.2091 18.2091 20 16 20C13.7909 20 12 18.2091 12 16C12 13.7909 13.7909 12 16 12C18.2091 12 20 13.7909 20 16Z" fill="white"/>
<path fill-rule="evenodd" clip-rule="evenodd" d="M16 3.5C15.7239 3.5 15.5 3.72386 15.5 4V8C15.5 8.27614 15.7239 8.5 16 8.5C16.2761 8.5 16.5 8.27614 16.5 8V4C16.5 3.72386 16.2761 3.5 16 3.5ZM14.5 4C14.5 3.17157 15.1716 2.5 16 2.5C16.8284 2.5 17.5 3.17157 17.5 4V8C17.5 8.82843 16.8284 9.5 16 9.5C15.1716 9.5 14.5 8.82843 14.5 8V4ZM7.866 7.1589C7.67074 6.96364 7.35416 6.96364 7.1589 7.1589C6.96364 7.35416 6.96364 7.67074 7.1589 7.866L9.9839 10.691C10.1792 10.8863 10.4957 10.8863 10.691 10.691C10.8863 10.4957 10.8863 10.1792 10.691 9.9839L7.866 7.1589ZM6.45179 6.45179C7.03758 5.866 7.98733 5.866 8.57311 6.45179L11.3981 9.27679C11.9839 9.86258 11.9839 10.8123 11.3981 11.3981C10.8123 11.9839 9.86258 11.9839 9.27679 11.3981L6.45179 8.57311C5.866 7.98733 5.866 7.03758 6.45179 6.45179ZM24.8411 7.1589C24.6459 6.96364 24.3293 6.96364 24.134 7.1589L21.309 9.9839C21.1138 10.1792 21.1138 10.4957 21.309 10.691C21.5043 10.8863 21.8209 10.8863 22.0162 10.691L24.8411 7.866C25.0364 7.67074 25.0364 7.35416 24.8411 7.1589ZM23.4269 6.45179C24.0127 5.866 24.9625 5.866 25.5483 6.45179C26.134 7.03758 26.134 7.98733 25.5483 8.57311L22.7233 11.3981C22.1375 11.9839 21.1877 11.9839 20.6019 11.3981C20.0162 10.8123 20.0162 9.86258 20.6019 9.27679L23.4269 6.45179ZM16 12.5C14.067 12.5 12.5 14.067 12.5 16C12.5 17.933 14.067 19.5 16 19.5C17.933 19.5 19.5 17.933 19.5 16C19.5 14.067 17.933 12.5 16 12.5ZM11.5 16C11.5 13.5147 13.5147 11.5 16 11.5C18.4853 11.5 20.5 13.5147 20.5 16C20.5 18.4853 18.4853 20.5 16 20.5C13.5147 20.5 11.5 18.4853 11.5 16ZM2.5 16C2.5 15.1716 3.17157 14.5 4 14.5H8C8.82843 14.5 9.5 15.1716 9.5 16C9.5 16.8284 8.82843 17.5 8 17.5H4C3.17157 17.5 2.5 16.8284 2.5 16ZM4 15.5C3.72386 15.5 3.5 15.7239 3.5 16C3.5 16.2761 3.72386 16.5 4 16.5H8C8.27614 16.5 8.5 16.2761 8.5 16C8.5 15.7239 8.27614 15.5 8 15.5H4ZM22.5 16C22.5 15.1716 23.1716 14.5 24 14.5H28C28.8284 14.5 29.5 15.1716 29.5 16C29.5 16.8284 28.8284 17.5 28 17.5H24C23.1716 17.5 22.5 16.8284 22.5 16ZM24 15.5C23.7239 15.5 23.5 15.7239 23.5 16C23.5 16.2761 23.7239 16.5 24 16.5H28C28.2761 16.5 28.5 16.2761 28.5 16C28.5 15.7239 28.2761 15.5 28 15.5H24ZM10.691 21.309C10.4957 21.1138 10.1792 21.1138 9.9839 21.309L7.1589 24.134C6.96364 24.3293 6.96364 24.6459 7.1589 24.8411C7.35416 25.0364 7.67074 25.0364 7.866 24.8412L10.691 22.0162C10.8863 21.8209 10.8863 21.5043 10.691 21.309ZM9.27679 20.6019C9.86258 20.0162 10.8123 20.0162 11.3981 20.6019C11.9839 21.1877 11.9839 22.1375 11.3981 22.7233L8.57311 25.5483C7.98733 26.134 7.03758 26.134 6.45179 25.5483C5.866 24.9625 5.866 24.0127 6.45179 23.4269L9.27679 20.6019ZM22.0162 21.309C21.8209 21.1138 21.5043 21.1138 21.309 21.309C21.1138 21.5043 21.1138 21.8209 21.309 22.0162L24.134 24.8412C24.3293 25.0364 24.6459 25.0364 24.8412 24.8412C25.0364 24.6459 25.0364 24.3293 24.8412 24.134L22.0162 21.309ZM20.6019 20.6019C21.1877 20.0162 22.1375 20.0162 22.7233 20.6019L25.5483 23.4269C26.134 24.0127 26.134 24.9625 25.5483 25.5483C24.9625 26.134 24.0127 26.134 23.4269 25.5483L20.6019 22.7233C20.0162 22.1375 20.0162 21.1877 20.6019 20.6019ZM14.5 24C14.5 23.1716 15.1716 22.5 16 22.5C16.8284 22.5 17.5 23.1716 17.5 24V28C17.5 28.8284 16.8284 29.5 16 29.5C15.1716 29.5 14.5 28.8284 14.5 28V24ZM16 23.5C15.7239 23.5 15.5 23.7239 15.5 24V28C15.5 28.2761 15.7239 28.5 16 28.5C16.2761 28.5 16.5 28.2761 16.5 28V24C16.5 23.7239 16.2761 23.5 16 23.5Z" fill="white"/>
</svg>
