<svg width="33" height="33" viewBox="0 0 33 33" fill="none" xmlns="http://www.w3.org/2000/svg">
<path d="M16.4285 11.9493C16.6336 11.4365 16.3842 10.8545 15.8714 10.6494C15.3586 10.4443 14.7766 10.6937 14.5715 11.2065L12.5715 16.2065C12.4483 16.5146 12.4859 16.8638 12.6719 17.1385C12.858 17.4133 13.1682 17.5779 13.5 17.5779H16.023L14.5715 21.2065C14.3664 21.7193 14.6158 22.3013 15.1286 22.5064C15.6414 22.7115 16.2234 22.4621 16.4285 21.9493L18.4285 16.9493C18.5517 16.6412 18.5141 16.292 18.3281 16.0173C18.142 15.7425 17.8318 15.5779 17.5 15.5779H14.977L16.4285 11.9493Z" fill="white"/>
<path fill-rule="evenodd" clip-rule="evenodd" d="M25 6.57812C26.6569 6.57812 28 7.92127 28 9.57812V23.5781C28 25.235 26.6569 26.5781 25 26.5781H6C4.34315 26.5781 3 25.235 3 23.5781V9.57812C3 7.92127 4.34315 6.57812 6 6.57812H25ZM26 9.57812C26 9.02584 25.5523 8.57812 25 8.57812H6C5.44772 8.57812 5 9.02584 5 9.57812V23.5781C5 24.1304 5.44772 24.5781 6 24.5781H25C25.5523 24.5781 26 24.1304 26 23.5781V9.57812Z" fill="white"/>
<path d="M31 11.5781C31.5523 11.5781 32 12.0258 32 12.5781V20.5781C32 21.1304 31.5523 21.5781 31 21.5781C30.4477 21.5781 30 21.1304 30 20.5781V12.5781C30 12.0258 30.4477 11.5781 31 11.5781Z" fill="white"/>
<path fill-rule="evenodd" clip-rule="evenodd" d="M6 7.07812C4.61929 7.07812 3.5 8.19741 3.5 9.57812V23.5781C3.5 24.9588 4.61929 26.0781 6 26.0781H25C26.3807 26.0781 27.5 24.9588 27.5 23.5781V9.57812C27.5 8.19741 26.3807 7.07812 25 7.07812H6ZM2.5 9.57812C2.5 7.64513 4.067 6.07812 6 6.07812H25C26.933 6.07812 28.5 7.64513 28.5 9.57812V23.5781C28.5 25.5111 26.933 27.0781 25 27.0781H6C4.067 27.0781 2.5 25.5111 2.5 23.5781V9.57812ZM4.5 9.57812C4.5 8.7497 5.17157 8.07812 6 8.07812H25C25.8284 8.07812 26.5 8.7497 26.5 9.57812V23.5781C26.5 24.4066 25.8284 25.0781 25 25.0781H6C5.17157 25.0781 4.5 24.4066 4.5 23.5781V9.57812ZM6 9.07812C5.72386 9.07812 5.5 9.30198 5.5 9.57812V23.5781C5.5 23.8543 5.72386 24.0781 6 24.0781H25C25.2761 24.0781 25.5 23.8543 25.5 23.5781V9.57812C25.5 9.30198 25.2761 9.07812 25 9.07812H6ZM14.1073 11.0208C14.415 10.2516 15.2879 9.87752 16.0571 10.1852C16.8263 10.4929 17.2004 11.3658 16.8927 12.135L15.7156 15.0779H17.5C17.9977 15.0779 18.4631 15.3248 18.7421 15.737C19.0212 16.1491 19.0776 16.6729 18.8927 17.135L16.8927 22.135C16.585 22.9042 15.7121 23.2783 14.9429 22.9706C14.1737 22.6629 13.7996 21.79 14.1073 21.0208L15.2845 18.0779H13.5C13.0023 18.0779 12.5369 17.831 12.2579 17.4188C11.9789 17.0067 11.9224 16.483 12.1073 16.0208L14.1073 11.0208ZM15.6857 11.1137C15.4293 11.0111 15.1383 11.1358 15.0358 11.3922L13.0358 16.3922C12.9741 16.5463 12.993 16.7208 13.086 16.8582C13.179 16.9956 13.3341 17.0779 13.5 17.0779H16.023C16.1889 17.0779 16.344 17.1602 16.437 17.2976C16.53 17.435 16.5488 17.6096 16.4872 17.7636L15.0358 21.3922C14.9332 21.6486 15.0579 21.9396 15.3143 22.0421C15.5707 22.1447 15.8617 22.02 15.9642 21.7636L17.9642 16.7636C18.0259 16.6096 18.0071 16.435 17.914 16.2976C17.821 16.1602 17.6659 16.0779 17.5 16.0779H14.977C14.8111 16.0779 14.656 15.9956 14.563 15.8582C14.47 15.7208 14.4512 15.5463 14.5128 15.3922L15.9642 11.7636C16.0668 11.5072 15.9421 11.2162 15.6857 11.1137ZM31 12.0781C30.7239 12.0781 30.5 12.302 30.5 12.5781V20.5781C30.5 20.8543 30.7239 21.0781 31 21.0781C31.2761 21.0781 31.5 20.8543 31.5 20.5781V12.5781C31.5 12.302 31.2761 12.0781 31 12.0781ZM29.5 12.5781C29.5 11.7497 30.1716 11.0781 31 11.0781C31.8284 11.0781 32.5 11.7497 32.5 12.5781V20.5781C32.5 21.4066 31.8284 22.0781 31 22.0781C30.1716 22.0781 29.5 21.4066 29.5 20.5781V12.5781Z" fill="white"/>
</svg>
