<svg width="33" height="33" viewBox="0 0 33 33" fill="none" xmlns="http://www.w3.org/2000/svg">
<path d="M17.8 10.5781C18.3523 10.5781 18.8 11.0258 18.8 11.5781V21.5781C18.8 22.1304 18.3523 22.5781 17.8 22.5781C17.2478 22.5781 16.8 22.1304 16.8 21.5781V11.5781C16.8 11.0258 17.2478 10.5781 17.8 10.5781Z" fill="white"/>
<path d="M14.2 11.5781C14.2 11.0258 13.7522 10.5781 13.2 10.5781C12.6477 10.5781 12.2 11.0258 12.2 11.5781V21.5781C12.2 22.1304 12.6477 22.5781 13.2 22.5781C13.7522 22.5781 14.2 22.1304 14.2 21.5781V11.5781Z" fill="white"/>
<path d="M8.59998 10.5781C9.15226 10.5781 9.59998 11.0258 9.59998 11.5781V21.5781C9.59998 22.1304 9.15226 22.5781 8.59998 22.5781C8.04769 22.5781 7.59998 22.1304 7.59998 21.5781V11.5781C7.59998 11.0258 8.04769 10.5781 8.59998 10.5781Z" fill="white"/>
<path d="M23.4 11.5781C23.4 11.0258 22.9523 10.5781 22.4 10.5781C21.8477 10.5781 21.4 11.0258 21.4 11.5781V21.5781C21.4 22.1304 21.8477 22.5781 22.4 22.5781C22.9523 22.5781 23.4 22.1304 23.4 21.5781V11.5781Z" fill="white"/>
<path fill-rule="evenodd" clip-rule="evenodd" d="M28 9.57812C28 7.92127 26.6569 6.57812 25 6.57812H6C4.34315 6.57812 3 7.92127 3 9.57812V23.5781C3 25.235 4.34315 26.5781 6 26.5781H25C26.6569 26.5781 28 25.235 28 23.5781V9.57812ZM25 8.57812C25.5523 8.57812 26 9.02584 26 9.57812V23.5781C26 24.1304 25.5523 24.5781 25 24.5781H6C5.44772 24.5781 5 24.1304 5 23.5781V9.57812C5 9.02584 5.44772 8.57812 6 8.57812H25Z" fill="white"/>
<path d="M32 12.5781C32 12.0258 31.5523 11.5781 31 11.5781C30.4477 11.5781 30 12.0258 30 12.5781V20.5781C30 21.1304 30.4477 21.5781 31 21.5781C31.5523 21.5781 32 21.1304 32 20.5781V12.5781Z" fill="white"/>
<path fill-rule="evenodd" clip-rule="evenodd" d="M2.5 9.57812C2.5 7.64513 4.067 6.07812 6 6.07812H25C26.933 6.07812 28.5 7.64513 28.5 9.57812V23.5781C28.5 25.5111 26.933 27.0781 25 27.0781H6C4.067 27.0781 2.5 25.5111 2.5 23.5781V9.57812ZM6 7.07812C4.61929 7.07812 3.5 8.19741 3.5 9.57812V23.5781C3.5 24.9588 4.61929 26.0781 6 26.0781H25C26.3807 26.0781 27.5 24.9588 27.5 23.5781V9.57812C27.5 8.19741 26.3807 7.07812 25 7.07812H6ZM6 9.07812C5.72386 9.07812 5.5 9.30198 5.5 9.57812V23.5781C5.5 23.8543 5.72386 24.0781 6 24.0781H25C25.2761 24.0781 25.5 23.8543 25.5 23.5781V9.57812C25.5 9.30198 25.2761 9.07812 25 9.07812H6ZM4.5 9.57812C4.5 8.7497 5.17157 8.07812 6 8.07812H25C25.8284 8.07812 26.5 8.7497 26.5 9.57812V23.5781C26.5 24.4066 25.8284 25.0781 25 25.0781H6C5.17157 25.0781 4.5 24.4066 4.5 23.5781V9.57812ZM8.59998 11.0781C8.32383 11.0781 8.09998 11.302 8.09998 11.5781V21.5781C8.09998 21.8543 8.32383 22.0781 8.59998 22.0781C8.87612 22.0781 9.09998 21.8543 9.09998 21.5781V11.5781C9.09998 11.302 8.87612 11.0781 8.59998 11.0781ZM7.09998 11.5781C7.09998 10.7497 7.77155 10.0781 8.59998 10.0781C9.4284 10.0781 10.1 10.7497 10.1 11.5781V21.5781C10.1 22.4066 9.4284 23.0781 8.59998 23.0781C7.77155 23.0781 7.09998 22.4066 7.09998 21.5781V11.5781ZM11.7 11.5781C11.7 10.7497 12.3715 10.0781 13.2 10.0781C14.0284 10.0781 14.7 10.7497 14.7 11.5781V21.5781C14.7 22.4066 14.0284 23.0781 13.2 23.0781C12.3715 23.0781 11.7 22.4066 11.7 21.5781V11.5781ZM13.2 11.0781C12.9238 11.0781 12.7 11.302 12.7 11.5781V21.5781C12.7 21.8543 12.9238 22.0781 13.2 22.0781C13.4761 22.0781 13.7 21.8543 13.7 21.5781V11.5781C13.7 11.302 13.4761 11.0781 13.2 11.0781ZM17.8 11.0781C17.5239 11.0781 17.3 11.302 17.3 11.5781V21.5781C17.3 21.8543 17.5239 22.0781 17.8 22.0781C18.0762 22.0781 18.3 21.8543 18.3 21.5781V11.5781C18.3 11.302 18.0762 11.0781 17.8 11.0781ZM16.3 11.5781C16.3 10.7497 16.9716 10.0781 17.8 10.0781C18.6285 10.0781 19.3 10.7497 19.3 11.5781V21.5781C19.3 22.4066 18.6285 23.0781 17.8 23.0781C16.9716 23.0781 16.3 22.4066 16.3 21.5781V11.5781ZM20.9 11.5781C20.9 10.7497 21.5716 10.0781 22.4 10.0781C23.2285 10.0781 23.9 10.7497 23.9 11.5781V21.5781C23.9 22.4066 23.2285 23.0781 22.4 23.0781C21.5716 23.0781 20.9 22.4066 20.9 21.5781V11.5781ZM22.4 11.0781C22.1239 11.0781 21.9 11.302 21.9 11.5781V21.5781C21.9 21.8543 22.1239 22.0781 22.4 22.0781C22.6762 22.0781 22.9 21.8543 22.9 21.5781V11.5781C22.9 11.302 22.6762 11.0781 22.4 11.0781ZM29.5 12.5781C29.5 11.7497 30.1716 11.0781 31 11.0781C31.8284 11.0781 32.5 11.7497 32.5 12.5781V20.5781C32.5 21.4066 31.8284 22.0781 31 22.0781C30.1716 22.0781 29.5 21.4066 29.5 20.5781V12.5781ZM31 12.0781C30.7239 12.0781 30.5 12.302 30.5 12.5781V20.5781C30.5 20.8543 30.7239 21.0781 31 21.0781C31.2761 21.0781 31.5 20.8543 31.5 20.5781V12.5781C31.5 12.302 31.2761 12.0781 31 12.0781Z" fill="white"/>
</svg>
