<svg width="33" height="33" viewBox="0 0 33 33" fill="none" xmlns="http://www.w3.org/2000/svg">
<path d="M15.5 12.5781C16.0523 12.5781 16.5 13.0258 16.5 13.5781V15.5781H18.5C19.0523 15.5781 19.5 16.0258 19.5 16.5781C19.5 17.1304 19.0523 17.5781 18.5 17.5781H16.5V19.5781C16.5 20.1304 16.0523 20.5781 15.5 20.5781C14.9477 20.5781 14.5 20.1304 14.5 19.5781V17.5781H12.5C11.9477 17.5781 11.5 17.1304 11.5 16.5781C11.5 16.0258 11.9477 15.5781 12.5 15.5781H14.5V13.5781C14.5 13.0258 14.9477 12.5781 15.5 12.5781Z" fill="white"/>
<path fill-rule="evenodd" clip-rule="evenodd" d="M28 9.57812C28 7.92127 26.6569 6.57812 25 6.57812H6C4.34315 6.57812 3 7.92127 3 9.57812V23.5781C3 25.235 4.34315 26.5781 6 26.5781H25C26.6569 26.5781 28 25.235 28 23.5781V9.57812ZM25 8.57812C25.5523 8.57812 26 9.02584 26 9.57812V23.5781C26 24.1304 25.5523 24.5781 25 24.5781H6C5.44772 24.5781 5 24.1304 5 23.5781V9.57812C5 9.02584 5.44772 8.57812 6 8.57812H25Z" fill="white"/>
<path d="M32 12.5781C32 12.0258 31.5523 11.5781 31 11.5781C30.4477 11.5781 30 12.0258 30 12.5781V20.5781C30 21.1304 30.4477 21.5781 31 21.5781C31.5523 21.5781 32 21.1304 32 20.5781V12.5781Z" fill="white"/>
<path fill-rule="evenodd" clip-rule="evenodd" d="M2.5 9.57812C2.5 7.64513 4.067 6.07812 6 6.07812H25C26.933 6.07812 28.5 7.64513 28.5 9.57812V23.5781C28.5 25.5111 26.933 27.0781 25 27.0781H6C4.067 27.0781 2.5 25.5111 2.5 23.5781V9.57812ZM6 7.07812C4.61929 7.07812 3.5 8.19741 3.5 9.57812V23.5781C3.5 24.9588 4.61929 26.0781 6 26.0781H25C26.3807 26.0781 27.5 24.9588 27.5 23.5781V9.57812C27.5 8.19741 26.3807 7.07812 25 7.07812H6ZM6 9.07812C5.72386 9.07812 5.5 9.30198 5.5 9.57812V23.5781C5.5 23.8543 5.72386 24.0781 6 24.0781H25C25.2761 24.0781 25.5 23.8543 25.5 23.5781V9.57812C25.5 9.30198 25.2761 9.07812 25 9.07812H6ZM4.5 9.57812C4.5 8.7497 5.17157 8.07812 6 8.07812H25C25.8284 8.07812 26.5 8.7497 26.5 9.57812V23.5781C26.5 24.4066 25.8284 25.0781 25 25.0781H6C5.17157 25.0781 4.5 24.4066 4.5 23.5781V9.57812ZM29.5 12.5781C29.5 11.7497 30.1716 11.0781 31 11.0781C31.8284 11.0781 32.5 11.7497 32.5 12.5781V20.5781C32.5 21.4066 31.8284 22.0781 31 22.0781C30.1716 22.0781 29.5 21.4066 29.5 20.5781V12.5781ZM31 12.0781C30.7239 12.0781 30.5 12.302 30.5 12.5781V20.5781C30.5 20.8543 30.7239 21.0781 31 21.0781C31.2761 21.0781 31.5 20.8543 31.5 20.5781V12.5781C31.5 12.302 31.2761 12.0781 31 12.0781ZM15.5 13.0781C15.2239 13.0781 15 13.302 15 13.5781V15.5781C15 15.8543 14.7761 16.0781 14.5 16.0781H12.5C12.2239 16.0781 12 16.302 12 16.5781C12 16.8543 12.2239 17.0781 12.5 17.0781H14.5C14.7761 17.0781 15 17.302 15 17.5781V19.5781C15 19.8543 15.2239 20.0781 15.5 20.0781C15.7761 20.0781 16 19.8543 16 19.5781V17.5781C16 17.302 16.2239 17.0781 16.5 17.0781H18.5C18.7761 17.0781 19 16.8543 19 16.5781C19 16.302 18.7761 16.0781 18.5 16.0781H16.5C16.2239 16.0781 16 15.8543 16 15.5781V13.5781C16 13.302 15.7761 13.0781 15.5 13.0781ZM14 13.5781C14 12.7497 14.6716 12.0781 15.5 12.0781C16.3284 12.0781 17 12.7497 17 13.5781V15.0781H18.5C19.3284 15.0781 20 15.7497 20 16.5781C20 17.4066 19.3284 18.0781 18.5 18.0781H17V19.5781C17 20.4066 16.3284 21.0781 15.5 21.0781C14.6716 21.0781 14 20.4066 14 19.5781V18.0781H12.5C11.6716 18.0781 11 17.4066 11 16.5781C11 15.7497 11.6716 15.0781 12.5 15.0781H14V13.5781Z" fill="white"/>
</svg>
