<svg width="32" height="32" viewBox="0 0 32 32" fill="none" xmlns="http://www.w3.org/2000/svg">
<path fill-rule="evenodd" clip-rule="evenodd" d="M7.58579 4.58579C7.96086 4.21071 8.46957 4 9 4H23C23.5304 4 24.0391 4.21071 24.4142 4.58579C24.7893 4.96086 25 5.46957 25 6V28C25 28.3635 24.8027 28.6984 24.4848 28.8746C24.1668 29.0509 23.7783 29.0407 23.47 28.848L16 24.1792L8.53 28.848C8.22173 29.0407 7.83319 29.0509 7.51523 28.8746C7.19728 28.6984 7 28.3635 7 28V6C7 5.46957 7.21071 4.96086 7.58579 4.58579ZM23 6H9L9 26.1958L15.47 22.152C15.7943 21.9493 16.2057 21.9493 16.53 22.152L23 26.1958V6Z" fill="white"/>
<path fill-rule="evenodd" clip-rule="evenodd" d="M7.23223 4.23223C7.70107 3.76339 8.33696 3.5 9 3.5H23C23.663 3.5 24.2989 3.76339 24.7678 4.23223C25.2366 4.70107 25.5 5.33696 25.5 6V28C25.5 28.5453 25.2041 29.0476 24.7272 29.312C24.2502 29.5763 23.6674 29.561 23.205 29.272L16 24.7689L8.795 29.272C8.3326 29.561 7.74978 29.5763 7.27285 29.312C6.79592 29.0476 6.5 28.5453 6.5 28V6C6.5 5.33696 6.76339 4.70107 7.23223 4.23223ZM9 4.5C8.60217 4.5 8.22064 4.65804 7.93934 4.93934C7.65804 5.22064 7.5 5.60217 7.5 6V28C7.5 28.1818 7.59864 28.3492 7.75762 28.4373C7.91659 28.5254 8.11086 28.5203 8.265 28.424L15.735 23.7552C15.8971 23.6539 16.1029 23.6539 16.265 23.7552L23.735 28.424C23.8891 28.5203 24.0834 28.5254 24.2424 28.4373C24.4014 28.3492 24.5 28.1818 24.5 28V6C24.5 5.60218 24.342 5.22065 24.0607 4.93934C23.7794 4.65804 23.3978 4.5 23 4.5H9ZM8.5 6C8.5 5.72386 8.72386 5.5 9 5.5H23C23.2761 5.5 23.5 5.72386 23.5 6V26.1958C23.5 26.3775 23.4014 26.545 23.2424 26.6331C23.0834 26.7212 22.8891 26.7161 22.735 26.6198L16.265 22.576C16.1029 22.4747 15.8971 22.4747 15.735 22.576L9.265 26.6198C9.11087 26.7161 8.91659 26.7212 8.75762 26.6331C8.59864 26.545 8.5 26.3775 8.5 26.1958L8.5 6ZM9.5 6.5L9.5 25.2936L15.205 21.728C15.6914 21.424 16.3086 21.424 16.795 21.728L22.5 25.2936V6.5H9.5Z" fill="white"/>
</svg>
