<svg width="32" height="32" viewBox="0 0 32 32" fill="none" xmlns="http://www.w3.org/2000/svg">
<path d="M23.042 4H9.04199C8.51156 4 8.00285 4.21071 7.62778 4.58579C7.25271 4.96086 7.04199 5.46957 7.04199 6V28C7.04295 28.178 7.09083 28.3527 7.18081 28.5063C7.27079 28.6599 7.39968 28.7871 7.55449 28.875C7.7028 28.9597 7.87121 29.0029 8.04199 29C8.22761 29.0003 8.40957 28.9483 8.56699 28.85L16.042 24.175L23.5045 28.85C23.6585 28.9426 23.834 28.9936 24.0137 28.998C24.1934 29.0023 24.3711 28.96 24.5295 28.875C24.6843 28.7871 24.8132 28.6599 24.9032 28.5063C24.9932 28.3527 25.041 28.178 25.042 28V6C25.042 5.46957 24.8313 4.96086 24.4562 4.58579C24.0811 4.21071 23.5724 4 23.042 4Z" fill="white"/>
<path fill-rule="evenodd" clip-rule="evenodd" d="M7.27423 4.23223C7.74307 3.76339 8.37895 3.5 9.04199 3.5H23.042C23.705 3.5 24.3409 3.76339 24.8098 4.23223C25.2786 4.70107 25.542 5.33696 25.542 6V28L25.542 28.0027C25.5406 28.2686 25.469 28.5295 25.3346 28.759C25.2002 28.9885 25.0077 29.1785 24.7764 29.3098L24.7659 29.3157C24.5312 29.4416 24.2678 29.5043 24.0015 29.4978C23.7352 29.4913 23.4752 29.4158 23.2469 29.2785L23.239 29.2738L16.0418 24.7649L8.83212 29.2739C8.59631 29.4212 8.32375 29.4996 8.04576 29.5C7.78695 29.5036 7.53186 29.4378 7.30702 29.3095C7.07601 29.1781 6.88367 28.9883 6.74937 28.759C6.61495 28.5295 6.54343 28.2686 6.542 28.0027L6.54199 28V6C6.54199 5.33696 6.80538 4.70107 7.27423 4.23223ZM8.04576 29.5C8.0442 29.5 8.04265 29.5 8.04109 29.5L8.04199 29L8.05053 29.4999C8.04894 29.5 8.04735 29.5 8.04576 29.5ZM9.04199 4.5C8.64417 4.5 8.26264 4.65804 7.98133 4.93934C7.70003 5.22064 7.54199 5.60218 7.54199 6V27.9984C7.54267 28.0882 7.56689 28.1761 7.61225 28.2536C7.65779 28.3313 7.72304 28.3957 7.8014 28.4402L7.80253 28.4409C7.87278 28.481 7.95256 28.5015 8.03345 28.5001L8.0429 28.4999C8.13445 28.5001 8.2242 28.4745 8.30186 28.4261M8.30186 28.4261L15.7769 23.7511C15.9392 23.6496 16.1452 23.6496 16.3074 23.7513L23.7654 28.4234C23.8444 28.4701 23.9341 28.4959 24.0259 28.4981C24.117 28.5003 24.2071 28.4794 24.2878 28.4372C24.3638 28.3929 24.4272 28.3296 24.4717 28.2536C24.5171 28.1762 24.5413 28.0882 24.542 27.9985V6C24.542 5.60218 24.384 5.22064 24.1027 4.93934C23.8213 4.65804 23.4398 4.5 23.042 4.5H9.04199" fill="white"/>
</svg>
