<svg width="32" height="33" viewBox="0 0 32 33" fill="none" xmlns="http://www.w3.org/2000/svg">
<path fill-rule="evenodd" clip-rule="evenodd" d="M3 7.5C3 6.94772 3.44772 6.5 4 6.5H28C28.5523 6.5 29 6.94772 29 7.5V24.5C29 25.0304 28.7893 25.5391 28.4142 25.9142C28.0391 26.2893 27.5304 26.5 27 26.5H5C4.46957 26.5 3.96086 26.2893 3.58579 25.9142C3.21071 25.5391 3 25.0304 3 24.5V7.5ZM16 17.1434L6.5708 8.5H25.4292L16 17.1434ZM5 24.5H27V9.77325L16.6757 19.2372C16.2934 19.5876 15.7066 19.5876 15.3243 19.2372L5 9.77324V24.5Z" fill="white"/>
<path fill-rule="evenodd" clip-rule="evenodd" d="M2.5 7.5C2.5 6.67157 3.17157 6 4 6H28C28.8284 6 29.5 6.67157 29.5 7.5V24.5C29.5 25.163 29.2366 25.7989 28.7678 26.2678C28.2989 26.7366 27.663 27 27 27H5C4.33696 27 3.70108 26.7366 3.23223 26.2678C2.76339 25.7989 2.5 25.163 2.5 24.5V7.5ZM4 7C3.72386 7 3.5 7.22386 3.5 7.5V24.5C3.5 24.8978 3.65804 25.2794 3.93934 25.5607C4.22065 25.842 4.60218 26 5 26H27C27.3978 26 27.7794 25.842 28.0607 25.5607C28.342 25.2794 28.5 24.8978 28.5 24.5V7.5C28.5 7.22386 28.2761 7 28 7H4ZM6.10481 8.31874C6.17956 8.12657 6.36461 8 6.5708 8H25.4292C25.6354 8 25.8204 8.12657 25.8952 8.31874C25.9699 8.5109 25.9191 8.72925 25.7671 8.86858L16.3379 17.512C16.1467 17.6872 15.8533 17.6872 15.6621 17.512L6.23294 8.86858C6.08094 8.72925 6.03006 8.5109 6.10481 8.31874ZM7.8562 9L16 16.4652L24.1438 9H7.8562ZM4.79867 9.31556C4.98017 9.23572 5.1917 9.27067 5.33786 9.40466L15.6621 18.8686C15.8533 19.0438 16.1467 19.0438 16.3379 18.8686L26.6621 9.40467C26.8083 9.27068 27.0198 9.23573 27.2013 9.31557C27.3828 9.39541 27.5 9.57496 27.5 9.77325V24.5C27.5 24.7761 27.2761 25 27 25H5C4.72386 25 4.5 24.7761 4.5 24.5V9.77324C4.5 9.57495 4.61717 9.3954 4.79867 9.31556ZM5.5 10.9099V24H26.5V10.9099L17.0136 19.6057C16.4401 20.1314 15.5599 20.1314 14.9864 19.6057L5.5 10.9099Z" fill="white"/>
</svg>
