<svg width="32" height="32" viewBox="0 0 32 32" fill="none" xmlns="http://www.w3.org/2000/svg">
<path fill-rule="evenodd" clip-rule="evenodd" d="M16 3C8.8203 3 3 8.8203 3 16C3 23.1797 8.8203 29 16 29C23.1797 29 29 23.1797 29 16C29 8.8203 23.1797 3 16 3ZM9.5 14.5H6.11169C6.7616 10.1783 10.1783 6.7616 14.5 6.11169V9.5C14.5 10.3284 15.1716 11 16 11C16.8284 11 17.5 10.3284 17.5 9.5V6.11169C21.8217 6.7616 25.2384 10.1783 25.8883 14.5H22.5C21.6716 14.5 21 15.1716 21 16C21 16.8284 21.6716 17.5 22.5 17.5H25.8883C25.2384 21.8217 21.8217 25.2384 17.5 25.8883V22.5C17.5 21.6716 16.8284 21 16 21C15.1716 21 14.5 21.6716 14.5 22.5V25.8883C10.1783 25.2384 6.7616 21.8217 6.11169 17.5H9.5C10.3284 17.5 11 16.8284 11 16C11 15.1716 10.3284 14.5 9.5 14.5Z" fill="white"/>
</svg>
