<svg width="32" height="33" viewBox="0 0 32 33" fill="none" xmlns="http://www.w3.org/2000/svg">
<path fill-rule="evenodd" clip-rule="evenodd" d="M16 4.57812C15.4696 4.57812 14.9609 4.78884 14.5858 5.16391C14.2107 5.53898 14 6.04769 14 6.57812V12.5781C14 12.9569 13.786 13.3032 13.4472 13.4726L4 18.1962V20.3583L12.8039 18.5975C13.0977 18.5388 13.4023 18.6148 13.634 18.8048C13.8657 18.9947 14 19.2785 14 19.5781V23.5781C14 23.8433 13.8946 24.0977 13.7071 24.2852L12 25.9923V28.1011L15.6286 26.6496C15.867 26.5543 16.133 26.5543 16.3714 26.6496L20 28.1011V25.9923L18.2929 24.2852C18.1054 24.0977 18 23.8433 18 23.5781V19.5781C18 19.2785 18.1343 18.9947 18.366 18.8048C18.5977 18.6148 18.9023 18.5388 19.1961 18.5975L28 20.3583V18.1962L18.5528 13.4726C18.214 13.3032 18 12.9569 18 12.5781V6.57812C18 6.04769 17.7893 5.53898 17.4142 5.16391C17.0391 4.78884 16.5304 4.57812 16 4.57812ZM13.1716 3.7497C13.9217 2.99955 14.9391 2.57812 16 2.57812C17.0609 2.57812 18.0783 2.99955 18.8284 3.7497C19.5786 4.49984 20 5.51726 20 6.57812V11.9601L29.4472 16.6837C29.786 16.8531 30 17.1994 30 17.5781V21.5781C30 21.8777 29.8657 22.1615 29.634 22.3515C29.4023 22.5414 29.0977 22.6175 28.8039 22.5587L20 20.7979V23.1639L21.7071 24.871C21.8946 25.0586 22 25.3129 22 25.5781V29.5781C22 29.9099 21.8354 30.2202 21.5606 30.4062C21.2859 30.5922 20.9367 30.6298 20.6286 30.5066L16 28.6552L11.3714 30.5066C11.0633 30.6298 10.7141 30.5922 10.4394 30.4062C10.1646 30.2202 10 29.9099 10 29.5781V25.5781C10 25.3129 10.1054 25.0586 10.2929 24.871L12 23.1639V20.7979L3.19612 22.5587C2.90234 22.6175 2.5977 22.5414 2.36601 22.3515C2.13432 22.1615 2 21.8777 2 21.5781V17.5781C2 17.1994 2.214 16.8531 2.55279 16.6837L12 11.9601V6.57812C12 5.51726 12.4214 4.49984 13.1716 3.7497Z" fill="white"/>
<path fill-rule="evenodd" clip-rule="evenodd" d="M12.818 3.39614C13.6619 2.55223 14.8065 2.07812 16 2.07812C17.1935 2.07812 18.3381 2.55223 19.182 3.39614C20.0259 4.24006 20.5 5.38465 20.5 6.57812V11.6511L29.6708 16.2365C30.179 16.4906 30.5 17.01 30.5 17.5781V21.5781C30.5 22.0275 30.2985 22.4532 29.951 22.7381C29.6035 23.023 29.1465 23.1371 28.7058 23.049L20.5 21.4078V22.9568L22.0607 24.5175C22.342 24.7988 22.5 25.1803 22.5 25.5781V29.5781C22.5 30.0759 22.2531 30.5412 21.8409 30.8202C21.4288 31.0993 20.9051 31.1557 20.4429 30.9708L16 29.1937L11.5571 30.9708C11.095 31.1557 10.5712 31.0993 10.1591 30.8202C9.7469 30.5412 9.5 30.0759 9.5 29.5781V25.5781C9.5 25.1803 9.65804 24.7988 9.93934 24.5175L11.5 22.9568V21.4078L3.29417 23.049C2.85351 23.1371 2.39655 23.023 2.04902 22.7381C1.70148 22.4532 1.5 22.0275 1.5 21.5781V17.5781C1.5 17.01 1.821 16.4906 2.32918 16.2365L11.5 11.6511V6.57812C11.5 5.38465 11.9741 4.24006 12.818 3.39614ZM16 3.07812C15.0717 3.07812 14.1815 3.44687 13.5251 4.10325C12.8687 4.75963 12.5 5.64987 12.5 6.57812V11.9601C12.5 12.1495 12.393 12.3226 12.2236 12.4073L2.77639 17.1309C2.607 17.2156 2.5 17.3887 2.5 17.5781V21.5781C2.5 21.7279 2.56716 21.8698 2.68301 21.9648C2.79885 22.0598 2.95117 22.0978 3.09806 22.0684L11.9019 20.3076C12.0488 20.2783 12.2012 20.3163 12.317 20.4113C12.4328 20.5062 12.5 20.6481 12.5 20.7979V23.1639C12.5 23.2965 12.4473 23.4237 12.3536 23.5175L10.6464 25.2246C10.5527 25.3183 10.5 25.4455 10.5 25.5781V29.5781C10.5 29.744 10.5823 29.8991 10.7197 29.9922C10.8571 30.0852 11.0316 30.104 11.1857 30.0424L15.8143 28.1909C15.9335 28.1432 16.0665 28.1432 16.1857 28.1909L20.8143 30.0424C20.9684 30.104 21.1429 30.0852 21.2803 29.9922C21.4177 29.8991 21.5 29.744 21.5 29.5781V25.5781C21.5 25.4455 21.4473 25.3183 21.3536 25.2246L19.6464 23.5175C19.5527 23.4237 19.5 23.2965 19.5 23.1639V20.7979C19.5 20.6481 19.5672 20.5062 19.683 20.4113C19.7988 20.3163 19.9512 20.2783 20.0981 20.3076L28.9019 22.0684C29.0488 22.0978 29.2012 22.0598 29.317 21.9648C29.4328 21.8698 29.5 21.7279 29.5 21.5781V17.5781C29.5 17.3887 29.393 17.2156 29.2236 17.1309L19.7764 12.4073C19.607 12.3226 19.5 12.1495 19.5 11.9601V6.57812C19.5 5.64987 19.1313 4.75963 18.4749 4.10325C17.8185 3.44687 16.9283 3.07812 16 3.07812ZM16 5.07812C15.6022 5.07812 15.2206 5.23616 14.9393 5.51746C14.658 5.79877 14.5 6.1803 14.5 6.57812V12.5781C14.5 13.1463 14.179 13.6657 13.6708 13.9198L4.5 18.5052V19.7484L12.7058 18.1073C13.1465 18.0191 13.6034 18.1332 13.951 18.4181C14.2985 18.703 14.5 19.1287 14.5 19.5781V23.5781C14.5 23.976 14.342 24.3575 14.0607 24.6388L12.5 26.1994V27.3626L15.4429 26.1854C15.8005 26.0424 16.1995 26.0424 16.5571 26.1854L19.5 27.3626V26.1994L17.9393 24.6388C17.658 24.3575 17.5 23.9759 17.5 23.5781V19.5781C17.5 19.1287 17.7015 18.703 18.049 18.4181C18.3965 18.1332 18.8535 18.0191 19.2942 18.1073L27.5 19.7484V18.5052L18.3292 13.9198C17.821 13.6657 17.5 13.1463 17.5 12.5781V6.57812C17.5 6.1803 17.342 5.79877 17.0607 5.51746C16.7794 5.23616 16.3978 5.07812 16 5.07812ZM14.2322 4.81036C14.7011 4.34152 15.337 4.07812 16 4.07812C16.663 4.07812 17.2989 4.34152 17.7678 4.81036C18.2366 5.2792 18.5 5.91508 18.5 6.57812V12.5781C18.5 12.7675 18.607 12.9406 18.7764 13.0253L28.2236 17.7489C28.393 17.8336 28.5 18.0068 28.5 18.1962V20.3583C28.5 20.5081 28.4328 20.65 28.317 20.745C28.2012 20.84 28.0488 20.878 27.9019 20.8486L19.0981 19.0878C18.9512 19.0585 18.7988 19.0965 18.683 19.1915C18.5672 19.2864 18.5 19.4283 18.5 19.5781V23.5781C18.5 23.7107 18.5527 23.8379 18.6464 23.9317L20.3536 25.6388C20.4473 25.7326 20.5 25.8597 20.5 25.9923V28.1011C20.5 28.267 20.4177 28.4221 20.2803 28.5151C20.1429 28.6081 19.9683 28.6269 19.8143 28.5653L16.1857 27.1139C16.0665 27.0662 15.9335 27.0662 15.8143 27.1139L12.1857 28.5653C12.0317 28.6269 11.8571 28.6081 11.7197 28.5151C11.5823 28.4221 11.5 28.267 11.5 28.1011V25.9923C11.5 25.8597 11.5527 25.7326 11.6464 25.6388L13.3536 23.9317C13.4473 23.8379 13.5 23.7107 13.5 23.5781V19.5781C13.5 19.4283 13.4328 19.2864 13.317 19.1915C13.2012 19.0965 13.0488 19.0585 12.9019 19.0878L4.09806 20.8486C3.95117 20.878 3.79885 20.84 3.68301 20.745C3.56716 20.65 3.5 20.5081 3.5 20.3583V18.1962C3.5 18.0068 3.607 17.8336 3.77639 17.7489L13.2236 13.0253C13.393 12.9406 13.5 12.7675 13.5 12.5781V6.57812C13.5 5.91508 13.7634 5.2792 14.2322 4.81036Z" fill="white"/>
</svg>
