<svg width="32" height="33" viewBox="0 0 32 33" fill="none" xmlns="http://www.w3.org/2000/svg">
<path fill-rule="evenodd" clip-rule="evenodd" d="M3 7.5C3 6.39543 3.89543 5.5 5 5.5H27C28.1046 5.5 29 6.39543 29 7.5V25.5C29 26.6046 28.1046 27.5 27 27.5H5C3.89543 27.5 3 26.6046 3 25.5V7.5Z" fill="white"/>
<path fill-rule="evenodd" clip-rule="evenodd" d="M2.5 7.5C2.5 6.11929 3.61929 5 5 5H27C28.3807 5 29.5 6.11929 29.5 7.5V25.5C29.5 26.8807 28.3807 28 27 28H5C3.61929 28 2.5 26.8807 2.5 25.5V7.5ZM5 6C4.17157 6 3.5 6.67157 3.5 7.5V25.5C3.5 26.3284 4.17157 27 5 27H27C27.8284 27 28.5 26.3284 28.5 25.5V7.5C28.5 6.67157 27.8284 6 27 6H5Z" fill="white"/>
</svg>
