<svg width="32" height="33" viewBox="0 0 32 33" fill="none" xmlns="http://www.w3.org/2000/svg">
<path d="M24.7071 9.12898C25.0976 8.73846 25.0976 8.10529 24.7071 7.71477C24.3166 7.32424 23.6834 7.32424 23.2929 7.71477L16 15.0077L8.70711 7.71477C8.31658 7.32424 7.68342 7.32424 7.29289 7.71477C6.90237 8.10529 6.90237 8.73846 7.29289 9.12898L14.5858 16.4219L7.29289 23.7148C6.90237 24.1053 6.90237 24.7385 7.29289 25.129C7.68342 25.5195 8.31658 25.5195 8.70711 25.129L16 17.8361L23.2929 25.129C23.6834 25.5195 24.3166 25.5195 24.7071 25.129C25.0976 24.7385 25.0976 24.1053 24.7071 23.7148L17.4142 16.4219L24.7071 9.12898Z" fill="white"/>
<path fill-rule="evenodd" clip-rule="evenodd" d="M6.93934 7.36121C7.52513 6.77543 8.47487 6.77543 9.06066 7.36121L16 14.3006L22.9393 7.36122C23.5251 6.77543 24.4749 6.77543 25.0607 7.36122C25.6465 7.947 25.6465 8.89675 25.0607 9.48254L18.1213 16.4219L25.0607 23.3612C25.6465 23.947 25.6465 24.8968 25.0607 25.4825C24.4749 26.0683 23.5251 26.0683 22.9393 25.4825L16 18.5432L9.06066 25.4825C8.47487 26.0683 7.52513 26.0683 6.93934 25.4825C6.35355 24.8967 6.35355 23.947 6.93934 23.3612L13.8787 16.4219L6.93934 9.48254C6.35355 8.89675 6.35355 7.947 6.93934 7.36121ZM8.35355 8.06832C8.15829 7.87306 7.84171 7.87306 7.64645 8.06832C7.45118 8.26358 7.45118 8.58017 7.64645 8.77543L14.9393 16.0683C15.1346 16.2636 15.1346 16.5802 14.9393 16.7754L7.64645 24.0683C7.45118 24.2636 7.45118 24.5802 7.64645 24.7754C7.84171 24.9707 8.15829 24.9707 8.35355 24.7754L15.6464 17.4825C15.7402 17.3888 15.8674 17.3361 16 17.3361C16.1326 17.3361 16.2598 17.3888 16.3536 17.4825L23.6464 24.7754C23.8417 24.9707 24.1583 24.9707 24.3536 24.7754C24.5488 24.5802 24.5488 24.2636 24.3536 24.0683L17.0607 16.7754C16.9669 16.6817 16.9142 16.5545 16.9142 16.4219C16.9142 16.2893 16.9669 16.1621 17.0607 16.0683L24.3536 8.77543C24.5488 8.58017 24.5488 8.26358 24.3536 8.06832C24.1583 7.87306 23.8417 7.87306 23.6464 8.06832L16.3536 15.3612C16.1583 15.5565 15.8417 15.5565 15.6464 15.3612L8.35355 8.06832Z" fill="white"/>
</svg>
