<svg width="32" height="32" viewBox="0 0 32 32" fill="none" xmlns="http://www.w3.org/2000/svg">
<path d="M1.93934 7.93934C2.52513 7.35355 3.47488 7.35355 4.06066 7.93934L12 15.8787L15.9393 11.9393C16.5251 11.3536 17.4749 11.3536 18.0607 11.9393L27.5 21.3787V17C27.5 16.1716 28.1716 15.5 29 15.5C29.8284 15.5 30.5 16.1716 30.5 17V24.9986L30.4999 25.0138C30.4981 25.2122 30.4579 25.4013 30.3862 25.5742C30.3135 25.7498 30.2061 25.9144 30.0638 26.0575L30.0607 26.0607L30.0575 26.0638C29.9144 26.2061 29.7498 26.3135 29.5742 26.3862C29.4022 26.4573 29.2198 26.4951 29.0366 26.4996C29.0244 26.4999 29.0122 26.5 29 26.5H21C20.1716 26.5 19.5 25.8284 19.5 25C19.5 24.1716 20.1716 23.5 21 23.5H25.3787L17 15.1213L13.0607 19.0607C12.4749 19.6464 11.5251 19.6464 10.9393 19.0607L1.93934 10.0607C1.35355 9.47487 1.35355 8.52513 1.93934 7.93934Z" fill="white"/>
</svg>
