<svg width="32" height="32" viewBox="0 0 32 32" fill="none" xmlns="http://www.w3.org/2000/svg">
<path fill-rule="evenodd" clip-rule="evenodd" d="M20 7C20 6.44772 20.4477 6 21 6H29C29.5523 6 30 6.44772 30 7V15C30 15.5523 29.5523 16 29 16C28.4477 16 28 15.5523 28 15V8H21C20.4477 8 20 7.55228 20 7Z" fill="white"/>
<path fill-rule="evenodd" clip-rule="evenodd" d="M29.7071 6.29289C30.0976 6.68342 30.0976 7.31658 29.7071 7.70711L17.7071 19.7071C17.3166 20.0976 16.6834 20.0976 16.2929 19.7071L12 15.4142L3.70711 23.7071C3.31658 24.0976 2.68342 24.0976 2.29289 23.7071C1.90237 23.3166 1.90237 22.6834 2.29289 22.2929L11.2929 13.2929C11.6834 12.9024 12.3166 12.9024 12.7071 13.2929L17 17.5858L28.2929 6.29289C28.6834 5.90237 29.3166 5.90237 29.7071 6.29289Z" fill="white"/>
<path fill-rule="evenodd" clip-rule="evenodd" d="M19.5 7C19.5 6.17157 20.1716 5.5 21 5.5H28.9998C28.9997 5.5 28.9999 5.5 28.9998 5.5C29.2032 5.5 29.3973 5.54048 29.5742 5.61382C29.7498 5.68648 29.9144 5.79393 30.0575 5.93616C30.0585 5.93722 30.0596 5.93828 30.0607 5.93934C30.2045 6.08315 30.313 6.24891 30.3862 6.42582C30.4595 6.60268 30.5 6.79662 30.5 7V15C30.5 15.8284 29.8284 16.5 29 16.5C28.1716 16.5 27.5 15.8284 27.5 15V10.6213L18.0607 20.0607C17.4749 20.6464 16.5251 20.6464 15.9393 20.0607L12 16.1213L4.06066 24.0607C3.47487 24.6464 2.52513 24.6464 1.93934 24.0607C1.35355 23.4749 1.35355 22.5251 1.93934 21.9393L10.9393 12.9393C11.5251 12.3536 12.4749 12.3536 13.0607 12.9393L17 16.8787L25.3787 8.5H21C20.1716 8.5 19.5 7.82843 19.5 7ZM26.7929 8.5L17.3536 17.9393C17.2598 18.0331 17.1326 18.0858 17 18.0858C16.8674 18.0858 16.7402 18.0331 16.6464 17.9393L12.3536 13.6464C12.1583 13.4512 11.8417 13.4512 11.6464 13.6464L2.64645 22.6464C2.45118 22.8417 2.45118 23.1583 2.64645 23.3536C2.84171 23.5488 3.15829 23.5488 3.35355 23.3536L11.6464 15.0607C11.7402 14.9669 11.8674 14.9142 12 14.9142C12.1326 14.9142 12.2598 14.9669 12.3536 15.0607L16.6464 19.3536C16.8417 19.5488 17.1583 19.5488 17.3536 19.3536L27.5 9.20711V8.5H26.7929ZM28.5 8.20711V8C28.5 7.72386 28.2761 7.5 28 7.5H27.7929L28.6464 6.64645C28.744 6.54885 28.872 6.50003 28.9999 6.5C28.9998 6.5 28.9999 6.5 28.9999 6.5C29.0079 6.5 29.016 6.50019 29.024 6.50057C29.0811 6.5033 29.1378 6.51575 29.1914 6.53794C29.3699 6.61196 29.4962 6.78639 29.4999 6.99077M27.3787 6.5L26.3787 7.5H21C20.7239 7.5 20.5 7.27614 20.5 7C20.5 6.72386 20.7239 6.5 21 6.5H27.3787ZM28.5 9.62132V15C28.5 15.2761 28.7239 15.5 29 15.5C29.2761 15.5 29.5 15.2761 29.5 15V8.62132L28.5 9.62132ZM29.5 7.00098C29.4998 7.12861 29.4509 7.25617 29.3536 7.35355L28.5 8.20711" fill="white"/>
</svg>
