<svg width="100%" height="100%" viewBox="0 0 52 75" fill="none" xmlns="http://www.w3.org/2000/svg">
<g clip-path="url(#clip0_2214_14238)">
<path d="M26.3652 18.6762C26.3652 15.7066 28.7955 13.2873 31.7788 13.2873H41.4655V0.17627H36.6221H31.7788C21.5161 0.17627 13.1943 8.46026 13.1943 18.6762C13.1943 21.342 13.7645 23.876 14.7838 26.1632C6.81331 29.517 1.52074 36.643 0.288309 45.6607C-1.15145 55.5615 2.8338 66.2417 11.5127 71.4013C19.2586 76.2571 31.3698 75.9361 37.9122 69.1998V73.6716H51.3941V24.065H31.7844C28.8013 24.065 26.3652 21.6459 26.3652 18.6762ZM38.2117 37.1819V49.6336C38.2117 56.5131 32.6081 62.0854 25.703 62.0854C18.7979 62.0854 13.1943 56.5073 13.1943 49.6336C13.1943 42.7599 18.7979 37.1819 25.703 37.1819H38.2117Z" fill="white"/>
</g>
<defs>
<clipPath id="clip0_2214_14238">
<rect width="51.5725" height="74.714" fill="white"/>
</clipPath>
</defs>
</svg>
