<svg width="100%" height="100%" viewBox="0 0 52 75" fill="none" xmlns="http://www.w3.org/2000/svg">
<g clip-path="url(#clip0_2214_14239)">
<path d="M26.8538 18.6762C26.8538 15.7066 29.253 13.2873 32.198 13.2873H41.7605V0.17627H36.9792H32.198C22.0669 0.17627 13.8518 8.46026 13.8518 18.6762C13.8518 21.342 14.4146 23.876 15.4209 26.1632C7.55258 29.517 2.32787 36.643 1.11123 45.6607C-0.310067 55.5615 3.62409 66.2417 12.1917 71.4013C19.8383 76.2571 31.7942 75.9361 38.2528 69.1998V73.6716H51.5618V24.065H32.2036C29.2587 24.065 26.8538 21.6459 26.8538 18.6762ZM38.5484 37.1819V49.6336C38.5484 56.5131 33.0167 62.0854 26.2001 62.0854C19.3835 62.0854 13.8518 56.5073 13.8518 49.6336C13.8518 42.7599 19.3835 37.1819 26.2001 37.1819H38.5484Z" fill="#040404"/>
</g>
<defs>
<clipPath id="clip0_2214_14239">
<rect width="50.9113" height="74.714" fill="white" transform="translate(0.779785)"/>
</clipPath>
</defs>
</svg>
