<svg width="100%" height="100%" viewBox="0 0 185 60" fill="none" xmlns="http://www.w3.org/2000/svg">
<g clip-path="url(#clip0_2214_14244)">
<path d="M123.995 19.5308H113.319V58.461H123.995V19.5308Z" fill="white"/>
<path d="M163.885 19.126C152.934 19.1124 145.276 26.1984 143.909 36.2477C142.778 44.0974 145.91 52.5651 152.73 56.6559C158.817 60.5057 168.334 60.2512 173.475 54.9105V58.4557H184.069V39.3931C184.069 28.1983 175.032 19.126 163.885 19.126ZM163.885 49.2699C158.455 49.2699 154.056 44.8474 154.056 39.3978C154.056 33.948 158.459 29.5255 163.885 29.5255C169.312 29.5255 173.715 33.948 173.715 39.3978C173.715 44.8474 169.312 49.2699 163.885 49.2699Z" fill="white"/>
<path d="M71.288 14.8532C71.288 12.4988 73.1977 10.5807 75.542 10.5807H83.1537V0.185791H75.542C67.4773 0.185791 60.9378 6.75366 60.9378 14.8532C60.9378 16.9668 61.3858 18.9758 62.187 20.7893C55.9237 23.4483 51.7647 29.098 50.796 36.2476C49.6648 44.0972 52.7966 52.565 59.6165 56.6558C65.7033 60.5056 75.2207 60.2511 80.3615 54.9104V58.4556H90.956V19.1258H75.5463C73.202 19.1258 71.288 17.2077 71.288 14.8532ZM80.5969 29.5253V39.3974C80.5969 44.8516 76.1935 49.2698 70.7675 49.2698C65.3412 49.2698 60.9378 44.8473 60.9378 39.3974C60.9378 33.9479 65.3412 29.5253 70.7675 29.5253H80.5969Z" fill="white"/>
<path d="M118.694 0.185791C116.979 0.185791 115.563 0.776671 114.44 1.95843C113.318 3.14019 112.757 4.5674 112.757 6.23096C112.757 7.89449 113.318 9.38989 114.44 10.5444C115.563 11.6989 116.979 12.2761 118.694 12.2761C120.41 12.2761 121.889 11.6989 122.989 10.5444C124.084 9.38989 124.636 7.95358 124.636 6.23096C124.636 4.50831 124.089 3.14019 122.989 1.95843C121.894 0.776671 120.459 0.185791 118.694 0.185791Z" fill="white"/>
<path d="M26.2483 19.5305L12.8209 33.9615H10.5129V32.7663V0.186035H0V58.4606H10.5129V44.0293H12.8209L26.2483 58.4606H39.0874L20.9217 38.9931L39.0874 19.5305H26.2483Z" fill="white"/>
</g>
<defs>
<clipPath id="clip0_2214_14244">
<rect width="184.471" height="59.5067" fill="white" transform="translate(0 0.174316)"/>
</clipPath>
</defs>
</svg>
