<svg width="100%" height="100%" viewBox="0 0 200 200" fill="none" xmlns="http://www.w3.org/2000/svg">
<rect width="200" height="200" fill="#BFF009"/>
<path d="M128.937 64.7313C128.937 65.0486 128.931 65.3647 128.921 65.6795C119.942 62.2354 110.191 60.3482 100 60.3482C89.8088 60.3482 80.0583 62.2354 71.079 65.6795C71.0688 65.3647 71.0637 65.0486 71.0637 64.7313C71.0637 48.7502 84.019 35.7949 100 35.7949C115.981 35.7949 128.937 48.7502 128.937 64.7313Z" fill="#040404"/>
<path d="M71.0637 135.269C71.0637 134.952 71.0688 134.636 71.0789 134.321C80.0582 137.765 89.8088 139.652 100 139.652C110.191 139.652 119.942 137.765 128.921 134.321C128.931 134.636 128.937 134.952 128.937 135.269C128.937 151.25 115.981 164.206 100 164.206C84.019 164.206 71.0637 151.25 71.0637 135.269Z" fill="#040404"/>
<path d="M135.269 128.937C134.952 128.937 134.635 128.932 134.321 128.922C137.765 119.942 139.652 110.192 139.652 100C139.652 89.8091 137.765 80.0585 134.321 71.0792C134.635 71.0691 134.952 71.064 135.269 71.064C151.25 71.064 164.205 84.0192 164.205 100C164.205 115.982 151.25 128.937 135.269 128.937Z" fill="#040404"/>
<path d="M64.7312 71.0637C65.0485 71.0637 65.3646 71.0688 65.6794 71.0789C62.2353 80.0582 60.3481 89.8088 60.3481 100C60.3481 110.191 62.2353 119.942 65.6794 128.921C65.3646 128.931 65.0485 128.937 64.7312 128.937C48.7501 128.937 35.7948 115.981 35.7948 100C35.7948 84.019 48.7501 71.0637 64.7312 71.0637Z" fill="#040404"/>
</svg>
