<svg width="100%" height="100%" viewBox="0 0 200 200" fill="none" xmlns="http://www.w3.org/2000/svg">
<rect width="200" height="200" fill="#BFF009"/>
<path fill-rule="evenodd" clip-rule="evenodd" d="M104.115 58.1896C100.746 58.1896 98.0012 60.9327 98.0012 64.2999C98.0012 67.6672 100.753 70.4101 104.121 70.4101H126.267V126.658H111.042V121.587C103.653 129.226 89.9756 129.59 81.2278 124.084C71.4265 118.233 66.9258 106.123 68.5517 94.897C69.9436 84.6721 75.9207 76.592 84.922 72.7893C83.7708 70.1958 83.127 67.3226 83.127 64.2999C83.127 52.7163 92.525 43.3232 104.115 43.3232H115.055V58.1896H104.115ZM111.38 99.4018V85.2831H97.2535C89.4552 85.2831 83.127 91.6079 83.127 99.4018C83.127 107.196 89.4552 113.521 97.2535 113.521C105.052 113.521 111.38 107.202 111.38 99.4018Z" fill="#040404"/>
<path d="M55.8181 153.583H78.1268C84.2267 153.583 87.7501 155.638 89.7107 157.317C90.7487 158.205 91.4413 159.073 91.8475 159.663C92.049 159.955 92.1732 160.17 92.2281 160.27C92.2377 160.287 92.2451 160.301 92.2503 160.311C93.5728 163.11 96.3941 164.903 99.5 164.903C102.606 164.903 105.427 163.11 106.75 160.311C106.755 160.301 106.762 160.287 106.772 160.27C106.827 160.17 106.951 159.955 107.152 159.663C107.559 159.073 108.251 158.205 109.289 157.317C111.25 155.638 114.773 153.583 120.873 153.583H143.182V137.547H120.873C111.132 137.547 104.159 140.837 99.5 144.602C94.8408 140.837 87.8682 137.547 78.1268 137.547H55.8181V153.583Z" fill="#040404"/>
</svg>
