<svg width="32" height="32" viewBox="0 0 32 32" fill="none" xmlns="http://www.w3.org/2000/svg">
<path fill-rule="evenodd" clip-rule="evenodd" d="M23 13C23.5523 13 24 13.4477 24 14V26C24 26.5523 23.5523 27 23 27C22.4477 27 22 26.5523 22 26V14C22 13.4477 22.4477 13 23 13Z" fill="white"/>
<path fill-rule="evenodd" clip-rule="evenodd" d="M17.2929 20.2929C17.6834 19.9024 18.3166 19.9024 18.7071 20.2929L23 24.5858L27.2929 20.2929C27.6834 19.9024 28.3166 19.9024 28.7071 20.2929C29.0976 20.6834 29.0976 21.3166 28.7071 21.7071L23.7071 26.7071C23.3166 27.0976 22.6834 27.0976 22.2929 26.7071L17.2929 21.7071C16.9024 21.3166 16.9024 20.6834 17.2929 20.2929Z" fill="white"/>
<path fill-rule="evenodd" clip-rule="evenodd" d="M5 24C5 23.4477 5.44772 23 6 23H13C13.5523 23 14 23.4477 14 24C14 24.5523 13.5523 25 13 25H6C5.44772 25 5 24.5523 5 24Z" fill="white"/>
<path fill-rule="evenodd" clip-rule="evenodd" d="M5 8C5 7.44772 5.44772 7 6 7H23C23.5523 7 24 7.44772 24 8C24 8.55228 23.5523 9 23 9H6C5.44772 9 5 8.55228 5 8Z" fill="white"/>
<path fill-rule="evenodd" clip-rule="evenodd" d="M5 16C5 15.4477 5.44772 15 6 15H15C15.5523 15 16 15.4477 16 16C16 16.5523 15.5523 17 15 17H6C5.44772 17 5 16.5523 5 16Z" fill="white"/>
<path fill-rule="evenodd" clip-rule="evenodd" d="M4.5 8C4.5 7.17157 5.17157 6.5 6 6.5H23C23.8284 6.5 24.5 7.17157 24.5 8C24.5 8.82843 23.8284 9.5 23 9.5H6C5.17157 9.5 4.5 8.82843 4.5 8ZM6 7.5C5.72386 7.5 5.5 7.72386 5.5 8C5.5 8.27614 5.72386 8.5 6 8.5H23C23.2761 8.5 23.5 8.27614 23.5 8C23.5 7.72386 23.2761 7.5 23 7.5H6ZM21.5 14C21.5 13.1716 22.1716 12.5 23 12.5C23.8284 12.5 24.5 13.1716 24.5 14V22.3787L26.9393 19.9393C27.5251 19.3536 28.4749 19.3536 29.0607 19.9393C29.6464 20.5251 29.6464 21.4749 29.0607 22.0607L24.0607 27.0607C23.9164 27.2049 23.75 27.3137 23.5724 27.3869C23.4001 27.4581 23.2115 27.4981 23.0138 27.4999C23.0092 27.5 23.0046 27.5 23 27.5C22.9954 27.5 22.9908 27.5 22.9862 27.4999C22.7885 27.4981 22.5999 27.4581 22.4276 27.3869C22.25 27.3137 22.0836 27.2049 21.9393 27.0607L16.9393 22.0607C16.3536 21.4749 16.3536 20.5251 16.9393 19.9393C17.5251 19.3536 18.4749 19.3536 19.0607 19.9393L21.5 22.3787V14ZM21.5 23.7929L18.3536 20.6464C18.1583 20.4512 17.8417 20.4512 17.6464 20.6464C17.4512 20.8417 17.4512 21.1583 17.6464 21.3536L21.5 25.2071V23.7929ZM22.8086 26.4621C22.6274 26.3869 22.5 26.2083 22.5 26V24.7929L22.6464 24.9393C22.7402 25.0331 22.8674 25.0858 23 25.0858C23.1326 25.0858 23.2598 25.0331 23.3536 24.9393L23.5 24.7929V26C23.5 26.2083 23.3726 26.3869 23.1914 26.4621C23.1331 26.4862 23.0713 26.4988 23.0092 26.4999M24.5 25.2071L28.3536 21.3536C28.5488 21.1583 28.5488 20.8417 28.3536 20.6464C28.1583 20.4512 27.8417 20.4512 27.6464 20.6464L24.5 23.7929V25.2071ZM23.5 23.3787L23 23.8787L22.5 23.3787V14C22.5 13.7239 22.7239 13.5 23 13.5C23.2761 13.5 23.5 13.7239 23.5 14V23.3787ZM22.8086 26.4621C22.8601 26.4834 22.9158 26.4964 22.9743 26.4993C22.9828 26.4998 22.9914 26.5 23 26.5M4.5 16C4.5 15.1716 5.17157 14.5 6 14.5H15C15.8284 14.5 16.5 15.1716 16.5 16C16.5 16.8284 15.8284 17.5 15 17.5H6C5.17157 17.5 4.5 16.8284 4.5 16ZM6 15.5C5.72386 15.5 5.5 15.7239 5.5 16C5.5 16.2761 5.72386 16.5 6 16.5H15C15.2761 16.5 15.5 16.2761 15.5 16C15.5 15.7239 15.2761 15.5 15 15.5H6ZM4.5 24C4.5 23.1716 5.17157 22.5 6 22.5H13C13.8284 22.5 14.5 23.1716 14.5 24C14.5 24.8284 13.8284 25.5 13 25.5H6C5.17157 25.5 4.5 24.8284 4.5 24ZM6 23.5C5.72386 23.5 5.5 23.7239 5.5 24C5.5 24.2761 5.72386 24.5 6 24.5H13C13.2761 24.5 13.5 24.2761 13.5 24C13.5 23.7239 13.2761 23.5 13 23.5H6Z" fill="white"/>
</svg>
