<svg width="32" height="32" viewBox="0 0 32 32" fill="none" xmlns="http://www.w3.org/2000/svg">
<path fill-rule="evenodd" clip-rule="evenodd" d="M23 19C23.5523 19 24 18.5523 24 18V6C24 5.44772 23.5523 5 23 5C22.4477 5 22 5.44772 22 6V18C22 18.5523 22.4477 19 23 19Z" fill="white"/>
<path fill-rule="evenodd" clip-rule="evenodd" d="M17.2929 11.7071C17.6834 12.0976 18.3166 12.0976 18.7071 11.7071L23 7.41421L27.2929 11.7071C27.6834 12.0976 28.3166 12.0976 28.7071 11.7071C29.0976 11.3166 29.0976 10.6834 28.7071 10.2929L23.7071 5.29289C23.3166 4.90237 22.6834 4.90237 22.2929 5.29289L17.2929 10.2929C16.9024 10.6834 16.9024 11.3166 17.2929 11.7071Z" fill="white"/>
<path fill-rule="evenodd" clip-rule="evenodd" d="M5 8C5 8.55228 5.44772 9 6 9H13C13.5523 9 14 8.55228 14 8C14 7.44772 13.5523 7 13 7H6C5.44772 7 5 7.44772 5 8Z" fill="white"/>
<path fill-rule="evenodd" clip-rule="evenodd" d="M5 24C5 24.5523 5.44772 25 6 25H23C23.5523 25 24 24.5523 24 24C24 23.4477 23.5523 23 23 23H6C5.44772 23 5 23.4477 5 24Z" fill="white"/>
<path fill-rule="evenodd" clip-rule="evenodd" d="M5 16C5 16.5523 5.44772 17 6 17H15C15.5523 17 16 16.5523 16 16C16 15.4477 15.5523 15 15 15H6C5.44772 15 5 15.4477 5 16Z" fill="white"/>
<path fill-rule="evenodd" clip-rule="evenodd" d="M4.5 24C4.5 24.8284 5.17157 25.5 6 25.5H23C23.8284 25.5 24.5 24.8284 24.5 24C24.5 23.1716 23.8284 22.5 23 22.5H6C5.17157 22.5 4.5 23.1716 4.5 24ZM6 24.5C5.72386 24.5 5.5 24.2761 5.5 24C5.5 23.7239 5.72386 23.5 6 23.5H23C23.2761 23.5 23.5 23.7239 23.5 24C23.5 24.2761 23.2761 24.5 23 24.5H6ZM21.5 18C21.5 18.8284 22.1716 19.5 23 19.5C23.8284 19.5 24.5 18.8284 24.5 18V9.62132L26.9393 12.0607C27.5251 12.6464 28.4749 12.6464 29.0607 12.0607C29.6464 11.4749 29.6464 10.5251 29.0607 9.93934L24.0607 4.93934C23.9164 4.79505 23.75 4.6863 23.5724 4.6131C23.4001 4.54187 23.2115 4.50185 23.0138 4.50006C23.0092 4.50002 23.0046 4.5 23 4.5C22.9954 4.5 22.9908 4.50002 22.9862 4.50006C22.7885 4.50185 22.5999 4.54187 22.4276 4.6131C22.25 4.6863 22.0836 4.79505 21.9393 4.93934L16.9393 9.93934C16.3536 10.5251 16.3536 11.4749 16.9393 12.0607C17.5251 12.6464 18.4749 12.6464 19.0607 12.0607L21.5 9.62132V18ZM21.5 8.20711L18.3536 11.3536C18.1583 11.5488 17.8417 11.5488 17.6464 11.3536C17.4512 11.1583 17.4512 10.8417 17.6464 10.6464L21.5 6.79289V8.20711ZM22.8086 5.53794C22.6274 5.61307 22.5 5.79165 22.5 6V7.20711L22.6464 7.06066C22.7402 6.96689 22.8674 6.91421 23 6.91421C23.1326 6.91421 23.2598 6.96689 23.3536 7.06066L23.5 7.20711V6C23.5 5.79165 23.3726 5.61307 23.1914 5.53794C23.1331 5.51384 23.0713 5.50122 23.0092 5.50008M24.5 6.79289L28.3536 10.6464C28.5488 10.8417 28.5488 11.1583 28.3536 11.3536C28.1583 11.5488 27.8417 11.5488 27.6464 11.3536L24.5 8.20711V6.79289ZM23.5 8.62132L23 8.12132L22.5 8.62132V18C22.5 18.2761 22.7239 18.5 23 18.5C23.2761 18.5 23.5 18.2761 23.5 18V8.62132ZM22.8086 5.53794C22.8601 5.5166 22.9158 5.50361 22.9743 5.50065C22.9828 5.50022 22.9914 5.5 23 5.5M4.5 16C4.5 16.8284 5.17157 17.5 6 17.5H15C15.8284 17.5 16.5 16.8284 16.5 16C16.5 15.1716 15.8284 14.5 15 14.5H6C5.17157 14.5 4.5 15.1716 4.5 16ZM6 16.5C5.72386 16.5 5.5 16.2761 5.5 16C5.5 15.7239 5.72386 15.5 6 15.5H15C15.2761 15.5 15.5 15.7239 15.5 16C15.5 16.2761 15.2761 16.5 15 16.5H6ZM4.5 8C4.5 8.82843 5.17157 9.5 6 9.5H13C13.8284 9.5 14.5 8.82843 14.5 8C14.5 7.17157 13.8284 6.5 13 6.5H6C5.17157 6.5 4.5 7.17157 4.5 8ZM6 8.5C5.72386 8.5 5.5 8.27614 5.5 8C5.5 7.72386 5.72386 7.5 6 7.5H13C13.2761 7.5 13.5 7.72386 13.5 8C13.5 8.27614 13.2761 8.5 13 8.5H6Z" fill="white"/>
</svg>
