<svg width="33" height="32" viewBox="0 0 33 32" fill="none" xmlns="http://www.w3.org/2000/svg">
<path fill-rule="evenodd" clip-rule="evenodd" d="M11.0003 5.5C10.4447 5.5 9.93458 5.80712 9.67462 6.29817L0.674618 23.2982C0.287007 24.0303 0.566314 24.9381 1.29847 25.3257C2.03062 25.7133 2.93837 25.434 3.32598 24.7018L5.55048 20.5H16.4501L18.6746 24.7018C19.0622 25.434 19.97 25.7133 20.7021 25.3257C21.4343 24.9381 21.7136 24.0303 21.326 23.2982L12.326 6.29817C12.066 5.80712 11.5559 5.5 11.0003 5.5ZM14.8619 17.5H7.13872L11.0003 10.2059L14.8619 17.5Z" fill="white"/>
<path fill-rule="evenodd" clip-rule="evenodd" d="M22.9615 12.9681C24.0488 11.9241 25.5017 11.3478 27.0088 11.3626C29.8474 11.3666 32.5003 13.4136 32.5003 16.3626V24.0001C32.5003 24.8285 31.8288 25.5001 31.0003 25.5001C30.5944 25.5001 30.2265 25.3388 29.9568 25.0775C29.0855 25.5802 28.0615 25.8623 27.0003 25.8623C24.1613 25.8623 21.5003 23.8092 21.5003 20.8623C21.5003 17.9154 24.1613 15.8623 27.0003 15.8623C27.8814 15.8623 28.7368 16.0568 29.5003 16.4105V16.3626C29.5003 15.4294 28.5721 14.3626 27.0003 14.3626L26.9835 14.3625C26.2596 14.3544 25.5614 14.6307 25.0392 15.1321C24.4416 15.7058 23.4921 15.6865 22.9183 15.0889C22.3446 14.4914 22.3639 13.5418 22.9615 12.9681ZM24.5003 20.8623C24.5003 19.9333 25.4324 18.8623 27.0003 18.8623C28.5683 18.8623 29.5003 19.9333 29.5003 20.8623C29.5003 21.7913 28.5683 22.8623 27.0003 22.8623C25.4324 22.8623 24.5003 21.7913 24.5003 20.8623Z" fill="white"/>
</svg>
