<svg width="32" height="33" viewBox="0 0 32 33" fill="none" xmlns="http://www.w3.org/2000/svg">
<path d="M10.8159 4.45236C12.4156 3.53367 14.2318 3.05925 16.0765 3.07818C21.8766 3.12332 26.4754 7.93236 26.4754 13.6906V14.5781C26.4754 17.7568 26.975 19.8557 27.4978 21.1953C27.799 21.9671 27.4175 22.8368 26.6457 23.138C25.874 23.4392 25.0042 23.0577 24.703 22.2859C24.0258 20.5505 23.4754 18.0744 23.4754 14.5781V13.6906C23.4754 9.52545 20.1483 6.10911 16.0487 6.07805L16.0472 6.07804C14.7367 6.06431 13.4464 6.40123 12.3099 7.05389C11.5915 7.46644 10.6747 7.21852 10.2621 6.50012C9.84959 5.78173 10.0975 4.86491 10.8159 4.45236Z" fill="white"/>
<path fill-rule="evenodd" clip-rule="evenodd" d="M4.99136 4.46822C5.60435 3.91096 6.55302 3.95614 7.11028 4.56912L24.337 23.5186C24.3701 23.5517 24.4016 23.5864 24.4315 23.6225L27.1103 26.5691C27.6675 27.1821 27.6224 28.1308 27.0094 28.688C26.3964 29.2453 25.4477 29.2001 24.8905 28.5871L22.6096 26.0782H21.4776C21.3612 27.3535 20.8024 28.5543 19.8895 29.4672C18.858 30.4987 17.4591 31.0781 16.0004 31.0781C14.5417 31.0781 13.1427 30.4987 12.1113 29.4672C11.1984 28.5543 10.6395 27.3535 10.5231 26.0782L6.12186 26.0782L6.1201 26.0782C5.68201 26.0767 5.25201 25.96 4.87319 25.74C4.49436 25.5199 4.18002 25.2042 3.96164 24.8244C3.74326 24.4446 3.62852 24.0141 3.62891 23.576C3.6293 23.1379 3.7448 22.7076 3.96385 22.3282L3.96461 22.3269C4.63381 21.171 5.52539 18.8407 5.52539 14.5782L5.52539 13.5787C5.52455 11.8495 5.94865 10.1526 6.75234 8.6352L4.89046 6.58714C4.3332 5.97415 4.37838 5.02548 4.99136 4.46822ZM8.52538 13.5774C8.5249 12.7149 8.67215 11.8637 8.95614 11.0594L19.8824 23.0782H6.95577C7.78936 21.3281 8.52538 18.6332 8.52538 14.5782L8.52538 13.5774ZM13.5509 26.0782C13.6482 26.5549 13.8834 26.9967 14.2326 27.3459C14.7014 27.8147 15.3373 28.0781 16.0004 28.0781C16.6634 28.0781 17.2993 27.8147 17.7681 27.3459C18.1173 26.9967 18.3525 26.5549 18.4498 26.0782H13.5509Z" fill="white"/>
</svg>
