<svg width="32" height="33" viewBox="0 0 32 33" fill="none" xmlns="http://www.w3.org/2000/svg">
<path fill-rule="evenodd" clip-rule="evenodd" d="M4.98746 4.46871C5.60044 3.91145 6.54912 3.95662 7.10638 4.56961L24.3331 23.519C24.3662 23.5522 24.3977 23.5868 24.4276 23.623L27.1064 26.5696C27.6636 27.1826 27.6185 28.1313 27.0055 28.6885C26.3925 29.2458 25.4438 29.2006 24.8866 28.5876L22.6057 26.0787H21.4737C21.3573 27.354 20.7985 28.5548 19.8855 29.4677C18.8541 30.4991 17.4552 31.0786 15.9965 31.0786C14.5378 31.0786 13.1388 30.4991 12.1074 29.4677C11.1945 28.5548 10.6356 27.354 10.5192 26.0787L6.11796 26.0787L6.1162 26.0787C5.67811 26.0772 5.24811 25.9605 4.86928 25.7405C4.49046 25.5204 4.17611 25.2047 3.95773 24.8249C3.73936 24.4451 3.62461 24.0146 3.625 23.5765C3.62539 23.1384 3.74089 22.7081 3.95995 22.3287L3.96071 22.3274C4.6299 21.1715 5.52148 18.8412 5.52148 14.5787L5.52148 13.5792C5.52065 11.85 5.94474 10.1531 6.74843 8.63569L4.88656 6.58763C4.3293 5.97464 4.37447 5.02597 4.98746 4.46871ZM8.52148 13.5779C8.52099 12.7154 8.66824 11.8642 8.95224 11.0599L19.8784 23.0787H6.95186C7.78545 21.3285 8.52148 18.6337 8.52148 14.5787L8.52148 13.5779ZM13.547 26.0787C13.6443 26.5554 13.8795 26.9972 14.2287 27.3464C14.6975 27.8152 15.3334 28.0786 15.9965 28.0786C16.6595 28.0786 17.2954 27.8152 17.7642 27.3464C18.1134 26.9972 18.3486 26.5554 18.4459 26.0787H13.547Z" fill="white"/>
<path d="M8.52148 13.5779C8.52099 12.7154 8.66824 11.8642 8.95224 11.0599L19.8784 23.0787H6.95186C7.78545 21.3285 8.52148 18.6337 8.52148 14.5787L8.52148 13.5779Z" fill="white"/>
<path d="M16.0725 3.07867C14.2279 3.05974 12.4117 3.53416 10.812 4.45285C10.0936 4.8654 9.84569 5.78222 10.2582 6.50061C10.3326 6.6301 10.4234 6.74431 10.5264 6.84211L25.0908 22.8545C25.4989 23.2225 26.095 23.3519 26.6418 23.1385C27.4136 22.8373 27.795 21.9675 27.4939 21.1958C26.9711 19.8562 26.4715 17.7573 26.4715 14.5786V13.6911C26.4715 7.93285 21.8727 3.12381 16.0725 3.07867Z" fill="white"/>
</svg>
