<svg width="32" height="32" viewBox="0 0 32 32" fill="none" xmlns="http://www.w3.org/2000/svg">
<path d="M21.7071 11.2929C22.0976 11.6834 22.0976 12.3166 21.7071 12.7071L18.4142 16L21.7071 19.2929C22.0976 19.6834 22.0976 20.3166 21.7071 20.7071C21.3166 21.0976 20.6834 21.0976 20.2929 20.7071L16.2929 16.7071C15.9024 16.3166 15.9024 15.6834 16.2929 15.2929L20.2929 11.2929C20.6834 10.9024 21.3166 10.9024 21.7071 11.2929Z" fill="white"/>
<path d="M14.7071 12.7071C15.0976 12.3166 15.0976 11.6834 14.7071 11.2929C14.3166 10.9024 13.6834 10.9024 13.2929 11.2929L9.29289 15.2929C8.90237 15.6834 8.90237 16.3166 9.29289 16.7071L13.2929 20.7071C13.6834 21.0976 14.3166 21.0976 14.7071 20.7071C15.0976 20.3166 15.0976 19.6834 14.7071 19.2929L11.4142 16L14.7071 12.7071Z" fill="white"/>
<path fill-rule="evenodd" clip-rule="evenodd" d="M3 16C3 8.8203 8.8203 3 16 3C23.1797 3 29 8.8203 29 16C29 23.1797 23.1797 29 16 29C8.8203 29 3 23.1797 3 16ZM16 5C9.92487 5 5 9.92487 5 16C5 22.0751 9.92487 27 16 27C22.0751 27 27 22.0751 27 16C27 9.92487 22.0751 5 16 5Z" fill="white"/>
<path fill-rule="evenodd" clip-rule="evenodd" d="M16 3.5C9.09644 3.5 3.5 9.09644 3.5 16C3.5 22.9036 9.09644 28.5 16 28.5C22.9036 28.5 28.5 22.9036 28.5 16C28.5 9.09644 22.9036 3.5 16 3.5ZM2.5 16C2.5 8.54416 8.54416 2.5 16 2.5C23.4558 2.5 29.5 8.54416 29.5 16C29.5 23.4558 23.4558 29.5 16 29.5C8.54416 29.5 2.5 23.4558 2.5 16ZM4.5 16C4.5 9.64873 9.64873 4.5 16 4.5C22.3513 4.5 27.5 9.64873 27.5 16C27.5 22.3513 22.3513 27.5 16 27.5C9.64873 27.5 4.5 22.3513 4.5 16ZM16 5.5C10.201 5.5 5.5 10.201 5.5 16C5.5 21.799 10.201 26.5 16 26.5C21.799 26.5 26.5 21.799 26.5 16C26.5 10.201 21.799 5.5 16 5.5ZM12.9393 10.9393C13.5251 10.3536 14.4749 10.3536 15.0607 10.9393C15.6464 11.5251 15.6464 12.4749 15.0607 13.0607L12.1213 16L15.0607 18.9393C15.6464 19.5251 15.6464 20.4749 15.0607 21.0607C14.4749 21.6464 13.5251 21.6464 12.9393 21.0607L8.93934 17.0607C8.35355 16.4749 8.35355 15.5251 8.93934 14.9393L12.9393 10.9393ZM14.3536 11.6464C14.1583 11.4512 13.8417 11.4512 13.6464 11.6464L9.64645 15.6464C9.45118 15.8417 9.45118 16.1583 9.64645 16.3536L13.6464 20.3536C13.8417 20.5488 14.1583 20.5488 14.3536 20.3536C14.5488 20.1583 14.5488 19.8417 14.3536 19.6464L11.0607 16.3536C10.9669 16.2598 10.9142 16.1326 10.9142 16C10.9142 15.8674 10.9669 15.7402 11.0607 15.6464L14.3536 12.3536C14.5488 12.1583 14.5488 11.8417 14.3536 11.6464ZM21.3536 11.6464C21.1583 11.4512 20.8417 11.4512 20.6464 11.6464L16.6464 15.6464C16.4512 15.8417 16.4512 16.1583 16.6464 16.3536L20.6464 20.3536C20.8417 20.5488 21.1583 20.5488 21.3536 20.3536C21.5488 20.1583 21.5488 19.8417 21.3536 19.6464L18.0607 16.3536C17.9669 16.2598 17.9142 16.1326 17.9142 16C17.9142 15.8674 17.9669 15.7402 18.0607 15.6464L21.3536 12.3536C21.5488 12.1583 21.5488 11.8417 21.3536 11.6464ZM22.0607 10.9393C22.6464 11.5251 22.6464 12.4749 22.0607 13.0607L19.1213 16L22.0607 18.9393C22.6464 19.5251 22.6464 20.4749 22.0607 21.0607C21.4749 21.6464 20.5251 21.6464 19.9393 21.0607L15.9393 17.0607C15.3536 16.4749 15.3536 15.5251 15.9393 14.9393L19.9393 10.9393C20.5251 10.3536 21.4749 10.3536 22.0607 10.9393Z" fill="white"/>
</svg>
