<svg width="32" height="32" viewBox="0 0 32 32" fill="none" xmlns="http://www.w3.org/2000/svg">
<path d="M17 6.23077C17 5.55103 16.5523 5 16 5C15.4477 5 15 5.55103 15 6.23077V19.7692C15 20.449 15.4477 21 16 21C16.5523 21 17 20.449 17 19.7692V6.23077Z" fill="white"/>
<path d="M17.5 25.5C17.5 26.3284 16.8284 27 16 27C15.1716 27 14.5 26.3284 14.5 25.5C14.5 24.6716 15.1716 24 16 24C16.8284 24 17.5 24.6716 17.5 25.5Z" fill="white"/>
<path fill-rule="evenodd" clip-rule="evenodd" d="M14.5 6.23077C14.5 5.37691 15.0796 4.5 16 4.5C16.9204 4.5 17.5 5.37691 17.5 6.23077V19.7692C17.5 20.6231 16.9204 21.5 16 21.5C15.0796 21.5 14.5 20.6231 14.5 19.7692V6.23077ZM16 5.5C15.8159 5.5 15.5 5.72516 15.5 6.23077V19.7692C15.5 20.2748 15.8159 20.5 16 20.5C16.1841 20.5 16.5 20.2748 16.5 19.7692V6.23077C16.5 5.72516 16.1841 5.5 16 5.5ZM16 24.5C15.4477 24.5 15 24.9477 15 25.5C15 26.0523 15.4477 26.5 16 26.5C16.5523 26.5 17 26.0523 17 25.5C17 24.9477 16.5523 24.5 16 24.5ZM14 25.5C14 24.3954 14.8954 23.5 16 23.5C17.1046 23.5 18 24.3954 18 25.5C18 26.6046 17.1046 27.5 16 27.5C14.8954 27.5 14 26.6046 14 25.5Z" fill="white"/>
</svg>
