<svg width="32" height="32" viewBox="0 0 32 32" fill="none" xmlns="http://www.w3.org/2000/svg">
<path d="M10.2929 11.2929C10.6834 10.9024 11.3166 10.9024 11.7071 11.2929L15.7071 15.2929C16.0976 15.6834 16.0976 16.3166 15.7071 16.7071L11.7071 20.7071C11.3166 21.0976 10.6834 21.0976 10.2929 20.7071C9.90237 20.3166 9.90237 19.6834 10.2929 19.2929L13.5858 16L10.2929 12.7071C9.90237 12.3166 9.90237 11.6834 10.2929 11.2929Z" fill="white"/>
<path d="M18.7071 11.2929C18.3166 10.9024 17.6834 10.9024 17.2929 11.2929C16.9024 11.6834 16.9024 12.3166 17.2929 12.7071L20.5858 16L17.2929 19.2929C16.9024 19.6834 16.9024 20.3166 17.2929 20.7071C17.6834 21.0976 18.3166 21.0976 18.7071 20.7071L22.7071 16.7071C23.0976 16.3166 23.0976 15.6834 22.7071 15.2929L18.7071 11.2929Z" fill="white"/>
<path fill-rule="evenodd" clip-rule="evenodd" d="M3 16C3 8.8203 8.8203 3 16 3C23.1797 3 29 8.8203 29 16C29 23.1797 23.1797 29 16 29C8.8203 29 3 23.1797 3 16ZM16 5C9.92487 5 5 9.92487 5 16C5 22.0751 9.92487 27 16 27C22.0751 27 27 22.0751 27 16C27 9.92487 22.0751 5 16 5Z" fill="white"/>
<path fill-rule="evenodd" clip-rule="evenodd" d="M16 3.5C9.09644 3.5 3.5 9.09644 3.5 16C3.5 22.9036 9.09644 28.5 16 28.5C22.9036 28.5 28.5 22.9036 28.5 16C28.5 9.09644 22.9036 3.5 16 3.5ZM2.5 16C2.5 8.54416 8.54416 2.5 16 2.5C23.4558 2.5 29.5 8.54416 29.5 16C29.5 23.4558 23.4558 29.5 16 29.5C8.54416 29.5 2.5 23.4558 2.5 16ZM4.5 16C4.5 9.64873 9.64873 4.5 16 4.5C22.3513 4.5 27.5 9.64873 27.5 16C27.5 22.3513 22.3513 27.5 16 27.5C9.64873 27.5 4.5 22.3513 4.5 16ZM16 5.5C10.201 5.5 5.5 10.201 5.5 16C5.5 21.799 10.201 26.5 16 26.5C21.799 26.5 26.5 21.799 26.5 16C26.5 10.201 21.799 5.5 16 5.5ZM11.3536 11.6464C11.1583 11.4512 10.8417 11.4512 10.6464 11.6464C10.4512 11.8417 10.4512 12.1583 10.6464 12.3536L13.9393 15.6464C14.0331 15.7402 14.0858 15.8674 14.0858 16C14.0858 16.1326 14.0331 16.2598 13.9393 16.3536L10.6464 19.6464C10.4512 19.8417 10.4512 20.1583 10.6464 20.3536C10.8417 20.5488 11.1583 20.5488 11.3536 20.3536L15.3536 16.3536C15.5488 16.1583 15.5488 15.8417 15.3536 15.6464L11.3536 11.6464ZM9.93934 10.9393C10.5251 10.3536 11.4749 10.3536 12.0607 10.9393L16.0607 14.9393C16.6464 15.5251 16.6464 16.4749 16.0607 17.0607L12.0607 21.0607C11.4749 21.6464 10.5251 21.6464 9.93934 21.0607C9.35355 20.4749 9.35355 19.5251 9.93934 18.9393L12.8787 16L9.93934 13.0607C9.35355 12.4749 9.35355 11.5251 9.93934 10.9393ZM16.9393 10.9393C17.5251 10.3536 18.4749 10.3536 19.0607 10.9393L23.0607 14.9393C23.6464 15.5251 23.6464 16.4749 23.0607 17.0607L19.0607 21.0607C18.4749 21.6464 17.5251 21.6464 16.9393 21.0607C16.3536 20.4749 16.3536 19.5251 16.9393 18.9393L19.8787 16L16.9393 13.0607C16.3536 12.4749 16.3536 11.5251 16.9393 10.9393ZM18.3536 11.6464C18.1583 11.4512 17.8417 11.4512 17.6464 11.6464C17.4512 11.8417 17.4512 12.1583 17.6464 12.3536L20.9393 15.6464C21.0331 15.7402 21.0858 15.8674 21.0858 16C21.0858 16.1326 21.0331 16.2598 20.9393 16.3536L17.6464 19.6464C17.4512 19.8417 17.4512 20.1583 17.6464 20.3536C17.8417 20.5488 18.1583 20.5488 18.3536 20.3536L22.3536 16.3536C22.5488 16.1583 22.5488 15.8417 22.3536 15.6464L18.3536 11.6464Z" fill="white"/>
</svg>
