<svg width="32" height="32" viewBox="0 0 32 32" fill="none" xmlns="http://www.w3.org/2000/svg">
<path fill-rule="evenodd" clip-rule="evenodd" d="M20 2.41406C19.7348 2.41406 19.4723 2.46681 19.2276 2.56925C18.9844 2.6711 18.7637 2.82005 18.5782 3.00751L11.2495 10.3363L11.1912 10.3183C10.7442 10.1828 10.1122 10.0412 9.34934 10.0071C7.80604 9.93822 5.76439 10.3136 3.69598 11.985C3.4775 12.1618 3.29873 12.3827 3.17134 12.6332C3.04395 12.8838 2.97079 13.1583 2.95664 13.439C2.94249 13.7197 2.98766 14.0003 3.0892 14.2623C3.19045 14.5237 3.34548 14.7608 3.54424 14.9583L3.54598 14.96L9.5859 21L5.29295 25.2929C4.90243 25.6834 4.90243 26.3166 5.29295 26.7071C5.68348 27.0976 6.31664 27.0976 6.70717 26.7071L11.0001 22.4142L17.0154 28.4295C17.2165 28.633 17.4588 28.791 17.7262 28.8929C17.9951 28.9954 18.283 29.0386 18.5702 29.0196C18.8574 29.0006 19.1371 28.9199 19.3902 28.7829C19.6429 28.6461 19.8631 28.4565 20.0359 28.2271C21.0364 26.9046 22.8547 23.9105 21.6869 20.7273L28.9925 13.4216C29.1799 13.2362 29.3289 13.0155 29.4307 12.7723C29.5331 12.5277 29.5859 12.2651 29.5859 11.9999C29.5859 11.7347 29.5331 11.4721 29.4307 11.2275C29.3288 10.9842 29.1799 10.7636 28.9925 10.5781L21.4218 3.00742C21.2364 2.82 21.0157 2.67108 20.7725 2.56925C20.5278 2.46681 20.2653 2.41406 20 2.41406ZM20 4.41408L27.5804 11.9945L27.5859 11.9999L19.7929 19.7928C19.4881 20.0976 19.4129 20.5634 19.6064 20.9487C20.7592 23.2442 19.4693 25.6615 18.4401 27.0214L18.4383 27.0239L4.95716 13.5428L4.9541 13.5397C6.598 12.2116 8.14417 11.9553 9.26012 12.0051C9.82696 12.0305 10.2926 12.1357 10.6109 12.2323C10.7695 12.2804 10.8898 12.3258 10.9658 12.3568C11.0037 12.3723 11.0303 12.3841 11.0449 12.3908L11.0574 12.3966C11.4414 12.5862 11.904 12.5102 12.2072 12.207L19.9947 4.41952L20 4.41408Z" fill="white"/>
<path fill-rule="evenodd" clip-rule="evenodd" d="M19.0345 2.10804C19.3403 1.98 19.6685 1.91406 20 1.91406C20.3316 1.91406 20.6598 1.98 20.9656 2.10804C21.2691 2.23514 21.5446 2.42091 21.7761 2.65466C21.7765 2.65503 21.7769 2.65539 21.7772 2.65575L29.3442 10.2227C29.3445 10.2231 29.3449 10.2234 29.3452 10.2238C29.579 10.4553 29.7648 10.7308 29.8919 11.0343C30.0199 11.3401 30.0859 11.6684 30.0859 11.9999C30.0859 12.3314 30.0199 12.6596 29.8919 12.9654C29.7648 13.269 29.579 13.5444 29.3453 13.776C29.3449 13.7763 29.3446 13.7767 29.3442 13.777L22.2603 20.8609C23.3041 24.188 21.4173 27.2298 20.4347 28.5287C20.2187 28.8152 19.9437 29.0518 19.6282 29.2226C19.3118 29.3938 18.9622 29.4948 18.6032 29.5185C18.2442 29.5422 17.8843 29.4882 17.5482 29.3601C17.2145 29.233 16.912 29.0359 16.6609 28.7821C16.6605 28.7817 16.6601 28.7813 16.6597 28.7809L11.0001 23.1213L7.06072 27.0607C6.47493 27.6464 5.52519 27.6464 4.9394 27.0607C4.35362 26.4749 4.35361 25.5251 4.9394 24.9393L8.87879 21L3.19374 15.3149L3.19243 15.3136C2.94399 15.0667 2.74954 14.7696 2.62298 14.443C2.49604 14.1154 2.43958 13.7647 2.45727 13.4139C2.47496 13.063 2.56641 12.7198 2.72565 12.4066C2.88489 12.0934 3.10835 11.8174 3.38146 11.5964C5.55596 9.83918 7.72158 9.43395 9.37164 9.50763C10.0603 9.53838 10.6495 9.65145 11.1049 9.77372L18.2228 2.65587C18.2231 2.65553 18.2234 2.65519 18.2238 2.65484C18.4554 2.421 18.7309 2.23517 19.0345 2.10804ZM20 2.91406C19.8011 2.91406 19.6042 2.95363 19.4207 3.03045C19.2383 3.10684 19.0728 3.21855 18.9337 3.35915L18.9318 3.36106L11.603 10.6898C11.472 10.8208 11.2793 10.8686 11.1022 10.8141L11.0461 10.7968C11.0458 10.7967 11.0464 10.7969 11.0461 10.7968C10.6314 10.6711 10.0404 10.5385 9.32703 10.5066C7.8905 10.4425 5.97254 10.7882 4.01024 12.3739C3.8465 12.5065 3.71252 12.6721 3.61703 12.8599C3.52149 13.0478 3.46662 13.2537 3.456 13.4642C3.44539 13.6747 3.47927 13.8851 3.55543 14.0817C3.63133 14.2776 3.74752 14.4553 3.89648 14.6034M3.89648 14.6034L3.89954 14.6065L9.93945 20.6464C10.1347 20.8417 10.1347 21.1582 9.93945 21.3535L5.64651 25.6464C5.45125 25.8417 5.45125 26.1583 5.64651 26.3536C5.84177 26.5488 6.15835 26.5488 6.35361 26.3536L10.6466 22.0606C10.7403 21.9668 10.8675 21.9142 11.0001 21.9142C11.1327 21.9142 11.2599 21.9668 11.3537 22.0606L17.3711 28.0781C17.5219 28.2307 17.7037 28.3493 17.9042 28.4256C18.1059 28.5025 18.3218 28.5349 18.5372 28.5207C18.7526 28.5064 18.9624 28.4459 19.1522 28.3431C19.3417 28.2406 19.5069 28.0984 19.6365 27.9263L19.6372 27.9254C20.6254 26.6192 22.2891 23.8206 21.2175 20.8995C21.1504 20.7166 21.1956 20.5115 21.3333 20.3737L28.639 13.0681L28.6409 13.0662C28.7814 12.9271 28.8931 12.7616 28.9695 12.5792C29.0463 12.3957 29.0859 12.1988 29.0859 11.9999C29.0859 11.801 29.0463 11.604 28.9695 11.4206C28.8931 11.2381 28.7814 11.0726 28.6408 10.9336L28.6389 10.9317L21.0682 3.36097L21.0663 3.35908C20.9273 3.21852 20.7618 3.10683 20.5794 3.03045C20.3959 2.95363 20.199 2.91406 20 2.91406M19.9981 3.91409C20.1314 3.91357 20.2593 3.96629 20.3536 4.06053L27.9326 11.6395L27.934 11.6409L27.938 11.6449C28.0324 11.7385 28.0856 11.8659 28.0858 11.9989C28.0861 12.1318 28.0334 12.2594 27.9394 12.3534L20.1465 20.1463C19.9941 20.2987 19.9565 20.5317 20.0532 20.7243C20.7006 22.0134 20.6537 23.3275 20.3218 24.4748C19.9919 25.6151 19.3752 26.6143 18.8394 27.3225C18.8392 27.3227 18.8396 27.3222 18.8394 27.3225L18.8382 27.3241C18.7512 27.44 18.6182 27.5124 18.4736 27.5227C18.3291 27.5329 18.1872 27.4799 18.0847 27.3775L4.60512 13.8978L4.6036 13.8963L4.60206 13.8948C4.5011 13.7947 4.44753 13.6564 4.45475 13.5144C4.46196 13.3724 4.52928 13.2402 4.63987 13.1508C6.38976 11.737 8.05956 11.451 9.28243 11.5056C9.89826 11.5331 10.4055 11.6475 10.7559 11.7538C10.9309 11.8068 11.066 11.8576 11.1549 11.8939C11.1993 11.9121 11.2321 11.9266 11.2526 11.9359L11.2559 11.9374L11.2788 11.9481C11.4708 12.0429 11.702 12.005 11.8536 11.8534L19.6384 4.06869L19.6411 4.06596L19.6438 4.06326C19.7373 3.9683 19.8648 3.9146 19.9981 3.91409ZM20.0001 5.12123L12.5607 12.5606C12.1074 13.0139 11.4167 13.1286 10.8417 12.8477L10.8372 12.8456C10.8368 12.8454 10.8363 12.8452 10.8358 12.845C10.8264 12.8407 10.8064 12.8318 10.7766 12.8196C10.7137 12.7939 10.6081 12.7539 10.4658 12.7107C10.1796 12.624 9.75565 12.5278 9.23782 12.5046C8.32721 12.464 7.07985 12.6445 5.71483 13.5933L18.3737 26.2523C18.7627 25.6687 19.1402 24.9609 19.3612 24.1969C19.6433 23.2217 19.665 22.1795 19.1596 21.173C18.8694 20.5952 18.9822 19.8965 19.4394 19.4392L26.8787 11.9999L20.0001 5.12123Z" fill="white"/>
</svg>
