<svg width="32" height="32" viewBox="0 0 32 32" fill="none" xmlns="http://www.w3.org/2000/svg">
<path d="M20 2.41406C19.7348 2.41406 19.4723 2.46681 19.2276 2.56925C18.9843 2.67111 18.7636 2.82007 18.5782 3.00755L13.8429 7.74278C13.4524 8.13331 13.4524 8.76647 13.8429 9.157C14.2335 9.54752 14.8666 9.54752 15.2572 9.157L19.9947 4.41952L20 4.41408L27.5804 11.9945L27.5859 11.9999L22.4054 17.1803C22.0149 17.5708 22.0149 18.204 22.4054 18.5945C22.796 18.985 23.4291 18.985 23.8197 18.5945L28.9924 13.4218C29.1799 13.2363 29.3288 13.0156 29.4307 12.7723C29.5331 12.5277 29.5859 12.2651 29.5859 11.9999C29.5859 11.7347 29.5331 11.4721 29.4307 11.2275C29.3288 10.9842 29.1798 10.7634 28.9923 10.578L21.4219 3.00755C21.2365 2.82007 21.0158 2.67111 20.7725 2.56925C20.5278 2.46681 20.2653 2.41406 20 2.41406Z" fill="white"/>
<path fill-rule="evenodd" clip-rule="evenodd" d="M6.74001 4.32733C6.3685 3.91868 5.73605 3.88856 5.3274 4.26007C4.91874 4.63157 4.88862 5.26402 5.26013 5.67268L9.19574 10.0019C7.67198 9.96428 5.69702 10.3681 3.69652 11.9846C3.47804 12.1614 3.29873 12.3827 3.17134 12.6333C3.04395 12.8838 2.97079 13.1584 2.95664 13.4391C2.94249 13.7198 2.98766 14.0003 3.0892 14.2624C3.19044 14.5237 3.34545 14.7607 3.54417 14.9583L3.54598 14.9601L9.58588 21L5.29295 25.2929C4.90243 25.6834 4.90243 26.3166 5.29295 26.7071C5.68348 27.0976 6.31664 27.0976 6.70717 26.7071L11.0001 22.4142L17.0154 28.4295C17.2165 28.633 17.4588 28.7911 17.7262 28.8929C17.9951 28.9954 18.283 29.0386 18.5702 29.0196C18.8574 29.0006 19.1371 28.9199 19.3902 28.7829C19.6432 28.646 19.8637 28.4561 20.0366 28.2262C20.6794 27.3718 21.6432 25.8529 21.9569 24.0391L25.2601 27.6727C25.6316 28.0813 26.2641 28.1115 26.6727 27.7399C27.0814 27.3684 27.1115 26.736 26.74 26.3273L6.74001 4.32733ZM11.0574 12.3966C11.1877 12.461 11.3271 12.4947 11.4662 12.4994L19.9255 21.8046C20.3317 23.3847 19.7339 24.9694 19.0258 26.152C18.8321 26.4755 18.6302 26.7689 18.4383 27.024L4.95716 13.5428L4.9541 13.5398C6.598 12.2116 8.14417 11.9554 9.26012 12.0052C9.82696 12.0305 10.2926 12.1358 10.6109 12.2323C10.7695 12.2804 10.8898 12.3258 10.9658 12.3568C11.0037 12.3723 11.0303 12.3841 11.0449 12.3908L11.0574 12.3966Z" fill="white"/>
<path fill-rule="evenodd" clip-rule="evenodd" d="M19.0345 2.10804C19.3403 1.98 19.6685 1.91406 20 1.91406C20.3316 1.91406 20.6598 1.98 20.9656 2.10804C21.2692 2.23518 21.5447 2.42101 21.7763 2.65486C21.7767 2.65522 21.777 2.65557 21.7774 2.65592L29.3439 10.2225C29.3443 10.2228 29.3446 10.2231 29.345 10.2235C29.5789 10.4551 29.7647 10.7307 29.8919 11.0343C30.0199 11.3401 30.0859 11.6684 30.0859 11.9999C30.0859 12.3314 30.0199 12.6596 29.8919 12.9654C29.7648 13.269 29.579 13.5445 29.3452 13.776C29.3448 13.7764 29.3444 13.7768 29.344 13.7773L24.1732 18.9481C23.5874 19.5338 22.6377 19.5338 22.0519 18.9481C21.4661 18.3623 21.4661 17.4125 22.0519 16.8267L26.8787 11.9999L20.0001 5.12123L15.6107 9.51055C15.0249 10.0963 14.0752 10.0963 13.4894 9.51055C12.9036 8.92476 12.9036 7.97502 13.4894 7.38923L18.2227 2.65592C18.2231 2.65558 18.2234 2.65523 18.2237 2.65489C18.4553 2.42103 18.7309 2.23518 19.0345 2.10804ZM19.6411 4.06596L19.6437 4.06332C19.7372 3.96833 19.8648 3.91461 19.9981 3.91409C20.1313 3.91356 20.2593 3.96628 20.3536 4.06053L27.9312 11.6382L27.934 11.641L27.9366 11.6435C28.0316 11.7371 28.0853 11.8646 28.0859 11.9979C28.0864 12.1312 28.0337 12.2592 27.9394 12.3534L22.759 17.5338C22.5637 17.7291 22.5637 18.0457 22.759 18.2409C22.9543 18.4362 23.2708 18.4362 23.4661 18.2409L28.6388 13.0682L28.6407 13.0663C28.7814 12.9272 28.8931 12.7617 28.9695 12.5792C29.0463 12.3957 29.0859 12.1988 29.0859 11.9999C29.0859 11.801 29.0463 11.604 28.9695 11.4206C28.8931 11.2381 28.7813 11.0725 28.6407 10.9334L28.6388 10.9315L21.0684 3.3611L21.0665 3.35918C20.9274 3.21857 20.7618 3.10685 20.5794 3.03045C20.3959 2.95363 20.199 2.91406 20 2.91406C19.8011 2.91406 19.6042 2.95363 19.4207 3.03045C19.2383 3.10685 19.0727 3.21857 18.9336 3.35918L18.9317 3.3611L14.1965 8.09634C14.0012 8.2916 14.0012 8.60818 14.1965 8.80344C14.3918 8.99871 14.7083 8.99871 14.9036 8.80344L19.6384 4.06876L19.6411 4.06596ZM4.99106 3.8901C5.60405 3.33284 6.55272 3.37801 7.10998 3.991L27.11 25.991C27.6672 26.604 27.6221 27.5527 27.0091 28.1099C26.3961 28.6672 25.4474 28.622 24.8902 28.009L22.2251 25.0774C21.7803 26.5736 20.9862 27.7957 20.4362 28.5267C20.22 28.8141 19.9444 29.0515 19.6282 29.2226C19.3118 29.3939 18.9622 29.4948 18.6032 29.5185C18.2442 29.5423 17.8843 29.4882 17.5482 29.3602C17.2145 29.233 16.912 29.0359 16.6609 28.7821C16.6605 28.7817 16.6601 28.7813 16.6597 28.7809L11.0001 23.1213L7.06072 27.0607C6.47493 27.6464 5.52519 27.6464 4.9394 27.0607C4.35362 26.4749 4.35361 25.5251 4.9394 24.9393L8.87877 21L3.19371 15.3149L3.19243 15.3136L3.19169 15.3129C2.94329 15.066 2.74953 14.7696 2.62298 14.443C2.49604 14.1154 2.43958 13.7648 2.45727 13.4139C2.47496 13.063 2.56641 12.7198 2.72565 12.4066C2.88497 12.0933 3.10903 11.8169 3.38199 11.596C5.03669 10.2588 6.68641 9.70449 8.108 9.54864L4.89016 6.00902C4.3329 5.39603 4.37807 4.44736 4.99106 3.8901ZM6.37004 4.66367C6.18428 4.45934 5.86806 4.44428 5.66373 4.63004C5.4594 4.81579 5.44434 5.13201 5.6301 5.33634L9.56571 9.66552C9.70034 9.81361 9.73369 10.0277 9.65047 10.2098C9.56725 10.3918 9.3835 10.5066 9.18342 10.5017C7.76483 10.4667 5.9091 10.8395 4.01078 12.3735C3.8469 12.5062 3.71244 12.6723 3.61703 12.8599C3.52149 13.0478 3.46662 13.2537 3.456 13.4643C3.44539 13.6748 3.47927 13.8852 3.55543 14.0817C3.63132 14.2776 3.7475 14.4553 3.89645 14.6034M3.89645 14.6034L3.89954 14.6065L9.93943 20.6464C10.1347 20.8417 10.1347 21.1583 9.93943 21.3535L5.64651 25.6464C5.45125 25.8417 5.45125 26.1583 5.64651 26.3536C5.84177 26.5488 6.15835 26.5488 6.35361 26.3536L10.6465 22.0606C10.7403 21.9669 10.8675 21.9142 11.0001 21.9142C11.1327 21.9142 11.2599 21.9669 11.3536 22.0606L17.3711 28.0781C17.5219 28.2308 17.7037 28.3493 17.9042 28.4257C18.1059 28.5025 18.3218 28.535 18.5372 28.5207C18.7526 28.5065 18.9624 28.4459 19.1522 28.3432C19.342 28.2405 19.5073 28.0981 19.637 27.9256C20.2599 27.0978 21.1702 25.6541 21.4642 23.9539C21.4967 23.7657 21.6337 23.6124 21.8171 23.559C22.0005 23.5056 22.1983 23.5614 22.3268 23.7027L25.6301 27.3363C25.8159 27.5407 26.1321 27.5557 26.3364 27.37C26.5407 27.1842 26.5558 26.868 26.37 26.6637L6.37004 4.66367M5.71483 13.5934L18.3725 26.251C18.4478 26.1373 18.523 26.0185 18.5968 25.8951C19.2601 24.7873 19.7687 23.3971 19.4692 22.046L11.222 12.974C11.0922 12.9495 10.9642 12.9076 10.8417 12.8478L10.8372 12.8456C10.8368 12.8454 10.8363 12.8452 10.8358 12.845M10.7766 12.8197C10.7137 12.794 10.6081 12.7539 10.4658 12.7108C10.1796 12.624 9.75565 12.5278 9.23782 12.5047C8.32721 12.464 7.07985 12.6445 5.71483 13.5934M4.6036 13.8964L4.60206 13.8948C4.5011 13.7947 4.44753 13.6564 4.45475 13.5144C4.46196 13.3724 4.52928 13.2402 4.63987 13.1509C6.38976 11.7371 8.05956 11.4511 9.28243 11.5057C9.89826 11.5332 10.4055 11.6475 10.7559 11.7538C10.9309 11.8069 11.066 11.8576 11.1549 11.894C11.1993 11.9121 11.2321 11.9266 11.2526 11.936L11.2559 11.9375L11.2788 11.9482C11.3442 11.9804 11.4136 11.9974 11.483 11.9997C11.618 12.0042 11.7454 12.0631 11.8362 12.1631L20.2955 21.4683C20.3503 21.5285 20.3895 21.6013 20.4098 21.6801C20.8655 23.4529 20.1884 25.1835 19.4548 26.4088C19.251 26.7492 19.039 27.0572 18.8378 27.3246C18.7507 27.4403 18.6178 27.5126 18.4733 27.5227C18.3289 27.5329 18.1871 27.4799 18.0847 27.3775L4.60512 13.8979L4.6036 13.8964Z" fill="white"/>
</svg>
