<svg width="32" height="33" viewBox="0 0 32 33" fill="none" xmlns="http://www.w3.org/2000/svg">
<path fill-rule="evenodd" clip-rule="evenodd" d="M16 5.5C9.92487 5.5 5 10.4249 5 16.5C5 22.5751 9.92487 27.5 16 27.5C22.0751 27.5 27 22.5751 27 16.5C27 10.4249 22.0751 5.5 16 5.5ZM3 16.5C3 9.3203 8.8203 3.5 16 3.5C23.1797 3.5 29 9.3203 29 16.5C29 23.6797 23.1797 29.5 16 29.5C8.8203 29.5 3 23.6797 3 16.5Z" fill="white"/>
<path fill-rule="evenodd" clip-rule="evenodd" d="M2.5 16.5C2.5 9.04416 8.54416 3 16 3C23.4558 3 29.5 9.04416 29.5 16.5C29.5 23.9558 23.4558 30 16 30C8.54416 30 2.5 23.9558 2.5 16.5ZM16 4C9.09644 4 3.5 9.59644 3.5 16.5C3.5 23.4036 9.09644 29 16 29C22.9036 29 28.5 23.4036 28.5 16.5C28.5 9.59644 22.9036 4 16 4ZM16 6C10.201 6 5.5 10.701 5.5 16.5C5.5 22.299 10.201 27 16 27C21.799 27 26.5 22.299 26.5 16.5C26.5 10.701 21.799 6 16 6ZM4.5 16.5C4.5 10.1487 9.64873 5 16 5C22.3513 5 27.5 10.1487 27.5 16.5C27.5 22.8513 22.3513 28 16 28C9.64873 28 4.5 22.8513 4.5 16.5Z" fill="white"/>
</svg>
