<svg width="32" height="32" viewBox="0 0 32 32" fill="none" xmlns="http://www.w3.org/2000/svg">
<path fill-rule="evenodd" clip-rule="evenodd" d="M3 16C3 8.8203 8.8203 3 16 3C23.1797 3 29 8.8203 29 16C29 23.1797 23.1797 29 16 29C8.8203 29 3 23.1797 3 16ZM17 14.2675V5.04484C20.2973 5.34198 23.1751 7.09418 24.9863 9.65443L17 14.2675ZM16.4801 16.8774C16.4931 16.8703 16.5059 16.8629 16.5186 16.8552L25.9882 11.3854C26.6376 12.7887 27 14.352 27 16C27 22.0751 22.0751 27 16 27C12.2881 27 9.0057 25.1615 7.01361 22.3454L16.4801 16.8774ZM15 15.4227V5.04484C9.3935 5.55007 5 10.262 5 16C5 17.6479 5.36236 19.2112 6.01175 20.6145L15 15.4227Z" fill="white"/>
<path fill-rule="evenodd" clip-rule="evenodd" d="M16 3.5C9.09644 3.5 3.5 9.09644 3.5 16C3.5 22.9036 9.09644 28.5 16 28.5C22.9036 28.5 28.5 22.9036 28.5 16C28.5 9.09644 22.9036 3.5 16 3.5ZM2.5 16C2.5 8.54416 8.54416 2.5 16 2.5C23.4558 2.5 29.5 8.54416 29.5 16C29.5 23.4558 23.4558 29.5 16 29.5C8.54416 29.5 2.5 23.4558 2.5 16ZM15.3373 4.67576C15.441 4.77049 15.5 4.90443 15.5 5.04484V15.4227C15.5 15.6013 15.4047 15.7663 15.2501 15.8557L6.26184 21.0474C6.14022 21.1177 5.99465 21.1335 5.86075 21.0911C5.72686 21.0487 5.61697 20.9519 5.55799 20.8244C4.87876 19.3567 4.5 17.7219 4.5 16C4.5 10.0009 9.09325 5.0751 14.9551 4.54686C15.095 4.53426 15.2337 4.58104 15.3373 4.67576ZM16.6627 4.67576C16.7663 4.58104 16.905 4.53426 17.0449 4.54686C20.4934 4.85762 23.5018 6.69021 25.3945 9.36567C25.4757 9.48044 25.5048 9.62409 25.4747 9.76142C25.4446 9.89875 25.3581 10.0171 25.2364 10.0874L17.2501 14.7004C17.0954 14.7898 16.9048 14.7898 16.75 14.7005C16.5953 14.6112 16.5 14.4461 16.5 14.2675V5.04484C16.5 4.90443 16.559 4.77049 16.6627 4.67576ZM14.5 5.60627C9.41178 6.33387 5.5 10.7104 5.5 16C5.5 17.3791 5.76563 18.6951 6.24819 19.9005L14.5 15.1341V5.60627ZM17.5 5.60627V13.4012L24.2491 9.50286C22.6182 7.4352 20.2278 5.99634 17.5 5.60627ZM26.1392 10.9087C26.2731 10.9512 26.383 11.0479 26.4419 11.1754C27.1212 12.6432 27.5 14.2781 27.5 16C27.5 22.3513 22.3513 27.5 16 27.5C12.119 27.5 8.68721 25.577 6.60542 22.6342C6.52423 22.5194 6.49511 22.3758 6.52519 22.2384C6.55527 22.1011 6.64178 21.9828 6.76352 21.9125L16.2396 16.4389C16.2461 16.4354 16.2526 16.4318 16.2589 16.4279L16.2684 16.4221L25.7381 10.9524C25.8597 10.8822 26.0053 10.8663 26.1392 10.9087ZM16.773 17.2856C16.7575 17.295 16.7417 17.3041 16.7258 17.3129L7.75084 22.497C9.67433 24.9358 12.6545 26.5 16 26.5C21.799 26.5 26.5 21.799 26.5 16C26.5 14.6208 26.2344 13.3048 25.7517 12.0994L16.773 17.2856Z" fill="white"/>
</svg>
