<svg width="32" height="32" viewBox="0 0 32 32" fill="none" xmlns="http://www.w3.org/2000/svg">
<path fill-rule="evenodd" clip-rule="evenodd" d="M16.1014 5.5C10.2464 5.5 5.5 10.2464 5.5 16.1014C5.5 21.9564 10.2464 26.7028 16.1014 26.7028C21.1997 26.7028 25.4547 23.1053 26.4719 18.3113C26.5802 17.8009 26.3705 17.2755 25.9405 16.98C25.5106 16.6844 24.9449 16.6768 24.5072 16.9607C23.577 17.564 22.4684 17.9145 21.2741 17.9145C17.9873 17.9145 15.3229 15.25 15.3229 11.9632C15.3229 10.2979 16.0052 8.79438 17.1087 7.71278C17.4813 7.34756 17.5974 6.79389 17.4028 6.30977C17.2081 5.82566 16.7412 5.50635 16.2194 5.50065C16.1801 5.50022 16.1408 5.5 16.1014 5.5ZM8.0811 16.1014C8.0811 12.5965 10.3297 9.61587 13.4632 8.52495C12.9994 9.57713 12.7418 10.7407 12.7418 11.9632C12.7418 16.6755 16.5618 20.4956 21.2741 20.4956C21.8342 20.4956 22.3822 20.4414 22.913 20.3381C21.4964 22.6105 18.9745 24.1217 16.1014 24.1217C11.6719 24.1217 8.0811 20.5309 8.0811 16.1014Z" fill="white"/>
</svg>
