<svg width="32" height="32" viewBox="0 0 32 32" fill="none" xmlns="http://www.w3.org/2000/svg">
<path fill-rule="evenodd" clip-rule="evenodd" d="M6 16.1014C6 10.5226 10.5226 6 16.1014 6C16.139 6 16.1765 6.00021 16.214 6.00062C16.5336 6.00411 16.8196 6.19971 16.9388 6.49626C17.058 6.79282 16.987 7.13198 16.7587 7.3557C15.5632 8.5275 14.8229 10.1582 14.8229 11.9632C14.8229 15.5262 17.7112 18.4145 21.2741 18.4145C22.5679 18.4145 23.7705 18.0344 24.7792 17.3802C25.0474 17.2063 25.3939 17.2109 25.6573 17.392C25.9206 17.5731 26.0491 17.8949 25.9827 18.2075C25.0136 22.7753 20.9587 26.2028 16.1014 26.2028C10.5226 26.2028 6 21.6802 6 16.1014Z" fill="white"/>
<path fill-rule="evenodd" clip-rule="evenodd" d="M5.5 16.1014C5.5 10.2464 10.2464 5.5 16.1014 5.5C16.1408 5.5 16.1801 5.50022 16.2194 5.50065C16.7412 5.50635 17.2081 5.82566 17.4028 6.30977C17.5974 6.79389 17.4813 7.34756 17.1087 7.71278C16.0052 8.79438 15.3229 10.2979 15.3229 11.9632C15.3229 15.25 17.9873 17.9145 21.2741 17.9145C22.4684 17.9145 23.577 17.564 24.5072 16.9607C24.9449 16.6768 25.5106 16.6844 25.9405 16.98C26.3705 17.2755 26.5802 17.8009 26.4719 18.3113C25.4547 23.1053 21.1997 26.7028 16.1014 26.7028C10.2464 26.7028 5.5 21.9564 5.5 16.1014ZM16.1014 6.5C10.7987 6.5 6.5 10.7987 6.5 16.1014C6.5 21.4041 10.7987 25.7028 16.1014 25.7028C20.7176 25.7028 24.5724 22.4454 25.4936 18.1038C25.518 17.9889 25.4708 17.8706 25.374 17.804C25.2772 17.7375 25.1499 17.7358 25.0513 17.7997C23.964 18.5049 22.6673 18.9145 21.2741 18.9145C17.435 18.9145 14.3229 15.8023 14.3229 11.9632C14.3229 10.0185 15.1211 8.26061 16.4087 6.99862C16.4926 6.91639 16.5187 6.79174 16.4749 6.68275C16.4311 6.57376 16.326 6.50187 16.2085 6.50059C16.1728 6.5002 16.1371 6.5 16.1014 6.5Z" fill="white"/>
</svg>
