<svg width="32" height="33" viewBox="0 0 32 33" fill="none" xmlns="http://www.w3.org/2000/svg">
<path d="M22.1903 14.1454C22.5899 13.7642 22.6048 13.1312 22.2236 12.7316C21.8423 12.332 21.2093 12.3171 20.8097 12.6983L14.1631 19.0392L11.1909 16.1989C10.7916 15.8173 10.1586 15.8317 9.77704 16.231C9.39547 16.6303 9.40983 17.2633 9.80912 17.6448L13.4716 21.1448C13.8579 21.514 14.4662 21.5143 14.8528 21.1454L22.1903 14.1454Z" fill="white"/>
<path fill-rule="evenodd" clip-rule="evenodd" d="M6 5.42188C5.46957 5.42188 4.96086 5.63259 4.58579 6.00766C4.21071 6.38273 4 6.89144 4 7.42188V14.7594C4 25.9454 13.4971 29.6475 15.3594 30.2666C15.7736 30.415 16.2264 30.415 16.6406 30.2666C18.5029 29.6475 28 25.9454 28 14.7594V7.42188C28 6.89144 27.7893 6.38274 27.4142 6.00766C27.0391 5.63259 26.5304 5.42188 26 5.42188H6ZM6 7.42188L26 7.42188V14.7594C26 24.542 17.7253 27.8006 16 28.372C14.2747 27.8006 6 24.542 6 14.7594L6 7.42188Z" fill="white"/>
<path fill-rule="evenodd" clip-rule="evenodd" d="M4.23223 5.65411C4.70107 5.18527 5.33696 4.92188 6 4.92188H26C26.663 4.92188 27.2989 5.18527 27.7678 5.65411C28.2366 6.12295 28.5 6.75884 28.5 7.42188V14.7594C28.5 26.2919 18.7046 30.1064 16.8034 30.7394C16.2837 30.924 15.7163 30.924 15.1966 30.7394C13.2954 30.1064 3.5 26.2919 3.5 14.7594V7.42188C3.5 6.75883 3.76339 6.12295 4.23223 5.65411ZM6 5.92188C5.60217 5.92188 5.22064 6.07991 4.93934 6.36122C4.65804 6.64252 4.5 7.02405 4.5 7.42188V14.7594C4.5 25.5886 13.6811 29.1818 15.5171 29.7922L15.528 29.7958C15.8332 29.9051 16.1668 29.9052 16.472 29.7959L16.4828 29.792C18.3188 29.1816 27.5 25.5886 27.5 14.7594V7.42188C27.5 7.02405 27.342 6.64252 27.0607 6.36122C26.7794 6.07991 26.3978 5.92188 26 5.92188H6ZM6.5 7.92188L6.5 14.7594C6.5 23.9216 14.02 27.1537 16 27.8438C17.98 27.1537 25.5 23.9216 25.5 14.7594V7.92188L6.5 7.92188ZM6 6.92188L26 6.92188C26.1326 6.92188 26.2598 6.97455 26.3536 7.06832C26.4473 7.16209 26.5 7.28927 26.5 7.42188V14.7594C26.5 24.8982 17.9107 28.2659 16.1572 28.8466C16.0551 28.8804 15.9449 28.8804 15.8428 28.8466C14.0893 28.2659 5.5 24.8982 5.5 14.7594L5.5 7.42188C5.5 7.14573 5.72386 6.92188 6 6.92188ZM20.4646 12.3365C21.064 11.7647 22.0135 11.7871 22.5853 12.3865C23.1572 12.9859 23.1348 13.9354 22.5354 14.5072L15.1979 21.5072C14.618 22.0604 13.7056 22.0601 13.1262 21.5063L9.46367 18.0063C8.86475 17.434 8.84321 16.4845 9.41556 15.8855C9.98791 15.2866 10.9374 15.2651 11.5363 15.8374L14.1634 18.3479L20.4646 12.3365ZM21.8618 13.0767C21.6712 12.8769 21.3547 12.8695 21.1549 13.0601L14.5082 19.401C14.3149 19.5854 14.0108 19.5853 13.8176 19.4007L10.8454 16.5604C10.6458 16.3696 10.3293 16.3768 10.1385 16.5764C9.94774 16.7761 9.95492 17.0926 10.1546 17.2834L13.8171 20.7834C14.0102 20.9679 14.3143 20.9681 14.5076 20.7837L21.8451 13.7837C22.0449 13.593 22.0524 13.2765 21.8618 13.0767Z" fill="white"/>
</svg>
