<svg width="32" height="32" viewBox="0 0 32 32" fill="none" xmlns="http://www.w3.org/2000/svg">
<path d="M10 4C10 3.44772 10.4477 3 11 3H21C21.5523 3 22 3.44772 22 4C22 4.55228 21.5523 5 21 5H11C10.4477 5 10 4.55228 10 4Z" fill="white"/>
<path fill-rule="evenodd" clip-rule="evenodd" d="M4 8C4 7.44772 4.44772 7 5 7H27C27.5523 7 28 7.44772 28 8C28 8.55228 27.5523 9 27 9H26V27C26 27.5304 25.7893 28.0391 25.4142 28.4142C25.0391 28.7893 24.5304 29 24 29H8C7.46957 29 6.96086 28.7893 6.58579 28.4142C6.21071 28.0391 6 27.5304 6 27V9H5C4.44772 9 4 8.55228 4 8ZM8 9V27H24V9H8Z" fill="white"/>
<path fill-rule="evenodd" clip-rule="evenodd" d="M11 3.5C10.7239 3.5 10.5 3.72386 10.5 4C10.5 4.27614 10.7239 4.5 11 4.5H21C21.2761 4.5 21.5 4.27614 21.5 4C21.5 3.72386 21.2761 3.5 21 3.5H11ZM9.5 4C9.5 3.17157 10.1716 2.5 11 2.5H21C21.8284 2.5 22.5 3.17157 22.5 4C22.5 4.82843 21.8284 5.5 21 5.5H11C10.1716 5.5 9.5 4.82843 9.5 4ZM5 7.5C4.72386 7.5 4.5 7.72386 4.5 8C4.5 8.27614 4.72386 8.5 5 8.5H6C6.27614 8.5 6.5 8.72386 6.5 9V27C6.5 27.3978 6.65804 27.7794 6.93934 28.0607C7.22065 28.342 7.60218 28.5 8 28.5H24C24.3978 28.5 24.7794 28.342 25.0607 28.0607C25.342 27.7794 25.5 27.3978 25.5 27V9C25.5 8.72386 25.7239 8.5 26 8.5H27C27.2761 8.5 27.5 8.27614 27.5 8C27.5 7.72386 27.2761 7.5 27 7.5H5ZM3.5 8C3.5 7.17157 4.17157 6.5 5 6.5H27C27.8284 6.5 28.5 7.17157 28.5 8C28.5 8.82843 27.8284 9.5 27 9.5H26.5V27C26.5 27.663 26.2366 28.2989 25.7678 28.7678C25.2989 29.2366 24.663 29.5 24 29.5H8C7.33696 29.5 6.70108 29.2366 6.23223 28.7678C5.76339 28.2989 5.5 27.663 5.5 27V9.5H5C4.17157 9.5 3.5 8.82843 3.5 8ZM7.5 9C7.5 8.72386 7.72386 8.5 8 8.5H24C24.2761 8.5 24.5 8.72386 24.5 9V27C24.5 27.2761 24.2761 27.5 24 27.5H8C7.72386 27.5 7.5 27.2761 7.5 27V9ZM8.5 9.5V26.5H23.5V9.5H8.5Z" fill="white"/>
</svg>
