<svg width="32" height="32" viewBox="0 0 32 32" fill="none" xmlns="http://www.w3.org/2000/svg">
<path fill-rule="evenodd" clip-rule="evenodd" d="M10.5251 3.52513C11.1815 2.86875 12.0717 2.5 13 2.5H19C19.9283 2.5 20.8185 2.86875 21.4749 3.52513C22.1313 4.1815 22.5 5.07174 22.5 6V6.5H27C27.8284 6.5 28.5 7.17157 28.5 8C28.5 8.82843 27.8284 9.5 27 9.5H26.5V27C26.5 27.663 26.2366 28.2989 25.7678 28.7678C25.2989 29.2366 24.663 29.5 24 29.5H8C7.33696 29.5 6.70108 29.2366 6.23223 28.7678C5.76339 28.2989 5.5 27.663 5.5 27V9.5H5C4.17157 9.5 3.5 8.82843 3.5 8C3.5 7.17157 4.17157 6.5 5 6.5H9.5V6C9.5 5.07174 9.86875 4.1815 10.5251 3.52513ZM12.6464 5.64645C12.7402 5.55268 12.8674 5.5 13 5.5H19C19.1326 5.5 19.2598 5.55268 19.3536 5.64645C19.4473 5.74022 19.5 5.86739 19.5 6V6.5H12.5V6C12.5 5.86739 12.5527 5.74022 12.6464 5.64645ZM8.5 9.5V26.5H23.5V9.5H8.5ZM13 12.5C12.1716 12.5 11.5 13.1716 11.5 14V22C11.5 22.8284 12.1716 23.5 13 23.5C13.8284 23.5 14.5 22.8284 14.5 22V14C14.5 13.1716 13.8284 12.5 13 12.5ZM19 12.5C18.1716 12.5 17.5 13.1716 17.5 14V22C17.5 22.8284 18.1716 23.5 19 23.5C19.8284 23.5 20.5 22.8284 20.5 22V14C20.5 13.1716 19.8284 12.5 19 12.5Z" fill="white"/>
</svg>
