<svg width="32" height="32" viewBox="0 0 32 32" fill="none" xmlns="http://www.w3.org/2000/svg">
<path fill-rule="evenodd" clip-rule="evenodd" d="M13 2C13.5523 2 14 2.44772 14 3V5H16V3C16 2.44772 16.4477 2 17 2C17.5523 2 18 2.44772 18 3V5.02276C19.2753 5.13913 20.4762 5.69798 21.3891 6.61091C22.4205 7.64236 23 9.04131 23 10.5C23 11.9587 22.4205 13.3576 21.3891 14.3891C21.3639 14.4142 21.3386 14.4391 21.313 14.4637C22.0275 14.7623 22.6844 15.1991 23.2426 15.7574C24.3679 16.8826 25 18.4087 25 20C25 21.5913 24.3679 23.1174 23.2426 24.2426C22.1174 25.3679 20.5913 26 19 26H18V28C18 28.5523 17.5523 29 17 29C16.4477 29 16 28.5523 16 28V26H14V28C14 28.5523 13.5523 29 13 29C12.4477 29 12 28.5523 12 28V26H8C7.44772 26 7 25.5523 7 25C7 24.4477 7.44772 24 8 24H9V7H8C7.44772 7 7 6.55228 7 6C7 5.44772 7.44772 5 8 5H12V3C12 2.44772 12.4477 2 13 2ZM19 24C20.0609 24 21.0783 23.5786 21.8284 22.8284C22.5786 22.0783 23 21.0609 23 20C23 18.9391 22.5786 17.9217 21.8284 17.1716C21.0783 16.4214 20.0609 16 19 16H11V24H19ZM11 7V14H17.5C18.4283 14 19.3185 13.6313 19.9749 12.9749C20.6313 12.3185 21 11.4283 21 10.5C21 9.57174 20.6313 8.6815 19.9749 8.02513C19.3185 7.36875 18.4283 7 17.5 7H11Z" fill="white"/>
<path fill-rule="evenodd" clip-rule="evenodd" d="M13 2.5C12.7239 2.5 12.5 2.72386 12.5 3V5C12.5 5.27614 12.2761 5.5 12 5.5H8C7.72386 5.5 7.5 5.72386 7.5 6C7.5 6.27614 7.72386 6.5 8 6.5H9C9.27614 6.5 9.5 6.72386 9.5 7V24C9.5 24.2761 9.27614 24.5 9 24.5H8C7.72386 24.5 7.5 24.7239 7.5 25C7.5 25.2761 7.72386 25.5 8 25.5H12C12.2761 25.5 12.5 25.7239 12.5 26V28C12.5 28.2761 12.7239 28.5 13 28.5C13.2761 28.5 13.5 28.2761 13.5 28V26C13.5 25.7239 13.7239 25.5 14 25.5H16C16.2761 25.5 16.5 25.7239 16.5 26V28C16.5 28.2761 16.7239 28.5 17 28.5C17.2761 28.5 17.5 28.2761 17.5 28V26C17.5 25.7239 17.7239 25.5 18 25.5H19C20.4587 25.5 21.8576 24.9205 22.8891 23.8891C23.9205 22.8576 24.5 21.4587 24.5 20C24.5 18.5413 23.9205 17.1424 22.8891 16.1109C22.3774 15.5992 21.7753 15.1988 21.1202 14.9251C20.9648 14.8602 20.8525 14.7213 20.8215 14.5558C20.7905 14.3902 20.8449 14.2202 20.9663 14.1034C20.9896 14.081 21.0127 14.0584 21.0355 14.0355C21.9732 13.0979 22.5 11.8261 22.5 10.5C22.5 9.17392 21.9732 7.90215 21.0355 6.96447C20.2056 6.13454 19.1139 5.62648 17.9546 5.52069C17.6971 5.4972 17.5 5.2813 17.5 5.02276V3C17.5 2.72386 17.2761 2.5 17 2.5C16.7239 2.5 16.5 2.72386 16.5 3V5C16.5 5.27614 16.2761 5.5 16 5.5H14C13.7239 5.5 13.5 5.27614 13.5 5V3C13.5 2.72386 13.2761 2.5 13 2.5ZM11.5 3C11.5 2.17157 12.1716 1.5 13 1.5C13.8284 1.5 14.5 2.17157 14.5 3V4.5H15.5V3C15.5 2.17157 16.1716 1.5 17 1.5C17.8284 1.5 18.5 2.17157 18.5 3V4.5839C19.7203 4.79017 20.8559 5.37066 21.7426 6.25736C22.8679 7.38258 23.5 8.9087 23.5 10.5C23.5 11.8944 23.0146 13.2388 22.1373 14.3073C22.6681 14.5998 23.16 14.9676 23.5962 15.4038C24.8152 16.6228 25.5 18.2761 25.5 20C25.5 21.7239 24.8152 23.3772 23.5962 24.5962C22.3772 25.8152 20.7239 26.5 19 26.5H18.5V28C18.5 28.8284 17.8284 29.5 17 29.5C16.1716 29.5 15.5 28.8284 15.5 28V26.5H14.5V28C14.5 28.8284 13.8284 29.5 13 29.5C12.1716 29.5 11.5 28.8284 11.5 28V26.5H8C7.17157 26.5 6.5 25.8284 6.5 25C6.5 24.1716 7.17157 23.5 8 23.5H8.5V7.5H8C7.17157 7.5 6.5 6.82843 6.5 6C6.5 5.17157 7.17157 4.5 8 4.5H11.5V3ZM10.5 7C10.5 6.72386 10.7239 6.5 11 6.5H17.5C18.5609 6.5 19.5783 6.92143 20.3284 7.67157C21.0786 8.42172 21.5 9.43913 21.5 10.5C21.5 11.5609 21.0786 12.5783 20.3284 13.3284C19.5783 14.0786 18.5609 14.5 17.5 14.5H11C10.7239 14.5 10.5 14.2761 10.5 14V7ZM11.5 7.5V13.5H17.5C18.2956 13.5 19.0587 13.1839 19.6213 12.6213C20.1839 12.0587 20.5 11.2956 20.5 10.5C20.5 9.70435 20.1839 8.94129 19.6213 8.37868C19.0587 7.81607 18.2956 7.5 17.5 7.5H11.5ZM10.5 16C10.5 15.7239 10.7239 15.5 11 15.5H19C20.1935 15.5 21.3381 15.9741 22.182 16.818C23.0259 17.6619 23.5 18.8065 23.5 20C23.5 21.1935 23.0259 22.3381 22.182 23.182C21.3381 24.0259 20.1935 24.5 19 24.5H11C10.7239 24.5 10.5 24.2761 10.5 24V16ZM11.5 16.5V23.5H19C19.9283 23.5 20.8185 23.1313 21.4749 22.4749C22.1313 21.8185 22.5 20.9283 22.5 20C22.5 19.0717 22.1313 18.1815 21.4749 17.5251C20.8185 16.8688 19.9283 16.5 19 16.5H11.5Z" fill="white"/>
</svg>
