<svg width="32" height="32" viewBox="0 0 32 32" fill="none" xmlns="http://www.w3.org/2000/svg">
<path d="M6.5 8C6.5 7.17157 7.17157 6.5 8 6.5H24C24.8284 6.5 25.5 7.17157 25.5 8C25.5 8.82843 24.8284 9.5 24 9.5H8C7.17157 9.5 6.5 8.82843 6.5 8Z" fill="white"/>
<path d="M4.5 15C4.5 14.1716 5.17157 13.5 6 13.5H26C26.8284 13.5 27.5 14.1716 27.5 15C27.5 15.8284 26.8284 16.5 26 16.5H20.5V22.0042L20.5 22.0063C20.4992 22.2027 20.5373 22.3973 20.612 22.5789C20.6868 22.7605 20.7968 22.9255 20.9357 23.0643C21.0745 23.2032 21.2395 23.3132 21.4211 23.388C21.6027 23.4628 21.7973 23.5008 21.9937 23.5L21.9958 23.5L25.5 23.5V22C25.5 21.1716 26.1716 20.5 27 20.5C27.8284 20.5 28.5 21.1716 28.5 22V25C28.5 25.8284 27.8284 26.5 27 26.5H22.0012C21.4085 26.5024 20.826 26.3873 20.2789 26.162C19.731 25.9364 19.2333 25.6046 18.8143 25.1857C18.3954 24.7667 18.0636 24.269 17.838 23.7211C17.6128 23.1743 17.498 22.5884 17.5 21.997V16.5H14.5V17.0016C14.4961 19.5193 13.4942 21.9336 11.7139 23.7139C9.93356 25.4942 7.52007 26.4961 5.00234 26.5C4.17391 26.5013 3.50129 25.8308 3.5 25.0023C3.49871 24.1739 4.16923 23.5013 4.99766 23.5C6.72136 23.4973 8.3737 22.8114 9.59254 21.5925C10.8111 20.374 11.497 18.7221 11.5 16.9988V16.5H6C5.17157 16.5 4.5 15.8284 4.5 15Z" fill="white"/>
</svg>
