<svg width="32" height="32" viewBox="0 0 32 32" fill="none" xmlns="http://www.w3.org/2000/svg">
<path d="M8.00002 5C8.00002 4.44772 8.44774 4 9.00002 4H25C25.5523 4 26 4.44772 26 5C26 5.55228 25.5523 6 25 6H18.5991C18.6683 6.06416 18.7364 6.12973 18.8034 6.1967C19.6019 6.99521 20.2017 7.95524 20.5711 9H25C25.5523 9 26 9.44772 26 10C26 10.5523 25.5523 11 25 11H20.9834C20.9945 11.1659 21.0001 11.3327 21.0001 11.5C21.0001 13.4891 20.2099 15.3968 18.8034 16.8033C17.3968 18.2098 15.4892 19 13.5001 19H11.5867L20.6727 27.2601C21.0814 27.6316 21.1115 28.264 20.74 28.6727C20.3685 29.0813 19.736 29.1114 19.3274 28.7399L8.32739 18.7399C8.02169 18.462 7.91836 18.0247 8.06734 17.6394C8.21631 17.2541 8.58692 17 9.00006 17H13.5001C14.9588 17 16.3577 16.4205 17.3891 15.3891C18.4206 14.3576 19.0001 12.9587 19.0001 11.5C19.0001 11.3324 18.9924 11.1656 18.9773 11H9.00002C8.44774 11 8.00002 10.5523 8.00002 10C8.00002 9.44772 8.44774 9 9.00002 9H18.399C18.1396 8.49158 17.8003 8.02205 17.3891 7.61091C16.3577 6.57946 14.9588 6 13.5001 6H9.00002C8.44774 6 8.00002 5.55228 8.00002 5Z" fill="white"/>
<path fill-rule="evenodd" clip-rule="evenodd" d="M9.00002 4.5C8.72388 4.5 8.50002 4.72386 8.50002 5C8.50002 5.27614 8.72388 5.5 9.00002 5.5H13.5001C15.0914 5.5 16.6175 6.13214 17.7427 7.25736C18.1912 7.70586 18.5614 8.21809 18.8444 8.77274C18.9235 8.92774 18.9163 9.11272 18.8254 9.26112C18.7346 9.40952 18.5731 9.5 18.399 9.5H9.00002C8.72388 9.5 8.50002 9.72386 8.50002 10C8.50002 10.2761 8.72388 10.5 9.00002 10.5H18.9773C19.2358 10.5 19.4517 10.6971 19.4752 10.9546C19.4917 11.1352 19.5001 11.3172 19.5001 11.5C19.5001 13.0913 18.8679 14.6174 17.7427 15.7426C16.6175 16.8679 15.0914 17.5 13.5001 17.5H9.00006C8.79349 17.5 8.60819 17.627 8.5337 17.8197C8.45921 18.0124 8.51088 18.231 8.66372 18.37L19.6637 28.37C19.8681 28.5557 20.1843 28.5407 20.37 28.3363C20.5558 28.132 20.5407 27.8158 20.3364 27.63L11.2503 19.37C11.0975 19.231 11.0458 19.0124 11.1203 18.8197C11.1948 18.627 11.3801 18.5 11.5867 18.5H13.5001C15.3566 18.5 17.1371 17.7625 18.4498 16.4497C19.7626 15.137 20.5001 13.3565 20.5001 11.5C20.5001 11.3438 20.4948 11.1882 20.4845 11.0333C20.4753 10.8952 20.5237 10.7595 20.6182 10.6584C20.7128 10.5574 20.845 10.5 20.9834 10.5H25C25.2762 10.5 25.5 10.2761 25.5 10C25.5 9.72386 25.2762 9.5 25 9.5H20.5711C20.3592 9.5 20.1704 9.36644 20.0997 9.16668C19.7549 8.19153 19.1951 7.29553 18.4498 6.55025C18.3873 6.48774 18.3237 6.42654 18.2591 6.36665C18.1083 6.22682 18.0585 6.00889 18.1336 5.81742C18.2087 5.62595 18.3934 5.5 18.5991 5.5H25C25.2762 5.5 25.5 5.27614 25.5 5C25.5 4.72386 25.2762 4.5 25 4.5H9.00002ZM7.50002 5C7.50002 4.17157 8.17159 3.5 9.00002 3.5H25C25.8284 3.5 26.5 4.17157 26.5 5C26.5 5.82843 25.8284 6.5 25 6.5H19.7451C20.2329 7.1092 20.6264 7.78352 20.9163 8.5H25C25.8284 8.5 26.5 9.17157 26.5 10C26.5 10.8284 25.8284 11.5 25 11.5H21.5001C21.5001 13.6217 20.6572 15.6566 19.1569 17.1569C17.6566 18.6571 15.6218 19.5 13.5001 19.5H12.88L21.0091 26.8901C21.6221 27.4473 21.6672 28.396 21.11 29.009C20.5527 29.622 19.604 29.6672 18.9911 29.1099L7.99105 19.1099C7.5325 18.6931 7.37751 18.0371 7.60098 17.4591C7.82444 16.8811 8.38035 16.5 9.00006 16.5H13.5001C14.8261 16.5 16.0979 15.9732 17.0356 15.0355C17.9733 14.0979 18.5001 12.8261 18.5001 11.5H9.00002C8.17159 11.5 7.50002 10.8284 7.50002 10C7.50002 9.17157 8.17159 8.5 9.00002 8.5H17.5001C17.3589 8.31181 17.2039 8.13276 17.0356 7.96447C16.0979 7.02678 14.8261 6.5 13.5001 6.5H9.00002C8.17159 6.5 7.50002 5.82843 7.50002 5Z" fill="white"/>
</svg>
