<svg width="32" height="32" viewBox="0 0 32 32" fill="none" xmlns="http://www.w3.org/2000/svg">
<path fill-rule="evenodd" clip-rule="evenodd" d="M16 1.5C15.1716 1.5 14.5 2.17157 14.5 3V4.5H13.5C11.7761 4.5 10.1228 5.18482 8.90381 6.40381C7.68482 7.62279 7 9.27609 7 11C7 12.7239 7.68482 14.3772 8.90381 15.5962C10.1228 16.8152 11.7761 17.5 13.5 17.5H14.5V24.5H13C12.0717 24.5 11.1815 24.1313 10.5251 23.4749C9.86875 22.8185 9.5 21.9283 9.5 21C9.5 20.1716 8.82843 19.5 8 19.5C7.17157 19.5 6.5 20.1716 6.5 21C6.5 22.7239 7.18482 24.3772 8.40381 25.5962C9.62279 26.8152 11.2761 27.5 13 27.5H14.5V29C14.5 29.8284 15.1716 30.5 16 30.5C16.8284 30.5 17.5 29.8284 17.5 29V27.5H19C20.7239 27.5 22.3772 26.8152 23.5962 25.5962C24.8152 24.3772 25.5 22.7239 25.5 21C25.5 19.2761 24.8152 17.6228 23.5962 16.4038C22.3772 15.1848 20.7239 14.5 19 14.5H17.5V7.5H18C18.4596 7.5 18.9148 7.59053 19.3394 7.76642C19.764 7.94231 20.1499 8.20012 20.4749 8.52513C20.7999 8.85013 21.0577 9.23597 21.2336 9.66061C21.4095 10.0852 21.5 10.5404 21.5 11C21.5 11.8284 22.1716 12.5 23 12.5C23.8284 12.5 24.5 11.8284 24.5 11C24.5 10.1464 24.3319 9.30117 24.0052 8.51256C23.6786 7.72394 23.1998 7.00739 22.5962 6.40381C21.9926 5.80023 21.2761 5.32144 20.4874 4.99478C19.6988 4.66813 18.8536 4.5 18 4.5H17.5V3C17.5 2.17157 16.8284 1.5 16 1.5ZM11.0251 8.52513C11.6815 7.86875 12.5717 7.5 13.5 7.5H14.5V14.5H13.5C12.5717 14.5 11.6815 14.1313 11.0251 13.4749C10.3687 12.8185 10 11.9283 10 11C10 10.0717 10.3687 9.1815 11.0251 8.52513ZM19 24.5H17.5V17.5H19C19.9283 17.5 20.8185 17.8687 21.4749 18.5251C22.1313 19.1815 22.5 20.0717 22.5 21C22.5 21.9283 22.1313 22.8185 21.4749 23.4749C20.8185 24.1313 19.9283 24.5 19 24.5Z" fill="white"/>
</svg>
