<svg width="32" height="32" viewBox="0 0 32 32" fill="none" xmlns="http://www.w3.org/2000/svg">
<path d="M18.56 6.15651C17.0085 5.84804 15.4004 6.00647 13.9389 6.61175C12.4774 7.21704 11.2282 8.24202 10.3491 9.55714C9.65653 10.5932 9.2182 11.7727 9.06311 13H17C17.5523 13 18 13.4477 18 14C18 14.5523 17.5523 15 17 15H9V17H15C15.5523 17 16 17.4477 16 18C16 18.5523 15.5523 19 15 19H9.06314C9.21826 20.2273 9.65657 21.4069 10.3491 22.4429C11.2282 23.758 12.4774 24.783 13.9389 25.3883C15.4004 25.9936 17.0085 26.152 18.56 25.8435C20.1115 25.535 21.5367 24.7735 22.6556 23.6552C23.0462 23.2648 23.6793 23.265 24.0698 23.6556C24.4602 24.0462 24.4601 24.6793 24.0694 25.0698C22.6709 26.4677 20.8894 27.4195 18.95 27.8051C17.0106 28.1907 15.0005 27.9927 13.1736 27.2361C11.3467 26.4795 9.78519 25.1982 8.68634 23.5543C7.77359 22.1889 7.21411 20.6241 7.05041 19H5C4.44772 19 4 18.5523 4 18C4 17.4477 4.44772 17 5 17H7V15H5C4.44772 15 4 14.5523 4 14C4 13.4477 4.44772 13 5 13H7.05044C7.21418 11.376 7.77365 9.81107 8.68634 8.44569C9.78519 6.80179 11.3467 5.52057 13.1736 4.76396C15.0005 4.00735 17.0106 3.80932 18.95 4.1949C20.8894 4.58049 22.6709 5.53237 24.0694 6.93024C24.4601 7.32068 24.4602 7.95384 24.0698 8.34446C23.6793 8.73507 23.0462 8.73522 22.6556 8.34478C21.5367 7.22649 20.1115 6.46498 18.56 6.15651Z" fill="white"/>
<path fill-rule="evenodd" clip-rule="evenodd" d="M18.8525 4.68531C17.0101 4.319 15.1004 4.50713 13.3649 5.22591C11.6294 5.94468 10.1459 7.16185 9.10202 8.72355C8.23498 10.0206 7.70348 11.5073 7.54792 13.0502C7.52217 13.3056 7.30716 13.5 7.05044 13.5H5C4.72386 13.5 4.5 13.7239 4.5 14C4.5 14.2761 4.72386 14.5 5 14.5H7C7.27614 14.5 7.5 14.7239 7.5 15V17C7.5 17.2761 7.27614 17.5 7 17.5H5C4.72386 17.5 4.5 17.7239 4.5 18C4.5 18.2761 4.72386 18.5 5 18.5H7.05041C7.30714 18.5 7.52214 18.6944 7.54789 18.9499C7.7034 20.4927 8.23491 21.9793 9.10202 23.2765C10.1459 24.8382 11.6294 26.0553 13.3649 26.7741C15.1004 27.4929 17.0101 27.681 18.8525 27.3147C20.6949 26.9484 22.3874 26.0441 23.716 24.7161C23.9113 24.5209 23.9114 24.2043 23.7161 24.009C23.5209 23.8137 23.2043 23.8137 23.009 24.0089C21.8203 25.1971 20.306 26.0062 18.6575 26.3339C17.009 26.6617 15.3004 26.4933 13.7476 25.8502C12.1947 25.2071 10.8674 24.1181 9.93339 22.7208C9.1976 21.62 8.7319 20.3667 8.56709 19.0627C8.54909 18.9203 8.59316 18.777 8.68808 18.6694C8.783 18.5617 8.91961 18.5 9.06314 18.5H15C15.2761 18.5 15.5 18.2761 15.5 18C15.5 17.7239 15.2761 17.5 15 17.5H9C8.72386 17.5 8.5 17.2761 8.5 17V15C8.5 14.7239 8.72386 14.5 9 14.5H17C17.2761 14.5 17.5 14.2761 17.5 14C17.5 13.7239 17.2761 13.5 17 13.5H9.06311C8.91958 13.5 8.78297 13.4383 8.68805 13.3306C8.59313 13.223 8.54906 13.0797 8.56705 12.9373C8.73184 11.6333 9.19756 10.3801 9.93339 9.27927C10.8674 7.88196 12.1947 6.79292 13.7476 6.1498C15.3004 5.50669 17.009 5.33836 18.6575 5.66611C20.306 5.99385 21.8203 6.80296 23.009 7.99115C23.2043 8.18636 23.5209 8.18629 23.7161 7.99098C23.9114 7.79568 23.9113 7.4791 23.716 7.28388C22.3874 5.9559 20.6949 5.05161 18.8525 4.68531ZM12.9823 4.30201C14.9005 3.50757 17.0112 3.29964 19.0475 3.7045C21.0839 4.10937 22.9545 5.10885 24.4229 6.57661C25.0088 7.16226 25.0091 8.11201 24.4234 8.69793C23.8377 9.28385 22.888 9.28407 22.3021 8.69842C21.2532 7.65001 19.917 6.9361 18.4625 6.64691C17.008 6.35772 15.5003 6.50624 14.1302 7.0737C12.7601 7.64116 11.5889 8.60208 10.7648 9.835C10.2221 10.6468 9.84591 11.5526 9.65213 12.5H17C17.8284 12.5 18.5 13.1716 18.5 14C18.5 14.8284 17.8284 15.5 17 15.5H9.5V16.5H15C15.8284 16.5 16.5 17.1716 16.5 18C16.5 18.8284 15.8284 19.5 15 19.5H9.65217C9.84597 20.4474 10.2221 21.3533 10.7648 22.165C11.5889 23.3979 12.7601 24.3589 14.1302 24.9263C15.5003 25.4938 17.008 25.6423 18.4625 25.3531C19.917 25.0639 21.2532 24.35 22.3021 23.3016C22.888 22.716 23.8377 22.7162 24.4234 23.3021C25.0091 23.888 25.0088 24.8378 24.4229 25.4234C22.9545 26.8912 21.0839 27.8907 19.0475 28.2955C17.0112 28.7004 14.9005 28.4925 12.9823 27.698C11.0641 26.9036 9.42445 25.5583 8.27065 23.8322C7.39683 22.525 6.83137 21.0438 6.60811 19.5H5C4.17157 19.5 3.5 18.8284 3.5 18C3.5 17.1716 4.17157 16.5 5 16.5H6.5V15.5H5C4.17157 15.5 3.5 14.8284 3.5 14C3.5 13.1716 4.17157 12.5 5 12.5H6.60815C6.83145 10.9563 7.39688 9.47499 8.27065 8.16782C9.42445 6.44173 11.0641 5.09645 12.9823 4.30201Z" fill="white"/>
</svg>
