<svg width="32" height="32" viewBox="0 0 32 32" fill="none" xmlns="http://www.w3.org/2000/svg">
<path d="M17.0042 6.00004C17.5939 5.99757 18.1782 6.11267 18.7229 6.33862C19.2677 6.56457 19.7619 6.89683 20.1767 7.31599C20.5652 7.70853 21.1984 7.7118 21.5909 7.3233C21.9835 6.9348 21.9868 6.30165 21.5983 5.90911C20.9964 5.30104 20.2795 4.81903 19.4892 4.49124C18.6996 4.16372 17.8527 3.99675 16.9979 4.00005C15.2748 4.0006 13.6223 4.68536 12.4038 5.90385C11.1848 7.12284 10.5 8.77614 10.5 10.5V15.5H7C6.44772 15.5 6 15.9477 6 16.5C6 17.0523 6.44772 17.5 7 17.5H10.5V21.5C10.5 22.4283 10.1313 23.3185 9.47487 23.9749C8.8185 24.6313 7.92826 25 7 25C6.44772 25 6 25.4478 6 26C6 26.5523 6.44772 27 7 27H23C23.5523 27 24 26.5523 24 26C24 25.4478 23.5523 25 23 25H11.2427C12.052 24.019 12.5 22.7826 12.5 21.5V17.5H17C17.5523 17.5 18 17.0523 18 16.5C18 15.9477 17.5523 15.5 17 15.5H12.5V10.5C12.5 9.30657 12.9741 8.16198 13.818 7.31807C14.6619 6.47415 15.8065 6.00005 17 6.00005L17.0042 6.00004Z" fill="white"/>
<path fill-rule="evenodd" clip-rule="evenodd" d="M16.9969 3.50005C17.9178 3.49661 18.8301 3.67655 19.6808 4.02939C20.5324 4.38264 21.3051 4.90209 21.9536 5.55739C22.5364 6.1462 22.5315 7.09593 21.9427 7.67868C21.3539 8.26143 20.4041 8.25652 19.8214 7.66771C19.4533 7.29578 19.0147 7.00096 18.5314 6.80047C18.048 6.59998 17.5296 6.49784 17.0063 6.50003L17 6.50005C15.9391 6.50005 14.9217 6.92148 14.1716 7.67162C13.4214 8.42177 13 9.43918 13 10.5V15H17C17.8284 15 18.5 15.6716 18.5 16.5C18.5 17.3284 17.8284 18 17 18H13V21.5C13 22.5624 12.7183 23.5957 12.1962 24.5H23C23.8284 24.5 24.5 25.1716 24.5 26C24.5 26.8285 23.8284 27.5 23 27.5H7C6.17157 27.5 5.5 26.8285 5.5 26C5.5 25.1716 6.17157 24.5 7 24.5C7.79565 24.5 8.55871 24.184 9.12132 23.6214C9.68393 23.0588 10 22.2957 10 21.5V18H7C6.17157 18 5.5 17.3284 5.5 16.5C5.5 15.6716 6.17157 15 7 15H10V10.5C10 8.64353 10.7375 6.86306 12.0503 5.5503C13.3623 4.23829 15.1415 3.50088 16.9969 3.50005ZM19.2977 4.95309C18.5694 4.65101 17.7883 4.497 16.9998 4.50004L16.9981 4.50005C15.4075 4.50056 13.8821 5.13264 12.7574 6.25741C11.6321 7.38263 11 8.90875 11 10.5V15.5C11 15.7761 10.7761 16 10.5 16H7C6.72386 16 6.5 16.2239 6.5 16.5C6.5 16.7761 6.72386 17 7 17H10.5C10.7761 17 11 17.2239 11 17.5V21.5C11 22.5609 10.5786 23.5783 9.82843 24.3285C9.07828 25.0786 8.06087 25.5 7 25.5C6.72386 25.5 6.5 25.7239 6.5 26C6.5 26.2762 6.72386 26.5 7 26.5H23C23.2761 26.5 23.5 26.2762 23.5 26C23.5 25.7239 23.2761 25.5 23 25.5H11.2427C11.0491 25.5 10.8729 25.3883 10.7904 25.2132C10.7079 25.0382 10.7338 24.8312 10.857 24.6819C11.5927 23.79 12 22.666 12 21.5V17.5C12 17.2239 12.2239 17 12.5 17H17C17.2761 17 17.5 16.7761 17.5 16.5C17.5 16.2239 17.2761 16 17 16H12.5C12.2239 16 12 15.7761 12 15.5V10.5C12 9.17397 12.5268 7.9022 13.4645 6.96451C14.402 6.02696 15.6736 5.5002 16.9994 5.50005M17.0021 5.50004C17.6583 5.4973 18.3084 5.62537 18.9145 5.87678C19.5206 6.12818 20.0705 6.49788 20.5321 6.96427C20.7264 7.16054 21.043 7.16217 21.2392 6.96793C21.4355 6.77368 21.4371 6.4571 21.2429 6.26083C20.6878 5.69999 20.0265 5.25541 19.2977 4.95309M17.0021 5.50004L17.0031 5.50004L17.0042 6.00004L17.0021 5.50004Z" fill="white"/>
</svg>
