<svg width="32" height="32" viewBox="0 0 32 32" fill="none" xmlns="http://www.w3.org/2000/svg">
<path d="M7.774 5.36681C7.42428 4.93936 6.79425 4.87636 6.36681 5.22609C5.93936 5.57582 5.87636 6.20584 6.22609 6.63328L13.8898 16H10C9.44773 16 9.00002 16.4477 9.00002 17C9.00002 17.5523 9.44773 18 10 18H15V20H10C9.44773 20 9.00002 20.4477 9.00002 21C9.00002 21.5523 9.44773 22 10 22H15V27C15 27.5523 15.4477 28 16 28C16.5523 28 17 27.5523 17 27V22H22C22.5523 22 23 21.5523 23 21C23 20.4477 22.5523 20 22 20H17V18H22C22.5523 18 23 17.5523 23 17C23 16.4477 22.5523 16 22 16H18.1103L25.774 6.63328C26.1237 6.20584 26.0607 5.57582 25.6333 5.22609C25.2058 4.87636 24.5758 4.93936 24.2261 5.36681L16 15.4209L7.774 5.36681Z" fill="white"/>
<path fill-rule="evenodd" clip-rule="evenodd" d="M6.05019 4.83911C6.69136 4.31452 7.63639 4.40902 8.16098 5.05019L16 14.6313L23.8391 5.05019C24.3637 4.40902 25.3087 4.31452 25.9499 4.83911C26.5911 5.3637 26.6856 6.30873 26.161 6.9499L19.1654 15.5H22C22.8284 15.5 23.5 16.1716 23.5 17C23.5 17.8284 22.8284 18.5 22 18.5H17.5V19.5H22C22.8284 19.5 23.5 20.1716 23.5 21C23.5 21.8284 22.8284 22.5 22 22.5H17.5V27C17.5 27.8284 16.8284 28.5 16 28.5C15.1716 28.5 14.5 27.8284 14.5 27V22.5H10C9.17159 22.5 8.50002 21.8284 8.50002 21C8.50002 20.1716 9.17159 19.5 10 19.5H14.5V18.5H10C9.17159 18.5 8.50002 17.8284 8.50002 17C8.50002 16.1716 9.17159 15.5 10 15.5H12.8347L5.83911 6.9499C5.31452 6.30873 5.40902 5.3637 6.05019 4.83911ZM7.38702 5.68343C7.21216 5.4697 6.89715 5.4382 6.68343 5.61307C6.4697 5.78793 6.4382 6.10294 6.61307 6.31666L14.2768 15.6834C14.3991 15.8329 14.4243 16.0395 14.3416 16.2141C14.2589 16.3887 14.083 16.5 13.8898 16.5H10C9.72387 16.5 9.50002 16.7239 9.50002 17C9.50002 17.2762 9.72387 17.5 10 17.5H15C15.2762 17.5 15.5 17.7239 15.5 18V20C15.5 20.2762 15.2762 20.5 15 20.5H10C9.72387 20.5 9.50002 20.7239 9.50002 21C9.50002 21.2762 9.72387 21.5 10 21.5H15C15.2762 21.5 15.5 21.7239 15.5 22V27C15.5 27.2762 15.7239 27.5 16 27.5C16.2762 27.5 16.5 27.2762 16.5 27V22C16.5 21.7239 16.7239 21.5 17 21.5H22C22.2762 21.5 22.5 21.2762 22.5 21C22.5 20.7239 22.2762 20.5 22 20.5H17C16.7239 20.5 16.5 20.2762 16.5 20V18C16.5 17.7239 16.7239 17.5 17 17.5H22C22.2762 17.5 22.5 17.2762 22.5 17C22.5 16.7239 22.2762 16.5 22 16.5H18.1103C17.9171 16.5 17.7412 16.3887 17.6585 16.2141C17.5757 16.0395 17.601 15.8329 17.7233 15.6834L25.387 6.31667C25.5619 6.10294 25.5304 5.78793 25.3167 5.61307C25.1029 5.4382 24.7879 5.4697 24.6131 5.68343L16.387 15.7375C16.2921 15.8535 16.15 15.9209 16 15.9209C15.8501 15.9209 15.708 15.8535 15.6131 15.7375L7.38702 5.68343Z" fill="white"/>
</svg>
