<svg width="32" height="32" viewBox="0 0 32 32" fill="none" xmlns="http://www.w3.org/2000/svg">
<path fill-rule="evenodd" clip-rule="evenodd" d="M3.92649 8.62353C3.71862 8.11186 3.13532 7.86557 2.62364 8.07344C2.11197 8.28131 1.86569 8.86461 2.07355 9.37629L4.76449 16.0001H2C1.44772 16.0001 1 16.4478 1 17.0001C1 17.5524 1.44772 18.0001 2 18.0001H5.57699L8.57355 25.3763C8.72672 25.7533 9.09307 25.9999 9.50002 25.9999C9.90697 25.9999 10.2733 25.7533 10.4265 25.3763L13.423 18.0001H18.577L21.5736 25.3763C21.7267 25.7533 22.0931 25.9999 22.5 25.9999C22.907 25.9999 23.2733 25.7533 23.4265 25.3763L26.423 18.0001H30C30.5523 18.0001 31 17.5524 31 17.0001C31 16.4478 30.5523 16.0001 30 16.0001H27.2355L29.9265 9.37629C30.1344 8.86461 29.8881 8.28131 29.3764 8.07344C28.8647 7.86557 28.2814 8.11186 28.0736 8.62353L25.0768 16.0001H19.9232L16.9265 8.62353C16.7733 8.24651 16.407 7.99991 16 7.99991C15.5931 7.99991 15.2267 8.24651 15.0736 8.62353L12.0768 16.0001H6.92323L3.92649 8.62353ZM7.73573 18.0001L9.50002 22.343L11.2643 18.0001H7.73573ZM14.2355 16.0001H17.7645L16 11.6568L14.2355 16.0001ZM20.7357 18.0001L22.5 22.343L24.2643 18.0001H20.7357Z" fill="white"/>
<path fill-rule="evenodd" clip-rule="evenodd" d="M2.43545 7.61021C3.20296 7.29841 4.07792 7.66783 4.38972 8.43534L7.25979 15.5001H11.7402L14.6103 8.43534C14.8401 7.86981 15.3896 7.49991 16 7.49991C16.6104 7.49991 17.16 7.86981 17.3897 8.43534L20.2598 15.5001H24.7402L27.6103 8.43534C27.9221 7.66783 28.7971 7.29841 29.5646 7.61021C30.3321 7.92201 30.7015 8.79696 30.3897 9.56447L27.9784 15.5001H30C30.8284 15.5001 31.5 16.1717 31.5 17.0001C31.5 17.8286 30.8284 18.5001 30 18.5001H26.7596L23.8897 25.5645C23.66 26.13 23.1104 26.4999 22.5 26.4999C21.8896 26.4999 21.3401 26.13 21.1103 25.5645L18.2404 18.5001H13.7596L10.8897 25.5645C10.66 26.13 10.1104 26.4999 9.50002 26.4999C8.8896 26.4999 8.34007 26.13 8.11032 25.5645L5.24043 18.5001H2C1.17157 18.5001 0.5 17.8286 0.5 17.0001C0.5 16.1717 1.17157 15.5001 2 15.5001H4.02168L1.61032 9.56447C1.29852 8.79696 1.66794 7.92201 2.43545 7.61021ZM3.46325 8.81172C3.35932 8.55588 3.06767 8.43274 2.81183 8.53667C2.55599 8.64061 2.43285 8.93226 2.53679 9.1881L5.22772 15.8119C5.29035 15.9661 5.27219 16.1413 5.17928 16.2793C5.08637 16.4174 4.93088 16.5001 4.76449 16.5001H2C1.72386 16.5001 1.5 16.724 1.5 17.0001C1.5 17.2763 1.72386 17.5001 2 17.5001H5.57699C5.78046 17.5001 5.96364 17.6234 6.04022 17.8119L9.03679 25.1881C9.11337 25.3766 9.29655 25.4999 9.50002 25.4999C9.70349 25.4999 9.88667 25.3766 9.96325 25.1881L12.9598 17.8119C13.0364 17.6234 13.2196 17.5001 13.423 17.5001H18.577C18.7805 17.5001 18.9636 17.6234 19.0402 17.8119L22.0368 25.1881C22.1134 25.3766 22.2965 25.4999 22.5 25.4999C22.7035 25.4999 22.8867 25.3766 22.9633 25.1881L25.9598 17.8119C26.0364 17.6234 26.2196 17.5001 26.423 17.5001H30C30.2761 17.5001 30.5 17.2763 30.5 17.0001C30.5 16.724 30.2761 16.5001 30 16.5001H27.2355C27.0692 16.5001 26.9137 16.4174 26.8208 16.2793C26.7279 16.1413 26.7097 15.9661 26.7723 15.8119L29.4633 9.1881C29.5672 8.93226 29.444 8.64061 29.1882 8.53667C28.9324 8.43274 28.6407 8.55588 28.5368 8.81172L25.54 16.1883C25.4635 16.3768 25.2803 16.5001 25.0768 16.5001H19.9232C19.7198 16.5001 19.5366 16.3768 19.46 16.1883L16.4633 8.81172C16.3867 8.62321 16.2035 8.49991 16 8.49991C15.7965 8.49991 15.6134 8.62321 15.5368 8.81172L12.54 16.1883C12.4635 16.3768 12.2803 16.5001 12.0768 16.5001H6.92323C6.71976 16.5001 6.53658 16.3768 6.46 16.1883L3.46325 8.81172ZM16 11.1568C16.2035 11.1568 16.3867 11.2801 16.4633 11.4686L18.2277 15.8119C18.2903 15.9661 18.2722 16.1413 18.1793 16.2793C18.0864 16.4174 17.9309 16.5001 17.7645 16.5001H14.2355C14.0692 16.5001 13.9137 16.4174 13.8208 16.2793C13.7279 16.1413 13.7097 15.9661 13.7723 15.8119L15.5368 11.4686C15.6134 11.2801 15.7965 11.1568 16 11.1568ZM14.9784 15.5001H17.0217L16 12.9853L14.9784 15.5001ZM7.32094 17.7209C7.41386 17.5829 7.56934 17.5001 7.73573 17.5001H11.2643C11.4307 17.5001 11.5862 17.5829 11.6791 17.7209C11.772 17.859 11.7902 18.0342 11.7275 18.1883L9.96325 22.5312C9.88667 22.7197 9.70349 22.843 9.50002 22.843C9.29655 22.843 9.11337 22.7197 9.03679 22.5312L7.2725 18.1883C7.20987 18.0342 7.22803 17.859 7.32094 17.7209ZM8.47854 18.5001L9.50002 21.0145L10.5215 18.5001H8.47854ZM20.3209 17.7209C20.4139 17.5829 20.5693 17.5001 20.7357 17.5001H24.2643C24.4307 17.5001 24.5862 17.5829 24.6791 17.7209C24.772 17.859 24.7902 18.0342 24.7275 18.1883L22.9633 22.5312C22.8867 22.7197 22.7035 22.843 22.5 22.843C22.2965 22.843 22.1134 22.7197 22.0368 22.5312L20.2725 18.1883C20.2099 18.0342 20.228 17.859 20.3209 17.7209ZM21.4785 18.5001L22.5 21.0145L23.5215 18.5001H21.4785Z" fill="white"/>
</svg>
