<svg width="32" height="32" viewBox="0 0 32 32" fill="none" xmlns="http://www.w3.org/2000/svg">
<path d="M6 7C6 6.44772 6.44772 6 7 6H25C25.5523 6 26 6.44772 26 7C26 7.55228 25.5523 8 25 8H7C6.44772 8 6 7.55228 6 7Z" fill="white"/>
<path d="M6 12C6 11.4477 6.44772 11 7 11H25C25.5523 11 26 11.4477 26 12C26 12.5523 25.5523 13 25 13H17V27C17 27.5523 16.5523 28 16 28C15.4477 28 15 27.5523 15 27V13H7C6.44772 13 6 12.5523 6 12Z" fill="white"/>
<path fill-rule="evenodd" clip-rule="evenodd" d="M7 6.5C6.72386 6.5 6.5 6.72386 6.5 7C6.5 7.27614 6.72386 7.5 7 7.5H25C25.2761 7.5 25.5 7.27614 25.5 7C25.5 6.72386 25.2761 6.5 25 6.5H7ZM5.5 7C5.5 6.17157 6.17157 5.5 7 5.5H25C25.8284 5.5 26.5 6.17157 26.5 7C26.5 7.82843 25.8284 8.5 25 8.5H7C6.17157 8.5 5.5 7.82843 5.5 7ZM7 11.5C6.72386 11.5 6.5 11.7239 6.5 12C6.5 12.2761 6.72386 12.5 7 12.5H15C15.2761 12.5 15.5 12.7239 15.5 13V27C15.5 27.2761 15.7239 27.5 16 27.5C16.2761 27.5 16.5 27.2761 16.5 27V13C16.5 12.7239 16.7239 12.5 17 12.5H25C25.2761 12.5 25.5 12.2761 25.5 12C25.5 11.7239 25.2761 11.5 25 11.5H7ZM5.5 12C5.5 11.1716 6.17157 10.5 7 10.5H25C25.8284 10.5 26.5 11.1716 26.5 12C26.5 12.8284 25.8284 13.5 25 13.5H17.5V27C17.5 27.8284 16.8284 28.5 16 28.5C15.1716 28.5 14.5 27.8284 14.5 27V13.5H7C6.17157 13.5 5.5 12.8284 5.5 12Z" fill="white"/>
</svg>
