<svg width="32" height="32" viewBox="0 0 32 32" fill="none" xmlns="http://www.w3.org/2000/svg">
<path fill-rule="evenodd" clip-rule="evenodd" d="M8.78832 5.13482C8.52566 4.79829 8.07834 4.66561 7.67467 4.80449C7.271 4.94337 7 5.32319 7 5.75009V13H5C4.44772 13 4 13.4477 4 14C4 14.5523 4.44772 15 5 15H7V17H5C4.44772 17 4 17.4477 4 18C4 18.5523 4.44772 19 5 19H7V26.2501C7 26.8024 7.44772 27.2501 8 27.2501C8.55228 27.2501 9 26.8024 9 26.2501V19H17.0729L23.2117 26.8654C23.4743 27.2019 23.9217 27.3346 24.3253 27.1957C24.729 27.0568 25 26.677 25 26.2501V19H27C27.5523 19 28 18.5523 28 18C28 17.4477 27.5523 17 27 17H25V15H27C27.5523 15 28 14.5523 28 14C28 13.4477 27.5523 13 27 13H25V5.75009C25 5.1978 24.5523 4.75009 24 4.75009C23.4477 4.75009 23 5.1978 23 5.75009V13H14.927L8.78832 5.13482ZM12.39 13L9 8.65664V13H12.39ZM9 15H13.9509L15.5119 17H9V15ZM18.049 17L16.488 15H23V17H18.049ZM19.6099 19L23 23.3435V19H19.6099Z" fill="white"/>
<path fill-rule="evenodd" clip-rule="evenodd" d="M7.512 4.33169C8.11751 4.12337 8.78849 4.32239 9.18247 4.82718L15.171 12.5H22.5V5.75009C22.5 4.92166 23.1716 4.25009 24 4.25009C24.8284 4.25009 25.5 4.92166 25.5 5.75009V12.5H27C27.8284 12.5 28.5 13.1716 28.5 14C28.5 14.8285 27.8284 15.5 27 15.5H25.5V16.5H27C27.8284 16.5 28.5 17.1716 28.5 18C28.5 18.8285 27.8284 19.5 27 19.5H25.5V26.2501C25.5 26.8904 25.0935 27.4602 24.488 27.6685C23.8825 27.8768 23.2115 27.6778 22.8175 27.173L16.8289 19.5H9.5V26.2501C9.5 27.0785 8.82843 27.7501 8 27.7501C7.17157 27.7501 6.5 27.0785 6.5 26.2501V19.5H5C4.17157 19.5 3.5 18.8285 3.5 18C3.5 17.1716 4.17157 16.5 5 16.5H6.5V15.5H5C4.17157 15.5 3.5 14.8285 3.5 14C3.5 13.1716 4.17157 12.5 5 12.5H6.5V5.75009C6.5 5.10975 6.90649 4.54002 7.512 4.33169ZM8.39416 5.44245C8.26283 5.27419 8.03917 5.20785 7.83733 5.27729C7.6355 5.34673 7.5 5.53664 7.5 5.75009V13C7.5 13.2762 7.27614 13.5 7 13.5H5C4.72386 13.5 4.5 13.7239 4.5 14C4.5 14.2762 4.72386 14.5 5 14.5H7C7.27614 14.5 7.5 14.7239 7.5 15V17C7.5 17.2762 7.27614 17.5 7 17.5H5C4.72386 17.5 4.5 17.7239 4.5 18C4.5 18.2762 4.72386 18.5 5 18.5H7C7.27614 18.5 7.5 18.7239 7.5 19V26.2501C7.5 26.5262 7.72386 26.7501 8 26.7501C8.27614 26.7501 8.5 26.5262 8.5 26.2501V19C8.5 18.7239 8.72386 18.5 9 18.5H17.0729C17.2269 18.5 17.3723 18.571 17.467 18.6924L23.6058 26.5577C23.7372 26.726 23.9608 26.7923 24.1627 26.7229C24.3645 26.6534 24.5 26.4635 24.5 26.2501V19C24.5 18.7239 24.7239 18.5 25 18.5H27C27.2761 18.5 27.5 18.2762 27.5 18C27.5 17.7239 27.2761 17.5 27 17.5H25C24.7239 17.5 24.5 17.2762 24.5 17V15C24.5 14.7239 24.7239 14.5 25 14.5H27C27.2761 14.5 27.5 14.2762 27.5 14C27.5 13.7239 27.2761 13.5 27 13.5H25C24.7239 13.5 24.5 13.2762 24.5 13V5.75009C24.5 5.47395 24.2761 5.25009 24 5.25009C23.7239 5.25009 23.5 5.47395 23.5 5.75009V13C23.5 13.2762 23.2761 13.5 23 13.5H14.927C14.773 13.5 14.6276 13.4291 14.5329 13.3077L8.39416 5.44245ZM8.83733 8.18384C9.03917 8.1144 9.26283 8.18074 9.39416 8.349L12.7841 12.6924C12.9017 12.8431 12.9231 13.0476 12.8393 13.2193C12.7555 13.3911 12.5811 13.5 12.39 13.5H9C8.72386 13.5 8.5 13.2762 8.5 13V8.65664C8.5 8.44319 8.6355 8.25328 8.83733 8.18384ZM9.5 10.1099V12.5H11.3655L9.5 10.1099ZM8.5 15C8.5 14.7239 8.72386 14.5 9 14.5H13.9509C14.1049 14.5 14.2503 14.571 14.3451 14.6924L15.9061 16.6924C16.0237 16.8431 16.0451 17.0476 15.9613 17.2193C15.8774 17.3911 15.703 17.5 15.5119 17.5H9C8.72386 17.5 8.5 17.2762 8.5 17V15ZM9.5 15.5V16.5H14.4874L13.7069 15.5H9.5ZM16.0387 14.7807C16.1225 14.609 16.2969 14.5 16.488 14.5H23C23.2761 14.5 23.5 14.7239 23.5 15V17C23.5 17.2762 23.2761 17.5 23 17.5H18.049C17.895 17.5 17.7496 17.4291 17.6548 17.3077L16.0938 15.3077C15.9762 15.157 15.9548 14.9525 16.0387 14.7807ZM17.5125 15.5L18.293 16.5H22.5V15.5H17.5125ZM19.1606 18.7807C19.2444 18.609 19.4188 18.5 19.6099 18.5H23C23.2761 18.5 23.5 18.7239 23.5 19V23.3435C23.5 23.557 23.3645 23.7469 23.1627 23.8163C22.9608 23.8858 22.7372 23.8194 22.6058 23.6512L19.2158 19.3077C19.0982 19.157 19.0768 18.9525 19.1606 18.7807ZM20.6345 19.5L22.5 21.8903V19.5H20.6345Z" fill="white"/>
</svg>
