<svg width="32" height="32" viewBox="0 0 32 32" fill="none" xmlns="http://www.w3.org/2000/svg">
<path fill-rule="evenodd" clip-rule="evenodd" d="M11 4C10.4477 4 10 4.44772 10 5V17H7C6.44772 17 6 17.4477 6 18C6 18.5523 6.44772 19 7 19H10V21H7C6.44772 21 6 21.4477 6 22C6 22.5523 6.44772 23 7 23H10V27C10 27.5523 10.4477 28 11 28C11.5523 28 12 27.5523 12 27V23H18C18.5523 23 19 22.5523 19 22C19 21.4477 18.5523 21 18 21H12V19H18.5C20.4891 19 22.3968 18.2098 23.8033 16.8033C25.2098 15.3968 26 13.4891 26 11.5C26 9.51088 25.2098 7.60322 23.8033 6.1967C22.3968 4.79018 20.4891 4 18.5 4H11ZM18.5 17H12V6H18.5C19.9587 6 21.3576 6.57946 22.3891 7.61091C23.4205 8.64236 24 10.0413 24 11.5C24 12.9587 23.4205 14.3576 22.3891 15.3891C21.3576 16.4205 19.9587 17 18.5 17Z" fill="white"/>
<path fill-rule="evenodd" clip-rule="evenodd" d="M9.5 5C9.5 4.17157 10.1716 3.5 11 3.5H18.5C20.6217 3.5 22.6566 4.34285 24.1569 5.84315C25.6571 7.34344 26.5 9.37827 26.5 11.5C26.5 13.6217 25.6571 15.6566 24.1569 17.1569C22.6566 18.6571 20.6217 19.5 18.5 19.5H12.5V20.5H18C18.8284 20.5 19.5 21.1716 19.5 22C19.5 22.8284 18.8284 23.5 18 23.5H12.5V27C12.5 27.8284 11.8284 28.5 11 28.5C10.1716 28.5 9.5 27.8284 9.5 27V23.5H7C6.17157 23.5 5.5 22.8284 5.5 22C5.5 21.1716 6.17157 20.5 7 20.5H9.5V19.5H7C6.17157 19.5 5.5 18.8284 5.5 18C5.5 17.1716 6.17157 16.5 7 16.5H9.5V5ZM11 4.5C10.7239 4.5 10.5 4.72386 10.5 5V17C10.5 17.2761 10.2761 17.5 10 17.5H7C6.72386 17.5 6.5 17.7239 6.5 18C6.5 18.2761 6.72386 18.5 7 18.5H10C10.2761 18.5 10.5 18.7239 10.5 19V21C10.5 21.2761 10.2761 21.5 10 21.5H7C6.72386 21.5 6.5 21.7239 6.5 22C6.5 22.2761 6.72386 22.5 7 22.5H10C10.2761 22.5 10.5 22.7239 10.5 23V27C10.5 27.2761 10.7239 27.5 11 27.5C11.2761 27.5 11.5 27.2761 11.5 27V23C11.5 22.7239 11.7239 22.5 12 22.5H18C18.2761 22.5 18.5 22.2761 18.5 22C18.5 21.7239 18.2761 21.5 18 21.5H12C11.7239 21.5 11.5 21.2761 11.5 21V19C11.5 18.7239 11.7239 18.5 12 18.5H18.5C20.3565 18.5 22.137 17.7625 23.4497 16.4497C24.7625 15.137 25.5 13.3565 25.5 11.5C25.5 9.64348 24.7625 7.86301 23.4497 6.55025C22.137 5.2375 20.3565 4.5 18.5 4.5H11ZM11.5 6C11.5 5.72386 11.7239 5.5 12 5.5H18.5C20.0913 5.5 21.6174 6.13214 22.7426 7.25736C23.8679 8.38258 24.5 9.9087 24.5 11.5C24.5 13.0913 23.8679 14.6174 22.7426 15.7426C21.6174 16.8679 20.0913 17.5 18.5 17.5H12C11.7239 17.5 11.5 17.2761 11.5 17V6ZM12.5 6.5V16.5H18.5C19.8261 16.5 21.0979 15.9732 22.0355 15.0355C22.9732 14.0979 23.5 12.8261 23.5 11.5C23.5 10.1739 22.9732 8.90215 22.0355 7.96447C21.0979 7.02678 19.8261 6.5 18.5 6.5H12.5Z" fill="white"/>
</svg>
