<svg width="32" height="33" viewBox="0 0 32 33" fill="none" xmlns="http://www.w3.org/2000/svg">
<path fill-rule="evenodd" clip-rule="evenodd" d="M16 2.14453C15.5683 2.14453 15.1441 2.25746 14.7696 2.47203L14.7682 2.47285L4.27178 8.4083C3.88762 8.62646 3.56777 8.94206 3.34449 9.32327C3.12122 9.70447 3.00237 10.1378 3 10.5796V22.4127L3 22.414L3.00002 22.4194L3.00002 22.4207C3.00239 22.8625 3.12121 23.2958 3.34449 23.677C3.56777 24.0583 3.88841 24.3743 4.27257 24.5925L14.7681 30.5274L14.7696 30.5283C15.1441 30.7429 15.5683 30.8558 16 30.8558C16.4317 30.8558 16.8558 30.7429 17.2303 30.5283L17.2319 30.5274L27.7282 24.592C28.1124 24.3738 28.4322 24.0583 28.6555 23.677C28.8788 23.2958 28.9976 22.8625 29 22.4207L29 22.418L29 10.5877L29 10.5794C28.9976 10.1377 28.8788 9.70443 28.6555 9.32327C28.4322 8.94206 28.1116 8.62601 27.7274 8.40785L17.2318 2.47285L17.2304 2.47202C16.8559 2.25745 16.4317 2.14453 16 2.14453ZM16.0001 5.2228L6 10.884V22.1163L16 27.7775L26 22.1164L25.9983 10.8784L16.0001 5.2228Z" fill="white"/>
</svg>
