<svg width="32" height="33" viewBox="0 0 32 33" fill="none" xmlns="http://www.w3.org/2000/svg">
<path d="M15.017 2.90653C15.3162 2.73487 15.6551 2.64453 16 2.64453C16.3449 2.64453 16.6838 2.73487 16.983 2.90653L27.4813 8.84309C27.789 9.01783 28.0452 9.27062 28.2241 9.57597C28.4029 9.88131 28.4981 10.2284 28.5 10.5823L28.5 10.5877L28.5 22.4127H27.5L28.5 22.418C28.4981 22.7719 28.4029 23.119 28.2241 23.4243C28.0452 23.7297 27.789 23.9825 27.4813 24.1572L16.983 30.0937C16.6839 30.2654 16.345 30.3558 16 30.3558C15.655 30.3558 15.3161 30.2654 15.017 30.0937L4.52027 24.1581L4.51869 24.1572C4.21097 23.9825 3.95478 23.7297 3.77593 23.4243C3.59709 23.119 3.50191 22.7719 3.50001 22.418L3.5 22.4127V10.5823C3.5019 10.2284 3.59709 9.88132 3.77593 9.57597C3.95478 9.27062 4.21097 9.01783 4.51869 8.84309L4.52027 8.84219L15.017 2.90653Z" fill="white"/>
<path fill-rule="evenodd" clip-rule="evenodd" d="M14.7696 2.47202C15.1441 2.25745 15.5683 2.14453 16 2.14453C16.4317 2.14453 16.8559 2.25745 17.2304 2.47202C17.2309 2.4723 17.2313 2.47258 17.2318 2.47285L27.7274 8.40785C28.1116 8.62601 28.4322 8.94206 28.6555 9.32327C28.8788 9.70443 28.9976 10.1377 29 10.5794C29 10.5794 29 10.5795 29 10.5794L29 10.5877L29 22.4127C29 22.414 29 22.4154 29 22.4168C29 22.4181 29 22.4194 29 22.4207C28.9976 22.8625 28.8788 23.2958 28.6555 23.677C28.4322 24.0583 28.1124 24.3738 27.7282 24.592L17.2319 30.5274C17.2314 30.5277 17.2309 30.528 17.2303 30.5283C16.8558 30.7429 16.4317 30.8558 16 30.8558C15.5683 30.8558 15.1441 30.7429 14.7696 30.5283C14.7691 30.528 14.7686 30.5277 14.7681 30.5274L4.27416 24.5934L4.27211 24.5922C3.88795 24.374 3.56777 24.0583 3.34449 23.677C3.12121 23.2958 3.00239 22.8625 3.00002 22.4207L3.00002 22.4194L3 22.414L3 22.4127V10.5796C3.00237 10.1378 3.12122 9.70447 3.34449 9.32327C3.56777 8.94206 3.88762 8.62646 4.27178 8.4083L14.7682 2.47285C14.7687 2.47258 14.7691 2.4723 14.7696 2.47202ZM28 21.9127H27.5C27.2244 21.9127 27.0007 22.1357 27 22.4113C26.9993 22.6869 27.2217 22.9112 27.4973 22.9126L27.5 22.9127L27.9123 22.9149C27.8806 23.0037 27.8406 23.0897 27.7926 23.1716C27.6584 23.4009 27.4661 23.5907 27.2352 23.722M27.2352 23.722L16.7369 29.6585L16.7342 29.6601C16.5108 29.7883 16.2576 29.8558 16 29.8558C15.7424 29.8558 15.4892 29.7883 15.2658 29.6601L4.76559 23.7224M28 21.9127L28 10.5877L28 10.5851C27.9986 10.3192 27.927 10.0582 27.7926 9.82867C27.6583 9.59942 27.4661 9.40958 27.2351 9.27826C27.2349 9.27813 27.2353 9.2784 27.2351 9.27826L16.7341 3.34021C16.5107 3.21201 16.2576 3.14453 16 3.14453C15.7424 3.14453 15.4893 3.212 15.2659 3.3402L15.2631 3.34177L4.76713 9.277L4.76559 9.27787M4 10.5837V22.412L4.00001 22.4153C4.00144 22.6813 4.07296 22.9422 4.20737 23.1716" fill="white"/>
</svg>
