<svg width="32" height="32" viewBox="0 0 32 32" fill="none" xmlns="http://www.w3.org/2000/svg">
<path d="M20.9398 5.34166C21.1286 4.82263 20.8608 4.24887 20.3418 4.06013C19.8227 3.87139 19.249 4.13914 19.0602 4.65818L11.0602 26.6582C10.8715 27.1772 11.1393 27.751 11.6583 27.9397C12.1773 28.1285 12.7511 27.8607 12.9398 27.3417L20.9398 5.34166Z" fill="white"/>
<path d="M8.76822 10.36C9.12178 10.7843 9.06446 11.4148 8.64018 11.7684L3.56205 16.0002L8.64018 20.2319C9.06446 20.5855 9.12178 21.2161 8.76822 21.6403C8.41466 22.0646 7.78409 22.1219 7.35982 21.7684L1.35982 16.7684C1.13182 16.5784 1 16.2969 1 16.0002C1 15.7034 1.13182 15.4219 1.35982 15.2319L7.35982 10.2319C7.78409 9.87838 8.41466 9.9357 8.76822 10.36Z" fill="white"/>
<path d="M23.2318 10.36C23.5854 9.9357 24.2159 9.87838 24.6402 10.2319L30.6402 15.2319C30.8682 15.4219 31 15.7034 31 16.0002C31 16.2969 30.8682 16.5784 30.6402 16.7684L24.6402 21.7684C24.2159 22.1219 23.5854 22.0646 23.2318 21.6403C22.8782 21.2161 22.9356 20.5855 23.3598 20.2319L28.438 16.0002L23.3598 11.7684C22.9356 11.4148 22.8782 10.7843 23.2318 10.36Z" fill="white"/>
<path fill-rule="evenodd" clip-rule="evenodd" d="M18.5903 4.48731C18.8734 3.70876 19.7341 3.30712 20.5126 3.59023C21.2912 3.87334 21.6928 4.73398 21.4097 5.51253L13.4097 27.5125C13.1266 28.2911 12.266 28.6927 11.4874 28.4096C10.7089 28.1265 10.3072 27.2659 10.5903 26.4873L18.5903 4.48731ZM20.1709 4.53002C19.9114 4.43565 19.6245 4.56953 19.5301 4.82905L11.5301 26.829C11.4358 27.0886 11.5696 27.3754 11.8292 27.4698C12.0887 27.5642 12.3756 27.4303 12.4699 27.1708L20.4699 5.17079C20.5643 4.91127 20.4304 4.62439 20.1709 4.53002ZM8.38411 10.6801C8.20733 10.4679 7.89205 10.4393 7.67991 10.6161L1.67991 15.6161C1.56591 15.711 1.5 15.8518 1.5 16.0002C1.5 16.1486 1.56591 16.2893 1.67991 16.3843L7.67991 21.3843C7.89205 21.5611 8.20733 21.5324 8.38411 21.3203C8.56089 21.1081 8.53223 20.7928 8.32009 20.6161L3.24196 16.3843C3.12796 16.2893 3.06205 16.1486 3.06205 16.0002C3.06205 15.8518 3.12796 15.711 3.24196 15.6161L8.32009 11.3843C8.53223 11.2075 8.56089 10.8922 8.38411 10.6801ZM7.03972 9.84783C7.67614 9.31748 8.62199 9.40347 9.15233 10.0399C9.68268 10.6763 9.59669 11.6221 8.96028 12.1525L4.34307 16.0002L8.96028 19.8478C9.59669 20.3782 9.68268 21.324 9.15233 21.9604C8.62199 22.5969 7.67614 22.6828 7.03972 22.1525L1.03972 17.1525C0.697734 16.8675 0.5 16.4453 0.5 16.0002C0.5 15.555 0.697735 15.1328 1.03972 14.8478L7.03972 9.84783ZM24.3201 10.6161C24.108 10.4393 23.7927 10.4679 23.6159 10.6801C23.4391 10.8922 23.4678 11.2075 23.6799 11.3843L28.7581 15.6161C28.8721 15.711 28.938 15.8518 28.938 16.0002C28.938 16.1486 28.8721 16.2893 28.7581 16.3843L23.6799 20.6161C23.4678 20.7928 23.4391 21.1081 23.6159 21.3203C23.7927 21.5324 24.108 21.5611 24.3201 21.3843L30.3201 16.3843C30.4341 16.2893 30.5 16.1486 30.5 16.0002C30.5 15.8518 30.4341 15.711 30.3201 15.6161L24.3201 10.6161ZM22.8477 10.0399C23.378 9.40347 24.3239 9.31748 24.9603 9.84783L30.9603 14.8478C31.3023 15.1328 31.5 15.555 31.5 16.0002C31.5 16.4453 31.3023 16.8675 30.9603 17.1525L24.9603 22.1525C24.3239 22.6828 23.378 22.5969 22.8477 21.9604C22.3173 21.324 22.4033 20.3782 23.0397 19.8478L27.6569 16.0002L23.0397 12.1525C22.4033 11.6221 22.3173 10.6763 22.8477 10.0399Z" fill="white"/>
</svg>
