<svg width="32" height="32" viewBox="0 0 32 32" fill="none" xmlns="http://www.w3.org/2000/svg">
<path d="M10.0035 6.8789C10.6226 6.32853 11.5707 6.3843 12.1211 7.00347C12.6715 7.62264 12.6157 8.57075 11.9965 9.12113L4.2578 16L11.9965 22.8789C12.6157 23.4293 12.6715 24.3774 12.1211 24.9966C11.5707 25.6157 10.6226 25.6715 10.0035 25.1211L1.00345 17.1211C0.683222 16.8365 0.5 16.4285 0.5 16C0.5 15.5716 0.683222 15.1636 1.00345 14.8789L10.0035 6.8789Z" fill="white"/>
<path d="M19.8789 7.00347C20.4293 6.3843 21.3774 6.32852 21.9966 6.8789L30.9966 14.8789C31.3168 15.1636 31.5 15.5716 31.5 16C31.5 16.4285 31.3168 16.8365 30.9966 17.1211L21.9966 25.1211C21.3774 25.6715 20.4293 25.6157 19.8789 24.9966C19.3285 24.3774 19.3843 23.4293 20.0035 22.8789L27.7422 16L20.0035 9.12113C19.3843 8.57075 19.3285 7.62265 19.8789 7.00347Z" fill="white"/>
</svg>
