<svg width="32" height="32" viewBox="0 0 32 32" fill="none" xmlns="http://www.w3.org/2000/svg">
<path fill-rule="evenodd" clip-rule="evenodd" d="M6 5C6 4.44772 5.55228 4 5 4C4.44772 4 4 4.44772 4 5V27C4 27.5523 4.44772 28 5 28C5.55228 28 6 27.5523 6 27V26H17C17.5523 26 18 25.5523 18 25V20H27C27.5523 20 28 19.5523 28 19V13C28 12.4477 27.5523 12 27 12H22V7C22 6.44772 21.5523 6 21 6H6V5ZM26 18V14H6V18H26ZM16 20V24H6V20H16ZM6 12H20V8H6V12Z" fill="white"/>
<path fill-rule="evenodd" clip-rule="evenodd" d="M3.5 5C3.5 4.17157 4.17157 3.5 5 3.5C5.82843 3.5 6.5 4.17157 6.5 5V5.5H21C21.8284 5.5 22.5 6.17157 22.5 7V11.5H27C27.8284 11.5 28.5 12.1716 28.5 13V19C28.5 19.8284 27.8284 20.5 27 20.5H18.5V25C18.5 25.8284 17.8284 26.5 17 26.5H6.5V27C6.5 27.8284 5.82843 28.5 5 28.5C4.17157 28.5 3.5 27.8284 3.5 27V5ZM5 4.5C4.72386 4.5 4.5 4.72386 4.5 5V27C4.5 27.2761 4.72386 27.5 5 27.5C5.27614 27.5 5.5 27.2761 5.5 27V26C5.5 25.7239 5.72386 25.5 6 25.5H17C17.2761 25.5 17.5 25.2761 17.5 25V20C17.5 19.7239 17.7239 19.5 18 19.5H27C27.2761 19.5 27.5 19.2761 27.5 19V13C27.5 12.7239 27.2761 12.5 27 12.5H22C21.7239 12.5 21.5 12.2761 21.5 12V7C21.5 6.72386 21.2761 6.5 21 6.5H6C5.72386 6.5 5.5 6.27614 5.5 6V5C5.5 4.72386 5.27614 4.5 5 4.5ZM5.5 8C5.5 7.72386 5.72386 7.5 6 7.5H20C20.2761 7.5 20.5 7.72386 20.5 8V12C20.5 12.2761 20.2761 12.5 20 12.5H6C5.72386 12.5 5.5 12.2761 5.5 12V8ZM6.5 8.5V11.5H19.5V8.5H6.5ZM5.5 14C5.5 13.7239 5.72386 13.5 6 13.5H26C26.2761 13.5 26.5 13.7239 26.5 14V18C26.5 18.2761 26.2761 18.5 26 18.5H6C5.72386 18.5 5.5 18.2761 5.5 18V14ZM6.5 14.5V17.5H25.5V14.5H6.5ZM5.5 20C5.5 19.7239 5.72386 19.5 6 19.5H16C16.2761 19.5 16.5 19.7239 16.5 20V24C16.5 24.2761 16.2761 24.5 16 24.5H6C5.72386 24.5 5.5 24.2761 5.5 24V20ZM6.5 20.5V23.5H15.5V20.5H6.5Z" fill="white"/>
</svg>
