<svg width="32" height="32" viewBox="0 0 32 32" fill="none" xmlns="http://www.w3.org/2000/svg">
<path fill-rule="evenodd" clip-rule="evenodd" d="M19.5 4C18.9477 4 18.5 4.44772 18.5 5V10H12.5C11.9477 10 11.5 10.4477 11.5 11V16H5.5C4.94772 16 4.5 16.4477 4.5 17V25H3.5C2.94772 25 2.5 25.4477 2.5 26C2.5 26.5523 2.94772 27 3.5 27H28.5C29.0523 27 29.5 26.5523 29.5 26C29.5 25.4477 29.0523 25 28.5 25H27.5V5C27.5 4.44772 27.0523 4 26.5 4H19.5ZM25.5 25V6H20.5V25H25.5ZM18.5 25V12H13.5V25H18.5ZM6.5 18H11.5V25H6.5V18Z" fill="white"/>
<path fill-rule="evenodd" clip-rule="evenodd" d="M18 5C18 4.17157 18.6716 3.5 19.5 3.5H26.5C27.3284 3.5 28 4.17157 28 5V24.5H28.5C29.3284 24.5 30 25.1716 30 26C30 26.8284 29.3284 27.5 28.5 27.5H3.5C2.67157 27.5 2 26.8284 2 26C2 25.1716 2.67157 24.5 3.5 24.5H4V17C4 16.1716 4.67157 15.5 5.5 15.5H11V11C11 10.1716 11.6716 9.5 12.5 9.5H18V5ZM19.5 4.5C19.2239 4.5 19 4.72386 19 5V10C19 10.2761 18.7761 10.5 18.5 10.5H12.5C12.2239 10.5 12 10.7239 12 11V16C12 16.2761 11.7761 16.5 11.5 16.5H5.5C5.22386 16.5 5 16.7239 5 17V25C5 25.2761 4.77614 25.5 4.5 25.5H3.5C3.22386 25.5 3 25.7239 3 26C3 26.2761 3.22386 26.5 3.5 26.5H28.5C28.7761 26.5 29 26.2761 29 26C29 25.7239 28.7761 25.5 28.5 25.5H27.5C27.2239 25.5 27 25.2761 27 25V5C27 4.72386 26.7761 4.5 26.5 4.5H19.5ZM20 6C20 5.72386 20.2239 5.5 20.5 5.5H25.5C25.7761 5.5 26 5.72386 26 6V25C26 25.2761 25.7761 25.5 25.5 25.5H20.5C20.2239 25.5 20 25.2761 20 25V6ZM21 6.5V24.5H25V6.5H21ZM13 12C13 11.7239 13.2239 11.5 13.5 11.5H18.5C18.7761 11.5 19 11.7239 19 12V25C19 25.2761 18.7761 25.5 18.5 25.5H13.5C13.2239 25.5 13 25.2761 13 25V12ZM14 12.5V24.5H18V12.5H14ZM6 18C6 17.7239 6.22386 17.5 6.5 17.5H11.5C11.7761 17.5 12 17.7239 12 18V25C12 25.2761 11.7761 25.5 11.5 25.5H6.5C6.22386 25.5 6 25.2761 6 25V18ZM7 18.5V24.5H11V18.5H7Z" fill="white"/>
</svg>
