<svg width="32" height="32" viewBox="0 0 32 32" fill="none" xmlns="http://www.w3.org/2000/svg">
<path d="M24 18C24 18.8284 23.3284 19.5 22.5 19.5C21.6716 19.5 21 18.8284 21 18C21 17.1716 21.6716 16.5 22.5 16.5C23.3284 16.5 24 17.1716 24 18Z" fill="white"/>
<path fill-rule="evenodd" clip-rule="evenodd" d="M6.29289 7.29289C6.48043 7.10536 6.73478 7 7 7H24C24.5523 7 25 6.55228 25 6C25 5.44772 24.5523 5 24 5H7C6.20435 5 5.44129 5.31607 4.87868 5.87868C4.31607 6.44129 4 7.20435 4 8V24C4 24.7957 4.31607 25.5587 4.87868 26.1213C5.44129 26.6839 6.20435 27 7 27H27C27.5304 27 28.0391 26.7893 28.4142 26.4142C28.7893 26.0391 29 25.5304 29 25V11C29 10.4696 28.7893 9.96086 28.4142 9.58579C28.0391 9.21071 27.5304 9 27 9H7C6.73478 9 6.48043 8.89464 6.29289 8.70711C6.10536 8.51957 6 8.26522 6 8C6 7.73478 6.10536 7.48043 6.29289 7.29289ZM6 24V10.8284C6.3182 10.9409 6.65606 11 7 11H27V25H7C6.73478 25 6.48043 24.8946 6.29289 24.7071C6.10536 24.5196 6 24.2652 6 24Z" fill="white"/>
<path fill-rule="evenodd" clip-rule="evenodd" d="M4.52513 5.52513C5.1815 4.86875 6.07174 4.5 7 4.5H24C24.8284 4.5 25.5 5.17157 25.5 6C25.5 6.82843 24.8284 7.5 24 7.5H7C6.86739 7.5 6.74021 7.55268 6.64645 7.64645C6.55268 7.74021 6.5 7.86739 6.5 8C6.5 8.13261 6.55268 8.25978 6.64645 8.35355C6.74022 8.44732 6.86739 8.5 7 8.5H27C27.663 8.5 28.2989 8.76339 28.7678 9.23223C29.2366 9.70108 29.5 10.337 29.5 11V25C29.5 25.663 29.2366 26.2989 28.7678 26.7678C28.2989 27.2366 27.663 27.5 27 27.5H7C6.07174 27.5 5.1815 27.1313 4.52513 26.4749C3.86875 25.8185 3.5 24.9283 3.5 24V8C3.5 7.07174 3.86875 6.1815 4.52513 5.52513ZM7 5.5C6.33696 5.5 5.70107 5.76339 5.23223 6.23223C4.76339 6.70107 4.5 7.33696 4.5 8V24C4.5 24.663 4.76339 25.2989 5.23223 25.7678C5.70107 26.2366 6.33696 26.5 7 26.5H27C27.3978 26.5 27.7794 26.342 28.0607 26.0607C28.342 25.7794 28.5 25.3978 28.5 25V11C28.5 10.6022 28.342 10.2206 28.0607 9.93934C27.7794 9.65804 27.3978 9.5 27 9.5H7C6.60218 9.5 6.22064 9.34196 5.93934 9.06066C5.65804 8.77936 5.5 8.39782 5.5 8C5.5 7.60218 5.65804 7.22064 5.93934 6.93934C6.22064 6.65804 6.60218 6.5 7 6.5H24C24.2761 6.5 24.5 6.27614 24.5 6C24.5 5.72386 24.2761 5.5 24 5.5H7ZM5.5 10.1213L6.16668 10.357C6.43185 10.4508 6.71337 10.5 7 10.5H27.5V25.5H7C6.60218 25.5 6.22064 25.342 5.93934 25.0607C5.65804 24.7794 5.5 24.3978 5.5 24V10.1213ZM6.5 11.4641V24C6.5 24.1326 6.55268 24.2598 6.64645 24.3536C6.74022 24.4473 6.86739 24.5 7 24.5H26.5V11.5H7C6.8317 11.5 6.66464 11.4879 6.5 11.4641ZM22.5 17C21.9477 17 21.5 17.4477 21.5 18C21.5 18.5523 21.9477 19 22.5 19C23.0523 19 23.5 18.5523 23.5 18C23.5 17.4477 23.0523 17 22.5 17ZM20.5 18C20.5 16.8954 21.3954 16 22.5 16C23.6046 16 24.5 16.8954 24.5 18C24.5 19.1046 23.6046 20 22.5 20C21.3954 20 20.5 19.1046 20.5 18Z" fill="white"/>
</svg>
