<svg width="32" height="32" viewBox="0 0 32 32" fill="none" xmlns="http://www.w3.org/2000/svg">
<path d="M27 9H7C6.73478 9 6.48043 8.89464 6.29289 8.70711C6.10536 8.51957 6 8.26522 6 8C6 7.73478 6.10536 7.48043 6.29289 7.29289C6.48043 7.10536 6.73478 7 7 7H24C24.2652 7 24.5196 6.89464 24.7071 6.70711C24.8946 6.51957 25 6.26522 25 6C25 5.73478 24.8946 5.48043 24.7071 5.29289C24.5196 5.10536 24.2652 5 24 5H7C6.20536 5.00329 5.44421 5.32042 4.88232 5.88232C4.32042 6.44421 4.00329 7.20536 4 8V24C4.00329 24.7946 4.32042 25.5558 4.88232 26.1177C5.44421 26.6796 6.20536 26.9967 7 27H27C27.5304 27 28.0391 26.7893 28.4142 26.4142C28.7893 26.0391 29 25.5304 29 25V11C29 10.4696 28.7893 9.96086 28.4142 9.58579C28.0391 9.21071 27.5304 9 27 9ZM22.5 19.5C22.2033 19.5 21.9133 19.412 21.6666 19.2472C21.42 19.0824 21.2277 18.8481 21.1142 18.574C21.0007 18.2999 20.9709 17.9983 21.0288 17.7074C21.0867 17.4164 21.2296 17.1491 21.4393 16.9393C21.6491 16.7296 21.9164 16.5867 22.2074 16.5288C22.4983 16.4709 22.7999 16.5007 23.074 16.6142C23.3481 16.7277 23.5824 16.92 23.7472 17.1666C23.912 17.4133 24 17.7033 24 18C24 18.3978 23.842 18.7794 23.5607 19.0607C23.2794 19.342 22.8978 19.5 22.5 19.5Z" fill="white"/>
<path fill-rule="evenodd" clip-rule="evenodd" d="M7 4.5H24C24.3978 4.5 24.7794 4.65804 25.0607 4.93934C25.342 5.22065 25.5 5.60218 25.5 6C25.5 6.39782 25.342 6.77935 25.0607 7.06066C24.7794 7.34196 24.3978 7.5 24 7.5H7C6.86739 7.5 6.74022 7.55268 6.64645 7.64645C6.55268 7.74022 6.5 7.86739 6.5 8C6.5 8.13261 6.55268 8.25978 6.64645 8.35355C6.74022 8.44732 6.86739 8.5 7 8.5H27C27.663 8.5 28.2989 8.76339 28.7678 9.23223C29.2366 9.70107 29.5 10.337 29.5 11V25C29.5 25.663 29.2366 26.2989 28.7678 26.7678C28.2989 27.2366 27.663 27.5 27 27.5H7L6.99793 27.5C6.0714 27.4962 5.18392 27.1264 4.52876 26.4712C3.8736 25.8161 3.50384 24.9286 3.5 24.0021L3.5 24V7.99793C3.50384 7.0714 3.8736 6.18392 4.52876 5.52876C5.18392 4.8736 6.0714 4.50384 6.99793 4.5L7 4.5ZM7.00108 5.5C6.33869 5.503 5.70427 5.76747 5.23587 6.23587C4.76747 6.70427 4.503 7.33869 4.5 8.00108V23.9989C4.503 24.6613 4.76747 25.2957 5.23587 25.7641C5.7043 26.2326 6.33876 26.497 7.00119 26.5H27C27.3978 26.5 27.7794 26.342 28.0607 26.0607C28.342 25.7794 28.5 25.3978 28.5 25V11C28.5 10.6022 28.342 10.2206 28.0607 9.93934C27.7794 9.65804 27.3978 9.5 27 9.5H7C6.60217 9.5 6.22064 9.34196 5.93934 9.06066C5.65804 8.77936 5.5 8.39783 5.5 8C5.5 7.60217 5.65804 7.22064 5.93934 6.93934C6.22064 6.65804 6.60217 6.5 7 6.5H24C24.1326 6.5 24.2598 6.44732 24.3536 6.35355C24.4473 6.25979 24.5 6.13261 24.5 6C24.5 5.86739 24.4473 5.74021 24.3536 5.64645C24.2598 5.55268 24.1326 5.5 24 5.5H7.00108ZM22.8827 17.0761C22.7 17.0004 22.4989 16.9806 22.3049 17.0192C22.1109 17.0578 21.9327 17.153 21.7929 17.2929C21.653 17.4327 21.5578 17.6109 21.5192 17.8049C21.4806 17.9989 21.5004 18.2 21.5761 18.3827C21.6518 18.5654 21.78 18.7216 21.9444 18.8315C22.1089 18.9414 22.3022 19 22.5 19C22.7652 19 23.0196 18.8946 23.2071 18.7071C23.3946 18.5196 23.5 18.2652 23.5 18C23.5 17.8022 23.4414 17.6089 23.3315 17.4444C23.2216 17.28 23.0654 17.1518 22.8827 17.0761ZM22.1098 16.0384C22.4978 15.9613 22.8999 16.0009 23.2654 16.1522C23.6308 16.3036 23.9432 16.56 24.1629 16.8889C24.3827 17.2178 24.5 17.6044 24.5 18C24.5 18.5304 24.2893 19.0391 23.9142 19.4142C23.5391 19.7893 23.0304 20 22.5 20C22.1044 20 21.7178 19.8827 21.3889 19.6629C21.06 19.4432 20.8036 19.1308 20.6522 18.7654C20.5009 18.3999 20.4613 17.9978 20.5384 17.6098C20.6156 17.2219 20.8061 16.8655 21.0858 16.5858C21.3655 16.3061 21.7219 16.1156 22.1098 16.0384Z" fill="white"/>
</svg>
