<svg width="32" height="33" viewBox="0 0 32 33" fill="none" xmlns="http://www.w3.org/2000/svg">
<path fill-rule="evenodd" clip-rule="evenodd" d="M17 25.5781H26C27.6569 25.5781 29 24.235 29 22.5781V8.57812C29 6.92127 27.6569 5.57812 26 5.57812H6C4.34315 5.57812 3 6.92127 3 8.57812V22.5781C3 24.235 4.34315 25.5781 6 25.5781H15V27.5781H12C11.4477 27.5781 11 28.0258 11 28.5781C11 29.1304 11.4477 29.5781 12 29.5781H20C20.5523 29.5781 21 29.1304 21 28.5781C21 28.0258 20.5523 27.5781 20 27.5781H17V25.5781ZM27 22.5781C27 23.1304 26.5523 23.5781 26 23.5781H6C5.44772 23.5781 5 23.1304 5 22.5781V20.5781H27V22.5781ZM5 8.57812V18.5781H27V8.57812C27 8.02584 26.5523 7.57812 26 7.57812H6C5.44772 7.57812 5 8.02584 5 8.57812Z" fill="white"/>
<path fill-rule="evenodd" clip-rule="evenodd" d="M2.5 8.57812C2.5 6.64513 4.067 5.07812 6 5.07812H26C27.933 5.07812 29.5 6.64513 29.5 8.57812V22.5781C29.5 24.5111 27.933 26.0781 26 26.0781H17.5V27.0781H20C20.8284 27.0781 21.5 27.7497 21.5 28.5781C21.5 29.4066 20.8284 30.0781 20 30.0781H12C11.1716 30.0781 10.5 29.4066 10.5 28.5781C10.5 27.7497 11.1716 27.0781 12 27.0781H14.5V26.0781H6C4.067 26.0781 2.5 24.5111 2.5 22.5781V8.57812ZM6 6.07812C4.61929 6.07812 3.5 7.19741 3.5 8.57812V22.5781C3.5 23.9588 4.61929 25.0781 6 25.0781H15C15.2761 25.0781 15.5 25.302 15.5 25.5781V27.5781C15.5 27.8543 15.2761 28.0781 15 28.0781H12C11.7239 28.0781 11.5 28.302 11.5 28.5781C11.5 28.8543 11.7239 29.0781 12 29.0781H20C20.2761 29.0781 20.5 28.8543 20.5 28.5781C20.5 28.302 20.2761 28.0781 20 28.0781H17C16.7239 28.0781 16.5 27.8543 16.5 27.5781V25.5781C16.5 25.302 16.7239 25.0781 17 25.0781H26C27.3807 25.0781 28.5 23.9588 28.5 22.5781V8.57812C28.5 7.19741 27.3807 6.07812 26 6.07812H6ZM4.5 8.57812C4.5 7.7497 5.17157 7.07812 6 7.07812H26C26.8284 7.07812 27.5 7.7497 27.5 8.57812V18.5781C27.5 18.8543 27.2761 19.0781 27 19.0781H5C4.72386 19.0781 4.5 18.8543 4.5 18.5781V8.57812ZM6 8.07812C5.72386 8.07812 5.5 8.30198 5.5 8.57812V18.0781H26.5V8.57812C26.5 8.30198 26.2761 8.07812 26 8.07812H6ZM4.5 20.5781C4.5 20.302 4.72386 20.0781 5 20.0781H27C27.2761 20.0781 27.5 20.302 27.5 20.5781V22.5781C27.5 23.4066 26.8284 24.0781 26 24.0781H6C5.17157 24.0781 4.5 23.4066 4.5 22.5781V20.5781ZM5.5 21.0781V22.5781C5.5 22.8543 5.72386 23.0781 6 23.0781H26C26.2761 23.0781 26.5 22.8543 26.5 22.5781V21.0781H5.5Z" fill="white"/>
</svg>
