<svg width="32" height="33" viewBox="0 0 32 33" fill="none" xmlns="http://www.w3.org/2000/svg">
<path d="M14 10.5781C13.4477 10.5781 13 11.0258 13 11.5781C13 12.1304 13.4477 12.5781 14 12.5781H18C18.5523 12.5781 19 12.1304 19 11.5781C19 11.0258 18.5523 10.5781 18 10.5781H14Z" fill="white"/>
<path fill-rule="evenodd" clip-rule="evenodd" d="M4 9.57812V21.5781H3C2.44772 21.5781 2 22.0258 2 22.5781V24.5781C2 25.3738 2.31607 26.1368 2.87868 26.6994C3.44129 27.2621 4.20435 27.5781 5 27.5781H27C27.7957 27.5781 28.5587 27.2621 29.1213 26.6994C29.6839 26.1368 30 25.3738 30 24.5781V22.5781C30 22.0258 29.5523 21.5781 29 21.5781H28V9.57812C28 8.78247 27.6839 8.01941 27.1213 7.4568C26.5587 6.8942 25.7957 6.57812 25 6.57812H7C6.20435 6.57812 5.44129 6.8942 4.87868 7.4568C4.31607 8.01941 4 8.78248 4 9.57812ZM7 8.57812C6.73478 8.57812 6.48043 8.68348 6.29289 8.87102C6.10536 9.05855 6 9.31291 6 9.57812V21.5781H26V9.57812C26 9.31291 25.8946 9.05855 25.7071 8.87102C25.5196 8.68348 25.2652 8.57812 25 8.57812H7ZM28 23.5781V24.5781C28 24.8433 27.8946 25.0977 27.7071 25.2852C27.5196 25.4728 27.2652 25.5781 27 25.5781H5C4.73478 25.5781 4.48043 25.4728 4.29289 25.2852C4.10536 25.0977 4 24.8433 4 24.5781V23.5781H28Z" fill="white"/>
<path fill-rule="evenodd" clip-rule="evenodd" d="M4.52513 7.10325C5.1815 6.44687 6.07174 6.07812 7 6.07812H25C25.9283 6.07812 26.8185 6.44687 27.4749 7.10325C28.1313 7.75963 28.5 8.64987 28.5 9.57812V21.0781H29C29.8284 21.0781 30.5 21.7497 30.5 22.5781V24.5781C30.5 25.5064 30.1313 26.3966 29.4749 27.053C28.8185 27.7094 27.9283 28.0781 27 28.0781H5C4.07174 28.0781 3.1815 27.7094 2.52513 27.053C1.86875 26.3966 1.5 25.5064 1.5 24.5781V22.5781C1.5 21.7497 2.17157 21.0781 3 21.0781H3.5V9.57812C3.5 8.64987 3.86875 7.75963 4.52513 7.10325ZM7 7.07812C6.33696 7.07812 5.70107 7.34152 5.23223 7.81036C4.76339 8.2792 4.5 8.91508 4.5 9.57812V21.5781C4.5 21.8543 4.27614 22.0781 4 22.0781H3C2.72386 22.0781 2.5 22.302 2.5 22.5781V24.5781C2.5 25.2412 2.76339 25.8771 3.23223 26.3459C3.70107 26.8147 4.33696 27.0781 5 27.0781H27C27.663 27.0781 28.2989 26.8147 28.7678 26.3459C29.2366 25.8771 29.5 25.2412 29.5 24.5781V22.5781C29.5 22.302 29.2761 22.0781 29 22.0781H28C27.7239 22.0781 27.5 21.8543 27.5 21.5781V9.57812C27.5 8.91508 27.2366 8.2792 26.7678 7.81036C26.2989 7.34152 25.663 7.07812 25 7.07812H7ZM5.93934 8.51747C6.22064 8.23616 6.60218 8.07812 7 8.07812H25C25.3978 8.07812 25.7794 8.23616 26.0607 8.51747C26.342 8.79877 26.5 9.1803 26.5 9.57812V21.5781C26.5 21.8543 26.2761 22.0781 26 22.0781H6C5.72386 22.0781 5.5 21.8543 5.5 21.5781V9.57812C5.5 9.1803 5.65803 8.79877 5.93934 8.51747ZM7 9.07812C6.86739 9.07812 6.74021 9.1308 6.64645 9.22457C6.55268 9.31834 6.5 9.44552 6.5 9.57812V21.0781H25.5V9.57812C25.5 9.44552 25.4473 9.31834 25.3536 9.22457C25.2598 9.1308 25.1326 9.07812 25 9.07812H7ZM12.5 11.5781C12.5 10.7497 13.1716 10.0781 14 10.0781H18C18.8284 10.0781 19.5 10.7497 19.5 11.5781C19.5 12.4066 18.8284 13.0781 18 13.0781H14C13.1716 13.0781 12.5 12.4066 12.5 11.5781ZM14 11.0781C13.7239 11.0781 13.5 11.302 13.5 11.5781C13.5 11.8543 13.7239 12.0781 14 12.0781H18C18.2761 12.0781 18.5 11.8543 18.5 11.5781C18.5 11.302 18.2761 11.0781 18 11.0781H14ZM3.5 23.5781C3.5 23.302 3.72386 23.0781 4 23.0781H28C28.2761 23.0781 28.5 23.302 28.5 23.5781V24.5781C28.5 24.976 28.342 25.3575 28.0607 25.6388C27.7794 25.9201 27.3978 26.0781 27 26.0781H5C4.60218 26.0781 4.22064 25.9201 3.93934 25.6388C3.65804 25.3575 3.5 24.976 3.5 24.5781V23.5781ZM4.5 24.0781V24.5781C4.5 24.7107 4.55268 24.8379 4.64645 24.9317C4.74022 25.0254 4.86739 25.0781 5 25.0781H27C27.1326 25.0781 27.2598 25.0254 27.3535 24.9317C27.4473 24.8379 27.5 24.7107 27.5 24.5781V24.0781H4.5Z" fill="white"/>
</svg>
