<svg width="32" height="33" viewBox="0 0 32 33" fill="none" xmlns="http://www.w3.org/2000/svg">
<path fill-rule="evenodd" clip-rule="evenodd" d="M7 5.57812V27.5781C7 29.235 8.34315 30.5781 10 30.5781H22C23.6569 30.5781 25 29.235 25 27.5781V5.57812C25 3.92127 23.6569 2.57812 22 2.57812H10C8.34315 2.57812 7 3.92127 7 5.57812ZM10 4.57812C9.44772 4.57812 9 5.02584 9 5.57812V6.57812H23V5.57812C23 5.02584 22.5523 4.57812 22 4.57812H10ZM23 24.5781V8.57812H9V24.5781H23ZM9 26.5781H23V27.5781C23 28.1304 22.5523 28.5781 22 28.5781H10C9.44772 28.5781 9 28.1304 9 27.5781V26.5781Z" fill="white"/>
<path fill-rule="evenodd" clip-rule="evenodd" d="M6.5 5.57812C6.5 3.64513 8.067 2.07812 10 2.07812H22C23.933 2.07812 25.5 3.64513 25.5 5.57812V27.5781C25.5 29.5111 23.933 31.0781 22 31.0781H10C8.067 31.0781 6.5 29.5111 6.5 27.5781V5.57812ZM10 3.07812C8.61929 3.07812 7.5 4.19741 7.5 5.57812V27.5781C7.5 28.9588 8.61929 30.0781 10 30.0781H22C23.3807 30.0781 24.5 28.9588 24.5 27.5781V5.57812C24.5 4.19741 23.3807 3.07812 22 3.07812H10ZM8.5 5.57812C8.5 4.7497 9.17157 4.07812 10 4.07812H22C22.8284 4.07812 23.5 4.7497 23.5 5.57812V6.57812C23.5 6.85427 23.2761 7.07812 23 7.07812H9C8.72386 7.07812 8.5 6.85427 8.5 6.57812V5.57812ZM10 5.07812C9.72386 5.07812 9.5 5.30198 9.5 5.57812V6.07812H22.5V5.57812C22.5 5.30198 22.2761 5.07812 22 5.07812H10ZM8.5 8.57812C8.5 8.30198 8.72386 8.07812 9 8.07812H23C23.2761 8.07812 23.5 8.30198 23.5 8.57812V24.5781C23.5 24.8543 23.2761 25.0781 23 25.0781H9C8.72386 25.0781 8.5 24.8543 8.5 24.5781V8.57812ZM9.5 9.07812V24.0781H22.5V9.07812H9.5ZM8.5 26.5781C8.5 26.302 8.72386 26.0781 9 26.0781H23C23.2761 26.0781 23.5 26.302 23.5 26.5781V27.5781C23.5 28.4066 22.8284 29.0781 22 29.0781H10C9.17157 29.0781 8.5 28.4066 8.5 27.5781V26.5781ZM9.5 27.0781V27.5781C9.5 27.8543 9.72386 28.0781 10 28.0781H22C22.2761 28.0781 22.5 27.8543 22.5 27.5781V27.0781H9.5Z" fill="white"/>
</svg>
