<svg width="32" height="33" viewBox="0 0 32 33" fill="none" xmlns="http://www.w3.org/2000/svg">
<path fill-rule="evenodd" clip-rule="evenodd" d="M5 6.57812V26.5781C5 28.235 6.34315 29.5781 8 29.5781H24C25.6569 29.5781 27 28.235 27 26.5781V6.57812C27 4.92127 25.6569 3.57812 24 3.57812H8C6.34315 3.57812 5 4.92127 5 6.57812ZM25 6.57812C25 6.02584 24.5523 5.57812 24 5.57812H8C7.44772 5.57812 7 6.02584 7 6.57812V7.57812H25V6.57812ZM25 23.5781V9.57812H7V23.5781H25ZM7 25.5781H25V26.5781C25 27.1304 24.5523 27.5781 24 27.5781H8C7.44772 27.5781 7 27.1304 7 26.5781V25.5781Z" fill="white"/>
<path fill-rule="evenodd" clip-rule="evenodd" d="M4.5 6.57812C4.5 4.64513 6.067 3.07812 8 3.07812H24C25.933 3.07812 27.5 4.64513 27.5 6.57812V26.5781C27.5 28.5111 25.933 30.0781 24 30.0781H8C6.067 30.0781 4.5 28.5111 4.5 26.5781V6.57812ZM8 4.07812C6.61929 4.07812 5.5 5.19741 5.5 6.57812V26.5781C5.5 27.9588 6.61929 29.0781 8 29.0781H24C25.3807 29.0781 26.5 27.9588 26.5 26.5781V6.57812C26.5 5.19741 25.3807 4.07812 24 4.07812H8ZM6.5 6.57812C6.5 5.7497 7.17157 5.07812 8 5.07812H24C24.8284 5.07812 25.5 5.7497 25.5 6.57812V7.57812C25.5 7.85427 25.2761 8.07812 25 8.07812H7C6.72386 8.07812 6.5 7.85427 6.5 7.57812V6.57812ZM8 6.07812C7.72386 6.07812 7.5 6.30198 7.5 6.57812V7.07812H24.5V6.57812C24.5 6.30198 24.2761 6.07812 24 6.07812H8ZM6.5 9.57812C6.5 9.30198 6.72386 9.07812 7 9.07812H25C25.2761 9.07812 25.5 9.30198 25.5 9.57812V23.5781C25.5 23.8543 25.2761 24.0781 25 24.0781H7C6.72386 24.0781 6.5 23.8543 6.5 23.5781V9.57812ZM7.5 10.0781V23.0781H24.5V10.0781H7.5ZM6.5 25.5781C6.5 25.302 6.72386 25.0781 7 25.0781H25C25.2761 25.0781 25.5 25.302 25.5 25.5781V26.5781C25.5 27.4066 24.8284 28.0781 24 28.0781H8C7.17157 28.0781 6.5 27.4066 6.5 26.5781V25.5781ZM7.5 26.0781V26.5781C7.5 26.8543 7.72386 27.0781 8 27.0781H24C24.2761 27.0781 24.5 26.8543 24.5 26.5781V26.0781H7.5Z" fill="white"/>
</svg>
