<svg width="32" height="33" viewBox="0 0 32 33" fill="none" xmlns="http://www.w3.org/2000/svg">
<circle cx="15.5" cy="16.5" r="9.5" fill="#040404"/>
<path fill-rule="evenodd" clip-rule="evenodd" d="M16 1.92188C14.4909 1.92188 13.3714 2.99331 12.546 3.78321L12.5044 3.82304L12.5011 3.82626C12.2565 4.06451 12.0188 4.293 11.791 4.48429C11.5585 4.67954 11.3659 4.81037 11.2155 4.8748C11.0742 4.93539 10.8689 4.97441 10.5855 4.99507C10.3667 5.01103 10.1342 5.01449 9.87983 5.01828C9.80684 5.01937 9.73204 5.02048 9.65524 5.02192L9.62061 5.02228C8.45213 5.0342 6.86437 5.0504 5.74645 6.16832C4.62853 7.28624 4.61233 8.874 4.6004 10.0425L4.60005 10.0771C4.59374 10.4114 4.58759 10.7283 4.56419 11.012C4.54021 11.3028 4.50089 11.5151 4.4473 11.6511C4.39745 11.7777 4.27379 11.9635 4.07217 12.203C3.87761 12.4341 3.64275 12.6783 3.40437 12.9229L3.40118 12.9263L3.36134 12.9679C2.57143 13.7933 1.5 14.9128 1.5 16.4219C1.5 17.9309 2.57143 19.0505 3.36134 19.8758L3.40116 19.9175L3.40439 19.9208C3.64263 20.1653 3.87113 20.4031 4.06241 20.6309C4.25766 20.8634 4.38849 21.056 4.45293 21.2063C4.51351 21.3477 4.55254 21.553 4.5732 21.8364C4.58915 22.0552 4.59262 22.2876 4.5964 22.542C4.59749 22.615 4.5986 22.6898 4.60005 22.7666L4.60009 22.7688L4.6004 22.8013C4.61233 23.9697 4.62853 25.5575 5.74645 26.6754C6.86437 27.7934 8.45213 27.8096 9.62062 27.8215L9.65307 27.8218L9.65529 27.8218C9.98954 27.8281 10.3065 27.8343 10.5902 27.8577C10.881 27.8817 11.0932 27.921 11.2292 27.9746C11.3558 28.0244 11.5416 28.1481 11.7811 28.3497C12.0123 28.5443 12.2564 28.7791 12.5011 29.0175L12.5044 29.0207L12.546 29.0605C13.3714 29.8504 14.4909 30.9219 16 30.9219C17.5091 30.9219 18.6286 29.8504 19.454 29.0605L19.4956 29.0207L19.4989 29.0175C19.7435 28.7792 19.9812 28.5507 20.209 28.3595C20.4415 28.1642 20.6341 28.0334 20.7845 27.9689C20.9258 27.9084 21.1311 27.8693 21.4145 27.8487C21.6333 27.8327 21.8657 27.8293 22.1201 27.8255C22.1931 27.8244 22.2679 27.8233 22.3447 27.8218L22.3469 27.8218L22.3794 27.8215C23.5479 27.8096 25.1356 27.7934 26.2536 26.6754C27.3715 25.5575 27.3877 23.9697 27.3996 22.8013L27.3999 22.7688L27.4 22.7666C27.4063 22.4323 27.4124 22.1154 27.4358 21.8317C27.4598 21.5409 27.4991 21.3287 27.5527 21.1926C27.6026 21.0661 27.7262 20.8803 27.9278 20.6407C28.1224 20.4096 28.3572 20.1655 28.5956 19.9208L28.5988 19.9175L28.6387 19.8758C29.4286 19.0505 30.5 17.9309 30.5 16.4219C30.5 14.9128 29.4286 13.7933 28.6387 12.9679L28.5988 12.9262L28.5956 12.9229C28.3574 12.6784 28.1289 12.4406 27.9376 12.2128C27.7423 11.9803 27.6115 11.7878 27.5471 11.6374C27.4865 11.4961 27.4475 11.2907 27.4268 11.0074C27.4108 10.7886 27.4074 10.5561 27.4036 10.3018C27.4025 10.2288 27.4014 10.154 27.4 10.0772L27.3999 10.0749L27.3996 10.0425C27.3877 8.87401 27.3715 7.28624 26.2536 6.16832C25.1356 5.0504 23.5479 5.0342 22.3794 5.02228L22.3469 5.02196L22.3448 5.02192C22.0105 5.01562 21.6935 5.00946 21.4098 4.98607C21.119 4.96208 20.9068 4.92276 20.7708 4.86917C20.6442 4.81932 20.4584 4.69566 20.2189 4.49404C19.9877 4.29949 19.7436 4.06462 19.4989 3.82624L19.4956 3.82305L19.454 3.78321C18.6286 2.99331 17.5091 1.92188 16 1.92188ZM20.4838 12.3201C20.7754 12.0657 21.1542 11.9338 21.5408 11.9521C21.9274 11.9704 22.292 12.1374 22.5584 12.4183C22.8247 12.6991 22.9721 13.0721 22.9699 13.4591C22.9676 13.8462 22.8159 14.2174 22.5463 14.4951L22.5397 14.5019L15.2051 21.5111C14.9228 21.7766 14.5494 21.9236 14.1619 21.9219C13.7772 21.9227 13.4072 21.7744 13.1294 21.5082L9.47442 18.0154C9.32633 17.884 9.20568 17.7246 9.11947 17.5463C9.03145 17.3642 8.98115 17.1662 8.97159 16.9642C8.96204 16.7622 8.99342 16.5604 9.06386 16.3709C9.1343 16.1813 9.24234 16.0079 9.38148 15.8612C9.52063 15.7145 9.688 15.5974 9.87355 15.517C10.0591 15.4366 10.259 15.3945 10.4612 15.3934C10.6634 15.3922 10.8638 15.4319 11.0503 15.5102C11.2335 15.587 11.3996 15.6995 11.5389 15.8411L14.1626 18.3435L20.4755 12.3273L20.4838 12.3201Z" fill="white"/>
</svg>
