<svg width="32" height="32" viewBox="0 0 32 32" fill="none" xmlns="http://www.w3.org/2000/svg">
<path fill-rule="evenodd" clip-rule="evenodd" d="M16 2.5C8.54416 2.5 2.5 8.54416 2.5 16C2.5 23.4558 8.54416 29.5 16 29.5C23.4558 29.5 29.5 23.4558 29.5 16C29.5 8.54416 23.4558 2.5 16 2.5ZM14.4875 8.17238C14.4875 7.3869 15.0932 6.61523 16 6.61523C16.9069 6.61523 17.5125 7.3869 17.5125 8.17238V8.8797C17.9477 8.91884 18.3751 9.02376 18.7802 9.19153C19.3049 9.40888 19.7817 9.72746 20.1833 10.1291C20.5849 10.5307 20.9035 11.0075 21.1208 11.5322C21.3382 12.0569 21.45 12.6193 21.45 13.1873C21.45 14.0226 20.7729 14.6998 19.9375 14.6998C19.1022 14.6998 18.425 14.0226 18.425 13.1873C18.425 13.0166 18.3914 12.8475 18.3261 12.6898C18.2608 12.5321 18.165 12.3888 18.0443 12.2681C17.9236 12.1474 17.7803 12.0516 17.6225 11.9863C17.4648 11.9209 17.2958 11.8873 17.125 11.8873H14.5938C14.249 11.8873 13.9184 12.0243 13.6746 12.2681C13.4308 12.5119 13.2938 12.8425 13.2938 13.1873C13.2938 13.5321 13.4308 13.8627 13.6746 14.1065C13.9184 14.3503 14.249 14.4873 14.5938 14.4873H17.6875C18.8346 14.4873 19.9347 14.943 20.7458 15.7541C21.5569 16.5652 22.0125 17.6652 22.0125 18.8123C22.0125 19.9594 21.5569 21.0594 20.7458 21.8705C19.9347 22.6816 18.8346 23.1373 17.6875 23.1373H17.5125V23.9581C17.5125 24.7436 16.9069 25.5152 16 25.5152C15.0932 25.5152 14.4875 24.7436 14.4875 23.9581V23.1373H14.3125C13.1655 23.1373 12.0654 22.6816 11.2543 21.8705C10.4432 21.0594 9.98755 19.9594 9.98755 18.8123C9.98755 17.977 10.6647 17.2998 11.5 17.2998C12.3354 17.2998 13.0125 17.977 13.0125 18.8123C13.0125 19.1571 13.1495 19.4877 13.3933 19.7315C13.6371 19.9753 13.9678 20.1123 14.3125 20.1123H17.6875C18.0323 20.1123 18.363 19.9753 18.6068 19.7315C18.8506 19.4877 18.9875 19.1571 18.9875 18.8123C18.9875 18.4675 18.8506 18.1369 18.6068 17.8931C18.363 17.6493 18.0323 17.5123 17.6875 17.5123H14.5938C13.4467 17.5123 12.3467 17.0566 11.5356 16.2455C10.7245 15.4344 10.2688 14.3344 10.2688 13.1873C10.2688 12.0402 10.7245 10.9402 11.5356 10.1291C12.3216 9.34305 13.379 8.89082 14.4875 8.86361V8.17238Z" fill="white"/>
</svg>
