<svg width="32" height="32" viewBox="0 0 32 32" fill="none" xmlns="http://www.w3.org/2000/svg">
<path d="M15.169 10.7567C14.7585 10.3873 14.1262 10.4205 13.7567 10.831C13.3873 11.2416 13.4205 11.8738 13.831 12.2433L18.0052 16L13.831 19.7567C13.4205 20.1262 13.3873 20.7585 13.7567 21.169C14.1262 21.5795 14.7585 21.6128 15.169 21.2433L20.169 16.7433C20.3797 16.5537 20.5 16.2835 20.5 16C20.5 15.7165 20.3797 15.4464 20.169 15.2567L15.169 10.7567Z" fill="white"/>
<path fill-rule="evenodd" clip-rule="evenodd" d="M16 3C8.8203 3 3 8.8203 3 16C3 23.1797 8.8203 29 16 29C23.1797 29 29 23.1797 29 16C29 8.8203 23.1797 3 16 3ZM5 16C5 9.92487 9.92487 5 16 5C22.0751 5 27 9.92487 27 16C27 22.0751 22.0751 27 16 27C9.92487 27 5 22.0751 5 16Z" fill="white"/>
<path fill-rule="evenodd" clip-rule="evenodd" d="M2.5 16C2.5 8.54416 8.54416 2.5 16 2.5C23.4558 2.5 29.5 8.54416 29.5 16C29.5 23.4558 23.4558 29.5 16 29.5C8.54416 29.5 2.5 23.4558 2.5 16ZM16 3.5C9.09644 3.5 3.5 9.09644 3.5 16C3.5 22.9036 9.09644 28.5 16 28.5C22.9036 28.5 28.5 22.9036 28.5 16C28.5 9.09644 22.9036 3.5 16 3.5ZM16 5.5C10.201 5.5 5.5 10.201 5.5 16C5.5 21.799 10.201 26.5 16 26.5C21.799 26.5 26.5 21.799 26.5 16C26.5 10.201 21.799 5.5 16 5.5ZM4.5 16C4.5 9.64873 9.64873 4.5 16 4.5C22.3513 4.5 27.5 9.64873 27.5 16C27.5 22.3513 22.3513 27.5 16 27.5C9.64873 27.5 4.5 22.3513 4.5 16ZM13.3851 10.4966C13.9393 9.8808 14.8877 9.83088 15.5035 10.3851L20.5035 14.8851C20.8195 15.1695 21 15.5748 21 16C21 16.4252 20.8195 16.8305 20.5035 17.115L15.5035 21.6149C14.8877 22.1691 13.9393 22.1192 13.3851 21.5035C12.8309 20.8877 12.8808 19.9393 13.4966 19.3851L17.2577 16L13.4966 12.615C12.8808 12.0608 12.8309 11.1123 13.3851 10.4966ZM14.8345 11.1284C14.6292 10.9436 14.3131 10.9603 14.1284 11.1655C13.9436 11.3708 13.9603 11.6869 14.1655 11.8717L18.3396 15.6284C18.445 15.7232 18.5052 15.8583 18.5052 16C18.5052 16.1418 18.445 16.2768 18.3396 16.3717L14.1655 20.1284C13.9603 20.3131 13.9436 20.6292 14.1284 20.8345C14.3131 21.0397 14.6292 21.0564 14.8345 20.8717L19.8345 16.3717C19.9398 16.2768 20 16.1418 20 16C20 15.8583 19.9398 15.7232 19.8345 15.6284L14.8345 11.1284Z" fill="white"/>
</svg>
