<svg width="32" height="33" viewBox="0 0 32 33" fill="none" xmlns="http://www.w3.org/2000/svg">
<path fill-rule="evenodd" clip-rule="evenodd" d="M16 2.92188C8.54416 2.92188 2.5 8.96603 2.5 16.4219C2.5 23.8777 8.54416 29.9219 16 29.9219C23.4558 29.9219 29.5 23.8777 29.5 16.4219C29.5 8.96603 23.4558 2.92188 16 2.92188ZM16 5.92188C10.201 5.92188 5.5 10.6229 5.5 16.4219C5.5 22.2209 10.201 26.9219 16 26.9219C21.799 26.9219 26.5 22.2209 26.5 16.4219C26.5 10.6229 21.799 5.92188 16 5.92188ZM16 8.92188C15.1716 8.92188 14.5 9.59345 14.5 10.4219V17.4219C14.5 18.2503 15.1716 18.9219 16 18.9219C16.8284 18.9219 17.5 18.2503 17.5 17.4219V10.4219C17.5 9.59345 16.8284 8.92188 16 8.92188ZM16 19.9219C14.8954 19.9219 14 20.8173 14 21.9219C14 23.0264 14.8954 23.9219 16 23.9219C17.1046 23.9219 18 23.0264 18 21.9219C18 20.8173 17.1046 19.9219 16 19.9219Z" fill="white"/>
</svg>
