<svg width="32" height="33" viewBox="0 0 32 33" fill="none" xmlns="http://www.w3.org/2000/svg">
<path fill-rule="evenodd" clip-rule="evenodd" d="M2.5 16.4219C2.5 8.96603 8.54416 2.92188 16 2.92188C23.4558 2.92188 29.5 8.96603 29.5 16.4219C29.5 23.8777 23.4558 29.9219 16 29.9219C8.54416 29.9219 2.5 23.8777 2.5 16.4219ZM14.5 10.4219C14.5 9.59345 15.1716 8.92188 16 8.92188C16.8284 8.92188 17.5 9.59345 17.5 10.4219V17.4219C17.5 18.2503 16.8284 18.9219 16 18.9219C15.1716 18.9219 14.5 18.2503 14.5 17.4219V10.4219ZM14 21.9219C14 20.8173 14.8954 19.9219 16 19.9219C17.1046 19.9219 18 20.8173 18 21.9219C18 23.0264 17.1046 23.9219 16 23.9219C14.8954 23.9219 14 23.0264 14 21.9219Z" fill="white"/>
</svg>
