<svg width="32" height="32" viewBox="0 0 32 32" fill="none" xmlns="http://www.w3.org/2000/svg">
<path fill-rule="evenodd" clip-rule="evenodd" d="M23 3C23 2.44772 22.5523 2 22 2C21.4477 2 21 2.44772 21 3V4H11V3C11 2.44772 10.5523 2 10 2C9.44772 2 9 2.44772 9 3V4H6C4.89543 4 4 4.89543 4 6V26C4 27.1046 4.89543 28 6 28H26C27.1046 28 28 27.1046 28 26V6C28 4.89543 27.1046 4 26 4H23V3ZM26 10V6H23V7C23 7.55228 22.5523 8 22 8C21.4477 8 21 7.55228 21 7V6H11V7C11 7.55228 10.5523 8 10 8C9.44772 8 9 7.55228 9 7V6H6V10H26ZM6 12H26V26H6V12Z" fill="white"/>
<path fill-rule="evenodd" clip-rule="evenodd" d="M8.5 3C8.5 2.17157 9.17157 1.5 10 1.5C10.8284 1.5 11.5 2.17157 11.5 3V3.5H20.5V3C20.5 2.17157 21.1716 1.5 22 1.5C22.8284 1.5 23.5 2.17157 23.5 3V3.5H26C27.3807 3.5 28.5 4.61929 28.5 6V26C28.5 27.3807 27.3807 28.5 26 28.5H6C4.61929 28.5 3.5 27.3807 3.5 26V6C3.5 4.61929 4.61929 3.5 6 3.5H8.5V3ZM10 2.5C9.72386 2.5 9.5 2.72386 9.5 3V4C9.5 4.27614 9.27614 4.5 9 4.5H6C5.17157 4.5 4.5 5.17157 4.5 6V26C4.5 26.8284 5.17157 27.5 6 27.5H26C26.8284 27.5 27.5 26.8284 27.5 26V6C27.5 5.17157 26.8284 4.5 26 4.5H23C22.7239 4.5 22.5 4.27614 22.5 4V3C22.5 2.72386 22.2761 2.5 22 2.5C21.7239 2.5 21.5 2.72386 21.5 3V4C21.5 4.27614 21.2761 4.5 21 4.5H11C10.7239 4.5 10.5 4.27614 10.5 4V3C10.5 2.72386 10.2761 2.5 10 2.5ZM5.5 6C5.5 5.72386 5.72386 5.5 6 5.5H9C9.27614 5.5 9.5 5.72386 9.5 6V7C9.5 7.27614 9.72386 7.5 10 7.5C10.2761 7.5 10.5 7.27614 10.5 7V6C10.5 5.72386 10.7239 5.5 11 5.5H21C21.2761 5.5 21.5 5.72386 21.5 6V7C21.5 7.27614 21.7239 7.5 22 7.5C22.2761 7.5 22.5 7.27614 22.5 7V6C22.5 5.72386 22.7239 5.5 23 5.5H26C26.2761 5.5 26.5 5.72386 26.5 6V10C26.5 10.2761 26.2761 10.5 26 10.5H6C5.72386 10.5 5.5 10.2761 5.5 10V6ZM6.5 6.5V9.5H25.5V6.5H23.5V7C23.5 7.82843 22.8284 8.5 22 8.5C21.1716 8.5 20.5 7.82843 20.5 7V6.5H11.5V7C11.5 7.82843 10.8284 8.5 10 8.5C9.17157 8.5 8.5 7.82843 8.5 7V6.5H6.5ZM5.5 12C5.5 11.7239 5.72386 11.5 6 11.5H26C26.2761 11.5 26.5 11.7239 26.5 12V26C26.5 26.2761 26.2761 26.5 26 26.5H6C5.72386 26.5 5.5 26.2761 5.5 26V12ZM6.5 12.5V25.5H25.5V12.5H6.5Z" fill="white"/>
</svg>
