<svg width="32" height="32" viewBox="0 0 32 32" fill="none" xmlns="http://www.w3.org/2000/svg">
<path d="M21.1858 16.7278C21.5877 16.3491 21.6066 15.7162 21.2278 15.3142C20.8491 14.9123 20.2162 14.8934 19.8142 15.2722L14.6648 20.1239L12.1882 17.7745C11.7875 17.3944 11.1546 17.4111 10.7745 17.8118C10.3944 18.2125 10.4111 18.8454 10.8118 19.2255L13.9743 22.2255C14.3592 22.5906 14.9621 22.5916 15.3483 22.2278L21.1858 16.7278Z" fill="white"/>
<path fill-rule="evenodd" clip-rule="evenodd" d="M22 2C22.5523 2 23 2.44772 23 3V4H26C27.1046 4 28 4.89543 28 6V26C28 27.1046 27.1046 28 26 28H6C4.89543 28 4 27.1046 4 26V6C4 4.89543 4.89543 4 6 4H9V3C9 2.44772 9.44772 2 10 2C10.5523 2 11 2.44772 11 3V4H21V3C21 2.44772 21.4477 2 22 2ZM23 6H26V10H6V6H9V7C9 7.55228 9.44772 8 10 8C10.5523 8 11 7.55228 11 7V6H21V7C21 7.55228 21.4477 8 22 8C22.5523 8 23 7.55228 23 7V6ZM26 12H6V26H26V12Z" fill="white"/>
<path fill-rule="evenodd" clip-rule="evenodd" d="M10 2.5C9.72386 2.5 9.5 2.72386 9.5 3V4C9.5 4.27614 9.27614 4.5 9 4.5H6C5.17157 4.5 4.5 5.17157 4.5 6V26C4.5 26.8284 5.17157 27.5 6 27.5H26C26.8284 27.5 27.5 26.8284 27.5 26V6C27.5 5.17157 26.8284 4.5 26 4.5H23C22.7239 4.5 22.5 4.27614 22.5 4V3C22.5 2.72386 22.2761 2.5 22 2.5C21.7239 2.5 21.5 2.72386 21.5 3V4C21.5 4.27614 21.2761 4.5 21 4.5H11C10.7239 4.5 10.5 4.27614 10.5 4V3C10.5 2.72386 10.2761 2.5 10 2.5ZM8.5 3C8.5 2.17157 9.17157 1.5 10 1.5C10.8284 1.5 11.5 2.17157 11.5 3V3.5H20.5V3C20.5 2.17157 21.1716 1.5 22 1.5C22.8284 1.5 23.5 2.17157 23.5 3V3.5H26C27.3807 3.5 28.5 4.61929 28.5 6V26C28.5 27.3807 27.3807 28.5 26 28.5H6C4.61929 28.5 3.5 27.3807 3.5 26V6C3.5 4.61929 4.61929 3.5 6 3.5H8.5V3ZM5.5 6C5.5 5.72386 5.72386 5.5 6 5.5H9C9.27614 5.5 9.5 5.72386 9.5 6V7C9.5 7.27614 9.72386 7.5 10 7.5C10.2761 7.5 10.5 7.27614 10.5 7V6C10.5 5.72386 10.7239 5.5 11 5.5H21C21.2761 5.5 21.5 5.72386 21.5 6V7C21.5 7.27614 21.7239 7.5 22 7.5C22.2761 7.5 22.5 7.27614 22.5 7V6C22.5 5.72386 22.7239 5.5 23 5.5H26C26.2761 5.5 26.5 5.72386 26.5 6V10C26.5 10.2761 26.2761 10.5 26 10.5H6C5.72386 10.5 5.5 10.2761 5.5 10V6ZM6.5 6.5V9.5H25.5V6.5H23.5V7C23.5 7.82843 22.8284 8.5 22 8.5C21.1716 8.5 20.5 7.82843 20.5 7V6.5H11.5V7C11.5 7.82843 10.8284 8.5 10 8.5C9.17157 8.5 8.5 7.82843 8.5 7V6.5H6.5ZM5.5 12C5.5 11.7239 5.72386 11.5 6 11.5H26C26.2761 11.5 26.5 11.7239 26.5 12V26C26.5 26.2761 26.2761 26.5 26 26.5H6C5.72386 26.5 5.5 26.2761 5.5 26V12ZM6.5 12.5V25.5H25.5V12.5H6.5ZM19.4714 14.9083C20.0743 14.3402 21.0237 14.3684 21.5918 14.9714C22.1598 15.5743 22.1316 16.5237 21.5286 17.0918L15.6911 22.5918C15.112 23.1374 14.2075 23.1359 13.6302 22.5883L10.4677 19.5883C9.86664 19.0181 9.84161 18.0687 10.4118 17.4677C10.9819 16.8666 11.9313 16.8416 12.5323 17.4118L14.666 19.4358L19.4714 14.9083ZM20.8639 15.6571C20.6746 15.4561 20.3581 15.4467 20.1571 15.6361L15.0077 20.4878C14.8147 20.6697 14.5132 20.6692 14.3207 20.4866L11.8441 18.1373C11.6438 17.9472 11.3273 17.9556 11.1373 18.1559C10.9472 18.3562 10.9556 18.6727 11.1559 18.8628L14.3184 21.8628C14.5108 22.0453 14.8123 22.0458 15.0054 21.8639L20.8429 16.3639C21.0439 16.1746 21.0533 15.8581 20.8639 15.6571Z" fill="white"/>
</svg>
