<svg width="32" height="32" viewBox="0 0 32 32" fill="none" xmlns="http://www.w3.org/2000/svg">
<path d="M10.5 16C10.5 15.4477 10.9477 15 11.5 15H15C15.3844 15 15.7348 15.2203 15.9013 15.5668C16.0678 15.9133 16.021 16.3245 15.7809 16.6247L14.6741 18.0082C14.9983 18.2256 15.2779 18.5048 15.4962 18.8308C15.7709 19.2411 15.9401 19.7128 15.9888 20.2041C16.0375 20.6954 15.9642 21.1912 15.7753 21.6474C15.5865 22.1035 15.288 22.5061 14.9063 22.8192C14.5246 23.1324 14.0716 23.3465 13.5873 23.4426C13.103 23.5387 12.6025 23.5138 12.1301 23.3701C11.6578 23.2264 11.2282 22.9683 10.8795 22.6188C10.4895 22.2278 10.4903 21.5946 10.8812 21.2045C11.2722 20.8145 11.9054 20.8153 12.2955 21.2062C12.4117 21.3228 12.5549 21.4088 12.7123 21.4567C12.8698 21.5046 13.0366 21.5129 13.198 21.4809C13.3595 21.4488 13.5105 21.3775 13.6377 21.2731C13.765 21.1687 13.8645 21.0345 13.9274 20.8824C13.9903 20.7304 14.0148 20.5651 13.9985 20.4014C13.9823 20.2376 13.9259 20.0804 13.8343 19.9436C13.7428 19.8069 13.6189 19.6948 13.4736 19.6174C13.3284 19.5401 13.1663 19.4997 13.0017 19.5C12.617 19.5007 12.266 19.2806 12.0991 18.934C11.9321 18.5874 11.9788 18.1757 12.2191 17.8753L12.9194 17H11.5C10.9477 17 10.5 16.5523 10.5 16Z" fill="white"/>
<path d="M21.0001 16C21.0001 15.6212 20.7861 15.275 20.4473 15.1056C20.1085 14.9362 19.7031 14.9727 19.4001 15.2L17.4001 16.7C16.9582 17.0314 16.8687 17.6582 17.2001 18.1C17.5314 18.5418 18.1582 18.6314 18.6001 18.3L19.0001 18V22.5C19.0001 23.0523 19.4478 23.5 20.0001 23.5C20.5523 23.5 21.0001 23.0523 21.0001 22.5V16Z" fill="white"/>
<path fill-rule="evenodd" clip-rule="evenodd" d="M23 3C23 2.44772 22.5523 2 22 2C21.4477 2 21 2.44772 21 3V4H11V3C11 2.44772 10.5523 2 10 2C9.44772 2 9 2.44772 9 3V4H6C4.89543 4 4 4.89543 4 6V26C4 27.1046 4.89543 28 6 28H26C27.1046 28 28 27.1046 28 26V6C28 4.89543 27.1046 4 26 4H23V3ZM26 6H23V7C23 7.55228 22.5523 8 22 8C21.4477 8 21 7.55228 21 7V6H11V7C11 7.55228 10.5523 8 10 8C9.44772 8 9 7.55228 9 7V6H6V10H26V6ZM6 12H26V26H6V12Z" fill="white"/>
<path fill-rule="evenodd" clip-rule="evenodd" d="M8.5 3C8.5 2.17157 9.17157 1.5 10 1.5C10.8284 1.5 11.5 2.17157 11.5 3V3.5H20.5V3C20.5 2.17157 21.1716 1.5 22 1.5C22.8284 1.5 23.5 2.17157 23.5 3V3.5H26C27.3807 3.5 28.5 4.61929 28.5 6V26C28.5 27.3807 27.3807 28.5 26 28.5H6C4.61929 28.5 3.5 27.3807 3.5 26V6C3.5 4.61929 4.61929 3.5 6 3.5H8.5V3ZM10 2.5C9.72386 2.5 9.5 2.72386 9.5 3V4C9.5 4.27614 9.27614 4.5 9 4.5H6C5.17157 4.5 4.5 5.17157 4.5 6V26C4.5 26.8284 5.17157 27.5 6 27.5H26C26.8284 27.5 27.5 26.8284 27.5 26V6C27.5 5.17157 26.8284 4.5 26 4.5H23C22.7239 4.5 22.5 4.27614 22.5 4V3C22.5 2.72386 22.2761 2.5 22 2.5C21.7239 2.5 21.5 2.72386 21.5 3V4C21.5 4.27614 21.2761 4.5 21 4.5H11C10.7239 4.5 10.5 4.27614 10.5 4V3C10.5 2.72386 10.2761 2.5 10 2.5ZM5.5 6C5.5 5.72386 5.72386 5.5 6 5.5H9C9.27614 5.5 9.5 5.72386 9.5 6V7C9.5 7.27614 9.72386 7.5 10 7.5C10.2761 7.5 10.5 7.27614 10.5 7V6C10.5 5.72386 10.7239 5.5 11 5.5H21C21.2761 5.5 21.5 5.72386 21.5 6V7C21.5 7.27614 21.7239 7.5 22 7.5C22.2761 7.5 22.5 7.27614 22.5 7V6C22.5 5.72386 22.7239 5.5 23 5.5H26C26.2761 5.5 26.5 5.72386 26.5 6V10C26.5 10.2761 26.2761 10.5 26 10.5H6C5.72386 10.5 5.5 10.2761 5.5 10V6ZM6.5 6.5V9.5H25.5V6.5H23.5V7C23.5 7.82843 22.8284 8.5 22 8.5C21.1716 8.5 20.5 7.82843 20.5 7V6.5H11.5V7C11.5 7.82843 10.8284 8.5 10 8.5C9.17157 8.5 8.5 7.82843 8.5 7V6.5H6.5ZM5.5 12C5.5 11.7239 5.72386 11.5 6 11.5H26C26.2761 11.5 26.5 11.7239 26.5 12V26C26.5 26.2761 26.2761 26.5 26 26.5H6C5.72386 26.5 5.5 26.2761 5.5 26V12ZM6.5 12.5V25.5H25.5V12.5H6.5ZM19.1001 14.8C19.5546 14.4591 20.1627 14.4043 20.6709 14.6584C21.1791 14.9125 21.5001 15.4318 21.5001 16V22.5C21.5001 23.3284 20.8285 24 20.0001 24C19.1716 24 18.5001 23.3284 18.5001 22.5V18.9146C17.8982 19.1276 17.2033 18.9377 16.8001 18.4C16.303 17.7373 16.4373 16.7971 17.1001 16.3L19.1001 14.8ZM20.2237 15.5528C20.0543 15.4681 19.8516 15.4864 19.7001 15.6L17.7001 17.1C17.4791 17.2657 17.4344 17.5791 17.6001 17.8C17.7657 18.0209 18.0791 18.0657 18.3001 17.9L18.7001 17.6C18.8516 17.4864 19.0543 17.4681 19.2237 17.5528C19.3931 17.6375 19.5001 17.8106 19.5001 18V22.5C19.5001 22.7761 19.7239 23 20.0001 23C20.2762 23 20.5001 22.7761 20.5001 22.5V16C20.5001 15.8106 20.3931 15.6375 20.2237 15.5528ZM11.5 15.5C11.2239 15.5 11 15.7239 11 16C11 16.2761 11.2239 16.5 11.5 16.5H12.9194C13.1116 16.5 13.2868 16.6102 13.37 16.7834C13.4533 16.9566 13.4299 17.1623 13.3098 17.3123L12.6096 18.1877C12.4894 18.3379 12.4661 18.5437 12.5495 18.717C12.633 18.8903 12.8085 19.0003 13.0009 19C13.2477 18.9996 13.4909 19.0601 13.7087 19.1762C13.9266 19.2922 14.1125 19.4603 14.2498 19.6654C14.3872 19.8705 14.4718 20.1064 14.4961 20.3521C14.5205 20.5977 14.4838 20.8456 14.3894 21.0737C14.295 21.3018 14.1457 21.503 13.9549 21.6596C13.764 21.8162 13.5375 21.9233 13.2954 21.9713C13.0532 22.0194 12.803 22.0069 12.5668 21.935C12.3306 21.8632 12.1158 21.7341 11.9415 21.5594C11.7465 21.3639 11.4299 21.3635 11.2344 21.5585C11.0389 21.7535 11.0385 22.0701 11.2335 22.2656C11.5241 22.5569 11.8821 22.772 12.2757 22.8917C12.6693 23.0115 13.0864 23.0323 13.49 22.9522C13.8935 22.8721 14.2711 22.6937 14.5892 22.4327C14.9073 22.1717 15.156 21.8363 15.3134 21.4561C15.4707 21.076 15.5318 20.6628 15.4912 20.2534C15.4507 19.844 15.3097 19.4509 15.0807 19.109C14.8988 18.8374 14.6658 18.6047 14.3956 18.4235C14.2794 18.3456 14.2012 18.2226 14.1799 18.0843C14.1586 17.946 14.1962 17.8051 14.2836 17.6959L15.3904 16.3123C15.5105 16.1623 15.5339 15.9566 15.4507 15.7834C15.3674 15.6102 15.1922 15.5 15 15.5H11.5ZM10 16C10 15.1716 10.6716 14.5 11.5 14.5H15C15.5766 14.5 16.1022 14.8305 16.352 15.3502C16.6017 15.8699 16.5315 16.4868 16.1713 16.937L15.378 17.9287C15.579 18.1143 15.7583 18.3236 15.9117 18.5526C16.2321 19.0313 16.4295 19.5816 16.4864 20.1548C16.5432 20.728 16.4576 21.3064 16.2373 21.8386C16.017 22.3708 15.6688 22.8404 15.2235 23.2058C14.7782 23.5712 14.2496 23.821 13.6846 23.9331C13.1196 24.0452 12.5357 24.0161 11.9846 23.8484C11.4335 23.6808 10.9324 23.3797 10.5256 22.9719C9.94048 22.3854 9.94163 21.4356 10.5281 20.8506C11.1146 20.2655 12.0644 20.2666 12.6494 20.8531C12.7076 20.9114 12.7792 20.9544 12.8579 20.9783C12.9366 21.0023 13.02 21.0065 13.1007 20.9904C13.1814 20.9744 13.257 20.9387 13.3206 20.8865C13.3842 20.8343 13.4339 20.7673 13.4654 20.6912C13.4969 20.6152 13.5091 20.5326 13.501 20.4507C13.4929 20.3688 13.4647 20.2902 13.4189 20.2218C13.3731 20.1534 13.3111 20.0974 13.2385 20.0587C13.1659 20.02 13.0849 19.9999 13.0026 20C12.4255 20.001 11.899 19.6708 11.6486 19.1509C11.3982 18.631 11.4682 18.0136 11.8287 17.563L11.8791 17.5H11.5C10.6716 17.5 10 16.8284 10 16Z" fill="white"/>
</svg>
