<svg width="32" height="32" viewBox="0 0 32 32" fill="none" xmlns="http://www.w3.org/2000/svg">
<path d="M11.5 19C11.5 18.4477 11.9477 18 12.5 18H15V15.5C15 14.9477 15.4477 14.5 16 14.5C16.5523 14.5 17 14.9477 17 15.5V18H19.5C20.0523 18 20.5 18.4477 20.5 19C20.5 19.5523 20.0523 20 19.5 20H17V22.5C17 23.0523 16.5523 23.5 16 23.5C15.4477 23.5 15 23.0523 15 22.5V20H12.5C11.9477 20 11.5 19.5523 11.5 19Z" fill="white"/>
<path fill-rule="evenodd" clip-rule="evenodd" d="M23 3C23 2.44772 22.5523 2 22 2C21.4477 2 21 2.44772 21 3V4H11V3C11 2.44772 10.5523 2 10 2C9.44772 2 9 2.44772 9 3V4H6C4.89543 4 4 4.89543 4 6V26C4 27.1046 4.89543 28 6 28H26C27.1046 28 28 27.1046 28 26V6C28 4.89543 27.1046 4 26 4H23V3ZM26 6H23V7C23 7.55228 22.5523 8 22 8C21.4477 8 21 7.55228 21 7V6H11V7C11 7.55228 10.5523 8 10 8C9.44772 8 9 7.55228 9 7V6H6V10H26V6ZM6 12H26V26H6V12Z" fill="white"/>
<path fill-rule="evenodd" clip-rule="evenodd" d="M8.5 3C8.5 2.17157 9.17157 1.5 10 1.5C10.8284 1.5 11.5 2.17157 11.5 3V3.5H20.5V3C20.5 2.17157 21.1716 1.5 22 1.5C22.8284 1.5 23.5 2.17157 23.5 3V3.5H26C27.3807 3.5 28.5 4.61929 28.5 6V26C28.5 27.3807 27.3807 28.5 26 28.5H6C4.61929 28.5 3.5 27.3807 3.5 26V6C3.5 4.61929 4.61929 3.5 6 3.5H8.5V3ZM10 2.5C9.72386 2.5 9.5 2.72386 9.5 3V4C9.5 4.27614 9.27614 4.5 9 4.5H6C5.17157 4.5 4.5 5.17157 4.5 6V26C4.5 26.8284 5.17157 27.5 6 27.5H26C26.8284 27.5 27.5 26.8284 27.5 26V6C27.5 5.17157 26.8284 4.5 26 4.5H23C22.7239 4.5 22.5 4.27614 22.5 4V3C22.5 2.72386 22.2761 2.5 22 2.5C21.7239 2.5 21.5 2.72386 21.5 3V4C21.5 4.27614 21.2761 4.5 21 4.5H11C10.7239 4.5 10.5 4.27614 10.5 4V3C10.5 2.72386 10.2761 2.5 10 2.5ZM5.5 6C5.5 5.72386 5.72386 5.5 6 5.5H9C9.27614 5.5 9.5 5.72386 9.5 6V7C9.5 7.27614 9.72386 7.5 10 7.5C10.2761 7.5 10.5 7.27614 10.5 7V6C10.5 5.72386 10.7239 5.5 11 5.5H21C21.2761 5.5 21.5 5.72386 21.5 6V7C21.5 7.27614 21.7239 7.5 22 7.5C22.2761 7.5 22.5 7.27614 22.5 7V6C22.5 5.72386 22.7239 5.5 23 5.5H26C26.2761 5.5 26.5 5.72386 26.5 6V10C26.5 10.2761 26.2761 10.5 26 10.5H6C5.72386 10.5 5.5 10.2761 5.5 10V6ZM6.5 6.5V9.5H25.5V6.5H23.5V7C23.5 7.82843 22.8284 8.5 22 8.5C21.1716 8.5 20.5 7.82843 20.5 7V6.5H11.5V7C11.5 7.82843 10.8284 8.5 10 8.5C9.17157 8.5 8.5 7.82843 8.5 7V6.5H6.5ZM5.5 12C5.5 11.7239 5.72386 11.5 6 11.5H26C26.2761 11.5 26.5 11.7239 26.5 12V26C26.5 26.2761 26.2761 26.5 26 26.5H6C5.72386 26.5 5.5 26.2761 5.5 26V12ZM6.5 12.5V25.5H25.5V12.5H6.5ZM16 15C15.7239 15 15.5 15.2239 15.5 15.5V18C15.5 18.2761 15.2761 18.5 15 18.5H12.5C12.2239 18.5 12 18.7239 12 19C12 19.2761 12.2239 19.5 12.5 19.5H15C15.2761 19.5 15.5 19.7239 15.5 20V22.5C15.5 22.7761 15.7239 23 16 23C16.2761 23 16.5 22.7761 16.5 22.5V20C16.5 19.7239 16.7239 19.5 17 19.5H19.5C19.7761 19.5 20 19.2761 20 19C20 18.7239 19.7761 18.5 19.5 18.5H17C16.7239 18.5 16.5 18.2761 16.5 18V15.5C16.5 15.2239 16.2761 15 16 15ZM14.5 15.5C14.5 14.6716 15.1716 14 16 14C16.8284 14 17.5 14.6716 17.5 15.5V17.5H19.5C20.3284 17.5 21 18.1716 21 19C21 19.8284 20.3284 20.5 19.5 20.5H17.5V22.5C17.5 23.3284 16.8284 24 16 24C15.1716 24 14.5 23.3284 14.5 22.5V20.5H12.5C11.6716 20.5 11 19.8284 11 19C11 18.1716 11.6716 17.5 12.5 17.5H14.5V15.5Z" fill="white"/>
</svg>
