<svg width="32" height="32" viewBox="0 0 32 32" fill="none" xmlns="http://www.w3.org/2000/svg">
<path d="M19.7071 15.2929C20.0976 15.6834 20.0976 16.3166 19.7071 16.7071L17.4142 19L19.7071 21.2929C20.0976 21.6834 20.0976 22.3166 19.7071 22.7071C19.3166 23.0976 18.6834 23.0976 18.2929 22.7071L16 20.4142L13.7071 22.7071C13.3166 23.0976 12.6834 23.0976 12.2929 22.7071C11.9024 22.3166 11.9024 21.6834 12.2929 21.2929L14.5858 19L12.2929 16.7071C11.9024 16.3166 11.9024 15.6834 12.2929 15.2929C12.6834 14.9024 13.3166 14.9024 13.7071 15.2929L16 17.5858L18.2929 15.2929C18.6834 14.9024 19.3166 14.9024 19.7071 15.2929Z" fill="white"/>
<path fill-rule="evenodd" clip-rule="evenodd" d="M23 3C23 2.44772 22.5523 2 22 2C21.4477 2 21 2.44772 21 3V4H11V3C11 2.44772 10.5523 2 10 2C9.44772 2 9 2.44772 9 3V4H6C4.89543 4 4 4.89543 4 6V26C4 27.1046 4.89543 28 6 28H26C27.1046 28 28 27.1046 28 26V6C28 4.89543 27.1046 4 26 4H23V3ZM26 6H23V7C23 7.55228 22.5523 8 22 8C21.4477 8 21 7.55228 21 7V6H11V7C11 7.55228 10.5523 8 10 8C9.44772 8 9 7.55228 9 7V6H6V10H26V6ZM6 12H26V26H6V12Z" fill="white"/>
<path fill-rule="evenodd" clip-rule="evenodd" d="M8.5 3C8.5 2.17157 9.17157 1.5 10 1.5C10.8284 1.5 11.5 2.17157 11.5 3V3.5H20.5V3C20.5 2.17157 21.1716 1.5 22 1.5C22.8284 1.5 23.5 2.17157 23.5 3V3.5H26C27.3807 3.5 28.5 4.61929 28.5 6V26C28.5 27.3807 27.3807 28.5 26 28.5H6C4.61929 28.5 3.5 27.3807 3.5 26V6C3.5 4.61929 4.61929 3.5 6 3.5H8.5V3ZM10 2.5C9.72386 2.5 9.5 2.72386 9.5 3V4C9.5 4.27614 9.27614 4.5 9 4.5H6C5.17157 4.5 4.5 5.17157 4.5 6V26C4.5 26.8284 5.17157 27.5 6 27.5H26C26.8284 27.5 27.5 26.8284 27.5 26V6C27.5 5.17157 26.8284 4.5 26 4.5H23C22.7239 4.5 22.5 4.27614 22.5 4V3C22.5 2.72386 22.2761 2.5 22 2.5C21.7239 2.5 21.5 2.72386 21.5 3V4C21.5 4.27614 21.2761 4.5 21 4.5H11C10.7239 4.5 10.5 4.27614 10.5 4V3C10.5 2.72386 10.2761 2.5 10 2.5ZM5.5 6C5.5 5.72386 5.72386 5.5 6 5.5H9C9.27614 5.5 9.5 5.72386 9.5 6V7C9.5 7.27614 9.72386 7.5 10 7.5C10.2761 7.5 10.5 7.27614 10.5 7V6C10.5 5.72386 10.7239 5.5 11 5.5H21C21.2761 5.5 21.5 5.72386 21.5 6V7C21.5 7.27614 21.7239 7.5 22 7.5C22.2761 7.5 22.5 7.27614 22.5 7V6C22.5 5.72386 22.7239 5.5 23 5.5H26C26.2761 5.5 26.5 5.72386 26.5 6V10C26.5 10.2761 26.2761 10.5 26 10.5H6C5.72386 10.5 5.5 10.2761 5.5 10V6ZM6.5 6.5V9.5H25.5V6.5H23.5V7C23.5 7.82843 22.8284 8.5 22 8.5C21.1716 8.5 20.5 7.82843 20.5 7V6.5H11.5V7C11.5 7.82843 10.8284 8.5 10 8.5C9.17157 8.5 8.5 7.82843 8.5 7V6.5H6.5ZM5.5 12C5.5 11.7239 5.72386 11.5 6 11.5H26C26.2761 11.5 26.5 11.7239 26.5 12V26C26.5 26.2761 26.2761 26.5 26 26.5H6C5.72386 26.5 5.5 26.2761 5.5 26V12ZM6.5 12.5V25.5H25.5V12.5H6.5ZM13.3536 15.6464C13.1583 15.4512 12.8417 15.4512 12.6464 15.6464C12.4512 15.8417 12.4512 16.1583 12.6464 16.3536L14.9393 18.6464C15.0331 18.7402 15.0858 18.8674 15.0858 19C15.0858 19.1326 15.0331 19.2598 14.9393 19.3536L12.6464 21.6464C12.4512 21.8417 12.4512 22.1583 12.6464 22.3536C12.8417 22.5488 13.1583 22.5488 13.3536 22.3536L15.6464 20.0607C15.7402 19.9669 15.8674 19.9142 16 19.9142C16.1326 19.9142 16.2598 19.9669 16.3536 20.0607L18.6464 22.3536C18.8417 22.5488 19.1583 22.5488 19.3536 22.3536C19.5488 22.1583 19.5488 21.8417 19.3536 21.6464L17.0607 19.3536C16.9669 19.2598 16.9142 19.1326 16.9142 19C16.9142 18.8674 16.9669 18.7402 17.0607 18.6464L19.3536 16.3536C19.5488 16.1583 19.5488 15.8417 19.3536 15.6464C19.1583 15.4512 18.8417 15.4512 18.6464 15.6464L16.3536 17.9393C16.1583 18.1346 15.8417 18.1346 15.6464 17.9393L13.3536 15.6464ZM11.9393 14.9393C12.5251 14.3536 13.4749 14.3536 14.0607 14.9393L16 16.8787L17.9393 14.9393C18.5251 14.3536 19.4749 14.3536 20.0607 14.9393C20.6464 15.5251 20.6464 16.4749 20.0607 17.0607L18.1213 19L20.0607 20.9393C20.6464 21.5251 20.6464 22.4749 20.0607 23.0607C19.4749 23.6464 18.5251 23.6464 17.9393 23.0607L16 21.1213L14.0607 23.0607C13.4749 23.6464 12.5251 23.6464 11.9393 23.0607C11.3536 22.4749 11.3536 21.5251 11.9393 20.9393L13.8787 19L11.9393 17.0607C11.3536 16.4749 11.3536 15.5251 11.9393 14.9393Z" fill="white"/>
</svg>
