<svg width="32" height="32" viewBox="0 0 32 32" fill="none" xmlns="http://www.w3.org/2000/svg">
<path d="M23.9393 3.93934C24.5251 3.35355 25.4749 3.35355 26.0607 3.93934L29.0607 6.93934C29.6464 7.52513 29.6464 8.47487 29.0607 9.06066L26.0607 12.0607C25.4749 12.6464 24.5251 12.6464 23.9393 12.0607C23.3536 11.4749 23.3536 10.5251 23.9393 9.93934L24.3787 9.5L12.0017 9.5C10.2783 9.50294 8.62607 10.1888 7.40746 11.4075C6.18861 12.6263 5.50268 14.2786 5.5 16.0023C5.49871 16.8308 4.82609 17.5013 3.99766 17.5C3.16924 17.4987 2.49871 16.8261 2.5 15.9977C2.50393 13.4799 3.50583 11.0664 5.28614 9.28614C7.06644 7.50583 9.48227 6.50392 12 6.5L24.3787 6.5L23.9393 6.06066C23.3536 5.47487 23.3536 4.52513 23.9393 3.93934Z" fill="white"/>
<path d="M26.5 15.9977C26.5013 15.1692 27.1739 14.4987 28.0023 14.5C28.8308 14.5013 29.5013 15.1739 29.5 16.0023C29.4961 18.5201 28.4942 20.9336 26.7139 22.7139C24.9336 24.4942 22.5201 25.4961 20.0023 25.5L7.62132 25.5L8.06066 25.9393C8.64645 26.5251 8.64645 27.4749 8.06066 28.0607C7.47487 28.6464 6.52513 28.6464 5.93934 28.0607L2.93934 25.0607C2.35355 24.4749 2.35355 23.5251 2.93934 22.9393L5.93934 19.9393C6.52513 19.3536 7.47487 19.3536 8.06066 19.9393C8.64645 20.5251 8.64645 21.4749 8.06066 22.0607L7.62132 22.5H19.9985C21.7219 22.4971 23.3739 21.8112 24.5925 20.5925C25.8114 19.3737 26.4973 17.7214 26.5 15.9977Z" fill="white"/>
</svg>
