<svg width="32" height="32" viewBox="0 0 32 32" fill="none" xmlns="http://www.w3.org/2000/svg">
<path d="M11.6293 13.8536C11.6224 14.0664 11.5521 14.3801 11.3577 14.6467C11.156 14.9235 10.8265 15.1391 10.3369 15.1391H5.22902C4.51519 15.1391 3.93652 14.5604 3.93652 13.8466V5.22999C3.93652 4.51617 4.51519 3.9375 5.22902 3.9375H13.8456C14.5595 3.9375 15.1381 4.51617 15.1381 5.22999V10.2853C15.1381 10.4993 15.0757 10.8155 14.8821 11.0843C14.6806 11.3642 14.3467 11.5778 13.8456 11.5778C13.3446 11.5778 13.0107 11.3642 12.8092 11.0843C12.6156 10.8155 12.5532 10.4993 12.5532 10.2853V6.52249H6.52151V12.5541H10.3369C10.8404 12.5541 11.1754 12.7673 11.3768 13.0478C11.5702 13.3172 11.6309 13.6339 11.6294 13.8482L11.6293 13.8536Z" fill="white"/>
<path d="M28.0756 23.4436L28.0763 26.7716C28.0763 27.4854 27.4976 28.0641 26.7838 28.0641H23.4807C22.7669 28.0641 22.1882 27.4854 22.1882 26.7716C22.1882 26.0577 22.7669 25.4791 23.4807 25.4791H25.4913V24.7361H24.6162C23.9024 24.7361 23.3237 24.1574 23.3237 23.4436C23.3237 22.7297 23.9024 22.1511 24.6162 22.1511H26.7831C27.4957 22.1511 28.0736 22.7314 28.0756 23.4436Z" fill="white"/>
<path d="M7.93087 8.90121C7.93087 8.36584 8.36487 7.93184 8.90024 7.93184H10.1744C10.7098 7.93184 11.1438 8.36584 11.1438 8.90121V10.1754C11.1438 10.7107 10.7098 11.1447 10.1744 11.1447H8.90024C8.36487 11.1447 7.93087 10.7107 7.93087 10.1754V8.90121Z" fill="white"/>
<path d="M12.5466 13.3483C12.5466 12.9059 12.9052 12.5473 13.3476 12.5473H14.3372C14.7795 12.5473 15.1382 12.9059 15.1382 13.3483V14.3379C15.1382 14.7803 14.7795 15.1389 14.3372 15.1389H13.3476C12.9052 15.1389 12.5466 14.7803 12.5466 14.3379V13.3483Z" fill="white"/>
<path d="M23.3239 19.8139C23.3239 19.3715 23.6826 19.0129 24.1249 19.0129H25.1145C25.5569 19.0129 25.9155 19.3715 25.9155 19.8139V20.8035C25.9155 21.2459 25.5569 21.6045 25.1145 21.6045H24.1249C23.6826 21.6045 23.3239 21.2459 23.3239 20.8035V19.8139Z" fill="white"/>
<path d="M25.4847 17.6634C25.4847 17.2211 25.8433 16.8624 26.2857 16.8624H27.2753C27.7176 16.8624 28.0763 17.2211 28.0763 17.6634V18.653C28.0763 19.0954 27.7176 19.454 27.2753 19.454H26.2857C25.8433 19.454 25.4847 19.0954 25.4847 18.653V17.6634Z" fill="white"/>
<path d="M3.93652 18.1549C3.93652 17.4411 4.51519 16.8624 5.22902 16.8624H13.8456C14.5595 16.8624 15.1381 17.4411 15.1381 18.1549V23.4313C15.1381 23.6334 15.0734 23.928 14.8762 24.1769C14.6714 24.4355 14.3384 24.6257 13.8456 24.6257C13.3529 24.6257 13.0199 24.4355 12.8151 24.1769C12.6179 23.928 12.5532 23.6334 12.5532 23.4313V19.4474H6.52151V25.4791H13.8456C14.0596 25.4791 14.3758 25.5415 14.6447 25.7351C14.9246 25.9366 15.1381 26.2705 15.1381 26.7716C15.1381 27.4854 14.5595 28.0641 13.8456 28.0641H5.22902C4.51519 28.0641 3.93652 27.4854 3.93652 26.7716V18.1549Z" fill="white"/>
<path d="M22.7495 18.1549C22.7495 18.8688 22.1708 19.4474 21.457 19.4474L19.4464 19.4474V20.8179C19.4464 21.5318 18.8678 22.1104 18.1539 22.1104C17.4401 22.1104 16.8614 21.5318 16.8614 20.8179V18.1549C16.8614 17.4411 17.4401 16.8624 18.1539 16.8624H21.457C22.1708 16.8624 22.7495 17.4411 22.7495 18.1549Z" fill="white"/>
<path d="M19.4465 25.6264V26.7715C19.4465 27.4854 18.8678 28.064 18.154 28.064C17.4401 28.064 16.8615 27.4854 16.8615 26.7715V24.3339C16.8615 23.6201 17.4401 23.0414 18.154 23.0414H20.1748V21.5427C20.1748 20.8289 20.7535 20.2502 21.4673 20.2502C22.1811 20.2502 22.7598 20.8289 22.7598 21.5427V24.3339C22.7598 25.0478 22.1811 25.6264 21.4673 25.6264H19.4465Z" fill="white"/>
<path d="M7.93087 21.8262C7.93087 21.2908 8.36487 20.8568 8.90024 20.8568H10.1744C10.7098 20.8568 11.1438 21.2908 11.1438 21.8262V23.1003C11.1438 23.6357 10.7098 24.0697 10.1744 24.0697H8.90024C8.36487 24.0697 7.93087 23.6357 7.93087 23.1003V21.8262Z" fill="white"/>
<path fill-rule="evenodd" clip-rule="evenodd" d="M18.154 3.9375C17.4401 3.9375 16.8615 4.51617 16.8615 5.22999V13.8466C16.8615 14.5604 17.4401 15.1391 18.154 15.1391H26.7706C27.4844 15.1391 28.0631 14.5604 28.0631 13.8466V5.22999C28.0631 4.51617 27.4844 3.9375 26.7706 3.9375H18.154ZM19.4465 6.52249V12.5541H25.4781V6.52249H19.4465ZM21.8252 7.93184C21.2898 7.93184 20.8558 8.36584 20.8558 8.90121V10.1754C20.8558 10.7107 21.2898 11.1447 21.8252 11.1447H23.0993C23.6347 11.1447 24.0687 10.7107 24.0687 10.1754V8.90121C24.0687 8.36584 23.6347 7.93184 23.0993 7.93184H21.8252Z" fill="white"/>
</svg>
