<svg width="32" height="32" viewBox="0 0 32 32" fill="none" xmlns="http://www.w3.org/2000/svg">
<path d="M21 6C21 5.44772 21.4477 5 22 5H26C26.5523 5 27 5.44772 27 6V10C27 10.5523 26.5523 11 26 11C25.4477 11 25 10.5523 25 10V7H22C21.4477 7 21 6.55228 21 6Z" fill="white"/>
<path d="M6 21C6.55228 21 7 21.4477 7 22V25H10C10.5523 25 11 25.4477 11 26C11 26.5523 10.5523 27 10 27H6C5.44772 27 5 26.5523 5 26V22C5 21.4477 5.44772 21 6 21Z" fill="white"/>
<path d="M27 22C27 21.4477 26.5523 21 26 21C25.4477 21 25 21.4477 25 22V25H22C21.4477 25 21 25.4477 21 26C21 26.5523 21.4477 27 22 27H26C26.5523 27 27 26.5523 27 26V22Z" fill="white"/>
<path d="M5 16C5 15.4477 5.44772 15 6 15H26C26.5523 15 27 15.4477 27 16C27 16.5523 26.5523 17 26 17H6C5.44772 17 5 16.5523 5 16Z" fill="white"/>
<path d="M10 7C10.5523 7 11 6.55228 11 6C11 5.44772 10.5523 5 10 5H6C5.44772 5 5 5.44772 5 6V10C5 10.5523 5.44772 11 6 11C6.55228 11 7 10.5523 7 10L7 7L10 7Z" fill="white"/>
<path fill-rule="evenodd" clip-rule="evenodd" d="M4.5 6C4.5 5.17157 5.17157 4.5 6 4.5H10C10.8284 4.5 11.5 5.17157 11.5 6C11.5 6.82843 10.8284 7.5 10 7.5L7.5 7.5V10C7.5 10.8284 6.82843 11.5 6 11.5C5.17157 11.5 4.5 10.8284 4.5 10V6ZM6 5.5C5.72386 5.5 5.5 5.72386 5.5 6V10C5.5 10.2761 5.72386 10.5 6 10.5C6.27614 10.5 6.5 10.2761 6.5 10L6.5 7C6.5 6.86739 6.55268 6.74021 6.64645 6.64645C6.74021 6.55268 6.86739 6.5 7 6.5L10 6.5C10.2761 6.5 10.5 6.27614 10.5 6C10.5 5.72386 10.2761 5.5 10 5.5H6ZM22 5.5C21.7239 5.5 21.5 5.72386 21.5 6C21.5 6.27614 21.7239 6.5 22 6.5H25C25.2761 6.5 25.5 6.72386 25.5 7V10C25.5 10.2761 25.7239 10.5 26 10.5C26.2761 10.5 26.5 10.2761 26.5 10V6C26.5 5.72386 26.2761 5.5 26 5.5H22ZM20.5 6C20.5 5.17157 21.1716 4.5 22 4.5H26C26.8284 4.5 27.5 5.17157 27.5 6V10C27.5 10.8284 26.8284 11.5 26 11.5C25.1716 11.5 24.5 10.8284 24.5 10V7.5H22C21.1716 7.5 20.5 6.82843 20.5 6ZM6 15.5C5.72386 15.5 5.5 15.7239 5.5 16C5.5 16.2761 5.72386 16.5 6 16.5H26C26.2761 16.5 26.5 16.2761 26.5 16C26.5 15.7239 26.2761 15.5 26 15.5H6ZM4.5 16C4.5 15.1716 5.17157 14.5 6 14.5H26C26.8284 14.5 27.5 15.1716 27.5 16C27.5 16.8284 26.8284 17.5 26 17.5H6C5.17157 17.5 4.5 16.8284 4.5 16ZM6 21.5C5.72386 21.5 5.5 21.7239 5.5 22V26C5.5 26.2761 5.72386 26.5 6 26.5H10C10.2761 26.5 10.5 26.2761 10.5 26C10.5 25.7239 10.2761 25.5 10 25.5H7C6.72386 25.5 6.5 25.2761 6.5 25V22C6.5 21.7239 6.27614 21.5 6 21.5ZM4.5 22C4.5 21.1716 5.17157 20.5 6 20.5C6.82843 20.5 7.5 21.1716 7.5 22V24.5H10C10.8284 24.5 11.5 25.1716 11.5 26C11.5 26.8284 10.8284 27.5 10 27.5H6C5.17157 27.5 4.5 26.8284 4.5 26V22ZM24.5 22C24.5 21.1716 25.1716 20.5 26 20.5C26.8284 20.5 27.5 21.1716 27.5 22V26C27.5 26.8284 26.8284 27.5 26 27.5H22C21.1716 27.5 20.5 26.8284 20.5 26C20.5 25.1716 21.1716 24.5 22 24.5H24.5V22ZM26 21.5C25.7239 21.5 25.5 21.7239 25.5 22V25C25.5 25.2761 25.2761 25.5 25 25.5H22C21.7239 25.5 21.5 25.7239 21.5 26C21.5 26.2761 21.7239 26.5 22 26.5H26C26.2761 26.5 26.5 26.2761 26.5 26V22C26.5 21.7239 26.2761 21.5 26 21.5Z" fill="white"/>
</svg>
